<svg id="Layer_1" data-name="Layer 1" xmlns="http://www.w3.org/2000/svg" xmlns:xlink="http://www.w3.org/1999/xlink" viewBox="0 0 440 209.23"><defs><style>.cls-1,.cls-7,.cls-8{stroke:#08b7fc;stroke-miterlimit:10;}.cls-1{fill:url(#linear-gradient);}.cls-2{fill:url(#linear-gradient-2);}.cls-3{fill:url(#linear-gradient-3);}.cls-4{fill:url(#linear-gradient-4);}.cls-5{fill:url(#linear-gradient-5);}.cls-6{fill:url(#linear-gradient-6);}.cls-7{fill:url(#linear-gradient-7);}.cls-8{fill:url(#linear-gradient-8);}.cls-9{fill:url(#linear-gradient-9);}.cls-10{fill:url(#linear-gradient-10);}.cls-11{fill:url(#linear-gradient-11);}.cls-12{fill:url(#linear-gradient-12);}.cls-13{fill:url(#linear-gradient-13);}.cls-14{fill:url(#linear-gradient-14);}.cls-15{fill:url(#linear-gradient-15);}.cls-16{fill:url(#linear-gradient-16);}.cls-17{fill:url(#linear-gradient-17);}.cls-18{fill:url(#linear-gradient-18);}.cls-19{fill:url(#linear-gradient-19);}.cls-20{fill:url(#linear-gradient-20);}.cls-21{fill:url(#linear-gradient-21);}.cls-22{fill:url(#linear-gradient-22);}.cls-23{fill:#5b889f;}.cls-24{fill:url(#linear-gradient-23);}</style><linearGradient id="linear-gradient" x1="233.77" y1="5.73" x2="233.09" y2="188.54" gradientUnits="userSpaceOnUse"><stop offset="0" stop-color="#b5e2f8"/><stop offset="0.2" stop-color="#b0e0f7"/><stop offset="0.42" stop-color="#a2daf3"/><stop offset="0.66" stop-color="#8bd0ec"/><stop offset="0.85" stop-color="#73c5e5"/></linearGradient><linearGradient id="linear-gradient-2" x1="232.7" y1="4.91" x2="235.01" y2="194.77" gradientUnits="userSpaceOnUse"><stop offset="0" stop-color="#dbf1fc"/><stop offset="0.66" stop-color="#ccecfb"/></linearGradient><linearGradient id="linear-gradient-3" x1="109.11" y1="69.61" x2="109.01" y2="94.9" gradientUnits="userSpaceOnUse"><stop offset="0" stop-color="#f5fbfe"/><stop offset="0.15" stop-color="#ecf8fd"/><stop offset="0.58" stop-color="#d4effc"/><stop offset="0.85" stop-color="#ccecfb"/></linearGradient><linearGradient id="linear-gradient-4" x1="206.71" y1="71.21" x2="206.67" y2="82.45" xlink:href="#linear-gradient-3"/><linearGradient id="linear-gradient-5" x1="270.17" y1="152.37" x2="270.12" y2="163.61" xlink:href="#linear-gradient-3"/><linearGradient id="linear-gradient-6" x1="236.44" y1="60.92" x2="236.15" y2="138.57" xlink:href="#linear-gradient-3"/><linearGradient id="linear-gradient-7" x1="302.65" y1="162.02" x2="432.29" y2="162.02" xlink:href="#linear-gradient"/><linearGradient id="linear-gradient-8" x1="7.71" y1="160.59" x2="239.71" y2="160.59" xlink:href="#linear-gradient"/><linearGradient id="linear-gradient-9" x1="114.88" y1="117.99" x2="114.64" y2="184.89" xlink:href="#linear-gradient"/><linearGradient id="linear-gradient-10" x1="112.46" y1="107.48" x2="113.52" y2="193.94" xlink:href="#linear-gradient-2"/><linearGradient id="linear-gradient-11" x1="358.04" y1="128.74" x2="358.75" y2="187.12" xlink:href="#linear-gradient-2"/><linearGradient id="linear-gradient-12" x1="524.58" y1="-185.33" x2="525.31" y2="-125.8" gradientTransform="matrix(0.88, -0.48, 0.41, 0.75, -13.51, 528.96)" xlink:href="#linear-gradient-2"/><linearGradient id="linear-gradient-13" x1="114.14" y1="134.79" x2="114.01" y2="169.52" xlink:href="#linear-gradient-3"/><linearGradient id="linear-gradient-14" x1="91.25" y1="160.03" x2="91.23" y2="164.72" xlink:href="#linear-gradient-3"/><linearGradient id="linear-gradient-15" x1="109.83" y1="171.76" x2="109.82" y2="173.85" xlink:href="#linear-gradient-3"/><linearGradient id="linear-gradient-16" x1="111.76" y1="129.26" x2="111.75" y2="131.35" xlink:href="#linear-gradient-3"/><linearGradient id="linear-gradient-17" x1="149.68" y1="-219.25" x2="149.56" y2="-187.61" gradientTransform="matrix(1.05, 0.19, -0.18, 0.98, -129.57, 338.71)" xlink:href="#linear-gradient-2"/><linearGradient id="linear-gradient-18" x1="150.26" y1="174.76" x2="193.43" y2="174.76" gradientTransform="translate(9.57 -8.92) rotate(3.06)" xlink:href="#linear-gradient-2"/><linearGradient id="linear-gradient-19" x1="17.48" y1="185.62" x2="55.31" y2="185.62" xlink:href="#linear-gradient-2"/><linearGradient id="linear-gradient-20" x1="306.81" y1="172.32" x2="335.59" y2="172.32" xlink:href="#linear-gradient-2"/><linearGradient id="linear-gradient-21" x1="195.05" y1="192.2" x2="232.88" y2="192.2" xlink:href="#linear-gradient"/><linearGradient id="linear-gradient-22" x1="125.72" y1="184.08" x2="163.55" y2="184.08" gradientTransform="matrix(0, 0.68, -1, 0, 600.98, 72.41)" xlink:href="#linear-gradient"/><linearGradient id="linear-gradient-23" x1="1168.92" y1="830.51" x2="1177.57" y2="830.51" gradientTransform="translate(552.82 -1341.43) rotate(63.68)" xlink:href="#linear-gradient-3"/></defs><path class="cls-1" d="M62.08,26.37S59.64,8.76,74.69,5.51C100.34,0,85.27,61.13,119.37,41.57,136.06,32,199.81,65.81,241.94,68.69c42.62,2.92,66.61-97.9,150.78,1.09,8.48,10,13.76,21.35,12.22,28.49-5.4,25.06-29.25,38-75.53,69.33-37.12,25.14-91.88,33.75-179.16-8.44C114.37,141.82,71.34,122.72,62.08,26.37Z"/><path class="cls-2" d="M119.1,51.61c13-11,29.46-1.18,29.67,15.8,0,1.1.73,1.75,2.33,1.82,0,0,12.74-5.42,67,16,0,0,24.43,12.33,68.13-32.52A40,40,0,0,1,327,42.4c7,2.26,14.33,5.57,20.31,10.38a47.21,47.21,0,0,0,7.38,5c9.66,5.14,32.92,20.5,23.3,45.15-4.32,11-13.8,19.26-25.13,22.79-15.88,4.94-39.83,13.51-20.38,15,0,0,15.12,3.7-25,3.23,0,0-6.39,2.43,19.81,3.3,0,0-56.88,40.22-122.38,3.78a.76.76,0,0,1,.26-1.42c8.36-1,18.73-2.85.54-4.27,0,0-52-3.86-48-7.93s.65-10.74-4.71-12c-7.28-1.72-17.79-2.88-32.93-2.54,0,0-48.94-25.75-27.63-71.5a3.59,3.59,0,0,1,5.86-.86C102.29,54.71,109.75,59.49,119.1,51.61Z"/><ellipse class="cls-3" cx="109.06" cy="82.25" rx="6.32" ry="12.65"/><ellipse class="cls-4" cx="206.69" cy="76.83" rx="13" ry="5.62"/><ellipse class="cls-5" cx="270.15" cy="157.99" rx="13" ry="5.62"/><path class="cls-6" d="M157.6,73.3s40.14,9.49,37.29,23.32c0,0,53.12-4.52,75.26,6.51,0,0,16.54-58.57,63.52-37.26,0,0,42.24,36,7.5,63.38,0,0-22,7.47-56.21,9.5,0,0,31.85-4.3-53.87-2.26,0,0-111.47,3.85-51.05-6.11C180,130.38,56.2,105.67,157.6,73.3Z"/><path class="cls-7" d="M308.33,163.41c5.57-2.61,13.11-3.91,22.93-1.29,0,0,3.91-40.65,49.24-16.37,0,0,22.38-13.72,36.37,13.2,0,0,21.64,3.85,13.65,15.18-3.58,5.07-10,7.53-16.48,7-5-.42-10.63-2.15-13.4-7.37,0,0-24.06,23.23-66,5.8A107.68,107.68,0,0,1,313,182C302.14,181.85,298.63,168,308.33,163.41Z"/><path class="cls-8" d="M8.65,191.52s48.86,10.62,56.24,1.33c0,0,61.52,6.63,81.2-.33,0,0,10,17.33,37.26,7,12.14-4.62,32.39,11.81,51.56.63a9.13,9.13,0,0,0,2.64-13.91c-5.17-6.23-15.84-12.81-37-7.28,0,0,3.17-28.85-40.42-24.21,0,0-.35-44.11-56.94-36.81,0,0-35.15,8.62-32,33.83,0,0-27.42-10.62-30.93,19.23,0,0-15.12-5.3-24.61,10.61C15.68,181.57,4.43,184.89,8.65,191.52Z"/><path class="cls-9" d="M79,155.66s-4.14-12.77,4-20.2c0,0,10.16-5.93,15.34-13,0,0,6.21-5.41,14.43-4.3,0,0,9.15,0,30.7,12.9,0,0,16.3,15,2.95,38,0,0-7,5.56-14.85,12.86,0,0-18.93,7.76-35.24-1.56C96.29,180.3,77,173.52,79,155.66Z"/><path class="cls-10" d="M106,124.23s-5.76,3.48-2.84,3.77a4,4,0,0,1,4.84,3.12,79.24,79.24,0,0,0,18.14,1.38,12.8,12.8,0,0,1,10,7.69s11,9.67,2.77,27.75c0,0-11.79,6.87-6.36,7.74,0,0,3,1.55-4.92,1.36,0,0-1.25,1,3.9,1.37a41.63,41.63,0,0,1-25.45,1.31s6.76-1.23,1.54-2.1c0,0-15.15-2.4-7.15-4.43,0,0,1.84-1.67-7.23-1.23,0,0-16-17.46-5.69-34.29C87.55,137.67,102.72,124.38,106,124.23Z"/><path class="cls-11" d="M353.68,140.05s-3.89,2.35-1.92,2.55a2.73,2.73,0,0,1,3.27,2.1,53.48,53.48,0,0,0,12.25.94,8.63,8.63,0,0,1,6.75,5.19s7.4,6.53,1.87,18.74c0,0-8,4.63-4.29,5.22,0,0,2,1.05-3.33.92,0,0-.84.68,2.63.93a28.09,28.09,0,0,1-17.18.88s4.57-.83,1-1.42c0,0-10.23-1.62-4.83-3,0,0,1.25-1.13-4.88-.83,0,0-10.83-11.79-3.84-23.15C341.22,149.13,351.46,140.15,353.68,140.05Z"/><path class="cls-12" d="M371.09,148.59s-2.38,3.53-.57,2.79a2.9,2.9,0,0,1,3.79.11,60.72,60.72,0,0,0,11.16-4.84,9.13,9.13,0,0,1,8.19.87s9.35,1.57,9.83,13.3c0,0-5,7.09-1.48,5.88,0,0,2.21-.12-2.52,2.19,0,0-.44.9,2.72-.49a30.81,30.81,0,0,1-14.7,8.44s3.65-2.69.29-1.54c0,0-9.68,3.4-5.54-.07,0,0,.6-1.42-4.65,1.58,0,0-14.65-4-13.48-15.74C364.13,161.07,369.19,149.66,371.09,148.59Z"/><path class="cls-13" d="M101.74,134.87s2.35-1,.48,2.61c0,0,9.54-2.61,13.89,1.63,0,0,10.45,3.15,13.31,2.45,0,0,13.72,12.34,1.47,24.33a27.37,27.37,0,0,1-11,3.65s6.26-1.65-10.59-.86c0,0-21.93,1.47-10-2.35C99.21,166.33,81.8,147.3,101.74,134.87Z"/><ellipse class="cls-14" cx="91.24" cy="162.38" rx="1.24" ry="2.35"/><ellipse class="cls-15" cx="109.82" cy="172.8" rx="2.56" ry="1.04"/><ellipse class="cls-16" cx="111.76" cy="130.31" rx="2.56" ry="1.04"/><ellipse class="cls-17" cx="63.34" cy="167.08" rx="13.48" ry="15.89" transform="translate(-112.64 136.14) rotate(-59.27)"/><ellipse class="cls-18" cx="171.84" cy="174.76" rx="21.59" ry="17.61" transform="translate(-9.08 9.42) rotate(-3.06)"/><ellipse class="cls-19" cx="36.4" cy="185.62" rx="18.92" ry="5.04"/><ellipse class="cls-20" cx="321.2" cy="172.32" rx="14.39" ry="5.12"/><ellipse class="cls-21" cx="213.97" cy="192.2" rx="18.92" ry="5.04"/><ellipse class="cls-22" cx="416.71" cy="170.59" rx="5.04" ry="12.89" transform="translate(236.39 583.19) rotate(-88.66)"/><path class="cls-23" d="M345.1,56l-1.48,1.46L309.22,65,305,102.71l-.1.84-.43.25a46.68,46.68,0,0,0-9,7c-2.72,2.59-5.15,5.44-7.64,8.24a150.56,150.56,0,0,0-13.6,18l-1.76,2.79-1.56-2.94a200.58,200.58,0,0,0-16.59-25.38,171.1,171.1,0,0,0-20-22.79l1.31.82a62.38,62.38,0,0,0-6.87-2.61c-2.31-.75-4.64-1.42-7-2s-4.7-1.09-7.07-1.59-6.09.54-6.09.54L186.78,95.51l-2.15,1.15-.84-2.18-7.85-20.21c-.08-.25,2.72-.32,2.72-.32l9.61,19.16-3-1,21.77-11.66,1.1-.58.33.37a10.86,10.86,0,0,0,6.7,3.47c2.38.41,4.75.84,7.16,1.13s4.8.57,7.23.72a62,62,0,0,0,7.35.11l.87,0,.44.85a170.7,170.7,0,0,0,16.59,25.38,201.43,201.43,0,0,0,20,22.79l-3.31-.15a151.55,151.55,0,0,0,16.66-15.21c2.56-2.73,5.18-5.41,7.5-8.36a47.36,47.36,0,0,0,6.11-9.64l-.53,1.09,8.52-37L343,53.72l-1.48,1.46"/><path class="cls-23" d="M343.56,52.94l21.59,18.93s-18-17.81-25.23-13.27Z"/><path class="cls-23" d="M304.39,98.71,326,117.65s-18.05-17.82-25.23-13.27Z"/><path class="cls-23" d="M238.06,90,218.22,110.8s18.57-17.27,14.33-24.64Z"/><path class="cls-23" d="M189.1,93.59l-19.84,20.76s18.57-17.28,14.33-24.64Z"/><path class="cls-23" d="M333.15,72.63A8,8,0,0,0,325,74.88s.93.43-2.66,4.35c0,0,0,6.56,4.33,5.51,0,0,3,1.83,3.05-3.69,0,0-1.49-2.74,3.18-4.64C332.9,76.41,337.17,75.14,333.15,72.63Z"/><path class="cls-24" d="M331.88,73.79a6.35,6.35,0,0,0-6.43,1.77s.73.34-2.09,3.43c0,0,0,5.18,3.41,4.35,0,0,2.34,1.44,2.41-2.91,0,0-1.18-2.16,2.5-3.66C331.68,76.77,335.05,75.77,331.88,73.79Z"/></svg>