<svg xmlns="http://www.w3.org/2000/svg" xmlns:xlink="http://www.w3.org/1999/xlink" viewBox="0 0 430 390"><defs><style>.cls-1{isolation:isolate;}.cls-2,.cls-8,.cls-9{stroke:#08b7fc;stroke-miterlimit:10;}.cls-2{fill:url(#linear-gradient);}.cls-3{fill:url(#linear-gradient-2);}.cls-4{fill:url(#linear-gradient-3);}.cls-5{fill:url(#linear-gradient-4);}.cls-6{fill:url(#linear-gradient-5);}.cls-7{fill:url(#linear-gradient-6);}.cls-8{fill:url(#linear-gradient-7);}.cls-9{fill:url(#linear-gradient-8);}.cls-10{fill:url(#linear-gradient-9);}.cls-11{fill:url(#linear-gradient-10);}.cls-12{fill:url(#linear-gradient-11);}.cls-13{fill:url(#linear-gradient-12);}.cls-14{fill:url(#linear-gradient-13);}.cls-15{fill:url(#linear-gradient-14);}.cls-16{fill:url(#linear-gradient-15);}.cls-17{fill:url(#linear-gradient-16);}.cls-18{fill:url(#linear-gradient-17);}.cls-19{fill:url(#linear-gradient-18);}.cls-20{fill:url(#linear-gradient-19);}.cls-21{fill:url(#linear-gradient-20);}.cls-22{fill:url(#linear-gradient-21);}.cls-23{fill:url(#linear-gradient-22);}.cls-24{fill:#5b889f;}.cls-25{mix-blend-mode:color-dodge;}.cls-26{fill:url(#linear-gradient-23);}.cls-27{fill:url(#linear-gradient-24);}.cls-28{fill:url(#linear-gradient-25);}.cls-29{fill:url(#linear-gradient-26);}.cls-30{fill:url(#linear-gradient-27);}.cls-31{fill:url(#linear-gradient-28);}</style><linearGradient id="linear-gradient" x1="238.97" y1="3.81" x2="237.61" y2="370.91" gradientUnits="userSpaceOnUse"><stop offset="0" stop-color="#b5e2f8"/><stop offset="0.2" stop-color="#b0e0f7"/><stop offset="0.42" stop-color="#a2daf3"/><stop offset="0.66" stop-color="#8bd0ec"/><stop offset="0.85" stop-color="#73c5e5"/></linearGradient><linearGradient id="linear-gradient-2" x1="228.26" y1="-52.89" x2="233.97" y2="415.21" gradientUnits="userSpaceOnUse"><stop offset="0" stop-color="#dbf1fc"/><stop offset="0.66" stop-color="#ccecfb"/></linearGradient><linearGradient id="linear-gradient-3" x1="237.02" y1="94.94" x2="236.32" y2="283.03" gradientUnits="userSpaceOnUse"><stop offset="0" stop-color="#f5fbfe"/><stop offset="0.15" stop-color="#ecf8fd"/><stop offset="0.58" stop-color="#d4effc"/><stop offset="0.85" stop-color="#ccecfb"/></linearGradient><linearGradient id="linear-gradient-4" x1="120.05" y1="231.61" x2="119.96" y2="257.02" xlink:href="#linear-gradient-3"/><linearGradient id="linear-gradient-5" x1="214.96" y1="295.14" x2="214.92" y2="306.43" xlink:href="#linear-gradient-3"/><linearGradient id="linear-gradient-6" x1="224.85" y1="65.02" x2="224.8" y2="76.32" xlink:href="#linear-gradient-3"/><linearGradient id="linear-gradient-7" x1="297.47" y1="344.03" x2="427.12" y2="344.03" xlink:href="#linear-gradient"/><linearGradient id="linear-gradient-8" x1="2.53" y1="342.59" x2="234.53" y2="342.59" xlink:href="#linear-gradient"/><linearGradient id="linear-gradient-9" x1="109.71" y1="299.99" x2="109.46" y2="366.9" xlink:href="#linear-gradient"/><linearGradient id="linear-gradient-10" x1="107.29" y1="289.49" x2="108.34" y2="375.95" xlink:href="#linear-gradient-2"/><linearGradient id="linear-gradient-11" x1="352.86" y1="310.75" x2="353.58" y2="369.13" xlink:href="#linear-gradient-2"/><linearGradient id="linear-gradient-12" x1="654.29" y1="-1011.3" x2="655.01" y2="-951.77" gradientTransform="matrix(0.88, -0.48, 0.41, 0.75, 207.98, 1396.57)" xlink:href="#linear-gradient-2"/><linearGradient id="linear-gradient-13" x1="108.96" y1="316.8" x2="108.83" y2="351.53" xlink:href="#linear-gradient-3"/><linearGradient id="linear-gradient-14" x1="86.07" y1="342.04" x2="86.05" y2="346.73" xlink:href="#linear-gradient-3"/><linearGradient id="linear-gradient-15" x1="104.65" y1="353.77" x2="104.64" y2="355.85" xlink:href="#linear-gradient-3"/><linearGradient id="linear-gradient-16" x1="106.58" y1="311.27" x2="106.58" y2="313.36" xlink:href="#linear-gradient-3"/><linearGradient id="linear-gradient-17" x1="708.73" y1="-1468.44" x2="708.61" y2="-1436.8" gradientTransform="matrix(1.05, 0.19, -0.18, 0.98, -943.17, 1643.17)" xlink:href="#linear-gradient-2"/><linearGradient id="linear-gradient-18" x1="145.09" y1="356.76" x2="188.25" y2="356.76" gradientTransform="translate(19.27 -8.39) rotate(3.06)" xlink:href="#linear-gradient-2"/><linearGradient id="linear-gradient-19" x1="12.31" y1="367.62" x2="50.14" y2="367.62" xlink:href="#linear-gradient-2"/><linearGradient id="linear-gradient-20" x1="301.64" y1="354.32" x2="330.42" y2="354.32" xlink:href="#linear-gradient-2"/><linearGradient id="linear-gradient-21" x1="189.87" y1="374.21" x2="227.7" y2="374.21" xlink:href="#linear-gradient"/><linearGradient id="linear-gradient-22" x1="-720.82" y1="412.17" x2="-682.99" y2="412.17" gradientTransform="matrix(0, 0.68, -1, 0, 822.75, 831.64)" xlink:href="#linear-gradient"/><linearGradient id="linear-gradient-23" x1="201.82" y1="272.7" x2="202.54" y2="272.7" gradientUnits="userSpaceOnUse"><stop offset="0" stop-color="#486670"/><stop offset="1" stop-color="#2e3955"/></linearGradient><linearGradient id="linear-gradient-24" x1="144.42" y1="271.59" x2="190.44" y2="271.59" xlink:href="#linear-gradient-23"/><linearGradient id="linear-gradient-25" x1="284.36" y1="112.79" x2="301.18" y2="112.79" xlink:href="#linear-gradient-3"/><linearGradient id="linear-gradient-26" x1="2152.32" y1="2617.07" x2="2169.15" y2="2617.07" gradientTransform="translate(1560.36 -2963.82) rotate(63.68)" xlink:href="#linear-gradient-3"/><linearGradient id="linear-gradient-27" x1="2268.88" y1="2651.82" x2="2277.48" y2="2651.82" gradientTransform="translate(1560.36 -2963.82) rotate(63.68)" xlink:href="#linear-gradient-3"/><linearGradient id="linear-gradient-28" x1="2336.91" y1="2540.41" x2="2345.51" y2="2540.41" gradientTransform="translate(1560.36 -2963.82) rotate(63.68)" xlink:href="#linear-gradient-3"/></defs><g class="cls-1"><g id="Layer_1" data-name="Layer 1"><path class="cls-2" d="M57.24,208C54.58,180.26,32,134.11,77.71,98.55,98.52,82.36,125.47,63.25,156.06,28,168.73,13.35,187.5,1.77,229.83,4.67c42.82,2.93,62.93-20.82,156.82,69.88,34.59,33.41,63.76,66.82,15.06,205.65-8.53,24.3-29.39,38.16-75.88,69.65-37.3,25.26-92.32,33.9-180-8.48C109.78,324,66.54,304.76,57.24,208Z"/><path class="cls-3" d="M195.43,37.77S166,56.62,180.9,58.19c0,0,16.69-4.46,24.74,16.89,0,0,46,10.21,92.69,7.46,0,0,33.78,2.36,51.06,41.64,0,0,56,52.37,14.14,150.29,0,0-60.22,37.18-32.47,41.9,0,0,15.19,8.38-25.13,7.33,0,0-6.42,5.5,19.9,7.46,0,0-56.95,27.1-130,7.07,0,0,34.57-6.68,7.86-11.39,0,0-77.37-13-36.53-24,0,0,9.43-9-36.92-6.67,0,0-81.95-94.53-29.06-185.65C101.17,110.56,178.67,38.56,195.43,37.77Z"/><path class="cls-4" d="M173.65,95.37s12-5.29,2.47,14.12c0,0,48.71-14.12,70.94,8.83,0,0,53.41,17.05,68,13.29,0,0,70.12,66.82,7.53,131.76,0,0-22.12,15.53-56.47,19.77,0,0,32-8.94-54.12-4.71,0,0-112,8-51.29-12.7C160.71,265.73,71.77,162.67,173.65,95.37Z"/><ellipse class="cls-5" cx="120" cy="244.32" rx="6.35" ry="12.71"/><ellipse class="cls-6" cx="214.94" cy="300.79" rx="13.06" ry="5.65"/><ellipse class="cls-7" cx="224.83" cy="70.67" rx="13.06" ry="5.65"/><path class="cls-8" d="M303.15,345.42c5.57-2.61,13.11-3.91,22.93-1.29,0,0,3.92-40.66,49.24-16.37,0,0,22.39-13.73,36.38,13.2,0,0,21.63,3.85,13.65,15.17-3.58,5.08-10.05,7.53-16.48,7-5-.42-10.64-2.16-13.4-7.38,0,0-24.06,23.23-66,5.81A107.39,107.39,0,0,1,307.79,364C297,363.85,293.45,350,303.15,345.42Z"/><path class="cls-9" d="M3.48,373.53s48.85,10.61,56.24,1.33c0,0,61.51,6.63,81.19-.34,0,0,10,17.34,37.26,7,12.15-4.62,32.39,11.8,51.57.62a9.13,9.13,0,0,0,2.64-13.9c-5.18-6.23-15.85-12.81-37-7.28,0,0,3.16-28.86-40.43-24.21,0,0-.35-44.11-56.94-36.81,0,0-35.15,8.62-32,33.82,0,0-27.41-10.61-30.93,19.24,0,0-15.11-5.31-24.6,10.61C10.51,363.58-.74,366.9,3.48,373.53Z"/><path class="cls-10" d="M73.78,337.67s-4.15-12.78,4-20.21c0,0,10.16-5.93,15.34-13,0,0,6.22-5.41,14.44-4.3,0,0,9.14-.05,30.69,12.9,0,0,16.31,15,2.95,38,0,0-7,5.56-14.85,12.86,0,0-18.93,7.76-35.23-1.56C91.12,362.31,71.77,355.53,73.78,337.67Z"/><path class="cls-11" d="M100.83,306.24S95.06,309.72,98,310a4,4,0,0,1,4.84,3.12A80,80,0,0,0,121,314.51a12.76,12.76,0,0,1,10,7.69s11,9.67,2.77,27.75c0,0-11.79,6.87-6.36,7.74,0,0,3,1.54-4.92,1.35,0,0-1.25,1,3.9,1.38a41.72,41.72,0,0,1-25.45,1.31s6.77-1.24,1.54-2.11c0,0-15.14-2.39-7.15-4.42,0,0,1.85-1.67-7.23-1.24,0,0-16-17.45-5.68-34.28C82.38,319.68,97.55,306.38,100.83,306.24Z"/><path class="cls-12" d="M348.5,322.06s-3.89,2.35-1.92,2.54a2.74,2.74,0,0,1,3.27,2.11,53.88,53.88,0,0,0,12.25.93,8.64,8.64,0,0,1,6.75,5.19s7.41,6.53,1.87,18.74c0,0-8,4.64-4.29,5.23,0,0,2,1-3.32.91,0,0-.85.69,2.63.93a28.13,28.13,0,0,1-17.19.88s4.57-.83,1-1.42c0,0-10.22-1.61-4.82-3,0,0,1.24-1.13-4.88-.84,0,0-10.84-11.78-3.85-23.14C336,331.14,346.29,322.16,348.5,322.06Z"/><path class="cls-13" d="M365.92,330.59s-2.39,3.54-.57,2.79a2.91,2.91,0,0,1,3.79.11,60,60,0,0,0,11.15-4.84,9.16,9.16,0,0,1,8.19.87s9.36,1.58,9.83,13.3c0,0-5,7.1-1.48,5.89,0,0,2.22-.12-2.52,2.19,0,0-.44.9,2.72-.49a30.81,30.81,0,0,1-14.7,8.44s3.65-2.7.3-1.54c0,0-9.69,3.4-5.55-.08,0,0,.6-1.41-4.64,1.58,0,0-14.66-4-13.49-15.73C359,343.08,364,331.67,365.92,330.59Z"/><path class="cls-14" d="M96.56,316.88s2.35-1,.49,2.6c0,0,9.53-2.6,13.88,1.63,0,0,10.46,3.15,13.31,2.46,0,0,13.73,12.34,1.48,24.33a27.38,27.38,0,0,1-11.06,3.65s6.27-1.65-10.59-.87c0,0-21.92,1.48-10-2.34C94,348.34,76.62,329.3,96.56,316.88Z"/><ellipse class="cls-15" cx="86.06" cy="344.38" rx="1.24" ry="2.35"/><ellipse class="cls-16" cx="104.65" cy="354.81" rx="2.56" ry="1.04"/><ellipse class="cls-17" cx="106.58" cy="312.31" rx="2.56" ry="1.04"/><ellipse class="cls-18" cx="58.16" cy="349.08" rx="13.48" ry="15.89" transform="translate(-271.62 220.69) rotate(-59.27)"/><ellipse class="cls-19" cx="166.67" cy="356.76" rx="21.59" ry="17.61" transform="translate(-18.8 9.4) rotate(-3.06)"/><ellipse class="cls-20" cx="31.22" cy="367.62" rx="18.92" ry="5.04"/><ellipse class="cls-21" cx="316.03" cy="354.32" rx="14.39" ry="5.12"/><ellipse class="cls-22" cx="208.79" cy="374.21" rx="18.92" ry="5.04"/><ellipse class="cls-23" cx="411.53" cy="352.6" rx="5.04" ry="12.89" transform="translate(49.38 755.75) rotate(-88.66)"/><path class="cls-24" d="M345.56,145.72l28.24-4.27s-25.12,2.3-26.27,10.67Z"/><path class="cls-24" d="M345.47,200.89l28.56-.71s-25.22-.85-27.4,7.31Z"/><g class="cls-25"><path class="cls-26" d="M202.47,272.8a1.76,1.76,0,0,1-.31.66l-.19.22a15,15,0,0,1,.45-2A1.94,1.94,0,0,1,202.47,272.8Z"/><path class="cls-27" d="M202.44,271.58v0h0Z"/></g><path class="cls-24" d="M239.4,77.76l1.14-1.66,1.52.92,16.14,9.72c-.11-2.36.6-2.63,1.35-2.8A6.45,6.45,0,0,1,262,84a6.06,6.06,0,0,0,2.47,0c.73-.22,1.42-.56,2.13-.83,2.82-1.14,5.63-2.32,8.41-3.57a161.11,161.11,0,0,0,16.35-8.33l.92-.54.65.54a48.62,48.62,0,0,0,11.15,6.56,37.36,37.36,0,0,0,6,2.2,18.64,18.64,0,0,0,6.65.51l1.48-.2-.11,2.2L316,123.33l31.49,23.52,1.33,1-.72,1.47-14.37,29.43L348,202.27l.56.92-.42.66a68.81,68.81,0,0,0-7.27,16.84,69.57,69.57,0,0,0-3.16,18.06l0,1.13-1.45.32L302,247.68l-4.24,37.5-.1.83-.43.25a46.51,46.51,0,0,0-9,6.94c-2.71,2.57-5.13,5.41-7.6,8.19a150.92,150.92,0,0,0-13.53,17.91l-1.75,2.77-1.55-2.92a201.42,201.42,0,0,0-16.5-25.25,170.68,170.68,0,0,0-19.9-22.67l1.31.81a63,63,0,0,0-6.84-2.59c-2.3-.75-4.61-1.42-7-2s-4.68-1.08-7-1.58a10.77,10.77,0,0,0-7.47.75l1.41-.22L180.2,278l-2.13,1.14-.84-2.17-7.81-20.11c-.08-.24-3.68-24.72-3.68-24.72l-33.08-9.42-.35-.1-.15-.15a139.22,139.22,0,0,0-17.94-14.89c-3.14-2.26-6.35-4.43-9.7-6.37a63.48,63.48,0,0,0-10.61-5.06l-7.1-2.46,7.93-1.42,44.63-8-1.35.84,11-11.44.74-38,1.4,2.17-37-15.94,24.58-14.68.42-.25.54,0,40.18,1.57-.53.36,1.23-1.5c-.11-.61.25-1,.34-1.55l.48-1.5,1-3,1.92-6,3.84-12,.58-1.8,1.36.47a37.18,37.18,0,0,0,11.35,1.79,28.92,28.92,0,0,0,5.65-.31,15.67,15.67,0,0,0,5.6-2.06l.69-.44.68.9a63.89,63.89,0,0,0,7.16,7.69c1.24,1.22,2.58,2.32,3.87,3.47l2,1.65,1,.81.51.41m0,0-1-.77-2.09-1.55c-1.43-1-2.82-2-4.31-2.9a63,63,0,0,0-9.21-5l1.37.45a15.79,15.79,0,0,0-5.7-1.77,28.83,28.83,0,0,0-5.65,0,37.17,37.17,0,0,0-11.25,2.37l1.93-1.33L187,96.69l-2.85,5.6-1.42,2.81-.72,1.4c-.29.44-.33,1-.85,1.34l-.17,1.93,0,.34-.5,0-40.18,1.57,1-.22-26.5,10.83,38.46,11.92,1.62.5-.23,1.68-5,37.63L142,188l-.36.67-1,.18-44.62,8,.83-3.89a63.71,63.71,0,0,0,8.52,8.1c3,2.44,6.19,4.66,9.42,6.78a139.12,139.12,0,0,0,20.31,11.44l-.5-.26,31.65,13.47,5.85,24-.07-.25,9.64,19.3-3-1L200.37,263l1.09-.58.33.36a10.75,10.75,0,0,0,6.67,3.45c2.36.41,4.73.84,7.11,1.13s4.78.56,7.2.72a63.48,63.48,0,0,0,7.31.11l.87-.05.44.86a169.35,169.35,0,0,0,16.5,25.24,199.37,199.37,0,0,0,19.89,22.67l-3.3-.15a150.94,150.94,0,0,0,16.58-15.13c2.55-2.71,5.15-5.38,7.46-8.32a46.08,46.08,0,0,0,6.07-9.58l-.52,1.08,8.47-36.77,33-11.61-1.47,1.45a70.12,70.12,0,0,0,7.28-16.83A69.22,69.22,0,0,0,344.55,203l.14,1.59-10.46-25.47,10.39-31.05.61,2.46L316.49,123.7l-2.15-40.78,1.37,2a18.91,18.91,0,0,0-5.24-4.13,38.34,38.34,0,0,0-5.9-2.43,48.48,48.48,0,0,0-12.65-2.71h1.58a161.29,161.29,0,0,0-17.62,5.14c-2.88,1-5.74,2-8.57,3.16-.71.28-1.44.5-2.12.85a6,6,0,0,0-1.78,1.71,6.53,6.53,0,0,1-1.77,1.72c-.67.39-1.37.69-2.9-1.12L240.81,81.3l2.66-.73"/><path class="cls-24" d="M336.17,235.66l21.48,18.84s-18-17.72-25.1-13.2Z"/><path class="cls-24" d="M297.2,281.2,318.67,300s-17.95-17.72-25.1-13.2Z"/><path class="cls-24" d="M231.21,272.57l-19.73,20.66S230,276,225.74,268.71Z"/><path class="cls-24" d="M182.51,276.1l-19.73,20.66s18.46-17.19,14.25-24.52Z"/><path class="cls-24" d="M166.16,232.44l-15,24.3s14.49-20.65,8.85-26.94Z"/><path class="cls-24" d="M148.72,175.17,122,165.1s23,10.26,28.14,3.52Z"/><path class="cls-24" d="M181.08,109.19,154.35,99.12s23.05,10.27,28.14,3.52Z"/><path class="cls-24" d="M313.82,82.06l24.11-15.32S315.87,79,318.21,87.12Z"/><path class="cls-24" d="M289.72,75l-2.44-28.46s.68,25.22,9,26.9Z"/><path class="cls-24" d="M239,80.62l-2.44-28.46s.67,25.22,9,26.91Z"/><path class="cls-24" d="M212.57,84.45l2.8-15.73s-3.28,13.73.95,15.84Z"/><path class="cls-24" d="M286.66,99.77a15.62,15.62,0,0,0-3.11,16.15s1.56-1.24,5.28,8.39c0,0,11.49,5.58,13.36-2.8,0,0,5.74-3.61-3.81-8.5,0,0-6.05.23-5.36-9.55C293,103.46,294.5,94.92,286.66,99.77Z"/><path class="cls-28" d="M287.58,103a12.29,12.29,0,0,0-2.44,12.73s1.22-1,4.16,6.61c0,0,9.06,4.4,10.52-2.21,0,0,4.53-2.84-3-6.7,0,0-4.78.19-4.23-7.53C292.6,105.89,293.77,99.16,287.58,103Z"/><path class="cls-24" d="M181.46,122a15.61,15.61,0,0,0-15.85,4.38s1.8.84-5.17,8.44c0,0,.08,12.78,8.42,10.73,0,0,5.78,3.55,5.93-7.17,0,0-2.89-5.33,6.19-9C181,129.32,189.29,126.86,181.46,122Z"/><path class="cls-29" d="M179,124.23a12.32,12.32,0,0,0-12.49,3.45s1.42.67-4.08,6.66c0,0,.06,10.08,6.64,8.46,0,0,4.56,2.8,4.68-5.66,0,0-2.29-4.19,4.87-7.12C178.61,130,185.16,128.08,179,124.23Z"/><path class="cls-24" d="M195.79,243.67a8,8,0,0,0-8.1,2.24s.92.43-2.65,4.32c0,0,0,6.53,4.31,5.49,0,0,3,1.81,3-3.68,0,0-1.48-2.72,3.17-4.62C195.55,247.42,199.8,246.16,195.79,243.67Z"/><path class="cls-30" d="M194.53,244.82a6.28,6.28,0,0,0-6.39,1.77s.73.33-2.09,3.4c0,0,0,5.15,3.4,4.33,0,0,2.33,1.43,2.39-2.9,0,0-1.16-2.14,2.5-3.64C194.34,247.78,197.69,246.79,194.53,244.82Z"/><path class="cls-24" d="M325.81,255.26a8,8,0,0,0-8.11,2.23s.93.43-2.64,4.33c0,0,0,6.53,4.31,5.48,0,0,2.95,1.82,3-3.67,0,0-1.48-2.72,3.16-4.62C325.56,259,329.81,257.75,325.81,255.26Z"/><path class="cls-31" d="M324.55,256.41a6.29,6.29,0,0,0-6.39,1.76s.72.34-2.09,3.41c0,0,0,5.15,3.4,4.33,0,0,2.33,1.43,2.39-2.9,0,0-1.17-2.14,2.49-3.64C324.35,259.37,327.7,258.38,324.55,256.41Z"/></g></g></svg>