<svg id="Layer_1" data-name="Layer 1" xmlns="http://www.w3.org/2000/svg" xmlns:xlink="http://www.w3.org/1999/xlink" viewBox="0 0 300 256"><defs><style>.cls-1,.cls-7,.cls-8{stroke:#08b7fc;stroke-miterlimit:10;}.cls-1{fill:url(#linear-gradient);}.cls-2{fill:url(#linear-gradient-2);}.cls-3{fill:url(#linear-gradient-3);}.cls-4{fill:url(#linear-gradient-4);}.cls-5{fill:url(#linear-gradient-5);}.cls-6{fill:url(#linear-gradient-6);}.cls-7{fill:url(#linear-gradient-7);}.cls-8{fill:url(#linear-gradient-8);}.cls-9{fill:url(#linear-gradient-9);}.cls-10{fill:url(#linear-gradient-10);}.cls-11{fill:url(#linear-gradient-11);}.cls-12{fill:url(#linear-gradient-12);}.cls-13{fill:url(#linear-gradient-13);}.cls-14{fill:url(#linear-gradient-14);}.cls-15{fill:url(#linear-gradient-15);}.cls-16{fill:url(#linear-gradient-16);}.cls-17{fill:url(#linear-gradient-17);}.cls-18{fill:url(#linear-gradient-18);}.cls-19{fill:url(#linear-gradient-19);}.cls-20{fill:url(#linear-gradient-20);}.cls-21{fill:url(#linear-gradient-21);}.cls-22{fill:url(#linear-gradient-22);}</style><linearGradient id="linear-gradient" x1="164.8" y1="4.44" x2="163.91" y2="244.77" gradientUnits="userSpaceOnUse"><stop offset="0" stop-color="#b5e2f8"/><stop offset="0.2" stop-color="#b0e0f7"/><stop offset="0.42" stop-color="#a2daf3"/><stop offset="0.66" stop-color="#8bd0ec"/><stop offset="0.85" stop-color="#73c5e5"/></linearGradient><linearGradient id="linear-gradient-2" x1="157.79" y1="-32.67" x2="161.53" y2="273.76" gradientUnits="userSpaceOnUse"><stop offset="0" stop-color="#dbf1fc"/><stop offset="0.66" stop-color="#ccecfb"/></linearGradient><linearGradient id="linear-gradient-3" x1="163.52" y1="64.1" x2="163.07" y2="187.23" gradientUnits="userSpaceOnUse"><stop offset="0" stop-color="#f5fbfe"/><stop offset="0.15" stop-color="#ecf8fd"/><stop offset="0.58" stop-color="#d4effc"/><stop offset="0.85" stop-color="#ccecfb"/></linearGradient><linearGradient id="linear-gradient-4" x1="86.95" y1="153.57" x2="86.89" y2="170.21" xlink:href="#linear-gradient-3"/><linearGradient id="linear-gradient-5" x1="149.08" y1="195.16" x2="149.06" y2="202.55" xlink:href="#linear-gradient-3"/><linearGradient id="linear-gradient-6" x1="155.55" y1="44.52" x2="155.53" y2="51.91" xlink:href="#linear-gradient-3"/><linearGradient id="linear-gradient-7" x1="152.17" y1="307.99" x2="231.46" y2="307.99" gradientTransform="matrix(1, 0.07, -0.07, 1, 62.9, -88.62)" xlink:href="#linear-gradient"/><linearGradient id="linear-gradient-8" x1="-28.22" y1="307.11" x2="113.68" y2="307.11" gradientTransform="matrix(1, 0.07, -0.07, 1, 62.9, -88.62)" xlink:href="#linear-gradient"/><linearGradient id="linear-gradient-9" x1="37.33" y1="281.06" x2="37.18" y2="321.98" gradientTransform="matrix(1, 0.07, -0.07, 1, 62.9, -88.62)" xlink:href="#linear-gradient"/><linearGradient id="linear-gradient-10" x1="35.85" y1="274.64" x2="36.5" y2="327.51" gradientTransform="matrix(1, 0.07, -0.07, 1, 62.9, -88.62)" xlink:href="#linear-gradient-2"/><linearGradient id="linear-gradient-11" x1="186.05" y1="287.64" x2="186.48" y2="323.34" gradientTransform="matrix(1, 0.07, -0.07, 1, 62.9, -88.62)" xlink:href="#linear-gradient-2"/><linearGradient id="linear-gradient-12" x1="716.73" y1="-1322.07" x2="717.17" y2="-1285.66" gradientTransform="matrix(0.91, -0.42, 0.36, 0.78, 56.62, 1549.54)" xlink:href="#linear-gradient-2"/><linearGradient id="linear-gradient-13" x1="36.88" y1="291.34" x2="36.8" y2="312.58" gradientTransform="matrix(1, 0.07, -0.07, 1, 62.9, -88.62)" xlink:href="#linear-gradient-3"/><linearGradient id="linear-gradient-14" x1="22.88" y1="306.77" x2="22.87" y2="309.64" gradientTransform="translate(372.11 197.56) rotate(90)" xlink:href="#linear-gradient-3"/><linearGradient id="linear-gradient-15" x1="34.24" y1="313.95" x2="34.23" y2="315.22" gradientTransform="translate(389.38 193.36) rotate(90)" xlink:href="#linear-gradient-3"/><linearGradient id="linear-gradient-16" x1="35.42" y1="287.96" x2="35.42" y2="289.23" gradientTransform="translate(366.4 166.34) rotate(90)" xlink:href="#linear-gradient-3"/><linearGradient id="linear-gradient-17" x1="1065.14" y1="-1656.83" x2="1065.07" y2="-1637.48" gradientTransform="matrix(1.05, 0.19, -0.18, 0.98, -1362.2, 1639.67)" xlink:href="#linear-gradient-2"/><linearGradient id="linear-gradient-18" x1="58.97" y1="315.78" x2="85.37" y2="315.78" gradientTransform="matrix(-0.05, 1, -1, -0.05, 431.73, 176.26)" xlink:href="#linear-gradient-2"/><linearGradient id="linear-gradient-19" x1="-22.24" y1="322.42" x2="0.9" y2="322.42" gradientTransform="translate(351.86 242.91) rotate(90)" xlink:href="#linear-gradient-2"/><linearGradient id="linear-gradient-20" x1="154.72" y1="314.29" x2="172.32" y2="314.29" gradientTransform="translate(518.06 72.93) rotate(90)" xlink:href="#linear-gradient-2"/><linearGradient id="linear-gradient-21" x1="86.36" y1="326.45" x2="109.5" y2="326.45" gradientTransform="translate(463.94 146.01) rotate(90)" xlink:href="#linear-gradient"/><linearGradient id="linear-gradient-22" x1="-1157.5" y1="386" x2="-1134.36" y2="386" gradientTransform="matrix(0, 0.68, -1, 0, 646.57, 1021.04)" xlink:href="#linear-gradient"/></defs><path class="cls-1" d="M45.83,138.09C44.09,120,29.31,89.75,59.23,66.47c13.62-10.6,31.27-23.12,51.29-46.21C118.82,10.69,131.1,3.11,158.81,5c28,1.92,41.2-13.63,102.67,45.74,22.64,21.88,41.74,43.75,9.85,134.63-5.58,15.91-19.24,25-49.67,45.59-24.42,16.54-60.43,22.2-117.84-5.54C80.23,214,51.92,201.46,45.83,138.09Z"/><path class="cls-2" d="M136.3,26.68S117,39,126.78,40.05c0,0,10.93-2.93,16.2,11.05,0,0,30.09,6.69,60.68,4.89,0,0,22.11,1.54,33.43,27.25,0,0,36.68,34.28,9.25,98.39,0,0-39.42,24.34-21.25,27.43,0,0,9.94,5.48-16.46,4.8,0,0-4.2,3.6,13,4.88,0,0-37.28,17.74-85.11,4.63,0,0,22.63-4.37,5.15-7.46,0,0-50.66-8.48-23.91-15.68,0,0,6.17-5.91-24.17-4.37,0,0-53.66-61.88-19-121.53C74.59,74.33,125.33,27.19,136.3,26.68Z"/><path class="cls-3" d="M122,64.39s7.85-3.47,1.62,9.24c0,0,31.88-9.24,46.44,5.78,0,0,35,11.16,44.51,8.7,0,0,45.9,43.74,4.93,86.26,0,0-14.48,10.16-37,12.93,0,0,21-5.85-35.42-3.08,0,0-73.32,5.24-33.58-8.31C113.57,175.91,55.34,108.44,122,64.39Z"/><ellipse class="cls-4" cx="86.92" cy="161.89" rx="4.16" ry="8.32"/><ellipse class="cls-5" cx="149.07" cy="198.86" rx="8.55" ry="3.7"/><ellipse class="cls-6" cx="155.54" cy="48.21" rx="8.55" ry="3.7"/><path class="cls-7" d="M196.3,230.46c3.51-1.35,8.17-1.82,14,.2,0,0,4.15-24.63,30.75-7.85,0,0,14.25-7.41,21.62,9.62,0,0,13,3.29,7.67,9.85A11.07,11.07,0,0,1,260,245.83c-3-.47-6.4-1.77-7.86-5.08,0,0-15.68,13.13-40.53.69a66.28,66.28,0,0,1-13.31.54C191.73,241.44,190.18,232.81,196.3,230.46Z"/><path class="cls-8" d="M12.26,234.64s29.35,8.59,34.25,3.24c0,0,37.24,6.71,49.55,3.31,0,0,5.36,11,22.43,5.87,7.61-2.3,19.25,8.6,31.43,2.61a5.59,5.59,0,0,0,2.22-8.37c-2.89-4-9.12-8.5-22.25-6,0,0,3.18-17.47-23.61-16.52,0,0,1.69-26.93-33.15-24.92,0,0-21.82,3.74-21,19.25,0,0-16.27-7.66-19.7,10.4,0,0-9-3.9-15.47,5.4C17,228.87,10,230.41,12.26,234.64Z"/><path class="cls-9" d="M56.7,215.8s-2-8,3.32-12.15c0,0,6.45-3.18,9.92-7.29a12.17,12.17,0,0,1,9-2s5.58.37,18.17,9.2c0,0,9.3,9.88.16,23.3,0,0-4.54,3.09-9.62,7.2,0,0-11.88,3.92-21.43-2.47C66.21,231.59,54.7,226.61,56.7,215.8Z"/><path class="cls-10" d="M74.56,197.8s-3.67,1.87-1.9,2.18a2.47,2.47,0,0,1,2.82,2.11,48.75,48.75,0,0,0,11,1.63,7.82,7.82,0,0,1,5.77,5.12s6.27,6.37.48,17c0,0-7.48,3.68-4.21,4.45,0,0,1.75,1.07-3.06.61,0,0-.81.57,2.32,1a25.45,25.45,0,0,1-15.58-.31s4.18-.45,1-1.21c0,0-9.14-2.12-4.17-3,0,0,1.19-.94-4.36-1.07,0,0-9-11.34-2-21.16C62.72,205.2,72.55,197.75,74.56,197.8Z"/><path class="cls-11" d="M225,218.17s-2.48,1.27-1.28,1.47a1.67,1.67,0,0,1,1.9,1.43,32.51,32.51,0,0,0,7.43,1.09,5.32,5.32,0,0,1,3.9,3.46s4.23,4.31.33,11.52c0,0-5.06,2.48-2.85,3,0,0,1.18.72-2.07.41,0,0-.54.38,1.57.68a17.18,17.18,0,0,1-10.52-.2s2.82-.31.69-.82c0,0-6.17-1.43-2.81-2,0,0,.81-.64-2.94-.72,0,0-6.1-7.66-1.34-14.29C217,223.17,223.62,218.13,225,218.17Z"/><path class="cls-12" d="M235.23,224.13s-1.61,2.05-.47,1.68a1.78,1.78,0,0,1,2.31.23,37.44,37.44,0,0,0,7-2.47,5.6,5.6,0,0,1,5,.88s5.63,1.37,5.42,8.54c0,0-3.33,4.12-1.16,3.53,0,0,1.36,0-1.63,1.23,0,0-.31.53,1.68-.18a18.88,18.88,0,0,1-9.33,4.51s2.34-1.49.24-.93c0,0-6.05,1.66-3.38-.28,0,0,.43-.84-2.9.76,0,0-8.77-3.08-7.55-10.19C230.44,231.44,234,224.7,235.23,224.13Z"/><path class="cls-13" d="M71.5,204.11s1.48-.5.18,1.61c0,0,5.93-1.18,8.4,1.59,0,0,6.25,2.38,8,2.08,0,0,7.84,8.12-.16,14.9A16.6,16.6,0,0,1,81,226s3.89-.73-6.42-1c0,0-13.44,0-6-1.86C68.59,223.19,58.8,210.82,71.5,204.11Z"/><ellipse class="cls-14" cx="63.9" cy="220.43" rx="1.44" ry="0.76" transform="translate(-160.5 268.58) rotate(-85.94)"/><ellipse class="cls-15" cx="74.79" cy="227.6" rx="0.64" ry="1.56" transform="translate(-157.53 286.1) rotate(-85.94)"/><ellipse class="cls-16" cx="77.81" cy="201.76" rx="0.64" ry="1.56" transform="translate(-128.95 265.09) rotate(-85.94)"/><ellipse class="cls-17" cx="46.68" cy="222.09" rx="8.25" ry="9.72" transform="translate(-162.35 133.71) rotate(-55.21)"/><ellipse class="cls-18" cx="112.54" cy="231.47" rx="10.77" ry="13.2" transform="translate(-120.86 339.97) rotate(-89)"/><ellipse class="cls-19" cx="29.44" cy="232.24" rx="3.08" ry="11.57" transform="translate(-204.3 245.17) rotate(-85.94)"/><ellipse class="cls-20" cx="203.77" cy="236.45" rx="3.13" ry="8.8" transform="translate(-46.5 422.98) rotate(-85.94)"/><ellipse class="cls-21" cx="137.49" cy="243.94" rx="3.08" ry="11.57" transform="translate(-115.57 363.82) rotate(-85.94)"/><ellipse class="cls-22" cx="262.11" cy="239.53" rx="3.08" ry="7.88" transform="translate(-1.03 477.93) rotate(-84.6)"/></svg>