<svg id="Layer_1" data-name="Layer 1" xmlns="http://www.w3.org/2000/svg" xmlns:xlink="http://www.w3.org/1999/xlink" viewBox="0 0 200 400"><defs><style>.cls-1{stroke:#933e27;stroke-miterlimit:10;stroke-width:2px;fill:url(#linear-gradient);}.cls-2{opacity:0.58;fill:url(#linear-gradient-2);}</style><linearGradient id="linear-gradient" x1="100" y1="0.96" x2="100" y2="399.04" gradientUnits="userSpaceOnUse"><stop offset="0" stop-color="#f60"/><stop offset="0.14" stop-color="#ff6b00"/><stop offset="0.31" stop-color="#ff7900"/><stop offset="0.48" stop-color="#ff9000"/><stop offset="0.67" stop-color="#ffb000"/><stop offset="0.85" stop-color="#ffd900"/><stop offset="1" stop-color="#ff0"/></linearGradient><linearGradient id="linear-gradient-2" x1="99.94" y1="191.6" x2="99.94" y2="397.66" gradientUnits="userSpaceOnUse"><stop offset="0" stop-color="#ff0"/><stop offset="0.29" stop-color="#fffd00"/><stop offset="0.45" stop-color="#fff500"/><stop offset="0.58" stop-color="#ffe700"/><stop offset="0.69" stop-color="#ffd300"/><stop offset="0.79" stop-color="#ffba00"/><stop offset="0.88" stop-color="#ff9b00"/><stop offset="0.97" stop-color="#ff7600"/><stop offset="1" stop-color="#f60"/></linearGradient></defs><path class="cls-1" d="M24.78,270.44c-8-12.41-31.62-48.25-.11-76.69-9.78,24.64,11.7,24.2,8.75,36.79,13.54-16.3-26.49-61.8-4-88.71-3.72,15.53,10.06,40.69,18,31.3C59.15,142.58,7.93,125.81,48.82,90c-19.16,20.22,2.37,39.66,11.28,53.72.82,1.29,2.26,3.59,3.74,6a5.15,5.15,0,0,0,9.4-1.72,21.82,21.82,0,0,0-2.77-16.26c-28-46,56.91-88.81,23.26-130.69,70.84,51.4-30.11,78.57,24.76,126.32,8.35-23,6.77-41,6-42.12,31.39,30.71,14.18,76.16,4.94,100.32s5.33,28.63,5.33,28.63c-2.25-28.61,11.63-35,11.63-35-9.51,46.59,32.41,33.76,31.24-5.17,13.89,23.3-31.91,62.85-2.88,95.93h0c27.05,29.41,26.86,71.82-2.93,101.21-34,33.56-93.76,37.43-133.42,8.64C.13,352-5.47,304,24.73,270.5h0l.05-.05"/><path class="cls-2" d="M93.88,191.6c-8.31,23-14.82,57.94-14.9,78.34a2.68,2.68,0,0,1-5.28.63c-3-11.49-2.53-29.4,3.45-50.1-14.1,18.17-26.66,55.94-20.61,74.84-10.37-10.39-5.7-22.76-3.6-38.62-30.56,17.4-43.45,43.07-42.64,75.16,7.73,73.59,147.76,96.94,176.25,9.83,6.1-18.83,3.78-48.26-12.93-58.54-2.55,11.4-13.77,29.38-26.16,27.66,10.6-15.92,8.9-40.05,4.26-66.13-2.67,14.72-4.09,28-9.59,36.39C138.29,286.94,129,284,129.24,277c.43-14.22-3.19-31.09-4.51-44.72-3,11.21-7.18,32.61-15.69,36.79C112.59,250.33,99.39,220.5,93.88,191.6Z"/></svg>