<svg xmlns="http://www.w3.org/2000/svg" xmlns:xlink="http://www.w3.org/1999/xlink" viewBox="0 0 350 315"><defs><style>.cls-1{isolation:isolate;}.cls-16,.cls-17,.cls-2{stroke:#08b7fc;stroke-miterlimit:10;}.cls-2{fill:url(#linear-gradient);}.cls-3{fill:url(#linear-gradient-2);}.cls-4{fill:url(#linear-gradient-3);}.cls-5{fill:url(#linear-gradient-4);}.cls-6{fill:url(#linear-gradient-5);}.cls-7{fill:url(#linear-gradient-6);}.cls-8{fill:#5b889f;}.cls-9{mix-blend-mode:color-dodge;}.cls-10{fill:url(#linear-gradient-7);}.cls-11{fill:url(#linear-gradient-8);}.cls-12{fill:url(#linear-gradient-9);}.cls-13{fill:url(#linear-gradient-10);}.cls-14{fill:url(#linear-gradient-11);}.cls-15{fill:url(#linear-gradient-12);}.cls-16{fill:url(#linear-gradient-13);}.cls-17{fill:url(#linear-gradient-14);}.cls-18{fill:url(#linear-gradient-15);}.cls-19{fill:url(#linear-gradient-16);}.cls-20{fill:url(#linear-gradient-17);}.cls-21{fill:url(#linear-gradient-18);}.cls-22{fill:url(#linear-gradient-19);}.cls-23{fill:url(#linear-gradient-20);}.cls-24{fill:url(#linear-gradient-21);}.cls-25{fill:url(#linear-gradient-22);}.cls-26{fill:url(#linear-gradient-23);}.cls-27{fill:url(#linear-gradient-24);}.cls-28{fill:url(#linear-gradient-25);}.cls-29{fill:url(#linear-gradient-26);}.cls-30{fill:url(#linear-gradient-27);}.cls-31{fill:url(#linear-gradient-28);}</style><linearGradient id="linear-gradient" x1="193.42" y1="1.81" x2="192.3" y2="304.39" gradientUnits="userSpaceOnUse"><stop offset="0" stop-color="#b5e2f8"/><stop offset="0.2" stop-color="#b0e0f7"/><stop offset="0.42" stop-color="#a2daf3"/><stop offset="0.66" stop-color="#8bd0ec"/><stop offset="0.85" stop-color="#73c5e5"/></linearGradient><linearGradient id="linear-gradient-2" x1="184.6" y1="-44.92" x2="189.3" y2="340.9" gradientUnits="userSpaceOnUse"><stop offset="0" stop-color="#dbf1fc"/><stop offset="0.66" stop-color="#ccecfb"/></linearGradient><linearGradient id="linear-gradient-3" x1="191.81" y1="76.92" x2="191.24" y2="231.95" gradientUnits="userSpaceOnUse"><stop offset="0" stop-color="#f5fbfe"/><stop offset="0.15" stop-color="#ecf8fd"/><stop offset="0.58" stop-color="#d4effc"/><stop offset="0.85" stop-color="#ccecfb"/></linearGradient><linearGradient id="linear-gradient-4" x1="95.4" y1="189.57" x2="95.33" y2="210.51" xlink:href="#linear-gradient-3"/><linearGradient id="linear-gradient-5" x1="173.63" y1="241.93" x2="173.6" y2="251.24" xlink:href="#linear-gradient-3"/><linearGradient id="linear-gradient-6" x1="181.78" y1="52.27" x2="181.74" y2="61.57" xlink:href="#linear-gradient-3"/><linearGradient id="linear-gradient-7" x1="162.8" y1="223.44" x2="163.39" y2="223.44" gradientUnits="userSpaceOnUse"><stop offset="0" stop-color="#486670"/><stop offset="1" stop-color="#2e3955"/></linearGradient><linearGradient id="linear-gradient-8" x1="115.49" y1="222.52" x2="153.42" y2="222.52" xlink:href="#linear-gradient-7"/><linearGradient id="linear-gradient-9" x1="230.83" y1="91.64" x2="244.69" y2="91.64" xlink:href="#linear-gradient-3"/><linearGradient id="linear-gradient-10" x1="1087.12" y1="1648.72" x2="1100.98" y2="1648.72" gradientTransform="translate(1131.42 -1603.13) rotate(63.68)" xlink:href="#linear-gradient-3"/><linearGradient id="linear-gradient-11" x1="1183.18" y1="1677.36" x2="1190.27" y2="1677.36" gradientTransform="translate(1131.42 -1603.13) rotate(63.68)" xlink:href="#linear-gradient-3"/><linearGradient id="linear-gradient-12" x1="1239.26" y1="1585.54" x2="1246.35" y2="1585.54" gradientTransform="translate(1131.42 -1603.13) rotate(63.68)" xlink:href="#linear-gradient-3"/><linearGradient id="linear-gradient-13" x1="188.34" y1="245.47" x2="288.2" y2="245.47" gradientTransform="matrix(1, 0.07, -0.07, 1, 58.8, 27.06)" xlink:href="#linear-gradient"/><linearGradient id="linear-gradient-14" x1="-38.86" y1="244.36" x2="139.85" y2="244.36" gradientTransform="matrix(1, 0.07, -0.07, 1, 58.8, 27.06)" xlink:href="#linear-gradient"/><linearGradient id="linear-gradient-15" x1="43.7" y1="211.55" x2="43.51" y2="263.08" gradientTransform="matrix(1, 0.07, -0.07, 1, 58.8, 27.06)" xlink:href="#linear-gradient"/><linearGradient id="linear-gradient-16" x1="41.84" y1="203.46" x2="42.65" y2="270.05" gradientTransform="matrix(1, 0.07, -0.07, 1, 58.8, 27.06)" xlink:href="#linear-gradient-2"/><linearGradient id="linear-gradient-17" x1="231" y1="219.83" x2="231.55" y2="264.8" gradientTransform="matrix(1, 0.07, -0.07, 1, 58.8, 27.06)" xlink:href="#linear-gradient-2"/><linearGradient id="linear-gradient-18" x1="589.66" y1="-452.39" x2="590.22" y2="-406.54" gradientTransform="matrix(0.91, -0.42, 0.36, 0.78, -91.6, 869.31)" xlink:href="#linear-gradient-2"/><linearGradient id="linear-gradient-19" x1="43.13" y1="224.49" x2="43.03" y2="251.25" gradientTransform="matrix(1, 0.07, -0.07, 1, 58.8, 27.06)" xlink:href="#linear-gradient-3"/><linearGradient id="linear-gradient-20" x1="25.5" y1="243.93" x2="25.48" y2="247.55" gradientTransform="translate(312.58 248.5) rotate(90)" xlink:href="#linear-gradient-3"/><linearGradient id="linear-gradient-21" x1="39.81" y1="252.97" x2="39.8" y2="254.58" gradientTransform="translate(334.32 243.21) rotate(90)" xlink:href="#linear-gradient-3"/><linearGradient id="linear-gradient-22" x1="41.3" y1="220.24" x2="41.29" y2="221.84" gradientTransform="translate(305.39 209.17) rotate(90)" xlink:href="#linear-gradient-3"/><linearGradient id="linear-gradient-23" x1="483.29" y1="-468.37" x2="483.2" y2="-444" gradientTransform="matrix(1.05, 0.19, -0.18, 0.98, -541.89, 632.82)" xlink:href="#linear-gradient-2"/><linearGradient id="linear-gradient-24" x1="70.96" y1="255.28" x2="104.2" y2="255.28" gradientTransform="translate(387.68 214.06) rotate(93.06)" xlink:href="#linear-gradient-2"/><linearGradient id="linear-gradient-25" x1="-31.32" y1="263.64" x2="-2.18" y2="263.64" gradientTransform="translate(287.08 305.61) rotate(90)" xlink:href="#linear-gradient-2"/><linearGradient id="linear-gradient-26" x1="191.54" y1="253.4" x2="213.71" y2="253.4" gradientTransform="translate(496.39 91.53) rotate(90)" xlink:href="#linear-gradient-2"/><linearGradient id="linear-gradient-27" x1="105.45" y1="268.72" x2="134.59" y2="268.72" gradientTransform="translate(428.23 183.57) rotate(90)" xlink:href="#linear-gradient"/><linearGradient id="linear-gradient-28" x1="-319.19" y1="281.92" x2="-290.05" y2="281.92" gradientTransform="matrix(0, 0.68, -1, 0, 597.98, 506.14)" xlink:href="#linear-gradient"/></defs><g class="cls-1"><g id="Layer_1" data-name="Layer 1"><path class="cls-2" d="M43.63,170.08c-2.19-22.83-20.79-60.87,16.88-90.18,17.15-13.34,39.36-29.1,64.58-58.18C135.53,9.68,151,.13,185.88,2.52c35.3,2.42,51.87-17.16,129.26,57.6,28.51,27.54,52.55,55.08,12.41,169.5-7,20-24.22,31.45-62.54,57.4-30.75,20.82-76.09,28-148.36-7C86.94,265.68,51.3,249.86,43.63,170.08Z"/><path class="cls-3" d="M157.53,29.8s-24.27,15.54-12,16.84c0,0,13.75-3.68,20.39,13.92,0,0,37.88,8.41,76.4,6.15,0,0,27.84,1.94,42.08,34.31,0,0,46.19,43.16,11.66,123.88,0,0-49.64,30.64-26.76,34.53,0,0,12.51,6.9-20.72,6,0,0-5.29,4.53,16.4,6.15,0,0-46.94,22.34-107.15,5.83,0,0,28.49-5.5,6.47-9.39,0,0-63.77-10.68-30.1-19.75,0,0,7.77-7.44-30.43-5.5,0,0-67.55-77.91-24-153C79.84,89.8,143.72,30.45,157.53,29.8Z"/><path class="cls-4" d="M139.58,77.28s9.89-4.36,2,11.64c0,0,40.14-11.64,58.47,7.27,0,0,44,14.06,56,11,0,0,57.79,55.07,6.2,108.6,0,0-18.23,12.8-46.54,16.29,0,0,26.37-7.37-44.61-3.88,0,0-92.31,6.6-42.27-10.47C128.92,217.69,55.61,132.75,139.58,77.28Z"/><ellipse class="cls-5" cx="95.36" cy="200.04" rx="5.24" ry="10.47"/><ellipse class="cls-6" cx="173.62" cy="246.59" rx="10.76" ry="4.65"/><ellipse class="cls-7" cx="181.76" cy="56.92" rx="10.76" ry="4.65"/><path class="cls-8" d="M281.27,118.78l23.28-3.52s-20.71,1.89-21.66,8.8Z"/><path class="cls-8" d="M281.2,164.25l23.54-.59s-20.79-.7-22.59,6Z"/><g class="cls-9"><path class="cls-10" d="M163.34,223.52a1.81,1.81,0,0,1-.26.54l-.16.19a13.3,13.3,0,0,1,.38-1.66A1.69,1.69,0,0,1,163.34,223.52Z"/><path class="cls-11" d="M163.31,222.51v0h0Z"/></g><path class="cls-8" d="M193.78,62.76l.93-1.36,1.26.76,13.3,8c-.09-2,.49-2.17,1.11-2.31a5.21,5.21,0,0,1,2,0,5,5,0,0,0,2,0c.61-.18,1.17-.46,1.76-.69,2.32-.94,4.64-1.91,6.93-2.94a134.54,134.54,0,0,0,13.48-6.87l.75-.44.54.44a39.59,39.59,0,0,0,9.19,5.41A31.39,31.39,0,0,0,252,64.65a15.44,15.44,0,0,0,5.48.41l1.22-.16-.09,1.81-1.77,33.61,25.95,19.39,1.09.82-.59,1.21L271.49,146l11.78,19.39.47.76-.35.55a56.76,56.76,0,0,0-6,13.88,57.6,57.6,0,0,0-2.61,14.88l0,.94-1.19.26-28.2,6.17-3.5,30.9-.08.69-.36.2a38.82,38.82,0,0,0-7.4,5.72c-2.23,2.12-4.22,4.46-6.26,6.75a124.39,124.39,0,0,0-11.15,14.76l-1.44,2.29-1.28-2.41a166.5,166.5,0,0,0-13.6-20.81,140,140,0,0,0-16.4-18.68l1.08.67a50.14,50.14,0,0,0-5.64-2.14q-2.83-.93-5.73-1.64c-1.91-.5-3.85-.89-5.79-1.29a8.86,8.86,0,0,0-6.16.61l1.17-.18L145,227.82l-1.76.94-.69-1.79-6.44-16.57c-.06-.2-3-20.38-3-20.38l-27.26-7.76-.29-.08-.13-.13A114.68,114.68,0,0,0,90.6,169.78c-2.59-1.86-5.23-3.65-8-5.25a52.41,52.41,0,0,0-8.74-4.17l-5.85-2,6.54-1.17,36.78-6.61-1.12.69,9.08-9.42.62-31.3,1.15,1.8L90.59,99.18l20.26-12.1.34-.2h.45l33.12,1.3-.44.29,1-1.23c-.1-.5.2-.85.28-1.28l.4-1.23.79-2.47,1.58-4.93,3.17-9.87L152,66l1.11.39a30.92,30.92,0,0,0,9.36,1.47,24.25,24.25,0,0,0,4.66-.25,13,13,0,0,0,4.61-1.7l.57-.37.57.74a52.36,52.36,0,0,0,5.89,6.35c1,1,2.13,1.9,3.19,2.86l1.66,1.35.83.67.41.34m0,0-.85-.64-1.72-1.27c-1.19-.8-2.33-1.65-3.55-2.4a54,54,0,0,0-7.6-4.16l1.13.37a13,13,0,0,0-4.7-1.45,23.41,23.41,0,0,0-4.66,0,30.92,30.92,0,0,0-9.27,2l1.59-1.09-4.69,9.24L148.24,83l-1.18,2.31-.58,1.15c-.25.36-.28.82-.7,1.11l-.15,1.59,0,.28h-.42l-33.11,1.3.79-.19L91,99.48l31.69,9.82,1.34.42-.18,1.38-4.15,31-6.22,11.52-.3.55-.82.15L75.61,161l.69-3.2a52.49,52.49,0,0,0,7,6.67A94.24,94.24,0,0,0,91.09,170a113.77,113.77,0,0,0,16.74,9.43l-.41-.21,26.08,11.1,4.83,19.81-.07-.2,8,15.91-2.46-.85,17.85-9.55.9-.48.27.3a8.81,8.81,0,0,0,5.5,2.84c1.95.34,3.9.7,5.87.93s3.94.47,5.93.59a48.24,48.24,0,0,0,6,.09l.72,0,.36.7a139.46,139.46,0,0,0,13.6,20.81,165.59,165.59,0,0,0,16.4,18.69l-2.72-.13a124.61,124.61,0,0,0,13.66-12.47c2.1-2.24,4.24-4.44,6.15-6.86a38.88,38.88,0,0,0,5-7.89l-.44.89,7-30.31,27.23-9.57-1.21,1.2a57.7,57.7,0,0,0,6-13.88A56.77,56.77,0,0,0,280.44,166l.11,1.31-8.62-21,8.56-25.6.51,2-23.68-22.1L255.54,67l1.13,1.65a15.33,15.33,0,0,0-4.32-3.41,31.63,31.63,0,0,0-4.86-2A39.48,39.48,0,0,0,237.07,61h1.29a134.47,134.47,0,0,0-14.52,4.24c-2.37.81-4.73,1.69-7.06,2.6-.59.24-1.19.42-1.75.7A5.15,5.15,0,0,0,213.56,70a5.2,5.2,0,0,1-1.46,1.43c-.55.32-1.12.56-2.39-.93l-14.77-4.79,2.19-.6"/><path class="cls-8" d="M273.53,192.91l17.71,15.52s-14.81-14.6-20.69-10.87Z"/><path class="cls-8" d="M241.41,230.45,259.11,246s-14.8-14.61-20.68-10.88Z"/><path class="cls-8" d="M187,223.33l-16.27,17s15.23-14.17,11.75-20.21Z"/><path class="cls-8" d="M146.88,226.24l-16.26,17s15.22-14.17,11.75-20.21Z"/><path class="cls-8" d="M133.41,190.25l-12.37,20s11.94-17,7.29-22.2Z"/><path class="cls-8" d="M119,143.05l-22-8.3s19,8.46,23.2,2.9Z"/><path class="cls-8" d="M145.71,88.67l-22-8.3s19,8.46,23.2,2.9Z"/><path class="cls-8" d="M255.11,66.31,275,53.68s-18.18,10.1-16.25,16.8Z"/><path class="cls-8" d="M235.25,60.52l-2-23.46s.55,20.79,7.38,22.18Z"/><path class="cls-8" d="M193.43,65.12l-2-23.45s.55,20.78,7.38,22.17Z"/><path class="cls-8" d="M171.66,68.28l2.31-13s-2.71,11.31.78,13.05Z"/><path class="cls-8" d="M232.73,80.91a12.86,12.86,0,0,0-2.56,13.31s1.28-1,4.35,6.91c0,0,9.47,4.6,11-2.31,0,0,4.74-3-3.13-7,0,0-5,.19-4.42-7.87C238,84,239.19,76.91,232.73,80.91Z"/><path class="cls-12" d="M233.49,83.56a10.13,10.13,0,0,0-2,10.49s1-.81,3.43,5.45c0,0,7.47,3.63,8.68-1.82,0,0,3.73-2.34-2.47-5.52,0,0-3.94.15-3.49-6.21C237.62,86,238.58,80.4,233.49,83.56Z"/><path class="cls-8" d="M146,99.21A12.85,12.85,0,0,0,133,102.82s1.48.69-4.27,7c0,0,.07,10.53,6.95,8.84,0,0,4.76,2.93,4.89-5.91,0,0-2.39-4.39,5.09-7.45C145.62,105.26,152.47,103.23,146,99.21Z"/><path class="cls-13" d="M144,101.07a10.13,10.13,0,0,0-10.29,2.84s1.17.55-3.37,5.49c0,0,.06,8.3,5.48,7,0,0,3.75,2.31,3.85-4.66,0,0-1.88-3.46,4-5.87C143.67,105.84,149.07,104.24,144,101.07Z"/><path class="cls-8" d="M157.83,199.51a6.59,6.59,0,0,0-6.68,1.84s.76.36-2.18,3.56c0,0,0,5.39,3.55,4.53,0,0,2.44,1.49,2.5-3,0,0-1.22-2.24,2.61-3.81C157.63,202.6,161.13,201.56,157.83,199.51Z"/><path class="cls-14" d="M156.79,200.46a5.19,5.19,0,0,0-5.27,1.45s.6.28-1.72,2.81c0,0,0,4.25,2.8,3.57,0,0,1.93,1.18,2-2.39,0,0-1-1.77,2-3C156.63,202.9,159.39,202.08,156.79,200.46Z"/><path class="cls-8" d="M265,209.06a6.61,6.61,0,0,0-6.69,1.84s.76.36-2.18,3.57c0,0,0,5.38,3.55,4.52,0,0,2.44,1.49,2.51-3,0,0-1.22-2.24,2.6-3.81C264.79,212.15,268.29,211.12,265,209.06Z"/><path class="cls-15" d="M264,210a5.17,5.17,0,0,0-5.26,1.45s.6.28-1.72,2.81c0,0,0,4.25,2.8,3.57,0,0,1.92,1.18,2-2.39,0,0-1-1.77,2.05-3C263.79,212.45,266.56,211.63,264,210Z"/><path class="cls-16" d="M233.58,286.62c4.42-1.71,10.29-2.29,17.69.25,0,0,5.22-31,38.73-9.89,0,0,17.94-9.33,27.23,12.13,0,0,16.41,4.13,9.66,12.4-3,3.7-8.13,5.24-13.05,4.47-3.81-.6-8-2.24-9.89-6.4,0,0-19.75,16.54-51,.86a82.63,82.63,0,0,1-16.76.69C227.82,300.44,225.88,289.58,233.58,286.62Z"/><path class="cls-17" d="M1.79,291.88s37,10.82,43.14,4.09c0,0,46.91,8.45,62.41,4.17,0,0,6.74,13.86,28.25,7.38,9.58-2.89,24.24,10.84,39.58,3.29A7,7,0,0,0,178,300.27c-3.64-5.07-11.48-10.71-28-7.61,0,0,4-22-29.74-20.8,0,0,2.14-33.91-41.74-31.39,0,0-27.48,4.71-26.42,24.25,0,0-20.49-9.65-24.82,13.09,0,0-11.32-4.9-19.48,6.81C7.74,284.62-1.09,286.56,1.79,291.88Z"/><path class="cls-18" d="M57.76,268.16s-2.49-10,4.18-15.31c0,0,8.13-4,12.5-9.18a15.33,15.33,0,0,1,11.33-2.51s7,.46,22.88,11.58c0,0,11.71,12.44.19,29.34,0,0-5.71,3.89-12.11,9.08,0,0-15,4.93-27-3.12C69.74,288,55.25,281.77,57.76,268.16Z"/><path class="cls-19" d="M80.26,245.49s-4.62,2.36-2.39,2.74a3.11,3.11,0,0,1,3.55,2.66,61.24,61.24,0,0,0,13.87,2.05,9.84,9.84,0,0,1,7.26,6.45s7.9,8,.61,21.48c0,0-9.43,4.63-5.31,5.59,0,0,2.2,1.35-3.85.78,0,0-1,.71,2.92,1.27a32.14,32.14,0,0,1-19.63-.39s5.27-.58,1.3-1.53c0,0-11.51-2.66-5.25-3.79,0,0,1.51-1.18-5.49-1.34,0,0-11.37-14.29-2.5-26.65C65.35,254.81,77.73,245.42,80.26,245.49Z"/><path class="cls-20" d="M269.7,271.14s-3.12,1.59-1.61,1.85a2.11,2.11,0,0,1,2.4,1.8,41.09,41.09,0,0,0,9.36,1.38,6.65,6.65,0,0,1,4.9,4.36s5.33,5.42.41,14.5c0,0-6.36,3.13-3.58,3.78,0,0,1.49.91-2.6.52,0,0-.69.48,2,.86a21.71,21.71,0,0,1-13.25-.26s3.55-.39.87-1c0,0-7.76-1.79-3.54-2.55,0,0,1-.8-3.71-.91,0,0-7.68-9.65-1.69-18C259.63,277.43,268,271.09,269.7,271.14Z"/><path class="cls-21" d="M282.62,278.65s-2,2.58-.59,2.11a2.23,2.23,0,0,1,2.9.29,46.55,46.55,0,0,0,8.84-3.11,7.05,7.05,0,0,1,6.25,1.11s7.1,1.73,6.82,10.76c0,0-4.2,5.18-1.46,4.44,0,0,1.71,0-2.05,1.55,0,0-.39.66,2.11-.23a23.76,23.76,0,0,1-11.75,5.68s2.95-1.87.31-1.17c0,0-7.63,2.09-4.26-.36,0,0,.54-1.05-3.65,1,0,0-11-3.87-9.51-12.82C276.58,287.86,281.1,279.37,282.62,278.65Z"/><path class="cls-22" d="M76.4,253.43s1.86-.63.23,2c0,0,7.47-1.49,10.58,2,0,0,7.87,3,10.1,2.61,0,0,9.87,10.23-.2,18.77a21.12,21.12,0,0,1-8.69,2.21s4.9-.93-8.09-1.25c0,0-16.92-.06-7.59-2.35C72.74,277.46,60.4,261.89,76.4,253.43Z"/><ellipse class="cls-23" cx="66.84" cy="273.99" rx="1.81" ry="0.96" transform="translate(-211.19 321.27) rotate(-85.94)"/><ellipse class="cls-24" cx="80.55" cy="283.01" rx="0.8" ry="1.97" transform="translate(-207.46 343.33) rotate(-85.94)"/><ellipse class="cls-25" cx="84.35" cy="250.47" rx="0.8" ry="1.97" transform="translate(-171.46 316.88) rotate(-85.94)"/><ellipse class="cls-26" cx="45.14" cy="276.08" rx="10.39" ry="12.24" transform="translate(-207.35 155.63) rotate(-55.21)"/><ellipse class="cls-27" cx="128.1" cy="287.89" rx="13.56" ry="16.63" transform="translate(-161.99 410.95) rotate(-89)"/><ellipse class="cls-28" cx="23.43" cy="288.86" rx="3.88" ry="14.57" transform="translate(-266.36 291.79) rotate(-85.94)"/><ellipse class="cls-29" cx="242.99" cy="294.16" rx="3.95" ry="11.08" transform="translate(-67.63 515.73) rotate(-85.94)"/><ellipse class="cls-30" cx="159.51" cy="303.6" rx="3.88" ry="14.57" transform="translate(-154.61 441.22) rotate(-85.94)"/><ellipse class="cls-31" cx="316.47" cy="298.04" rx="3.88" ry="9.93" transform="translate(-10.04 585.05) rotate(-84.6)"/></g></g></svg>