<svg id="Layer_1" data-name="Layer 1" xmlns="http://www.w3.org/2000/svg" xmlns:xlink="http://www.w3.org/1999/xlink" viewBox="0 0 280 256"><defs><style>.cls-1,.cls-7,.cls-8{stroke:#08b7fc;stroke-miterlimit:10;}.cls-1{fill:url(#linear-gradient);}.cls-2{fill:url(#linear-gradient-2);}.cls-3{fill:url(#linear-gradient-3);}.cls-4{fill:url(#linear-gradient-4);}.cls-5{fill:url(#linear-gradient-5);}.cls-6{fill:url(#linear-gradient-6);}.cls-7{fill:url(#linear-gradient-7);}.cls-8{fill:url(#linear-gradient-8);}.cls-9{fill:url(#linear-gradient-9);}.cls-10{fill:url(#linear-gradient-10);}.cls-11{fill:url(#linear-gradient-11);}.cls-12{fill:url(#linear-gradient-12);}.cls-13{fill:url(#linear-gradient-13);}.cls-14{fill:url(#linear-gradient-14);}.cls-15{fill:url(#linear-gradient-15);}.cls-16{fill:url(#linear-gradient-16);}.cls-17{fill:url(#linear-gradient-17);}.cls-18{fill:url(#linear-gradient-18);}.cls-19{fill:url(#linear-gradient-19);}.cls-20{fill:url(#linear-gradient-20);}.cls-21{fill:url(#linear-gradient-21);}.cls-22{fill:url(#linear-gradient-22);}</style><linearGradient id="linear-gradient" x1="154.51" y1="6.84" x2="153.64" y2="242.5" gradientUnits="userSpaceOnUse"><stop offset="0" stop-color="#b5e2f8"/><stop offset="0.2" stop-color="#b0e0f7"/><stop offset="0.42" stop-color="#a2daf3"/><stop offset="0.66" stop-color="#8bd0ec"/><stop offset="0.85" stop-color="#73c5e5"/></linearGradient><linearGradient id="linear-gradient-2" x1="147.64" y1="-29.56" x2="151.31" y2="270.94" gradientUnits="userSpaceOnUse"><stop offset="0" stop-color="#dbf1fc"/><stop offset="0.66" stop-color="#ccecfb"/></linearGradient><linearGradient id="linear-gradient-3" x1="153.26" y1="65.34" x2="152.81" y2="186.09" gradientUnits="userSpaceOnUse"><stop offset="0" stop-color="#f5fbfe"/><stop offset="0.15" stop-color="#ecf8fd"/><stop offset="0.58" stop-color="#d4effc"/><stop offset="0.85" stop-color="#ccecfb"/></linearGradient><linearGradient id="linear-gradient-4" x1="78.17" y1="153.08" x2="78.11" y2="169.39" xlink:href="#linear-gradient-3"/><linearGradient id="linear-gradient-5" x1="139.1" y1="193.86" x2="139.08" y2="201.11" xlink:href="#linear-gradient-3"/><linearGradient id="linear-gradient-6" x1="145.45" y1="46.13" x2="145.42" y2="53.38" xlink:href="#linear-gradient-3"/><linearGradient id="linear-gradient-7" x1="139.5" y1="257.98" x2="217.25" y2="257.98" gradientTransform="matrix(1, 0.07, -0.07, 1, 61.17, -39.8)" xlink:href="#linear-gradient"/><linearGradient id="linear-gradient-8" x1="-37.39" y1="257.12" x2="101.75" y2="257.12" gradientTransform="matrix(1, 0.07, -0.07, 1, 61.17, -39.8)" xlink:href="#linear-gradient"/><linearGradient id="linear-gradient-9" x1="26.89" y1="231.57" x2="26.74" y2="271.69" gradientTransform="matrix(1, 0.07, -0.07, 1, 61.17, -39.8)" xlink:href="#linear-gradient"/><linearGradient id="linear-gradient-10" x1="25.43" y1="225.27" x2="26.07" y2="277.12" gradientTransform="matrix(1, 0.07, -0.07, 1, 61.17, -39.8)" xlink:href="#linear-gradient-2"/><linearGradient id="linear-gradient-11" x1="172.72" y1="238.02" x2="173.15" y2="273.03" gradientTransform="matrix(1, 0.07, -0.07, 1, 61.17, -39.8)" xlink:href="#linear-gradient-2"/><linearGradient id="linear-gradient-12" x1="644.3" y1="-995.74" x2="644.74" y2="-960.04" gradientTransform="matrix(0.91, -0.42, 0.36, 0.78, -5.93, 1262.47)" xlink:href="#linear-gradient-2"/><linearGradient id="linear-gradient-13" x1="26.44" y1="241.65" x2="26.36" y2="262.48" gradientTransform="matrix(1, 0.07, -0.07, 1, 61.17, -39.8)" xlink:href="#linear-gradient-3"/><linearGradient id="linear-gradient-14" x1="12.71" y1="256.78" x2="12.7" y2="259.6" gradientTransform="translate(313.76 205.94) rotate(90)" xlink:href="#linear-gradient-3"/><linearGradient id="linear-gradient-15" x1="23.85" y1="263.82" x2="23.85" y2="265.07" gradientTransform="translate(330.69 201.82) rotate(90)" xlink:href="#linear-gradient-3"/><linearGradient id="linear-gradient-16" x1="25.01" y1="238.33" x2="25.01" y2="239.58" gradientTransform="translate(308.17 175.32) rotate(90)" xlink:href="#linear-gradient-3"/><linearGradient id="linear-gradient-17" x1="831.02" y1="-1176.65" x2="830.95" y2="-1157.68" gradientTransform="matrix(1.05, 0.19, -0.18, 0.98, -1039.38, 1210.23)" xlink:href="#linear-gradient-2"/><linearGradient id="linear-gradient-18" x1="48.11" y1="265.62" x2="73.99" y2="265.62" gradientTransform="translate(371.77 182.68) rotate(93.06)" xlink:href="#linear-gradient-2"/><linearGradient id="linear-gradient-19" x1="-31.53" y1="272.13" x2="-8.84" y2="272.13" gradientTransform="translate(293.91 250.4) rotate(90)" xlink:href="#linear-gradient-2"/><linearGradient id="linear-gradient-20" x1="142" y1="264.15" x2="159.26" y2="264.15" gradientTransform="translate(456.88 83.72) rotate(90)" xlink:href="#linear-gradient-2"/><linearGradient id="linear-gradient-21" x1="74.97" y1="276.08" x2="97.66" y2="276.08" gradientTransform="translate(403.81 155.38) rotate(90)" xlink:href="#linear-gradient"/><linearGradient id="linear-gradient-22" x1="-857.31" y1="318.72" x2="-834.62" y2="318.72" gradientTransform="matrix(0, 0.68, -1, 0, 567.52, 814.37)" xlink:href="#linear-gradient"/></defs><path class="cls-1" d="M37.85,137.9C36.14,120.11,21.65,90.49,51,67.66,64.35,57.27,81.65,45,101.29,22.34,109.42,13,121.47,5.53,148.64,7.39,176.13,9.27,189-6,249.32,52.25c22.2,21.45,40.93,42.9,9.66,132-5.47,15.6-18.86,24.49-48.71,44.71C186.33,245.2,151,250.75,94.72,223.54,71.58,212.36,43.82,200,37.85,137.9Z"/><path class="cls-2" d="M126.56,28.64s-18.91,12.1-9.33,13.11c0,0,10.72-2.87,15.89,10.84,0,0,29.5,6.56,59.5,4.79,0,0,21.69,1.52,32.78,26.73,0,0,36,33.62,9.08,96.48,0,0-38.66,23.87-20.85,26.9,0,0,9.75,5.38-16.13,4.7,0,0-4.12,3.53,12.77,4.79,0,0-36.56,17.4-83.45,4.54,0,0,22.18-4.28,5-7.31,0,0-49.67-8.32-23.45-15.38,0,0,6-5.8-23.7-4.29,0,0-52.61-60.68-18.66-119.17C66.05,75.37,115.81,29.14,126.56,28.64Z"/><path class="cls-3" d="M112.58,65.62s7.7-3.4,1.59,9.06c0,0,31.26-9.06,45.54,5.67,0,0,34.28,11,43.65,8.53,0,0,45,42.9,4.83,84.59,0,0-14.2,10-36.25,12.69,0,0,20.54-5.74-34.74-3,0,0-71.9,5.14-32.93-8.15C104.27,175,47.18,108.82,112.58,65.62Z"/><ellipse class="cls-4" cx="78.14" cy="161.23" rx="4.08" ry="8.16"/><ellipse class="cls-5" cx="139.09" cy="197.48" rx="8.38" ry="3.63"/><ellipse class="cls-6" cx="145.43" cy="49.76" rx="8.38" ry="3.63"/><path class="cls-7" d="M185.4,228.47c3.45-1.32,8-1.78,13.77.2,0,0,4.07-24.15,30.16-7.7,0,0,14-7.26,21.2,9.44,0,0,12.78,3.22,7.52,9.66a10.9,10.9,0,0,1-10.15,3.48c-3-.47-6.27-1.74-7.71-5,0,0-15.38,12.87-39.75.67a64.91,64.91,0,0,1-13.05.53C180.92,239.24,179.41,230.78,185.4,228.47Z"/><path class="cls-8" d="M4.93,232.57s28.78,8.43,33.59,3.18c0,0,36.52,6.58,48.59,3.25,0,0,5.25,10.8,22,5.75,7.46-2.25,18.88,8.44,30.82,2.56a5.47,5.47,0,0,0,2.17-8.21c-2.83-3.94-8.93-8.33-21.81-5.92,0,0,3.12-17.13-23.16-16.2,0,0,1.67-26.4-32.5-24.44,0,0-21.4,3.67-20.57,18.88,0,0-15.95-7.51-19.32,10.2,0,0-8.82-3.82-15.17,5.3C9.56,226.92,2.69,228.43,4.93,232.57Z"/><path class="cls-9" d="M48.51,214.1s-1.94-7.82,3.25-11.91c0,0,6.33-3.12,9.73-7.15a11.89,11.89,0,0,1,8.82-2s5.47.36,17.82,9c0,0,9.11,9.69.15,22.84,0,0-4.45,3-9.43,7.07,0,0-11.66,3.84-21-2.43C57.84,229.58,46.55,224.7,48.51,214.1Z"/><path class="cls-10" d="M66,196.45s-3.59,1.84-1.86,2.13a2.43,2.43,0,0,1,2.77,2.07,47.79,47.79,0,0,0,10.79,1.6,7.67,7.67,0,0,1,5.66,5s6.15,6.25.47,16.73c0,0-7.34,3.6-4.13,4.35,0,0,1.72,1.06-3,.61,0,0-.79.55,2.27,1a25,25,0,0,1-15.28-.3s4.1-.45,1-1.2c0,0-8.95-2.07-4.09-2.95,0,0,1.18-.92-4.27-1,0,0-8.85-11.13-2-20.75C54.41,203.71,64.06,196.4,66,196.45Z"/><path class="cls-11" d="M213.53,216.42s-2.43,1.24-1.26,1.44a1.65,1.65,0,0,1,1.87,1.4,32.11,32.11,0,0,0,7.28,1.08,5.17,5.17,0,0,1,3.82,3.39s4.16,4.22.32,11.29c0,0-4.95,2.44-2.78,2.95,0,0,1.15.71-2,.4,0,0-.54.38,1.53.67a16.87,16.87,0,0,1-10.31-.2s2.76-.31.68-.81c0,0-6.05-1.4-2.76-2,0,0,.79-.62-2.89-.7,0,0-6-7.52-1.31-14C205.69,221.32,212.2,216.39,213.53,216.42Z"/><path class="cls-12" d="M223.58,222.27s-1.58,2-.46,1.64a1.74,1.74,0,0,1,2.26.23,36.37,36.37,0,0,0,6.88-2.42,5.48,5.48,0,0,1,4.87.86s5.53,1.35,5.31,8.38c0,0-3.26,4-1.13,3.46,0,0,1.33,0-1.6,1.2,0,0-.31.52,1.64-.18a18.47,18.47,0,0,1-9.15,4.43s2.3-1.46.24-.91c0,0-5.93,1.62-3.31-.28,0,0,.42-.82-2.85.75,0,0-8.59-3-7.4-10C218.88,229.44,222.4,222.83,223.58,222.27Z"/><path class="cls-13" d="M63,202.63s1.45-.48.18,1.58c0,0,5.81-1.15,8.24,1.57,0,0,6.12,2.32,7.86,2,0,0,7.68,8-.15,14.62a16.49,16.49,0,0,1-6.77,1.71s3.82-.72-6.3-1c0,0-13.18,0-5.91-1.83C60.17,221.34,50.56,209.22,63,202.63Z"/><ellipse class="cls-14" cx="55.57" cy="218.64" rx="1.41" ry="0.75" transform="translate(-166.45 258.6) rotate(-85.94)"/><ellipse class="cls-15" cx="66.25" cy="225.67" rx="0.63" ry="1.53" transform="translate(-163.54 275.78) rotate(-85.94)"/><ellipse class="cls-16" cx="69.21" cy="200.33" rx="0.63" ry="1.53" transform="translate(-135.51 255.19) rotate(-85.94)"/><ellipse class="cls-17" cx="38.68" cy="220.27" rx="8.09" ry="9.53" transform="translate(-164.29 126.36) rotate(-55.21)"/><ellipse class="cls-18" cx="103.27" cy="229.47" rx="10.56" ry="12.95" transform="translate(-127.96 328.72) rotate(-89)"/><ellipse class="cls-19" cx="21.78" cy="230.22" rx="3.02" ry="11.34" transform="translate(-209.4 235.65) rotate(-85.94)"/><ellipse class="cls-20" cx="192.73" cy="234.35" rx="3.07" ry="8.63" transform="translate(-54.67 410.01) rotate(-85.94)"/><ellipse class="cls-21" cx="127.73" cy="241.69" rx="3.02" ry="11.34" transform="translate(-122.4 352) rotate(-85.94)"/><ellipse class="cls-22" cx="249.94" cy="237.37" rx="3.02" ry="7.73" transform="matrix(0.09, -1, 1, 0.09, -9.9, 463.85)"/></svg>