<svg id="Layer_1" data-name="Layer 1" xmlns="http://www.w3.org/2000/svg" xmlns:xlink="http://www.w3.org/1999/xlink" viewBox="0 0 305 285"><defs><style>.cls-1,.cls-7,.cls-8{stroke:#08b7fc;stroke-miterlimit:10;}.cls-1{fill:url(#linear-gradient);}.cls-2{fill:url(#linear-gradient-2);}.cls-3{fill:url(#linear-gradient-3);}.cls-4{fill:url(#linear-gradient-4);}.cls-5{fill:url(#linear-gradient-5);}.cls-6{fill:url(#linear-gradient-6);}.cls-7{fill:url(#linear-gradient-7);}.cls-8{fill:url(#linear-gradient-8);}.cls-9{fill:url(#linear-gradient-9);}.cls-10{fill:url(#linear-gradient-10);}.cls-11{fill:url(#linear-gradient-11);}.cls-12{fill:url(#linear-gradient-12);}.cls-13{fill:url(#linear-gradient-13);}.cls-14{fill:url(#linear-gradient-14);}.cls-15{fill:url(#linear-gradient-15);}.cls-16{fill:url(#linear-gradient-16);}.cls-17{fill:url(#linear-gradient-17);}.cls-18{fill:url(#linear-gradient-18);}.cls-19{fill:url(#linear-gradient-19);}.cls-20{fill:url(#linear-gradient-20);}.cls-21{fill:url(#linear-gradient-21);}.cls-22{fill:url(#linear-gradient-22);}</style><linearGradient id="linear-gradient" x1="204.28" y1="-3.2" x2="203.28" y2="267.14" gradientTransform="translate(-46.55 19.86) rotate(-3.65)" gradientUnits="userSpaceOnUse"><stop offset="0" stop-color="#b5e2f8"/><stop offset="0.2" stop-color="#b0e0f7"/><stop offset="0.42" stop-color="#a2daf3"/><stop offset="0.66" stop-color="#8bd0ec"/><stop offset="0.85" stop-color="#73c5e5"/></linearGradient><linearGradient id="linear-gradient-2" x1="196.39" y1="-44.96" x2="200.6" y2="299.76" gradientTransform="translate(-46.55 19.86) rotate(-3.65)" gradientUnits="userSpaceOnUse"><stop offset="0" stop-color="#dbf1fc"/><stop offset="0.66" stop-color="#ccecfb"/></linearGradient><linearGradient id="linear-gradient-3" x1="202.84" y1="63.91" x2="202.33" y2="202.42" gradientTransform="translate(-46.55 19.86) rotate(-3.65)" gradientUnits="userSpaceOnUse"><stop offset="0" stop-color="#f5fbfe"/><stop offset="0.15" stop-color="#ecf8fd"/><stop offset="0.58" stop-color="#d4effc"/><stop offset="0.85" stop-color="#ccecfb"/></linearGradient><linearGradient id="linear-gradient-4" x1="116.7" y1="164.55" x2="116.64" y2="183.27" gradientTransform="translate(-35.73 12.09)" xlink:href="#linear-gradient-3"/><linearGradient id="linear-gradient-5" x1="186.6" y1="211.34" x2="186.57" y2="219.65" gradientTransform="translate(-33.22 7.55)" xlink:href="#linear-gradient-3"/><linearGradient id="linear-gradient-6" x1="193.88" y1="41.88" x2="193.85" y2="50.19" gradientTransform="translate(-44.02 7.43)" xlink:href="#linear-gradient-3"/><linearGradient id="linear-gradient-7" x1="194.02" y1="255.3" x2="283.21" y2="255.3" gradientTransform="matrix(1, 0.01, -0.01, 1, 12.56, -2.52)" xlink:href="#linear-gradient"/><linearGradient id="linear-gradient-8" x1="-8.9" y1="254.31" x2="150.71" y2="254.31" gradientTransform="matrix(1, 0.01, -0.01, 1, 12.56, -2.52)" xlink:href="#linear-gradient"/><linearGradient id="linear-gradient-9" x1="64.84" y1="225" x2="64.67" y2="271.03" gradientTransform="matrix(1, 0.01, -0.01, 1, 12.56, -2.52)" xlink:href="#linear-gradient"/><linearGradient id="linear-gradient-10" x1="63.17" y1="217.78" x2="63.89" y2="277.26" gradientTransform="matrix(1, 0.01, -0.01, 1, 12.56, -2.52)" xlink:href="#linear-gradient-2"/><linearGradient id="linear-gradient-11" x1="232.13" y1="232.4" x2="232.62" y2="272.57" gradientTransform="matrix(1, 0.01, -0.01, 1, 12.56, -2.52)" xlink:href="#linear-gradient-2"/><linearGradient id="linear-gradient-12" x1="663" y1="-799.75" x2="663.5" y2="-758.79" gradientTransform="matrix(0.88, -0.47, 0.41, 0.76, -7.25, 1157.32)" xlink:href="#linear-gradient-2"/><linearGradient id="linear-gradient-13" x1="64.32" y1="236.57" x2="64.23" y2="260.46" gradientTransform="matrix(1, 0.01, -0.01, 1, 12.56, -2.52)" xlink:href="#linear-gradient-3"/><linearGradient id="linear-gradient-14" x1="48.57" y1="253.93" x2="48.56" y2="257.16" gradientTransform="translate(314.84 204.8) rotate(90)" xlink:href="#linear-gradient-3"/><linearGradient id="linear-gradient-15" x1="61.36" y1="262" x2="61.35" y2="263.44" gradientTransform="translate(334.75 199.28) rotate(90)" xlink:href="#linear-gradient-3"/><linearGradient id="linear-gradient-16" x1="62.69" y1="232.76" x2="62.68" y2="234.2" gradientTransform="translate(307.05 168.72) rotate(90)" xlink:href="#linear-gradient-3"/><linearGradient id="linear-gradient-17" x1="738.66" y1="-928.11" x2="738.58" y2="-906.35" gradientTransform="matrix(1.05, 0.19, -0.18, 0.98, -896.61, 1018.13)" xlink:href="#linear-gradient-2"/><linearGradient id="linear-gradient-18" x1="89.18" y1="264.06" x2="118.87" y2="264.06" gradientTransform="matrix(1, 0.05, -0.05, 1, 24.9, -6.96)" xlink:href="#linear-gradient-2"/><linearGradient id="linear-gradient-19" x1="-2.18" y1="271.53" x2="23.85" y2="271.53" gradientTransform="translate(292.99 258.24) rotate(90)" xlink:href="#linear-gradient-2"/><linearGradient id="linear-gradient-20" x1="196.88" y1="262.38" x2="216.68" y2="262.38" gradientTransform="translate(479.84 54.55) rotate(90)" xlink:href="#linear-gradient-2"/><linearGradient id="linear-gradient-21" x1="119.99" y1="276.07" x2="146.02" y2="276.07" gradientTransform="translate(419.65 141.49) rotate(90)" xlink:href="#linear-gradient"/><linearGradient id="linear-gradient-22" x1="-624.11" y1="307.53" x2="-598.08" y2="307.53" gradientTransform="matrix(0, 0.68, -1, 0, 589.88, 677.58)" xlink:href="#linear-gradient"/></defs><path class="cls-1" d="M33.11,162.22C29.86,142,11.11,109.13,43,80.85,57.57,68,76.48,52.67,97.31,25.31,105.94,14,119.19,4.58,150.43,4.73,182,4.88,195.7-13.51,269,48.74c27,22.94,50,46.13,20.7,150.43-5.12,18.26-19.81,29.42-52.5,54.74-26.23,20.31-66.25,29.24-132.68,2.21C77.16,245,44.48,232.92,33.11,162.22Z"/><path class="cls-2" d="M126.7,30.67S105.94,45.9,117,46.36c0,0,12.06-4.06,19,11.25,0,0,34.25,5.36,68.47,1.15,0,0,24.93.15,39.47,28.2,0,0,43.63,35.86,17.43,109.79,0,0-42.52,30.15-21.9,32.31,0,0,11.55,5.45-18.13,6.57,0,0-4.46,4.34,15,4.55,0,0-40.58,22.58-95.21,11.28,0,0,25.09-6.52,5.24-8.73,0,0-57.47-5.91-28-15.9,0,0,6.5-7.08-27.45-3.18,0,0-64.66-65.63-30-135.07C60.84,88.58,114.42,32,126.7,30.67Z"/><path class="cls-3" d="M113.39,74s8.57-4.45,2.48,10.26c0,0,35.13-12.65,52.55,3.17,0,0,40.05,10,50.6,6.58,0,0,54.66,45.83,11.7,96.48,0,0-15.53,12.45-40.57,17.17,0,0,23.09-8.07-40-.92,0,0-81.93,11.13-38.29-6.93C111.86,199.83,41.67,128.25,113.39,74Z"/><ellipse class="cls-4" cx="80.94" cy="186" rx="4.68" ry="9.36" transform="translate(-11.67 5.52) rotate(-3.65)"/><ellipse class="cls-5" cx="153.36" cy="223.05" rx="9.62" ry="4.16" transform="translate(-13.88 10.21) rotate(-3.65)"/><ellipse class="cls-6" cx="149.85" cy="53.47" rx="9.62" ry="4.16" transform="translate(-3.1 9.64) rotate(-3.65)"/><path class="cls-7" d="M208.64,255.15c3.85-1.77,9-2.63,15.78-.78,0,0,2.9-28,34-11,0,0,15.47-9.33,25,9.26,0,0,14.87,2.76,9.32,10.51-2.49,3.48-7,5.13-11.37,4.73-3.44-.32-7.31-1.54-9.19-5.15,0,0-16.66,15.87-45.45,3.67a73.73,73.73,0,0,1-14.91,1.57C204.29,267.8,202,258.23,208.64,255.15Z"/><path class="cls-8" d="M2.33,273S35.9,280.55,41,274.2c0,0,42.29,4.87,55.86.17,0,0,6.8,12,25.6,5,8.38-3.12,22.23,8.28,35.47.68a6.27,6.27,0,0,0,1.89-9.55c-3.53-4.32-10.84-8.89-25.41-5.19,0,0,2.32-19.84-27.69-16.86,0,0,0-30.35-39-25.61,0,0-24.23,5.76-22.17,23.12,0,0-18.82-7.44-21.38,13.08,0,0-10.37-3.73-17,7.18C7.22,266.2-.54,268.43,2.33,273Z"/><path class="cls-9" d="M50.88,248.68s-2.79-8.8,2.85-13.88c0,0,7-4,10.62-8.89a13.68,13.68,0,0,1,10-2.89s6.29,0,21.06,9c0,0,11.14,10.43,1.84,26.14,0,0-4.88,3.8-10.28,8.78,0,0-13.07,5.24-24.24-1.25C62.68,265.72,49.41,261,50.88,248.68Z"/><path class="cls-10" d="M69.64,227.19s-4,2.37-2,2.59A2.78,2.78,0,0,1,71,232a54.54,54.54,0,0,0,12.48,1,8.78,8.78,0,0,1,6.83,5.34s7.5,6.71,1.77,19.11c0,0-8.14,4.67-4.41,5.29,0,0,2,1.08-3.39.91,0,0-.87.69,2.67,1a28.7,28.7,0,0,1-17.51.77s4.66-.82,1.07-1.44c0,0-10.41-1.72-4.9-3.08,0,0,1.28-1.14-5-.88,0,0-11-12.09-3.75-23.62C56.88,236.35,67.38,227.28,69.64,227.19Z"/><path class="cls-11" d="M240,239.3s-2.69,1.6-1.33,1.74a1.87,1.87,0,0,1,2.23,1.47,37.37,37.37,0,0,0,8.43.7,5.93,5.93,0,0,1,4.62,3.6s5.06,4.53,1.19,12.91c0,0-5.5,3.15-3,3.57,0,0,1.38.73-2.29.61,0,0-.59.47,1.81.65a19.38,19.38,0,0,1-11.83.53s3.15-.55.72-1c0,0-7-1.16-3.31-2.08,0,0,.87-.76-3.35-.59,0,0-7.39-8.16-2.53-16C231.34,245.48,238.43,239.36,240,239.3Z"/><path class="cls-12" d="M251.9,245.26s-1.66,2.42-.41,1.91a2,2,0,0,1,2.61.1,41.38,41.38,0,0,0,7.7-3.28,6.31,6.31,0,0,1,5.63.64s6.43,1.13,6.7,9.2c0,0-3.45,4.86-1.05,4,0,0,1.52-.07-1.75,1.5,0,0-.31.61,1.87-.33a21.13,21.13,0,0,1-10.15,5.74s2.52-1.84.21-1.06c0,0-6.68,2.29-3.81-.08,0,0,.42-1-3.21,1.06,0,0-10.06-2.82-9.2-10.89C247,253.81,250.59,246,251.9,245.26Z"/><path class="cls-13" d="M66.65,234.49s1.63-.66.32,1.8c0,0,6.58-1.75,9.55,1.19,0,0,7.18,2.22,9.14,1.75,0,0,9.39,8.56.9,16.75a18.89,18.89,0,0,1-7.62,2.46s4.31-1.11-7.29-.65c0,0-15.09.91-6.89-1.67C64.76,256.12,52.87,242.94,66.65,234.49Z"/><ellipse class="cls-14" cx="59.29" cy="253.36" rx="1.61" ry="0.86" transform="translate(-194.49 310.84) rotate(-89.59)"/><ellipse class="cls-15" cx="72.03" cy="260.63" rx="0.72" ry="1.76" transform="translate(-189.11 330.79) rotate(-89.59)"/><ellipse class="cls-16" cx="73.57" cy="231.4" rx="0.72" ry="1.76" transform="translate(-158.36 303.31) rotate(-89.59)"/><ellipse class="cls-17" cx="40.08" cy="256.46" rx="9.28" ry="10.94" transform="translate(-200.15 158.13) rotate(-58.86)"/><ellipse class="cls-18" cx="114.69" cy="262.28" rx="14.85" ry="12.11" transform="matrix(1, -0.05, 0.05, 1, -12, 5.58)"/><ellipse class="cls-19" cx="21.45" cy="269.08" rx="3.47" ry="13.01" transform="translate(-247.78 288.61) rotate(-89.59)"/><ellipse class="cls-20" cx="217.46" cy="261.34" rx="3.52" ry="9.9" transform="translate(-45.43 476.92) rotate(-89.59)"/><ellipse class="cls-21" cx="143.58" cy="274.49" rx="3.47" ry="13.01" transform="translate(-131.93 416.1) rotate(-89.59)"/><ellipse class="cls-22" cx="283.17" cy="260.62" rx="3.47" ry="8.87" transform="translate(14 535.68) rotate(-88.25)"/></svg>