<svg id="Layer_1" data-name="Layer 1" xmlns="http://www.w3.org/2000/svg" xmlns:xlink="http://www.w3.org/1999/xlink" viewBox="0 0 350 315"><defs><style>.cls-1,.cls-7,.cls-8{stroke:#08b7fc;stroke-miterlimit:10;}.cls-1{fill:url(#linear-gradient);}.cls-2{fill:url(#linear-gradient-2);}.cls-3{fill:url(#linear-gradient-3);}.cls-4{fill:url(#linear-gradient-4);}.cls-5{fill:url(#linear-gradient-5);}.cls-6{fill:url(#linear-gradient-6);}.cls-7{fill:url(#linear-gradient-7);}.cls-8{fill:url(#linear-gradient-8);}.cls-9{fill:url(#linear-gradient-9);}.cls-10{fill:url(#linear-gradient-10);}.cls-11{fill:url(#linear-gradient-11);}.cls-12{fill:url(#linear-gradient-12);}.cls-13{fill:url(#linear-gradient-13);}.cls-14{fill:url(#linear-gradient-14);}.cls-15{fill:url(#linear-gradient-15);}.cls-16{fill:url(#linear-gradient-16);}.cls-17{fill:url(#linear-gradient-17);}.cls-18{fill:url(#linear-gradient-18);}.cls-19{fill:url(#linear-gradient-19);}.cls-20{fill:url(#linear-gradient-20);}.cls-21{fill:url(#linear-gradient-21);}.cls-22{fill:url(#linear-gradient-22);}</style><linearGradient id="linear-gradient" x1="193.64" y1="1.89" x2="192.52" y2="304.56" gradientUnits="userSpaceOnUse"><stop offset="0" stop-color="#b5e2f8"/><stop offset="0.2" stop-color="#b0e0f7"/><stop offset="0.42" stop-color="#a2daf3"/><stop offset="0.66" stop-color="#8bd0ec"/><stop offset="0.85" stop-color="#73c5e5"/></linearGradient><linearGradient id="linear-gradient-2" x1="184.81" y1="-44.86" x2="189.52" y2="341.08" gradientUnits="userSpaceOnUse"><stop offset="0" stop-color="#dbf1fc"/><stop offset="0.66" stop-color="#ccecfb"/></linearGradient><linearGradient id="linear-gradient-3" x1="192.03" y1="77.02" x2="191.46" y2="232.1" gradientUnits="userSpaceOnUse"><stop offset="0" stop-color="#f5fbfe"/><stop offset="0.15" stop-color="#ecf8fd"/><stop offset="0.58" stop-color="#d4effc"/><stop offset="0.85" stop-color="#ccecfb"/></linearGradient><linearGradient id="linear-gradient-4" x1="95.59" y1="189.71" x2="95.51" y2="210.66" xlink:href="#linear-gradient-3"/><linearGradient id="linear-gradient-5" x1="173.85" y1="242.09" x2="173.81" y2="251.4" xlink:href="#linear-gradient-3"/><linearGradient id="linear-gradient-6" x1="181.99" y1="52.36" x2="181.96" y2="61.67" xlink:href="#linear-gradient-3"/><linearGradient id="linear-gradient-7" x1="191.36" y1="338.45" x2="291.22" y2="338.45" gradientTransform="matrix(1, 0.07, -0.07, 1, 62.1, -65.98)" xlink:href="#linear-gradient"/><linearGradient id="linear-gradient-8" x1="-35.83" y1="337.35" x2="142.87" y2="337.35" gradientTransform="matrix(1, 0.07, -0.07, 1, 62.1, -65.98)" xlink:href="#linear-gradient"/><linearGradient id="linear-gradient-9" x1="46.72" y1="304.53" x2="46.53" y2="356.07" gradientTransform="matrix(1, 0.07, -0.07, 1, 62.1, -65.98)" xlink:href="#linear-gradient"/><linearGradient id="linear-gradient-10" x1="44.86" y1="296.44" x2="45.67" y2="363.04" gradientTransform="matrix(1, 0.07, -0.07, 1, 62.1, -65.98)" xlink:href="#linear-gradient-2"/><linearGradient id="linear-gradient-11" x1="234.02" y1="312.82" x2="234.57" y2="357.79" gradientTransform="matrix(1, 0.07, -0.07, 1, 62.1, -65.98)" xlink:href="#linear-gradient-2"/><linearGradient id="linear-gradient-12" x1="708.66" y1="-1088.74" x2="709.22" y2="-1042.89" gradientTransform="matrix(0.91, -0.42, 0.36, 0.78, 27.61, 1416.41)" xlink:href="#linear-gradient-2"/><linearGradient id="linear-gradient-13" x1="46.15" y1="317.48" x2="46.05" y2="344.23" gradientTransform="matrix(1, 0.07, -0.07, 1, 62.1, -65.98)" xlink:href="#linear-gradient-3"/><linearGradient id="linear-gradient-14" x1="28.52" y1="336.92" x2="28.5" y2="340.53" gradientTransform="translate(405.29 245.4) rotate(90)" xlink:href="#linear-gradient-3"/><linearGradient id="linear-gradient-15" x1="42.83" y1="345.96" x2="42.82" y2="347.56" gradientTransform="translate(427.04 240.11) rotate(90)" xlink:href="#linear-gradient-3"/><linearGradient id="linear-gradient-16" x1="44.32" y1="313.22" x2="44.31" y2="314.83" gradientTransform="translate(398.1 206.08) rotate(90)" xlink:href="#linear-gradient-3"/><linearGradient id="linear-gradient-17" x1="921.48" y1="-1396.6" x2="921.39" y2="-1372.23" gradientTransform="matrix(1.05, 0.19, -0.18, 0.98, -1166.7, 1462.46)" xlink:href="#linear-gradient-2"/><linearGradient id="linear-gradient-18" x1="73.98" y1="348.26" x2="107.22" y2="348.26" gradientTransform="translate(480.43 215.93) rotate(93.06)" xlink:href="#linear-gradient-2"/><linearGradient id="linear-gradient-19" x1="-28.3" y1="356.63" x2="0.84" y2="356.63" gradientTransform="translate(379.79 302.51) rotate(90)" xlink:href="#linear-gradient-2"/><linearGradient id="linear-gradient-20" x1="194.56" y1="346.38" x2="216.73" y2="346.38" gradientTransform="translate(589.1 88.44) rotate(90)" xlink:href="#linear-gradient-2"/><linearGradient id="linear-gradient-21" x1="108.47" y1="361.7" x2="137.61" y2="361.7" gradientTransform="translate(520.94 180.48) rotate(90)" xlink:href="#linear-gradient"/><linearGradient id="linear-gradient-22" x1="-925.74" y1="408.22" x2="-896.6" y2="408.22" gradientTransform="matrix(0, 0.68, -1, 0, 723.19, 919.57)" xlink:href="#linear-gradient"/></defs><path class="cls-1" d="M43.8,170.21C41.61,147.37,23,109.32,60.68,80c17.16-13.35,39.38-29.11,64.6-58.2C135.73,9.76,151.2.21,186.1,2.6,221.41,5,238-14.57,315.4,60.21c28.52,27.55,52.57,55.1,12.41,169.56-7,20-24.23,31.46-62.56,57.42-30.75,20.83-76.11,28-148.41-7C87.12,265.84,51.47,250,43.8,170.21Z"/><path class="cls-2" d="M157.74,29.89s-24.28,15.54-12,16.84c0,0,13.76-3.68,20.4,13.92,0,0,37.89,8.42,76.42,6.15,0,0,27.85,2,42.1,34.33,0,0,46.2,43.18,11.66,123.92,0,0-49.65,30.65-26.77,34.54,0,0,12.52,6.91-20.73,6,0,0-5.28,4.54,16.41,6.16,0,0-46.95,22.34-107.18,5.82,0,0,28.49-5.5,6.47-9.39,0,0-63.79-10.68-30.11-19.75,0,0,7.77-7.45-30.44-5.51C104,243,36.42,165,80,89.9,80,89.9,143.93,30.54,157.74,29.89Z"/><path class="cls-3" d="M139.78,77.38s9.9-4.36,2,11.64c0,0,40.16-11.64,58.49,7.28,0,0,44,14.06,56.07,11,0,0,57.81,55.09,6.2,108.64,0,0-18.23,12.8-46.56,16.29,0,0,26.39-7.37-44.62-3.88,0,0-92.34,6.6-42.29-10.47C129.11,217.84,55.78,132.87,139.78,77.38Z"/><ellipse class="cls-4" cx="95.55" cy="200.18" rx="5.24" ry="10.48"/><ellipse class="cls-5" cx="173.83" cy="246.74" rx="10.77" ry="4.66"/><ellipse class="cls-6" cx="181.98" cy="57.01" rx="10.77" ry="4.66"/><path class="cls-7" d="M233.31,286.54c4.42-1.7,10.29-2.29,17.69.26,0,0,5.22-31,38.73-9.89,0,0,17.94-9.33,27.23,12.12,0,0,16.41,4.14,9.66,12.4-3,3.71-8.13,5.24-13.05,4.47-3.81-.59-8.05-2.23-9.89-6.4,0,0-19.75,16.54-51.05.87a83,83,0,0,1-16.76.68C227.55,300.37,225.61,289.5,233.31,286.54Z"/><path class="cls-8" d="M1.52,291.81s37,10.81,43.14,4.08c0,0,46.91,8.45,62.41,4.17,0,0,6.74,13.87,28.25,7.38,9.58-2.88,24.24,10.84,39.58,3.29a7,7,0,0,0,2.79-10.54c-3.64-5.07-11.48-10.7-28-7.61,0,0,4-22-29.74-20.8,0,0,2.14-33.91-41.74-31.39,0,0-27.48,4.71-26.42,24.25,0,0-20.49-9.65-24.82,13.09,0,0-11.32-4.9-19.48,6.82C7.47,284.55-1.36,286.48,1.52,291.81Z"/><path class="cls-9" d="M57.49,268.08s-2.49-10,4.18-15.3c0,0,8.13-4,12.5-9.18a15.31,15.31,0,0,1,11.33-2.52s7,.46,22.88,11.59c0,0,11.71,12.44.19,29.34,0,0-5.71,3.89-12.11,9.07,0,0-15,4.93-27-3.12C69.47,288,55,281.7,57.49,268.08Z"/><path class="cls-10" d="M80,245.41s-4.62,2.36-2.39,2.74a3.12,3.12,0,0,1,3.55,2.66A61.21,61.21,0,0,0,95,252.86a9.85,9.85,0,0,1,7.26,6.45s7.91,8,.62,21.48c0,0-9.43,4.63-5.31,5.6,0,0,2.2,1.35-3.85.77,0,0-1,.71,2.92,1.27A32.09,32.09,0,0,1,77,288.05s5.27-.58,1.3-1.53c0,0-11.51-2.67-5.25-3.79,0,0,1.51-1.19-5.49-1.35,0,0-11.37-14.28-2.5-26.65C65.08,254.73,77.46,245.34,80,245.41Z"/><path class="cls-11" d="M269.43,271.06s-3.12,1.6-1.61,1.86a2.09,2.09,0,0,1,2.39,1.79,41.24,41.24,0,0,0,9.37,1.38,6.65,6.65,0,0,1,4.9,4.36s5.33,5.42.41,14.5c0,0-6.37,3.13-3.58,3.78,0,0,1.49.92-2.6.52,0,0-.69.49,2,.86a21.62,21.62,0,0,1-13.25-.26s3.55-.39.87-1c0,0-7.77-1.8-3.54-2.56,0,0,1-.8-3.71-.9,0,0-7.68-9.65-1.69-18C259.36,277.36,267.72,271,269.43,271.06Z"/><path class="cls-12" d="M282.35,278.57s-2,2.59-.59,2.11a2.24,2.24,0,0,1,2.9.29,46.93,46.93,0,0,0,8.84-3.1,7,7,0,0,1,6.24,1.11s7.1,1.72,6.83,10.75c0,0-4.2,5.19-1.46,4.44,0,0,1.71,0-2.05,1.55,0,0-.39.67,2.11-.23a23.67,23.67,0,0,1-11.75,5.68s2.95-1.87.31-1.16c0,0-7.63,2.08-4.26-.36,0,0,.54-1-3.65,1,0,0-11.05-3.87-9.51-12.83C276.31,287.78,280.83,279.29,282.35,278.57Z"/><path class="cls-13" d="M76.13,253.35s1.86-.62.23,2c0,0,7.47-1.48,10.58,2,0,0,7.86,3,10.1,2.61,0,0,9.87,10.23-.2,18.78a21,21,0,0,1-8.69,2.2s4.9-.93-8.09-1.24c0,0-16.93-.06-7.59-2.35C72.47,277.39,60.13,261.81,76.13,253.35Z"/><ellipse class="cls-14" cx="66.57" cy="273.91" rx="1.81" ry="0.96" transform="translate(-211.37 320.93) rotate(-85.94)"/><ellipse class="cls-15" cx="80.28" cy="282.94" rx="0.8" ry="1.97" transform="matrix(0.07, -1, 1, 0.07, -207.63, 342.99)"/><ellipse class="cls-16" cx="84.08" cy="250.39" rx="0.8" ry="1.97" transform="translate(-171.63 316.54) rotate(-85.94)"/><ellipse class="cls-17" cx="44.87" cy="276" rx="10.39" ry="12.24" transform="translate(-207.4 155.38) rotate(-55.21)"/><ellipse class="cls-18" cx="127.83" cy="287.82" rx="13.56" ry="16.63" transform="translate(-162.18 410.61) rotate(-89)"/><ellipse class="cls-19" cx="23.16" cy="288.78" rx="3.88" ry="14.57" transform="translate(-266.53 291.45) rotate(-85.94)"/><ellipse class="cls-20" cx="242.72" cy="294.09" rx="3.95" ry="11.08" transform="translate(-67.8 515.39) rotate(-85.94)"/><ellipse class="cls-21" cx="159.24" cy="303.52" rx="3.88" ry="14.57" transform="translate(-154.79 440.88) rotate(-85.94)"/><ellipse class="cls-22" cx="316.2" cy="297.97" rx="3.88" ry="9.93" transform="translate(-10.21 584.71) rotate(-84.6)"/></svg>