<svg xmlns="http://www.w3.org/2000/svg" xmlns:xlink="http://www.w3.org/1999/xlink" viewBox="0 0 280 256"><defs><style>.cls-1{isolation:isolate;}.cls-16,.cls-17,.cls-2{stroke:#08b7fc;stroke-miterlimit:10;}.cls-2{fill:url(#linear-gradient);}.cls-3{fill:url(#linear-gradient-2);}.cls-4{fill:url(#linear-gradient-3);}.cls-5{fill:url(#linear-gradient-4);}.cls-6{fill:url(#linear-gradient-5);}.cls-7{fill:url(#linear-gradient-6);}.cls-8{fill:#5b889f;}.cls-9{mix-blend-mode:color-dodge;}.cls-10{fill:url(#linear-gradient-7);}.cls-11{fill:url(#linear-gradient-8);}.cls-12{fill:url(#linear-gradient-9);}.cls-13{fill:url(#linear-gradient-10);}.cls-14{fill:url(#linear-gradient-11);}.cls-15{fill:url(#linear-gradient-12);}.cls-16{fill:url(#linear-gradient-13);}.cls-17{fill:url(#linear-gradient-14);}.cls-18{fill:url(#linear-gradient-15);}.cls-19{fill:url(#linear-gradient-16);}.cls-20{fill:url(#linear-gradient-17);}.cls-21{fill:url(#linear-gradient-18);}.cls-22{fill:url(#linear-gradient-19);}.cls-23{fill:url(#linear-gradient-20);}.cls-24{fill:url(#linear-gradient-21);}.cls-25{fill:url(#linear-gradient-22);}.cls-26{fill:url(#linear-gradient-23);}.cls-27{fill:url(#linear-gradient-24);}.cls-28{fill:url(#linear-gradient-25);}.cls-29{fill:url(#linear-gradient-26);}.cls-30{fill:url(#linear-gradient-27);}.cls-31{fill:url(#linear-gradient-28);}</style><linearGradient id="linear-gradient" x1="154.63" y1="6.84" x2="153.76" y2="242.81" gradientUnits="userSpaceOnUse"><stop offset="0" stop-color="#b5e2f8"/><stop offset="0.2" stop-color="#b0e0f7"/><stop offset="0.42" stop-color="#a2daf3"/><stop offset="0.66" stop-color="#8bd0ec"/><stop offset="0.85" stop-color="#73c5e5"/></linearGradient><linearGradient id="linear-gradient-2" x1="147.75" y1="-29.61" x2="151.42" y2="271.28" gradientUnits="userSpaceOnUse"><stop offset="0" stop-color="#dbf1fc"/><stop offset="0.66" stop-color="#ccecfb"/></linearGradient><linearGradient id="linear-gradient-3" x1="153.38" y1="65.41" x2="152.93" y2="186.31" gradientUnits="userSpaceOnUse"><stop offset="0" stop-color="#f5fbfe"/><stop offset="0.15" stop-color="#ecf8fd"/><stop offset="0.58" stop-color="#d4effc"/><stop offset="0.85" stop-color="#ccecfb"/></linearGradient><linearGradient id="linear-gradient-4" x1="78.19" y1="153.26" x2="78.13" y2="169.6" xlink:href="#linear-gradient-3"/><linearGradient id="linear-gradient-5" x1="139.2" y1="194.1" x2="139.17" y2="201.36" xlink:href="#linear-gradient-3"/><linearGradient id="linear-gradient-6" x1="145.55" y1="46.18" x2="145.52" y2="53.44" xlink:href="#linear-gradient-3"/><linearGradient id="linear-gradient-7" x1="130.75" y1="179.67" x2="131.21" y2="179.67" gradientUnits="userSpaceOnUse"><stop offset="0" stop-color="#486670"/><stop offset="1" stop-color="#2e3955"/></linearGradient><linearGradient id="linear-gradient-8" x1="93.86" y1="178.96" x2="123.44" y2="178.96" xlink:href="#linear-gradient-7"/><linearGradient id="linear-gradient-9" x1="183.8" y1="76.89" x2="194.61" y2="76.89" xlink:href="#linear-gradient-3"/><linearGradient id="linear-gradient-10" x1="854.29" y1="1332.85" x2="865.1" y2="1332.85" gradientTransform="translate(925.46 -1271.48) rotate(63.68)" xlink:href="#linear-gradient-3"/><linearGradient id="linear-gradient-11" x1="929.21" y1="1355.18" x2="934.74" y2="1355.18" gradientTransform="translate(925.46 -1271.48) rotate(63.68)" xlink:href="#linear-gradient-3"/><linearGradient id="linear-gradient-12" x1="972.94" y1="1283.57" x2="978.47" y2="1283.57" gradientTransform="translate(925.46 -1271.48) rotate(63.68)" xlink:href="#linear-gradient-3"/><linearGradient id="linear-gradient-13" x1="136.33" y1="164.88" x2="214.26" y2="164.88" gradientTransform="matrix(1, 0.07, -0.07, 1, 57.87, 53.24)" xlink:href="#linear-gradient"/><linearGradient id="linear-gradient-14" x1="-40.96" y1="164.01" x2="98.49" y2="164.01" gradientTransform="matrix(1, 0.07, -0.07, 1, 57.87, 53.24)" xlink:href="#linear-gradient"/><linearGradient id="linear-gradient-15" x1="23.46" y1="138.41" x2="23.31" y2="178.63" gradientTransform="matrix(1, 0.07, -0.07, 1, 57.87, 53.24)" xlink:href="#linear-gradient"/><linearGradient id="linear-gradient-16" x1="22.01" y1="132.09" x2="22.64" y2="184.06" gradientTransform="matrix(1, 0.07, -0.07, 1, 57.87, 53.24)" xlink:href="#linear-gradient-2"/><linearGradient id="linear-gradient-17" x1="169.63" y1="144.87" x2="170.05" y2="179.97" gradientTransform="matrix(1, 0.07, -0.07, 1, 57.87, 53.24)" xlink:href="#linear-gradient-2"/><linearGradient id="linear-gradient-18" x1="525.32" y1="-359.58" x2="525.76" y2="-323.79" gradientTransform="matrix(0.91, -0.42, 0.36, 0.78, -125.14, 715.37)" xlink:href="#linear-gradient-2"/><linearGradient id="linear-gradient-19" x1="23.01" y1="148.51" x2="22.94" y2="169.39" gradientTransform="matrix(1, 0.07, -0.07, 1, 57.87, 53.24)" xlink:href="#linear-gradient-3"/><linearGradient id="linear-gradient-20" x1="9.25" y1="163.68" x2="9.24" y2="166.5" gradientTransform="translate(220.51 209.32) rotate(90)" xlink:href="#linear-gradient-3"/><linearGradient id="linear-gradient-21" x1="20.42" y1="170.73" x2="20.42" y2="171.99" gradientTransform="translate(237.48 205.2) rotate(90)" xlink:href="#linear-gradient-3"/><linearGradient id="linear-gradient-22" x1="21.58" y1="145.19" x2="21.58" y2="146.44" gradientTransform="translate(214.9 178.63) rotate(90)" xlink:href="#linear-gradient-3"/><linearGradient id="linear-gradient-23" x1="392.61" y1="-248.88" x2="392.54" y2="-229.86" gradientTransform="matrix(1.05, 0.19, -0.18, 0.98, -414.88, 380.91)" xlink:href="#linear-gradient-2"/><linearGradient id="linear-gradient-24" x1="44.73" y1="172.53" x2="70.67" y2="172.53" gradientTransform="translate(278.59 181.01) rotate(93.06)" xlink:href="#linear-gradient-2"/><linearGradient id="linear-gradient-25" x1="-35.09" y1="179.06" x2="-12.35" y2="179.06" gradientTransform="translate(200.61 253.89) rotate(90)" xlink:href="#linear-gradient-2"/><linearGradient id="linear-gradient-26" x1="138.83" y1="171.07" x2="156.13" y2="171.07" gradientTransform="translate(363.95 86.83) rotate(90)" xlink:href="#linear-gradient-2"/><linearGradient id="linear-gradient-27" x1="71.65" y1="183.02" x2="94.39" y2="183.02" gradientTransform="translate(310.76 158.66) rotate(90)" xlink:href="#linear-gradient"/><linearGradient id="linear-gradient-28" x1="-250.78" y1="192.32" x2="-228.04" y2="192.32" gradientTransform="matrix(0, 0.68, -1, 0, 442.21, 400.84)" xlink:href="#linear-gradient"/></defs><g class="cls-1"><g id="Layer_1" data-name="Layer 1"><path class="cls-2" d="M37.82,138.06C36.1,120.26,21.6,90.59,51,67.74,64.35,57.33,81.68,45,101.34,22.36c8.14-9.39,20.2-16.83,47.41-15C176.28,9.28,189.2-6,249.55,52.31c22.24,21.48,41,43,9.68,132.18-5.48,15.62-18.89,24.53-48.77,44.77-24,16.24-59.34,21.8-115.7-5.44C71.59,212.62,43.8,200.28,37.82,138.06Z"/><path class="cls-3" d="M126.64,28.67S107.71,40.79,117.3,41.8c0,0,10.73-2.88,15.91,10.85,0,0,29.53,6.56,59.58,4.8,0,0,21.71,1.51,32.82,26.76,0,0,36,33.66,9.09,96.61,0,0-38.71,23.89-20.87,26.92,0,0,9.76,5.39-16.16,4.72,0,0-4.13,3.53,12.79,4.79,0,0-36.61,17.42-83.56,4.55,0,0,22.21-4.29,5-7.32,0,0-49.74-8.34-23.48-15.4,0,0,6.06-5.81-23.73-4.3,0,0-52.68-60.75-18.69-119.32C66.05,75.46,115.87,29.17,126.64,28.67Z"/><path class="cls-4" d="M112.64,65.69s7.72-3.4,1.59,9.08c0,0,31.31-9.08,45.6,5.67,0,0,34.33,11,43.71,8.55,0,0,45.07,43,4.84,84.69,0,0-14.22,10-36.3,12.71,0,0,20.57-5.75-34.78-3,0,0-72,5.14-33-8.17C104.32,175.19,47.16,109,112.64,65.69Z"/><ellipse class="cls-5" cx="78.16" cy="161.43" rx="4.08" ry="8.17"/><ellipse class="cls-6" cx="139.19" cy="197.73" rx="8.39" ry="3.63"/><ellipse class="cls-7" cx="145.54" cy="49.81" rx="8.39" ry="3.63"/><path class="cls-8" d="M223.14,98.05l18.16-2.74s-16.15,1.48-16.89,6.86Z"/><path class="cls-8" d="M223.09,133.52l18.35-.46s-16.21-.55-17.61,4.7Z"/><g class="cls-9"><path class="cls-10" d="M131.17,179.74a1.17,1.17,0,0,1-.2.42l-.13.15a10.49,10.49,0,0,1,.3-1.3A1.27,1.27,0,0,1,131.17,179.74Z"/><path class="cls-11" d="M131.15,179v0h0Z"/></g><path class="cls-8" d="M154.91,54.37l.73-1.06,1,.59L167,60.15c-.07-1.52.38-1.7.87-1.8a4.07,4.07,0,0,1,1.59,0,3.84,3.84,0,0,0,1.58,0c.48-.14.91-.36,1.37-.53,1.82-.74,3.62-1.49,5.41-2.3a103.83,103.83,0,0,0,10.51-5.35l.59-.35.42.34a30.34,30.34,0,0,0,7.16,4.22,25,25,0,0,0,3.85,1.42,12,12,0,0,0,4.28.33l.95-.13-.07,1.41-1.38,26.21,20.24,15.12.85.64-.46,1-9.23,18.91,9.18,15.12.36.59-.27.43a50.4,50.4,0,0,0-6.7,22.43v.73l-.94.21-22,4.8-2.73,24.11-.06.53-.28.16a30.38,30.38,0,0,0-5.77,4.46c-1.74,1.65-3.29,3.48-4.88,5.27a97.56,97.56,0,0,0-8.7,11.51l-1.12,1.78-1-1.88A129.35,129.35,0,0,0,160,193.3a109.48,109.48,0,0,0-12.79-14.57l.84.52a38.3,38.3,0,0,0-4.39-1.66c-1.48-.48-3-.91-4.47-1.28s-3-.69-4.52-1a6.88,6.88,0,0,0-4.8.48l.91-.14-13.92,7.45-1.38.74-.54-1.4-5-12.92c0-.16-2.36-15.89-2.36-15.89L86.3,147.56l-.23-.06-.1-.1a89.52,89.52,0,0,0-11.53-9.57c-2-1.45-4.08-2.84-6.23-4.1a42.31,42.31,0,0,0-6.82-3.25l-4.57-1.58,5.1-.91,28.69-5.16-.87.55L96.82,116l.48-24.4.9,1.4L74.43,82.77l15.81-9.43.26-.16h.35l25.83,1-.34.23.79-1c-.07-.39.16-.66.22-1l.31-1,.62-1.92,1.23-3.85L122,58l.37-1.15.87.3a24.12,24.12,0,0,0,7.3,1.15,18.43,18.43,0,0,0,3.63-.2,10.31,10.31,0,0,0,3.6-1.32l.44-.29.44.58a41.67,41.67,0,0,0,4.6,5c.8.78,1.66,1.48,2.49,2.23l1.29,1,.64.53.33.26m0,0-.67-.5-1.34-1c-.92-.62-1.82-1.29-2.77-1.87a41.79,41.79,0,0,0-5.93-3.24l.89.29a10.06,10.06,0,0,0-3.67-1.14,18.35,18.35,0,0,0-3.63,0,23.85,23.85,0,0,0-7.23,1.52l1.24-.86-3.66,7.21-1.83,3.6-.91,1.8-.46.9c-.19.29-.22.64-.55.87L117.36,75l0,.22H117l-25.82,1,.61-.14-17,7L99.5,90.67l1,.32-.15,1.08-3.23,24.19-4.85,9-.23.43-.64.12-28.68,5.15.53-2.49a40.67,40.67,0,0,0,5.48,5.2c1.94,1.57,4,3,6,4.36a89.63,89.63,0,0,0,13.06,7.35l-.32-.16,20.34,8.65,3.76,15.46,0-.16,6.2,12.4-1.91-.65,13.92-7.45.7-.38.21.24a6.92,6.92,0,0,0,4.29,2.21c1.52.27,3,.54,4.57.73s3.07.36,4.63.46a38.55,38.55,0,0,0,4.69.07l.56,0,.29.55a109.36,109.36,0,0,0,10.6,16.23,128.63,128.63,0,0,0,12.79,14.57L171,208a97.57,97.57,0,0,0,10.65-9.73c1.64-1.75,3.31-3.46,4.8-5.35a30.36,30.36,0,0,0,3.9-6.16l-.34.7,5.45-23.64,21.24-7.46-.94.93a50.4,50.4,0,0,0,6.7-22.43l.09,1-6.72-16.37,6.68-20,.39,1.58L204.46,83.9l-1.38-26.21L204,59a12,12,0,0,0-3.37-2.66,25.4,25.4,0,0,0-3.79-1.56A30.83,30.83,0,0,0,188.67,53h1a105.34,105.34,0,0,0-11.33,3.31c-1.85.63-3.68,1.32-5.51,2a14.33,14.33,0,0,0-1.36.55A3.78,3.78,0,0,0,170.34,60a4,4,0,0,1-1.14,1.11c-.43.26-.88.44-1.87-.71l-11.52-3.74,1.71-.47"/><path class="cls-8" d="M217.11,155.87l13.8,12.1s-11.54-11.38-16.13-8.48Z"/><path class="cls-8" d="M192.06,185.14l13.8,12.11s-11.54-11.39-16.13-8.49Z"/><path class="cls-8" d="M149.64,179.59,137,192.87s11.87-11.05,9.16-15.76Z"/><path class="cls-8" d="M118.34,181.86l-12.69,13.28s11.87-11,9.17-15.76Z"/><path class="cls-8" d="M107.83,153.79l-9.65,15.63s9.32-13.28,5.69-17.32Z"/><path class="cls-8" d="M96.62,117l-17.18-6.47s14.81,6.6,18.08,2.26Z"/><path class="cls-8" d="M117.42,74.58l-17.18-6.47s14.81,6.59,18.09,2.26Z"/><path class="cls-8" d="M202.74,57.13l15.5-9.84s-14.18,7.87-12.68,13.1Z"/><path class="cls-8" d="M187.25,52.62l-1.57-18.29s.44,16.21,5.76,17.29Z"/><path class="cls-8" d="M154.64,56.21l-1.57-18.29s.43,16.21,5.76,17.29Z"/><path class="cls-8" d="M137.66,58.67l1.8-10.11s-2.11,8.83.61,10.18Z"/><path class="cls-8" d="M185.28,68.52a10,10,0,0,0-2,10.38s1-.8,3.39,5.39c0,0,7.39,3.59,8.58-1.8,0,0,3.7-2.32-2.44-5.46,0,0-3.89.15-3.45-6.14C189.37,70.89,190.32,65.4,185.28,68.52Z"/><path class="cls-12" d="M185.88,70.59a7.9,7.9,0,0,0-1.58,8.18s.79-.63,2.68,4.25c0,0,5.82,2.83,6.77-1.42,0,0,2.91-1.83-1.93-4.3,0,0-3.07.11-2.72-4.84C189.1,72.46,189.85,68.13,185.88,70.59Z"/><path class="cls-8" d="M117.66,82.8a10,10,0,0,0-10.18,2.81s1.15.54-3.33,5.43c0,0,0,8.21,5.42,6.9,0,0,3.71,2.28,3.81-4.62,0,0-1.86-3.42,4-5.81C117.35,87.51,122.69,85.93,117.66,82.8Z"/><path class="cls-13" d="M116.08,84.24a7.94,7.94,0,0,0-8,2.22s.92.43-2.62,4.28c0,0,0,6.48,4.27,5.44,0,0,2.93,1.8,3-3.64,0,0-1.47-2.7,3.13-4.58C115.83,88,120,86.72,116.08,84.24Z"/><path class="cls-8" d="M126.88,161a5.15,5.15,0,0,0-5.21,1.44s.59.28-1.71,2.78c0,0,0,4.2,2.77,3.53,0,0,1.91,1.16,2-2.36,0,0-1-1.75,2-3C126.72,163.43,129.45,162.62,126.88,161Z"/><path class="cls-14" d="M126.06,161.76a4,4,0,0,0-4.1,1.13s.46.22-1.34,2.19c0,0,0,3.31,2.18,2.78,0,0,1.5.92,1.54-1.86,0,0-.75-1.38,1.6-2.34C125.94,163.66,128.09,163,126.06,161.76Z"/><path class="cls-8" d="M210.45,168.46a5.15,5.15,0,0,0-5.21,1.44s.59.28-1.7,2.78c0,0,0,4.2,2.77,3.53,0,0,1.9,1.16,1.95-2.36,0,0-.95-1.75,2-3C210.29,170.88,213,170.07,210.45,168.46Z"/><path class="cls-15" d="M209.64,169.2a4,4,0,0,0-4.11,1.14s.47.22-1.34,2.19c0,0,0,3.31,2.18,2.78,0,0,1.5.92,1.54-1.86,0,0-.75-1.38,1.6-2.34C209.51,171.11,211.67,170.47,209.64,169.2Z"/><path class="cls-16" d="M185.54,228.43c3.45-1.33,8-1.79,13.8.2,0,0,4.08-24.21,30.23-7.72,0,0,14-7.28,21.24,9.46,0,0,12.81,3.23,7.54,9.68a10.91,10.91,0,0,1-10.17,3.49c-3-.47-6.29-1.75-7.73-5,0,0-15.41,12.91-39.83.68a64.53,64.53,0,0,1-13.09.53C181,239.22,179.53,230.74,185.54,228.43Z"/><path class="cls-17" d="M4.66,232.54S33.5,241,38.32,235.72c0,0,36.6,6.6,48.7,3.26,0,0,5.26,10.82,22,5.76,7.48-2.25,18.92,8.46,30.89,2.57a5.49,5.49,0,0,0,2.17-8.23c-2.83-4-8.95-8.35-21.86-5.94,0,0,3.12-17.16-23.21-16.23,0,0,1.67-26.46-32.58-24.5,0,0-21.44,3.68-20.61,18.93,0,0-16-7.53-19.37,10.21,0,0-8.84-3.82-15.2,5.32C9.3,226.87,2.41,228.38,4.66,232.54Z"/><path class="cls-18" d="M48.34,214s-2-7.83,3.26-11.94c0,0,6.34-3.13,9.75-7.16a12,12,0,0,1,8.84-2s5.48.36,17.85,9c0,0,9.14,9.71.16,22.9,0,0-4.46,3-9.46,7.08,0,0-11.68,3.85-21.06-2.44C57.68,229.53,46.37,224.65,48.34,214Z"/><path class="cls-19" d="M65.89,196.33s-3.6,1.84-1.86,2.14a2.43,2.43,0,0,1,2.77,2.08,47.65,47.65,0,0,0,10.82,1.59,7.7,7.7,0,0,1,5.66,5s6.17,6.26.48,16.76c0,0-7.36,3.61-4.14,4.37,0,0,1.72,1.05-3,.6,0,0-.79.56,2.28,1a25,25,0,0,1-15.31-.3s4.11-.45,1-1.19c0,0-9-2.08-4.1-3,0,0,1.18-.92-4.28-1,0,0-8.88-11.15-2-20.8C54.26,203.6,63.92,196.28,65.89,196.33Z"/><path class="cls-20" d="M213.73,216.35s-2.44,1.24-1.26,1.44a1.64,1.64,0,0,1,1.87,1.41,32.07,32.07,0,0,0,7.3,1.07,5.2,5.2,0,0,1,3.83,3.4s4.16,4.23.32,11.32c0,0-5,2.44-2.79,2.95,0,0,1.16.71-2,.41,0,0-.54.37,1.53.67a17,17,0,0,1-10.34-.2s2.78-.31.69-.81c0,0-6.07-1.41-2.77-2,0,0,.79-.62-2.89-.71,0,0-6-7.52-1.32-14C205.87,221.26,212.39,216.31,213.73,216.35Z"/><path class="cls-21" d="M223.81,222.21s-1.59,2-.47,1.64a1.75,1.75,0,0,1,2.27.23,36.56,36.56,0,0,0,6.9-2.42,5.48,5.48,0,0,1,4.87.86s5.54,1.35,5.33,8.4c0,0-3.28,4-1.14,3.46,0,0,1.34,0-1.6,1.21,0,0-.31.52,1.65-.18a18.51,18.51,0,0,1-9.17,4.44s2.3-1.46.24-.92c0,0-5.95,1.63-3.32-.27,0,0,.42-.83-2.86.74,0,0-8.61-3-7.41-10C219.1,229.4,222.62,222.77,223.81,222.21Z"/><path class="cls-22" d="M62.88,202.53s1.45-.49.18,1.58c0,0,5.83-1.16,8.26,1.57,0,0,6.13,2.33,7.87,2,0,0,7.71,8-.15,14.65a16.53,16.53,0,0,1-6.78,1.72s3.83-.73-6.31-1c0,0-13.21-.05-5.92-1.84C60,221.28,50.4,209.13,62.88,202.53Z"/><ellipse class="cls-23" cx="55.42" cy="218.57" rx="1.41" ry="0.75" transform="translate(-166.53 258.38) rotate(-85.94)"/><ellipse class="cls-24" cx="66.12" cy="225.62" rx="0.63" ry="1.54" transform="translate(-163.61 275.6) rotate(-85.94)"/><ellipse class="cls-25" cx="69.08" cy="200.22" rx="0.63" ry="1.54" transform="translate(-135.52 254.96) rotate(-85.94)"/><ellipse class="cls-26" cx="38.49" cy="220.2" rx="8.1" ry="9.55" transform="translate(-164.32 126.17) rotate(-55.21)"/><ellipse class="cls-27" cx="103.22" cy="229.42" rx="10.58" ry="12.98" transform="translate(-127.97 328.63) rotate(-89)"/><ellipse class="cls-28" cx="21.55" cy="230.17" rx="3.03" ry="11.37" transform="translate(-209.58 235.38) rotate(-85.94)"/><ellipse class="cls-29" cx="192.88" cy="234.31" rx="3.08" ry="8.65" transform="translate(-54.49 410.13) rotate(-85.94)"/><ellipse class="cls-30" cx="127.74" cy="241.68" rx="3.03" ry="11.37" transform="translate(-122.37 351.99) rotate(-85.94)"/><ellipse class="cls-31" cx="250.22" cy="237.34" rx="3.03" ry="7.75" transform="translate(-9.62 464.11) rotate(-84.6)"/></g></g></svg>