<svg id="Layer_1" data-name="Layer 1" xmlns="http://www.w3.org/2000/svg" viewBox="0 0 340 100"><defs><style>.cls-1{fill:#ff673e;}.cls-2{fill:#ea461f;}.cls-3{fill:#ff9b50;}.cls-4{fill:#ffcc4d;}</style></defs><path class="cls-1" d="M37.59,42.91c25.65-8,32.82-13,56.37-15.48,13.52-2.26,22.74-13.55,9.34-17.17C107.81,5,123.85-2.71,138,5.18c6.93,4.94,3.72,6.85,7.44,11.88s11.53,2.92,22.12-4.85,22.85-15.79,44-7c-7.38,2.22-15.83,8.71-13.61,14.27s11,5.74,24.57-2,34.32-15.38,57.2-6.19S320.53,35.19,337,14.53c0,0-.2,19.93-21.29,24.28s-28.88-5.5-39,11.63c8.4.31,15.63,10,12.54,21C282.91,69,275.52,62.26,257.78,69S226,87,207.15,74c3.52,12.39-5.63,24.61-5.63,24.61s-11.7-14.77-23.81-14.8-29.53,8.42-45.57-.87S110.73,63.46,101,64.18c5.58,9.36,4.92,17.37-.55,22.8C97.07,77,89.25,67.56,77.21,61.34S46.84,56.6,32.84,58.06,3,43.93,3,43.93,11.94,51,37.59,42.91Z"/><path class="cls-2" d="M10.79,46.44c17.91,8.72,39.63,3.29,60.52,5.71,8.79.45,18.83,8.05,24.26,14.77.42-1.67-2.93-7.58-4.18-9.68,6.45-.82,14.68,3.16,18.65,5,37.09,25.88,48.2,15,70.92,14.06,7.42-.31,15.47,4.78,17.67,9.37,2.42-3.4,5.14-12.76,3.14-18.58,21.36,11.66,39.19-1.31,60.15-6.23,5.91-1.39,12.78-.43,19.18-.18-3.12-5.25-7.72-8.19-14.21-7.16,1.89-4,10-11.67,12.88-14,19.78-15.89,39.11,6.19,57.05-24.91a2.09,2.09,0,0,1,.14-.17s-.2,19.93-21.29,24.28-28.88-5.5-39,11.63c8.4.31,15.63,10,12.54,21C282.91,69,275.52,62.26,257.78,69S226,87,207.15,74c3.52,12.39-5.63,24.61-5.63,24.61s-11.7-14.77-23.81-14.8-29.53,8.42-45.57-.87S110.73,63.46,101,64.18c5.58,9.36,4.92,17.37-.55,22.8C97.07,77,89.25,67.56,77.21,61.34S46.84,56.6,32.84,58.06,3,43.93,3,43.93,5.29,45.7,10.79,46.44Z"/><path class="cls-3" d="M119.86,22.31c4.21,13.44,19.17,23.89,55.44-1.9-4.84,7.81,2.86,14.36,20.26,16.15s54-19,81.64-10.82c0,0-29,4.78-28.65,20.11.22,2.91,11.64-.86,18.77,8.56-11,.08-11.68-1.77-22.89,4.91S223.2,65.1,209,61.63a247.92,247.92,0,0,0-26.46-4.9s9.76,9.37,5.9,19.46c-2.36-5.24-11.35-12-20.19-10.94s-26.25,6.91-48.35-11c2.16,5.54.8,12.81.8,12.81S77.1,45.92,55.4,47.09C75.89,41.33,115.8,34.61,119.86,22.31Z"/><path class="cls-4" d="M119.12,37.81c11.62,6.12,34.22,8.35,47.95-2.25C180,45.5,195,46,210.59,41.28s26-6.58,34.34-8.87C238.18,38.12,229,47.31,229,47.31s10.78,2.27,16.4,4.61c-12.22,3.41-25.08,7-39.52,3s-31.38-5.21-31.38-5.21,3.8,3.66,6.94,12.05c-4.83-3.65-10.73-5.45-19.78-4.4S132,59.59,121.05,48c-4.71,3.78-2.88,8.48-2.88,8.48s-22-9.5-31.39-9.4C86.78,47.09,115.68,43,119.12,37.81Z"/></svg>