<svg id="Layer_1" data-name="Layer 1" xmlns="http://www.w3.org/2000/svg" xmlns:xlink="http://www.w3.org/1999/xlink" viewBox="0 0 440 310"><defs><style>.cls-1,.cls-7,.cls-8{stroke:#08b7fc;stroke-miterlimit:10;}.cls-1{fill:url(#linear-gradient);}.cls-2{fill:url(#linear-gradient-2);}.cls-3{fill:url(#linear-gradient-3);}.cls-4{fill:url(#linear-gradient-4);}.cls-5{fill:url(#linear-gradient-5);}.cls-6{fill:url(#linear-gradient-6);}.cls-7{fill:url(#linear-gradient-7);}.cls-8{fill:url(#linear-gradient-8);}.cls-9{fill:url(#linear-gradient-9);}.cls-10{fill:url(#linear-gradient-10);}.cls-11{fill:url(#linear-gradient-11);}.cls-12{fill:url(#linear-gradient-12);}.cls-13{fill:url(#linear-gradient-13);}.cls-14{fill:url(#linear-gradient-14);}.cls-15{fill:url(#linear-gradient-15);}.cls-16{fill:url(#linear-gradient-16);}.cls-17{fill:url(#linear-gradient-17);}.cls-18{fill:url(#linear-gradient-18);}.cls-19{fill:url(#linear-gradient-19);}.cls-20{fill:url(#linear-gradient-20);}.cls-21{fill:url(#linear-gradient-21);}.cls-22{fill:url(#linear-gradient-22);}.cls-23{fill:#5b889f;}.cls-24{fill:url(#linear-gradient-23);}.cls-25{fill:url(#linear-gradient-24);}</style><linearGradient id="linear-gradient" x1="243.84" y1="3.42" x2="242.77" y2="291.46" gradientUnits="userSpaceOnUse"><stop offset="0" stop-color="#b5e2f8"/><stop offset="0.2" stop-color="#b0e0f7"/><stop offset="0.42" stop-color="#a2daf3"/><stop offset="0.66" stop-color="#8bd0ec"/><stop offset="0.85" stop-color="#73c5e5"/></linearGradient><linearGradient id="linear-gradient-2" x1="230.41" y1="-37.03" x2="234.76" y2="319.24" gradientUnits="userSpaceOnUse"><stop offset="0" stop-color="#dbf1fc"/><stop offset="0.66" stop-color="#ccecfb"/></linearGradient><linearGradient id="linear-gradient-3" x1="237.94" y1="91.22" x2="237.48" y2="216.94" gradientUnits="userSpaceOnUse"><stop offset="0" stop-color="#f5fbfe"/><stop offset="0.15" stop-color="#ecf8fd"/><stop offset="0.58" stop-color="#d4effc"/><stop offset="0.85" stop-color="#ccecfb"/></linearGradient><linearGradient id="linear-gradient-4" x1="121.79" y1="152.5" x2="121.69" y2="177.85" xlink:href="#linear-gradient-3"/><linearGradient id="linear-gradient-5" x1="216.46" y1="215.87" x2="216.41" y2="227.13" xlink:href="#linear-gradient-3"/><linearGradient id="linear-gradient-6" x1="239.94" y1="51.56" x2="239.9" y2="62.82" xlink:href="#linear-gradient-3"/><linearGradient id="linear-gradient-7" x1="299.11" y1="264.9" x2="428.75" y2="264.9" xlink:href="#linear-gradient"/><linearGradient id="linear-gradient-8" x1="4.16" y1="263.47" x2="236.17" y2="263.47" xlink:href="#linear-gradient"/><linearGradient id="linear-gradient-9" x1="111.34" y1="220.87" x2="111.1" y2="287.77" xlink:href="#linear-gradient"/><linearGradient id="linear-gradient-10" x1="108.92" y1="210.37" x2="109.98" y2="296.82" xlink:href="#linear-gradient-2"/><linearGradient id="linear-gradient-11" x1="354.5" y1="231.62" x2="355.21" y2="290" xlink:href="#linear-gradient-2"/><linearGradient id="linear-gradient-12" x1="528.45" y1="-338.7" x2="529.17" y2="-279.17" gradientTransform="matrix(0.88, -0.48, 0.41, 0.75, 42.78, 749.46)" xlink:href="#linear-gradient-2"/><linearGradient id="linear-gradient-13" x1="110.6" y1="237.67" x2="110.47" y2="272.41" xlink:href="#linear-gradient-3"/><linearGradient id="linear-gradient-14" x1="87.71" y1="262.91" x2="87.69" y2="267.6" xlink:href="#linear-gradient-3"/><linearGradient id="linear-gradient-15" x1="106.28" y1="274.64" x2="106.28" y2="276.73" xlink:href="#linear-gradient-3"/><linearGradient id="linear-gradient-16" x1="108.22" y1="232.15" x2="108.21" y2="234.23" xlink:href="#linear-gradient-3"/><linearGradient id="linear-gradient-17" x1="250.21" y1="-501.21" x2="250.09" y2="-469.57" gradientTransform="matrix(1.05, 0.19, -0.18, 0.98, -288.75, 699.83)" xlink:href="#linear-gradient-2"/><linearGradient id="linear-gradient-18" x1="146.72" y1="277.64" x2="189.88" y2="277.64" gradientTransform="translate(15.06 -8.59) rotate(3.06)" xlink:href="#linear-gradient-2"/><linearGradient id="linear-gradient-19" x1="13.94" y1="288.5" x2="51.77" y2="288.5" xlink:href="#linear-gradient-2"/><linearGradient id="linear-gradient-20" x1="303.27" y1="275.2" x2="332.05" y2="275.2" xlink:href="#linear-gradient-2"/><linearGradient id="linear-gradient-21" x1="191.51" y1="295.09" x2="229.34" y2="295.09" xlink:href="#linear-gradient"/><linearGradient id="linear-gradient-22" x1="-90.57" y1="298.71" x2="-52.75" y2="298.71" gradientTransform="matrix(0, 0.68, -1, 0, 711.78, 322.89)" xlink:href="#linear-gradient"/><linearGradient id="linear-gradient-23" x1="1447.81" y1="1404.77" x2="1456.4" y2="1404.77" gradientTransform="translate(808.88 -1753.75) rotate(63.68)" xlink:href="#linear-gradient-3"/><linearGradient id="linear-gradient-24" x1="1515.7" y1="1293.59" x2="1524.29" y2="1293.59" gradientTransform="translate(808.88 -1753.75) rotate(63.68)" xlink:href="#linear-gradient-3"/></defs><path class="cls-1" d="M59.14,128.92C56.48,101.29,34,55.26,79.56,19.79c20.75-16.15,17.35,12.84,54.65-15C149-6.33,195.53,39.89,237.75,42.79c42.58,2.92,62-87.94,183,11.57a12.18,12.18,0,0,0,1.82,1.2c4.33,2.43,37,26.2-19.89,145.4C392.1,223.23,373.4,239,327,270.43,289.83,295.63,235,304.25,147.5,262,111.54,244.6,68.42,225.46,59.14,128.92Z"/><path class="cls-2" d="M166.3,37c2.54,5.36,7.42,12,16.18,12.71a65.55,65.55,0,0,1,18.78,12.9,29.08,29.08,0,0,0,21.26,8.28c15.28-.46,41.27-1.31,68.93-2.48a67.18,67.18,0,0,1,29.46,5.17,62.21,62.21,0,0,1,29.63,25.83s55.88,39.44,14.1,113.19c0,0-60.07,28-32.39,31.55,0,0,15.15,6.31-25.07,5.52,0,0-6.4,4.14,19.85,5.62,0,0-56.8,20.41-129.66,5.33,0,0,34.47-5,7.83-8.58,0,0-77.17-9.76-36.43-18,0,0,9.4-6.81-36.83-5,0,0-81.74-71.19-29-139.82,0,0,32.2-42.55,52-55.4A7.85,7.85,0,0,1,166.3,37Z"/><path class="cls-3" d="M174.85,91.44s12-3.55,2.47,9.44c0,0,48.57-9.44,70.75,5.9,0,0,53.28,11.41,67.83,8.9,0,0,69.93,44.7,7.51,88.15,0,0-22.06,10.39-56.33,13.22,0,0,31.92-6-54-3.15,0,0-111.7,5.35-51.16-8.5C161.94,205.4,73.23,136.45,174.85,91.44Z"/><ellipse class="cls-4" cx="121.74" cy="165.17" rx="6.34" ry="12.67"/><ellipse class="cls-5" cx="216.44" cy="221.5" rx="13.02" ry="5.63"/><ellipse class="cls-6" cx="239.92" cy="57.19" rx="13.02" ry="5.63"/><path class="cls-7" d="M304.79,266.29c5.57-2.61,13.11-3.9,22.92-1.29,0,0,3.92-40.65,49.25-16.36,0,0,22.38-13.73,36.37,13.2,0,0,21.64,3.85,13.65,15.17-3.58,5.08-10,7.53-16.48,7-5-.43-10.63-2.16-13.4-7.38,0,0-24.06,23.23-66,5.81a108.06,108.06,0,0,1-21.64,2.42C298.6,284.73,295.09,270.84,304.79,266.29Z"/><path class="cls-8" d="M5.11,294.41S54,305,61.35,295.73c0,0,61.51,6.64,81.2-.33,0,0,10,17.33,37.26,7,12.14-4.63,32.39,11.8,51.56.62A9.13,9.13,0,0,0,234,289.08c-5.17-6.23-15.84-12.8-37-7.28,0,0,3.17-28.85-40.42-24.21,0,0-.35-44.1-56.94-36.81,0,0-35.16,8.63-32,33.83,0,0-27.42-10.61-30.93,19.23,0,0-15.12-5.3-24.61,10.62C12.14,284.46.89,287.77,5.11,294.41Z"/><path class="cls-9" d="M75.41,258.54s-4.14-12.77,4-20.2c0,0,10.15-5.93,15.33-13,0,0,6.22-5.41,14.44-4.3,0,0,9.15,0,30.7,12.91,0,0,16.3,15,3,38,0,0-7.05,5.57-14.86,12.87,0,0-18.92,7.75-35.23-1.57C92.75,283.18,73.41,276.4,75.41,258.54Z"/><path class="cls-10" d="M102.46,227.12s-5.76,3.48-2.84,3.77a4,4,0,0,1,4.84,3.12,79.48,79.48,0,0,0,18.14,1.37,12.81,12.81,0,0,1,10,7.69s11,9.67,2.76,27.76c0,0-11.78,6.86-6.35,7.73,0,0,3,1.55-4.92,1.36,0,0-1.26,1,3.89,1.38a41.63,41.63,0,0,1-25.44,1.3s6.76-1.23,1.54-2.1c0,0-15.15-2.4-7.15-4.43,0,0,1.84-1.66-7.23-1.23,0,0-16-17.46-5.69-34.28C84,240.56,99.18,227.26,102.46,227.12Z"/><path class="cls-11" d="M350.14,242.93s-3.9,2.36-1.92,2.55a2.73,2.73,0,0,1,3.27,2.11,53.8,53.8,0,0,0,12.25.93,8.63,8.63,0,0,1,6.75,5.19s7.4,6.53,1.87,18.74c0,0-8,4.64-4.3,5.22,0,0,2,1.05-3.32.92,0,0-.85.68,2.63.93a28.1,28.1,0,0,1-17.18.88s4.57-.83,1-1.42c0,0-10.23-1.62-4.83-3,0,0,1.25-1.12-4.88-.83,0,0-10.83-11.79-3.84-23.15C337.68,252,347.92,243,350.14,242.93Z"/><path class="cls-12" d="M367.55,251.47s-2.39,3.53-.57,2.79a2.91,2.91,0,0,1,3.79.11,60.72,60.72,0,0,0,11.16-4.84,9.13,9.13,0,0,1,8.19.87s9.35,1.58,9.83,13.3c0,0-5,7.1-1.48,5.88,0,0,2.21-.12-2.52,2.19,0,0-.45.91,2.71-.48A30.84,30.84,0,0,1,384,279.72s3.64-2.69.29-1.54c0,0-9.68,3.41-5.54-.07,0,0,.6-1.41-4.65,1.58,0,0-14.65-4-13.48-15.74C360.59,264,365.65,252.54,367.55,251.47Z"/><path class="cls-13" d="M98.2,237.75s2.35-1,.48,2.61c0,0,9.53-2.61,13.89,1.63,0,0,10.45,3.15,13.31,2.45,0,0,13.72,12.35,1.47,24.34a27.37,27.37,0,0,1-11,3.65s6.26-1.65-10.6-.87c0,0-21.92,1.48-10-2.35C95.66,269.21,78.26,250.18,98.2,237.75Z"/><ellipse class="cls-14" cx="87.7" cy="265.26" rx="1.24" ry="2.35"/><ellipse class="cls-15" cx="106.28" cy="275.69" rx="2.56" ry="1.04"/><ellipse class="cls-16" cx="108.21" cy="233.19" rx="2.56" ry="1.04"/><ellipse class="cls-17" cx="59.79" cy="269.96" rx="13.48" ry="15.89" transform="translate(-202.81 183.4) rotate(-59.27)"/><ellipse class="cls-18" cx="168.3" cy="277.64" rx="21.59" ry="17.61" transform="translate(-14.58 9.38) rotate(-3.06)"/><ellipse class="cls-19" cx="32.86" cy="288.5" rx="18.92" ry="5.04"/><ellipse class="cls-20" cx="317.66" cy="275.2" rx="14.39" ry="5.12"/><ellipse class="cls-21" cx="210.42" cy="295.09" rx="18.92" ry="5.04"/><ellipse class="cls-22" cx="413.17" cy="273.48" rx="5.04" ry="12.89" transform="translate(130.08 680.12) rotate(-88.66)"/><path class="cls-23" d="M347.53,67.15l28.18-4.26s-25.07,2.3-26.21,10.65Z"/><path class="cls-23" d="M347.44,122.21l28.5-.71s-25.16-.85-27.34,7.3Z"/><path class="cls-23" d="M318,44.81l31.43,23.47,1.32,1L350,70.74,335.69,100.1,350,123.58l.55.92-.41.67a68.35,68.35,0,0,0-7.26,16.8,69.26,69.26,0,0,0-3.15,18l0,1.14-1.45.31-34.15,7.47-4.23,37.42-.1.83-.43.25a45.89,45.89,0,0,0-9,6.92c-2.71,2.56-5.12,5.4-7.59,8.18a151.22,151.22,0,0,0-13.5,17.86l-1.74,2.77L266,240.23A201.37,201.37,0,0,0,249.5,215a170,170,0,0,0-19.85-22.62l1.3.81a62.72,62.72,0,0,0-6.82-2.59c-2.3-.74-4.61-1.41-6.94-2s-4.67-1.08-7-1.57a10.74,10.74,0,0,0-7.46.75l1.41-.22-21.61,11.57-2.14,1.14-.84-2.16-7.79-20.07c-.08-.25-3.67-24.68-3.67-24.68l-33-9.39-.35-.1-.15-.16a139.46,139.46,0,0,0-17.91-14.85,115.25,115.25,0,0,0-9.68-6.36,63.93,63.93,0,0,0-10.58-5l-7.09-2.45,7.92-1.43,44.53-8-1.35.84,11-11.41,2.14-35.72-36.9-15.91,24.54-14.65,1.49,4.44-25.5,10.58,38.38,11.89,1.62.51L157,57.86l-5,37.56-7.53,14-.36.66-1,.18-44.53,8,.84-3.88a62.81,62.81,0,0,0,8.5,8.08,115.29,115.29,0,0,0,9.4,6.77,138.54,138.54,0,0,0,20.27,11.41l-.5-.25,31.58,13.44,5.84,24-.07-.25L184,196.79l-3-1,21.62-11.57,1.09-.58.32.37a10.79,10.79,0,0,0,6.66,3.44c2.36.41,4.72.84,7.1,1.12s4.77.57,7.18.72a61.17,61.17,0,0,0,7.3.11l.87,0,.43.85a170,170,0,0,0,16.47,25.19A199.51,199.51,0,0,0,269.91,238l-3.29-.14a151.38,151.38,0,0,0,16.55-15.1c2.54-2.71,5.13-5.38,7.44-8.31a46.58,46.58,0,0,0,6.06-9.56l-.53,1.08,8.46-36.69,33-11.59-1.47,1.45a70.25,70.25,0,0,0,7.26-16.8,69.41,69.41,0,0,0,3.15-18l.14,1.58-10.44-25.42,10.37-31,.61,2.45L318.52,45.18"/><path class="cls-23" d="M338.16,156.91l21.43,18.8s-17.92-17.69-25-13.17Z"/><path class="cls-23" d="M299.27,202.36l21.43,18.8S302.78,203.47,295.65,208Z"/><path class="cls-23" d="M233.42,193.75l-19.69,20.61S232.16,197.21,228,189.9Z"/><path class="cls-23" d="M184.81,197.27l-19.69,20.62s18.43-17.16,14.23-24.47Z"/><path class="cls-23" d="M168.5,153.69l-15,24.26s14.47-20.61,8.83-26.89Z"/><path class="cls-23" d="M151.1,96.54l-26.68-10s23,10.24,28.08,3.5Z"/><path class="cls-23" d="M198.07,164.9a8,8,0,0,0-8.09,2.24s.92.42-2.64,4.31c0,0,0,6.52,4.3,5.47,0,0,3,1.82,3-3.66,0,0-1.48-2.72,3.16-4.61C197.83,168.65,202.07,167.39,198.07,164.9Z"/><path class="cls-24" d="M196.81,166.05a6.3,6.3,0,0,0-6.38,1.76s.73.34-2.08,3.4c0,0,0,5.14,3.39,4.32,0,0,2.33,1.43,2.39-2.89,0,0-1.16-2.14,2.49-3.63C196.62,169,200,168,196.81,166.05Z"/><path class="cls-23" d="M327.82,176.47a8,8,0,0,0-8.09,2.23s.92.43-2.64,4.31c0,0,.05,6.52,4.3,5.48,0,0,2.95,1.81,3-3.67,0,0-1.48-2.71,3.16-4.61C327.58,180.21,331.82,179,327.82,176.47Z"/><path class="cls-25" d="M326.56,177.62a6.25,6.25,0,0,0-6.37,1.76s.72.34-2.09,3.4c0,0,0,5.14,3.39,4.31,0,0,2.33,1.43,2.39-2.88,0,0-1.16-2.15,2.49-3.64C326.37,180.57,329.71,179.58,326.56,177.62Z"/></svg>