<svg id="Layer_1" data-name="Layer 1" xmlns="http://www.w3.org/2000/svg" xmlns:xlink="http://www.w3.org/1999/xlink" viewBox="0 0 440 100"><defs><style>.cls-1,.cls-12,.cls-23,.cls-34,.cls-35{stroke:#08b7fc;stroke-miterlimit:10;}.cls-1{fill:url(#linear-gradient);}.cls-2{fill:url(#linear-gradient-2);}.cls-3{fill:url(#linear-gradient-3);}.cls-4{fill:url(#linear-gradient-4);}.cls-5{fill:url(#linear-gradient-5);}.cls-6{fill:url(#linear-gradient-6);}.cls-7{fill:url(#linear-gradient-7);}.cls-8{fill:url(#linear-gradient-8);}.cls-9{fill:url(#linear-gradient-9);}.cls-10{fill:url(#linear-gradient-10);}.cls-11{fill:url(#linear-gradient-11);}.cls-12{fill:url(#linear-gradient-12);}.cls-13{fill:url(#linear-gradient-13);}.cls-14{fill:url(#linear-gradient-14);}.cls-15{fill:url(#linear-gradient-15);}.cls-16{fill:url(#linear-gradient-16);}.cls-17{fill:url(#linear-gradient-17);}.cls-18{fill:url(#linear-gradient-18);}.cls-19{fill:url(#linear-gradient-19);}.cls-20{fill:url(#linear-gradient-20);}.cls-21{fill:url(#linear-gradient-21);}.cls-22{fill:url(#linear-gradient-22);}.cls-23{fill:url(#linear-gradient-23);}.cls-24{fill:url(#linear-gradient-24);}.cls-25{fill:url(#linear-gradient-25);}.cls-26{fill:url(#linear-gradient-26);}.cls-27{fill:url(#linear-gradient-27);}.cls-28{fill:url(#linear-gradient-28);}.cls-29{fill:url(#linear-gradient-29);}.cls-30{fill:url(#linear-gradient-30);}.cls-31{fill:url(#linear-gradient-31);}.cls-32{fill:url(#linear-gradient-32);}.cls-33{fill:url(#linear-gradient-33);}.cls-34{fill:url(#linear-gradient-34);}.cls-35{fill:url(#linear-gradient-35);}.cls-36{fill:url(#linear-gradient-36);}.cls-37{fill:url(#linear-gradient-37);}.cls-38{fill:url(#linear-gradient-38);}.cls-39{fill:url(#linear-gradient-39);}.cls-40{fill:url(#linear-gradient-40);}.cls-41{fill:url(#linear-gradient-41);}.cls-42{fill:url(#linear-gradient-42);}.cls-43{fill:url(#linear-gradient-43);}.cls-44{fill:url(#linear-gradient-44);}.cls-45{fill:url(#linear-gradient-45);}.cls-46{fill:url(#linear-gradient-46);}.cls-47{fill:url(#linear-gradient-47);}.cls-48{fill:url(#linear-gradient-48);}.cls-49{fill:url(#linear-gradient-49);}</style><linearGradient id="linear-gradient" x1="129.22" y1="33.1" x2="285.11" y2="33.1" gradientUnits="userSpaceOnUse"><stop offset="0" stop-color="#b5e2f8"/><stop offset="0.2" stop-color="#b0e0f7"/><stop offset="0.42" stop-color="#a2daf3"/><stop offset="0.66" stop-color="#8bd0ec"/><stop offset="0.85" stop-color="#73c5e5"/></linearGradient><linearGradient id="linear-gradient-2" x1="201.24" y1="4.48" x2="201.07" y2="49.44" xlink:href="#linear-gradient"/><linearGradient id="linear-gradient-3" x1="199.61" y1="-2.58" x2="200.32" y2="55.52" gradientUnits="userSpaceOnUse"><stop offset="0" stop-color="#dbf1fc"/><stop offset="0.66" stop-color="#ccecfb"/></linearGradient><linearGradient id="linear-gradient-4" x1="200.73" y1="15.77" x2="200.65" y2="39.11" gradientUnits="userSpaceOnUse"><stop offset="0" stop-color="#f5fbfe"/><stop offset="0.15" stop-color="#ecf8fd"/><stop offset="0.58" stop-color="#d4effc"/><stop offset="0.85" stop-color="#ccecfb"/></linearGradient><linearGradient id="linear-gradient-5" x1="185.35" y1="32.73" x2="185.34" y2="35.88" xlink:href="#linear-gradient-4"/><linearGradient id="linear-gradient-6" x1="197.84" y1="40.61" x2="197.83" y2="42.01" xlink:href="#linear-gradient-4"/><linearGradient id="linear-gradient-7" x1="199.14" y1="12.06" x2="199.13" y2="13.46" xlink:href="#linear-gradient-4"/><linearGradient id="linear-gradient-8" x1="129.73" y1="125.54" x2="129.65" y2="146.8" gradientTransform="matrix(1.05, 0.19, -0.18, 0.98, 55.41, -121.2)" xlink:href="#linear-gradient-3"/><linearGradient id="linear-gradient-9" x1="225.01" y1="42.63" x2="254.01" y2="42.63" gradientTransform="translate(2.62 -12.72) rotate(3.06)" xlink:href="#linear-gradient-3"/><linearGradient id="linear-gradient-10" x1="135.79" y1="49.92" x2="161.21" y2="49.92" xlink:href="#linear-gradient-3"/><linearGradient id="linear-gradient-11" x1="255.1" y1="54.35" x2="280.52" y2="54.35" xlink:href="#linear-gradient"/><linearGradient id="linear-gradient-12" x1="224.49" y1="33.42" x2="380.38" y2="33.42" xlink:href="#linear-gradient"/><linearGradient id="linear-gradient-13" x1="296.51" y1="4.79" x2="296.34" y2="49.75" xlink:href="#linear-gradient"/><linearGradient id="linear-gradient-14" x1="294.88" y1="-2.26" x2="295.59" y2="55.83" xlink:href="#linear-gradient-3"/><linearGradient id="linear-gradient-15" x1="296.01" y1="16.09" x2="295.92" y2="39.43" xlink:href="#linear-gradient-4"/><linearGradient id="linear-gradient-16" x1="280.62" y1="33.05" x2="280.61" y2="36.2" xlink:href="#linear-gradient-4"/><linearGradient id="linear-gradient-17" x1="293.11" y1="40.93" x2="293.1" y2="42.33" xlink:href="#linear-gradient-4"/><linearGradient id="linear-gradient-18" x1="294.41" y1="12.37" x2="294.4" y2="13.78" xlink:href="#linear-gradient-4"/><linearGradient id="linear-gradient-19" x1="188.39" y1="197.58" x2="188.31" y2="218.84" gradientTransform="matrix(1.05, 0.19, -0.18, 0.98, 102.26, -202.94)" xlink:href="#linear-gradient-3"/><linearGradient id="linear-gradient-20" x1="320.28" y1="42.94" x2="349.28" y2="42.94" gradientTransform="translate(2.77 -17.8) rotate(3.06)" xlink:href="#linear-gradient-3"/><linearGradient id="linear-gradient-21" x1="231.06" y1="50.24" x2="256.48" y2="50.24" xlink:href="#linear-gradient-3"/><linearGradient id="linear-gradient-22" x1="350.37" y1="54.66" x2="375.79" y2="54.66" xlink:href="#linear-gradient"/><linearGradient id="linear-gradient-23" x1="159.52" y1="56.28" x2="335.65" y2="56.28" xlink:href="#linear-gradient"/><linearGradient id="linear-gradient-24" x1="240.89" y1="23.94" x2="240.7" y2="74.73" xlink:href="#linear-gradient"/><linearGradient id="linear-gradient-25" x1="239.05" y1="15.96" x2="239.85" y2="81.6" xlink:href="#linear-gradient-3"/><linearGradient id="linear-gradient-26" x1="240.32" y1="36.69" x2="240.23" y2="63.06" xlink:href="#linear-gradient-4"/><linearGradient id="linear-gradient-27" x1="222.95" y1="55.85" x2="222.93" y2="59.42" xlink:href="#linear-gradient-4"/><linearGradient id="linear-gradient-28" x1="237.05" y1="64.76" x2="237.04" y2="66.34" xlink:href="#linear-gradient-4"/><linearGradient id="linear-gradient-29" x1="238.52" y1="32.5" x2="238.51" y2="34.08" xlink:href="#linear-gradient-4"/><linearGradient id="linear-gradient-30" x1="134.62" y1="166.26" x2="134.53" y2="190.28" gradientTransform="matrix(1.05, 0.19, -0.18, 0.98, 93, -139.81)" xlink:href="#linear-gradient-3"/><linearGradient id="linear-gradient-31" x1="267.75" y1="67.04" x2="300.52" y2="67.04" gradientTransform="translate(3.98 -15.07) rotate(3.06)" xlink:href="#linear-gradient-3"/><linearGradient id="linear-gradient-32" x1="166.95" y1="75.28" x2="195.67" y2="75.28" xlink:href="#linear-gradient-3"/><linearGradient id="linear-gradient-33" x1="301.75" y1="80.28" x2="330.47" y2="80.28" xlink:href="#linear-gradient"/><linearGradient id="linear-gradient-34" x1="302.65" y1="54.06" x2="432.29" y2="54.06" xlink:href="#linear-gradient"/><linearGradient id="linear-gradient-35" x1="7.71" y1="52.63" x2="239.71" y2="52.63" xlink:href="#linear-gradient"/><linearGradient id="linear-gradient-36" x1="114.88" y1="10.03" x2="114.64" y2="76.93" xlink:href="#linear-gradient"/><linearGradient id="linear-gradient-37" x1="112.46" y1="-0.48" x2="113.52" y2="85.98" xlink:href="#linear-gradient-3"/><linearGradient id="linear-gradient-38" x1="358.04" y1="20.78" x2="358.75" y2="79.16" xlink:href="#linear-gradient-3"/><linearGradient id="linear-gradient-39" x1="520.04" y1="-39.12" x2="520.76" y2="20.41" gradientTransform="matrix(0.88, -0.48, 0.41, 0.75, -69.8, 308.46)" xlink:href="#linear-gradient-3"/><linearGradient id="linear-gradient-40" x1="114.14" y1="26.83" x2="114.01" y2="61.56" xlink:href="#linear-gradient-4"/><linearGradient id="linear-gradient-41" x1="91.25" y1="52.07" x2="91.23" y2="56.76" xlink:href="#linear-gradient-4"/><linearGradient id="linear-gradient-42" x1="109.83" y1="63.8" x2="109.82" y2="65.89" xlink:href="#linear-gradient-4"/><linearGradient id="linear-gradient-43" x1="111.76" y1="21.31" x2="111.75" y2="23.39" xlink:href="#linear-gradient-4"/><linearGradient id="linear-gradient-44" x1="50.57" y1="56.7" x2="50.45" y2="88.34" gradientTransform="matrix(1.05, 0.19, -0.18, 0.98, 23.52, -21.85)" xlink:href="#linear-gradient-3"/><linearGradient id="linear-gradient-45" x1="150.26" y1="66.8" x2="193.43" y2="66.8" gradientTransform="translate(3.81 -9.07) rotate(3.06)" xlink:href="#linear-gradient-3"/><linearGradient id="linear-gradient-46" x1="17.48" y1="77.66" x2="55.31" y2="77.66" xlink:href="#linear-gradient-3"/><linearGradient id="linear-gradient-47" x1="306.81" y1="64.36" x2="335.59" y2="64.36" xlink:href="#linear-gradient-3"/><linearGradient id="linear-gradient-48" x1="195.05" y1="84.24" x2="232.88" y2="84.24" xlink:href="#linear-gradient"/><linearGradient id="linear-gradient-49" x1="336.64" y1="64.47" x2="374.46" y2="64.47" gradientTransform="matrix(0, 0.68, -1, 0, 481.65, -179.48)" xlink:href="#linear-gradient"/></defs><path class="cls-1" d="M129.85,53.89s32.83,7.13,37.79.89c0,0,41.34,4.46,54.56-.22,0,0,6.73,11.65,25,4.68,8.16-3.1,21.76,7.93,34.65.42a6.13,6.13,0,0,0,1.77-9.34c-3.48-4.19-10.65-8.61-24.85-4.9,0,0,2.13-19.38-27.16-16.26,0,0-.23-29.64-38.26-24.74,0,0-23.62,5.8-21.49,22.73,0,0-18.43-7.13-20.79,12.93,0,0-10.15-3.57-16.53,7.13C134.58,47.21,127,49.44,129.85,53.89Z"/><path class="cls-2" d="M177.09,29.8s-2.78-8.59,2.69-13.58c0,0,6.83-4,10.31-8.76a13.34,13.34,0,0,1,9.7-2.89s6.14,0,20.63,8.67c0,0,11,10.1,2,25.52,0,0-4.74,3.74-10,8.64,0,0-12.72,5.21-23.68-1C188.74,46.35,175.75,41.8,177.09,29.8Z"/><path class="cls-3" d="M195.27,8.68s-3.88,2.34-1.91,2.53a2.72,2.72,0,0,1,3.25,2.1,53.6,53.6,0,0,0,12.19.92,8.62,8.62,0,0,1,6.72,5.17s7.37,6.5,1.86,18.65c0,0-7.92,4.61-4.27,5.2,0,0,2,1-3.31.91,0,0-.84.68,2.62.92a27.93,27.93,0,0,1-17.1.88s4.54-.83,1-1.41c0,0-10.17-1.61-4.8-3,0,0,1.24-1.12-4.86-.82,0,0-10.78-11.73-3.82-23C182.87,17.71,193.06,8.77,195.27,8.68Z"/><path class="cls-4" d="M192.4,15.82s1.58-.65.33,1.76c0,0,6.4-1.76,9.33,1.09,0,0,7,2.12,8.94,1.65,0,0,9.22,8.29,1,16.35a18.35,18.35,0,0,1-7.43,2.45s4.21-1.11-7.11-.58c0,0-14.73,1-6.75-1.58C190.7,37,179,24.18,192.4,15.82Z"/><ellipse class="cls-5" cx="185.35" cy="34.31" rx="0.84" ry="1.58"/><ellipse class="cls-6" cx="197.83" cy="41.31" rx="1.72" ry="0.7"/><ellipse class="cls-7" cx="199.13" cy="12.76" rx="1.72" ry="0.7"/><ellipse class="cls-8" cx="166.6" cy="37.47" rx="9.06" ry="10.68" transform="translate(49.26 161.52) rotate(-59.27)"/><ellipse class="cls-9" cx="239.51" cy="42.63" rx="14.51" ry="11.83" transform="translate(-1.93 12.84) rotate(-3.06)"/><ellipse class="cls-10" cx="148.5" cy="49.92" rx="12.71" ry="3.38"/><ellipse class="cls-11" cx="267.81" cy="54.35" rx="12.71" ry="3.38"/><path class="cls-12" d="M225.12,54.21s32.84,7.13,37.79.89c0,0,41.34,4.46,54.56-.22,0,0,6.73,11.64,25,4.68,8.16-3.11,21.76,7.93,34.65.41a6.13,6.13,0,0,0,1.77-9.34c-3.48-4.19-10.65-8.6-24.85-4.89,0,0,2.13-19.39-27.16-16.27,0,0-.23-29.64-38.26-24.73,0,0-23.62,5.79-21.49,22.73,0,0-18.43-7.13-20.79,12.92,0,0-10.15-3.56-16.53,7.13C229.85,47.52,222.29,49.75,225.12,54.21Z"/><path class="cls-13" d="M272.36,30.11s-2.78-8.58,2.69-13.58c0,0,6.83-4,10.31-8.75a13.37,13.37,0,0,1,9.7-2.9s6.14,0,20.63,8.68c0,0,10.95,10.1,2,25.51,0,0-4.74,3.74-10,8.65,0,0-12.72,5.21-23.68-1C284,46.67,271,42.11,272.36,30.11Z"/><path class="cls-14" d="M290.54,9s-3.88,2.34-1.91,2.54a2.71,2.71,0,0,1,3.25,2.09,53.36,53.36,0,0,0,12.19.93,8.6,8.6,0,0,1,6.72,5.16s7.37,6.5,1.86,18.65c0,0-7.92,4.62-4.27,5.2,0,0,2,1-3.31.91,0,0-.84.68,2.62.93a28,28,0,0,1-17.1.88s4.55-.83,1-1.42c0,0-10.17-1.61-4.8-3,0,0,1.24-1.12-4.86-.83,0,0-10.78-11.73-3.82-23C278.14,18,288.33,9.09,290.54,9Z"/><path class="cls-15" d="M287.67,16.14s1.58-.66.33,1.75c0,0,6.4-1.75,9.33,1.1,0,0,7,2.11,8.94,1.65,0,0,9.22,8.29,1,16.35a18.52,18.52,0,0,1-7.42,2.45s4.2-1.11-7.12-.58c0,0-14.73,1-6.75-1.58C286,37.28,274.27,24.49,287.67,16.14Z"/><ellipse class="cls-16" cx="280.62" cy="34.62" rx="0.84" ry="1.58"/><ellipse class="cls-17" cx="293.1" cy="41.63" rx="1.72" ry="0.7"/><ellipse class="cls-18" cx="294.4" cy="13.07" rx="1.72" ry="0.7"/><ellipse class="cls-19" cx="261.87" cy="37.78" rx="9.06" ry="10.68" transform="translate(95.57 243.57) rotate(-59.27)"/><ellipse class="cls-20" cx="334.78" cy="42.94" rx="14.51" ry="11.83" transform="translate(-1.81 17.93) rotate(-3.06)"/><ellipse class="cls-21" cx="243.77" cy="50.24" rx="12.71" ry="3.38"/><ellipse class="cls-22" cx="363.08" cy="54.66" rx="12.71" ry="3.38"/><path class="cls-23" d="M160.24,79.76s37.09,8.06,42.7,1c0,0,46.7,5,61.64-.25,0,0,7.6,13.16,28.29,5.29,9.22-3.51,24.59,9,39.14.47a6.93,6.93,0,0,0,2-10.56C330.09,71,322,66,305.94,70.2c0,0,2.41-21.91-30.68-18.38,0,0-.27-33.49-43.23-27.95,0,0-26.69,6.55-24.29,25.68,0,0-20.81-8.06-23.48,14.6,0,0-11.48-4-18.68,8.06C165.58,72.21,157,74.73,160.24,79.76Z"/><path class="cls-24" d="M213.61,52.54s-3.14-9.7,3-15.34c0,0,7.71-4.5,11.65-9.9a15.11,15.11,0,0,1,11-3.26s6.94,0,23.3,9.79c0,0,12.38,11.42,2.24,28.84,0,0-5.35,4.22-11.28,9.76,0,0-14.37,5.89-26.74-1.19C226.78,71.24,212.09,66.1,213.61,52.54Z"/><path class="cls-25" d="M234.15,28.68s-4.38,2.64-2.16,2.86a3.07,3.07,0,0,1,3.68,2.37A60.45,60.45,0,0,0,249.44,35,9.71,9.71,0,0,1,257,40.79s8.32,7.34,2.1,21.07c0,0-8.95,5.22-4.83,5.88,0,0,2.26,1.17-3.73,1,0,0-1,.77,3,1a31.58,31.58,0,0,1-19.31,1s5.13-.93,1.16-1.59c0,0-11.49-1.82-5.42-3.36,0,0,1.4-1.27-5.49-.94,0,0-12.18-13.25-4.32-26C220.14,38.88,231.66,28.79,234.15,28.68Z"/><path class="cls-26" d="M230.91,36.75s1.78-.74.37,2c0,0,7.24-2,10.54,1.24,0,0,7.94,2.39,10.1,1.86,0,0,10.42,9.37,1.12,18.48a20.87,20.87,0,0,1-8.39,2.77s4.76-1.25-8-.66c0,0-16.64,1.12-7.62-1.78C229,60.64,215.77,46.19,230.91,36.75Z"/><ellipse class="cls-27" cx="222.94" cy="57.64" rx="0.94" ry="1.78"/><ellipse class="cls-28" cx="237.05" cy="65.55" rx="1.94" ry="0.79"/><ellipse class="cls-29" cx="238.52" cy="33.29" rx="1.94" ry="0.79"/><ellipse class="cls-30" cx="201.76" cy="61.2" rx="10.24" ry="12.07" transform="matrix(0.51, -0.86, 0.86, 0.51, 46.05, 203.35)"/><ellipse class="cls-31" cx="284.13" cy="67.04" rx="16.39" ry="13.37" transform="translate(-3.17 15.26) rotate(-3.06)"/><ellipse class="cls-32" cx="181.31" cy="75.28" rx="14.36" ry="3.82"/><ellipse class="cls-33" cx="316.11" cy="80.28" rx="14.36" ry="3.82"/><path class="cls-34" d="M308.33,55.45c5.57-2.61,13.11-3.91,22.93-1.29,0,0,3.91-40.65,49.24-16.37,0,0,22.38-13.72,36.37,13.2,0,0,21.64,3.86,13.65,15.18-3.58,5.07-10,7.53-16.48,7-5-.42-10.63-2.15-13.4-7.37,0,0-24.06,23.23-66,5.8A107.68,107.68,0,0,1,313,74C302.14,73.89,298.63,60,308.33,55.45Z"/><path class="cls-35" d="M8.65,83.56s48.86,10.62,56.24,1.33c0,0,61.52,6.63,81.2-.33,0,0,10,17.33,37.26,7,12.14-4.62,32.39,11.81,51.56.63a9.13,9.13,0,0,0,2.64-13.91c-5.17-6.23-15.84-12.81-37-7.28,0,0,3.17-28.85-40.42-24.21,0,0-.35-44.11-56.94-36.81,0,0-35.15,8.62-32,33.83,0,0-27.42-10.61-30.93,19.23,0,0-15.12-5.3-24.61,10.61C15.68,73.61,4.43,76.93,8.65,83.56Z"/><path class="cls-36" d="M79,47.7s-4.14-12.77,4-20.2c0,0,10.16-5.93,15.34-13,0,0,6.21-5.41,14.43-4.3,0,0,9.15,0,30.7,12.91,0,0,16.3,15,2.95,38,0,0-7,5.56-14.85,12.86,0,0-18.93,7.76-35.24-1.56C96.29,72.34,77,65.56,79,47.7Z"/><path class="cls-37" d="M106,16.27s-5.76,3.48-2.84,3.77A4,4,0,0,1,108,23.16a79.24,79.24,0,0,0,18.14,1.38,12.8,12.8,0,0,1,10,7.69s11,9.67,2.77,27.76c0,0-11.79,6.86-6.36,7.73,0,0,3,1.55-4.92,1.36,0,0-1.25,1,3.9,1.37a41.63,41.63,0,0,1-25.45,1.31s6.76-1.23,1.54-2.1c0,0-15.15-2.4-7.15-4.43,0,0,1.84-1.67-7.23-1.23,0,0-16-17.46-5.69-34.28C87.55,29.72,102.72,16.42,106,16.27Z"/><path class="cls-38" d="M353.68,32.09s-3.89,2.35-1.92,2.55A2.73,2.73,0,0,1,355,36.75a53.8,53.8,0,0,0,12.25.93A8.63,8.63,0,0,1,374,42.87s7.4,6.53,1.87,18.74c0,0-8,4.63-4.29,5.22,0,0,2,1-3.33.92,0,0-.84.68,2.63.93a28.09,28.09,0,0,1-17.18.88s4.57-.83,1-1.42c0,0-10.23-1.62-4.83-3,0,0,1.25-1.13-4.88-.83,0,0-10.83-11.79-3.84-23.15C341.22,41.17,351.46,32.19,353.68,32.09Z"/><path class="cls-39" d="M371.09,40.63s-2.38,3.53-.57,2.79a2.9,2.9,0,0,1,3.79.11,60.72,60.72,0,0,0,11.16-4.84,9.13,9.13,0,0,1,8.19.87s9.35,1.58,9.83,13.3c0,0-5,7.1-1.48,5.88,0,0,2.21-.12-2.52,2.19,0,0-.44.9,2.72-.48a30.85,30.85,0,0,1-14.7,8.43s3.65-2.69.29-1.54c0,0-9.68,3.4-5.54-.07,0,0,.6-1.42-4.65,1.58,0,0-14.65-4-13.48-15.74C364.13,53.11,369.19,41.7,371.09,40.63Z"/><path class="cls-40" d="M101.74,26.91s2.35-1,.48,2.61c0,0,9.54-2.61,13.89,1.63,0,0,10.45,3.15,13.31,2.45,0,0,13.72,12.34,1.47,24.34a27.55,27.55,0,0,1-11,3.65s6.26-1.66-10.59-.87c0,0-21.93,1.47-10-2.35C99.21,58.37,81.8,39.34,101.74,26.91Z"/><ellipse class="cls-41" cx="91.24" cy="54.42" rx="1.24" ry="2.35"/><ellipse class="cls-42" cx="109.82" cy="64.84" rx="2.56" ry="1.04"/><ellipse class="cls-43" cx="111.76" cy="22.35" rx="2.56" ry="1.04"/><ellipse class="cls-44" cx="63.34" cy="59.12" rx="13.48" ry="15.89" transform="translate(-19.84 83.35) rotate(-59.27)"/><ellipse class="cls-45" cx="171.84" cy="66.8" rx="21.59" ry="17.61" transform="translate(-3.32 9.27) rotate(-3.06)"/><ellipse class="cls-46" cx="36.4" cy="77.66" rx="18.92" ry="5.04"/><ellipse class="cls-47" cx="321.2" cy="64.36" rx="14.39" ry="5.12"/><ellipse class="cls-48" cx="213.97" cy="84.24" rx="18.92" ry="5.04"/><ellipse class="cls-49" cx="416.71" cy="62.64" rx="5.04" ry="12.89" transform="translate(344.32 477.76) rotate(-88.66)"/></svg>