<svg xmlns="http://www.w3.org/2000/svg" xmlns:xlink="http://www.w3.org/1999/xlink" viewBox="0 0 305 285"><defs><style>.cls-1{isolation:isolate;}.cls-16,.cls-17,.cls-2{stroke:#08b7fc;stroke-miterlimit:10;}.cls-2{fill:url(#linear-gradient);}.cls-3{fill:url(#linear-gradient-2);}.cls-4{fill:url(#linear-gradient-3);}.cls-5{fill:url(#linear-gradient-4);}.cls-6{fill:url(#linear-gradient-5);}.cls-7{fill:url(#linear-gradient-6);}.cls-8{fill:#5b889f;}.cls-9{mix-blend-mode:color-dodge;}.cls-10{fill:url(#linear-gradient-7);}.cls-11{fill:url(#linear-gradient-8);}.cls-12{fill:url(#linear-gradient-9);}.cls-13{fill:url(#linear-gradient-10);}.cls-14{fill:url(#linear-gradient-11);}.cls-15{fill:url(#linear-gradient-12);}.cls-16{fill:url(#linear-gradient-13);}.cls-17{fill:url(#linear-gradient-14);}.cls-18{fill:url(#linear-gradient-15);}.cls-19{fill:url(#linear-gradient-16);}.cls-20{fill:url(#linear-gradient-17);}.cls-21{fill:url(#linear-gradient-18);}.cls-22{fill:url(#linear-gradient-19);}.cls-23{fill:url(#linear-gradient-20);}.cls-24{fill:url(#linear-gradient-21);}.cls-25{fill:url(#linear-gradient-22);}.cls-26{fill:url(#linear-gradient-23);}.cls-27{fill:url(#linear-gradient-24);}.cls-28{fill:url(#linear-gradient-25);}.cls-29{fill:url(#linear-gradient-26);}.cls-30{fill:url(#linear-gradient-27);}.cls-31{fill:url(#linear-gradient-28);}</style><linearGradient id="linear-gradient" x1="184.98" y1="-66.85" x2="183.98" y2="203.49" gradientTransform="translate(-23.24 82.15) rotate(-3.65)" gradientUnits="userSpaceOnUse"><stop offset="0" stop-color="#b5e2f8"/><stop offset="0.2" stop-color="#b0e0f7"/><stop offset="0.42" stop-color="#a2daf3"/><stop offset="0.66" stop-color="#8bd0ec"/><stop offset="0.85" stop-color="#73c5e5"/></linearGradient><linearGradient id="linear-gradient-2" x1="177.09" y1="-108.6" x2="181.3" y2="236.11" gradientTransform="translate(-23.24 82.15) rotate(-3.65)" gradientUnits="userSpaceOnUse"><stop offset="0" stop-color="#dbf1fc"/><stop offset="0.66" stop-color="#ccecfb"/></linearGradient><linearGradient id="linear-gradient-3" x1="183.54" y1="0.26" x2="183.03" y2="138.77" gradientTransform="translate(-23.24 82.15) rotate(-3.65)" gradientUnits="userSpaceOnUse"><stop offset="0" stop-color="#f5fbfe"/><stop offset="0.15" stop-color="#ecf8fd"/><stop offset="0.58" stop-color="#d4effc"/><stop offset="0.85" stop-color="#ccecfb"/></linearGradient><linearGradient id="linear-gradient-4" x1="97.4" y1="100.91" x2="97.33" y2="119.62" gradientTransform="translate(-16.42 75.73)" xlink:href="#linear-gradient-3"/><linearGradient id="linear-gradient-5" x1="167.3" y1="147.69" x2="167.27" y2="156.01" gradientTransform="translate(-13.92 71.2)" xlink:href="#linear-gradient-3"/><linearGradient id="linear-gradient-6" x1="174.58" y1="-21.77" x2="174.54" y2="-13.45" gradientTransform="translate(-24.71 71.08)" xlink:href="#linear-gradient-3"/><linearGradient id="linear-gradient-7" x1="137.81" y1="200.27" x2="138.33" y2="200.27" gradientUnits="userSpaceOnUse"><stop offset="0" stop-color="#486670"/><stop offset="1" stop-color="#2e3955"/></linearGradient><linearGradient id="linear-gradient-8" x1="95.74" y1="199.46" x2="129.47" y2="199.46" xlink:href="#linear-gradient-7"/><linearGradient id="linear-gradient-9" x1="198.28" y1="83.09" x2="210.61" y2="83.09" gradientTransform="matrix(1, 0, 0, 1, 0, 0)" xlink:href="#linear-gradient-3"/><linearGradient id="linear-gradient-10" x1="2279.06" y1="2943.16" x2="2291.39" y2="2943.16" gradientTransform="translate(1741.27 -3255.14) rotate(63.68)" xlink:href="#linear-gradient-3"/><linearGradient id="linear-gradient-11" x1="2364.47" y1="2968.62" x2="2370.78" y2="2968.62" gradientTransform="translate(1741.27 -3255.14) rotate(63.68)" xlink:href="#linear-gradient-3"/><linearGradient id="linear-gradient-12" x1="2414.32" y1="2886.99" x2="2420.63" y2="2886.99" gradientTransform="translate(1741.27 -3255.14) rotate(63.68)" xlink:href="#linear-gradient-3"/><linearGradient id="linear-gradient-13" x1="196.45" y1="262.39" x2="285.64" y2="262.39" gradientTransform="matrix(1, 0.01, -0.01, 1, 10.18, -9.63)" xlink:href="#linear-gradient"/><linearGradient id="linear-gradient-14" x1="-6.48" y1="261.4" x2="153.14" y2="261.4" gradientTransform="matrix(1, 0.01, -0.01, 1, 10.18, -9.63)" xlink:href="#linear-gradient"/><linearGradient id="linear-gradient-15" x1="67.26" y1="232.09" x2="67.09" y2="278.12" gradientTransform="matrix(1, 0.01, -0.01, 1, 10.18, -9.63)" xlink:href="#linear-gradient"/><linearGradient id="linear-gradient-16" x1="65.6" y1="224.86" x2="66.32" y2="284.35" gradientTransform="matrix(1, 0.01, -0.01, 1, 10.18, -9.63)" xlink:href="#linear-gradient-2"/><linearGradient id="linear-gradient-17" x1="234.55" y1="239.49" x2="235.04" y2="279.66" gradientTransform="matrix(1, 0.01, -0.01, 1, 10.18, -9.63)" xlink:href="#linear-gradient-2"/><linearGradient id="linear-gradient-18" x1="622.31" y1="-1336.09" x2="622.81" y2="-1295.13" gradientTransform="matrix(0.88, -0.47, 0.41, 0.76, 246.8, 1544.47)" xlink:href="#linear-gradient-2"/><linearGradient id="linear-gradient-19" x1="66.75" y1="243.65" x2="66.66" y2="267.55" gradientTransform="matrix(1, 0.01, -0.01, 1, 10.18, -9.63)" xlink:href="#linear-gradient-3"/><linearGradient id="linear-gradient-20" x1="51" y1="261.02" x2="50.99" y2="264.25" gradientTransform="translate(321.93 202.37) rotate(90)" xlink:href="#linear-gradient-3"/><linearGradient id="linear-gradient-21" x1="63.78" y1="269.09" x2="63.78" y2="270.52" gradientTransform="translate(341.83 196.85) rotate(90)" xlink:href="#linear-gradient-3"/><linearGradient id="linear-gradient-22" x1="65.11" y1="239.85" x2="65.11" y2="241.29" gradientTransform="translate(314.14 166.29) rotate(90)" xlink:href="#linear-gradient-3"/><linearGradient id="linear-gradient-23" x1="875.6" y1="-1783.11" x2="875.52" y2="-1761.34" gradientTransform="matrix(1.05, 0.19, -0.18, 0.98, -1193.04, 1833.19)" xlink:href="#linear-gradient-2"/><linearGradient id="linear-gradient-24" x1="91.6" y1="271.15" x2="121.3" y2="271.15" gradientTransform="translate(22.86 -14.16) rotate(3.06)" xlink:href="#linear-gradient-2"/><linearGradient id="linear-gradient-25" x1="0.25" y1="278.62" x2="26.28" y2="278.62" gradientTransform="translate(300.07 255.82) rotate(90)" xlink:href="#linear-gradient-2"/><linearGradient id="linear-gradient-26" x1="199.31" y1="269.47" x2="219.11" y2="269.47" gradientTransform="translate(486.93 52.13) rotate(90)" xlink:href="#linear-gradient-2"/><linearGradient id="linear-gradient-27" x1="122.42" y1="283.15" x2="148.44" y2="283.15" gradientTransform="translate(426.73 139.06) rotate(90)" xlink:href="#linear-gradient"/><linearGradient id="linear-gradient-28" x1="-1070.38" y1="339.61" x2="-1044.35" y2="339.61" gradientTransform="matrix(0, 0.68, -1, 0, 621.36, 981.7)" xlink:href="#linear-gradient"/></defs><g class="cls-1"><g id="Layer_1" data-name="Layer 1"><path class="cls-2" d="M33.11,162.22C29.86,142,11.11,109.13,43,80.85,57.57,68,76.48,52.67,97.31,25.31,105.94,14,119.19,4.58,150.43,4.73,182,4.88,195.7-13.51,269,48.74c27,22.94,50,46.13,20.7,150.43-5.12,18.26-19.81,29.42-52.5,54.74-26.23,20.31-66.25,29.24-132.68,2.21C77.16,245,44.48,232.92,33.11,162.22Z"/><path class="cls-3" d="M126.7,30.67S105.94,45.9,117,46.36c0,0,12.06-4.06,19,11.25,0,0,34.25,5.36,68.47,1.15,0,0,24.93.15,39.47,28.2,0,0,43.63,35.86,17.43,109.79,0,0-42.52,30.15-21.9,32.31,0,0,11.55,5.45-18.13,6.57,0,0-4.46,4.34,15,4.55,0,0-40.58,22.58-95.21,11.28,0,0,25.09-6.52,5.24-8.73,0,0-57.47-5.91-28-15.9,0,0,6.5-7.08-27.45-3.18,0,0-64.66-65.63-30-135.07C60.84,88.58,114.42,32,126.7,30.67Z"/><path class="cls-4" d="M113.39,74s8.57-4.45,2.48,10.26c0,0,35.13-12.65,52.55,3.17,0,0,40.05,10,50.6,6.58,0,0,54.66,45.83,11.7,96.48,0,0-15.53,12.45-40.57,17.17,0,0,23.09-8.07-40-.92,0,0-81.93,11.13-38.29-6.93C111.86,199.83,41.67,128.25,113.39,74Z"/><ellipse class="cls-5" cx="80.94" cy="186" rx="4.68" ry="9.36" transform="translate(-11.67 5.52) rotate(-3.65)"/><ellipse class="cls-6" cx="153.36" cy="223.05" rx="9.62" ry="4.16" transform="translate(-13.88 10.21) rotate(-3.65)"/><ellipse class="cls-7" cx="149.85" cy="53.47" rx="9.62" ry="4.16" transform="matrix(1, -0.06, 0.06, 1, -3.1, 9.64)"/><path class="cls-8" d="M243.13,107.22l20.7-3.12s-18.41,1.68-19.26,7.82Z"/><path class="cls-8" d="M243.07,147.66l20.92-.53s-18.47-.62-20.07,5.36Z"/><g class="cls-9"><path class="cls-10" d="M138.28,200.35a1.34,1.34,0,0,1-.23.48l-.14.16a13.87,13.87,0,0,1,.33-1.47A1.44,1.44,0,0,1,138.28,200.35Z"/><path class="cls-11" d="M138.26,199.45v0h0Z"/></g><path class="cls-8" d="M165.34,57.43l.84-1.22,1.11.67L179.12,64c-.09-1.74.44-1.93,1-2.06a4.63,4.63,0,0,1,1.81,0,4.61,4.61,0,0,0,1.81,0c.54-.16,1-.41,1.56-.61,2.07-.84,4.12-1.7,6.16-2.62a119.38,119.38,0,0,0,12-6.1l.67-.4.48.39a35.19,35.19,0,0,0,8.17,4.81,28.52,28.52,0,0,0,4.39,1.62,13.69,13.69,0,0,0,4.87.37l1.09-.14L223,60.94l-1.58,29.88,23.08,17.23,1,.73-.52,1.08-10.53,21.56,10.47,17.24.41.68-.3.48a50.42,50.42,0,0,0-5.33,12.34,51.19,51.19,0,0,0-2.32,13.24v.83l-1.07.23-25.07,5.48-3.11,27.48L208,210l-.32.18a34.52,34.52,0,0,0-6.58,5.08c-2,1.89-3.75,4-5.56,6a110.36,110.36,0,0,0-9.92,13.12l-1.28,2-1.14-2.14a147.79,147.79,0,0,0-12.09-18.5,124.51,124.51,0,0,0-14.58-16.61l1,.59a45.49,45.49,0,0,0-5-1.9c-1.68-.54-3.38-1-5.09-1.45s-3.43-.79-5.15-1.15a7.89,7.89,0,0,0-5.48.54l1-.15L122,204.17l-1.56.84-.62-1.59-5.72-14.74c-.06-.18-2.7-18.11-2.7-18.11l-24.24-6.9-.25-.08-.11-.11a102.32,102.32,0,0,0-13.15-10.91c-2.3-1.65-4.65-3.24-7.11-4.67a47.87,47.87,0,0,0-7.77-3.71l-5.2-1.8,5.81-1L92,135.47l-1,.62,8.07-8.38.55-27.82,1,1.59L73.6,89.8,91.62,79l.3-.18.4,0L121.76,80l-.39.26.91-1.09c-.09-.45.18-.76.25-1.14l.35-1.1.71-2.19,1.4-4.39,2.82-8.77.42-1.32,1,.35a27.09,27.09,0,0,0,8.32,1.3,20.54,20.54,0,0,0,4.14-.22,11.51,11.51,0,0,0,4.1-1.51l.5-.32.51.65A46.2,46.2,0,0,0,152,66.19c.91.89,1.89,1.69,2.84,2.54l1.47,1.2.74.6.37.3m0,0-.77-.57-1.52-1.13c-1.06-.71-2.07-1.47-3.16-2.13a47.31,47.31,0,0,0-6.76-3.7l1,.33a11.69,11.69,0,0,0-4.18-1.3,21.21,21.21,0,0,0-4.14,0,27.12,27.12,0,0,0-8.24,1.74l1.41-1-4.17,8.22-2.08,4.1-1,2.06-.52,1c-.22.33-.25.73-.62,1l-.13,1.41,0,.25h-.37L92.71,82.3l.7-.17L74,90.07l28.18,8.73,1.19.37-.16,1.23L99.51,128,94,138.22l-.26.49-.73.13-32.7,5.88.61-2.85a47.17,47.17,0,0,0,6.24,5.94c2.21,1.79,4.54,3.41,6.91,5a103.09,103.09,0,0,0,14.88,8.38l-.37-.19,23.19,9.87L116,188.45l-.05-.18,7.06,14.15-2.18-.75,15.87-8.5.8-.42.24.26a7.87,7.87,0,0,0,4.89,2.53c1.73.3,3.46.62,5.21.83s3.51.41,5.27.52a41.59,41.59,0,0,0,5.36.08l.64,0,.32.63a125.21,125.21,0,0,0,12.09,18.5,147.78,147.78,0,0,0,14.58,16.61l-2.42-.11a109.51,109.51,0,0,0,12.15-11.09c1.87-2,3.77-3.94,5.47-6.09a34.64,34.64,0,0,0,4.45-7l-.39.8,6.21-26.95,24.21-8.51-1.07,1.07a51.6,51.6,0,0,0,5.33-12.34,50.69,50.69,0,0,0,2.31-13.24l.1,1.16-7.66-18.66,7.61-22.75.45,1.8L221.83,91.09l-1.57-29.88,1,1.47a13.44,13.44,0,0,0-3.84-3,27.46,27.46,0,0,0-4.32-1.78,35.12,35.12,0,0,0-9.27-2H205a120.25,120.25,0,0,0-12.91,3.76c-2.11.73-4.2,1.51-6.28,2.32-.52.21-1,.37-1.55.62a4.67,4.67,0,0,0-1.31,1.25,4.7,4.7,0,0,1-1.29,1.27c-.49.29-1,.5-2.13-.82L166.38,60l2-.54"/><path class="cls-8" d="M236.25,173.13,252,186.94s-13.16-13-18.39-9.68Z"/><path class="cls-8" d="M207.7,206.51l15.73,13.8s-13.16-13-18.39-9.67Z"/><path class="cls-8" d="M159.34,200.18l-14.46,15.14s13.54-12.6,10.45-18Z"/><path class="cls-8" d="M123.65,202.77l-14.46,15.14s13.54-12.6,10.45-18Z"/><path class="cls-8" d="M111.67,170.77l-11,17.81s10.61-15.13,6.48-19.74Z"/><path class="cls-8" d="M98.89,128.8,79.3,121.43S96.19,129,99.93,124Z"/><path class="cls-8" d="M122.61,80.46,103,73.08s16.89,7.52,20.62,2.58Z"/><path class="cls-8" d="M219.87,60.57l17.67-11.22s-16.16,9-14.45,14.93Z"/><path class="cls-8" d="M202.22,55.43l-1.79-20.85s.49,18.48,6.56,19.71Z"/><path class="cls-8" d="M165,59.52l-1.78-20.85s.49,18.48,6.56,19.71Z"/><path class="cls-8" d="M145.68,62.33l2-11.53s-2.4,10.06.7,11.61Z"/><path class="cls-8" d="M200,73.56a11.42,11.42,0,0,0-2.27,11.83s1.13-.91,3.87,6.14c0,0,8.41,4.1,9.78-2,0,0,4.21-2.65-2.79-6.23,0,0-4.43.17-3.92-7C204.64,76.26,205.72,70,200,73.56Z"/><path class="cls-12" d="M200.65,75.91a9,9,0,0,0-1.79,9.33s.89-.72,3,4.84c0,0,6.63,3.23,7.71-1.61,0,0,3.32-2.09-2.2-4.91,0,0-3.5.13-3.09-5.52C204.33,78,205.18,73.11,200.65,75.91Z"/><path class="cls-8" d="M122.89,89.83A11.43,11.43,0,0,0,111.27,93s1.32.61-3.79,6.19c0,0,.06,9.36,6.17,7.86,0,0,4.24,2.6,4.35-5.26,0,0-2.12-3.9,4.53-6.62C122.53,95.21,128.62,93.4,122.89,89.83Z"/><path class="cls-13" d="M121.08,91.48A9,9,0,0,0,111.92,94s1,.48-3,4.88c0,0,0,7.38,4.87,6.2,0,0,3.34,2,3.42-4.15,0,0-1.67-3.07,3.58-5.22C120.8,95.72,125.6,94.3,121.08,91.48Z"/><path class="cls-8" d="M133.39,179a5.85,5.85,0,0,0-5.94,1.64s.67.32-1.94,3.17c0,0,0,4.79,3.16,4,0,0,2.16,1.33,2.22-2.69,0,0-1.09-2,2.32-3.39C133.21,181.75,136.32,180.83,133.39,179Z"/><path class="cls-14" d="M132.46,179.84a4.61,4.61,0,0,0-4.68,1.3s.53.25-1.53,2.49c0,0,0,3.78,2.49,3.17,0,0,1.71,1,1.75-2.12,0,0-.85-1.57,1.83-2.67C132.32,182,134.77,181.29,132.46,179.84Z"/><path class="cls-8" d="M228.66,187.49a5.85,5.85,0,0,0-5.94,1.64s.68.32-1.94,3.17c0,0,0,4.79,3.16,4,0,0,2.17,1.33,2.22-2.69,0,0-1.08-2,2.32-3.39C228.48,190.24,231.59,189.32,228.66,187.49Z"/><path class="cls-15" d="M227.74,188.34a4.61,4.61,0,0,0-4.69,1.29s.54.25-1.53,2.5c0,0,0,3.77,2.49,3.17,0,0,1.71,1,1.76-2.12,0,0-.86-1.58,1.82-2.67C227.59,190.51,230.05,189.78,227.74,188.34Z"/><path class="cls-16" d="M208.64,255.15c3.85-1.77,9-2.63,15.78-.78,0,0,2.9-28,34-11,0,0,15.47-9.33,25,9.26,0,0,14.87,2.76,9.32,10.51-2.49,3.48-7,5.13-11.37,4.73-3.44-.32-7.31-1.54-9.19-5.15,0,0-16.66,15.87-45.45,3.67a73.73,73.73,0,0,1-14.91,1.57C204.29,267.8,202,258.23,208.64,255.15Z"/><path class="cls-17" d="M2.33,273S35.9,280.55,41,274.2c0,0,42.29,4.87,55.86.17,0,0,6.8,12,25.6,5,8.38-3.12,22.23,8.28,35.47.68a6.27,6.27,0,0,0,1.89-9.55c-3.53-4.32-10.84-8.89-25.41-5.19,0,0,2.32-19.84-27.69-16.86,0,0,0-30.35-39-25.61,0,0-24.23,5.76-22.17,23.12,0,0-18.82-7.44-21.38,13.08,0,0-10.37-3.73-17,7.18C7.22,266.2-.54,268.43,2.33,273Z"/><path class="cls-18" d="M50.88,248.68s-2.79-8.8,2.85-13.88c0,0,7-4,10.62-8.89a13.68,13.68,0,0,1,10-2.89s6.29,0,21.06,9c0,0,11.14,10.43,1.84,26.14,0,0-4.88,3.8-10.28,8.78,0,0-13.07,5.24-24.24-1.25C62.68,265.72,49.41,261,50.88,248.68Z"/><path class="cls-19" d="M69.64,227.19s-4,2.37-2,2.59A2.78,2.78,0,0,1,71,232a54.54,54.54,0,0,0,12.48,1,8.78,8.78,0,0,1,6.83,5.34s7.5,6.71,1.77,19.11c0,0-8.14,4.67-4.41,5.29,0,0,2,1.08-3.39.91,0,0-.87.69,2.67,1a28.7,28.7,0,0,1-17.51.77s4.66-.82,1.07-1.44c0,0-10.41-1.72-4.9-3.08,0,0,1.28-1.14-5-.88,0,0-11-12.09-3.75-23.62C56.88,236.35,67.38,227.28,69.64,227.19Z"/><path class="cls-20" d="M240,239.3s-2.69,1.6-1.33,1.74a1.87,1.87,0,0,1,2.23,1.47,37.37,37.37,0,0,0,8.43.7,5.93,5.93,0,0,1,4.62,3.6s5.06,4.53,1.19,12.91c0,0-5.5,3.15-3,3.57,0,0,1.38.73-2.29.61,0,0-.59.47,1.81.65a19.38,19.38,0,0,1-11.83.53s3.15-.55.72-1c0,0-7-1.16-3.31-2.08,0,0,.87-.76-3.35-.59,0,0-7.39-8.16-2.53-16C231.34,245.48,238.43,239.36,240,239.3Z"/><path class="cls-21" d="M251.9,245.26s-1.66,2.42-.41,1.91a2,2,0,0,1,2.61.1,41.38,41.38,0,0,0,7.7-3.28,6.31,6.31,0,0,1,5.63.64s6.43,1.13,6.7,9.2c0,0-3.45,4.86-1.05,4,0,0,1.52-.07-1.75,1.5,0,0-.31.61,1.87-.33a21.13,21.13,0,0,1-10.15,5.74s2.52-1.84.21-1.06c0,0-6.68,2.29-3.81-.08,0,0,.42-1-3.21,1.06,0,0-10.06-2.82-9.2-10.89C247,253.81,250.59,246,251.9,245.26Z"/><path class="cls-22" d="M66.65,234.49s1.63-.66.32,1.8c0,0,6.58-1.75,9.55,1.19,0,0,7.18,2.22,9.14,1.75,0,0,9.39,8.56.9,16.75a18.89,18.89,0,0,1-7.62,2.46s4.31-1.11-7.29-.65c0,0-15.09.91-6.89-1.67C64.76,256.12,52.87,242.94,66.65,234.49Z"/><ellipse class="cls-23" cx="59.29" cy="253.36" rx="1.61" ry="0.86" transform="translate(-194.49 310.84) rotate(-89.59)"/><ellipse class="cls-24" cx="72.03" cy="260.63" rx="0.72" ry="1.76" transform="translate(-189.11 330.79) rotate(-89.59)"/><ellipse class="cls-25" cx="73.57" cy="231.4" rx="0.72" ry="1.76" transform="translate(-158.36 303.31) rotate(-89.59)"/><ellipse class="cls-26" cx="40.08" cy="256.46" rx="9.28" ry="10.94" transform="translate(-200.15 158.13) rotate(-58.86)"/><ellipse class="cls-27" cx="114.69" cy="262.28" rx="14.85" ry="12.11" transform="translate(-12 5.58) rotate(-2.65)"/><ellipse class="cls-28" cx="21.45" cy="269.08" rx="3.47" ry="13.01" transform="translate(-247.78 288.61) rotate(-89.59)"/><ellipse class="cls-29" cx="217.46" cy="261.34" rx="3.52" ry="9.9" transform="translate(-45.43 476.92) rotate(-89.59)"/><ellipse class="cls-30" cx="143.58" cy="274.49" rx="3.47" ry="13.01" transform="translate(-131.93 416.1) rotate(-89.59)"/><ellipse class="cls-31" cx="283.17" cy="260.62" rx="3.47" ry="8.87" transform="translate(14 535.68) rotate(-88.25)"/></g></g></svg>