<svg id="Layer_1" data-name="Layer 1" xmlns="http://www.w3.org/2000/svg" viewBox="0 0 200 170"><defs><style>.cls-1{fill:#f7d5c5;stroke:#9e6b57;stroke-miterlimit:10;stroke-width:2px;}.cls-2{opacity:0.26;}.cls-3{fill:#a5685e;}.cls-4{fill:#c98a7d;opacity:0.41;}</style></defs><path class="cls-1" d="M120.5,164.22a79.39,79.39,0,0,1-16,2.22c-49.66,1.8-91.91-42.53-94.38-99C9.08,44.36,14.62,21,25.21,3.51,23.93,14.83,23,38.71,30.74,50.84c.71-.81,1.23-1.17,1.62-1.17,2.91,0,6,6,11.08,12.07L65.2,64.85,76.59,43l18.46,19,5.84-11.77,22.77,9.24L148,25.63l13.22,12.16,12.69,7.79,2.26-34.5a113.57,113.57,0,0,1,13.79,49.85C192.11,111.15,162.09,154.07,120.5,164.22Z"/><g class="cls-2"><path class="cls-3" d="M150.92,131.17a10.1,10.1,0,0,1-10.16,10.28c-6.34,0-7.9-4.48-7.9-9.59s1.56-10.62,7.9-10.62A9.82,9.82,0,0,1,150.92,131.17Z"/><path class="cls-3" d="M171.39,68.89a9.49,9.49,0,0,1-9.54,9.65c-5.95,0-9.54-4.21-9.54-9s3.59-10,9.54-10A9.23,9.23,0,0,1,171.39,68.89Z"/><path class="cls-3" d="M136.09,112.61c0,3.7-2.76,6-7.34,6s-7.34-1.76-7.34-5.45,2.22-5.69,6.8-5.69S136.09,108.92,136.09,112.61Z"/><path class="cls-3" d="M142,80.64c0,3.7-2.76,5.94-7.34,5.94s-7.34-1.75-7.34-5.44,2.22-5.69,6.8-5.69S142,77,142,80.64Z"/><path class="cls-3" d="M108.45,124c0,3.69-2.76,5.94-7.34,5.94s-7.34-1.75-7.34-5.45,2.22-5.69,6.8-5.69S108.45,120.27,108.45,124Z"/><path class="cls-3" d="M158.69,102.32a8.65,8.65,0,0,1-8.7,8.81c-5.44,0-6.78-3.84-6.78-8.22s1.34-9.11,6.78-9.11A8.42,8.42,0,0,1,158.69,102.32Z"/><path class="cls-3" d="M130.2,135.72c0,3.69-2.76,5.94-7.34,5.94s-7.34-1.76-7.34-5.45,2.22-5.69,6.8-5.69S130.2,132,130.2,135.72Z"/><path class="cls-3" d="M91.05,85.62c0,2.39-1.79,3.85-4.76,3.85s-4.75-1.13-4.75-3.53,1.43-3.69,4.4-3.69S91.05,83.23,91.05,85.62Z"/><path class="cls-3" d="M29.74,78.71c0,2.39-1.78,3.85-4.75,3.85S20.23,81.43,20.23,79s1.44-3.69,4.4-3.69S29.74,76.32,29.74,78.71Z"/><path class="cls-3" d="M60.78,122c0,1.84-1.38,3-3.67,3s-3.67-.88-3.67-2.72,1.11-2.85,3.4-2.85S60.78,120.13,60.78,122Z"/><path class="cls-3" d="M89.56,109.24c0,2.39-1.79,3.85-4.76,3.85S80,112,80,109.56s1.44-3.69,4.41-3.69S89.56,106.85,89.56,109.24Z"/></g><path class="cls-4" d="M120.5,164.22C162.42,125.07,163.93,69.15,161,38.83L175,47.89l1.75-33.29c8,14.46,12,29.05,12.8,47.18C191.76,111.59,161.89,154.16,120.5,164.22Z"/></svg>