<svg xmlns="http://www.w3.org/2000/svg" xmlns:xlink="http://www.w3.org/1999/xlink" viewBox="0 0 300 256"><defs><style>.cls-1{isolation:isolate;}.cls-16,.cls-17,.cls-2{stroke:#08b7fc;stroke-miterlimit:10;}.cls-2{fill:url(#linear-gradient);}.cls-3{fill:url(#linear-gradient-2);}.cls-4{fill:url(#linear-gradient-3);}.cls-5{fill:url(#linear-gradient-4);}.cls-6{fill:url(#linear-gradient-5);}.cls-7{fill:url(#linear-gradient-6);}.cls-8{fill:#5b889f;}.cls-9{mix-blend-mode:color-dodge;}.cls-10{fill:url(#linear-gradient-7);}.cls-11{fill:url(#linear-gradient-8);}.cls-12{fill:url(#linear-gradient-9);}.cls-13{fill:url(#linear-gradient-10);}.cls-14{fill:url(#linear-gradient-11);}.cls-15{fill:url(#linear-gradient-12);}.cls-16{fill:url(#linear-gradient-13);}.cls-17{fill:url(#linear-gradient-14);}.cls-18{fill:url(#linear-gradient-15);}.cls-19{fill:url(#linear-gradient-16);}.cls-20{fill:url(#linear-gradient-17);}.cls-21{fill:url(#linear-gradient-18);}.cls-22{fill:url(#linear-gradient-19);}.cls-23{fill:url(#linear-gradient-20);}.cls-24{fill:url(#linear-gradient-21);}.cls-25{fill:url(#linear-gradient-22);}.cls-26{fill:url(#linear-gradient-23);}.cls-27{fill:url(#linear-gradient-24);}.cls-28{fill:url(#linear-gradient-25);}.cls-29{fill:url(#linear-gradient-26);}.cls-30{fill:url(#linear-gradient-27);}.cls-31{fill:url(#linear-gradient-28);}</style><linearGradient id="linear-gradient" x1="165.19" y1="4.44" x2="164.3" y2="244.13" gradientUnits="userSpaceOnUse"><stop offset="0" stop-color="#b5e2f8"/><stop offset="0.2" stop-color="#b0e0f7"/><stop offset="0.42" stop-color="#a2daf3"/><stop offset="0.66" stop-color="#8bd0ec"/><stop offset="0.85" stop-color="#73c5e5"/></linearGradient><linearGradient id="linear-gradient-2" x1="158.2" y1="-32.58" x2="161.92" y2="273.05" gradientUnits="userSpaceOnUse"><stop offset="0" stop-color="#dbf1fc"/><stop offset="0.66" stop-color="#ccecfb"/></linearGradient><linearGradient id="linear-gradient-3" x1="163.91" y1="63.94" x2="163.46" y2="186.75" gradientUnits="userSpaceOnUse"><stop offset="0" stop-color="#f5fbfe"/><stop offset="0.15" stop-color="#ecf8fd"/><stop offset="0.58" stop-color="#d4effc"/><stop offset="0.85" stop-color="#ccecfb"/></linearGradient><linearGradient id="linear-gradient-4" x1="87.54" y1="153.18" x2="87.48" y2="169.77" xlink:href="#linear-gradient-3"/><linearGradient id="linear-gradient-5" x1="149.51" y1="194.65" x2="149.49" y2="202.03" xlink:href="#linear-gradient-3"/><linearGradient id="linear-gradient-6" x1="155.96" y1="44.41" x2="155.94" y2="51.78" xlink:href="#linear-gradient-3"/><linearGradient id="linear-gradient-7" x1="140.93" y1="180" x2="141.4" y2="180" gradientUnits="userSpaceOnUse"><stop offset="0" stop-color="#486670"/><stop offset="1" stop-color="#2e3955"/></linearGradient><linearGradient id="linear-gradient-8" x1="103.46" y1="179.28" x2="133.5" y2="179.28" xlink:href="#linear-gradient-7"/><linearGradient id="linear-gradient-9" x1="194.82" y1="75.6" x2="205.8" y2="75.6" xlink:href="#linear-gradient-3"/><linearGradient id="linear-gradient-10" x1="1241.7" y1="1941.99" x2="1252.69" y2="1941.99" gradientTransform="translate(1309.55 -1889.96) rotate(63.68)" xlink:href="#linear-gradient-3"/><linearGradient id="linear-gradient-11" x1="1317.8" y1="1964.67" x2="1323.42" y2="1964.67" gradientTransform="translate(1309.55 -1889.96) rotate(63.68)" xlink:href="#linear-gradient-3"/><linearGradient id="linear-gradient-12" x1="1362.22" y1="1891.94" x2="1367.84" y2="1891.94" gradientTransform="translate(1309.55 -1889.96) rotate(63.68)" xlink:href="#linear-gradient-3"/><linearGradient id="linear-gradient-13" x1="149.42" y1="214.84" x2="228.98" y2="214.84" gradientTransform="matrix(1, 0.07, -0.07, 1, 59.6, 4.42)" xlink:href="#linear-gradient"/><linearGradient id="linear-gradient-14" x1="-31.58" y1="213.96" x2="110.79" y2="213.96" gradientTransform="matrix(1, 0.07, -0.07, 1, 59.6, 4.42)" xlink:href="#linear-gradient"/><linearGradient id="linear-gradient-15" x1="34.2" y1="187.81" x2="34.04" y2="228.87" gradientTransform="matrix(1, 0.07, -0.07, 1, 59.6, 4.42)" xlink:href="#linear-gradient"/><linearGradient id="linear-gradient-16" x1="32.71" y1="181.37" x2="33.36" y2="234.42" gradientTransform="matrix(1, 0.07, -0.07, 1, 59.6, 4.42)" xlink:href="#linear-gradient-2"/><linearGradient id="linear-gradient-17" x1="183.41" y1="194.41" x2="183.85" y2="230.24" gradientTransform="matrix(1, 0.07, -0.07, 1, 59.6, 4.42)" xlink:href="#linear-gradient-2"/><linearGradient id="linear-gradient-18" x1="598.2" y1="-685.71" x2="598.64" y2="-649.18" gradientTransform="matrix(0.91, -0.42, 0.36, 0.78, -62.59, 1002.45)" xlink:href="#linear-gradient-2"/><linearGradient id="linear-gradient-19" x1="33.74" y1="198.13" x2="33.66" y2="219.44" gradientTransform="matrix(1, 0.07, -0.07, 1, 59.6, 4.42)" xlink:href="#linear-gradient-3"/><linearGradient id="linear-gradient-20" x1="19.69" y1="213.61" x2="19.68" y2="216.49" gradientTransform="translate(279.08 200.64) rotate(90)" xlink:href="#linear-gradient-3"/><linearGradient id="linear-gradient-21" x1="31.09" y1="220.81" x2="31.09" y2="222.09" gradientTransform="translate(296.4 196.43) rotate(90)" xlink:href="#linear-gradient-3"/><linearGradient id="linear-gradient-22" x1="32.28" y1="194.74" x2="32.27" y2="196.02" gradientTransform="translate(273.35 169.31) rotate(90)" xlink:href="#linear-gradient-3"/><linearGradient id="linear-gradient-23" x1="626.92" y1="-728.91" x2="626.85" y2="-709.5" gradientTransform="matrix(1.05, 0.19, -0.18, 0.98, -737.62, 810.13)" xlink:href="#linear-gradient-2"/><linearGradient id="linear-gradient-24" x1="55.91" y1="222.65" x2="82.39" y2="222.65" gradientTransform="translate(338.85 174.24) rotate(93.06)" xlink:href="#linear-gradient-2"/><linearGradient id="linear-gradient-25" x1="-25.58" y1="229.32" x2="-2.36" y2="229.32" gradientTransform="translate(258.76 246.14) rotate(90)" xlink:href="#linear-gradient-2"/><linearGradient id="linear-gradient-26" x1="151.98" y1="221.16" x2="169.64" y2="221.16" gradientTransform="translate(425.51 75.59) rotate(90)" xlink:href="#linear-gradient-2"/><linearGradient id="linear-gradient-27" x1="83.39" y1="233.36" x2="106.61" y2="233.36" gradientTransform="translate(371.21 148.92) rotate(90)" xlink:href="#linear-gradient"/><linearGradient id="linear-gradient-28" x1="-550.26" y1="259.53" x2="-527.04" y2="259.53" gradientTransform="matrix(0, 0.68, -1, 0, 521.7, 606.99)" xlink:href="#linear-gradient"/></defs><g class="cls-1"><g id="Layer_1" data-name="Layer 1"><path class="cls-2" d="M46.53,137.74C44.8,119.65,30.06,89.52,59.9,66.3c13.58-10.57,31.18-23,51.15-46.09,8.28-9.54,20.53-17.1,48.17-15.2,27.95,1.91,41.08-13.6,102.39,45.62,22.58,21.82,41.63,43.63,9.83,134.27-5.57,15.86-19.19,24.91-49.55,45.47-24.35,16.49-60.27,22.14-117.52-5.53C80.84,213.47,52.61,200.94,46.53,137.74Z"/><path class="cls-3" d="M136.76,26.62S117.53,38.93,127.27,40c0,0,10.9-2.91,16.16,11,0,0,30,6.67,60.51,4.87,0,0,22.06,1.54,33.34,27.18,0,0,36.59,34.19,9.23,98.13,0,0-39.32,24.28-21.2,27.35,0,0,9.92,5.47-16.41,4.79,0,0-4.19,3.59,13,4.87,0,0-37.18,17.7-84.87,4.62,0,0,22.56-4.36,5.12-7.44,0,0-50.51-8.46-23.84-15.64,0,0,6.15-5.9-24.11-4.36,0,0-53.51-61.71-19-121.21C75.22,74.14,125.82,27.13,136.76,26.62Z"/><path class="cls-4" d="M122.54,64.23s7.83-3.46,1.61,9.21c0,0,31.8-9.21,46.32,5.77,0,0,34.87,11.13,44.4,8.68,0,0,45.77,43.62,4.91,86,0,0-14.44,10.14-36.87,12.91,0,0,20.89-5.84-35.33-3.07,0,0-73.13,5.22-33.49-8.3C114.09,175.45,56,108.16,122.54,64.23Z"/><ellipse class="cls-5" cx="87.51" cy="161.47" rx="4.15" ry="8.3"/><ellipse class="cls-6" cx="149.5" cy="198.34" rx="8.53" ry="3.69"/><ellipse class="cls-7" cx="155.95" cy="48.1" rx="8.53" ry="3.69"/><path class="cls-8" d="M234.78,97.1l18.44-2.79s-16.41,1.5-17.16,7Z"/><path class="cls-8" d="M234.72,133.12l18.64-.47s-16.46-.55-17.88,4.78Z"/><g class="cls-9"><path class="cls-10" d="M141.36,180.07a1.23,1.23,0,0,1-.21.43l-.12.14a12.47,12.47,0,0,1,.29-1.31A1.3,1.3,0,0,1,141.36,180.07Z"/><path class="cls-11" d="M141.34,179.27h0Z"/></g><path class="cls-8" d="M165.47,52.73l.74-1.08,1,.6,10.53,6.34c-.07-1.54.39-1.72.88-1.83a4.23,4.23,0,0,1,1.62,0,4,4,0,0,0,1.61,0c.48-.14.92-.37,1.39-.55,1.84-.74,3.67-1.51,5.49-2.33A105.92,105.92,0,0,0,199.4,48.5l.6-.36.43.35a31.71,31.71,0,0,0,7.28,4.29,25.41,25.41,0,0,0,3.91,1.44,12.15,12.15,0,0,0,4.34.33l1-.13-.07,1.43-1.41,26.63L236,97.84l.87.64-.47,1L227,118.65,236.36,134l.37.6-.27.43a44.7,44.7,0,0,0-4.75,11,45.83,45.83,0,0,0-2.07,11.8v.74l-.95.2-22.34,4.89-2.77,24.48-.06.55-.28.16a30.56,30.56,0,0,0-5.86,4.52c-1.77,1.68-3.35,3.54-5,5.36a98.91,98.91,0,0,0-8.83,11.69l-1.14,1.81-1-1.91a129,129,0,0,0-10.77-16.48,109.63,109.63,0,0,0-13-14.8l.86.52a41.74,41.74,0,0,0-4.47-1.69c-1.5-.49-3-.92-4.54-1.29s-3.05-.71-4.59-1a7,7,0,0,0-4.87.49l.92-.14-14.14,7.56-1.4.75-.55-1.42-5.09-13.13c-.06-.16-2.41-16.14-2.41-16.14l-21.59-6.15-.23-.06-.1-.1a91.5,91.5,0,0,0-11.71-9.72c-2.06-1.47-4.15-2.89-6.34-4.16a41.24,41.24,0,0,0-6.93-3.3l-4.63-1.61L71,127.5l29.14-5.24-.89.56,7.2-7.47L107,90.56l.92,1.42L83.73,81.57l16-9.58.27-.16h.36l26.23,1-.35.23.81-1c-.08-.4.16-.67.22-1l.31-1,.63-1.95,1.26-3.91L132,56.46l.37-1.18.89.31a24.26,24.26,0,0,0,7.41,1.16,18.28,18.28,0,0,0,3.69-.2,10.38,10.38,0,0,0,3.66-1.34l.45-.29.44.59a43.76,43.76,0,0,0,4.67,5c.82.8,1.69,1.51,2.53,2.27l1.31,1.07.66.53.33.27m0,0-.68-.51-1.36-1c-.94-.64-1.84-1.31-2.81-1.9a42.12,42.12,0,0,0-6-3.3l.9.3a10.19,10.19,0,0,0-3.73-1.16,19,19,0,0,0-3.69,0,24.26,24.26,0,0,0-7.34,1.54l1.26-.86-3.72,7.32-1.86,3.66-.93,1.83-.46.91c-.2.29-.22.65-.56.88l-.11,1.26,0,.22H127l-26.23,1,.63-.15-17.3,7.07,25.1,7.78,1.06.33L110.1,91l-3.28,24.57-4.93,9.12-.24.44-.65.12L71.87,130.5l.54-2.53A43.28,43.28,0,0,0,78,133.26c2,1.59,4,3,6.15,4.42a90.65,90.65,0,0,0,13.27,7.47l-.33-.17,20.66,8.8,3.82,15.69-.05-.16,6.3,12.6-2-.67L140,173.68l.71-.39.22.24a7,7,0,0,0,4.36,2.26c1.54.26,3.08.55,4.64.73s3.12.37,4.7.47a39.84,39.84,0,0,0,4.77.07l.57,0,.29.56A109.64,109.64,0,0,0,171,194.07a129.92,129.92,0,0,0,13,14.81l-2.16-.1a98.81,98.81,0,0,0,10.83-9.88c1.66-1.77,3.36-3.52,4.87-5.43a30.62,30.62,0,0,0,4-6.26l-.34.71,5.53-24,21.58-7.58-1,.95a45.73,45.73,0,0,0,4.74-11,44.84,44.84,0,0,0,2.07-11.79l.09,1-6.83-16.62,6.78-20.28.4,1.61L215.8,82.72,214.4,56.1l.89,1.3a12.26,12.26,0,0,0-3.42-2.69A24.77,24.77,0,0,0,208,53.12a31.73,31.73,0,0,0-8.26-1.77h1a106.35,106.35,0,0,0-11.51,3.35q-2.82,1-5.59,2.07c-.46.18-.94.33-1.39.55a4,4,0,0,0-1.16,1.12A3.84,3.84,0,0,1,180,59.56c-.43.26-.89.45-1.89-.73L166.39,55l1.74-.48"/><path class="cls-8" d="M228.65,155.82l14,12.3s-11.73-11.57-16.39-8.62Z"/><path class="cls-8" d="M203.2,185.56l14,12.29s-11.72-11.57-16.38-8.62Z"/><path class="cls-8" d="M160.12,179.92l-12.88,13.49s12.06-11.23,9.31-16Z"/><path class="cls-8" d="M128.32,182.23l-12.88,13.48s12.06-11.22,9.31-16Z"/><path class="cls-8" d="M117.65,153.71l-9.8,15.87s9.46-13.48,5.78-17.59Z"/><path class="cls-8" d="M106.26,116.32l-17.45-6.57s15,6.7,18.37,2.3Z"/><path class="cls-8" d="M127.39,73.25l-17.45-6.57s15,6.7,18.37,2.29Z"/><path class="cls-8" d="M214.05,55.53l15.74-10s-14.39,8-12.87,13.31Z"/><path class="cls-8" d="M198.32,51l-1.59-18.58s.44,16.46,5.85,17.57Z"/><path class="cls-8" d="M165.19,54.6,163.6,36s.44,16.47,5.85,17.57Z"/><path class="cls-8" d="M148,57.1l1.83-10.27s-2.15,9,.62,10.33Z"/><path class="cls-8" d="M196.32,67.1a10.18,10.18,0,0,0-2,10.54s1-.81,3.45,5.48c0,0,7.5,3.65,8.72-1.83,0,0,3.75-2.36-2.48-5.55,0,0-4,.15-3.5-6.23C200.48,69.51,201.44,63.93,196.32,67.1Z"/><path class="cls-12" d="M196.93,69.2a8,8,0,0,0-1.6,8.31s.8-.64,2.71,4.32c0,0,5.92,2.87,6.88-1.44,0,0,3-1.86-2-4.38,0,0-3.12.12-2.76-4.91C200.2,71.1,201,66.7,196.93,69.2Z"/><path class="cls-8" d="M127.64,81.6a10.19,10.19,0,0,0-10.35,2.86s1.18.54-3.38,5.51c0,0,.06,8.34,5.5,7,0,0,3.78,2.31,3.88-4.69,0,0-1.89-3.48,4-5.9C127.32,86.39,132.75,84.78,127.64,81.6Z"/><path class="cls-13" d="M126,83.07a8,8,0,0,0-8.16,2.25s.92.43-2.67,4.35c0,0,0,6.58,4.34,5.52,0,0,3,1.83,3-3.69,0,0-1.48-2.74,3.19-4.65C125.78,86.85,130.05,85.58,126,83.07Z"/><path class="cls-8" d="M137,161.05a5.23,5.23,0,0,0-5.3,1.46s.6.28-1.72,2.82c0,0,0,4.27,2.81,3.58,0,0,1.93,1.19,2-2.39,0,0-1-1.78,2.06-3C136.83,163.5,139.61,162.68,137,161.05Z"/><path class="cls-14" d="M136.17,161.8A4.12,4.12,0,0,0,132,163s.47.22-1.36,2.23c0,0,0,3.36,2.21,2.82,0,0,1.53.94,1.57-1.89,0,0-.77-1.4,1.62-2.38C136,163.73,138.23,163.08,136.17,161.8Z"/><path class="cls-8" d="M221.88,168.61a5.21,5.21,0,0,0-5.29,1.47s.6.28-1.73,2.82c0,0,0,4.26,2.82,3.58,0,0,1.93,1.18,2-2.4,0,0-1-1.78,2.06-3C221.72,171.07,224.5,170.24,221.88,168.61Z"/><path class="cls-15" d="M221.06,169.37a4.09,4.09,0,0,0-4.17,1.15s.47.22-1.37,2.22c0,0,0,3.37,2.22,2.83,0,0,1.52.93,1.56-1.89,0,0-.76-1.4,1.63-2.38C220.93,171.3,223.12,170.65,221.06,169.37Z"/><path class="cls-16" d="M196.86,230.39c3.52-1.36,8.2-1.83,14.09.2,0,0,4.17-24.71,30.86-7.88,0,0,14.29-7.43,21.69,9.66,0,0,13.08,3.3,7.7,9.88a11.17,11.17,0,0,1-10.4,3.56c-3-.47-6.41-1.78-7.88-5.09,0,0-15.74,13.17-40.67.68a66.27,66.27,0,0,1-13.35.55C192.27,241.4,190.73,232.75,196.86,230.39Z"/><path class="cls-17" d="M12.2,234.58s29.45,8.62,34.37,3.26c0,0,37.37,6.73,49.72,3.32,0,0,5.37,11,22.5,5.88,7.64-2.3,19.32,8.63,31.54,2.62a5.6,5.6,0,0,0,2.22-8.4c-2.9-4-9.14-8.52-22.32-6.06,0,0,3.19-17.52-23.69-16.57,0,0,1.7-27-33.26-25,0,0-21.89,3.75-21.05,19.32,0,0-16.32-7.69-19.77,10.43,0,0-9-3.9-15.52,5.43C16.94,228.8,9.91,230.34,12.2,234.58Z"/><path class="cls-18" d="M56.79,215.68s-2-8,3.33-12.19c0,0,6.48-3.19,10-7.31a12.22,12.22,0,0,1,9-2s5.6.37,18.23,9.23c0,0,9.33,9.91.16,23.38,0,0-4.56,3.1-9.65,7.23,0,0-11.93,3.92-21.5-2.49C66.34,231.52,54.79,226.53,56.79,215.68Z"/><path class="cls-19" d="M74.71,197.62s-3.68,1.88-1.9,2.19a2.48,2.48,0,0,1,2.83,2.11,48.66,48.66,0,0,0,11,1.64,7.84,7.84,0,0,1,5.78,5.14s6.29,6.39.49,17.11c0,0-7.52,3.69-4.23,4.46,0,0,1.75,1.07-3.07.61,0,0-.81.57,2.33,1a25.6,25.6,0,0,1-15.64-.3s4.2-.46,1-1.22c0,0-9.17-2.13-4.19-3,0,0,1.2-.94-4.37-1.07,0,0-9.06-11.38-2-21.23C62.84,205.05,72.7,197.57,74.71,197.62Z"/><path class="cls-20" d="M225.64,218.06s-2.49,1.27-1.29,1.47a1.67,1.67,0,0,1,1.91,1.43,32.73,32.73,0,0,0,7.46,1.11,5.27,5.27,0,0,1,3.9,3.47s4.25,4.32.33,11.55c0,0-5.07,2.49-2.85,3,0,0,1.18.73-2.07.42,0,0-.55.38,1.57.68A17.27,17.27,0,0,1,224,241s2.83-.31.7-.82c0,0-6.19-1.43-2.83-2,0,0,.81-.63-2.95-.72,0,0-6.12-7.69-1.34-14.34C217.62,223.07,224.28,218,225.64,218.06Z"/><path class="cls-21" d="M235.93,224s-1.62,2.06-.48,1.68a1.79,1.79,0,0,1,2.32.23,36.81,36.81,0,0,0,7-2.47,5.61,5.61,0,0,1,5,.88s5.65,1.38,5.44,8.57c0,0-3.35,4.13-1.17,3.54,0,0,1.36,0-1.63,1.23,0,0-.31.53,1.68-.18a19,19,0,0,1-9.36,4.53s2.35-1.5.24-.94c0,0-6.07,1.67-3.39-.28,0,0,.43-.84-2.91.76,0,0-8.8-3.08-7.57-10.21C231.12,231.38,234.72,224.61,235.93,224Z"/><path class="cls-22" d="M71.64,204s1.48-.5.19,1.61c0,0,5.94-1.18,8.42,1.6,0,0,6.27,2.39,8,2.08,0,0,7.86,8.15-.16,15A16.79,16.79,0,0,1,81.22,226s3.9-.74-6.45-1c0,0-13.48-.05-6-1.88C68.73,223.09,58.9,210.69,71.64,204Z"/><ellipse class="cls-23" cx="64.02" cy="220.33" rx="1.44" ry="0.76" transform="translate(-160.28 268.6) rotate(-85.94)"/><ellipse class="cls-24" cx="74.94" cy="227.52" rx="0.64" ry="1.57" transform="translate(-157.31 286.18) rotate(-85.94)"/><ellipse class="cls-25" cx="77.97" cy="201.59" rx="0.64" ry="1.57" transform="translate(-128.63 265.1) rotate(-85.94)"/><ellipse class="cls-26" cx="46.74" cy="221.99" rx="8.27" ry="9.75" transform="matrix(0.57, -0.82, 0.82, 0.57, -162.24, 133.72)"/><ellipse class="cls-27" cx="112.82" cy="231.41" rx="10.81" ry="13.25" transform="translate(-120.51 340.18) rotate(-89)"/><ellipse class="cls-28" cx="29.44" cy="232.17" rx="3.09" ry="11.61" transform="translate(-204.23 245.11) rotate(-85.94)"/><ellipse class="cls-29" cx="204.36" cy="236.4" rx="3.14" ry="8.83" transform="translate(-45.91 423.52) rotate(-85.94)"/><ellipse class="cls-30" cx="137.85" cy="243.91" rx="3.09" ry="11.61" transform="translate(-115.21 364.16) rotate(-85.94)"/><ellipse class="cls-31" cx="262.89" cy="239.49" rx="3.09" ry="7.91" transform="translate(-0.28 478.67) rotate(-84.6)"/></g></g></svg>