<svg xmlns="http://www.w3.org/2000/svg" xmlns:xlink="http://www.w3.org/1999/xlink" viewBox="0 0 430 390"><defs><style>.cls-1{isolation:isolate;}.cls-2,.cls-8,.cls-9{stroke:#08b7fc;stroke-miterlimit:10;}.cls-2{fill:url(#linear-gradient);}.cls-3{fill:url(#linear-gradient-2);}.cls-4{fill:url(#linear-gradient-3);}.cls-5{fill:url(#linear-gradient-4);}.cls-6{fill:url(#linear-gradient-5);}.cls-7{fill:url(#linear-gradient-6);}.cls-8{fill:url(#linear-gradient-7);}.cls-9{fill:url(#linear-gradient-8);}.cls-10{fill:url(#linear-gradient-9);}.cls-11{fill:url(#linear-gradient-10);}.cls-12{fill:url(#linear-gradient-11);}.cls-13{fill:url(#linear-gradient-12);}.cls-14{fill:url(#linear-gradient-13);}.cls-15{fill:url(#linear-gradient-14);}.cls-16{fill:url(#linear-gradient-15);}.cls-17{fill:url(#linear-gradient-16);}.cls-18{fill:url(#linear-gradient-17);}.cls-19{fill:url(#linear-gradient-18);}.cls-20{fill:url(#linear-gradient-19);}.cls-21{fill:url(#linear-gradient-20);}.cls-22{fill:url(#linear-gradient-21);}.cls-23{fill:url(#linear-gradient-22);}.cls-24{fill:#5b889f;}.cls-25{mix-blend-mode:color-dodge;}.cls-26{fill:url(#linear-gradient-23);}.cls-27{fill:url(#linear-gradient-24);}.cls-28{fill:url(#linear-gradient-25);}.cls-29{fill:url(#linear-gradient-26);}.cls-30{fill:url(#linear-gradient-27);}.cls-31{fill:url(#linear-gradient-28);}</style><linearGradient id="linear-gradient" x1="236.79" y1="21.24" x2="235.55" y2="354.88" gradientUnits="userSpaceOnUse"><stop offset="0" stop-color="#b5e2f8"/><stop offset="0.2" stop-color="#b0e0f7"/><stop offset="0.42" stop-color="#a2daf3"/><stop offset="0.66" stop-color="#8bd0ec"/><stop offset="0.85" stop-color="#73c5e5"/></linearGradient><linearGradient id="linear-gradient-2" x1="227.05" y1="-30.3" x2="232.24" y2="395.14" gradientUnits="userSpaceOnUse"><stop offset="0" stop-color="#dbf1fc"/><stop offset="0.66" stop-color="#ccecfb"/></linearGradient><linearGradient id="linear-gradient-3" x1="235.01" y1="104.06" x2="234.38" y2="275" gradientUnits="userSpaceOnUse"><stop offset="0" stop-color="#f5fbfe"/><stop offset="0.15" stop-color="#ecf8fd"/><stop offset="0.58" stop-color="#d4effc"/><stop offset="0.85" stop-color="#ccecfb"/></linearGradient><linearGradient id="linear-gradient-4" x1="128.7" y1="228.27" x2="128.62" y2="251.37" xlink:href="#linear-gradient-3"/><linearGradient id="linear-gradient-5" x1="214.97" y1="286.01" x2="214.93" y2="296.28" xlink:href="#linear-gradient-3"/><linearGradient id="linear-gradient-6" x1="223.95" y1="76.87" x2="223.91" y2="87.13" xlink:href="#linear-gradient-3"/><linearGradient id="linear-gradient-7" x1="289.96" y1="330.44" x2="407.78" y2="330.44" xlink:href="#linear-gradient"/><linearGradient id="linear-gradient-8" x1="21.9" y1="329.14" x2="232.75" y2="329.14" xlink:href="#linear-gradient"/><linearGradient id="linear-gradient-9" x1="119.31" y1="290.42" x2="119.08" y2="351.23" xlink:href="#linear-gradient"/><linearGradient id="linear-gradient-10" x1="117.1" y1="280.88" x2="118.06" y2="359.45" xlink:href="#linear-gradient-2"/><linearGradient id="linear-gradient-11" x1="340.3" y1="300.2" x2="340.94" y2="353.25" xlink:href="#linear-gradient-2"/><linearGradient id="linear-gradient-12" x1="592.64" y1="-779.72" x2="593.3" y2="-725.62" gradientTransform="matrix(0.88, -0.48, 0.41, 0.75, 152.91, 1180.87)" xlink:href="#linear-gradient-2"/><linearGradient id="linear-gradient-13" x1="118.63" y1="305.7" x2="118.51" y2="337.26" xlink:href="#linear-gradient-3"/><linearGradient id="linear-gradient-14" x1="97.82" y1="328.63" x2="97.81" y2="332.9" xlink:href="#linear-gradient-3"/><linearGradient id="linear-gradient-15" x1="114.71" y1="339.29" x2="114.7" y2="341.19" xlink:href="#linear-gradient-3"/><linearGradient id="linear-gradient-16" x1="116.47" y1="300.67" x2="116.46" y2="302.57" xlink:href="#linear-gradient-3"/><linearGradient id="linear-gradient-17" x1="555.63" y1="-1126.12" x2="555.53" y2="-1097.36" gradientTransform="matrix(1.05, 0.19, -0.18, 0.98, -707.71, 1322.93)" xlink:href="#linear-gradient-2"/><linearGradient id="linear-gradient-18" x1="151.46" y1="342.02" x2="190.69" y2="342.02" gradientTransform="translate(18.49 -8.64) rotate(3.06)" xlink:href="#linear-gradient-2"/><linearGradient id="linear-gradient-19" x1="30.78" y1="351.89" x2="65.17" y2="351.89" xlink:href="#linear-gradient-2"/><linearGradient id="linear-gradient-20" x1="293.74" y1="339.8" x2="319.9" y2="339.8" xlink:href="#linear-gradient-2"/><linearGradient id="linear-gradient-21" x1="192.16" y1="357.87" x2="226.55" y2="357.87" xlink:href="#linear-gradient"/><linearGradient id="linear-gradient-22" x1="-535.65" y1="386.82" x2="-501.27" y2="386.82" gradientTransform="matrix(0, 0.68, -1, 0, 779.74, 692.24)" xlink:href="#linear-gradient"/><linearGradient id="linear-gradient-23" x1="203.02" y1="265.62" x2="203.67" y2="265.62" gradientUnits="userSpaceOnUse"><stop offset="0" stop-color="#486670"/><stop offset="1" stop-color="#2e3955"/></linearGradient><linearGradient id="linear-gradient-24" x1="150.85" y1="264.61" x2="192.68" y2="264.61" xlink:href="#linear-gradient-23"/><linearGradient id="linear-gradient-25" x1="278.03" y1="120.28" x2="293.32" y2="120.28" xlink:href="#linear-gradient-3"/><linearGradient id="linear-gradient-26" x1="1909.36" y1="2212.74" x2="1924.65" y2="2212.74" gradientTransform="translate(1309.86 -2560.47) rotate(63.68)" xlink:href="#linear-gradient-3"/><linearGradient id="linear-gradient-27" x1="2015.29" y1="2244.32" x2="2023.11" y2="2244.32" gradientTransform="translate(1309.86 -2560.47) rotate(63.68)" xlink:href="#linear-gradient-3"/><linearGradient id="linear-gradient-28" x1="2077.12" y1="2143.07" x2="2084.94" y2="2143.07" gradientTransform="translate(1309.86 -2560.47) rotate(63.68)" xlink:href="#linear-gradient-3"/></defs><g class="cls-1"><g id="Layer_1" data-name="Layer 1"><path class="cls-2" d="M71.62,206.78c-2.42-25.17-22.93-67.12,18.6-99.44,18.91-14.71,43.41-32.08,71.21-64.15C173,29.91,190,19.38,228.47,22,267.39,24.69,285.67,3.1,371,85.53c31.44,30.37,57.95,60.73,13.69,186.9-7.75,22.08-26.71,34.68-69,63.3-33.9,23-83.89,30.82-163.59-7.7C119.37,312.2,80.07,294.76,71.62,206.78Z"/><path class="cls-3" d="M197.21,52.1S170.44,69.24,184,70.66c0,0,15.17-4,22.49,15.35,0,0,41.76,9.28,84.24,6.79,0,0,30.7,2.14,46.4,37.83,0,0,50.93,47.6,12.85,136.6,0,0-54.73,33.79-29.51,38.07,0,0,13.81,7.62-22.84,6.67,0,0-5.83,5,18.08,6.78,0,0-51.75,24.63-118.15,6.42,0,0,31.41-6.06,7.14-10.35,0,0-70.32-11.78-33.2-21.77,0,0,8.57-8.21-33.55-6.07,0,0-74.49-85.91-26.41-168.72C111.55,118.26,182,52.82,197.21,52.1Z"/><path class="cls-4" d="M177.42,104.46s10.9-4.82,2.24,12.83c0,0,44.27-12.83,64.48,8,0,0,48.54,15.5,61.8,12.08,0,0,63.73,60.73,6.84,119.75,0,0-20.1,14.12-51.32,18,0,0,29.08-8.12-49.18-4.27,0,0-101.79,7.27-46.62-11.55C165.66,259.28,84.82,165.62,177.42,104.46Z"/><ellipse class="cls-5" cx="128.66" cy="239.82" rx="5.77" ry="11.55"/><ellipse class="cls-6" cx="214.95" cy="291.14" rx="11.87" ry="5.13"/><ellipse class="cls-7" cx="223.93" cy="82" rx="11.87" ry="5.13"/><path class="cls-8" d="M295.12,331.71c5.06-2.38,11.91-3.56,20.83-1.18,0,0,3.56-36.94,44.76-14.87,0,0,20.34-12.48,33.06,12,0,0,19.66,3.5,12.4,13.8-3.25,4.61-9.13,6.84-15,6.34-4.53-.38-9.66-2-12.17-6.7,0,0-21.87,21.11-60,5.28a98.13,98.13,0,0,1-19.67,2.2C289.49,348.46,286.3,335.84,295.12,331.71Z"/><path class="cls-9" d="M22.76,357.25s44.4,9.65,51.11,1.21c0,0,55.91,6,73.8-.3,0,0,9.09,15.75,33.86,6.33,11-4.2,29.44,10.73,46.86.56a8.29,8.29,0,0,0,2.4-12.63c-4.7-5.66-14.4-11.64-33.61-6.62,0,0,2.88-26.22-36.73-22,0,0-.32-40.09-51.76-33.46,0,0-31.94,7.84-29.07,30.75,0,0-24.92-9.65-28.11,17.48,0,0-13.74-4.82-22.36,9.64C29.15,348.21,18.92,351.23,22.76,357.25Z"/><path class="cls-10" d="M86.65,324.66s-3.77-11.61,3.64-18.36c0,0,9.23-5.39,13.94-11.85,0,0,5.65-4.91,13.12-3.91,0,0,8.31,0,27.9,11.73,0,0,14.82,13.67,2.68,34.52,0,0-6.4,5-13.5,11.69,0,0-17.2,7-32-1.43C102.41,347.05,84.83,340.89,86.65,324.66Z"/><path class="cls-11" d="M111.23,296.1s-5.24,3.16-2.58,3.43a3.66,3.66,0,0,1,4.4,2.83,72.4,72.4,0,0,0,16.49,1.25,11.62,11.62,0,0,1,9.08,7s10,8.79,2.52,25.23c0,0-10.72,6.24-5.78,7,0,0,2.7,1.4-4.47,1.23,0,0-1.14.92,3.54,1.25a37.85,37.85,0,0,1-23.13,1.19s6.15-1.12,1.4-1.91c0,0-13.76-2.18-6.5-4,0,0,1.68-1.51-6.56-1.12,0,0-14.58-15.86-5.17-31.15C94.47,308.32,108.25,296.23,111.23,296.1Z"/><path class="cls-12" d="M336.33,310.48s-3.54,2.13-1.74,2.31a2.48,2.48,0,0,1,3,1.91,48.69,48.69,0,0,0,11.13.85,7.86,7.86,0,0,1,6.14,4.72s6.73,5.93,1.69,17c0,0-7.23,4.21-3.9,4.75,0,0,1.83.95-3,.83,0,0-.77.62,2.39.85a25.57,25.57,0,0,1-15.62.8s4.15-.76.94-1.29c0,0-9.29-1.47-4.38-2.72,0,0,1.13-1-4.44-.76,0,0-9.84-10.71-3.49-21C325,318.73,334.32,310.56,336.33,310.48Z"/><path class="cls-13" d="M352.16,318.23s-2.17,3.21-.52,2.54a2.65,2.65,0,0,1,3.45.1,54.63,54.63,0,0,0,10.14-4.4,8.31,8.31,0,0,1,7.44.79s8.5,1.43,8.93,12.09c0,0-4.5,6.45-1.35,5.34,0,0,2-.1-2.28,2,0,0-.41.82,2.47-.45a28,28,0,0,1-13.36,7.67s3.31-2.45.26-1.4c0,0-8.79,3.09-5-.07,0,0,.54-1.28-4.22,1.44,0,0-13.33-3.63-12.26-14.3C345.83,329.58,350.43,319.21,352.16,318.23Z"/><path class="cls-14" d="M107.36,305.77s2.13-.89.44,2.37c0,0,8.66-2.37,12.62,1.48,0,0,9.5,2.86,12.1,2.23,0,0,12.47,11.21,1.33,22.11a24.83,24.83,0,0,1-10,3.32s5.69-1.5-9.63-.79c0,0-19.92,1.34-9.12-2.13C105.06,334.36,89.24,317.06,107.36,305.77Z"/><ellipse class="cls-15" cx="97.82" cy="330.76" rx="1.13" ry="2.13"/><ellipse class="cls-16" cx="114.71" cy="340.24" rx="2.32" ry="0.95"/><ellipse class="cls-17" cx="116.46" cy="301.62" rx="2.32" ry="0.95"/><ellipse class="cls-18" cx="72.46" cy="335.04" rx="12.25" ry="14.45" transform="matrix(0.51, -0.86, 0.86, 0.51, -252.56, 226.11)"/><ellipse class="cls-19" cx="171.07" cy="342.02" rx="19.62" ry="16" transform="translate(-18.01 9.62) rotate(-3.06)"/><ellipse class="cls-20" cx="47.98" cy="351.89" rx="17.19" ry="4.58"/><ellipse class="cls-21" cx="306.82" cy="339.8" rx="13.08" ry="4.66"/><ellipse class="cls-22" cx="209.36" cy="357.87" rx="17.19" ry="4.58"/><ellipse class="cls-23" cx="393.62" cy="338.23" rx="4.58" ry="11.71" transform="translate(46.25 723.81) rotate(-88.66)"/><path class="cls-24" d="M333.65,150.21l25.67-3.88s-22.83,2.09-23.87,9.7Z"/><path class="cls-24" d="M333.58,200.36l25.95-.66s-22.92-.77-24.9,6.65Z"/><g class="cls-25"><path class="cls-26" d="M203.61,265.71a2,2,0,0,1-.28.6l-.18.2a17.81,17.81,0,0,1,.42-1.83A1.77,1.77,0,0,1,203.61,265.71Z"/><path class="cls-27" d="M203.59,264.6v0h0Z"/></g><path class="cls-24" d="M237.18,88.45l1-1.51,1.39.84,14.67,8.83c-.11-2.15.54-2.39,1.22-2.55a5.91,5.91,0,0,1,2.25,0,5.47,5.47,0,0,0,2.24,0c.67-.2,1.29-.51,1.93-.76,2.57-1,5.12-2.1,7.65-3.24a149.35,149.35,0,0,0,14.86-7.57l.83-.49.6.48a43.63,43.63,0,0,0,10.12,6,35.22,35.22,0,0,0,5.45,2,17,17,0,0,0,6.05.46l1.34-.18-.1,2-1.95,37.06,28.61,21.38,1.21.9-.65,1.34-13.06,26.74,13,21.38.5.84-.38.6a63.26,63.26,0,0,0-6.61,15.3,64.08,64.08,0,0,0-2.87,16.42l0,1-1.32.29-31.09,6.8L290.22,277l-.08.76-.4.22a42.17,42.17,0,0,0-8.16,6.31c-2.46,2.33-4.66,4.91-6.91,7.44A138.91,138.91,0,0,0,262.37,308l-1.58,2.52-1.41-2.66a181.67,181.67,0,0,0-15-22.94,154.63,154.63,0,0,0-18.08-20.61l1.19.74a54.43,54.43,0,0,0-6.21-2.35c-2.1-.68-4.2-1.29-6.32-1.81s-4.26-1-6.39-1.43a9.78,9.78,0,0,0-6.8.68l1.29-.2-19.68,10.54-1.95,1-.76-2-7.1-18.28c-.07-.22-3.34-22.47-3.34-22.47l-30.06-8.56-.32-.09-.14-.14a126.78,126.78,0,0,0-16.31-13.52,105.36,105.36,0,0,0-8.81-5.8,58.92,58.92,0,0,0-9.64-4.6l-6.45-2.23,7.21-1.3,40.55-7.29L145,186l10-10.39.67-34.51,1.27,2-33.6-14.49,22.35-13.34.37-.22h.5l36.51,1.44-.48.32,1.12-1.36c-.1-.56.23-.94.32-1.41l.43-1.36.88-2.72,1.74-5.44,3.5-10.88.52-1.63,1.23.42a33.86,33.86,0,0,0,10.32,1.62,26,26,0,0,0,5.14-.27,14.57,14.57,0,0,0,5.09-1.88l.62-.4.63.81a57,57,0,0,0,6.5,7c1.13,1.11,2.35,2.1,3.52,3.15L226,104l.92.74.46.37m0,0-1-.7L224.56,103c-1.31-.88-2.57-1.81-3.92-2.64a59.38,59.38,0,0,0-8.38-4.59l1.25.41a14.28,14.28,0,0,0-5.18-1.6,26,26,0,0,0-5.14,0A33.78,33.78,0,0,0,193,96.67l1.75-1.21-5.17,10.19-2.59,5.1-1.29,2.54-.65,1.28c-.27.4-.3.9-.77,1.22l-.16,1.75,0,.31h-.45l-36.52,1.44.87-.21-24.08,9.84,35,10.84,1.47.45-.2,1.53L155.53,176l-6.86,12.7-.33.61-.9.16-40.56,7.29.76-3.52a59,59,0,0,0,7.74,7.36c2.75,2.21,5.63,4.23,8.57,6.16a126.17,126.17,0,0,0,18.46,10.39l-.46-.23,28.76,12.24L176,251l-.07-.23,8.76,17.54-2.7-.93,19.68-10.53,1-.53.3.33a9.76,9.76,0,0,0,6.06,3.14c2.16.37,4.3.76,6.47,1s4.35.52,6.54.65a52.42,52.42,0,0,0,6.64.1l.79,0,.4.78a154,154,0,0,0,15,22.94A181.7,181.7,0,0,0,263,305.81l-3-.14A136.83,136.83,0,0,0,275,291.92c2.31-2.47,4.68-4.89,6.78-7.56a42.92,42.92,0,0,0,5.52-8.71l-.48,1,7.7-33.42,30-10.56L323.26,234a63.45,63.45,0,0,0,6.6-15.3,62.75,62.75,0,0,0,2.88-16.42l.12,1.44-9.5-23.14,9.44-28.22.55,2.23L307.24,130.2l-1.95-37.06L306.53,95a16.91,16.91,0,0,0-4.76-3.76A35.87,35.87,0,0,0,296.4,89a43.63,43.63,0,0,0-11.49-2.46h1.43a147.09,147.09,0,0,0-16,4.67c-2.62.9-5.21,1.87-7.79,2.87-.64.26-1.31.46-1.93.77A5.4,5.4,0,0,0,259,96.4,6,6,0,0,1,257.39,98c-.61.35-1.25.62-2.64-1l-16.29-5.28,2.42-.67"/><path class="cls-24" d="M325.12,232l19.52,17.11s-16.32-16.1-22.81-12Z"/><path class="cls-24" d="M289.71,273.35l19.51,17.11s-16.32-16.1-22.81-12Z"/><path class="cls-24" d="M229.73,265.5,211.8,284.28s16.79-15.63,13-22.29Z"/><path class="cls-24" d="M185.47,268.71l-17.93,18.77s16.78-15.62,13-22.28Z"/><path class="cls-24" d="M170.61,229,157,251.11s13.17-18.77,8-24.48Z"/><path class="cls-24" d="M154.76,177l-24.29-9.15S151.41,177.15,156,171Z"/><path class="cls-24" d="M184.17,117l-24.29-9.15s20.94,9.33,25.57,3.2Z"/><path class="cls-24" d="M304.81,92.35l21.91-13.92S306.68,89.57,308.8,97Z"/><path class="cls-24" d="M282.91,86l-2.22-25.86s.61,22.92,8.14,24.45Z"/><path class="cls-24" d="M236.79,91.05l-2.21-25.87s.61,22.92,8.14,24.46Z"/><path class="cls-24" d="M212.79,94.53l2.55-14.3s-3,12.48.86,14.39Z"/><path class="cls-24" d="M280.13,108.46a14.18,14.18,0,0,0-2.83,14.67s1.42-1.13,4.8,7.62c0,0,10.44,5.08,12.14-2.54,0,0,5.22-3.28-3.46-7.73,0,0-5.5.22-4.87-8.67C285.91,111.81,287.25,104.05,280.13,108.46Z"/><path class="cls-28" d="M281,111.37a11.18,11.18,0,0,0-2.23,11.57s1.11-.89,3.78,6c0,0,8.24,4,9.57-2,0,0,4.12-2.59-2.72-6.09,0,0-4.34.17-3.84-6.84C285.53,114,286.59,107.9,281,111.37Z"/><path class="cls-24" d="M184.52,128.64a14.2,14.2,0,0,0-14.41,4s1.64.77-4.7,7.68c0,0,.08,11.61,7.66,9.75,0,0,5.25,3.23,5.39-6.52,0,0-2.63-4.84,5.62-8.21C184.08,135.31,191.63,133.07,184.52,128.64Z"/><path class="cls-29" d="M182.27,130.68a11.18,11.18,0,0,0-11.35,3.14s1.29.6-3.71,6.05c0,0,.06,9.16,6,7.69,0,0,4.14,2.54,4.25-5.14,0,0-2.08-3.82,4.43-6.48C181.93,135.94,187.88,134.18,182.27,130.68Z"/><path class="cls-24" d="M197.54,239.23a7.26,7.26,0,0,0-7.36,2s.83.39-2.41,3.92c0,0,0,5.94,3.92,5,0,0,2.69,1.65,2.76-3.34,0,0-1.35-2.47,2.87-4.2C197.32,242.64,201.18,241.5,197.54,239.23Z"/><path class="cls-30" d="M196.4,240.28a5.73,5.73,0,0,0-5.81,1.6s.66.31-1.9,3.1c0,0,0,4.68,3.09,3.93,0,0,2.12,1.3,2.17-2.63,0,0-1.06-1.95,2.27-3.31C196.22,243,199.26,242.07,196.4,240.28Z"/><path class="cls-24" d="M315.71,249.76a7.27,7.27,0,0,0-7.37,2s.84.39-2.4,3.93c0,0,0,5.93,3.91,5,0,0,2.69,1.65,2.76-3.33,0,0-1.34-2.48,2.88-4.2C315.49,253.18,319.35,252,315.71,249.76Z"/><path class="cls-31" d="M314.56,250.81a5.73,5.73,0,0,0-5.81,1.6s.66.31-1.89,3.1c0,0,0,4.68,3.08,3.93,0,0,2.12,1.3,2.18-2.63,0,0-1.06-1.95,2.26-3.31C314.38,253.5,317.43,252.6,314.56,250.81Z"/></g></g></svg>