<svg id="Layer_1" data-name="Layer 1" xmlns="http://www.w3.org/2000/svg" viewBox="0 0 100 180"><defs><style>.cls-1,.cls-9{fill:#d86430;}.cls-1{stroke:#56230a;}.cls-1,.cls-2{stroke-miterlimit:10;}.cls-2,.cls-3{fill:#f7e8bc;}.cls-2{stroke:#664b10;}.cls-4{fill:#664b10;}.cls-5{fill:#fff;}.cls-6{fill:#2b3038;}.cls-7{fill:#212428;}.cls-8{fill:#721c4d;}.cls-10{fill:#56230a;}.cls-11{fill:#c64f1a;}.cls-12{fill:#68112c;}.cls-13{fill:#f9f4f5;}.cls-14{fill:#f28d16;}</style></defs><path class="cls-1" d="M37.38,76.26s.06.24.14.75c.41,2.51,1.43,11.77-1,33.12-2.93,25.67-10.68,36-10.68,36s7,13.8,25.69,21.42,26-27.2,26-27.2-11.71-29.72-5.17-69S37.38,76.26,37.38,76.26Z"/><path class="cls-2" d="M46.42,76.4s.12,19.06-1.24,33.36-7.09,32.5-10.38,38.91,28,13.14,33.1.47c0,0-2-13.52-3.14-36.89s1.3-38.78,1.3-38.78Z"/><path class="cls-3" d="M46.37,91.08s9.25,6.79,18.3.67"/><path class="cls-4" d="M46.39,91a42.14,42.14,0,0,0,4.55,1.55,24.12,24.12,0,0,0,4.57.77,17.56,17.56,0,0,0,4.57-.26c.38-.08.77-.12,1.14-.23l1.13-.35c.79-.17,1.47-.58,2.29-.81l0,.09a15.56,15.56,0,0,1-4.41,2,13.85,13.85,0,0,1-4.84.5,17.59,17.59,0,0,1-4.76-1,19.09,19.09,0,0,1-4.34-2.21Z"/><path class="cls-3" d="M38.91,139.43s13.6,11.46,27.36-.22"/><path class="cls-4" d="M38.94,139.4a27.53,27.53,0,0,0,3.3,1.66,27.13,27.13,0,0,0,3.4,1.32,22.71,22.71,0,0,0,7,1.15,20,20,0,0,0,3.54-.21l1.74-.39.43-.1c.15-.05.28-.11.43-.15l.85-.28a32.2,32.2,0,0,0,6.56-3.23l.07.08-1.49,1.12a12.35,12.35,0,0,1-1.53,1.07A21.11,21.11,0,0,1,60,143.12l-.87.35-.44.17-.45.12-1.81.45a19.33,19.33,0,0,1-3.72.31,21.15,21.15,0,0,1-7.3-1.42,24.84,24.84,0,0,1-6.5-3.63Z"/><path class="cls-3" d="M42.3,126.7s13.25,9,23,.41"/><path class="cls-4" d="M42.33,126.65a52.28,52.28,0,0,0,5.76,2.06,30.42,30.42,0,0,0,5.84,1.13,19.6,19.6,0,0,0,5.82-.41l1.43-.39c.47-.16.91-.39,1.37-.58l.71-.27.66-.38c.43-.26.89-.5,1.36-.74l.06.07a15.5,15.5,0,0,1-5.36,3,17.14,17.14,0,0,1-6.13.67,24.46,24.46,0,0,1-6-1.39,27.88,27.88,0,0,1-5.54-2.71Z"/><path class="cls-3" d="M44.94,114.84s10.71,6.42,19.76.3"/><path class="cls-4" d="M45,114.8c1.67.55,3.33,1,5,1.35a31.21,31.21,0,0,0,5,.7,21.34,21.34,0,0,0,4.92-.28l1.23-.23,1.2-.38c.85-.16,1.58-.61,2.44-.86l.06.08A15.77,15.77,0,0,1,60,117.32a16.46,16.46,0,0,1-5.18.52,22.4,22.4,0,0,1-5.12-.93,24,24,0,0,1-4.79-2Z"/><path class="cls-3" d="M46.23,103.52s9.25,6.79,18.3.68"/><path class="cls-4" d="M46.26,103.48A39.27,39.27,0,0,0,50.8,105a24.12,24.12,0,0,0,4.57.77,16.71,16.71,0,0,0,4.57-.26c.38-.08.77-.12,1.15-.23l1.12-.35c.79-.17,1.48-.58,2.29-.81l.06.09a15.69,15.69,0,0,1-4.41,2.05,13.94,13.94,0,0,1-4.85.51,18.08,18.08,0,0,1-4.76-1,19.09,19.09,0,0,1-4.34-2.21Z"/><ellipse class="cls-1" cx="36.16" cy="34.4" rx="26.91" ry="19.17" transform="translate(-9.85 15.07) rotate(-20.79)"/><path class="cls-1" d="M29.35,28.71s-7.75-8.28-15.49-5.92S3.38,35,6.49,48.47,1.25,65,5.39,76.66,30.75,87.75,37.7,90.15s23.48,6.48,34.91-12.68c0,0,1.06-2.13,7.47-6.86s19-12,14.89-24.07S79,31.44,65.81,19.76,42.07,9.92,38.29,17.4a21.83,21.83,0,0,0-2.52,10"/><ellipse class="cls-5" cx="49.49" cy="34.4" rx="10.31" ry="11.48" transform="translate(-8.98 19.8) rotate(-20.79)"/><path class="cls-6" d="M59.18,30.72a12.36,12.36,0,0,1,.27,8.46,10.24,10.24,0,0,1-5.71,6.39,10.39,10.39,0,0,1-8.81-.46,12.79,12.79,0,0,1-6-15.7,10.45,10.45,0,0,1,6.28-6.19,10.29,10.29,0,0,1,8.52,1A12.33,12.33,0,0,1,59.18,30.72Zm-.09,0a12.2,12.2,0,0,0-5.44-6.33A9.51,9.51,0,0,0,39.78,29.7a12.34,12.34,0,0,0,5.57,14.65A9.51,9.51,0,0,0,59.23,39.1,12.23,12.23,0,0,0,59.09,30.75Z"/><ellipse class="cls-7" cx="49.42" cy="33.45" rx="3.91" ry="4.35" transform="translate(-8.65 19.72) rotate(-20.79)"/><ellipse class="cls-5" cx="50.43" cy="29.42" rx="1.73" ry="1.93" transform="translate(-7.16 19.81) rotate(-20.79)"/><ellipse class="cls-5" cx="22.18" cy="45.34" rx="10.31" ry="11.48" transform="translate(-14.65 10.82) rotate(-20.79)"/><path class="cls-6" d="M31.87,41.66a12.36,12.36,0,0,1,.27,8.46,10.28,10.28,0,0,1-5.71,6.4,10.39,10.39,0,0,1-8.81-.47,12.78,12.78,0,0,1-6-15.7,10.45,10.45,0,0,1,6.28-6.19,10.29,10.29,0,0,1,8.52,1A12.41,12.41,0,0,1,31.87,41.66Zm-.09,0a12.18,12.18,0,0,0-5.44-6.34,9.77,9.77,0,0,0-8.21-.68,9.76,9.76,0,0,0-5.66,6A12.35,12.35,0,0,0,18,55.29a9.76,9.76,0,0,0,8.2.71,9.77,9.77,0,0,0,5.68-6A12.14,12.14,0,0,0,31.78,41.7Z"/><ellipse class="cls-7" cx="22.79" cy="44.79" rx="3.91" ry="4.35" transform="translate(-14.41 11) rotate(-20.79)"/><ellipse class="cls-5" cx="23.58" cy="41.62" rx="1.73" ry="1.93" transform="translate(-13.23 11.08) rotate(-20.79)"/><path class="cls-8" d="M49,61.24s-3.34-3.72-.35-7S56,57.26,49,61.24Z"/><path class="cls-8" d="M34.71,68s-.13-4.94-4.18-5.51S27.56,69.39,34.71,68Z"/><path class="cls-9" d="M17.89,63.09S34.64,41,58.18,47.41"/><path class="cls-10" d="M17.85,63.06a50,50,0,0,1,8-8.14,45.89,45.89,0,0,1,9.76-6.06,32.38,32.38,0,0,1,11.14-3,28.88,28.88,0,0,1,11.39,1.49l0,.1a37.85,37.85,0,0,0-11.27-.59,36.2,36.2,0,0,0-5.55,1A34.32,34.32,0,0,0,36,49.6a44.77,44.77,0,0,0-9.77,5.71,49.78,49.78,0,0,0-8.28,7.81Z"/><path class="cls-11" d="M20.32,73.15S30.78,87.45,48.69,88,70.74,59.14,67,49c0,0,.32,18.78-18,27S20.32,73.15,20.32,73.15Z"/><path class="cls-12" d="M19.19,71.7A38.14,38.14,0,0,0,46.9,85.17c17.9.54,23.56-25.88,19.86-36,0,0-.53,17.19-18.84,25.43S19.19,71.7,19.19,71.7Z"/><path class="cls-13" d="M30.58,78.32s3.21,4.92,7.92,5,.45-5.39.45-5.39Z"/><path class="cls-13" d="M62.05,64.93s1.14,5.71-1.37,8.49-5.42-2.6-5.42-2.6Z"/><path class="cls-11" d="M17.83,70s8.56,13.45,29.62,3.73S66.76,49.18,66.76,49.18s1.57,17.4-18.24,25.88S20.75,74.66,17.83,70Z"/><path class="cls-14" d="M41.78,84.58s-.78-.8,3.16-3.81S51,79.61,51,79.61s.18-2.55,4.82-3.22,6.57.11,6.57.11a17.92,17.92,0,0,1-9.2,7.62A17.27,17.27,0,0,1,41.78,84.58Z"/><path class="cls-11" d="M18.64,67.6s-2.69.87,1,7.11C19.61,74.71,13.48,68.4,18.64,67.6Z"/><path class="cls-11" d="M63.39,49a7.65,7.65,0,0,1,7,3.37l-.18,2.94A7.72,7.72,0,0,0,71.18,51C71,48.46,63.39,49,63.39,49Z"/></svg>