<svg id="Layer_1" data-name="Layer 1" xmlns="http://www.w3.org/2000/svg" viewBox="0 0 100 180"><defs><style>.cls-1,.cls-10{fill:#f9c553;}.cls-1{stroke:#56230a;}.cls-1,.cls-2{stroke-miterlimit:10;}.cls-2,.cls-3{fill:#f7e8bc;}.cls-2{stroke:#664b10;}.cls-4{fill:#664b10;}.cls-5{fill:#569153;}.cls-6{fill:#fff;}.cls-7{fill:#2b3038;}.cls-8{fill:#212428;}.cls-9{fill:#721c4d;}.cls-11{fill:#56230a;}.cls-12{fill:#c64f1a;}.cls-13{fill:#68112c;}.cls-14{fill:#f9f4f5;}.cls-15{fill:#f28d16;}</style></defs><path class="cls-1" d="M35.12,79.84s.06.23.15.74c.41,2.52,1.43,11.78-1,33.12-2.93,25.68-10.69,36-10.69,36s7,13.79,25.7,21.42,26-27.21,26-27.21-11.71-29.71-5.16-69S35.12,79.84,35.12,79.84Z"/><path class="cls-2" d="M44.17,80s.12,19-1.24,33.36-7.1,32.5-10.39,38.9,28,13.15,33.11.48c0,0-2-13.53-3.14-36.89S63.81,77,63.81,77Z"/><path class="cls-3" d="M44.11,94.66s9.25,6.78,18.3.67"/><path class="cls-4" d="M44.14,94.62a39.33,39.33,0,0,0,4.55,1.54,22.65,22.65,0,0,0,4.56.77,17.09,17.09,0,0,0,4.57-.25c.38-.08.78-.13,1.15-.23l1.12-.36c.79-.17,1.48-.57,2.3-.8l0,.08a15.69,15.69,0,0,1-4.41,2,13.86,13.86,0,0,1-4.84.51,17.66,17.66,0,0,1-4.77-1,20.16,20.16,0,0,1-4.34-2.21Z"/><path class="cls-5" d="M36.69,143a26.88,26.88,0,0,0,3.3,1.67,26.49,26.49,0,0,0,3.4,1.31,22.08,22.08,0,0,0,7,1.15,18.36,18.36,0,0,0,3.55-.21l1.74-.39.43-.09.42-.15.86-.28A32.72,32.72,0,0,0,64,142.75l.07.07L62.56,144A12.27,12.27,0,0,1,61,145a20,20,0,0,1-3.33,1.69l-.86.35-.44.17-.45.11-1.82.46a20.16,20.16,0,0,1-3.72.31,21.48,21.48,0,0,1-7.3-1.42,25,25,0,0,1-6.49-3.63Z"/><path class="cls-3" d="M40.05,130.27s13.24,9,23,.41"/><path class="cls-4" d="M40.08,130.23a51.56,51.56,0,0,0,5.76,2.06,31.21,31.21,0,0,0,5.84,1.13A20,20,0,0,0,57.5,133l1.43-.39c.46-.17.9-.4,1.37-.58l.71-.28.66-.37c.43-.26.89-.51,1.36-.75l.06.08a15.66,15.66,0,0,1-5.36,3,16.94,16.94,0,0,1-6.13.66,24.34,24.34,0,0,1-6-1.38A27.72,27.72,0,0,1,40,130.31Z"/><path class="cls-3" d="M42.69,118.42s10.71,6.41,19.76.3"/><path class="cls-4" d="M42.71,118.38c1.66.55,3.33,1,5,1.35a31.06,31.06,0,0,0,4.94.69,20.88,20.88,0,0,0,4.93-.27l1.23-.23,1.2-.38c.85-.16,1.57-.62,2.44-.86l0,.08a16,16,0,0,1-4.73,2.14,16.67,16.67,0,0,1-5.17.52,22.75,22.75,0,0,1-5.12-.93,23.76,23.76,0,0,1-4.79-2Z"/><path class="cls-3" d="M44,107.1s9.26,6.79,18.31.67"/><path class="cls-4" d="M44,107.06a41.42,41.42,0,0,0,4.55,1.55,24.12,24.12,0,0,0,4.57.77,17.56,17.56,0,0,0,4.57-.26c.37-.08.77-.12,1.14-.23l1.13-.35c.79-.18,1.47-.58,2.29-.81l0,.08a15.58,15.58,0,0,1-4.41,2.06,13.85,13.85,0,0,1-4.84.5,17.59,17.59,0,0,1-4.76-1,19.37,19.37,0,0,1-4.35-2.21Z"/><ellipse class="cls-1" cx="50.87" cy="29.05" rx="19.17" ry="26.91" transform="translate(14.79 75.19) rotate(-81.7)"/><path class="cls-1" d="M47.68,20.76S44.94,9.76,37,8.06,21.94,13.61,18.1,26.92,5.49,38.81,3.43,51s16.78,22,21.69,27.5S42.48,95.6,61.79,84.41c0,0,2-1.35,9.86-2.37s22.47-1.21,24.71-13.8S89.77,47.29,83.9,30.67,67.94,10.53,61,15.23a21.74,21.74,0,0,0-7.08,7.53"/><ellipse class="cls-6" cx="62.52" cy="35.53" rx="11.48" ry="10.31" transform="translate(18.35 92.27) rotate(-81.7)"/><path class="cls-7" d="M72.78,37a12.39,12.39,0,0,1-3.88,7.53,10.27,10.27,0,0,1-8.1,2.81,10.4,10.4,0,0,1-7.47-4.69,12.78,12.78,0,0,1,2.42-16.61,10.4,10.4,0,0,1,8.5-2.36,10.26,10.26,0,0,1,7,5A12.38,12.38,0,0,1,72.78,37Zm-.1,0A12.2,12.2,0,0,0,71,28.83,9.51,9.51,0,0,0,56.32,26.7a12.37,12.37,0,0,0-2.26,15.51,9.51,9.51,0,0,0,14.68,2.16A12.17,12.17,0,0,0,72.68,37Z"/><ellipse class="cls-8" cx="61.33" cy="28.33" rx="4.35" ry="3.91" transform="matrix(0.14, -0.99, 0.99, 0.14, 24.45, 84.93)"/><ellipse class="cls-6" cx="64.05" cy="29.92" rx="1.93" ry="1.73" transform="matrix(0.14, -0.99, 0.99, 0.14, 25.2, 88.98)"/><ellipse class="cls-6" cx="33.34" cy="31.81" rx="11.48" ry="10.31" transform="matrix(0.14, -0.99, 0.99, 0.14, -2.96, 60.21)"/><path class="cls-7" d="M43.59,33.31a12.34,12.34,0,0,1-3.88,7.52,10.28,10.28,0,0,1-8.1,2.82A10.4,10.4,0,0,1,24.14,39a12.79,12.79,0,0,1,2.42-16.62A10.4,10.4,0,0,1,35.06,20a10.24,10.24,0,0,1,7,5A12.38,12.38,0,0,1,43.59,33.31Zm-.1,0a12.17,12.17,0,0,0-1.67-8.17A9.51,9.51,0,0,0,27.13,23,12.37,12.37,0,0,0,24.87,38.5a9.52,9.52,0,0,0,14.69,2.16A12.26,12.26,0,0,0,43.49,33.29Z"/><ellipse class="cls-8" cx="30.43" cy="24.95" rx="4.35" ry="3.91" transform="translate(1.35 51.46) rotate(-81.7)"/><ellipse class="cls-6" cx="33.73" cy="27.33" rx="1.93" ry="1.73" transform="translate(1.82 56.76) rotate(-81.7)"/><path class="cls-9" d="M49.07,58.76s-1.1-4.87,3.09-6.25S57.07,58.66,49.07,58.76Z"/><path class="cls-9" d="M33.26,57.73s2.29-4.38-1-6.85S26.35,55.45,33.26,57.73Z"/><path class="cls-10" d="M21,45.24s25.37-11.17,42.82,5.88"/><path class="cls-11" d="M20.94,45.19a50.39,50.39,0,0,1,11-3.2,45.94,45.94,0,0,1,11.48-.54,32,32,0,0,1,11.18,2.8,28.87,28.87,0,0,1,9.23,6.83l-.07.07a38,38,0,0,0-9.57-6,36.71,36.71,0,0,0-5.31-1.86,34.72,34.72,0,0,0-5.54-1.06A45.17,45.17,0,0,0,32,42.49a49.86,49.86,0,0,0-11,2.79Z"/><path class="cls-12" d="M18.19,55.21S20.38,72.8,35.77,82s33.29-14.49,35-25.12c0,0-8.85,16.56-28.86,14.87S18.19,55.21,18.19,55.21Z"/><path class="cls-13" d="M17.91,53.4A38.15,38.15,0,0,0,35.57,78.64C51,87.81,68.74,67.48,70.43,56.85c0,0-8.82,14.75-28.83,13.06S17.91,53.4,17.91,53.4Z"/><path class="cls-14" d="M24.64,64.72s.41,5.86,4.52,8.18,3-4.5,3-4.5Z"/><path class="cls-14" d="M58.65,68.32s-1.77,5.54-5.32,6.74-3.47-4.9-3.47-4.9Z"/><path class="cls-12" d="M17.54,51.26s.94,15.91,24.07,17.65S70.43,56.85,70.43,56.85s-7.09,16-28.52,13.74S17.83,56.74,17.54,51.26Z"/><path class="cls-15" d="M31.39,75.63s-.3-1.07,4.61-1.79,5.88,2,5.88,2,1.4-2.15,5.78-.48,5.68,3.29,5.68,3.29A17.88,17.88,0,0,1,41.6,80.78,17.22,17.22,0,0,1,31.39,75.63Z"/><path class="cls-12" d="M19.42,49.54s-2.78-.54-2.61,6.69C16.81,56.23,14.52,47.74,19.42,49.54Z"/><path class="cls-12" d="M67.56,55.07a7.64,7.64,0,0,1,4.51,6.37l-1.59,2.48a7.71,7.71,0,0,0,2.94-3.37C74.44,58.25,67.56,55.07,67.56,55.07Z"/></svg>