<svg id="Layer_1" data-name="Layer 1" xmlns="http://www.w3.org/2000/svg" viewBox="0 0 490 430"><defs><style>.cls-1{fill:#282828;opacity:0.5;}.cls-2{fill:#fff;}.cls-12,.cls-2,.cls-3,.cls-8{stroke:#4c3b0c;}.cls-10,.cls-12,.cls-19,.cls-2,.cls-3,.cls-5,.cls-7,.cls-8{stroke-miterlimit:10;}.cls-3{fill:#93402a;}.cls-4{fill:#d1a384;}.cls-18,.cls-5{fill:#e9ba26;}.cls-19,.cls-5{stroke:#664b10;}.cls-6{fill:#664b10;}.cls-7{fill:#f9803d;stroke:#56230a;}.cls-8{fill:none;}.cls-9{fill:#ba5224;}.cls-10{fill:#cc773e;stroke:#704018;}.cls-11{fill:#161616;opacity:0.3;}.cls-12,.cls-19{fill:#f7e8bc;}.cls-13{fill:#f9f9f7;}.cls-14{fill:#4c3b0c;}.cls-15{fill:#212428;}.cls-16{fill:#fafbfc;}.cls-17{fill:#422824;}.cls-19{stroke-width:2px;}</style></defs><ellipse class="cls-1" cx="287.01" cy="411.5" rx="176.11" ry="16.55"/><path class="cls-2" d="M451.51,93.33s-3.52,4.92-2.46,13S460,103.18,463.83,93,451.51,93.33,451.51,93.33Z"/><path class="cls-3" d="M198,137.82s47-14,65-32.67c0,0,27.28,54.92,54.56,71.44,0,0,4,6.82-14,10,0,0-18.3-14-35.53-5.39,0,0-20.47-16.87-38.05-12.92C229.94,168.33,238.19,145,198,137.82Z"/><path class="cls-3" d="M268,181.25s2.15-53.12-5-76.1c0,0-21.18,49.9-33,63.18"/><path class="cls-3" d="M315.37,189.15s-35.9-26.56-54.56-60.31c0,0-35.9,28.72-86.87,33,0,0,54.56,7.18,56,57.43,0,0,29.43-23,52.4,3.59C282.34,222.89,282.34,202.07,315.37,189.15Z"/><path class="cls-4" d="M229.89,219.29c2-7.71,4.34-15.34,6.69-23s4.9-15.16,7.44-22.72,5.19-15.07,7.85-22.58,5.35-15,8.09-22.5l1-2.82.69,2.92,5.51,23.49c1.81,7.84,3.67,15.66,5.38,23.52l5.14,23.57c1.63,7.88,3.23,15.76,4.68,23.67l-.1,0c-1.59-7.88-3.33-15.73-5.09-23.57l-5.38-23.52q-5.47-23.49-11.11-46.94h.19q-8.26,22.43-16.14,45c-2.62,7.52-5.2,15.06-7.68,22.63s-4.93,15.15-7.1,22.82Z"/><path class="cls-5" d="M340.82,72.47S364.57,32,343.23,4.69c0,0,.51-7.66,12.93,2.62s36.8,34,20.65,65.52C376.81,72.83,358.49,89.52,340.82,72.47Z"/><path class="cls-6" d="M380.28,38.8a13.58,13.58,0,0,1-2.88,2.93,16.22,16.22,0,0,1-3.49,2.07,19.87,19.87,0,0,1-7.83,1.7,22.12,22.12,0,0,1-7.88-1.14,10.47,10.47,0,0,1-6.05-4.91,10.33,10.33,0,0,0,6.13,4.67,21.77,21.77,0,0,0,7.78.88,19.3,19.3,0,0,0,7.53-1.87,15.83,15.83,0,0,0,3.26-2.08,12.76,12.76,0,0,0,2.58-2.78Z"/><path class="cls-6" d="M347.56,59a12,12,0,0,0,6.1,7.82,16.24,16.24,0,0,0,4.94,1.59c.87.06,1.74.21,2.61.21s1.76,0,2.64-.07A25.55,25.55,0,0,0,374,65.87a17,17,0,0,0,7.38-7.39,17.11,17.11,0,0,1-7.26,7.61,26.1,26.1,0,0,1-10.21,3c-.89.12-1.79.08-2.69.13s-1.79-.11-2.69-.15a17.25,17.25,0,0,1-5.19-1.54,12.82,12.82,0,0,1-6.75-8.32Z"/><path class="cls-6" d="M352.11,23a22.5,22.5,0,0,0,4.27.68,17.52,17.52,0,0,0,4.34-.2,11.55,11.55,0,0,0,4-1.54,9.27,9.27,0,0,0,2.85-3.3,9.41,9.41,0,0,1-2.7,3.5A11.79,11.79,0,0,1,360.82,24a18.16,18.16,0,0,1-4.47.46,23.59,23.59,0,0,1-4.49-.46Z"/><path class="cls-7" d="M295.74,398.7s26.57,5.36,27.23,5.47c6.7,1.11,44.39,7.35,53.89,9.48l4.12.8-1.15-5.33s10.15,1.68,16.37,4.8c0,0,1.8-1.27-.16-7.66a28.8,28.8,0,0,0,10.87,4.56c5.79.89-3.23-13.06-24.43-18.61S348,390.88,348,390.88s51.34-15.13,53.65-74.17c2-51.62-28.68-67.14-55.67-59.72"/><path class="cls-8" d="M379.83,409.12s-5.57-6.78-31.8-9.66"/><path class="cls-8" d="M396,406.26s-9.25-11-38.35-11.18"/><ellipse class="cls-9" cx="362.22" cy="331.19" rx="5.76" ry="4.47" transform="translate(5.78 668.6) rotate(-85.87)"/><ellipse class="cls-9" cx="362.81" cy="345.79" rx="5.14" ry="3.89" transform="translate(-17.43 672.32) rotate(-84.28)"/><ellipse class="cls-9" cx="370.1" cy="338.93" rx="3.54" ry="2.68" transform="translate(-4.04 673.4) rotate(-84.28)"/><path class="cls-10" d="M311.94,191.19a77.53,77.53,0,0,0-13.43,5.19c1.54.07,2.18,2.26,1.38,3.58s-2.38,1.89-3.86,2.33-3.06.89-4,2.08c-2,2.42-.2,6,1.58,8.54a13.52,13.52,0,0,0-11.35,24.14l-11.34-1.34c-1.82,2-2,5-1.67,7.76s1.2,5.36,1.15,8.09a4.18,4.18,0,0,1-.64,2.44c-.91,1.24-2.77,1.37-4.21.86a29.41,29.41,0,0,1-4-2.28,12,12,0,0,0-15.33,3.94c-1.08,1.71-1.69,3.68-2.77,5.38s-2.86,3.2-4.87,3.1c-2.64-.14-4.31-2.77-6.42-4.35-3.25-2.44-7.79-2.37-11.68-1.18s-7.4,3.35-11.17,4.86a2.31,2.31,0,0,1-2.29,0,2.47,2.47,0,0,1-.62-1.85,74.44,74.44,0,0,0-2-14.08c-.74-3.06-1.81-6.26-4.28-8.21-4.48-3.53-10.91-1.33-16.59-.88a2.55,2.55,0,0,1-1.48-.19,2.39,2.39,0,0,1-.94-1.46c-1.1-3.65-.28-7.56.13-11.35s.25-8-2.33-10.83c-3.25-3.54-8.84-3.32-13.56-2.4a80.61,80.61,0,0,0-17.16,5.37,46.37,46.37,0,0,0-4.37-11c-2-3.49-4.93-7-8.92-7.39a11.78,11.78,0,0,0-4,.46c-5.91,1.55-11.13,5.06-15.8,9-2.07,1.74-4.28,3.68-7,3.81-3.5.17-6.29-2.67-8.83-5.08a55.79,55.79,0,0,0-5.41-4.54c-1.31-1-2.82-1.9-4.42-1.65a6.3,6.3,0,0,0-3.28,2.1,93,93,0,0,0-15,19.65,93.72,93.72,0,0,1-20.29-1c-4.68-.75-9.83-1.78-13.88.68a14.22,14.22,0,0,0-4.24,4.39,14,14,0,0,0-2.5,5.79c-.41,3,.7,6,1,9a2.38,2.38,0,0,1-.59,2.24,2.19,2.19,0,0,1-1.36.33c-2.26,0-4.46-.77-6.72-.89a11.68,11.68,0,0,0-5.94,1.31c-2.46,1.3-4.55,4.11-3.66,6.74,1,2.82,4.74,3.94,5.61,6.78a1.73,1.73,0,0,1-.05,1.34,2.31,2.31,0,0,1-.79.7A8.1,8.1,0,0,0,15,263.71a4,4,0,0,0-.44,3.5c19,1.67,37.37-9.82,53-20.8s33.52-22.2,52.38-19.2c13.35,2.12,24.53,11.1,34.08,20.66s18.37,20.18,30,27.12c12.94,7.73,28.29,10.25,43.29,11.66,13,1.22,26.9,1.54,38.33-4.8,8.46-4.7,14.78-12.76,18.38-21.74,2.06-5.13,3.28-10.56,5.1-15.78C295.57,225.78,308.7,210.56,311.94,191.19Z"/><path class="cls-7" d="M398.66,319.3c-11.25,58-72.43,81.88-137.22,74.68q-8.15-.92-15.9-2.53C189.1,379.76,149,342.19,135,322c-15.29-22.05-28.14-37.6-62.78-44.35S3.65,309,3.65,309s-.08-.51-.15-1.48c-.64-8.28-.66-49.62,58.19-79.05,65.68-32.84,98.07-8.55,128.67,26.1,18.9,21.4,39.7,24.94,59.3,15.92,12.12-5.57,23.79-15.95,34.28-29.87,27.44-36.44,24.29-93.13,24.29-93.13l11-12.52,2-2.32s63.43-49,50.84,9.89c-.38,1.77-.71,3.54-1,5.3-6,40,15.07,80.27,24.66,120.12C400,285.15,402,302.3,398.66,319.3Z"/><path class="cls-11" d="M398.66,319.3c-11.25,58-72.43,81.88-137.22,74.68q-8.15-.92-15.9-2.53C189.1,379.76,149,342.19,135,322c-15.29-22.05-28.14-37.6-62.78-44.35S3.65,309,3.65,309s-.08-.51-.15-1.48c5.69-14.36,24.1-46.07,75-43.82,65.67,2.89,71.46,85.46,149.2,106.7s168,1.45,168-97.05c0-1.87,0-3.67.08-5.39C400,285.15,402,302.3,398.66,319.3Z"/><path class="cls-12" d="M397.78,321.88c-11.24,57.85-72.19,78.48-137,71.31q-8.15-.92-15.9-2.52c18.15.25,77.2-1.53,110.6-33.13,39.82-37.67,25.65-85.43,8.1-132.52s-13-83.34-13-83.34c3.71-2,15.48,6.1,19.89,6.1C361.84,204.82,408.7,265.76,397.78,321.88Z"/><path class="cls-7" d="M308.9,153.74s-4.72-27-6.41-45.89-4.72-30.37,14.17-50.27c16.11-17,48.63-17.52,72.51-17.31,4.14,0,8,.1,11.51.1,20.4,0,40.81,5.79,57.3,1.49a17.5,17.5,0,0,1,16.56,4.22c6.95,6.7,14.78,17.84,11.17,32.08-6.07,24-38.13,16.87-38.13,16.87s-18.89,4-17.54,24c0,0,0,16.53,33.06,15.18,0,0,7.76,17.54-22.6,9.78,0,0-9.12-3.71-23.62,0s-38.8,8.78-58.38.68l-8.93-2.6"/><path class="cls-11" d="M317.63,60c-18.9,19.91-15.86,31.38-14.17,50.28,1.21,13.57,4,31.33,5.46,40.25l-.09.14s4.26,51.44-23.18,87.88c-10.49,13.92-23.13,26.54-35.25,32.11C281,260.52,300,236,312.69,206.67c9.82-22.8,8.18-55.54,6.54-71.75l-.51.78c-.68-12-.87-25.66-.24-43C320.41,39.61,389.94,43,389.94,43l.2-.31C366.26,42.48,333.74,43,317.63,60Z"/><path class="cls-7" d="M252.89,314.35s28-10.58,43.19-11.47c34.42-2,48.59,33.06,27,66.81-9.48,14.8-30.37,30.36-30.37,30.36s36-2.76,39.81,22.05l-8.65-1.56a8.66,8.66,0,0,1-.61,5.44c-1.32,2.55-15.16-4.59-15.16-4.59s6.25,6.42-11.31,3.31S262,420,250,420.45s-16.08-4.11-14.66-12.3,26.48-21.48,19.57-37.11c0,0-.34-6.08-17.89-3.72"/><path class="cls-8" d="M323.87,420.54s-1.36-11.88-26.54-16.16"/><path class="cls-8" d="M308.1,421.39S306,412.49,286.46,407"/><ellipse class="cls-9" cx="266.33" cy="350.22" rx="6.89" ry="6.33" transform="translate(-152.34 485.48) rotate(-70.65)"/><ellipse class="cls-9" cx="266.71" cy="367.58" rx="6.16" ry="5.49" transform="translate(-169.62 493.51) rotate(-70.13)"/><ellipse class="cls-9" cx="277.32" cy="359.55" rx="4.24" ry="3.78" transform="translate(-155.07 498.19) rotate(-70.13)"/><path class="cls-7" d="M355.47,207.73s-24.3-5.4-45.44,7.19l-6.75,2.25,9,5-14.4,10.35,12.15-2.7s-12.15,19.35,24.29,49.49l-.66.08a3.05,3.05,0,0,0-2.05,4.91c3.59,4.55,9.74,9.76,14-.49,0,0,2.7,14.84,10.8,3.15,0,0,10.79,2.7,9.44-12.6,0,0,9-2.25,3.15-12.15,0,0-.9-3.15-11.69-5.85s-17.77-16.64-17.77-16.64,14.39,18.67,23.17-6.75"/><path class="cls-8" d="M345.12,284.43s1.57-2.47-2-9.67"/><path class="cls-8" d="M356.37,286.91s1.12-5.4-4.95-14.85"/><path class="cls-8" d="M365.81,274.31s-.22-3.82-8.77-9.67"/><path class="cls-8" d="M340.4,241.24s-1.58-2-2.7-9.89"/><circle class="cls-13" cx="383.47" cy="84.57" r="16.2"/><path class="cls-14" d="M399.72,84.57a16.34,16.34,0,0,1-4.67,11.57,16.67,16.67,0,0,1-23.58.43,16.69,16.69,0,0,1,0-24,16.68,16.68,0,0,1,23.58.42A16.39,16.39,0,0,1,399.72,84.57Zm-.1,0A16.13,16.13,0,1,0,394.88,96,16.18,16.18,0,0,0,399.62,84.57Z"/><circle class="cls-15" cx="392.33" cy="86.68" r="7.17"/><circle class="cls-16" cx="390.05" cy="81.14" r="2.61"/><path class="cls-15" d="M462.54,72.16a7.34,7.34,0,0,1,1.11-8.59,5.9,5.9,0,0,1,10.27,3.29c0,.07,0,.13,0,.2C474.54,73.81,471.39,68.26,462.54,72.16Z"/><path class="cls-17" d="M466.29,51s-9.9,3-11.1,12.89,4.05,14.25,4.05,14.25-9.45-4.2-7.05-15.45S466.29,51,466.29,51Z"/><ellipse class="cls-9" cx="330.05" cy="103.13" rx="11.47" ry="10.35"/><ellipse class="cls-9" cx="349.41" cy="85.69" rx="5.86" ry="5.29"/><ellipse class="cls-9" cx="364.69" cy="113.36" rx="5.29" ry="8.1" transform="translate(129.39 414.17) rotate(-69.23)"/><path class="cls-5" d="M339.27,68S306.2,48.69,310.93,21.47c0,0-3.38-5.17-8.32,6.75S289.33,66,313.4,82C313.4,82,333.2,86.71,339.27,68Z"/><path class="cls-18" d="M297.73,59.11s5.7,3.15,13.35-.9,7.05-9,7.05-9"/><path class="cls-6" d="M298,58.68a12.58,12.58,0,0,0,6,1.19,16,16,0,0,0,6.13-1.48,18,18,0,0,0,5.3-3.52,8.22,8.22,0,0,0,2.69-5.65,8.36,8.36,0,0,1-2.5,5.82,18.56,18.56,0,0,1-5.28,3.8,16.59,16.59,0,0,1-6.3,1.78,13.25,13.25,0,0,1-6.56-1.07Z"/><path class="cls-18" d="M329.52,61.06s2.85,8.25-7.94,13-17.1-.45-17.1-.45"/><path class="cls-6" d="M330,60.9a10.07,10.07,0,0,1-1.74,8.6,16.2,16.2,0,0,1-7.11,5,21.88,21.88,0,0,1-8.51,1.7,14.33,14.33,0,0,1-8.16-2.59A14.22,14.22,0,0,0,312.64,76,21.47,21.47,0,0,0,321,74.09a15.46,15.46,0,0,0,6.7-5,9.17,9.17,0,0,0,1.4-7.83Z"/><path class="cls-18" d="M312,38s-7.5,6.75-13.2,2.55"/><path class="cls-6" d="M312.31,38.34a19.29,19.29,0,0,1-3.11,2,15.11,15.11,0,0,1-3.43,1.35,9.89,9.89,0,0,1-3.67.25,7.94,7.94,0,0,1-3.32-1.45,7.74,7.74,0,0,0,3.35,1.2,9.66,9.66,0,0,0,3.5-.48,14.22,14.22,0,0,0,3.2-1.52,18.47,18.47,0,0,0,2.81-2.12Z"/><path class="cls-19" d="M369.63,171.94s3.87,6-18.3,3.52"/><path class="cls-19" d="M373.85,195.52s6.69,10.92-14.08,17.6"/><path class="cls-19" d="M384.06,231.07s5.28,8.1-14.43,11.62"/><path class="cls-19" d="M391.45,253.6s13,13.37-11.26,29.21"/><path class="cls-19" d="M399.19,294.78S406.58,305,378.07,318"/><path class="cls-19" d="M395.5,331.38s2.64,15.13-33.47,19.49"/><ellipse class="cls-9" cx="125.28" cy="264.1" rx="5.29" ry="9.36" transform="matrix(0.25, -0.97, 0.97, 0.25, -161.85, 318.83)"/><ellipse class="cls-9" cx="150.09" cy="256.7" rx="5.29" ry="9.36" transform="translate(-136.14 337.32) rotate(-75.42)"/><ellipse class="cls-9" cx="152.93" cy="275.01" rx="1.81" ry="3.21" transform="translate(-151.73 353.76) rotate(-75.42)"/></svg>