<svg id="Layer_1" data-name="Layer 1" xmlns="http://www.w3.org/2000/svg" viewBox="0 0 100 180"><defs><style>.cls-1,.cls-9{fill:#f7be3e;}.cls-1{stroke:#56230a;}.cls-1,.cls-2{stroke-miterlimit:10;}.cls-2,.cls-3{fill:#f7e8bc;}.cls-2{stroke:#664b10;}.cls-4{fill:#664b10;}.cls-5{fill:#fff;}.cls-6{fill:#2b3038;}.cls-7{fill:#212428;}.cls-8{fill:#721c4d;}.cls-10{fill:#56230a;}.cls-11{fill:#c64f1a;}.cls-12{fill:#68112c;}.cls-13{fill:#f9f4f5;}.cls-14{fill:#f28d16;}</style></defs><path class="cls-1" d="M32.65,78.7s.06.23.15.74c.41,2.52,1.43,11.78-1,33.12-2.92,25.68-10.68,36-10.68,36s7,13.79,25.7,21.42,26-27.21,26-27.21-11.71-29.71-5.16-69S32.65,78.7,32.65,78.7Z"/><path class="cls-2" d="M41.7,78.84s.12,19-1.24,33.36-7.1,32.5-10.39,38.91,28,13.14,33.1.47c0,0-2-13.53-3.14-36.89S61.34,75.9,61.34,75.9Z"/><path class="cls-3" d="M41.64,93.52s9.25,6.78,18.3.67"/><path class="cls-4" d="M41.67,93.48A39.33,39.33,0,0,0,46.22,95a22.53,22.53,0,0,0,4.56.77,17.11,17.11,0,0,0,4.57-.25c.38-.08.77-.13,1.15-.23L57.62,95c.79-.17,1.48-.57,2.29-.8l.06.08a15.41,15.41,0,0,1-4.41,2,13.91,13.91,0,0,1-4.84.51,17.66,17.66,0,0,1-4.77-1,19.93,19.93,0,0,1-4.34-2.21Z"/><path class="cls-3" d="M34.18,141.87s13.6,11.46,27.36-.22"/><path class="cls-4" d="M34.21,141.83a27,27,0,0,0,3.31,1.67,26.35,26.35,0,0,0,3.39,1.31A22.18,22.18,0,0,0,48,146a18.21,18.21,0,0,0,3.54-.21l1.74-.39.44-.09c.14-.05.28-.11.42-.15l.85-.28a32.8,32.8,0,0,0,6.57-3.23l.06.07-1.49,1.13a11.47,11.47,0,0,1-1.52,1.06,20,20,0,0,1-3.33,1.69l-.87.35-.43.17-.45.11-1.82.46a20.16,20.16,0,0,1-3.72.31,21.48,21.48,0,0,1-7.3-1.42,25,25,0,0,1-6.49-3.63Z"/><path class="cls-3" d="M37.58,129.13s13.24,9,23,.41"/><path class="cls-4" d="M37.61,129.09a51.56,51.56,0,0,0,5.76,2.06,31.26,31.26,0,0,0,5.83,1.13,20,20,0,0,0,5.83-.41l1.43-.39c.46-.17.9-.4,1.37-.58l.71-.28.65-.37c.44-.26.89-.51,1.36-.75l.07.08a15.66,15.66,0,0,1-5.36,3,17,17,0,0,1-6.14.66,24.37,24.37,0,0,1-6-1.38,27.46,27.46,0,0,1-5.55-2.72Z"/><path class="cls-3" d="M40.21,117.28s10.72,6.41,19.77.3"/><path class="cls-4" d="M40.24,117.24c1.66.55,3.33,1,5,1.35a30.9,30.9,0,0,0,4.94.69,20.91,20.91,0,0,0,4.93-.27l1.23-.23,1.2-.38c.85-.16,1.57-.62,2.44-.86l0,.08a16,16,0,0,1-4.73,2.14,16.67,16.67,0,0,1-5.17.52,22.75,22.75,0,0,1-5.12-.93,23.76,23.76,0,0,1-4.79-2Z"/><path class="cls-3" d="M41.5,106s9.26,6.79,18.3.67"/><path class="cls-4" d="M41.53,105.92a41.42,41.42,0,0,0,4.55,1.55,24.15,24.15,0,0,0,4.56.77,17.61,17.61,0,0,0,4.58-.26c.37-.08.77-.12,1.14-.23l1.12-.35c.79-.18,1.48-.58,2.3-.81l0,.08a15.71,15.71,0,0,1-4.41,2.06,13.85,13.85,0,0,1-4.84.5,17.74,17.74,0,0,1-4.77-1A19.51,19.51,0,0,1,41.47,106Z"/><ellipse class="cls-1" cx="42.93" cy="28.76" rx="26.91" ry="19.17" transform="translate(-3.16 5.39) rotate(-6.93)"/><path class="cls-1" d="M37.68,21.6s-5.54-9.89-13.62-9.46S11,21.46,10.75,35.31,1.7,50.1,2.93,62.42s22,16.84,28.15,20.83S52.31,95.17,68,79.31c0,0,1.54-1.81,8.9-4.88s21.36-7.07,20.22-19.8-11.87-18.48-21.9-33S54.53,6.41,49.07,12.76a21.9,21.9,0,0,0-4.85,9.13"/><ellipse class="cls-5" cx="55.88" cy="31.95" rx="10.31" ry="11.48" transform="translate(-3.45 6.97) rotate(-6.93)"/><path class="cls-6" d="M66.16,30.7A12.33,12.33,0,0,1,64.4,39a10.27,10.27,0,0,1-7.08,4.84,10.4,10.4,0,0,1-8.44-2.56,12.8,12.8,0,0,1-2-16.67,10.44,10.44,0,0,1,7.58-4.51,10.26,10.26,0,0,1,8,3A12.23,12.23,0,0,1,66.16,30.7Zm-.09,0a12.23,12.23,0,0,0-3.77-7.45,9.51,9.51,0,0,0-14.73,1.81,12.37,12.37,0,0,0,1.89,15.55A9.52,9.52,0,0,0,64.2,38.85,12.22,12.22,0,0,0,66.07,30.71Z"/><ellipse class="cls-7" cx="56.03" cy="31.02" rx="3.91" ry="4.35" transform="translate(-3.33 6.99) rotate(-6.93)"/><ellipse class="cls-5" cx="57.98" cy="27.34" rx="1.73" ry="1.93" transform="translate(-2.88 7.2) rotate(-6.93)"/><ellipse class="cls-5" cx="26.74" cy="36.03" rx="10.31" ry="11.48" transform="translate(-4.15 3.49) rotate(-6.93)"/><path class="cls-6" d="M37,34.78a12.38,12.38,0,0,1-1.77,8.28,10.24,10.24,0,0,1-7.08,4.84,10.41,10.41,0,0,1-8.44-2.56,12.78,12.78,0,0,1-2-16.67,10.38,10.38,0,0,1,7.58-4.5,10.24,10.24,0,0,1,8,3A12.39,12.39,0,0,1,37,34.78Zm-.1,0a12.19,12.19,0,0,0-3.76-7.45,9.51,9.51,0,0,0-14.73,1.81A12.33,12.33,0,0,0,20.33,44.7a9.51,9.51,0,0,0,14.73-1.77A12.2,12.2,0,0,0,36.93,34.79Z"/><ellipse class="cls-7" cx="27.46" cy="35.65" rx="3.91" ry="4.35" transform="translate(-4.1 3.57) rotate(-6.93)"/><ellipse class="cls-5" cx="28.99" cy="32.76" rx="1.73" ry="1.93" transform="translate(-3.74 3.74) rotate(-6.93)"/><path class="cls-8" d="M49,57.9s-2.34-4.41,1.34-6.85S56.68,55.7,49,57.9Z"/><path class="cls-8" d="M33.47,61.05s1.06-4.82-2.74-6.35S26.2,60.67,33.47,61.05Z"/><path class="cls-9" d="M18.32,52.23S39.87,34.8,61.19,46.66"/><path class="cls-10" d="M18.29,52.2a49.47,49.47,0,0,1,9.76-6A45.53,45.53,0,0,1,39,42.68a32.14,32.14,0,0,1,11.53-.23,28.75,28.75,0,0,1,10.7,4.17l-.05.09a37.52,37.52,0,0,0-10.8-3.27,35.21,35.21,0,0,0-5.61-.4,34.27,34.27,0,0,0-5.63.43,45,45,0,0,0-10.86,3.21,50.36,50.36,0,0,0-9.91,5.59Z"/><path class="cls-11" d="M18.27,62.59S25,79,42.26,83.79,70.57,61.06,69.41,50.36c0,0-4.19,18.31-23.95,21.93S18.27,62.59,18.27,62.59Z"/><path class="cls-12" d="M17.52,60.91A38.13,38.13,0,0,0,41.19,80.62C58.45,85.44,70.27,61.14,69.1,50.44c0,0-4.63,16.56-24.38,20.18S17.52,60.91,17.52,60.91Z"/><path class="cls-13" d="M27,70.06s1.94,5.55,6.51,6.71,1.72-5.13,1.72-5.13Z"/><path class="cls-13" d="M60.75,64.61s-.26,5.81-3.36,7.9-4.64-3.82-4.64-3.82Z"/><path class="cls-11" d="M16.6,59s5.09,15.1,27.87,10.71S69.1,50.44,69.1,50.44,66.46,67.71,45.2,71.19,18.32,64.16,16.6,59Z"/><path class="cls-14" d="M36.37,78.82s-.57-.95,4-2.93,6.18.33,6.18.33.79-2.44,5.45-2,6.35,1.69,6.35,1.69a17.89,17.89,0,0,1-10.75,5.18A17.19,17.19,0,0,1,36.37,78.82Z"/><path class="cls-11" d="M18,56.79s-2.82.21-.76,7.14C17.21,63.93,12.76,56.34,18,56.79Z"/><path class="cls-11" d="M65.87,49.48a7.66,7.66,0,0,1,6,5L71,57.26a7.7,7.7,0,0,0,1.95-4C73.34,50.74,65.87,49.48,65.87,49.48Z"/></svg>