<svg id="Layer_1" data-name="Layer 1" xmlns="http://www.w3.org/2000/svg" viewBox="0 0 90 150"><defs><style>.cls-1{opacity:0.4;}.cls-2{fill:#161616;}.cls-3{fill:#ff9f2c;stroke:#b5650d;}.cls-14,.cls-3,.cls-6,.cls-9{stroke-miterlimit:10;}.cls-4{fill:#b5650d;}.cls-5{fill:#35374c;}.cls-6{fill:#35467a;stroke:#1d2c54;}.cls-7{fill:#233559;}.cls-8{fill:#2b3245;}.cls-17,.cls-9{fill:#eee1b7;}.cls-9{stroke:#3d3c21;stroke-width:2px;}.cls-10{fill:#fff;}.cls-11{fill:#1b1b26;}.cls-12{fill:#191928;}.cls-13{fill:#f9f5f2;}.cls-14{fill:#faa02c;stroke:#af6617;}.cls-15{fill:#ad2737;}.cls-16{fill:#ad886f;}.cls-18{fill:#3d3c21;}</style></defs><g class="cls-1"><ellipse class="cls-2" cx="42.13" cy="138" rx="39" ry="10"/></g><path class="cls-3" d="M21.94,126.27s1.18,4.42-1,7.93c-1.47,2.32,2.62,4.07,2.62,4.07l9.21,6.56a1.38,1.38,0,0,0,1.91-.28c.72-.92,2.19-1.77,5-.09,0,0,.43-3.92,4.59-1.56,0,0-2-3.12,2.35-2l-4.68-3.3a12.19,12.19,0,0,0-1.24-.77,44.26,44.26,0,0,0-8-3.14l-2.88-.92-.3-4.82S24.66,121.86,21.94,126.27Z"/><path class="cls-4" d="M39.47,144.55a21.84,21.84,0,0,1-3.84-.52,7.6,7.6,0,0,1-2.51-1.13,8,8,0,0,1-2-2,11.1,11.1,0,0,1-.89-1.52,12.21,12.21,0,0,1-.83-2.11l.13-.38,1.54.5c.5.21,1,.4,1.49.64a20.83,20.83,0,0,1,2.83,1.61,18.45,18.45,0,0,1,2.49,2.1,10.78,10.78,0,0,1,1.94,2.64Z"/><path class="cls-4" d="M43.84,142.45a22,22,0,0,1-3.38-.93,12.24,12.24,0,0,1-4.67-3.19,10.89,10.89,0,0,1-1-1.3,10,10,0,0,1-1-1.72l.1-.28,1.51.51c.49.21,1,.41,1.46.64a23.22,23.22,0,0,1,2.8,1.56,19.25,19.25,0,0,1,2.47,2,10,10,0,0,1,2,2.53Z"/><path class="cls-4" d="M30.14,133.17a27.57,27.57,0,0,0-2,2.34,2.55,2.55,0,0,1-1.32.93,3.36,3.36,0,0,1-1.8-.16,8.08,8.08,0,0,1-1.28-.5,11.78,11.78,0,0,1-1.7-1l-.2-.34.92-.62,1-.53a12.53,12.53,0,0,1,2.1-.77,8.46,8.46,0,0,1,2.25-.27,4.78,4.78,0,0,1,2.23.53Z"/><path class="cls-3" d="M47.3,126.11s1.09,1-.76,4.67c-1.22,2.46,2.6,3.77,2.6,3.77L59,140.13a1.41,1.41,0,0,0,1.88-.48c.61-1,2-2,5-.62,0,0,0-3.94,4.4-2,0,0-2.33-2.89,2.14-2.19l-5-2.79a13,13,0,0,0-1.3-.64,44.1,44.1,0,0,0-8.29-2.29l-3-.62.45-4S49.55,121.44,47.3,126.11Z"/><path class="cls-4" d="M65.65,139.14a21.35,21.35,0,0,1-3.88-.12,7.5,7.5,0,0,1-2.61-.86,8.12,8.12,0,0,1-2.19-1.8,13.37,13.37,0,0,1-2.09-3.43l.1-.39,1.58.34c.52.15,1,.28,1.55.47a21.91,21.91,0,0,1,3,1.31,18.21,18.21,0,0,1,2.69,1.83,10.84,10.84,0,0,1,2.2,2.43Z"/><path class="cls-4" d="M69.78,136.6a20.59,20.59,0,0,1-3.46-.58,12.16,12.16,0,0,1-5-2.68,11,11,0,0,1-1.16-1.19A9.59,9.59,0,0,1,59,130.54l.07-.29,1.56.35c.5.17,1,.31,1.52.49a24.53,24.53,0,0,1,2.94,1.26,19.61,19.61,0,0,1,2.67,1.77A10.2,10.2,0,0,1,70,136.43Z"/><path class="cls-4" d="M55.18,128.8a28.13,28.13,0,0,0-1.74,2.53,2.61,2.61,0,0,1-1.22,1.06,3.44,3.44,0,0,1-1.8,0,7.5,7.5,0,0,1-1.32-.37,12.5,12.5,0,0,1-1.8-.77l-.24-.33.86-.7.92-.63a12.94,12.94,0,0,1,2-1,8.68,8.68,0,0,1,2.2-.5,4.72,4.72,0,0,1,2.28.3Z"/><path class="cls-5" d="M41,13.08s-4.23-10.33.4-11,.74,11.34.74,11.34Z"/><path class="cls-5" d="M43.74,9.56s2.79-5.51,4.53-3.11S44,10.29,44,10.29Z"/><path class="cls-5" d="M40.72,9.67s-2.66-3.84-7.08-3.82S40.72,9.67,40.72,9.67Z"/><path class="cls-6" d="M67.25,83S84,102.71,63,120.45C63,120.45,49.44,102.5,67.25,83Z"/><path class="cls-7" d="M55.1,124.85c0-.73-1-2.84-.66-4.79C61.09,107.44,66.73,90.52,48,75.22,35.62,65.11,30.08,67.49,26.91,97.3c3.67,24,18.38,27.19,19,29.05l.43.86c.57.65-.22,2.4.63,2.56,1.93.36,6.85-.72,7.82-2.4A24.56,24.56,0,0,0,55.1,124.85Z"/><path class="cls-8" d="M58.5,45.15c.36,1,2.87,18.29,24,20,0,0,10.55-.9,3.29,7.24s-24.2,9.18-33.54-2.92S58.5,45.15,58.5,45.15Z"/><path class="cls-5" d="M57,40c1.1-.78,9.36-7.72,2.7-21S28.92,6.56,20.86,15.55s-7,20.92-9.62,32.67S2.08,80.55,1.73,95.59,7.26,121.94,21.44,127,59,131.09,67.25,114.46,65,66.05,61.37,56.1,55.32,41.27,57,40Z"/><path class="cls-9" d="M63.1,119.27c-20.36,15.94-40-3.1-41.89-21.78C19.69,82.17,23.53,65.69,25,49.77c.31-3.49.51-7,.51-10.37,0,0-1.27-17.86,9.34-21.43,8-2.69,13.6,1.9,14.11,9.47.17,2.5.59,5.85-.45,8.84,0,0,2.76,2.9,7.11-1.56a13.51,13.51,0,0,1-2.06-4.52,10.76,10.76,0,0,1,.83-7.7c2.89-5.6,9.67,1,7.29,9v0a13.52,13.52,0,0,1-1.46,3.2s3.79,1.61,1.14,8c-3.4,8.12,3.45,21.78,5.76,32.16S74,110.72,63.1,119.27Z"/><ellipse class="cls-10" cx="42.58" cy="29.31" rx="4.75" ry="5.51" transform="translate(-1.02 1.54) rotate(-2.04)"/><path class="cls-11" d="M47.37,29.13A6.15,6.15,0,0,1,46.29,33a4.78,4.78,0,0,1-3.5,2.17,4.92,4.92,0,0,1-4-1.62,6.39,6.39,0,0,1-.29-8.21,4.88,4.88,0,0,1,3.86-1.89A4.78,4.78,0,0,1,46,25.35,6.13,6.13,0,0,1,47.37,29.13Zm-.08,0a6,6,0,0,0-1.4-3.67,4.25,4.25,0,0,0-6.86.26,5.88,5.88,0,0,0-1.12,3.74,6,6,0,0,0,1.38,3.66,4.26,4.26,0,0,0,6.86-.23A6,6,0,0,0,47.29,29.14Z"/><ellipse class="cls-12" cx="44.08" cy="29.14" rx="2.93" ry="3.93" transform="translate(-1.96 3.21) rotate(-4.09)"/><ellipse class="cls-13" cx="42.44" cy="28.59" rx="0.95" ry="1.06" transform="translate(-1.93 3.1) rotate(-4.09)"/><ellipse class="cls-10" cx="57.05" cy="28.8" rx="3.03" ry="4.77" transform="translate(-0.16 0.32) rotate(-0.32)"/><path class="cls-11" d="M60.11,28.65a7.76,7.76,0,0,1-.52,3.07,4.46,4.46,0,0,1-.83,1.38,2.74,2.74,0,0,1-1.52.83,2.56,2.56,0,0,1-1.76-.43,4.1,4.1,0,0,1-1.22-1.27,6.88,6.88,0,0,1-.17-6.53,4.45,4.45,0,0,1,1.09-1.36,2.76,2.76,0,0,1,1.67-.65,2.42,2.42,0,0,1,1.62.61,4.07,4.07,0,0,1,1,1.31A7.45,7.45,0,0,1,60.11,28.65Zm-.08,0a6.47,6.47,0,0,0-.75-3,2.68,2.68,0,0,0-2.4-1.59A3,3,0,0,0,54.67,26a6.82,6.82,0,0,0-.57,3,6.57,6.57,0,0,0,.73,2.95,2.67,2.67,0,0,0,2.38,1.6,2.92,2.92,0,0,0,2.23-1.87A6.8,6.8,0,0,0,60,28.65Z"/><ellipse class="cls-12" cx="58.13" cy="29.25" rx="2" ry="3.38"/><ellipse class="cls-13" cx="56.8" cy="27.81" rx="0.62" ry="0.92"/><path class="cls-14" d="M53.53,43.22c-1.91.13-9-4.69-9-6.06h0a.09.09,0,0,1,0,0c0-.05.15,0,.38.07l.16,0a3.12,3.12,0,0,0,1.3.11c1.35-.25,3.46-2.94,6.27-4.93a.68.68,0,0,1,.22-.12.35.35,0,0,1,.17-.06l.19,0a.33.33,0,0,1,.14,0,.47.47,0,0,1,.16,0l.16,0h0a.79.79,0,0,1,.16.08l.17.1c1.45,1,2.82,4.27,3.83,4.12h0a.3.3,0,0,1,.13,0c.24,0,.72,0,.81.32a2.19,2.19,0,0,1,0,.26.28.28,0,0,0,0,.06C58.87,38.48,54.61,43.15,53.53,43.22Z"/><path class="cls-15" d="M55.07,40.5a12.79,12.79,0,0,1-5.35-1.45c-.91-.37-4.78-1.88-4.78-1.88S51.28,39,52.22,39a5.82,5.82,0,0,0,3.3-1.42s1,.93,1.62.69a1.5,1.5,0,0,0,.59-.24C57.42,38.69,56.63,40.48,55.07,40.5Z"/><path class="cls-14" d="M58.13,37.72a4.12,4.12,0,0,1-.72.43,1.77,1.77,0,0,1-1.89-.58A6,6,0,0,1,52.22,39a25.93,25.93,0,0,1-4.67-.89c-1.55-.41-3-.94-3-.94h0s.16,0,.37,0l.16,0a3.12,3.12,0,0,0,1.3.11c1.35-.25,3.46-2.94,6.27-4.93a.68.68,0,0,1,.22-.12.35.35,0,0,1,.17-.06l.19,0a.33.33,0,0,1,.14,0,.47.47,0,0,1,.16,0l.16,0h0a.79.79,0,0,1,.16.08l.17.1c1.45,1,2.82,4.27,3.83,4.12h0a.3.3,0,0,1,.13,0c.24,0,.72,0,.81.32A4.29,4.29,0,0,1,58.13,37.72Z"/><path class="cls-5" d="M25.44,41.94c-.12.92.07,16,9.83,21.33C55.2,74.15,55.73,85.9,50.31,88c-6.4,2.54-38.39-13.77-40.47-31.4"/><path class="cls-16" d="M44.54,36.35a2,2,0,0,0-.7.06.43.43,0,0,0-.22.2.49.49,0,0,0,0,.3,2.41,2.41,0,0,0,.19.67l.3.67a3.48,3.48,0,0,1-.43-.6,2.22,2.22,0,0,1-.26-.72.87.87,0,0,1,.07-.41.56.56,0,0,1,.34-.25,1.23,1.23,0,0,1,.38,0A1.36,1.36,0,0,1,44.54,36.35Z"/><path class="cls-16" d="M58.93,36.05a.85.85,0,0,1,.31-.09.66.66,0,0,1,.34,0,.39.39,0,0,1,.16.1.44.44,0,0,1,.1.16.69.69,0,0,1,0,.35,1.9,1.9,0,0,1-.21.62,3.17,3.17,0,0,1-.36.54c.08-.2.16-.4.23-.59a2.78,2.78,0,0,0,.17-.59c0-.2,0-.39-.18-.47a.82.82,0,0,0-.29-.07A1.63,1.63,0,0,0,58.93,36.05Z"/><path class="cls-5" d="M1.7,100.47c3.67,24,16.6,28,19.86,30.45h0a3.94,3.94,0,0,0,2.26,1.28c1.93.34,4.74.08,6-1.27,0,0,1.75-2.68,1.73-3.27s-2.68-2.48-2.31-4.43c6.64-12.62,11-29.37-7.76-44.67"/><path class="cls-5" d="M34.3,65.74c.51-1.27,13.27-1,13.5,2.57s-6.48-.59-3.93,6.09S30.24,75.75,34.3,65.74Z"/><path class="cls-8" d="M70.33,61.29c-.91.59,1.42,6.88,4.24,6.07S73,64.28,78.69,63.82,77.49,56.67,70.33,61.29Z"/><path class="cls-17" d="M32.19,19.46S27,21.7,25.48,28.72c-1.85,8.38-2.65,19.62,15.93,21.51"/><path class="cls-18" d="M32.23,19.56a13.07,13.07,0,0,0-3.5,3.93,17.35,17.35,0,0,0-1.11,2.3A17.61,17.61,0,0,0,27,28.23a31.68,31.68,0,0,0-.39,10.18A11.2,11.2,0,0,0,31.66,46a39.44,39.44,0,0,0,9.76,4.09l0,.2a27.7,27.7,0,0,1-10.54-2.88,12.84,12.84,0,0,1-4.15-3.61,12.05,12.05,0,0,1-2.09-5.09,27.35,27.35,0,0,1,.94-10.91,13.33,13.33,0,0,1,6.59-8.47Z"/><path class="cls-17" d="M61.81,40.6a10.89,10.89,0,0,1-8.17,8.18"/><path class="cls-18" d="M61.81,40.6a7.08,7.08,0,0,1-.74,3A9.05,9.05,0,0,1,56.64,48a8.61,8.61,0,0,1-3,.79,29.72,29.72,0,0,0,2.62-1.47,13.5,13.5,0,0,0,2.28-1.82,13,13,0,0,0,1.85-2.25A16.23,16.23,0,0,0,61.81,40.6Z"/></svg>