<svg id="Layer_1" data-name="Layer 1" xmlns="http://www.w3.org/2000/svg" viewBox="0 0 930 110"><defs><style>.cls-1{fill:#c69c6a;}.cls-2{fill:#836133;}</style></defs><path class="cls-1" d="M926.45,66.27c0,20.76-217.14,38.11-466.37,38.11s-509.87-9.79-447-35c22-8.85,203.25-35,452.48-35S926.45,45.51,926.45,66.27Z"/><path class="cls-2" d="M144.85,42.17s58.53-2.12,96.81-18.38S274.78,45.7,330,36.51s34.6-19.79,93.49-14.84S467.66,37.93,539.8,34.39s61.1-24,105.27-12.72S707.65-12.25,765.8,13.9,822,47.39,822,47.39l62.53,17.85-729,2.37-85.4,9.9S80.81,57,144.85,42.17Z"/></svg>