<svg id="Layer_1" data-name="Layer 1" xmlns="http://www.w3.org/2000/svg" viewBox="0 0 180 280"><defs><style>.cls-1{opacity:0.2;}.cls-2{fill:#161616;}.cls-3{fill:#ff9f2c;stroke:#84480d;}.cls-12,.cls-3,.cls-5,.cls-9{stroke-miterlimit:10;}.cls-4{fill:#b5650d;}.cls-5{fill:#35467a;stroke:#1d2c54;}.cls-6{fill:#233559;}.cls-7{fill:#2b3245;}.cls-8{fill:#35374c;}.cls-11,.cls-9{fill:#eee1b7;}.cls-9{stroke:#3d3c21;stroke-width:2px;}.cls-10{fill:#efd9ca;}.cls-12{fill:#faa02c;stroke:#af6617;}.cls-13{fill:#aa2939;}.cls-14{fill:#8e7c4d;}</style></defs><g class="cls-1"><ellipse class="cls-2" cx="96.66" cy="256.5" rx="83" ry="23"/></g><path class="cls-3" d="M134.54,232.69s-2.37,8.88,2.09,15.93c3,4.66-5.27,8.17-5.27,8.17L112.88,270a2.83,2.83,0,0,1-3.86-.57c-1.43-1.85-4.38-3.56-10.06-.19,0,0-.85-7.87-9.21-3.13,0,0,4-6.27-4.73-3.94l9.41-6.62c.8-.56,1.63-1.08,2.48-1.56,5-2.77,10.64-4.55,16.09-6.29l5.79-1.85.61-9.69S129.08,223.82,134.54,232.69Z"/><path class="cls-4" d="M98.79,269.12a12.06,12.06,0,0,1,2.2-6.94,18.65,18.65,0,0,1,4.92-5,19.63,19.63,0,0,1,6.3-2.86,18.27,18.27,0,0,1,3.47-.51,14.42,14.42,0,0,1,3.66.35l.13.37c-2,.83-3.93,1.67-5.82,2.64a47.06,47.06,0,0,0-5.46,3.29,39.73,39.73,0,0,0-5,4,29.9,29.9,0,0,0-2.18,2.32,19.41,19.41,0,0,0-1.91,2.52Z"/><path class="cls-4" d="M90.15,265a12.59,12.59,0,0,1,2.72-6.34A20.11,20.11,0,0,1,97.79,254a22.6,22.6,0,0,1,6.07-2.85,21.61,21.61,0,0,1,3.29-.69,17.28,17.28,0,0,1,3.45,0l.1.29-2.92,1.22c-1,.45-1.93.85-2.87,1.34a47.84,47.84,0,0,0-5.44,3.2,38.69,38.69,0,0,0-5,3.89,27.59,27.59,0,0,0-2.19,2.27,17.43,17.43,0,0,0-1.91,2.48Z"/><path class="cls-4" d="M117.8,246a5.43,5.43,0,0,1,1.92-2.24,8.25,8.25,0,0,1,2.5-1.17,10.17,10.17,0,0,1,5.17,0,11,11,0,0,1,4.4,2.29,11.85,11.85,0,0,1,1.68,1.91,9.75,9.75,0,0,1,1.18,2.54l-.21.34c-1.3-.65-2.6-1.28-3.93-1.86a28.46,28.46,0,0,0-4.1-1.34,18.38,18.38,0,0,0-4.23-.67,13.88,13.88,0,0,0-2.14.1,7.9,7.9,0,0,0-2.06.46Z"/><path class="cls-3" d="M83.6,232.37s-2.18,1.9,1.53,9.37c2.45,4.94-5.22,7.58-5.22,7.58l-19.75,11.2a2.81,2.81,0,0,1-3.77-1c-1.24-2-4-4-10-1.24,0,0,0-7.91-8.84-4.07,0,0,4.67-5.82-4.3-4.41l10.05-5.6a28.09,28.09,0,0,1,2.64-1.3c5.27-2.23,11-3.42,16.65-4.59l5.95-1.24-.89-8S79.08,223,83.6,232.37Z"/><path class="cls-4" d="M46.24,258.21a12.11,12.11,0,0,1,2.9-6.68,18.62,18.62,0,0,1,5.42-4.44,19.64,19.64,0,0,1,6.56-2.2,17.85,17.85,0,0,1,3.51-.14,15,15,0,0,1,3.6.72l.09.39c-2,.62-4.08,1.25-6.07,2a47.36,47.36,0,0,0-5.77,2.71A40.54,40.54,0,0,0,51.14,254a31.8,31.8,0,0,0-2.41,2.08,18.83,18.83,0,0,0-2.16,2.31Z"/><path class="cls-4" d="M38.08,253.18a12.57,12.57,0,0,1,3.36-6,20,20,0,0,1,5.38-4.11,22.38,22.38,0,0,1,6.33-2.21,22,22,0,0,1,3.34-.35,17.42,17.42,0,0,1,3.43.34l.08.3L57,242c-1,.35-2,.64-3,1a46.34,46.34,0,0,0-5.74,2.61,39.19,39.19,0,0,0-5.33,3.36,29.27,29.27,0,0,0-2.41,2,17.85,17.85,0,0,0-2.16,2.28Z"/><path class="cls-4" d="M67.54,237.2a5.49,5.49,0,0,1,2.15-2,8.35,8.35,0,0,1,2.61-.9,10.05,10.05,0,0,1,5.13.54,10.93,10.93,0,0,1,4.14,2.73,11.93,11.93,0,0,1,1.48,2.07,10,10,0,0,1,.9,2.65l-.23.32c-1.23-.78-2.46-1.54-3.72-2.26a28.88,28.88,0,0,0-3.94-1.76,18.63,18.63,0,0,0-4.14-1.11,13.89,13.89,0,0,0-2.14-.11,7.3,7.3,0,0,0-2.09.24Z"/><path class="cls-5" d="M56.51,142.92S22.84,182.57,65,218.21C65,218.21,92.28,182.16,56.51,142.92Z"/><path class="cls-6" d="M67.48,229.49c0-1.46,2-5.7,1.32-9.61-13.36-25.36-24.69-59.34,12.93-90.07,24.87-20.33,36-15.55,42.36,44.34-7.37,48.11-36.92,54.61-38.12,58.36l-.86,1.73c-1.15,1.3.43,4.82-1.27,5.14-3.88.73-13.75-1.45-15.71-4.83A46.79,46.79,0,0,1,67.48,229.49Z"/><path class="cls-7" d="M60.2,91.28c-.72,1.94-5.77,36.73-48.14,40.21,0,0-21.18-1.82-6.6,14.54s48.62,18.45,67.37-5.86S60.2,91.28,60.2,91.28Z"/><path class="cls-8" d="M57.52,52.84c-.06-2.71-14.39,4.75-1-22s58.75-35.39,77-19.42C146.77,23,159.18,37.32,155.58,75.56c-2.27,24.08,18,69.15,18.69,99.36s-10.7,48.74-39.18,58.9-75.36,8.21-92-25.19,4.51-97.25,11.8-117.24S57.84,68.89,57.52,52.84Z"/><path class="cls-9" d="M51.4,218.29c40.9,32,80.43-6.24,84.15-43.75,3.06-30.78-3-64.83-5.83-96.82-.63-7-2.73-13-2.73-19.87,0,0,2.55-35.88-18.75-43.06-16-5.39-27.33,3.82-28.36,19-.34,5-1.41,9.79.68,15.8,0,0-5.31,7.79-14.06-1.17a27,27,0,0,0,4.15-9.08A21.59,21.59,0,0,0,69,23.9c-5.81-11.25-19.44,2-14.66,18v0c.64,2.11.71,8.6.65,22.41-.12,27.05-7,43.75-11.58,64.59S29.43,201.1,51.4,218.29Z"/><path class="cls-10" d="M54.81,41.89c-1.35-5,1.36-23,9.79-18.94,6.17,3,6.13,11.16,5.61,16.32,1.09-4.33,1.55-9.29-1.39-14.93C63,13.24,50,25.85,54.81,41.89Z"/><path class="cls-8" d="M130.39,67.45c.23,1.86,2.33,42.6-17.28,53.3-40,21.86-41.09,45.45-30.22,49.76,12.86,5.09,73.76-13.66,77.93-49.08"/><path class="cls-8" d="M173.65,181c-7.37,48.12-32.26,55.72-38.8,60.66h0a8,8,0,0,1-4.54,2.57c-3.87.69-9.52.17-12-2.56,0,0-3.51-5.37-3.48-6.56,0-1.45,5.39-5,4.66-8.9-13.36-25.35-22-59,15.58-89.73"/><path class="cls-8" d="M112.17,125.05c-1-2.56-26.67-2-27.13,5.15s13-1.19,7.9,12.24S120.31,145.15,112.17,125.05Z"/><path class="cls-7" d="M35.62,124.87c1.8,1.23-3.21,13.73-8.83,12s3.25-6.1-8.07-7.33S21.5,115.22,35.62,124.87Z"/><path class="cls-11" d="M129.72,86c-12.19,8.24-25.82,12-41.07,12.87-35.94,1.93-37.2-12-37.94-24.92v-.08s-11-9.22-9.38-27.68,15-36.9,45.83-43.89,55.66,7.29,65.63,37.2C158.53,56.72,146.32,74.77,129.72,86Z"/><path class="cls-8" d="M129.5,87.77c2.64-18.25-5.78-42.11-13.62-52.61-9.22-12.35-25.74-20.53-40.77-7.44s1.64,36.91,1.64,36.91l-12.5-1.34c-2.23-22.62-15-19.2-15-19.2-14,9.38,2.23,29.22,2.23,29.22l-.74.62v-.08s-11-9.22-9.38-27.68,15-36.9,45.83-43.89,56.9,6.9,65.63,37.2C160.08,64.78,146.09,76.55,129.5,87.77Z"/><path class="cls-12" d="M76,88.52C81,87.08,94.39,68.28,93,64.85l0,0a.18.18,0,0,0,0-.14c-.08-.11-.38.12-.88.53-.11.08-.24.18-.39.27A7.84,7.84,0,0,1,88.45,67c-3.69.62-11.65-4.25-20.7-6.72a2.36,2.36,0,0,0-.68-.09,1.12,1.12,0,0,0-.48,0,2.09,2.09,0,0,0-.52.1.86.86,0,0,0-.36.13,1.86,1.86,0,0,0-.38.22,1.17,1.17,0,0,0-.36.28.1.1,0,0,0-.06.05,2,2,0,0,0-.33.33,5.13,5.13,0,0,0-.33.42c-2.77,3.82-3.06,13.46-5.78,14,0,0,0,0,0,0a2.17,2.17,0,0,0-.33.1c-.63.17-1.84.64-1.75,1.56a3.46,3.46,0,0,0,.26.65.51.51,0,0,1,.07.17C57.87,81.41,73.2,89.34,76,88.52Z"/><path class="cls-13" d="M69.47,83c6-2.11,10.1-6.67,12.21-8.61C83.62,72.63,92,65.22,92,65.22S77.61,75.64,75.26,76.55c-4.21,1.63-9.75-.53-9.75-.53S64,79.25,62,79.26a4.46,4.46,0,0,1-1.73-.05C61.75,80.59,65.49,84.41,69.47,83Z"/><path class="cls-12" d="M59,78.79a10.89,10.89,0,0,0,2.26.44c3.07.16,4.25-3.21,4.25-3.21a16.37,16.37,0,0,0,9.75.53c2-.47,8.48-4.83,11-6.57C89.8,67.52,93,64.85,93,64.85l0,0c-.11-.07-.42.1-.91.39-.11.08-.24.18-.39.27A7.84,7.84,0,0,1,88.45,67c-3.69.62-11.65-4.25-20.7-6.72a2.36,2.36,0,0,0-.68-.09,1.12,1.12,0,0,0-.48,0,2.09,2.09,0,0,0-.52.1.86.86,0,0,0-.36.13,1.86,1.86,0,0,0-.38.22,1.17,1.17,0,0,0-.36.28.1.1,0,0,0-.06.05,2,2,0,0,0-.33.33,5.13,5.13,0,0,0-.33.42c-2.77,3.82-3.06,13.46-5.78,14,0,0,0,0,0,0a2.17,2.17,0,0,0-.33.1c-.63.17-1.84.64-1.75,1.56A11,11,0,0,0,59,78.79Z"/><path class="cls-14" d="M52.4,73.62A16.8,16.8,0,0,0,51.74,78a19.13,19.13,0,0,0,.07,2.27,20.37,20.37,0,0,0,.4,2.23,16.07,16.07,0,0,0,4.53,7.76,11.37,11.37,0,0,0,1.74,1.5,23.05,23.05,0,0,0,1.9,1.33l2,1.12a6.84,6.84,0,0,0,1.06.5l1.09.44a39.67,39.67,0,0,0,9.07,2.48,63.67,63.67,0,0,0,18.94-.38A89.69,89.69,0,0,0,111,92.23a90.32,90.32,0,0,1-18.3,5.55,64.78,64.78,0,0,1-19.16.89,41.68,41.68,0,0,1-9.4-2.31L63,95.93a6.6,6.6,0,0,1-1.12-.5l-2.18-1.12c-.72-.39-1.36-.91-2.05-1.36a12.47,12.47,0,0,1-1.92-1.56A17.82,17.82,0,0,1,50.51,83a22.8,22.8,0,0,1-.5-2.46,21,21,0,0,1-.15-2.5,18.62,18.62,0,0,1,.64-5Z"/></svg>