<svg id="Layer_1" data-name="Layer 1" xmlns="http://www.w3.org/2000/svg" viewBox="0 0 50 30"><defs><style>.cls-1,.cls-2{fill:#eee1b7;}.cls-1{stroke:#3d3c21;stroke-miterlimit:10;stroke-width:0.25px;}.cls-3{fill:#3d3c21;}</style></defs><g id="eyes"><path class="cls-1" d="M45.67,15.3a11,11,0,0,1-1.06,4.34,8.28,8.28,0,0,1-7.61,5,8.31,8.31,0,0,1-7.25-5.59A10.76,10.76,0,0,1,29,14.7c.19-5.33,4.07-9.51,8.67-9.35S45.86,10,45.67,15.3Z"/><path class="cls-2" d="M14.61,14.37a12.24,12.24,0,0,1-.42,2.92c-.82,3-2.74,5-4.92,4.91s-4.16-2.57-4.75-5.86a12.84,12.84,0,0,1-.19-2.51c.11-4.48,2.5-8,5.34-7.84S14.72,9.89,14.61,14.37Z"/><path class="cls-3" d="M14.62,14.37a11.15,11.15,0,0,1-1.24,5.09,6.26,6.26,0,0,1-1.69,2,3.69,3.69,0,0,1-2.52.81,4.06,4.06,0,0,1-2.43-1.12A7,7,0,0,1,5.18,19a11.82,11.82,0,0,1-1.08-5.2A11.55,11.55,0,0,1,5.46,8.68a6.33,6.33,0,0,1,1.75-2,3.8,3.8,0,0,1,2.56-.77A4.1,4.1,0,0,1,12.16,7a7.25,7.25,0,0,1,1.5,2.18A11.55,11.55,0,0,1,14.62,14.37Zm0,0a11.69,11.69,0,0,0-1-5.12,7.29,7.29,0,0,0-1.51-2.14A4,4,0,0,0,9.76,6a3.67,3.67,0,0,0-2.45.76,6.2,6.2,0,0,0-1.68,2,11.25,11.25,0,0,0-1.28,5.05,11.55,11.55,0,0,0,1,5.12,6.75,6.75,0,0,0,1.5,2.13,3.89,3.89,0,0,0,2.32,1.1,3.57,3.57,0,0,0,2.45-.76,6.33,6.33,0,0,0,1.68-2A11.1,11.1,0,0,0,14.6,14.37Z"/></g></svg>