<svg id="Layer_1" data-name="Layer 1" xmlns="http://www.w3.org/2000/svg" viewBox="0 0 60 40"><defs><style>.cls-1{fill:#f9c553;stroke:#723117;stroke-miterlimit:10;stroke-width:0.25px;}</style></defs><g id="eyes_4" data-name="eyes 4"><g id="EYE-04"><path class="cls-1" d="M5.56,15.73a11.7,11.7,0,0,0-.3,1.82C4.79,23,8,27.92,12.92,29.11c5.47,1.32,11.07-2.44,12.59-8.4a1.54,1.54,0,0,0,0-.17C27,14.47,23.72,8.48,18.2,7.15S7,9.66,5.56,15.73Z"/><path class="cls-1" d="M34.44,19.46a12.17,12.17,0,0,0-.35,3c0,4.94,3.09,9.31,7.71,10.42,5.34,1.28,10.8-2.26,12.47-8,.06-.2.12-.4.17-.61,1.46-6.06-1.84-12.06-7.36-13.39S35.9,13.4,34.44,19.46Z"/></g></g></svg>