<svg id="Layer_1" data-name="Layer 1" xmlns="http://www.w3.org/2000/svg" viewBox="0 0 266.57 380.24"><defs><style>.cls-1,.cls-2{fill:#ff9f2c;}.cls-1{stroke:#b5650d;}.cls-1,.cls-11,.cls-5,.cls-6{stroke-miterlimit:10;}.cls-3{fill:#b5650d;}.cls-4,.cls-6{fill:#35374c;}.cls-5{fill:#eee1b7;stroke:#3d3c21;}.cls-6{stroke:#53566b;}.cls-7{fill:#fff;}.cls-8{fill:#1b1b26;}.cls-9{fill:#191928;}.cls-10{fill:#f9f5f2;}.cls-11{fill:#faa02c;stroke:#af6617;}.cls-12{fill:#b52a3b;}</style></defs><path class="cls-1" d="M130.68,346.75c3.58-5.69,4.45-.9,4.61,3.23.52.13,1,.23,1.51.33a46.09,46.09,0,0,1,2.69-4.78c2.33-3.67,2.43,1.26,2.17,5.42.42,0,.83.05,1.23.05a25.22,25.22,0,0,1,3.48-4.42c4.18-4.31,4.4.81,4.32,3.17a7.37,7.37,0,0,0,1.86-1.05c3.53-33,12.53-27.88,7.59-32.82s-3.36-14.82-3.36-14.82c-3.53-5.65-9.35,2.64-9.35,2.64C134.77,324,128.33,340.27,130.68,346.75Z"/><path class="cls-2" d="M142.89,351s4.19-17.29,9.31-31.24"/><path class="cls-3" d="M142.41,350.89q2.09-7.9,4.51-15.69c1.61-5.2,3.34-10.36,5.28-15.44-1.78,5.14-3.35,10.34-4.8,15.58s-2.8,10.5-4,15.78Z"/><path class="cls-2" d="M135.29,350s3.67-18,9.14-30.39"/><path class="cls-3" d="M134.8,349.88q1.78-7.77,4.12-15.38a126.17,126.17,0,0,1,5.51-14.91,124.74,124.74,0,0,0-5,15.05c-1.39,5.1-2.61,10.26-3.62,15.44Z"/><path class="cls-1" d="M101.28,342.86l.19.14.56.36c1.26-2,2.71-3.86,3.75-4.19,1.2-.36,1.53,3,1.58,6.22.36.07.73.14,1.1.19a14.07,14.07,0,0,1,3.32-5.52c2.58-2.47,3,1.67,2.88,5a2.91,2.91,0,0,0,2.06-2.56c.18-6.18,6.89-22.95,11.3-28.59s-3-4.24-3.88-8.47a6.23,6.23,0,0,1,2.11-6.36s-13.58-13.05-11.82-4.76-.35,8.47-.35,8.47c-11.47,11.82-16.24,32.29-16.24,32.29a6.89,6.89,0,0,0,.5,4.41C103.35,334.57,102.63,338.77,101.28,342.86Z"/><path class="cls-2" d="M107.36,345.39s3.72-18.39,12.9-32"/><path class="cls-3" d="M106.87,345.29c.66-2.84,1.46-5.62,2.34-8.38s1.88-5.49,3-8.17,2.31-5.31,3.63-7.89a72.74,72.74,0,0,1,4.45-7.44A73.51,73.51,0,0,0,116,321c-1.24,2.61-2.39,5.25-3.38,8s-1.92,5.44-2.72,8.21-1.51,5.56-2.08,8.36Z"/><path class="cls-2" d="M102,343.36s3.76-19.89,11.34-30.3"/><path class="cls-3" d="M101.54,343.27c.58-2.68,1.26-5.3,2-7.92s1.58-5.21,2.52-7.77a59.4,59.4,0,0,1,7.3-14.52,58.84,58.84,0,0,0-6.83,14.69c-.86,2.56-1.59,5.17-2.27,7.79s-1.26,5.27-1.75,7.92Z"/><path class="cls-4" d="M98.14,142.47s-12.47,1.41-35.29-37.88c0,0,8-13.18,1.88-20,0,0-6.59-3.06-10.83,10.59,0,0-7.29-17.47-25.31-13.83a4.41,4.41,0,0,0-3,2.21C23.17,88,20,100.79,43.32,123.18a67.43,67.43,0,0,0,6.35,9.41c4.23,5.07,26.59,40.23,45.65,46.35S119.08,147.88,98.14,142.47Z"/><path class="cls-5" d="M107.32,80.12s-16.24,4.23-16.95,36.23,7.53,37.89-1.17,58.12-15.53,68.71-5.41,94.82,28.35,27.42,44.11,29.77,26.36-27.65,21.53-45.88S161,166,161,166s11.77-59.53-21.41-85.88A29.49,29.49,0,0,0,107.32,80.12Z"/><path class="cls-4" d="M110.61,119.41s-.24-16.7,6.35-27.76c6-10.07,30.83-5.89,32.72,27.85.29,5.11.95,10.19.69,15.31-.62,11.88-2.56,41.43-7.52,63.66-6.36,28.47-9.18,43.77-4.95,60.94s2.59,47.53-36.47,32.47c0,0,20,14.83,41.18,6.83,0,0,1.65,8.23,9.65,7.05s36.23-25.17,36.94-63.29S173,172.35,172.26,150.71s-1.89-61.18-23.53-75.77S103.08,72.35,96.26,90c0,0,9.41-5.65,11.06,6.35s-1.42,24-1.42,24Z"/><path class="cls-6" d="M149.26,157.94s15.53-12.18,24.53-37.23c0,0-2.65-13.06.17-18.53s11.83-.36,10.06,9.88,0,.88,0,.88,1.06,1.24,11.3-8.12c0,0,9.17-9.7,20.64-3.53,9.75,5.25,6.24,22.49-5.22,29.38a36.61,36.61,0,0,0-12.31,11.78C190,155.92,173.37,180.2,159,187.59"/><ellipse class="cls-7" cx="123.13" cy="109.16" rx="10.81" ry="8.35" transform="translate(11.5 230.06) rotate(-88.84)"/><path class="cls-8" d="M114.83,108.83a12.91,12.91,0,0,0,1.93,7.13,7.54,7.54,0,0,0,6,3.64,7.27,7.27,0,0,0,5.91-3.39,12.2,12.2,0,0,0,2.12-6.74,12.35,12.35,0,0,0-1.67-6.87,6.81,6.81,0,0,0-11.9-.76A12.73,12.73,0,0,0,114.83,108.83Zm-.07,0a12.81,12.81,0,0,1,2.32-7.09,7.73,7.73,0,0,1,6.44-3.43,7.93,7.93,0,0,1,6.16,3.94,13.06,13.06,0,0,1,1.87,7.24,12.85,12.85,0,0,1-2.35,7.1,7.71,7.71,0,0,1-6.45,3.42,7.89,7.89,0,0,1-6.14-4A13,13,0,0,1,114.76,108.83Z"/><ellipse class="cls-9" cx="121.21" cy="107.34" rx="6.39" ry="5.1" transform="translate(9.54 224.57) rotate(-87.92)"/><ellipse class="cls-10" cx="124.39" cy="104.8" rx="1" ry="1.75" transform="translate(-15.63 22.03) rotate(-9.53)"/><ellipse class="cls-7" cx="100.46" cy="106.89" rx="10.01" ry="6.32" transform="translate(-6.99 206.75) rotate(-89.68)"/><path class="cls-8" d="M94.18,106.56a14.32,14.32,0,0,0,1.32,6.26,8.3,8.3,0,0,0,1.89,2.53,4.59,4.59,0,0,0,2.75,1.17,4,4,0,0,0,2.71-1,7.53,7.53,0,0,0,1.84-2.37,13.34,13.34,0,0,0,1.41-6,13.92,13.92,0,0,0-1.09-6.06,8.79,8.79,0,0,0-1.64-2.54,4.45,4.45,0,0,0-2.59-1.35,4.12,4.12,0,0,0-2.85.78,7.16,7.16,0,0,0-2.1,2.34A13.83,13.83,0,0,0,94.18,106.56Zm-.07,0a13.91,13.91,0,0,1,1.56-6.26,7.7,7.7,0,0,1,2.08-2.49,4.47,4.47,0,0,1,3.06-1,4.92,4.92,0,0,1,2.92,1.37,9,9,0,0,1,1.87,2.66,14.55,14.55,0,0,1,1.25,6.34,14,14,0,0,1-1.59,6.27,7.73,7.73,0,0,1-2.09,2.49,4.54,4.54,0,0,1-3.07,1,4.92,4.92,0,0,1-2.91-1.37,8.9,8.9,0,0,1-1.85-2.66A14.42,14.42,0,0,1,94.11,106.56Z"/><ellipse class="cls-9" cx="99.12" cy="105.27" rx="4.09" ry="6.07"/><ellipse class="cls-10" cx="97.48" cy="102.46" rx="1.3" ry="1.92"/><path class="cls-11" d="M124.49,128.91s-3.44,3.09-8.56,8.21-7.58,3.26-7.58,3.26-6.27-1.59-8-12.35l12.44-1.5S119.37,131,124.49,128.91Z"/><path class="cls-12" d="M116.82,130.24s-7.33,10.67-12.36,5.64-3.79-8.82-3.79-8.82Z"/><path class="cls-11" d="M125.37,128.47s-4.41,1.77-7.94-.88-8.82-11.12-8.82-11.12-5.82,9.35-11.82,7.94a22.69,22.69,0,0,0,9.17,6.88C111.79,133.59,125.37,128.47,125.37,128.47Z"/><path class="cls-4" d="M126.32,71s21.36-8.3,15.93-9.2c-14.93-2.49-16.75,8.92-16.75,8.92Z"/><path class="cls-4" d="M127.25,70.19s-2.67-12.65-14.36-4.44c-2.85,2,14.07,5.3,14.07,5.3Z"/><path class="cls-4" d="M127.82,70c-.36,0,11.2-8.46,16.92-1.49C148,72.5,127.82,70,127.82,70Z"/></svg>