<svg id="Layer_1" data-name="Layer 1" xmlns="http://www.w3.org/2000/svg" viewBox="0 0 60 40"><defs><style>.cls-1{fill:#fff;stroke:#846153;stroke-miterlimit:10;stroke-width:0.5px;}.cls-2{fill:#212428;}.cls-3{fill:#fafbfc;}</style></defs><g id="eyes_1" data-name="eyes 1"><g id="EYE-01"><path class="cls-1" d="M6.34,27.47a11.58,11.58,0,0,0,.58,1.75c2.06,5,7.16,8,12.12,6.74,5.46-1.35,8.7-7.27,7.3-13.27a1.22,1.22,0,0,0,0-.17c-1.5-6.05-7.19-9.85-12.7-8.49S4.84,21.41,6.34,27.47Z"/><ellipse class="cls-2" cx="15.68" cy="24.91" rx="4.14" ry="4.44" transform="translate(-5.53 4.5) rotate(-13.9)"/><ellipse class="cls-3" cx="13.25" cy="23.56" rx="1.14" ry="1.22" transform="translate(-5.27 3.87) rotate(-13.9)"/><path class="cls-1" d="M33.69,17.48a12.78,12.78,0,0,0,1.06,2.79c2.31,4.37,7,6.84,11.64,5.7,5.33-1.32,8.55-7,7.41-12.82,0-.2-.09-.41-.14-.62C52.16,6.48,46.48,2.68,41,4S32.19,11.42,33.69,17.48Z"/><ellipse class="cls-2" cx="43.28" cy="15.51" rx="4.23" ry="4.53" transform="translate(-2.46 10.85) rotate(-13.9)"/><ellipse class="cls-3" cx="41.53" cy="13.1" rx="0.97" ry="1.04" transform="translate(-1.93 10.36) rotate(-13.9)"/></g></g></svg>