<svg id="Layer_1" data-name="Layer 1" xmlns="http://www.w3.org/2000/svg" viewBox="0 0 110 180"><defs><style>.cls-1,.cls-7{fill:#f9c553;}.cls-1{stroke:#56230a;}.cls-1,.cls-2{stroke-miterlimit:10;}.cls-2,.cls-3{fill:#f7e8bc;}.cls-2{stroke:#664b10;}.cls-4{fill:#664b10;}.cls-5{fill:#569153;}.cls-6{fill:#721c4d;}.cls-8{fill:#56230a;}.cls-9{fill:#c64f1a;}.cls-10{fill:#68112c;}.cls-11{fill:#f9f4f5;}.cls-12{fill:#f28d16;}</style></defs><path class="cls-1" d="M40.12,79.84s.06.23.15.74c.41,2.52,1.43,11.78-1,33.12-2.93,25.68-10.69,36-10.69,36s7,13.79,25.7,21.42,26-27.21,26-27.21-11.71-29.71-5.16-69S40.12,79.84,40.12,79.84Z"/><path class="cls-2" d="M49.17,80s.12,19-1.24,33.36-7.1,32.5-10.39,38.9,28,13.15,33.11.48c0,0-2-13.53-3.14-36.89S68.81,77,68.81,77Z"/><path class="cls-3" d="M49.11,94.66s9.25,6.78,18.3.67"/><path class="cls-4" d="M49.14,94.62a39.33,39.33,0,0,0,4.55,1.54,22.65,22.65,0,0,0,4.56.77,17.09,17.09,0,0,0,4.57-.25c.38-.08.78-.13,1.15-.23l1.12-.36c.79-.17,1.48-.57,2.3-.8l0,.08a15.41,15.41,0,0,1-4.41,2,13.86,13.86,0,0,1-4.84.51,17.66,17.66,0,0,1-4.77-1,20.16,20.16,0,0,1-4.34-2.21Z"/><path class="cls-5" d="M41.69,143a26.88,26.88,0,0,0,3.3,1.67,26.49,26.49,0,0,0,3.4,1.31,22.08,22.08,0,0,0,7,1.15,18.36,18.36,0,0,0,3.55-.21l1.74-.39.43-.09.42-.15.86-.28A32.72,32.72,0,0,0,69,142.75l.07.07L67.56,144A12.27,12.27,0,0,1,66,145a20,20,0,0,1-3.33,1.69l-.86.35-.44.17-.45.11-1.82.46a20.16,20.16,0,0,1-3.72.31,21.48,21.48,0,0,1-7.3-1.42,25,25,0,0,1-6.49-3.63Z"/><path class="cls-3" d="M45.05,130.27s13.24,9,23,.41"/><path class="cls-4" d="M45.08,130.23a51.56,51.56,0,0,0,5.76,2.06,31.21,31.21,0,0,0,5.84,1.13A20,20,0,0,0,62.5,133l1.43-.39c.46-.17.9-.4,1.37-.58l.71-.28.66-.37c.43-.26.89-.51,1.36-.75l.06.08a15.66,15.66,0,0,1-5.36,3,16.94,16.94,0,0,1-6.13.66,24.34,24.34,0,0,1-6-1.38A27.72,27.72,0,0,1,45,130.31Z"/><path class="cls-3" d="M47.69,118.42s10.71,6.41,19.76.3"/><path class="cls-4" d="M47.71,118.38c1.66.55,3.33,1,5,1.35a31.06,31.06,0,0,0,4.94.69,20.88,20.88,0,0,0,4.93-.27l1.23-.23,1.2-.38c.85-.16,1.57-.62,2.44-.86l0,.08a16,16,0,0,1-4.73,2.14,16.67,16.67,0,0,1-5.17.52,22.75,22.75,0,0,1-5.12-.93,23.76,23.76,0,0,1-4.79-2Z"/><path class="cls-3" d="M49,107.1s9.26,6.79,18.31.67"/><path class="cls-4" d="M49,107.06a41.42,41.42,0,0,0,4.55,1.55,24.12,24.12,0,0,0,4.57.77,17.56,17.56,0,0,0,4.57-.26c.37-.08.77-.12,1.14-.23l1.13-.35c.79-.18,1.47-.58,2.29-.81l0,.08a15.58,15.58,0,0,1-4.41,2.06,13.85,13.85,0,0,1-4.84.5,17.59,17.59,0,0,1-4.76-1,19.37,19.37,0,0,1-4.35-2.21Z"/><ellipse class="cls-1" cx="55.87" cy="29.05" rx="19.17" ry="26.91" transform="translate(19.07 80.14) rotate(-81.7)"/><path class="cls-1" d="M52.68,20.76S49.94,9.76,42,8.06,26.94,13.61,23.1,26.92,10.49,38.81,8.43,51s16.78,22,21.69,27.5S47.48,95.6,66.79,84.41c0,0,2-1.35,9.86-2.37s22.47-1.21,24.71-13.8S94.77,47.29,88.9,30.67,72.94,10.53,66,15.23a21.74,21.74,0,0,0-7.08,7.53"/><path class="cls-6" d="M54.07,58.76s-1.1-4.87,3.09-6.25S62.07,58.66,54.07,58.76Z"/><path class="cls-6" d="M38.26,57.73s2.29-4.38-1-6.85S31.35,55.45,38.26,57.73Z"/><path class="cls-7" d="M26,45.24s25.37-11.17,42.82,5.88"/><path class="cls-8" d="M25.94,45.19a50.39,50.39,0,0,1,11-3.2,45.94,45.94,0,0,1,11.48-.54,32,32,0,0,1,11.18,2.8,28.87,28.87,0,0,1,9.23,6.83l-.07.07a38,38,0,0,0-9.57-6,36.71,36.71,0,0,0-5.31-1.86,34.72,34.72,0,0,0-5.54-1.06A45.17,45.17,0,0,0,37,42.49a49.86,49.86,0,0,0-11,2.79Z"/><path class="cls-9" d="M23.19,55.21S25.38,72.8,40.77,82s33.29-14.49,35-25.12c0,0-8.85,16.56-28.86,14.87S23.19,55.21,23.19,55.21Z"/><path class="cls-10" d="M22.91,53.4A38.15,38.15,0,0,0,40.57,78.64C56,87.81,73.74,67.48,75.43,56.85c0,0-8.82,14.75-28.83,13.06S22.91,53.4,22.91,53.4Z"/><path class="cls-11" d="M29.64,64.72s.41,5.86,4.52,8.18,3-4.5,3-4.5Z"/><path class="cls-11" d="M63.65,68.32s-1.77,5.54-5.32,6.74-3.47-4.9-3.47-4.9Z"/><path class="cls-9" d="M22.54,51.26s.94,15.91,24.07,17.65S75.43,56.85,75.43,56.85s-7.09,16-28.52,13.74S22.83,56.74,22.54,51.26Z"/><path class="cls-12" d="M36.39,75.63s-.3-1.07,4.61-1.79,5.88,2,5.88,2,1.4-2.15,5.78-.48,5.68,3.29,5.68,3.29A17.88,17.88,0,0,1,46.6,80.78,17.22,17.22,0,0,1,36.39,75.63Z"/><path class="cls-9" d="M24.42,49.54s-2.78-.54-2.61,6.69C21.81,56.23,19.52,47.74,24.42,49.54Z"/><path class="cls-9" d="M72.56,55.07a7.64,7.64,0,0,1,4.51,6.37l-1.59,2.48a7.71,7.71,0,0,0,2.94-3.37C79.44,58.25,72.56,55.07,72.56,55.07Z"/></svg>