<svg id="Layer_1" data-name="Layer 1" xmlns="http://www.w3.org/2000/svg" viewBox="0 0 100 50"><defs><style>.cls-1{fill:#fff;}.cls-2{fill:#846153;}.cls-3{fill:#171b1e;}.cls-4{fill:#fafbfc;}.cls-5{fill:#f9803d;stroke:#846153;stroke-miterlimit:10;stroke-width:0.25px;}</style></defs><g id="EYES_3" data-name="EYES 3"><g id="EYE-01"><path class="cls-1" d="M96.4,25.9a22.46,22.46,0,0,1-.23,3.18c-1.38,9.25-8.69,16.3-17.5,16.3-9.71,0-17.6-8.56-17.74-19.18,0-.11,0-.21,0-.3,0-10.76,8-19.49,17.75-19.49S96.4,15.14,96.4,25.9Z"/><path class="cls-2" d="M96.44,25.9a20.77,20.77,0,0,1-4.8,13.46,17.36,17.36,0,0,1-12.82,6.36,16.51,16.51,0,0,1-7.25-1.45,18,18,0,0,1-6-4.38,21.15,21.15,0,0,1-5.3-13.69v.06a22.09,22.09,0,0,1,1.24-7.49,20.55,20.55,0,0,1,3.76-6.52A17.46,17.46,0,0,1,78.51,6.07a16.54,16.54,0,0,1,7.23,1.69,18.66,18.66,0,0,1,5.8,4.55A20.68,20.68,0,0,1,96.44,25.9Zm-.07,0a20.57,20.57,0,0,0-5-13.47A17.71,17.71,0,0,0,85.61,8a16.08,16.08,0,0,0-7.09-1.55,17,17,0,0,0-12.77,6.19A20.56,20.56,0,0,0,61,26.19h0a20.45,20.45,0,0,0,5,13.27,18,18,0,0,0,5.75,4.33,16.24,16.24,0,0,0,7,1.52A17,17,0,0,0,91.5,39.25,20.68,20.68,0,0,0,96.37,25.9Z"/><ellipse class="cls-3" cx="80.77" cy="24.18" rx="10.59" ry="11.36"/><ellipse class="cls-4" cx="88.76" cy="16.91" rx="2.84" ry="3.04"/><path class="cls-1" d="M39.07,24.1a20.93,20.93,0,0,1-.62,5.12c-2,8.27-8.93,14.37-17.12,14.37-9.47,0-17.2-8.14-17.71-18.39,0-.36,0-.73,0-1.1,0-10.76,7.94-19.47,17.73-19.47S39.07,13.34,39.07,24.1Z"/><path class="cls-2" d="M39.11,24.1a20.67,20.67,0,0,1-4.85,13.53,18.63,18.63,0,0,1-5.75,4.56,17.25,17.25,0,0,1-7.17,1.75,17.46,17.46,0,0,1-13.26-6,21.12,21.12,0,0,1,0-27.65,17.44,17.44,0,0,1,13.26-6A16.43,16.43,0,0,1,28.5,6a18.34,18.34,0,0,1,5.75,4.55A20.62,20.62,0,0,1,39.11,24.1Zm-.07,0a20.53,20.53,0,0,0-4.92-13.4,17,17,0,0,0-12.79-6,17,17,0,0,0-12.77,6,20.77,20.77,0,0,0,0,26.79,17,17,0,0,0,12.77,6,16.79,16.79,0,0,0,7-1.61,18.05,18.05,0,0,0,5.75-4.4A20.63,20.63,0,0,0,39,24.1Z"/><ellipse class="cls-3" cx="23.24" cy="23.7" rx="10.59" ry="11.36"/><ellipse class="cls-4" cx="30.67" cy="16.56" rx="2.84" ry="3.04"/></g><g id="EYE-02"><path class="cls-5" d="M39.07,24.1a20.93,20.93,0,0,1-.62,5.12,52.58,52.58,0,0,1-34.83-4c0-.36,0-.73,0-1.1,0-10.76,7.94-19.47,17.73-19.47S39.07,13.34,39.07,24.1Z"/><path class="cls-5" d="M96.4,25.9a22.46,22.46,0,0,1-.23,3.18A41.25,41.25,0,0,1,60.93,26.2c0-.11,0-.21,0-.3,0-10.76,8-19.49,17.75-19.49S96.4,15.14,96.4,25.9Z"/></g></g></svg>