<svg id="Layer_1" data-name="Layer 1" xmlns="http://www.w3.org/2000/svg" viewBox="0 0 50 40"><defs><style>.cls-1{fill:#eee1b7;stroke:#49472a;stroke-miterlimit:10;stroke-width:0.25px;}</style></defs><g id="eyes"><g id="eyes_4" data-name="eyes 4"><path class="cls-1" d="M45.41,11.32a11.63,11.63,0,0,1,.77,2.41c.92,4.52-1,9-4.8,10.68s-8.34.05-11-3.63A11.57,11.57,0,0,1,29,18.5c-2.3-5.25-.5-11.11,4-13.09S43.11,6.08,45.41,11.32Z"/><path class="cls-1" d="M14.92,24.89a12.52,12.52,0,0,1,1,3.49c.44,3.07-.48,5.72-2.53,6.59-2.28,1-5.28-.59-7.39-3.56a13.21,13.21,0,0,1-1.29-2.25c-2-4.38-1.31-8.89,1.5-10.07S12.94,20.51,14.92,24.89Z"/></g></g></svg>