<svg id="Layer_1" data-name="Layer 1" xmlns="http://www.w3.org/2000/svg" viewBox="0 0 60 40"><defs><style>.cls-1{fill:#f9803d;stroke:#894b33;stroke-miterlimit:10;stroke-width:0.25px;}</style></defs><g id="eyes_4"><g id="EYE-04"><path class="cls-1" d="M53.09,10.92a13.05,13.05,0,0,1,.66,1.73c1.54,5.2-.56,10.7-5.19,12.86-5.09,2.38-11.34-.17-14-5.72a1.09,1.09,0,0,1-.08-.15C31.81,14,33.85,7.46,39,5.05S50.45,5.27,53.09,10.92Z"/><path class="cls-1" d="M25.54,20.36a11.66,11.66,0,0,1,.93,2.84c1,4.85-1.16,9.74-5.46,11.75-5,2.33-11-.05-13.82-5.31-.09-.18-.19-.37-.28-.56-2.64-5.65-.62-12.18,4.53-14.59S22.9,14.71,25.54,20.36Z"/></g></g></svg>