<svg id="Layer_1" data-name="Layer 1" xmlns="http://www.w3.org/2000/svg" viewBox="0 0 110 180"><defs><style>.cls-1,.cls-12,.cls-6{fill:#f7be3e;}.cls-1{stroke:#56230a;}.cls-1,.cls-2,.cls-6{stroke-miterlimit:10;}.cls-2,.cls-3{fill:#f7e8bc;}.cls-2{stroke:#664b10;}.cls-4{fill:#664b10;}.cls-5{fill:#569153;}.cls-6{stroke:#682d16;}.cls-7{fill:#721c4d;}.cls-8{fill:#c64f1a;}.cls-9{fill:#68112c;}.cls-10{fill:#f9f4f5;}.cls-11{fill:#f28d16;}.cls-13{fill:#56230a;}</style></defs><path class="cls-1" d="M36.42,75.41s.06.23.15.74c.41,2.52,1.43,11.78-1,33.12-2.92,25.68-10.68,36-10.68,36s7,13.79,25.7,21.42,26-27.21,26-27.21-11.71-29.71-5.16-69c1.94-11.66-7.88,8.48-12.07,8.2A224.6,224.6,0,0,1,36.42,75.41Z"/><path class="cls-2" d="M45.47,75.55s.12,19-1.24,33.35-7.1,32.5-10.39,38.91,28,13.15,33.1.48c0,0-2-13.53-3.14-36.9s1.31-38.78,1.31-38.78Z"/><path class="cls-3" d="M45.41,90.22s9.25,6.79,18.3.68"/><path class="cls-4" d="M45.44,90.18A39.41,39.41,0,0,0,50,91.73a23.25,23.25,0,0,0,4.56.77,16.71,16.71,0,0,0,4.57-.26c.38-.08.77-.12,1.15-.23l1.12-.35c.79-.17,1.48-.58,2.29-.8l.06.08a15.69,15.69,0,0,1-4.41,2,13.88,13.88,0,0,1-4.84.51,17.68,17.68,0,0,1-4.77-1,19.3,19.3,0,0,1-4.34-2.21Z"/><path class="cls-5" d="M38,138.54a28.5,28.5,0,0,0,3.31,1.67,25.93,25.93,0,0,0,3.4,1.31,22.36,22.36,0,0,0,7,1.15,18.36,18.36,0,0,0,3.55-.21l1.73-.39.44-.1.42-.15.85-.28a32.27,32.27,0,0,0,6.57-3.23l.06.08-1.49,1.12a10.67,10.67,0,0,1-1.52,1.07A20,20,0,0,1,59,142.27l-.87.34-.43.18-.45.11-1.82.46a20.16,20.16,0,0,1-3.72.31,21.48,21.48,0,0,1-7.3-1.42,25.24,25.24,0,0,1-6.49-3.63Z"/><path class="cls-3" d="M41.35,125.84s13.24,8.95,23,.41"/><path class="cls-4" d="M41.38,125.8a53.64,53.64,0,0,0,5.76,2.06A31.23,31.23,0,0,0,53,129a19.67,19.67,0,0,0,5.83-.41l1.43-.38c.46-.17.9-.4,1.37-.59l.71-.27L63,127c.44-.25.89-.5,1.37-.74l.06.08a15.63,15.63,0,0,1-5.36,3,16.73,16.73,0,0,1-6.13.67,24.34,24.34,0,0,1-6-1.38,28,28,0,0,1-5.55-2.72Z"/><path class="cls-3" d="M44,114s10.72,6.41,19.77.3"/><path class="cls-4" d="M44,113.94c1.66.56,3.33,1,5,1.36a31.06,31.06,0,0,0,4.94.69,22,22,0,0,0,4.93-.27l1.23-.24,1.2-.37c.85-.16,1.57-.62,2.44-.87l.05.09A16,16,0,0,1,59,116.47a16.67,16.67,0,0,1-5.17.52,22.22,22.22,0,0,1-5.12-.94A23.73,23.73,0,0,1,44,114Z"/><path class="cls-3" d="M45.27,102.66s9.26,6.79,18.3.68"/><path class="cls-4" d="M45.3,102.62a39.41,39.41,0,0,0,4.55,1.55,22.65,22.65,0,0,0,4.56.77,16.78,16.78,0,0,0,4.58-.26c.37-.07.77-.12,1.14-.22l1.12-.36c.79-.17,1.48-.57,2.3-.8l.05.08a15.69,15.69,0,0,1-4.41,2.05,13.86,13.86,0,0,1-4.84.51,17.76,17.76,0,0,1-4.77-1,19.91,19.91,0,0,1-4.34-2.2Z"/><ellipse class="cls-1" cx="45.22" cy="33.36" rx="26.91" ry="19.17" transform="translate(-6.07 10.41) rotate(-12.31)"/><path class="cls-6" d="M39.32,26.73s-6.45-9.34-14.45-8.14S12.71,29.09,13.79,42.9,6.18,58.47,8.55,70.62s23.45,14.71,30,18.1,22.26,9.88,36.39-7.39c0,0,1.36-2,8.4-5.68S103.93,66.6,101.6,54,88.05,36.75,76.7,23.25,54.67,10,49.83,16.86a21.75,21.75,0,0,0-4,9.54"/><path class="cls-7" d="M54,61.8s-2.75-4.17.68-6.94S61.44,58.89,54,61.8Z"/><path class="cls-7" d="M38.83,66.4s.6-4.91-3.32-6.07S31.56,66.7,38.83,66.4Z"/><path class="cls-8" d="M23.83,69.35S32.08,85,49.71,88.21,75.77,62.93,73.6,52.38c0,0-2.45,18.62-21.78,24.08S23.83,69.35,23.83,69.35Z"/><path class="cls-9" d="M22.94,67.76a38.13,38.13,0,0,0,25.41,17.4C66,88.33,75.47,63,73.31,52.49c0,0-3.06,16.92-22.38,22.38S22.94,67.76,22.94,67.76Z"/><path class="cls-10" d="M33.22,76s2.45,5.34,7.11,6.06,1.23-5.27,1.23-5.27Z"/><path class="cls-10" d="M66.32,67.37s.29,5.82-2.6,8.19-5-3.36-5-3.36Z"/><path class="cls-8" d="M21.84,65.88s6.48,14.56,28.74,8.05S73.31,52.49,73.31,52.49s-1,17.44-21.86,22.9S24,70.91,21.84,65.88Z"/><path class="cls-11" d="M43.38,83.82s-.66-.9,3.68-3.3,6.19-.25,6.19-.25.56-2.5,5.25-2.48S65,78.87,65,78.87a17.93,17.93,0,0,1-10.22,6.18A17.25,17.25,0,0,1,43.38,83.82Z"/><path class="cls-8" d="M23,63.61s-2.79.47-.09,7.18C22.91,70.79,17.77,63.65,23,63.61Z"/><path class="cls-8" d="M70,51.84a7.65,7.65,0,0,1,6.46,4.37l-.61,2.89a7.74,7.74,0,0,0,1.56-4.2C77.55,52.39,70,51.84,70,51.84Z"/><path class="cls-12" d="M22.92,59s19.82-19.38,42.15-9.57"/><path class="cls-13" d="M22.88,59a50.53,50.53,0,0,1,9.17-6.86A45.71,45.71,0,0,1,42.6,47.59a32.1,32.1,0,0,1,11.45-1.31,28.93,28.93,0,0,1,11,3.14l0,.1A37.88,37.88,0,0,0,48.37,47.4a35.07,35.07,0,0,0-5.57,1,45.24,45.24,0,0,0-10.51,4.22A50.48,50.48,0,0,0,23,59.07Z"/></svg>