<svg id="Layer_1" data-name="Layer 1" xmlns="http://www.w3.org/2000/svg" viewBox="0 0 60 40"><defs><style>.cls-1{fill:#d86430;stroke:#723117;stroke-miterlimit:10;stroke-width:0.25px;}</style></defs><g id="eyes_4" data-name="eyes 4"><g id="EYE-04"><path class="cls-1" d="M6.34,27.47a11.58,11.58,0,0,0,.58,1.75c2.06,5,7.16,8,12.12,6.74,5.46-1.35,8.7-7.27,7.3-13.27a1.22,1.22,0,0,0,0-.17c-1.5-6.05-7.19-9.85-12.7-8.49S4.84,21.41,6.34,27.47Z"/><path class="cls-1" d="M33.69,17.48a12.78,12.78,0,0,0,1.06,2.79c2.31,4.37,7,6.84,11.64,5.7,5.33-1.32,8.55-7,7.41-12.82,0-.2-.09-.41-.14-.62C52.16,6.48,46.48,2.68,41,4S32.19,11.42,33.69,17.48Z"/></g></g></svg>