<svg id="Layer_1" data-name="Layer 1" xmlns="http://www.w3.org/2000/svg" viewBox="0 0 60 40"><defs><style>.cls-1{fill:#fff;}.cls-2{fill:#846153;}.cls-3{fill:#212428;}.cls-4{fill:#fafbfc;}.cls-5{fill:#f9803d;stroke:#846153;stroke-miterlimit:10;stroke-width:0.25px;}</style></defs><g id="eyes_3"><g id="EYE-01"><path class="cls-1" d="M53.09,10.92a13.05,13.05,0,0,1,.66,1.73c1.54,5.2-.56,10.7-5.19,12.86-5.09,2.38-11.34-.17-14-5.72a1.09,1.09,0,0,1-.08-.15C31.81,14,33.85,7.46,39,5.05S50.45,5.27,53.09,10.92Z"/><path class="cls-2" d="M53.13,10.91A12.11,12.11,0,0,1,54,19.18a10,10,0,0,1-13.72,6.9,12.54,12.54,0,0,1-6.3-6l0,.05a12.82,12.82,0,0,1-1.21-4.36,12,12,0,0,1,.4-4.43A10,10,0,0,1,47.22,4.93,12.07,12.07,0,0,1,53.13,10.91Zm-.07,0A11.91,11.91,0,0,0,47.15,5.1a9.74,9.74,0,0,0-8.21,0,9.84,9.84,0,0,0-5.17,6.38,11.92,11.92,0,0,0,.83,8.24h0a11.84,11.84,0,0,0,5.89,5.72,9.72,9.72,0,0,0,8.12-.06,9.87,9.87,0,0,0,5.17-6.29A12,12,0,0,0,53.06,10.94Z"/><ellipse class="cls-3" cx="45.35" cy="9.05" rx="4.14" ry="4.44" transform="translate(0.44 20.07) rotate(-25.07)"/><ellipse class="cls-4" cx="47.86" cy="7.63" rx="1.14" ry="1.22" transform="translate(1.28 21) rotate(-25.07)"/><path class="cls-1" d="M25.54,20.36a11.66,11.66,0,0,1,.93,2.84c1,4.85-1.16,9.74-5.46,11.75-5,2.33-11-.05-13.82-5.31-.09-.18-.19-.37-.28-.56-2.64-5.65-.62-12.18,4.53-14.59S22.9,14.71,25.54,20.36Z"/><path class="cls-2" d="M25.58,20.35a12,12,0,0,1,.81,8.31,10.92,10.92,0,0,1-1.88,3.86,10.12,10.12,0,0,1-3.34,2.75,10.28,10.28,0,0,1-8.61.19A12.38,12.38,0,0,1,5.63,20.65a10.29,10.29,0,0,1,5.66-6.48,10.14,10.14,0,0,1,8.42.22A12.07,12.07,0,0,1,25.58,20.35Zm-.07,0a11.93,11.93,0,0,0-5.87-5.83,9.86,9.86,0,0,0-8.18,0,9.85,9.85,0,0,0-5.21,6.29,12.05,12.05,0,0,0,6.57,14,9.87,9.87,0,0,0,8.17,0,9.74,9.74,0,0,0,3.3-2.57,10.49,10.49,0,0,0,1.93-3.72A11.88,11.88,0,0,0,25.51,20.38Z"/><ellipse class="cls-3" cx="18.2" cy="18.83" rx="4.23" ry="4.53" transform="translate(-6.26 9.48) rotate(-25.07)"/><ellipse class="cls-4" cx="20.75" cy="16.93" rx="0.97" ry="1.04" transform="translate(-5.22 10.39) rotate(-25.07)"/></g><g id="EYE-02"><path class="cls-5" d="M25.54,20.36a11.66,11.66,0,0,1,.93,2.84A30.38,30.38,0,0,1,7.19,29.64c-.09-.18-.19-.37-.28-.56-2.64-5.65-.62-12.18,4.53-14.59S22.9,14.71,25.54,20.36Z"/><path class="cls-5" d="M53.09,10.92a13.05,13.05,0,0,1,.66,1.73,23.9,23.9,0,0,1-19.21,7.14,1.09,1.09,0,0,1-.08-.15C31.81,14,33.85,7.46,39,5.05S50.45,5.27,53.09,10.92Z"/></g></g></svg>