<svg id="Layer_1" data-name="Layer 1" xmlns="http://www.w3.org/2000/svg" viewBox="0 0 30 20"><defs><style>.cls-1{fill:#fff;}.cls-1,.cls-4{stroke:#3d3c21;stroke-miterlimit:10;stroke-width:0.25px;}.cls-2{fill:#191928;}.cls-3{fill:#f9f5f2;}.cls-4{fill:#eee1b7;}</style></defs><g id="eyes1"><path class="cls-1" d="M13.37,9.83A6.29,6.29,0,0,1,13.3,11,5,5,0,0,1,8.82,15.5a4.78,4.78,0,0,1-4.47-3.15,6.42,6.42,0,0,1-.47-2.18c-.11-3,1.93-5.58,4.55-5.67S13.26,6.79,13.37,9.83Z"/><ellipse class="cls-2" cx="9.88" cy="7.87" rx="2.7" ry="3.36" transform="translate(-2.61 6) rotate(-30)"/><ellipse class="cls-3" cx="7.84" cy="7.4" rx="0.95" ry="1.06" transform="translate(-0.51 0.58) rotate(-4.09)"/><path class="cls-1" d="M26.12,9.34A7,7,0,0,1,26,11c-.38,1.84-1.45,3.18-2.75,3.25s-2.35-1.07-2.85-2.76a7.17,7.17,0,0,1-.29-1.85C20,7,21.3,4.82,23,4.73S26.05,6.71,26.12,9.34Z"/><ellipse class="cls-2" cx="23.77" cy="7.68" rx="2.06" ry="2.89" transform="translate(-1.2 8.52) rotate(-19.82)"/><ellipse class="cls-3" cx="22.14" cy="7.33" rx="0.62" ry="0.92"/></g><g id="eyes3"><path class="cls-4" d="M13.37,9.83A6.29,6.29,0,0,1,13.3,11a9.37,9.37,0,0,1-9,1.36,6.42,6.42,0,0,1-.47-2.18c-.11-3,1.93-5.58,4.55-5.67S13.26,6.79,13.37,9.83Z"/><path class="cls-4" d="M26.12,9.34A7,7,0,0,1,26,11c-1.86,1.39-4.24.93-5.6.49a7.17,7.17,0,0,1-.29-1.85C20,7,21.3,4.82,23,4.73S26.05,6.71,26.12,9.34Z"/></g></svg>