<svg id="Layer_1" data-name="Layer 1" xmlns="http://www.w3.org/2000/svg" viewBox="0 0 480 520"><defs><style>.cls-1{fill:#93402a;stroke:#4c3b0c;}.cls-1,.cls-12,.cls-14,.cls-15,.cls-2,.cls-3,.cls-4,.cls-5,.cls-6{stroke-miterlimit:10;}.cls-2,.cls-4{fill:none;}.cls-2{stroke:#d1a384;}.cls-3,.cls-7{fill:#f9803d;}.cls-3,.cls-4{stroke:#56230a;}.cls-5,.cls-9{fill:#f7e8bc;}.cls-12,.cls-5{stroke:#664b10;}.cls-6{fill:#cc773e;stroke:#704018;}.cls-8{fill:#ba5224;}.cls-10{fill:#664b10;}.cls-11,.cls-12{fill:#e9ba26;}.cls-13{fill:#325109;}.cls-14{fill:#4c0909;}.cls-14,.cls-15{stroke:#4c372d;}.cls-15{fill:#fff;}.cls-16{fill:#f71111;}.cls-17{fill:#3a0101;}.cls-18{fill:#8e4325;}</style></defs><path class="cls-1" d="M229.86,222.91s50.36-4.25,76.86-64.68c0,0-8.48,39.76,24.39,45.06,0,0-26,32.34,9,47.18,0,0-33.4,18.55-11.13,47.71,0,0-31.81,12.72-84.29-39.23C244.7,259,220.32,239.87,229.86,222.91Z"/><path class="cls-2" d="M331.11,203.29s-40.29,31.28-97,29.69"/><path class="cls-2" d="M340.12,250.47s-59.9,10.07-99.66-9"/><path class="cls-1" d="M186.86,222.65s-40.58-3.48-61.94-53c0,0,6.83,32.6-19.65,36.95,0,0,20.93,26.51-7.27,38.68,0,0,26.92,15.21,9,39.12,0,0,25.63,10.43,67.92-32.16C174.9,252.21,194.55,236.56,186.86,222.65Z"/><path class="cls-2" d="M105.27,206.57s32.46,25.64,78.18,24.34"/><path class="cls-2" d="M98,245.25s48.28,8.26,80.32-7.39"/><path class="cls-3" d="M133.21,475.58l-1.5.39c-9.8,2.57-64.89,17-78.72,21.52l-6,1.77L48,490.78s-14.84,3.88-23.68,9.54c0,0-2.82-1.77-.7-12,0,0-7.07,6.36-15.55,8.48S11.29,475.93,42,464.63s50.89-6.37,50.89-6.37S75.6,453.32,53,403.49s22.61-72.09,46.29-53,48.42,89.41,48.42,89.41"/><path class="cls-4" d="M48,490.78S55.46,479.47,94,471.69"/><path class="cls-4" d="M23.66,488.3S36,469.93,79.14,466"/><path class="cls-3" d="M49.1,230.68C68.18,232.09,63.59,242,63.59,242c9.89,9.19,2.47,15.55,2.47,15.55,6.36,7.07-1.76,18-16.25,13.43s-9.9-15.2-9.9-15.2c-9.89-6.71-2.47-13.43-2.47-13.43-5.3-1.77-4.6-7.42-4.6-7.42,1.42-15.9,30.4-11.66,30.4-11.66s-6.37-12.72,6.36-21.56,12,7.42,12,7.42C74.54,220.43,77,234.57,77,234.57s7.77,14.49,17.31,20.49,23.33,4.24,23.33,4.24c26.86-7.42,47.71-29.68,47.71-29.68l-33.46,66.44-5.65.47s-7.07,6.36-12,9.89l-.71-7.06-11.3,5.18,6.59-6.36s-25.21-.24-41-32.75"/><path class="cls-3" d="M35.55,241.4s15.55,8.72,28,.59"/><path class="cls-3" d="M39.09,255.06s5.42,6.84,27,2.48"/><path class="cls-3" d="M63.24,223.26s-5.78,3.77.35,14.37"/><path class="cls-3" d="M77,234.57s8.71,13.19,3.77,24"/><path class="cls-3" d="M116.13,259.78s11.07-2.6,13.66,14.84"/><path class="cls-5" d="M190.81,183.68s-9.9,7.77-7.42,18c0,0-7.07,2.48-14.14,24.39,0,0-10.6,2.82-13.07,22.61a36.41,36.41,0,0,0-14.84,24.74s-14.85,5.65-17.67,30.39c0,0-14.85,9.9-13.43,31.81,0,0-15.2,2.47-14.49,42.05,0,0-12,10.25,3.53,40.64,0,0-5.65,20.5,17.67,39.23,0,0,3.53,18.73,33.57,26.5,0,0,11.31,8.84,35.7,2.83s41.34-4.95,53.71-21.2,6.72-119.45,6.72-119.45S208.13,295,220.14,256.48s22.27-70,30-83.05-6.36-61.14-6.36-61.14l-61.14,39.23Z"/><path class="cls-6" d="M260.07,356.84s19.79-13.43,17-1.41-6.72,17.31,3.53,17,15.55,2.12,9.54,15.55c0,0-.35,6.71,7.78,3.53s14.13-2.12,12,11.31,5.66-11.66,15.91,1.42,15.54,4.94,15.9-4.25-3.89-6.71,8.83-9.54-12-8.13-4.94-14.49,9.54-9.89-1.77-16.61,13.78-9.18,1.77-15.9-13.43-6-9.9-17-13.07-6.72-9.54-19.44-7.07-14.49,0-23.32-13.08-13.43,0-18c0,0-6.72-11.31.71-18.38,0,0-2.83-8.84,4.59-13.43s-.35-1.41-.35-1.41-1.06-9.9,3.53-11.67,1.06-1.41,1.06-1.41.71-9.54,6.36-9.89,1.42-.71,1.42-.71l7.06-9.54s-13.43,29.33-13.43,59,11.67,68.92,21.21,86.94,21.91,64.67-8.84,78.1S267.5,391.47,260.07,356.84Z"/><path class="cls-3" d="M395.07,182.62C356.9,227.14,362.56,269.2,373.52,301c10,29.05,33,49.55,37.42,92.2.42,4,.68,8.29.74,12.76.22,15.94-5,28.34-13.27,37.51A53.49,53.49,0,0,1,390,451a61.75,61.75,0,0,1-6.53,4.1,64.35,64.35,0,0,1-6.66,3.14c-17.69,7.23-38.9,7.45-55.56,1.79-29.28-9.95-38.42-52.41-40.7-66.68-.47-3-.64-4.7-.64-4.7a145.79,145.79,0,0,0,21.3,19.29c22.22,16,33.83,10.39,33.83,10.39,49.82-19.08,5.65-85.88-1.42-121.57-6.73-34-2.88-62.54,10.63-87.47.07-.13.14-.27.22-.4.6-1.11,1.23-2.21,1.87-3.3q1.54-2.62,3.23-5a77.62,77.62,0,0,1,38.12-28.23l-.23-.26L376,158.94c56.89-11.31,98.24,13.43,98.24,13.43-30.39,6.71-61.49,31.1-61.49,31.1l-17.11-20.2Z"/><path class="cls-3" d="M246.65,176.26s-.38.52-1.07,1.52c-5.54,8.09-31.2,47.14-37.81,86.47-7.42,44.18,0,80.58,32.51,105s30,94.71,30,94.71,24,31.8,76.69,26.15,75.27-64,64-97.18c0,0-3.88,46.64-61.84,39.22s-88.7-83.4-88.7-83.4-26.51-40.28-27.57-78.45,2.12-55.48,10.25-74.57,17.62-31.93,23.63-46.42"/><path class="cls-7" d="M232.75,225.38s26.15,38.87,57.48,45.23l6.36-10.6s6.6,9.9,3.06,19.32l9.9-6.6s2.12,15.08-15.31,18.38c0,0-12,24.74-32.52,33.93,0,0,6.6,11.3-.7,18.14,0,0-.71,5.89,4.24-.24,0,0,7.3,16-9.19,17.91,0,0-4.71,5.65-13.66-.24,0,0-10.37,5.18-14.61-2.59s-.94-22.15,9.89-36.52c0,0,11.08-17.9,10.6-29.92,0,0-8.24-2.36-22.85-22.62"/><path class="cls-4" d="M232.75,225.38s26.15,38.87,57.48,45.23l6.36-10.6s6.6,9.9,3.06,19.32l9.9-6.6s2.12,15.08-15.31,18.38c0,0-12,24.74-32.52,33.93,0,0,6.6,11.3-.7,18.14,0,0-.71,5.89,4.24-.24,0,0,7.3,16-9.19,17.91,0,0-4.71,5.65-13.66-.24,0,0-10.37,5.18-14.61-2.59s-.94-22.15,9.89-36.52c0,0,11.08-17.9,10.6-29.92,0,0-8.24-2.36-22.85-22.62"/><path class="cls-7" d="M248.29,291.58s6.37-17.67,25.92-12.49"/><path class="cls-4" d="M248.29,291.58s6.37-17.67,25.92-12.49"/><path class="cls-7" d="M257.48,360.61s-9.89.47-8.48-13.66"/><path class="cls-4" d="M257.48,360.61s-9.89.47-8.48-13.66"/><path class="cls-7" d="M242.41,360.61S229,354,239.34,338.94"/><path class="cls-4" d="M242.41,360.61S229,354,239.34,338.94"/><path class="cls-7" d="M260.07,375.57A36.08,36.08,0,0,0,226.15,366c-20.85,5-31.81,33.57-27.21,60.78s24,43.82,24,43.82-61.14-.7-64,38.52L171,506a15,15,0,0,0,1.41,8.48c2.12,3.89,20.85-8.48,20.85-8.48s-8.12,10.6,16.26,4.24S258,500,274.92,499.61s11.66-6.71,8.83-19.44-10.25-21.91-2.12-47"/><path class="cls-4" d="M260.07,375.57A36.08,36.08,0,0,0,226.15,366c-20.85,5-31.81,33.57-27.21,60.78s24,43.82,24,43.82-61.14-.7-64,38.52L171,506a15,15,0,0,0,1.41,8.48c2.12,3.89,20.85-8.48,20.85-8.48s-8.12,10.6,16.26,4.24S258,500,274.92,499.61s11.66-6.71,8.83-19.44-10.25-21.91-2.12-47"/><path class="cls-4" d="M171,506s.71-18.73,35.69-27.56"/><path class="cls-4" d="M193.28,506s2.12-14.13,29-24.38"/><ellipse class="cls-8" cx="244.79" cy="390.87" rx="8.96" ry="10.78" transform="translate(-80.38 63.81) rotate(-12.78)"/><ellipse class="cls-8" cx="246.03" cy="418.12" rx="7.78" ry="9.62" transform="translate(-96.2 74.27) rotate(-14.39)"/><ellipse class="cls-8" cx="230.29" cy="406.43" rx="5.36" ry="6.63" transform="translate(-93.79 69.99) rotate(-14.39)"/><path class="cls-9" d="M183.39,201.7s9.54,11.66,34.28,7.42"/><path class="cls-10" d="M183.78,201.38a17.79,17.79,0,0,0,3.33,2.87,27.69,27.69,0,0,0,3.89,2.22,35.71,35.71,0,0,0,8.59,2.68l2.23.37,2.26.21c1.5.19,3,.11,4.53.17s3-.15,4.54-.22l4.52-.56-4.51.68c-1.51.11-3,.29-4.54.35s-3.05.1-4.56,0l-2.29-.15-2.26-.31a36.62,36.62,0,0,1-8.81-2.5,27.38,27.38,0,0,1-4.07-2.17,19.13,19.13,0,0,1-3.63-3Z"/><path class="cls-9" d="M169.25,226.09s3.54,17,36.4,15.54"/><path class="cls-10" d="M169.74,226a13.59,13.59,0,0,0,2.27,4.53,20.48,20.48,0,0,0,1.65,2c.62.59,1.25,1.2,1.91,1.75a28.11,28.11,0,0,0,9.22,4.85l1.24.43c.42.13.85.22,1.28.33l2.56.62c1.73.3,3.47.58,5.21.79s3.52.3,5.28.36h5.29l-5.29.12c-1.77,0-3.53-.16-5.3-.23s-3.51-.41-5.26-.67l-2.6-.57c-.43-.1-.87-.18-1.3-.3l-1.27-.4a28.92,28.92,0,0,1-9.52-4.74c-.71-.56-1.37-1.17-2-1.77a23,23,0,0,1-1.78-2,14.55,14.55,0,0,1-2.54-4.84Z"/><path class="cls-9" d="M156.18,248.7s0,18.38,41,20.5"/><path class="cls-10" d="M156.68,248.7a12.36,12.36,0,0,0,1.92,5.51c.25.43.57.81.86,1.23l.44.61c.16.19.33.37.5.55l1,1.12c.35.36.76.66,1.13,1a35.51,35.51,0,0,0,10.56,6c.94.38,1.94.63,2.9.95s1.94.67,3,.86l3,.68,1.5.34c.5.11,1,.17,1.51.25l3,.47c1,.16,2,.34,3,.4l6.13.56-6.14-.43c-1,0-2-.21-3.06-.34l-3.05-.41c-.51-.07-1-.12-1.52-.22l-1.51-.31-3-.63a30.43,30.43,0,0,1-3-.8c-1-.3-2-.53-2.95-.9a36,36,0,0,1-10.87-5.87c-.4-.34-.82-.64-1.19-1l-1.09-1.14c-.17-.19-.36-.37-.53-.57l-.48-.63c-.3-.42-.65-.82-.92-1.27a13,13,0,0,1-2.18-6Z"/><path class="cls-9" d="M141.34,273.44s10.95,25.09,54.42,20.5"/><path class="cls-10" d="M141.79,273.24a28.16,28.16,0,0,0,4.29,6.18l1.29,1.4,1.4,1.29a34,34,0,0,0,2.94,2.42,46.8,46.8,0,0,0,13.61,6.84l3.68,1.09,3.76.75,1.89.37,1.91.21,3.82.4c2.56.15,5.12.14,7.69.21l7.69-.46-7.69.58c-2.56,0-5.14,0-7.71-.08l-3.84-.34-1.92-.18-1.9-.34-3.81-.69-3.72-1a47.4,47.4,0,0,1-13.9-6.71,34.16,34.16,0,0,1-10.39-11.5Z"/><path class="cls-9" d="M123.67,303.83s5.65,32.16,75.62,25.45"/><path class="cls-10" d="M124.16,303.75a22.78,22.78,0,0,0,4.9,9.12A35.83,35.83,0,0,0,137,319.8a49,49,0,0,0,9.49,4.76,67.74,67.74,0,0,0,10.21,3,110.9,110.9,0,0,0,21.2,2.42,190.79,190.79,0,0,0,21.38-.74,193.19,193.19,0,0,1-21.38,1,111.41,111.41,0,0,1-21.31-2.18,70.26,70.26,0,0,1-10.33-2.94,49.94,49.94,0,0,1-9.66-4.72,36.63,36.63,0,0,1-8.22-7,23.68,23.68,0,0,1-5.22-9.52Z"/><path class="cls-9" d="M110.24,335.64s-6.36,33.92,89.05,40.64"/><path class="cls-10" d="M110.73,335.73a14.72,14.72,0,0,0,.78,6.23,22,22,0,0,0,2.92,5.73,37.75,37.75,0,0,0,9.3,9A66.53,66.53,0,0,0,135.19,363a106.7,106.7,0,0,0,12.31,4.54,188.48,188.48,0,0,0,25.64,5.74c8.67,1.37,17.4,2.29,26.15,3-8.75-.61-17.5-1.46-26.18-2.74A188.48,188.48,0,0,1,147.36,368a104.91,104.91,0,0,1-12.42-4.45,66.51,66.51,0,0,1-11.63-6.26,38.74,38.74,0,0,1-9.6-9.13,22.93,22.93,0,0,1-3.09-5.93,15.47,15.47,0,0,1-.87-6.72Z"/><path class="cls-9" d="M95.75,377.69s3.88,36.4,93.65,38.17"/><path class="cls-10" d="M96.24,377.64a19.91,19.91,0,0,0,2.23,6.09,34,34,0,0,0,3.71,5.45,47.5,47.5,0,0,0,9.95,8.75,74.78,74.78,0,0,0,11.72,6.33,116.89,116.89,0,0,0,12.58,4.49,170.61,170.61,0,0,0,26.24,5.2c8.87,1.09,17.79,1.66,26.73,1.91-8.94-.17-17.87-.65-26.76-1.67a169.61,169.61,0,0,1-26.34-5,116.94,116.94,0,0,1-12.7-4.4,75,75,0,0,1-11.89-6.28,48.11,48.11,0,0,1-10.19-8.81,34.68,34.68,0,0,1-3.88-5.57,20.7,20.7,0,0,1-2.39-6.43Z"/><path class="cls-9" d="M99.28,418.33s7.19,27.8,97.42,24.5"/><path class="cls-10" d="M99.77,418.21a11.87,11.87,0,0,0,1.42,2.73l.93,1.3c.34.4.71.79,1.07,1.19a21.09,21.09,0,0,0,2.31,2.22c.41.35.8.72,1.22,1.05l1.32.93,1.32.93.67.46.7.4,2.82,1.6a31.29,31.29,0,0,0,2.92,1.4l3,1.33c8,3.25,16.61,5.06,25.16,6.55a238,238,0,0,0,26,2.41l6.53.2,3.26.1c1.09,0,2.18,0,3.27,0l13.06-.16-13.06.28c-1.09,0-2.18.07-3.27.06l-3.27-.07-6.53-.14a234.22,234.22,0,0,1-26-2.17c-8.6-1.4-17.21-3.14-25.37-6.34l-3-1.32a29.69,29.69,0,0,1-3-1.39l-2.88-1.6-.73-.39-.68-.47-1.35-.94-1.36-.94c-.44-.33-.84-.71-1.27-1.07a19.87,19.87,0,0,1-2.41-2.27c-.37-.41-.76-.8-1.12-1.23l-1-1.34a12.64,12.64,0,0,1-1.59-3Z"/><path class="cls-11" d="M117,457.56s18,20.49,76,10.95"/><path class="cls-10" d="M117.33,457.23a24.76,24.76,0,0,0,3.71,3.06l2,1.32,2.15,1.18c.7.41,1.46.72,2.2,1.07s1.47.71,2.23,1l2.3.87a20.52,20.52,0,0,0,2.32.81l2.35.71a21.88,21.88,0,0,0,2.37.65c1.6.36,3.19.76,4.8,1.08l4.87.79c.8.15,1.62.22,2.44.3l2.45.23c3.27.41,6.57.38,9.85.53,1.65.07,3.29-.05,4.94-.06s3.29-.07,4.93-.14c3.28-.27,6.57-.49,9.84-.82l9.8-1.3-9.78,1.43c-3.27.37-6.56.62-9.84.94-1.65.09-3.3.13-4.95.2s-3.29.18-4.94.12c-3.3-.1-6.6,0-9.89-.4l-2.47-.2c-.82-.07-1.64-.13-2.46-.27l-4.9-.73c-1.63-.31-3.24-.69-4.85-1-.82-.15-1.61-.39-2.41-.62l-2.38-.69c-.8-.21-1.58-.5-2.36-.79l-2.33-.86c-.78-.28-1.52-.66-2.29-1s-1.53-.65-2.25-1.07l-2.2-1.17-2.12-1.33a25,25,0,0,1-3.93-3.17Z"/><ellipse class="cls-8" cx="64.59" cy="366.55" rx="6.66" ry="9.04" transform="translate(-47.22 11.55) rotate(-7.49)"/><ellipse class="cls-8" cx="65.51" cy="389.49" rx="5.79" ry="8.06" transform="translate(-59.5 14.84) rotate(-8.91)"/><ellipse class="cls-8" cx="53.85" cy="379.65" rx="3.99" ry="5.55" transform="translate(-58.12 12.91) rotate(-8.91)"/><ellipse class="cls-8" cx="232.97" cy="241.77" rx="5.45" ry="9.02" transform="translate(-97.11 180.36) rotate(-35.52)"/><ellipse class="cls-8" cx="251.35" cy="269.46" rx="4.75" ry="8.04" transform="matrix(0.82, -0.57, 0.57, 0.82, -108.47, 189.99)"/><ellipse class="cls-8" cx="249.45" cy="253.87" rx="3.27" ry="5.54" transform="translate(-99.96 186.16) rotate(-34.54)"/><ellipse class="cls-8" cx="379.86" cy="463.01" rx="9.02" ry="5.45" transform="translate(-218.38 490.86) rotate(-53.3)"/><ellipse class="cls-8" cx="392.75" cy="444.02" rx="8.04" ry="4.75" transform="translate(-198.74 483.37) rotate(-52.31)"/><ellipse class="cls-8" cx="379.44" cy="447.25" rx="5.54" ry="3.27" transform="translate(-206.47 474.09) rotate(-52.31)"/><path class="cls-2" d="M223,470.63s7.07-2.12,21.56,7.78"/><path class="cls-2" d="M92.92,458.26s3.53-2.47,14.14,4.24"/><path class="cls-12" d="M474.58,171.66c-30.39,6.72-61.49,31.1-61.49,31.1L396,182.57c2.21-7.58-2.89-10.29-8.2-11.17l-11.44-13.16C433.23,146.93,474.58,171.66,474.58,171.66Z"/><path class="cls-12" d="M181.66,57.49s-31-21.28-23.76-50.05c0,0-6.86-5.28-12.51,25.41s17.8,50.31,17.8,50.31S184.33,74.22,181.66,57.49Z"/><path class="cls-11" d="M168.13,44.72s-1.3,16.28-19.89,17"/><path class="cls-10" d="M167.46,43.87a26.08,26.08,0,0,1-.94,4.16,19,19,0,0,1-1.27,3.29A17.66,17.66,0,0,1,161,56.85a18.48,18.48,0,0,1-6,3.44,25.78,25.78,0,0,1-6.79,1.38,25.88,25.88,0,0,0,6.92-.89,18.45,18.45,0,0,0,11.35-8.7,21.46,21.46,0,0,0,1.61-3.47,11.21,11.21,0,0,0,.77-2.87Z"/><path class="cls-11" d="M160.11,32.14s-5.53,8.79-15.51,3.58"/><path class="cls-10" d="M159.73,31.07a18.57,18.57,0,0,1-1.64,2.15c-.23.27-.49.51-.73.77l-.79.69a10.07,10.07,0,0,1-3.68,1.92,5,5,0,0,1-1,.23,5.09,5.09,0,0,1-1,.13l-1.06,0-1.05-.1-.53-.06-.52-.12-1.05-.25c-.68-.21-1.35-.5-2-.75.65.32,1.29.69,2,1l1,.38.51.19.54.12,1.09.24,1.11.09a5.24,5.24,0,0,0,1.12,0,7.1,7.1,0,0,0,1.12-.12A11.18,11.18,0,0,0,157.36,36c.33-.21.65-.44,1-.67s.62-.49.91-.76a12.85,12.85,0,0,0,1.67-1.82Z"/><path class="cls-12" d="M257.09,56.19s32.48-22.52,23.94-51c0,0,7.17-5.56,14,24.91s-17.59,51-17.59,51S254.7,73,257.09,56.19Z"/><path class="cls-11" d="M271.15,42.87S273,59.1,292.81,59"/><path class="cls-10" d="M271.84,42A25.26,25.26,0,0,0,273,46.12a19.19,19.19,0,0,0,1.45,3.24,17.58,17.58,0,0,0,4.66,5.36,19.64,19.64,0,0,0,6.48,3.2A29.21,29.21,0,0,0,292.81,59a29.31,29.31,0,0,1-7.4-.61,20.45,20.45,0,0,1-6.94-2.86,18.83,18.83,0,0,1-5.39-5.39,20.6,20.6,0,0,1-1.81-3.41,10.16,10.16,0,0,1-.9-2.84Z"/><path class="cls-11" d="M279.36,30s6.13,8.57,16.62,2.95"/><path class="cls-10" d="M279.73,28.89A18.88,18.88,0,0,0,281.54,31c.25.26.53.48.79.73s.57.45.87.66a10.81,10.81,0,0,0,4,1.78,6.54,6.54,0,0,0,1.09.19,5.8,5.8,0,0,0,1.11.09h1.12l1.12-.15.56-.08.55-.14,1.11-.29c.73-.24,1.43-.56,2.15-.84-.68.36-1.35.75-2.06,1.08l-1.09.42-.54.21-.57.14-1.15.29-1.18.13a12,12,0,0,1-2.4,0,12.17,12.17,0,0,1-4.6-1.47c-.36-.2-.7-.42-1.05-.64s-.68-.46-1-.72a12.48,12.48,0,0,1-1.83-1.75Z"/><path class="cls-13" d="M271.23,113.14c2.36-.25,6.37,1,8.95,2.77l.27-.4C275.18,111.86,271.23,113.14,271.23,113.14Z"/><path class="cls-3" d="M281,118.46c2.31-25-3.52-46.36-16.44-60.07-8.23-8.73-19-13.73-29.47-13.73a29.41,29.41,0,0,0-19.26,6.83,22.57,22.57,0,0,0-15.37-5.92c-9.15,0-19.07,5.17-27.22,14.19-12.67,14-19.61,35.08-17,54.74-.27.29.37-.37,0,0-3.1,3.08-14,6.54-14.76,16.85-.83,11,10.79,20.65,19.11,28.4,2,1.85,4.06,3.76,6.06,5.79,3,3,5.6,7.28,8.37,11.76,6.64,10.76,14.17,23,30.05,23.66.65,0,1.31,0,1.95,0,18.93,0,29.69-12.28,36.81-20.41.84-.95,1.63-1.86,2.37-2.67,3.13-3.41,8.65-5.69,14.49-8.1,9.27-3.82,24.28-12,30-22.21C297.2,136.26,288.69,123.64,281,118.46Z"/><path class="cls-14" d="M161.77,147c3.41,7.69,23.92,43.74,42,44.57,17.61.81,35.31-10.64,57.62-52.87C256.6,130.66,162.5,138.8,161.77,147Z"/><path class="cls-15" d="M239.37,152.63s-.12,11.49-5.73,14.18-5.49-7.09-5.61-10.49S239.37,152.63,239.37,152.63Z"/><path class="cls-15" d="M176.47,154.08s.11,11.49,5.31,14.18,5.07-7.09,5.19-10.49S176.47,154.08,176.47,154.08Z"/><path class="cls-16" d="M216.5,178.31c-3.28,0-7.39,1.11-9.36,4.2a7.74,7.74,0,0,0-6.71-3.57,8.85,8.85,0,0,0-5.94,2.23,7.21,7.21,0,0,0-2.35,5.7V187l.11.06c4.14,2.48,8.69,4.46,13.29,4.51h0c7.37,0,16.14-3.12,21-7.43h0C226.19,180.35,220.55,178.31,216.5,178.31Z"/><path class="cls-13" d="M158,127.36c0-.14-.48.07-.45.3.58,3.84,2,8.35,7,10.86l.22-.44C159.84,135.64,158.52,131.34,158,127.36Z"/><path class="cls-3" d="M236.86,118.58a14.6,14.6,0,0,0-5.14-3l-.13,0c-9.34-3.42-24.38-4.58-38.37-2.64-14.36,2-24.89,6.71-29.66,13.3-8.34,10.55-3.05,20.94,4.68,27.15,8.18,6.56,21.85,10.45,31.19,4.82,3.93,2.69,9.7,4,16.17,4a55.36,55.36,0,0,0,19-3.53c8.25-3.07,25.38-10.44,26.11-21.21l-.12-.34"/><path class="cls-14" d="M220.28,138.16c-3.82,0-9.51,5.65-10,9.11l0,.21.2.06a9.92,9.92,0,0,0,2.7.35c4,0,8.33-2,9.83-4.45a3.47,3.47,0,0,0,.13-3.57A3,3,0,0,0,220.28,138.16Z"/><path class="cls-17" d="M217.59,140.31c-2.8,0-7,4.14-7.36,6.68l0,.15.15.05a7.19,7.19,0,0,0,2,.26c2.94,0,6.11-1.44,7.21-3.27a2.57,2.57,0,0,0,.1-2.62A2.23,2.23,0,0,0,217.59,140.31Z"/><path class="cls-14" d="M182.52,138.31a3,3,0,0,0-2.65,1.94,3.46,3.46,0,0,0,.43,3.54c1.7,2.36,6.17,4,10.16,3.63a9.71,9.71,0,0,0,2.66-.58l.2-.08,0-.2C192.46,143.15,186.32,138,182.52,138.31Z"/><path class="cls-17" d="M185.37,140.23a2.2,2.2,0,0,0-1.94,1.42,2.56,2.56,0,0,0,.31,2.6c1.25,1.73,4.53,2.9,7.46,2.66a7.24,7.24,0,0,0,2-.42l.14-.06,0-.15C192.66,143.78,188.16,140,185.37,140.23Z"/><path class="cls-18" d="M253.51,136s7.91-1,11.62,10.82C265.13,146.82,264.33,131.15,253.51,136Z"/><path class="cls-18" d="M156.24,134.75s-2.53-8.66,8.44-11.52C164.68,123.23,152.3,124.62,156.24,134.75Z"/></svg>