<svg id="Layer_1" data-name="Layer 1" xmlns="http://www.w3.org/2000/svg" viewBox="0 0 110 180"><defs><style>.cls-1,.cls-6{fill:#d86430;}.cls-1{stroke:#56230a;}.cls-1,.cls-2{stroke-miterlimit:10;}.cls-2,.cls-3{fill:#f7e8bc;}.cls-2{stroke:#664b10;}.cls-4{fill:#664b10;}.cls-5{fill:#721c4d;}.cls-7{fill:#56230a;}.cls-8{fill:#c64f1a;}.cls-9{fill:#68112c;}.cls-10{fill:#f9f4f5;}.cls-11{fill:#f28d16;}</style></defs><path class="cls-1" d="M42.38,76.26s.06.24.14.75c.41,2.51,1.43,11.77-1,33.12-2.93,25.67-10.68,36-10.68,36s7,13.8,25.69,21.42,26-27.2,26-27.2-11.71-29.72-5.17-69S42.38,76.26,42.38,76.26Z"/><path class="cls-2" d="M51.42,76.4s.12,19.06-1.24,33.36-7.09,32.5-10.38,38.91,28,13.14,33.1.47c0,0-2-13.52-3.14-36.89s1.3-38.78,1.3-38.78Z"/><path class="cls-3" d="M51.37,91.08s9.25,6.79,18.3.67"/><path class="cls-4" d="M51.39,91a42.14,42.14,0,0,0,4.55,1.55,24.12,24.12,0,0,0,4.57.77,17.56,17.56,0,0,0,4.57-.26c.38-.08.77-.12,1.14-.23l1.13-.35c.79-.17,1.47-.58,2.29-.81l0,.09a15.56,15.56,0,0,1-4.41,2,13.85,13.85,0,0,1-4.84.5,17.59,17.59,0,0,1-4.76-1,19.09,19.09,0,0,1-4.34-2.21Z"/><path class="cls-3" d="M43.91,139.43s13.6,11.46,27.36-.22"/><path class="cls-4" d="M43.94,139.4a27.53,27.53,0,0,0,3.3,1.66,27.13,27.13,0,0,0,3.4,1.32,22.71,22.71,0,0,0,7,1.15,20,20,0,0,0,3.54-.21l1.74-.39.43-.1c.14-.05.28-.11.43-.15l.85-.28a32.2,32.2,0,0,0,6.56-3.23l.07.08-1.49,1.12a12.35,12.35,0,0,1-1.53,1.07A21.11,21.11,0,0,1,65,143.12l-.87.35-.44.17-.45.12-1.81.45a19.33,19.33,0,0,1-3.72.31,21.15,21.15,0,0,1-7.3-1.42,24.84,24.84,0,0,1-6.5-3.63Z"/><path class="cls-3" d="M47.3,126.7s13.25,9,23,.41"/><path class="cls-4" d="M47.33,126.65a52.28,52.28,0,0,0,5.76,2.06,30.42,30.42,0,0,0,5.84,1.13,19.6,19.6,0,0,0,5.82-.41l1.43-.39c.47-.16.91-.39,1.37-.58l.71-.27.66-.38c.43-.26.89-.5,1.36-.74l.06.07a15.5,15.5,0,0,1-5.36,3,17.14,17.14,0,0,1-6.13.67,24.46,24.46,0,0,1-6-1.39,27.88,27.88,0,0,1-5.54-2.71Z"/><path class="cls-3" d="M49.94,114.84s10.71,6.42,19.76.3"/><path class="cls-4" d="M50,114.8c1.67.55,3.33,1,5,1.35a31.21,31.21,0,0,0,5,.7,21.34,21.34,0,0,0,4.92-.28l1.23-.23,1.2-.38c.85-.16,1.58-.61,2.44-.86l.06.08A15.77,15.77,0,0,1,65,117.32a16.46,16.46,0,0,1-5.18.52,22.4,22.4,0,0,1-5.12-.93,24,24,0,0,1-4.79-2Z"/><path class="cls-3" d="M51.23,103.52s9.25,6.79,18.3.68"/><path class="cls-4" d="M51.26,103.48A39.27,39.27,0,0,0,55.8,105a24.12,24.12,0,0,0,4.57.77,16.71,16.71,0,0,0,4.57-.26c.38-.08.77-.12,1.15-.23l1.12-.35c.79-.17,1.48-.58,2.29-.81l.06.09a15.69,15.69,0,0,1-4.41,2.05,13.94,13.94,0,0,1-4.85.51,18.08,18.08,0,0,1-4.76-1,19.09,19.09,0,0,1-4.34-2.21Z"/><ellipse class="cls-1" cx="41.16" cy="34.4" rx="26.91" ry="19.17" transform="translate(-9.53 16.85) rotate(-20.79)"/><path class="cls-1" d="M34.35,28.71s-7.75-8.28-15.49-5.92S8.38,35,11.49,48.47,6.25,65,10.39,76.66,35.75,87.75,42.7,90.15s23.48,6.48,34.91-12.68c0,0,1.06-2.13,7.47-6.86s19-12,14.89-24.07S84,31.44,70.81,19.76,47.07,9.92,43.29,17.4a21.83,21.83,0,0,0-2.52,10"/><path class="cls-5" d="M54,61.24s-3.34-3.72-.35-7S61,57.26,54,61.24Z"/><path class="cls-5" d="M39.71,68s-.13-4.94-4.18-5.51S32.56,69.39,39.71,68Z"/><path class="cls-6" d="M22.89,63.09S39.64,41,63.18,47.41"/><path class="cls-7" d="M22.85,63.06a50,50,0,0,1,8-8.14,45.89,45.89,0,0,1,9.76-6.06,32.38,32.38,0,0,1,11.14-3,28.88,28.88,0,0,1,11.39,1.49l0,.1a37.85,37.85,0,0,0-11.27-.59,36.2,36.2,0,0,0-5.55,1A34.32,34.32,0,0,0,41,49.6a44.77,44.77,0,0,0-9.77,5.71,49.78,49.78,0,0,0-8.28,7.81Z"/><path class="cls-8" d="M25.32,73.15S35.78,87.45,53.69,88,75.74,59.14,72,49c0,0,.32,18.78-18,27S25.32,73.15,25.32,73.15Z"/><path class="cls-9" d="M24.19,71.7A38.14,38.14,0,0,0,51.9,85.17c17.9.54,23.56-25.88,19.86-36,0,0-.53,17.19-18.84,25.43S24.19,71.7,24.19,71.7Z"/><path class="cls-10" d="M35.58,78.32s3.21,4.92,7.92,5,.45-5.39.45-5.39Z"/><path class="cls-10" d="M67.05,64.93s1.14,5.71-1.37,8.49-5.42-2.6-5.42-2.6Z"/><path class="cls-8" d="M22.83,70s8.56,13.45,29.62,3.73S71.76,49.18,71.76,49.18s1.57,17.4-18.24,25.88S25.75,74.66,22.83,70Z"/><path class="cls-11" d="M46.78,84.58s-.78-.8,3.16-3.81S56,79.61,56,79.61s.18-2.55,4.82-3.22,6.57.11,6.57.11a17.92,17.92,0,0,1-9.2,7.62A17.27,17.27,0,0,1,46.78,84.58Z"/><path class="cls-8" d="M23.64,67.6s-2.69.87,1,7.11C24.61,74.71,18.48,68.4,23.64,67.6Z"/><path class="cls-8" d="M68.39,49a7.65,7.65,0,0,1,7,3.37l-.18,2.94A7.72,7.72,0,0,0,76.18,51C76,48.46,68.39,49,68.39,49Z"/></svg>