<svg id="Layer_1" data-name="Layer 1" xmlns="http://www.w3.org/2000/svg" viewBox="0 0 110 180"><defs><style>.cls-1,.cls-7{fill:#f9803d;}.cls-1{stroke:#56230a;}.cls-1,.cls-2{stroke-miterlimit:10;}.cls-2,.cls-3{fill:#f7e8bc;}.cls-2{stroke:#664b10;}.cls-4{fill:#664b10;}.cls-5{fill:#569153;}.cls-6{fill:#721c4d;}.cls-8{fill:#56230a;}.cls-9{fill:#c64f1a;}.cls-10{fill:#68112c;}.cls-11{fill:#f9f4f5;}.cls-12{fill:#f28d16;}</style></defs><path class="cls-1" d="M43.61,82s.06.23.14.74c.41,2.52,1.43,11.78-1,33.12-2.93,25.68-10.68,36-10.68,36s7,13.79,25.7,21.42,26-27.21,26-27.21-11.71-29.71-5.17-69S43.61,82,43.61,82Z"/><path class="cls-2" d="M52.65,82.15s.12,19-1.24,33.35S44.32,148,41,154.41s28,13.15,33.1.48c0,0-2-13.53-3.14-36.9S72.3,79.21,72.3,79.21Z"/><path class="cls-3" d="M52.6,96.82s9.25,6.79,18.3.68"/><path class="cls-4" d="M52.63,96.78a39.27,39.27,0,0,0,4.54,1.55,24.12,24.12,0,0,0,4.57.77,16.71,16.71,0,0,0,4.57-.26c.38-.08.77-.12,1.14-.23l1.13-.35c.79-.17,1.48-.58,2.29-.81l.06.09a15.62,15.62,0,0,1-4.42,2,13.86,13.86,0,0,1-4.84.51,17.69,17.69,0,0,1-4.76-1,19.09,19.09,0,0,1-4.34-2.21Z"/><path class="cls-5" d="M45.17,145.14a29.18,29.18,0,0,0,3.3,1.67,28.7,28.7,0,0,0,3.4,1.31,22.42,22.42,0,0,0,7,1.15,19.13,19.13,0,0,0,3.54-.21l1.74-.39.44-.1c.14,0,.27-.11.42-.15l.85-.28a32.53,32.53,0,0,0,6.57-3.23l.06.08L71,146.11a10.77,10.77,0,0,1-1.53,1.07,18.81,18.81,0,0,1-3.32,1.68l-.87.35-.43.18-.46.11-1.81.45a20.17,20.17,0,0,1-3.72.32,21.43,21.43,0,0,1-7.3-1.42,24.82,24.82,0,0,1-6.49-3.64Z"/><path class="cls-3" d="M48.54,132.44s13.24,8.95,23,.41"/><path class="cls-4" d="M48.56,132.4a54.43,54.43,0,0,0,5.76,2.06,31.18,31.18,0,0,0,5.84,1.12,19.6,19.6,0,0,0,5.82-.41l1.43-.38c.47-.17.91-.4,1.37-.59l.71-.27.66-.38c.44-.26.89-.5,1.36-.74l.07.08a15.68,15.68,0,0,1-5.37,3,16.68,16.68,0,0,1-6.13.67,24.37,24.37,0,0,1-6-1.38,28.28,28.28,0,0,1-5.55-2.72Z"/><path class="cls-3" d="M51.17,120.59s10.71,6.41,19.76.3"/><path class="cls-4" d="M51.2,120.54c1.66.56,3.32,1,5,1.36a31.19,31.19,0,0,0,5,.69,21.91,21.91,0,0,0,4.92-.27l1.23-.24,1.2-.37c.86-.16,1.58-.62,2.44-.87l.06.09a16.16,16.16,0,0,1-4.73,2.14,16.73,16.73,0,0,1-5.18.52,22.24,22.24,0,0,1-5.11-.94,24.06,24.06,0,0,1-4.8-2Z"/><path class="cls-3" d="M52.46,109.26s9.25,6.79,18.3.68"/><path class="cls-4" d="M52.49,109.22A38.78,38.78,0,0,0,57,110.77a22.42,22.42,0,0,0,4.56.77,16.71,16.71,0,0,0,4.57-.26,11.7,11.7,0,0,0,1.15-.23l1.12-.35c.79-.17,1.48-.58,2.29-.8l.06.08a15.69,15.69,0,0,1-4.41,2,13.94,13.94,0,0,1-4.85.51,17.69,17.69,0,0,1-4.76-1,19.09,19.09,0,0,1-4.34-2.21Z"/><ellipse class="cls-1" cx="48.66" cy="29.73" rx="26.91" ry="19.17" transform="translate(-7.07 17.65) rotate(-19.19)"/><path class="cls-1" d="M50.23,21s.61-11.32,8.06-14.48S74.15,9.1,80.44,21.44s14.63,9.3,19,20.9-12.31,24.8-16.1,31.1-13.82,20-34.89,12.72c0,0-2.18-1-10.13-.47S16,88.76,11.4,76.82,13.92,55,16.54,37.56,28.4,14.77,36.11,18.07a21.9,21.9,0,0,1,8.37,6.06"/><path class="cls-6" d="M56,58.57s.16-5-4.21-5.56S48.18,60,56,58.57Z"/><path class="cls-6" d="M71.37,54.56S68.3,50.69,71,47.65,77.73,51,71.37,54.56Z"/><path class="cls-7" d="M81.1,40s-27-6.16-40.95,13.87"/><path class="cls-8" d="M81.09,40a50.33,50.33,0,0,0-11.36-.66,45.36,45.36,0,0,0-11.17,1.9,34.89,34.89,0,0,0-5.24,2.09,36.22,36.22,0,0,0-4.86,2.83,37.92,37.92,0,0,0-8.27,7.69l-.08,0a28.89,28.89,0,0,1,7.77-8.46,32.25,32.25,0,0,1,10.46-4.87,45.58,45.58,0,0,1,11.37-1.63,50.7,50.7,0,0,1,11.4,1.06Z"/><path class="cls-9" d="M85.7,49.24s1.17,17.69-12.2,29.61S38.07,70.9,34.4,60.78c0,0,11.82,14.6,31.15,9.15S85.7,49.24,85.7,49.24Z"/><path class="cls-10" d="M85.64,47.41A38.16,38.16,0,0,1,73.06,75.53C59.69,87.45,38.38,70.84,34.71,60.72c0,0,11.45,12.83,30.78,7.38S85.64,47.41,85.64,47.41Z"/><path class="cls-11" d="M81.16,59.8s.7,5.83-2.89,8.88-3.81-3.84-3.81-3.84Z"/><path class="cls-11" d="M48.45,69.76s2.79,5.11,6.5,5.62,2.48-5.47,2.48-5.47Z"/><path class="cls-9" d="M85.59,45.24S87.67,61,65.29,67.13s-30.58-6.41-30.58-6.41,10,14.34,30.6,8.11S86.34,50.68,85.59,45.24Z"/><path class="cls-12" d="M76.6,71.79s.09-1.11-4.87-.88-5.4,3-5.4,3-1.78-1.84-5.77.62-5,4.31-5,4.31a17.9,17.9,0,0,0,11.94-.08A17.19,17.19,0,0,0,76.6,71.79Z"/><path class="cls-9" d="M83.42,43.91s2.62-1,3.82,6.08C87.24,50,87.89,41.21,83.42,43.91Z"/><path class="cls-9" d="M37.19,58.44A7.65,7.65,0,0,0,34,65.54l2,2.14a7.68,7.68,0,0,1-3.53-2.76C31,62.86,37.19,58.44,37.19,58.44Z"/></svg>