<svg id="Layer_1" data-name="Layer 1" xmlns="http://www.w3.org/2000/svg" viewBox="0 0 266.57 380.24"><defs><style>.cls-1{fill:#ff9f2c;stroke:#b5650d;}.cls-1,.cls-12,.cls-4,.cls-7{stroke-miterlimit:10;}.cls-2{fill:#b5650d;}.cls-3{fill:#35374c;}.cls-4{fill:#35467a;stroke:#1d2c54;}.cls-5{fill:#233559;}.cls-6{fill:#2b3245;}.cls-15,.cls-7{fill:#eee1b7;}.cls-7{stroke:#3d3c21;}.cls-8{fill:#fff;}.cls-9{fill:#1b1b26;}.cls-10{fill:#191928;}.cls-11{fill:#f9f5f2;}.cls-12{fill:#faa02c;stroke:#af6617;}.cls-13{fill:#c7323e;}.cls-14{fill:#ad886f;}.cls-16{fill:#3d3c21;}</style></defs><path class="cls-1" d="M175.2,316s-2.32,8.67,2,15.56c2.89,4.55-5.15,8-5.15,8L154,352.38a2.74,2.74,0,0,1-3.76-.56c-1.4-1.81-4.29-3.48-9.83-.19,0,0-.83-7.68-9-3.05,0,0,3.95-6.13-4.62-3.85l9.2-6.46a25.29,25.29,0,0,1,2.42-1.53c4.9-2.71,10.39-4.45,15.71-6.15l5.66-1.81.6-9.46S169.86,307.29,175.2,316Z"/><path class="cls-2" d="M140.27,351.54a11.68,11.68,0,0,1,2.1-6.82,18.24,18.24,0,0,1,4.81-4.9,19,19,0,0,1,6.18-2.78,17.52,17.52,0,0,1,3.4-.48,13.86,13.86,0,0,1,3.58.38l.14.37c-1.93.81-3.84,1.63-5.69,2.58a45.73,45.73,0,0,0-5.33,3.22,38.52,38.52,0,0,0-4.84,3.89,28.34,28.34,0,0,0-2.13,2.26,18.43,18.43,0,0,0-1.87,2.47Z"/><path class="cls-2" d="M131.83,347.48a12.49,12.49,0,0,1,2.61-6.24,20.36,20.36,0,0,1,4.82-4.54,21.65,21.65,0,0,1,5.94-2.79,25,25,0,0,1,3.23-.66,17.37,17.37,0,0,1,3.38,0l.1.28c-1.91.78-3.81,1.59-5.65,2.51a47.15,47.15,0,0,0-5.32,3.12,39.49,39.49,0,0,0-4.84,3.8c-.74.71-1.47,1.44-2.14,2.22a17.39,17.39,0,0,0-1.86,2.43Z"/><path class="cls-2" d="M158.84,329a5.37,5.37,0,0,1,1.87-2.23,8,8,0,0,1,2.46-1.17,9.86,9.86,0,0,1,5.06,0,10.58,10.58,0,0,1,4.31,2.26,11.54,11.54,0,0,1,1.64,1.89,9.46,9.46,0,0,1,1.12,2.51l-.2.34c-1.27-.63-2.54-1.25-3.84-1.81a26.09,26.09,0,0,0-4-1.31,18.06,18.06,0,0,0-4.13-.66,13.06,13.06,0,0,0-2.08.1,7.74,7.74,0,0,0-2,.44Z"/><path class="cls-1" d="M125.43,315.63s-2.13,1.86,1.49,9.16c2.4,4.83-5.09,7.4-5.09,7.4l-19.3,10.94a2.73,2.73,0,0,1-3.68-.93c-1.21-1.95-3.9-3.91-9.76-1.21,0,0,0-7.73-8.64-4,0,0,4.57-5.68-4.19-4.31l9.82-5.47c.83-.46,1.69-.89,2.57-1.27,5.15-2.18,10.79-3.34,16.26-4.48l5.82-1.21-.87-7.84S121,306.47,125.43,315.63Z"/><path class="cls-2" d="M88.93,340.87a11.7,11.7,0,0,1,2.8-6.56A18,18,0,0,1,97,329.94a19.12,19.12,0,0,1,6.43-2.13,17.12,17.12,0,0,1,3.44-.12,14.46,14.46,0,0,1,3.52.74l.1.39c-2,.6-4,1.23-5.93,2A45.83,45.83,0,0,0,99,333.44a39.07,39.07,0,0,0-5.22,3.37,30.41,30.41,0,0,0-2.36,2,18.77,18.77,0,0,0-2.11,2.26Z"/><path class="cls-2" d="M81,336A12.46,12.46,0,0,1,84.2,330a20.32,20.32,0,0,1,5.27-4,21.81,21.81,0,0,1,6.19-2.16,22.48,22.48,0,0,1,3.28-.31,16.07,16.07,0,0,1,3.36.36l.07.29c-2,.58-4,1.18-5.88,1.91a46.46,46.46,0,0,0-5.61,2.56,38.57,38.57,0,0,0-5.21,3.27c-.81.63-1.61,1.28-2.35,2a18.38,18.38,0,0,0-2.11,2.22Z"/><path class="cls-2" d="M109.75,320.35a5.32,5.32,0,0,1,2.09-2,8.07,8.07,0,0,1,2.56-.9,9.81,9.81,0,0,1,5,.51,10.48,10.48,0,0,1,4,2.69,11.23,11.23,0,0,1,1.44,2.05,9.31,9.31,0,0,1,.86,2.61l-.23.32c-1.21-.76-2.41-1.5-3.64-2.2a26.4,26.4,0,0,0-3.85-1.71,17.26,17.26,0,0,0-4-1.09,14.51,14.51,0,0,0-2.08-.12,7.73,7.73,0,0,0-2,.24Z"/><path class="cls-3" d="M132.61,91.49s7.84-19.15-.74-20.49-1.38,21-1.38,21Z"/><path class="cls-3" d="M128.88,87.18s-5.18-10.21-8.4-5.76,8,7.12,8,7.12Z"/><path class="cls-3" d="M134.48,87.39c-.56,0-.37-7.61,13.14-7.09C155.81,80.61,134.48,87.39,134.48,87.39Z"/><path class="cls-4" d="M86.28,231s-32.89,38.74,8.26,73.56C94.54,304.53,121.23,269.31,86.28,231Z"/><path class="cls-5" d="M110.13,313.15c0-1.42,2-5.57,1.29-9.39-13-24.77-24.12-58,12.63-88,24.3-19.86,35.17-15.18,41.39,43.32-7.2,47-36.07,53.35-37.24,57l-.84,1.69c-1.13,1.28.42,4.71-1.25,5-3.79.71-13.43-1.42-15.34-4.72A45.18,45.18,0,0,1,110.13,313.15Z"/><path class="cls-6" d="M103.45,156.76c-.7,1.9-5.63,35.89-47,39.28,0,0-17.13,2.92-2.88,18.9s43.93,13.33,62.25-10.42S103.45,156.76,103.45,156.76Z"/><path class="cls-3" d="M106.32,146.73C104.16,145.2,88,131.57,101,105.44S161.5,81,177.33,98.66s13.78,41.05,18.87,64.12,18,63.44,18.66,93S204,307.46,176.19,317.39s-73.62,8-89.91-24.61,4.41-95,11.54-114.54S109.7,149.13,106.32,146.73Z"/><path class="cls-7" d="M94.42,302.21c40,31.27,78.58-6.09,82.22-42.74,3-30.07-4.56-62.4-7.37-93.65-.61-6.85,2.78-15.9,2.78-22.61,0,0,10.12-28.23-12.94-36.71-15.5-5.69-33.42,2.83-28.94,32,.74,4.86-9.08-5-7,.85,0,0,7.34,3-1.21-5.79,0,0-4.15,8.6-2.82,3.3,1.06-4.24.79-21-3.3-25.65-9.64-11.06-23.19,3-18.52,18.67v0c.62,2.06-.2,2,1.1,4.11,0,0-5.67,5.34-.47,17.78,6.67,15.94-6.78,42.75-11.31,63.1S73,285.42,94.42,302.21Z"/><ellipse class="cls-8" cx="143" cy="126.13" rx="10.81" ry="9.87" transform="translate(8.79 261.57) rotate(-86.67)"/><path class="cls-9" d="M133.18,125.8a11.33,11.33,0,0,0,2.52,7.47,8.91,8.91,0,0,0,13.72.15,11.25,11.25,0,0,0,.53-14.15,9,9,0,0,0-6.57-3.59,9.19,9.19,0,0,0-7.13,2.85A11.32,11.32,0,0,0,133.18,125.8Zm-.08,0a11.45,11.45,0,0,1,3-7.38,9.32,9.32,0,0,1,14.33.45,11.43,11.43,0,0,1,2.49,7.6,11.55,11.55,0,0,1-3,7.4,9.58,9.58,0,0,1-7.29,3.12,9.45,9.45,0,0,1-7-3.6A11.42,11.42,0,0,1,133.1,125.79Z"/><ellipse class="cls-10" cx="140.73" cy="124.31" rx="6.4" ry="6.02" transform="translate(-1.78 246.57) rotate(-82.08)"/><ellipse class="cls-11" cx="144.48" cy="121.77" rx="1.17" ry="1.76" transform="translate(-24.77 37.77) rotate(-13.73)"/><ellipse class="cls-8" cx="109.65" cy="125.62" rx="9.37" ry="7.4" transform="matrix(0.01, -1, 1, 0.01, -17.19, 233.85)"/><path class="cls-9" d="M102.29,125.31a11,11,0,0,0,1.75,6.21,6.72,6.72,0,0,0,5.29,3.1,6.37,6.37,0,0,0,5.17-2.89,10.28,10.28,0,0,0,1.87-5.82,10.47,10.47,0,0,0-1.49-6,6.6,6.6,0,0,0-4.92-3.35,6.48,6.48,0,0,0-5.52,2.62A10.75,10.75,0,0,0,102.29,125.31Zm-.08,0a10.91,10.91,0,0,1,2.09-6.19A6.81,6.81,0,0,1,110,116.2a7.06,7.06,0,0,1,5.44,3.41,11.16,11.16,0,0,1,1.7,6.32,11,11,0,0,1-2.11,6.2,6.82,6.82,0,0,1-5.7,2.9,7.07,7.07,0,0,1-5.42-3.41A11.24,11.24,0,0,1,102.21,125.31Z"/><ellipse class="cls-10" cx="108.08" cy="124.1" rx="4.79" ry="5.68"/><ellipse class="cls-11" cx="106.16" cy="121.47" rx="1.52" ry="1.8"/><path class="cls-12" d="M121.67,154.38c3.75.25,17.69-9.21,17.6-11.89v0a.18.18,0,0,0,0-.1c0-.1-.29,0-.74.14l-.33.09a6,6,0,0,1-2.54.21c-2.66-.49-6.8-5.76-12.3-9.67a1.43,1.43,0,0,0-.44-.23.8.8,0,0,0-.32-.13,1.31,1.31,0,0,0-.38-.06.88.88,0,0,0-.28,0,1.81,1.81,0,0,0-.31.05,1,1,0,0,0-.32.11,0,0,0,0,0,0,0,.93.93,0,0,0-.31.14,2,2,0,0,0-.33.21c-2.86,1.9-5.55,8.38-7.53,8.07h0a1,1,0,0,0-.24,0c-.48,0-1.42,0-1.6.63a4.68,4.68,0,0,0,0,.51.32.32,0,0,1,0,.13C111.21,145.08,119.56,154.24,121.67,154.38Z"/><path class="cls-13" d="M118.66,149c4.64.06,8.57-2,10.5-2.83s9.38-3.69,9.38-3.69-12.45,3.52-14.28,3.56c-3.28.07-6.48-2.77-6.48-2.77s-1.89,1.81-3.19,1.34a3,3,0,0,1-1.16-.46C114.05,145.48,115.6,149,118.66,149Z"/><path class="cls-12" d="M112.65,143.58a7.69,7.69,0,0,0,1.42.85c2,.87,3.71-1.13,3.71-1.13a11.73,11.73,0,0,0,6.48,2.77c1.48.17,7-1.19,9.16-1.75,3-.8,5.85-1.83,5.85-1.83v0c0-.07-.31,0-.72,0l-.33.09a6,6,0,0,1-2.54.21c-2.66-.49-6.8-5.76-12.3-9.67a1.43,1.43,0,0,0-.44-.23.8.8,0,0,0-.32-.13,1.31,1.31,0,0,0-.38-.06.88.88,0,0,0-.28,0,1.81,1.81,0,0,0-.31.05,1,1,0,0,0-.32.11,0,0,0,0,0,0,0,.93.93,0,0,0-.31.14,2,2,0,0,0-.33.21c-2.86,1.9-5.55,8.38-7.53,8.07h0a1,1,0,0,0-.24,0c-.48,0-1.42,0-1.6.63A7.86,7.86,0,0,0,112.65,143.58Z"/><path class="cls-3" d="M168.34,150.45c.22,1.8-.14,31.41-19.29,41.86-39.11,21.36-31.65,41.72-21,45.93,12.57,5,66.85-24.34,70.92-58.94"/><path class="cls-14" d="M138.43,140.93a4.55,4.55,0,0,1,1.93.17,1.09,1.09,0,0,1,.6.53,1.56,1.56,0,0,1,.11.84,7.16,7.16,0,0,1-.55,1.84c-.25.61-.54,1.21-.8,1.84a9.78,9.78,0,0,0,1.18-1.66,5.44,5.44,0,0,0,.69-2,1.93,1.93,0,0,0-.18-1.12,1.44,1.44,0,0,0-.92-.69,2.8,2.8,0,0,0-1.07-.06A4.16,4.16,0,0,0,138.43,140.93Z"/><path class="cls-14" d="M112.46,139.62a3.34,3.34,0,0,0-.9-.26,2.2,2.2,0,0,0-1,.09,1.62,1.62,0,0,0-.46.29,1.59,1.59,0,0,0-.3.46,2.21,2.21,0,0,0-.1,1,5.4,5.4,0,0,0,.61,1.8,9,9,0,0,0,1,1.55c-.21-.58-.45-1.14-.66-1.7a7.86,7.86,0,0,1-.47-1.7,1.2,1.2,0,0,1,.52-1.35,2.1,2.1,0,0,1,.81-.2A4.62,4.62,0,0,1,112.46,139.62Z"/><path class="cls-3" d="M214.92,265.31c-7.2,47-32.58,54.94-39,59.76h0a7.7,7.7,0,0,1-4.43,2.51c-3.79.68-9.31.17-11.77-2.49,0,0-3.43-5.26-3.4-6.41,0-1.42,5.27-4.88,4.55-8.7-13.05-24.77-21.52-57.64,15.22-87.66"/><path class="cls-3" d="M151,197.16c-1-2.5-26-1.94-26.5,5s12.73-1.16,7.72,12S158.91,216.81,151,197.16Z"/><path class="cls-6" d="M80.58,191.25c1.79,1.16-2.78,13.5-8.32,11.91s3-6-8.07-6.95S66.54,182.19,80.58,191.25Z"/><path class="cls-15" d="M165.22,110.5s6.15,3.17,9.18,17c3.61,16.44,1.65,34.35-23.53,40"/><path class="cls-16" d="M165.27,110.42a12.12,12.12,0,0,1,3.64,2.89,27.08,27.08,0,0,1,2.77,3.77,37.68,37.68,0,0,1,3.64,8.61c.43,1.5.81,3,1.15,4.51s.57,3.07.76,4.63a38.55,38.55,0,0,1,0,9.48,27.85,27.85,0,0,1-2.86,9.22A24.19,24.19,0,0,1,168.2,161a29.25,29.25,0,0,1-8.28,4.57c-.73.27-1.49.47-2.23.7l-2.25.57-2.26.45-2.29.28,0-.19c5.89-1.34,11.7-3.63,16.29-7.6a26.07,26.07,0,0,0,3.11-3.28,24.84,24.84,0,0,0,2.43-3.81,27.57,27.57,0,0,0,2.6-8.62,49.05,49.05,0,0,0-1.37-18,40.38,40.38,0,0,0-3.06-8.53,26.83,26.83,0,0,0-2.42-3.83,13.07,13.07,0,0,0-3.25-3.09Z"/><path class="cls-15" d="M97,147.83s2,12.26,16,16"/><path class="cls-16" d="M97,147.83a24.18,24.18,0,0,0,2.47,5.36,22.63,22.63,0,0,0,3.62,4.57,23.46,23.46,0,0,0,4.62,3.55,28.16,28.16,0,0,0,2.6,1.39c.88.45,1.83.75,2.74,1.18-1-.21-2-.42-2.92-.72a21.43,21.43,0,0,1-2.8-1.16,18.9,18.9,0,0,1-4.94-3.53,18.41,18.41,0,0,1-3.6-4.9A16.27,16.27,0,0,1,97,147.83Z"/></svg>