<svg id="Layer_1" data-name="Layer 1" xmlns="http://www.w3.org/2000/svg" viewBox="0 0 180 280"><defs><style>.cls-1{opacity:0.2;}.cls-2{fill:#161616;}.cls-3{fill:#ff9f2c;stroke:#84480d;}.cls-11,.cls-3,.cls-5,.cls-9{stroke-miterlimit:10;}.cls-4{fill:#b5650d;}.cls-5{fill:#35467a;stroke:#1d2c54;}.cls-6{fill:#233559;}.cls-7{fill:#2b3245;}.cls-8{fill:#35374c;}.cls-9{fill:#eee1b7;stroke:#3d3c21;stroke-width:2px;}.cls-10{fill:#efd9ca;}.cls-11{fill:#faa02c;stroke:#af6617;}.cls-12{fill:#c7323e;}.cls-13{fill:#ad886f;}</style></defs><g class="cls-1"><ellipse class="cls-2" cx="95.44" cy="256.5" rx="83" ry="23"/></g><path class="cls-3" d="M133.79,233.12s-2.35,8.78,2.06,15.75c2.92,4.6-5.21,8.08-5.21,8.08l-18.27,13a2.77,2.77,0,0,1-3.81-.56c-1.42-1.83-4.34-3.52-10-.19,0,0-.84-7.77-9.11-3.09,0,0,4-6.2-4.67-3.89l9.3-6.54a26.08,26.08,0,0,1,2.46-1.55c5-2.74,10.51-4.5,15.9-6.22l5.72-1.83.61-9.57S128.38,224.36,133.79,233.12Z"/><path class="cls-4" d="M98.44,269.14a11.79,11.79,0,0,1,2.15-6.88,18.32,18.32,0,0,1,4.87-4.94,19.37,19.37,0,0,1,6.24-2.83,17.84,17.84,0,0,1,3.43-.49,15,15,0,0,1,3.62.36l.14.38c-2,.81-3.89,1.65-5.76,2.61a46.84,46.84,0,0,0-5.4,3.25,39.39,39.39,0,0,0-4.89,3.94,29.12,29.12,0,0,0-2.16,2.29,19.44,19.44,0,0,0-1.89,2.49Z"/><path class="cls-4" d="M89.9,265a12.41,12.41,0,0,1,2.67-6.28,19.7,19.7,0,0,1,4.87-4.6,22.09,22.09,0,0,1,6-2.82,22.46,22.46,0,0,1,3.26-.68,17.66,17.66,0,0,1,3.41,0l.11.28c-1.94.79-3.86,1.61-5.72,2.54a47.36,47.36,0,0,0-5.38,3.16,38.8,38.8,0,0,0-4.9,3.85,26.85,26.85,0,0,0-2.16,2.24,17.87,17.87,0,0,0-1.89,2.46Z"/><path class="cls-4" d="M117.23,246.3a5.45,5.45,0,0,1,1.9-2.24,8.25,8.25,0,0,1,2.48-1.16,10,10,0,0,1,5.11,0,10.71,10.71,0,0,1,4.35,2.28,11.24,11.24,0,0,1,1.67,1.89,9.79,9.79,0,0,1,1.15,2.53l-.2.34c-1.29-.64-2.58-1.26-3.89-1.83a27.92,27.92,0,0,0-4.06-1.33,18,18,0,0,0-4.18-.67,14.84,14.84,0,0,0-2.11.11,7.22,7.22,0,0,0-2,.45Z"/><path class="cls-3" d="M83.42,232.81s-2.15,1.87,1.52,9.26c2.42,4.88-5.16,7.49-5.16,7.49L60.26,260.63a2.77,2.77,0,0,1-3.73-.95c-1.23-2-4-4-9.87-1.22,0,0,0-7.82-8.75-4,0,0,4.62-5.75-4.24-4.36l9.93-5.54a28.46,28.46,0,0,1,2.6-1.28c5.22-2.21,10.93-3.38,16.46-4.54l5.88-1.22-.87-7.93S79,223.53,83.42,232.81Z"/><path class="cls-4" d="M46.49,258.35a11.85,11.85,0,0,1,2.86-6.62,18.12,18.12,0,0,1,5.35-4.41,19.4,19.4,0,0,1,6.5-2.16,17.41,17.41,0,0,1,3.47-.14,14.87,14.87,0,0,1,3.56.74l.09.39c-2,.6-4,1.24-6,2a45.63,45.63,0,0,0-5.71,2.67,40.65,40.65,0,0,0-5.28,3.41A29,29,0,0,0,49,256.29a19.2,19.2,0,0,0-2.14,2.28Z"/><path class="cls-4" d="M38.43,253.38a12.39,12.39,0,0,1,3.3-6,20.14,20.14,0,0,1,5.32-4.07,22,22,0,0,1,6.26-2.17,20.41,20.41,0,0,1,3.31-.34,17.14,17.14,0,0,1,3.4.35l.07.29c-2,.58-4,1.2-6,1.93A46.9,46.9,0,0,0,48.46,246a38.55,38.55,0,0,0-5.27,3.32,28.3,28.3,0,0,0-2.38,2,18.17,18.17,0,0,0-2.14,2.25Z"/><path class="cls-4" d="M67.55,237.58a5.39,5.39,0,0,1,2.12-2,8.1,8.1,0,0,1,2.59-.91,10,10,0,0,1,5.09.53,10.78,10.78,0,0,1,4.09,2.71A11.71,11.71,0,0,1,82.89,240a9.81,9.81,0,0,1,.89,2.63l-.24.32c-1.21-.77-2.43-1.52-3.67-2.23a28.28,28.28,0,0,0-3.9-1.74,18.17,18.17,0,0,0-4.09-1.09,14.93,14.93,0,0,0-2.11-.12,7.48,7.48,0,0,0-2.07.24Z"/><path class="cls-5" d="M56.65,144.38S23.36,183.58,65,218.81C65,218.81,92,183.18,56.65,144.38Z"/><path class="cls-6" d="M67.49,230c0-1.44,2-5.64,1.31-9.5-13.21-25.07-24.41-58.66,12.77-89,24.6-20.09,35.59-15.36,41.88,43.83-7.29,47.56-36.49,54-37.68,57.7l-.85,1.7c-1.14,1.29.43,4.77-1.26,5.09-3.83.72-13.59-1.43-15.52-4.78A45.57,45.57,0,0,1,67.49,230Z"/><path class="cls-7" d="M60.73,71.71C60,73.64,55,108,13.15,111.46c0,0-20.94-1.8-6.52,14.38s48.06,18.23,66.59-5.8S60.73,71.71,60.73,71.71Z"/><path class="cls-8" d="M57.64,55.34c0-2.68-12.59-9.12.64-35.55s59.15-22.66,77.2-6.87c13.1,11.46,21.26,26.26,19.1,64.88-1.33,23.87,17.78,68.35,18.47,98.22s-10.57,48.17-38.72,58.22-74.5,8.12-91-24.9S47.82,113.2,55,93.44,58,71.2,57.64,55.34Z"/><path class="cls-9" d="M51.6,218.89c40.43,31.64,79.5-6.17,83.18-43.25,3-30.43-4.61-63.14-7.45-94.76-.62-6.93-1-13.8-1-20.59,0,0,2.52-35.47-18.54-42.56-15.83-5.34-27,3.77-28,18.8-.34,5-1.4,9.67.68,15.61,0,0-5.25,7.7-13.9-1.15a26.9,26.9,0,0,0,4.1-9A21.37,21.37,0,0,0,69,26.73C63.24,15.61,49.77,28.65,54.5,44.51v0c.62,2.09.69,8.51.63,22.15C55,93.44,48.28,110,43.7,130.55S29.88,201.9,51.6,218.89Z"/><path class="cls-10" d="M55,44.51c-1.33-4.9,1.34-22.72,9.67-18.72,6.11,2.94,6.06,11,5.55,16.14,1.07-4.29,1.53-9.19-1.37-14.76C63.1,16.19,50.24,28.65,55,44.51Z"/><path class="cls-11" d="M70.7,72.14C75.48,72.46,93.25,60.4,93.13,57v0a.2.2,0,0,0,0-.13c0-.12-.37,0-.94.18-.12,0-.26.08-.42.11a7.51,7.51,0,0,1-3.24.27c-3.38-.62-8.66-7.34-15.68-12.33a2.24,2.24,0,0,0-.55-.29,1.08,1.08,0,0,0-.42-.16,2,2,0,0,0-.47-.08.87.87,0,0,0-.36,0,1.44,1.44,0,0,0-.4.06,1.25,1.25,0,0,0-.4.13.09.09,0,0,0-.07,0,1.92,1.92,0,0,0-.4.18,4,4,0,0,0-.42.26c-3.65,2.43-7.07,10.69-9.59,10.3,0,0,0,0,0,0a1.72,1.72,0,0,0-.31,0c-.6,0-1.8,0-2,.8a4.92,4.92,0,0,0,0,.65.55.55,0,0,1,0,.17C57.36,60.28,68,72,70.7,72.14Z"/><path class="cls-12" d="M66.86,65.32c5.92.07,10.92-2.59,13.39-3.61,2.26-.93,12-4.7,12-4.7S76.33,61.5,74,61.55c-4.18.08-8.26-3.54-8.26-3.54s-2.4,2.31-4.06,1.72a4,4,0,0,1-1.48-.59C61,60.79,63,65.27,66.86,65.32Z"/><path class="cls-11" d="M59.21,58.37A9.19,9.19,0,0,0,61,59.45c2.6,1.11,4.73-1.44,4.73-1.44A15,15,0,0,0,74,61.55c1.89.22,8.92-1.52,11.67-2.23,3.86-1,7.46-2.34,7.46-2.34v0c-.07-.09-.4-.05-.92,0-.12,0-.26.08-.42.11a7.51,7.51,0,0,1-3.24.27c-3.38-.62-8.66-7.34-15.68-12.33a2.24,2.24,0,0,0-.55-.29,1.08,1.08,0,0,0-.42-.16,2,2,0,0,0-.47-.08.87.87,0,0,0-.36,0,1.44,1.44,0,0,0-.4.06,1.25,1.25,0,0,0-.4.13.09.09,0,0,0-.07,0,1.92,1.92,0,0,0-.4.18,4,4,0,0,0-.42.26c-3.65,2.43-7.07,10.69-9.59,10.3,0,0,0,0,0,0a1.72,1.72,0,0,0-.31,0c-.6,0-1.8,0-2,.8A10,10,0,0,0,59.21,58.37Z"/><path class="cls-8" d="M126.39,65.32c.23,1.83-.15,31.79-19.53,42.37C67.29,129.29,66.24,152.61,77,156.87c12.71,5,72.91-13.5,77-48.51"/><path class="cls-13" d="M91.19,55.69a5.57,5.57,0,0,1,2.36.21,1.26,1.26,0,0,1,.74.65,1.82,1.82,0,0,1,.13,1,9.23,9.23,0,0,1-.67,2.26c-.31.75-.66,1.48-1,2.25a11.64,11.64,0,0,0,1.44-2,6.72,6.72,0,0,0,.85-2.41,2.43,2.43,0,0,0-.23-1.38,1.74,1.74,0,0,0-1.12-.84,3.24,3.24,0,0,0-1.31-.06A4.62,4.62,0,0,0,91.19,55.69Z"/><path class="cls-13" d="M59.88,55.09a4.24,4.24,0,0,0-1.17-.33,2.66,2.66,0,0,0-1.27.12,1.68,1.68,0,0,0-.59.37,1.76,1.76,0,0,0-.38.59,2.73,2.73,0,0,0-.13,1.32,7,7,0,0,0,.78,2.32,11.24,11.24,0,0,0,1.32,2c-.27-.76-.58-1.48-.86-2.21a10.6,10.6,0,0,1-.6-2.2,1.56,1.56,0,0,1,.66-1.74,2.8,2.8,0,0,1,1.06-.26A6.65,6.65,0,0,1,59.88,55.09Z"/><path class="cls-8" d="M172.45,182.06c-7.29,47.56-31.9,55.08-38.36,60h0a7.87,7.87,0,0,1-4.49,2.54c-3.83.68-9.41.17-11.9-2.53,0,0-3.47-5.31-3.44-6.48,0-1.44,5.33-4.94,4.6-8.8-13.2-25.06-21.78-58.32,15.4-88.7"/><path class="cls-8" d="M108.8,112.6c-1-2.54-26.36-2-26.82,5.09s12.88-1.18,7.81,12.1S116.85,132.47,108.8,112.6Z"/><path class="cls-7" d="M37.32,104c1.78,1.21-3.17,13.57-8.73,11.82s3.21-6-8-7.25S23.36,94.49,37.32,104Z"/></svg>