<svg id="Layer_1" data-name="Layer 1" xmlns="http://www.w3.org/2000/svg" viewBox="0 0 50 30"><defs><style>.cls-1{fill:#fff;stroke:#6d4d2e;stroke-miterlimit:10;stroke-width:0.25px;}.cls-2{fill:#191928;}.cls-3{fill:#f9f5f2;}</style></defs><g id="eyes"><g id="eyes_1" data-name="eyes 1"><path class="cls-1" d="M45.64,15.3a11,11,0,0,1-.33,2.33c-1.05,4.16-4.44,7.15-8.33,7s-7-3.32-7.79-7.49A10.93,10.93,0,0,1,29,14.71c.19-5.33,4.07-9.51,8.66-9.35S45.83,10,45.64,15.3Z"/><ellipse class="cls-2" cx="35.46" cy="11.86" rx="6.88" ry="5.2" transform="translate(6.46 35.47) rotate(-57.65)"/><ellipse class="cls-3" cx="39.03" cy="12.32" rx="1.86" ry="1.66" transform="translate(23.96 50.38) rotate(-85.91)"/><path class="cls-1" d="M14.61,14.37a11.66,11.66,0,0,1-.55,3.33c-.87,2.75-2.71,4.6-4.78,4.5-2.3-.12-4.19-2.62-4.76-6a12.56,12.56,0,0,1-.17-2.41c.1-4.47,2.49-8,5.32-7.83S14.72,9.9,14.61,14.37Z"/><ellipse class="cls-2" cx="8.4" cy="11.1" rx="5.59" ry="3.39" transform="translate(-5.25 13.8) rotate(-64.05)"/><ellipse class="cls-3" cx="10.33" cy="11.74" rx="1.1" ry="1.81"/></g></g></svg>