<svg id="Layer_1" data-name="Layer 1" xmlns="http://www.w3.org/2000/svg" viewBox="0 0 30 20"><defs><style>.cls-1{fill:#fff;}.cls-1,.cls-4{stroke:#3d3c21;stroke-miterlimit:10;stroke-width:0.25px;}.cls-2{fill:#191928;}.cls-3{fill:#f9f5f2;}.cls-4{fill:#eee1b7;}</style></defs><g id="eyes1"><path class="cls-1" d="M13.37,9.83A6.29,6.29,0,0,1,13.3,11,5,5,0,0,1,8.82,15.5a4.78,4.78,0,0,1-4.47-3.15,6.42,6.42,0,0,1-.47-2.18c-.11-3,1.93-5.58,4.55-5.67S13.26,6.79,13.37,9.83Z"/><ellipse class="cls-2" cx="7.03" cy="10.54" rx="2.93" ry="3.93" transform="translate(-0.73 0.53) rotate(-4.09)"/><ellipse class="cls-3" cx="8.66" cy="8.93" rx="0.95" ry="1.06" transform="matrix(1, -0.07, 0.07, 1, -0.61, 0.64)"/><path class="cls-1" d="M26.12,9.34A7,7,0,0,1,26,11c-.38,1.84-1.45,3.18-2.75,3.25s-2.35-1.07-2.85-2.76a7.17,7.17,0,0,1-.29-1.85C20,7,21.3,4.82,23,4.73S26.05,6.71,26.12,9.34Z"/><ellipse class="cls-2" cx="22.24" cy="9.77" rx="2" ry="3.38"/><ellipse class="cls-3" cx="23.2" cy="8.42" rx="0.62" ry="0.92"/></g><g id="eyes2"><path class="cls-4" d="M12.65,7.12A12.45,12.45,0,0,1,4,8.63,4.9,4.9,0,0,1,8.43,4.5,4.67,4.67,0,0,1,12.65,7.12Z"/><path class="cls-4" d="M25.43,6.5c-1.35,1.35-3.91,1.14-5.08,1C20.81,5.89,21.8,4.79,23,4.73A2.76,2.76,0,0,1,25.43,6.5Z"/></g></svg>