<svg id="Layer_1" data-name="Layer 1" xmlns="http://www.w3.org/2000/svg" viewBox="0 0 180 300"><defs><style>.cls-1{opacity:0.2;}.cls-2{fill:#161616;}.cls-3{fill:#ff9f2c;stroke:#b5650d;}.cls-10,.cls-3,.cls-6,.cls-9{stroke-miterlimit:10;}.cls-4{fill:#b5650d;}.cls-5{fill:#35374c;}.cls-6{fill:#35467a;stroke:#1d2c54;}.cls-7{fill:#233559;}.cls-8{fill:#2b3245;}.cls-13,.cls-9{fill:#eee1b7;}.cls-9{stroke:#3d3c21;}.cls-10{fill:#faa02c;stroke:#af6617;}.cls-11{fill:#c7323e;}.cls-12{fill:#ad886f;}.cls-14{fill:#3d3c21;}</style></defs><g class="cls-1"><ellipse class="cls-2" cx="90.21" cy="273.83" rx="76.54" ry="19.62"/></g><path class="cls-3" d="M135.26,249.4s-2.33,8.68,2,15.56c2.88,4.55-5.16,8-5.16,8l-18,12.89a2.75,2.75,0,0,1-3.76-.55c-1.41-1.81-4.29-3.49-9.83-.19,0,0-.84-7.69-9-3.06,0,0,4-6.13-4.62-3.85l9.2-6.46c.78-.55,1.59-1.06,2.42-1.53,4.9-2.71,10.4-4.44,15.72-6.14l5.65-1.81.61-9.47S129.92,240.74,135.26,249.4Z"/><path class="cls-4" d="M100.32,285a11.69,11.69,0,0,1,2.11-6.82,17.91,17.91,0,0,1,4.81-4.89,18.81,18.81,0,0,1,6.17-2.79,17.52,17.52,0,0,1,3.4-.48,14.82,14.82,0,0,1,3.59.38l.13.37c-1.92.81-3.84,1.64-5.69,2.59a45.65,45.65,0,0,0-5.33,3.21,39.33,39.33,0,0,0-4.84,3.9,28.45,28.45,0,0,0-2.13,2.26,18.54,18.54,0,0,0-1.87,2.46Z"/><path class="cls-4" d="M91.89,280.94a12.42,12.42,0,0,1,2.61-6.24,20,20,0,0,1,4.82-4.55,21.89,21.89,0,0,1,5.93-2.79,23.38,23.38,0,0,1,3.23-.65,16.61,16.61,0,0,1,3.38,0l.1.29c-1.91.77-3.81,1.58-5.65,2.5a46.22,46.22,0,0,0-5.31,3.13,37,37,0,0,0-4.84,3.8A26.24,26.24,0,0,0,94,278.65a17.46,17.46,0,0,0-1.87,2.43Z"/><path class="cls-4" d="M118.9,262.42a5.28,5.28,0,0,1,1.87-2.23,8.09,8.09,0,0,1,2.45-1.16,9.79,9.79,0,0,1,5.07,0,10.59,10.59,0,0,1,4.3,2.25,11.08,11.08,0,0,1,1.64,1.89,9.62,9.62,0,0,1,1.13,2.51l-.2.35c-1.28-.64-2.55-1.25-3.85-1.82a28.33,28.33,0,0,0-4-1.31,18.15,18.15,0,0,0-4.14-.66,14.49,14.49,0,0,0-2.08.1,7.44,7.44,0,0,0-2,.45Z"/><path class="cls-3" d="M85.48,249.09s-2.13,1.85,1.5,9.15c2.39,4.83-5.1,7.41-5.1,7.41L62.59,276.59a2.76,2.76,0,0,1-3.69-.94c-1.21-1.95-3.9-3.91-9.75-1.21,0,0,0-7.73-8.64-4,0,0,4.56-5.68-4.2-4.3l9.82-5.48a26.58,26.58,0,0,1,2.57-1.26c5.15-2.19,10.8-3.34,16.27-4.49l5.81-1.21-.87-7.83S81.07,239.92,85.48,249.09Z"/><path class="cls-4" d="M49,274.33a11.73,11.73,0,0,1,2.8-6.57,18.07,18.07,0,0,1,5.3-4.37,19,19,0,0,1,6.43-2.13,17.81,17.81,0,0,1,3.43-.12,14.67,14.67,0,0,1,3.53.75l.09.38c-2,.6-4,1.23-5.93,2A44.47,44.47,0,0,0,59,266.9a37.77,37.77,0,0,0-5.22,3.37,26.61,26.61,0,0,0-2.35,2,18.8,18.8,0,0,0-2.12,2.26Z"/><path class="cls-4" d="M41,269.42a12.52,12.52,0,0,1,3.25-5.94,20.32,20.32,0,0,1,5.26-4,21.81,21.81,0,0,1,6.19-2.16A24,24,0,0,1,59,257a16.94,16.94,0,0,1,3.37.36l.07.3c-2,.57-4,1.17-5.88,1.9a45.09,45.09,0,0,0-5.61,2.56,37.42,37.42,0,0,0-5.21,3.28,26.3,26.3,0,0,0-2.36,2,17,17,0,0,0-2.11,2.22Z"/><path class="cls-4" d="M69.8,253.81a5.34,5.34,0,0,1,2.09-2,8.16,8.16,0,0,1,2.56-.9,9.81,9.81,0,0,1,5,.51,10.62,10.62,0,0,1,4.05,2.69,11,11,0,0,1,1.43,2,9.61,9.61,0,0,1,.87,2.62l-.24.32c-1.2-.77-2.41-1.51-3.63-2.2a27,27,0,0,0-3.85-1.72,18.38,18.38,0,0,0-4.05-1.09A13.19,13.19,0,0,0,72,254a7.38,7.38,0,0,0-2,.23Z"/><path class="cls-5" d="M94.39,25s7-17.2-.67-18.4-1.24,18.88-1.24,18.88Z"/><path class="cls-5" d="M91,21.13S86.39,12,83.49,16s7.14,6.39,7.14,6.39Z"/><path class="cls-5" d="M96.06,21.32c-.5-.05-.33-6.84,11.8-6.37C115.22,15.23,96.06,21.32,96.06,21.32Z"/><path class="cls-6" d="M46.34,164.42S13.44,203.16,54.59,238C54.59,238,81.28,202.76,46.34,164.42Z"/><path class="cls-7" d="M70.18,246.6c0-1.42,2-5.57,1.3-9.38-13.05-24.77-24.12-58,12.62-88,24.31-19.85,35.18-15.18,41.39,43.32-7.2,47-36.07,53.36-37.24,57l-.84,1.69c-1.13,1.27.42,4.71-1.25,5-3.78.71-13.43-1.41-15.34-4.72A45.18,45.18,0,0,1,70.18,246.6Z"/><path class="cls-8" d="M63.51,90.21c-.71,1.9-5.64,35.89-47,39.28,0,0-20.69-1.77-6.45,14.21s47.5,18,65.82-5.72S63.51,90.21,63.51,90.21Z"/><path class="cls-5" d="M66.37,80.18C64.21,78.65,48,65,61.08,38.9s60.48-24.43,76.3-6.79,13.79,41.05,18.88,64.12,18,63.44,18.66,93-10.86,51.72-38.68,61.65-73.62,8-89.91-24.61,4.42-95,11.54-114.54S69.76,82.58,66.37,80.18Z"/><path class="cls-9" d="M54.48,235.67c40,31.26,78.57-6.1,82.21-42.75,3-30.07-4.56-62.4-7.36-93.65-.62-6.84,2.77-15.9,2.77-22.61,0,0,10.12-28.23-12.94-36.7-15.5-5.7-33.41,2.82-28.94,32,.74,4.85-9.07-5-7,.84,0,0,7.33,3-1.22-5.78,0,0-4.14,8.59-2.82,3.29,1.06-4.23.79-21-3.29-25.65-9.65-11-23.2,3-18.53,18.67v0c.62,2.07-.2,2,1.1,4.12,0,0-5.67,5.33-.47,17.77,6.67,15.94-6.78,42.75-11.31,63.1S33,218.88,54.48,235.67Z"/><path class="cls-10" d="M81.73,87.84c3.74.25,17.69-9.22,17.6-11.9v0a.16.16,0,0,0,0-.1c0-.1-.29,0-.73.14l-.33.09a6,6,0,0,1-2.54.21c-2.66-.48-6.81-5.76-12.31-9.67a1.8,1.8,0,0,0-.43-.23.74.74,0,0,0-.33-.12,1.33,1.33,0,0,0-.37-.07.66.66,0,0,0-.28,0,1.12,1.12,0,0,0-.31,0,.92.92,0,0,0-.32.1.11.11,0,0,0-.06,0,2.56,2.56,0,0,0-.31.14,3,3,0,0,0-.33.21c-2.86,1.9-5.54,8.38-7.53,8.08,0,0,0,0,0,0l-.25,0c-.47,0-1.41,0-1.59.64a2.15,2.15,0,0,0,0,.5,1.16,1.16,0,0,1,0,.13C71.26,78.53,79.62,87.7,81.73,87.84Z"/><path class="cls-11" d="M78.71,82.49c4.64.05,8.57-2,10.5-2.84S98.6,76,98.6,76s-12.46,3.53-14.29,3.56c-3.28.07-6.48-2.77-6.48-2.77S76,78.56,74.64,78.1a3.18,3.18,0,0,1-1.15-.47C74.11,78.93,75.66,82.45,78.71,82.49Z"/><path class="cls-10" d="M72.7,77a8,8,0,0,0,1.42.85c2,.87,3.71-1.13,3.71-1.13a11.65,11.65,0,0,0,6.48,2.77c1.49.17,7-1.19,9.16-1.75,3-.79,5.86-1.83,5.86-1.83v0c-.06-.07-.32,0-.72,0l-.33.09a6,6,0,0,1-2.54.21c-2.66-.48-6.81-5.76-12.31-9.67a1.8,1.8,0,0,0-.43-.23.74.74,0,0,0-.33-.12,1.33,1.33,0,0,0-.37-.07.66.66,0,0,0-.28,0,1.12,1.12,0,0,0-.31,0,.92.92,0,0,0-.32.1.11.11,0,0,0-.06,0,2.56,2.56,0,0,0-.31.14,3,3,0,0,0-.33.21c-2.86,1.9-5.54,8.38-7.53,8.08,0,0,0,0,0,0l-.25,0c-.47,0-1.41,0-1.59.64A7.69,7.69,0,0,0,72.7,77Z"/><path class="cls-5" d="M128.39,83.9c.23,1.81-.14,31.41-19.29,41.87C70,147.12,69,170.17,79.57,174.37c12.57,5,75.36-27,79.43-61.62"/><path class="cls-12" d="M98.48,74.38a4.55,4.55,0,0,1,1.93.17,1.08,1.08,0,0,1,.61.53,1.66,1.66,0,0,1,.1.84,7.42,7.42,0,0,1-.54,1.84c-.26.62-.55,1.22-.81,1.85A9.32,9.32,0,0,0,101,77.94a5.59,5.59,0,0,0,.7-2,2,2,0,0,0-.19-1.13,1.44,1.44,0,0,0-.92-.69,2.77,2.77,0,0,0-1.07,0A3.83,3.83,0,0,0,98.48,74.38Z"/><path class="cls-12" d="M72.52,73.07a3.15,3.15,0,0,0-.91-.25,2.08,2.08,0,0,0-1,.09,1.25,1.25,0,0,0-.75.74,2.24,2.24,0,0,0-.1,1,5.79,5.79,0,0,0,.6,1.8,8.88,8.88,0,0,0,1,1.55c-.22-.59-.46-1.15-.67-1.71a7.86,7.86,0,0,1-.47-1.7,1.21,1.21,0,0,1,.52-1.35,2.35,2.35,0,0,1,.82-.2A5.55,5.55,0,0,1,72.52,73.07Z"/><path class="cls-5" d="M175,198.76c-7.2,47-32.58,54.94-39,59.76h0a7.77,7.77,0,0,1-4.43,2.52c-3.79.67-9.31.16-11.76-2.5,0,0-3.43-5.25-3.4-6.41,0-1.42,5.26-4.88,4.55-8.69-13-24.77-21.53-57.64,15.22-87.67"/><path class="cls-5" d="M111,130.62c-1-2.5-26.05-2-26.5,5s12.72-1.16,7.72,12S119,150.26,111,130.62Z"/><path class="cls-8" d="M40.28,121.88C42.07,123,37.5,135.37,32,133.79s3-6-8.07-6.95S26.24,112.82,40.28,121.88Z"/><path class="cls-13" d="M125.28,44s6.15,3.16,9.17,16.94c3.62,16.44,1.65,34.35-23.53,40"/><path class="cls-14" d="M125.32,43.87A12,12,0,0,1,129,46.76a25.65,25.65,0,0,1,2.77,3.78,37,37,0,0,1,3.64,8.6c.44,1.5.82,3,1.16,4.52s.57,3.06.75,4.62a38.06,38.06,0,0,1,0,9.48A27.67,27.67,0,0,1,134.43,87a24.27,24.27,0,0,1-6.18,7.43A29.12,29.12,0,0,1,120,99c-.73.27-1.49.47-2.22.7l-2.25.57-2.27.45L111,101l0-.2c5.89-1.34,11.71-3.62,16.29-7.6a26.07,26.07,0,0,0,3.12-3.27,26.64,26.64,0,0,0,2.42-3.81,27.71,27.71,0,0,0,2.6-8.63,48.86,48.86,0,0,0-1.37-18A40.1,40.1,0,0,0,130.9,51a26.54,26.54,0,0,0-2.41-3.83,12.92,12.92,0,0,0-3.26-3.09Z"/><path class="cls-13" d="M57,81.28s2,12.27,16,16"/><path class="cls-14" d="M57,81.28a24.26,24.26,0,0,0,2.47,5.37,22.85,22.85,0,0,0,3.62,4.56,23.51,23.51,0,0,0,4.62,3.56c.82.55,1.73.92,2.6,1.39s1.83.74,2.74,1.17c-1-.21-2-.42-2.92-.72a19.33,19.33,0,0,1-2.79-1.16A19.13,19.13,0,0,1,58.79,87,16.53,16.53,0,0,1,57,81.28Z"/></svg>