<svg id="Layer_1" data-name="Layer 1" xmlns="http://www.w3.org/2000/svg" viewBox="0 0 266.57 380.24"><defs><style>.cls-1,.cls-3{fill:#35374c;}.cls-2{fill:#eee1b7;stroke:#3d3c21;}.cls-10,.cls-2,.cls-3,.cls-8{stroke-miterlimit:10;}.cls-3{stroke:#53566b;}.cls-4{fill:#fff;}.cls-5{fill:#1b1b26;}.cls-6{fill:#191928;}.cls-7{fill:#f9f5f2;}.cls-8{fill:#faa02c;}.cls-10,.cls-8{stroke:#af6617;}.cls-9{fill:#b52a3b;}.cls-10{fill:#f4ba7a;}</style></defs><path class="cls-1" d="M113.55,282.71s-6.7,17.29-18.7,6.35,1.76-26.47,1.76-26.47Z"/><polyline class="cls-1" points="144.96 288 145.14 289.39 147.08 304.59 164.38 299.29 164.02 285.53"/><path class="cls-1" d="M96,129.76s-12.47,1.42-35.29-37.88c0,0,8-13.17,1.88-20,0,0-6.59-3.06-10.82,10.59,0,0-7.3-17.46-25.32-13.82a4.41,4.41,0,0,0-3,2.21c-2.42,4.44-5.58,17.23,17.73,39.61a66.79,66.79,0,0,0,6.35,9.41c4.23,5.08,26.59,40.24,45.65,46.36S117,135.18,96,129.76Z"/><path class="cls-2" d="M105.2,67.41S89,71.65,88.26,103.65s7.53,37.88-1.18,58.11-15.53,68.71-5.41,94.83S110,284,125.79,286.35s26.35-27.64,21.53-45.88,11.53-87.18,11.53-87.18,11.76-59.53-21.42-85.88A29.51,29.51,0,0,0,105.2,67.41Z"/><path class="cls-1" d="M108.49,106.71s-.23-16.71,6.36-27.77c6-10.07,30.82-5.88,32.72,27.85.28,5.12,1,10.2.68,15.31-.61,11.88-2.56,41.43-7.52,63.66-6.36,28.48-9.18,43.77-4.94,61s2.58,47.53-36.47,32.47c0,0,20,14.82,41.17,6.82,0,0,1.65,8.24,9.65,7.06s36.23-25.18,36.94-63.3S170.85,159.65,170.14,138s-1.88-61.18-23.53-75.76S101,59.65,94.14,77.29c0,0,9.41-5.64,11.06,6.36s-1.41,24-1.41,24Z"/><path class="cls-3" d="M147.14,145.24s15.53-12.18,24.53-37.24c0,0-2.65-13.06.18-18.53s11.82-.35,10.05,9.88,0,.89,0,.89,1.06,1.23,11.3-8.12c0,0,9.17-9.71,20.65-3.53,9.75,5.25,6.24,22.48-5.22,29.38a36.52,36.52,0,0,0-12.32,11.77c-8.43,13.47-25.06,37.75-39.46,45.14"/><ellipse class="cls-4" cx="121.02" cy="96.45" rx="10.81" ry="8.35" transform="matrix(0.02, -1, 1, 0.02, 22.13, 215.49)"/><path class="cls-5" d="M112.71,96.12a12.94,12.94,0,0,0,1.93,7.14,7.55,7.55,0,0,0,6,3.63,7.25,7.25,0,0,0,5.91-3.39,12.12,12.12,0,0,0,2.12-6.74A12.38,12.38,0,0,0,127,89.89a6.81,6.81,0,0,0-11.9-.76A12.76,12.76,0,0,0,112.71,96.12Zm-.07,0A12.8,12.8,0,0,1,115,89a7.72,7.72,0,0,1,6.43-3.43,7.92,7.92,0,0,1,6.16,4,13,13,0,0,1,1.87,7.24,12.82,12.82,0,0,1-2.35,7.1,7.76,7.76,0,0,1-6.45,3.42,7.93,7.93,0,0,1-6.14-4A13,13,0,0,1,112.64,96.12Z"/><ellipse class="cls-6" cx="119.1" cy="94.63" rx="6.39" ry="5.1" transform="translate(20.2 210.21) rotate(-87.92)"/><ellipse class="cls-7" cx="122.27" cy="92.1" rx="1" ry="1.75" transform="translate(-13.56 21.51) rotate(-9.53)"/><ellipse class="cls-4" cx="98.34" cy="94.18" rx="10.01" ry="6.32" transform="translate(3.61 192) rotate(-89.68)"/><path class="cls-5" d="M92.06,93.85a14.26,14.26,0,0,0,1.32,6.26,8.19,8.19,0,0,0,1.89,2.53A4.66,4.66,0,0,0,98,103.82a4.06,4.06,0,0,0,2.71-1,7.42,7.42,0,0,0,1.84-2.37,13.34,13.34,0,0,0,1.41-6,13.56,13.56,0,0,0-1.09-6,8.51,8.51,0,0,0-1.64-2.55,4.54,4.54,0,0,0-2.59-1.35,4.09,4.09,0,0,0-2.85.79,7.16,7.16,0,0,0-2.1,2.34A13.92,13.92,0,0,0,92.06,93.85Zm-.07,0a13.82,13.82,0,0,1,1.57-6.26,7.74,7.74,0,0,1,2.07-2.48,4.54,4.54,0,0,1,3.07-1,5,5,0,0,1,2.91,1.37,8.84,8.84,0,0,1,1.87,2.66,14.59,14.59,0,0,1,1.25,6.35,13.94,13.94,0,0,1-1.59,6.26,7.73,7.73,0,0,1-2.09,2.49,4.48,4.48,0,0,1-3.07,1,5,5,0,0,1-2.91-1.38,8.78,8.78,0,0,1-1.85-2.66A14.39,14.39,0,0,1,92,93.85Z"/><ellipse class="cls-6" cx="97" cy="92.56" rx="4.09" ry="6.07"/><ellipse class="cls-7" cx="95.36" cy="89.75" rx="1.3" ry="1.92"/><path class="cls-8" d="M122.37,116.21s-3.44,3.08-8.55,8.2-7.59,3.27-7.59,3.27-6.27-1.59-8-12.36l12.44-1.5S117.26,118.32,122.37,116.21Z"/><path class="cls-9" d="M114.7,117.53s-7.33,10.68-12.35,5.65-3.8-8.83-3.8-8.83Z"/><path class="cls-8" d="M123.26,115.76s-4.41,1.77-7.94-.88-8.83-11.12-8.83-11.12-5.82,9.36-11.82,7.95a22.78,22.78,0,0,0,9.18,6.88C109.67,120.88,123.26,115.76,123.26,115.76Z"/><path class="cls-1" d="M125.88,58.26s24.48-9.52,18.26-10.56c-17.12-2.85-19.2,10.23-19.2,10.23Z"/><path class="cls-1" d="M126.94,57.36s-3.06-14.51-16.47-5.09c-3.26,2.29,16.14,6.08,16.14,6.08Z"/><path class="cls-1" d="M127.59,57.12c-.4,0,12.84-9.7,19.4-1.72C150.77,60,127.59,57.12,127.59,57.12Z"/><path class="cls-10" d="M187.55,294.17s-32.24,23.47-38.39,21.23-5.63-8-2.56-15.23,21.25-29.46,21.25-29.46-4.1,9.73,4.86,8.48c0,0-2.56,7.24,4.86,7C177.57,286.19,171.68,295.92,187.55,294.17Z"/><path class="cls-1" d="M106.14,289.41l-3.88,12.35L88.85,291.18c.35-6,10.47-12,10.47-12Z"/><path class="cls-10" d="M76.74,264.52s27.21,29.16,25.72,35.53-7.24,6.56-14.8,4.39-31.82-17.52-31.82-17.52,10.16,2.89,7.83-5.85c0,0,7.5,1.66,6.35-5.68C70,275.39,80.4,280.06,76.74,264.52Z"/></svg>