<svg id="Layer_1" data-name="Layer 1" xmlns="http://www.w3.org/2000/svg" viewBox="0 0 50 30"><defs><style>.cls-1{fill:#eee1b7;stroke:#49472a;stroke-miterlimit:10;stroke-width:0.25px;}</style></defs><g id="eyes"><g id="eyes_4" data-name="eyes 4"><path class="cls-1" d="M45.64,15.3a11,11,0,0,1-.33,2.33c-1.05,4.16-4.44,7.15-8.33,7s-7-3.32-7.79-7.49A10.93,10.93,0,0,1,29,14.71c.19-5.33,4.07-9.51,8.66-9.35S45.83,10,45.64,15.3Z"/><path class="cls-1" d="M14.61,14.37a11.66,11.66,0,0,1-.55,3.33c-.87,2.75-2.71,4.6-4.78,4.5-2.3-.12-4.19-2.62-4.76-6a12.56,12.56,0,0,1-.17-2.41c.1-4.47,2.49-8,5.32-7.83S14.72,9.9,14.61,14.37Z"/></g></g></svg>