<svg id="Layer_1" data-name="Layer 1" xmlns="http://www.w3.org/2000/svg" viewBox="0 0 50 40"><defs><style>.cls-1{fill:#fff;stroke:#6d4d2e;}.cls-1,.cls-4{stroke-miterlimit:10;stroke-width:0.25px;}.cls-2{fill:#191928;}.cls-3{fill:#f9f5f2;}.cls-4{fill:#eee1b7;stroke:#49472a;}</style></defs><g id="eyes"><g id="eyes_1" data-name="eyes 1"><path class="cls-1" d="M45.41,11.32a11.63,11.63,0,0,1,.77,2.41c.92,4.52-1,9-4.8,10.68s-8.34.05-11-3.63A11.57,11.57,0,0,1,29,18.5c-2.3-5.25-.5-11.11,4-13.09S43.11,6.08,45.41,11.32Z"/><ellipse class="cls-2" cx="36" cy="19.09" rx="4.63" ry="6.12" transform="translate(-4.59 22.64) rotate(-32.94)"/><ellipse class="cls-3" cx="36.21" cy="15.75" rx="1.78" ry="2" transform="translate(-3.26 14.46) rotate(-21.63)"/><path class="cls-1" d="M14.92,24.89a12.52,12.52,0,0,1,1,3.49c.44,3.07-.48,5.72-2.53,6.59-2.28,1-5.28-.59-7.39-3.56a13.21,13.21,0,0,1-1.29-2.25c-2-4.38-1.31-8.89,1.5-10.07S12.94,20.51,14.92,24.89Z"/><ellipse class="cls-2" cx="10.63" cy="29.91" rx="4.29" ry="5.62" transform="translate(-13.53 9.32) rotate(-30)"/><ellipse class="cls-3" cx="10.25" cy="25.87" rx="1.19" ry="1.95" transform="translate(-10.21 7.01) rotate(-25.72)"/></g><g id="eyes_3" data-name="eyes 3"><path class="cls-4" d="M14.92,24.89a12.52,12.52,0,0,1,1,3.49c-4.31,3.12-8,3.25-9.92,3a13.21,13.21,0,0,1-1.29-2.25,12.31,12.31,0,0,1-1.11-4.22c-.21-2.75.73-5.05,2.61-5.85,2.23-.93,5.15.5,7.24,3.33A13.26,13.26,0,0,1,14.92,24.89Z"/><path class="cls-4" d="M45.41,11.32a11.63,11.63,0,0,1,.77,2.41C40,20.82,32.87,21,30.34,20.78A11.57,11.57,0,0,1,29,18.5a11.38,11.38,0,0,1-1-4.22c-.16-3.86,1.69-7.42,5-8.87s7.31-.38,10,2.44A11.47,11.47,0,0,1,45.41,11.32Z"/></g></g></svg>