<svg id="Layer_1" data-name="Layer 1" xmlns="http://www.w3.org/2000/svg" viewBox="0 0 30 20"><defs><style>.cls-1{fill:#fff;stroke:#3d3c21;stroke-miterlimit:10;stroke-width:0.25px;}.cls-2{fill:#191928;}.cls-3{fill:#f9f5f2;}</style></defs><g id="eyes1"><path class="cls-1" d="M13.34,9.83A6.29,6.29,0,0,1,13.27,11,5,5,0,0,1,8.79,15.5a4.78,4.78,0,0,1-4.47-3.15,6.42,6.42,0,0,1-.47-2.18c-.11-3,1.93-5.58,4.55-5.67S13.23,6.79,13.34,9.83Z"/><ellipse class="cls-2" cx="10.09" cy="9.84" rx="2.93" ry="3.93" transform="translate(-0.68 0.74) rotate(-4.09)"/><ellipse class="cls-3" cx="8.46" cy="9.28" rx="0.95" ry="1.06" transform="translate(-0.64 0.63) rotate(-4.09)"/><path class="cls-1" d="M26.09,9.34A7,7,0,0,1,25.93,11c-.38,1.84-1.45,3.18-2.75,3.25s-2.35-1.07-2.85-2.76A7.17,7.17,0,0,1,20,9.66C20,7,21.27,4.82,22.94,4.73S26,6.71,26.09,9.34Z"/><ellipse class="cls-2" cx="24.15" cy="9.94" rx="2" ry="3.38"/><ellipse class="cls-3" cx="22.82" cy="8.51" rx="0.62" ry="0.92"/></g></svg>