<svg id="Layer_1" data-name="Layer 1" xmlns="http://www.w3.org/2000/svg" viewBox="0 0 50 30"><defs><style>.cls-1{fill:#fff;stroke:#6d4d2e;}.cls-1,.cls-4{stroke-miterlimit:10;stroke-width:0.25px;}.cls-2{fill:#191928;}.cls-3{fill:#f9f5f2;}.cls-4{fill:#eee1b7;stroke:#49472a;}</style></defs><g id="eyes_1" data-name="eyes 1"><path class="cls-1" d="M45.64,15.3a11,11,0,0,1-.33,2.33c-1.05,4.16-4.44,7.15-8.33,7s-7-3.32-7.79-7.49A10.93,10.93,0,0,1,29,14.71c.19-5.33,4.07-9.51,8.66-9.35S45.83,10,45.64,15.3Z"/><ellipse class="cls-2" cx="40.31" cy="15.92" rx="6.88" ry="5.2" transform="translate(15.84 51.7) rotate(-77.18)"/><ellipse class="cls-3" cx="42.49" cy="12.34" rx="1.86" ry="1.66" transform="matrix(0.07, -1, 1, 0.07, 27.15, 53.84)"/><path class="cls-1" d="M14.61,14.37a11.66,11.66,0,0,1-.55,3.33c-.87,2.75-2.71,4.6-4.78,4.5-2.3-.12-4.19-2.62-4.76-6a12.56,12.56,0,0,1-.17-2.41c.1-4.47,2.49-8,5.32-7.83S14.72,9.9,14.61,14.37Z"/><ellipse class="cls-2" cx="11.14" cy="15.07" rx="5.59" ry="3.39" transform="translate(-5.3 24.05) rotate(-82.17)"/><ellipse class="cls-3" cx="12.84" cy="12.25" rx="1.1" ry="1.81"/></g><g id="eyes_3" data-name="eyes 3"><path class="cls-4" d="M14.61,14.37a11.66,11.66,0,0,1-.55,3.33,13.16,13.16,0,0,1-9.54-1.46,12.56,12.56,0,0,1-.17-2.41,11.5,11.5,0,0,1,.77-4C6.06,7.46,7.77,5.91,9.67,6c2.25.12,4.11,2.5,4.72,5.71A12.15,12.15,0,0,1,14.61,14.37Z"/><path class="cls-4" d="M45.64,15.3a11,11,0,0,1-.33,2.33c-8,3.45-14.08.71-16.12-.48A10.93,10.93,0,0,1,29,14.71a10.77,10.77,0,0,1,.88-3.94,8.36,8.36,0,0,1,7.78-5.41,8.4,8.4,0,0,1,7.42,6.1A10.73,10.73,0,0,1,45.64,15.3Z"/></g></svg>