<svg id="Layer_1" data-name="Layer 1" xmlns="http://www.w3.org/2000/svg" viewBox="0 0 60 40"><defs><style>.cls-1{fill:#fff;}.cls-2{fill:#846153;}.cls-3{fill:#212428;}.cls-4{fill:#fafbfc;}.cls-5{fill:#f7be3e;stroke:#894b33;stroke-miterlimit:10;stroke-width:0.25px;}</style></defs><g id="eyes_2" data-name="eyes 2"><g id="EYE-01"><path class="cls-1" d="M5.57,24.33a12.06,12.06,0,0,0,.35,1.81C7.31,31.38,12,35,17.06,34.4c5.59-.63,9.57-6.08,9-12.21,0-.05,0-.11,0-.17-.7-6.2-5.84-10.71-11.48-10.07S4.87,18.13,5.57,24.33Z"/><path class="cls-2" d="M5.61,24.32a11.94,11.94,0,0,0,3.72,7.31,9.6,9.6,0,0,0,7.6,2.42,9.39,9.39,0,0,0,6.57-4.19,11.24,11.24,0,0,0,1.85-7.6V22.2A11.35,11.35,0,0,0,22,15.11a9.48,9.48,0,0,0-7.35-2.81,9.52,9.52,0,0,0-7,4A11.86,11.86,0,0,0,5.61,24.32Zm-.08,0a12,12,0,0,1,2-8.13,9.87,9.87,0,0,1,7.09-4.31,9.93,9.93,0,0,1,7.83,2.75,12,12,0,0,1,3.66,7.55h0a12,12,0,0,1-2.07,8A9.86,9.86,0,0,1,17,34.46a10,10,0,0,1-7.76-2.7A12.14,12.14,0,0,1,5.53,24.33Z"/><ellipse class="cls-3" cx="16.55" cy="23.4" rx="4.14" ry="4.44" transform="matrix(0.99, -0.11, 0.11, 0.99, -2.52, 2)"/><ellipse class="cls-4" cx="14.32" cy="21.46" rx="1.14" ry="1.22" transform="translate(-2.31 1.74) rotate(-6.43)"/><path class="cls-1" d="M34,18a11.93,11.93,0,0,0,.69,2.9c1.71,4.64,6.08,7.7,10.8,7.17,5.45-.62,9.38-5.81,9-11.75,0-.21,0-.41,0-.63C53.73,9.47,48.59,5,42.94,5.6S33.29,11.78,34,18Z"/><path class="cls-2" d="M34,18a11.85,11.85,0,0,0,3.75,7.34,10.2,10.2,0,0,0,3.59,2,9.34,9.34,0,0,0,4.06.34A9.47,9.47,0,0,0,52,23.4a11.34,11.34,0,0,0,1.77-7.65,11.29,11.29,0,0,0-3.43-7.07A9.38,9.38,0,0,0,43,6a9.52,9.52,0,0,0-6.93,4A11.79,11.79,0,0,0,34,18ZM34,18a12,12,0,0,1,2-8.09A9.71,9.71,0,0,1,50.77,8.2a12.09,12.09,0,0,1,1.75,15.57,9.61,9.61,0,0,1-11.24,3.86,10.74,10.74,0,0,1-3.62-2.19A12.05,12.05,0,0,1,34,18Z"/><ellipse class="cls-3" cx="44.09" cy="17.02" rx="4.23" ry="4.53" transform="translate(-1.63 5.05) rotate(-6.43)"/><ellipse class="cls-4" cx="41.9" cy="14.8" rx="0.97" ry="1.04" transform="translate(-1.39 4.79) rotate(-6.43)"/></g><g id="EYE-03"><path class="cls-5" d="M6,19.62c7.56,1.68,15.43-1.27,18.37-2.57A10.22,10.22,0,0,0,14.53,12,10.29,10.29,0,0,0,6,19.62Z"/><path class="cls-5" d="M34,14.93a38.45,38.45,0,0,0,18.64-4.34,10.22,10.22,0,0,0-9.73-5C38.24,6.13,34.68,10.06,34,14.93Z"/></g></g></svg>