<svg id="Layer_1" data-name="Layer 1" xmlns="http://www.w3.org/2000/svg" viewBox="0 0 60 30"><defs><style>.cls-1,.cls-4{fill:#fff;}.cls-1{stroke:#663a21;}.cls-1,.cls-6{stroke-miterlimit:10;stroke-width:0.25px;}.cls-2{fill:#191928;}.cls-3{fill:#f9f5f2;}.cls-5{fill:#663a21;}.cls-6{fill:#eee1b7;stroke:#4f4b1e;}</style></defs><path class="cls-1" d="M55.3,15.33A11.28,11.28,0,0,1,55,17.44c-1.08,4.92-5.2,8.52-10,8.36-5.18-.19-9.26-4.69-9.45-10.27q0-.43,0-.87C35.8,8.7,40.4,4,45.85,4.2S55.53,9.36,55.3,15.33Z"/><ellipse class="cls-2" cx="47.06" cy="13.88" rx="6.4" ry="6.02" transform="translate(26.82 58.58) rotate(-82.08)"/><ellipse class="cls-3" cx="51.42" cy="11.43" rx="1.17" ry="1.76" transform="translate(-1.24 12.53) rotate(-13.73)"/><path class="cls-4" d="M19.48,14.79a11.71,11.71,0,0,1-.41,2.76c-1.06,3.78-4,6.44-7.27,6.3-3.67-.16-6.63-3.69-7.06-8.17a10.79,10.79,0,0,1,0-1.51C4.85,9,8.28,5,12.37,5.12S19.64,9.62,19.48,14.79Z"/><path class="cls-5" d="M19.5,14.79a10.79,10.79,0,0,1-2,6.2,6.84,6.84,0,0,1-5.7,3,6.37,6.37,0,0,1-3.17-1,8.2,8.2,0,0,1-2.36-2.37,11.26,11.26,0,0,1-1.76-6.39A11.06,11.06,0,0,1,6.64,7.91,6.88,6.88,0,0,1,12.42,5a7.1,7.1,0,0,1,5.44,3.46A11.08,11.08,0,0,1,19.5,14.79Zm0,0a11,11,0,0,0-1.68-6.28,7,7,0,0,0-5.37-3.37A6.76,6.76,0,0,0,6.79,8a10.87,10.87,0,0,0-2.07,6.15A10.91,10.91,0,0,0,6.4,20.45a8,8,0,0,0,2.28,2.34,6.43,6.43,0,0,0,3.08,1,6.71,6.71,0,0,0,5.63-2.89A10.63,10.63,0,0,0,19.47,14.79Z"/><ellipse class="cls-2" cx="13.17" cy="13.76" rx="4.79" ry="5.68"/><ellipse class="cls-3" cx="16.54" cy="11.83" rx="1.52" ry="1.8"/><path class="cls-6" d="M19.06,11.31c-7,.76-11.06-.78-13.11-2C7.33,6.68,9.71,5,12.37,5.12,15.49,5.25,18.09,7.81,19.06,11.31Z"/><path class="cls-6" d="M54.65,11A34.9,34.9,0,0,1,36.94,9.6,9.52,9.52,0,0,1,54.65,11Z"/></svg>