<svg id="Layer_1" data-name="Layer 1" xmlns="http://www.w3.org/2000/svg" viewBox="0 0 266.57 380.24"><defs><style>.cls-1,.cls-11{fill:#35374c;}.cls-1{stroke:#53566b;}.cls-1,.cls-2,.cls-4,.cls-9{stroke-miterlimit:10;}.cls-2{fill:#ff9f2c;stroke:#b5650d;}.cls-3{fill:#b5650d;}.cls-4{fill:#eee1b7;stroke:#3d3c21;}.cls-5{fill:#fff;}.cls-6{fill:#1b1b26;}.cls-7{fill:#191928;}.cls-8{fill:#f9f5f2;}.cls-9{fill:#faa02c;stroke:#af6617;}.cls-10{fill:#c7323e;}</style></defs><path class="cls-1" d="M92.79,212.82s0-9.64-18.12-24.23-30.82-5.88-40.94,12.7,1.41,27.53,14.12,13c0,0,2.58,5.41,8.94,1.17,0,0,26.11,20.94,28.47,33.18S92.79,212.82,92.79,212.82Z"/><path class="cls-1" d="M53.49,216.82s13.41-5.41.24-16.23"/><path class="cls-1" d="M47.85,214.24s-1.42-2.36.23-7.77"/><path class="cls-2" d="M169.26,317.4s-2.32,8.48,2,15.21c2.89,4.44-5.15,7.79-5.15,7.79L148.09,353a2.78,2.78,0,0,1-3.76-.54c-1.4-1.77-4.28-3.4-9.83-.19,0,0-.83-7.5-9-3,0,0,3.95-6-4.62-3.76l9.2-6.31a27.15,27.15,0,0,1,2.42-1.5c4.9-2.64,10.39-4.34,15.71-6l5.66-1.77.6-9.24S163.92,308.94,169.26,317.4Z"/><path class="cls-3" d="M134.33,352.17a11.49,11.49,0,0,1,2.16-6.76,18,18,0,0,1,4.82-4.8,19,19,0,0,1,6.16-2.69,17.28,17.28,0,0,1,3.38-.43,14.27,14.27,0,0,1,3.56.41l.13.38c-1.92.78-3.82,1.59-5.67,2.51a47.22,47.22,0,0,0-5.32,3.13,38,38,0,0,0-4.85,3.81,27.91,27.91,0,0,0-2.14,2.21,18.91,18.91,0,0,0-1.88,2.42Z"/><path class="cls-3" d="M125.89,348.21a12.33,12.33,0,0,1,2.66-6.17,19.73,19.73,0,0,1,4.84-4.46,21.51,21.51,0,0,1,5.91-2.7,24.89,24.89,0,0,1,3.21-.61,16.45,16.45,0,0,1,3.36.05l.1.28c-1.91.76-3.79,1.55-5.63,2.44a47.36,47.36,0,0,0-5.31,3,37.85,37.85,0,0,0-4.84,3.71A27.51,27.51,0,0,0,128,346a16.94,16.94,0,0,0-1.88,2.38Z"/><path class="cls-3" d="M152.9,330.12a5.5,5.5,0,0,1,1.88-2.22,8.15,8.15,0,0,1,2.44-1.16,9.79,9.79,0,0,1,5,0,10.51,10.51,0,0,1,4.3,2.21,10.94,10.94,0,0,1,1.65,1.87,9.58,9.58,0,0,1,1.15,2.5l-.2.35c-1.27-.62-2.55-1.22-3.85-1.77a26,26,0,0,0-4-1.28,18,18,0,0,0-4.12-.64,14.36,14.36,0,0,0-2.08.09,7.74,7.74,0,0,0-2,.44Z"/><path class="cls-2" d="M119.49,317.1s-2.13,1.81,1.5,8.94c2.39,4.71-5.1,7.23-5.1,7.23L96.59,344a2.77,2.77,0,0,1-3.68-.92c-1.21-1.9-3.9-3.81-9.76-1.18,0,0,0-7.55-8.64-3.88,0,0,4.57-5.55-4.19-4.21l9.82-5.34a24.3,24.3,0,0,1,2.57-1.24c5.15-2.14,10.8-3.27,16.26-4.38l5.82-1.19-.87-7.65S115.08,308.14,119.49,317.1Z"/><path class="cls-3" d="M83,341.75a11.66,11.66,0,0,1,2.86-6.51,18,18,0,0,1,5.3-4.28,19.09,19.09,0,0,1,6.41-2,17.64,17.64,0,0,1,3.41-.09,14.77,14.77,0,0,1,3.5.77l.1.39c-2,.59-4,1.2-5.91,1.93A44.57,44.57,0,0,0,93,334.49a37.35,37.35,0,0,0-5.23,3.29,26.3,26.3,0,0,0-2.36,2A18.6,18.6,0,0,0,83.32,342Z"/><path class="cls-3" d="M75,337a12.43,12.43,0,0,1,3.29-5.88,20,20,0,0,1,5.28-3.93,21.53,21.53,0,0,1,6.17-2.09,22.3,22.3,0,0,1,3.26-.28,15.93,15.93,0,0,1,3.34.39l.07.29c-2,.56-3.93,1.15-5.86,1.86a46.58,46.58,0,0,0-5.6,2.49,38.1,38.1,0,0,0-5.21,3.2,29.33,29.33,0,0,0-2.37,1.93,17.52,17.52,0,0,0-2.12,2.19Z"/><path class="cls-3" d="M103.81,321.7a5.4,5.4,0,0,1,2.08-2,8,8,0,0,1,2.55-.91,9.81,9.81,0,0,1,5,.47,10.53,10.53,0,0,1,4.06,2.65,11.92,11.92,0,0,1,1.45,2,9.89,9.89,0,0,1,.88,2.61l-.23.32c-1.21-.75-2.42-1.47-3.65-2.15a26.24,26.24,0,0,0-3.85-1.68,18.37,18.37,0,0,0-4-1.06,14.5,14.5,0,0,0-2.08-.11,7.26,7.26,0,0,0-2,.23Z"/><path class="cls-4" d="M114.9,131.93s-31.76,5.17-30,47.24,7.42,25.17-9.88,66.2,1.77,73.45,43.77,81.38,58.94-30.34,58.94-30.34l3.53-97.24S180.55,121.59,114.9,131.93Z"/><ellipse class="cls-5" cx="127.38" cy="164.61" rx="10.56" ry="9.87" transform="translate(-46.65 278.77) rotate(-85.53)"/><path class="cls-6" d="M117.55,164.28a10.83,10.83,0,0,0,2.57,7.35,9,9,0,0,0,13.65.12,10.43,10.43,0,0,0,2.79-6.84,10.32,10.32,0,0,0-2.27-7,9.07,9.07,0,0,0-6.55-3.46,9.31,9.31,0,0,0-7.08,2.73A11,11,0,0,0,117.55,164.28Zm-.07,0a11.11,11.11,0,0,1,3-7.26,9.66,9.66,0,0,1,7.23-3,9.54,9.54,0,0,1,7,3.46,11.12,11.12,0,0,1-.55,14.74,9.63,9.63,0,0,1-7.24,3,9.53,9.53,0,0,1-7-3.47A10.92,10.92,0,0,1,117.48,164.28Z"/><ellipse class="cls-7" cx="125.11" cy="162.83" rx="6.26" ry="6.02" transform="translate(-61.13 249.32) rotate(-77.37)"/><ellipse class="cls-8" cx="128.86" cy="160.35" rx="1.17" ry="1.73" transform="matrix(0.97, -0.25, 0.25, 0.97, -36.19, 37.56)"/><ellipse class="cls-5" cx="96.85" cy="162.5" rx="9.15" ry="7.4" transform="translate(-66.84 257.32) rotate(-89.29)"/><path class="cls-6" d="M89.49,162.2a10.43,10.43,0,0,0,1.78,6.1,6.68,6.68,0,0,0,5.27,3,6.37,6.37,0,0,0,5.13-2.79,9.8,9.8,0,0,0,1.9-5.71,9.94,9.94,0,0,0-1.52-5.83,6.14,6.14,0,0,0-10.39-.73A10.37,10.37,0,0,0,89.49,162.2Zm-.08,0a10.52,10.52,0,0,1,2.11-6.08,6.84,6.84,0,0,1,5.65-2.81,7.07,7.07,0,0,1,5.42,3.28,10.7,10.7,0,0,1,1.73,6.22,10.54,10.54,0,0,1-2.14,6.09,6.86,6.86,0,0,1-5.66,2.81,7.06,7.06,0,0,1-5.4-3.3A10.65,10.65,0,0,1,89.41,162.19Z"/><ellipse class="cls-7" cx="95.28" cy="161.01" rx="4.79" ry="5.55"/><ellipse class="cls-8" cx="93.36" cy="158.44" rx="1.52" ry="1.76"/><path class="cls-9" d="M106.05,192.21c3.75.24,22.83-9.15,22.74-11.78l-5.15.14a.11.11,0,0,0,0-.1c0-.09-.29,0-.73.14l-.33.08a5.82,5.82,0,0,1-2.54.21c-2.66-.47-6.8-5.63-12.31-9.45a1.59,1.59,0,0,0-.43-.22.7.7,0,0,0-.33-.12,1.19,1.19,0,0,0-.37-.06.53.53,0,0,0-.28,0,1.12,1.12,0,0,0-.31,0,.92.92,0,0,0-.32.1l-.06,0a1.59,1.59,0,0,0-.31.14,2.42,2.42,0,0,0-.33.2c-2.86,1.86-5.54,8.19-7.52,7.89h0a1.1,1.1,0,0,0-.25,0c-.47,0-1.41,0-1.59.62a2.8,2.8,0,0,0,0,.49,1.16,1.16,0,0,1,0,.13C95.58,183.12,103.94,192.07,106.05,192.21Z"/><path class="cls-10" d="M103,187c4.65.06,8.57-2,10.51-2.77,1.77-.71,9.38-3.6,9.38-3.6s-12.46,3.44-14.29,3.48c-3.27.06-6.47-2.71-6.47-2.71s-1.89,1.77-3.19,1.32a3.37,3.37,0,0,1-1.16-.46C98.43,183.51,100,187,103,187Z"/><path class="cls-9" d="M97,181.65a7.2,7.2,0,0,0,1.42.83c2,.85,3.71-1.1,3.71-1.1a11.84,11.84,0,0,0,6.47,2.71c1.49.17,7-1.17,9.16-1.71,3-.78,5.86-1.79,5.86-1.79v0c-.06-.07-.31,0-.72,0l-.33.08c-.66.18,2-.05,1.06-.22-2.66-.48-10.4-5.2-15.91-9a1.59,1.59,0,0,0-.43-.22.7.7,0,0,0-.33-.12,1.19,1.19,0,0,0-.37-.06.53.53,0,0,0-.28,0,1.12,1.12,0,0,0-.31,0,.92.92,0,0,0-.32.1l-.06,0a1.59,1.59,0,0,0-.31.14,2.42,2.42,0,0,0-.33.2c-2.86,1.86-5.94,6.76-7.92,6.46h0c-.08,0-2.87.17-2.94.17-.47,0,0-.46-.18.18A38.56,38.56,0,0,0,97,181.65Z"/><path class="cls-11" d="M95.49,147.28a8.33,8.33,0,0,1,3.89,1c4,2.5,8.92,8.58,4.94,24.65l8.47,2.76s-4.59-24.13,16.59-29.65S163.56,170.19,158,193c-6.7,27.28,1.06,36.1,1.06,36.1s9.88,15.53-10.94,33.55c0,0-12.7,6.9-.7,36.21s-32.12,26.89-38.48,24.48c0,0,12.71,8.62,42.71,3.79,0,0,4.59,10.35,23.65,2.76s27.53-18.62,35.29-37.24-1.41-45.51-12-70.34-5.65-46.55-15.17-63.44-22.83-34-56.71-30.35c0,0-26.94,2.59-34.53,19.66"/><path class="cls-11" d="M136.79,132.08s6.65-21.1-1.06-22.27-.84,22.74-.84,22.74Z"/><path class="cls-11" d="M133.44,128.3s-5.05-12.74-8-8.84,7.55,10,7.55,10Z"/><path class="cls-11" d="M135.73,131.53c-.5-.05.58-14.25,12.7-13.79C155.8,118,135.73,131.53,135.73,131.53Z"/><path class="cls-1" d="M170.67,220.94s7.06-20.29,21.35-26.65,31.94,14.47,28.41,36.89-22.41,30-28.94,18.88-3.17-15.53,1.06-20.47c0,0-9.35,2.29-9.35-3.88s3.35-7.77,8.29-7.24c0,0-5.29-2.65-9.53,5.12"/></svg>