<svg id="Layer_1" data-name="Layer 1" xmlns="http://www.w3.org/2000/svg" viewBox="0 0 60 40"><defs><style>.cls-1{fill:#fff;stroke:#846153;stroke-miterlimit:10;stroke-width:0.5px;}.cls-2{fill:#212428;}.cls-3{fill:#fafbfc;}</style></defs><g id="eyes_1" data-name="eyes 1"><g id="EYE-01"><path class="cls-1" d="M5.56,15.73a11.7,11.7,0,0,0-.3,1.82C4.79,23,8,27.92,12.92,29.11c5.47,1.32,11.07-2.44,12.59-8.4a1.54,1.54,0,0,0,0-.17C27,14.47,23.72,8.48,18.2,7.15S7,9.66,5.56,15.73Z"/><ellipse class="cls-2" cx="12.28" cy="12.43" rx="4.44" ry="4.14" transform="translate(-2.68 21.46) rotate(-76.48)"/><ellipse class="cls-3" cx="14.29" cy="9.81" rx="1.22" ry="1.14" transform="translate(1.41 21.41) rotate(-76.48)"/><path class="cls-1" d="M34.44,19.46a12.17,12.17,0,0,0-.35,3c0,4.94,3.09,9.31,7.71,10.42,5.34,1.28,10.8-2.26,12.47-8,.06-.2.12-.4.17-.61,1.46-6.06-1.84-12.06-7.36-13.39S35.9,13.4,34.44,19.46Z"/><ellipse class="cls-2" cx="41.64" cy="16.22" rx="4.53" ry="4.23" transform="translate(16.14 52.91) rotate(-76.48)"/><ellipse class="cls-3" cx="43.46" cy="13.23" rx="1.04" ry="0.97" transform="translate(20.44 52.39) rotate(-76.48)"/></g></g></svg>