<svg id="Layer_1" data-name="Layer 1" xmlns="http://www.w3.org/2000/svg" viewBox="0 0 490 430"><defs><style>.cls-1{fill:#282828;opacity:0.5;}.cls-2{fill:#fff;}.cls-12,.cls-2,.cls-3,.cls-8{stroke:#4c3b0c;}.cls-10,.cls-12,.cls-17,.cls-2,.cls-3,.cls-5,.cls-7,.cls-8{stroke-miterlimit:10;}.cls-3{fill:#93402a;}.cls-4{fill:#d1a384;}.cls-16,.cls-5{fill:#e9ba26;}.cls-17,.cls-5{stroke:#664b10;}.cls-6{fill:#664b10;}.cls-7{fill:#f9803d;stroke:#56230a;}.cls-8{fill:none;}.cls-9{fill:#ba5224;}.cls-10{fill:#cc773e;stroke:#704018;}.cls-11{fill:#ce622c;}.cls-12,.cls-17{fill:#f7e8bc;}.cls-13{fill:#161616;opacity:0.3;}.cls-14{fill:#212428;}.cls-15{fill:#422824;}.cls-17{stroke-width:2px;}</style></defs><ellipse class="cls-1" cx="263.94" cy="407.95" rx="176.11" ry="16.55"/><path class="cls-2" d="M451.85,98.73s-3.6,4.86-2.69,13,11-3,15-13.11S451.85,98.73,451.85,98.73Z"/><path class="cls-3" d="M195,110.44s49,1.48,71.94-10.6c0,0,8.65,60.71,29.36,84.95,0,0,1.61,7.72-16.44,5.15,0,0-13-19-32-16.28,0,0-14.13-22.44-32.07-24.22C215.72,149.44,230.89,129.88,195,110.44Z"/><path class="cls-3" d="M247.79,173.66s18.73-49.76,19.13-73.82c0,0-35.78,40.71-51.2,49.6"/><path class="cls-3" d="M290.29,196s-25.73-36.49-32.85-74.39c0,0-43.1,16-92.85,4.06,0,0,49.55,24,35.12,72.12,0,0,35.16-12.56,48.63,19.87C248.34,217.7,254.88,197.94,290.29,196Z"/><path class="cls-4" d="M199.67,197.8c4.35-6.67,8.94-13.19,13.56-19.69s9.42-12.86,14.21-19.23,9.66-12.68,14.54-19,9.8-12.56,14.75-18.81l1.87-2.36-.27,3-2.14,24c-.74,8-1.44,16-2.28,24l-2.53,24c-.93,8-1.89,16-3,23.94h-.1c1-8,1.78-16,2.57-24l2.27-24q2.2-24,4.21-48.06l.17.07q-14.88,18.69-29.45,37.64-7.27,9.48-14.41,19.07c-4.73,6.41-9.43,12.84-13.9,19.44Z"/><path class="cls-5" d="M341.55,75.91S366,35.83,345.15,8.19c0,0,.65-7.65,12.89,2.84s36.19,34.61,19.48,65.89C377.52,76.92,358.91,93.28,341.55,75.91Z"/><path class="cls-6" d="M381.6,43a13.59,13.59,0,0,1-2.94,2.88,16.42,16.42,0,0,1-3.52,2,19.93,19.93,0,0,1-7.86,1.55,21.87,21.87,0,0,1-7.86-1.28,10.48,10.48,0,0,1-6-5,10.39,10.39,0,0,0,6.05,4.78,21.55,21.55,0,0,0,7.77,1,19.21,19.21,0,0,0,7.56-1.73,16.13,16.13,0,0,0,3.3-2,13.1,13.1,0,0,0,2.63-2.74Z"/><path class="cls-6" d="M348.52,62.6a12,12,0,0,0,6,7.94,16.49,16.49,0,0,0,4.91,1.67c.87.08,1.74.24,2.61.25s1.76.07,2.64,0a25.71,25.71,0,0,0,10.18-2.55,16.91,16.91,0,0,0,7.5-7.25,17.07,17.07,0,0,1-7.38,7.47A26.08,26.08,0,0,1,364.67,73c-.89.1-1.79,0-2.69.08s-1.79-.14-2.69-.2a17.24,17.24,0,0,1-5.16-1.63,12.83,12.83,0,0,1-6.6-8.44Z"/><path class="cls-6" d="M353.71,26.66a23.15,23.15,0,0,0,4.26.75,17,17,0,0,0,4.34-.13,11.26,11.26,0,0,0,4.07-1.47,9.14,9.14,0,0,0,2.9-3.24A9.33,9.33,0,0,1,366.52,26a11.59,11.59,0,0,1-4.12,1.75,17.64,17.64,0,0,1-4.47.39,23.63,23.63,0,0,1-4.49-.54Z"/><path class="cls-7" d="M258.46,395.44s26.46,5.82,27.12,5.95c6.68,1.22,44.25,8.13,53.71,10.42l4.11.88-1.06-5.35s10.12,1.86,16.28,5.09c0,0,1.83-1.24,0-7.67a28.82,28.82,0,0,0,10.78,4.75c5.78,1-3-13.11-24.09-19s-34.41-1.94-34.41-1.94,51.6-14.22,55-73.21c2.93-51.58-27.49-67.64-54.61-60.7"/><path class="cls-8" d="M342.34,407.34s-5.45-6.88-31.62-10.23"/><path class="cls-8" d="M358.6,404.76s-9.06-11.16-38.15-11.85"/><ellipse class="cls-9" cx="326.11" cy="329.11" rx="5.76" ry="4.47" transform="translate(-30.93 624.39) rotate(-84.85)"/><ellipse class="cls-9" cx="326.45" cy="343.72" rx="5.14" ry="3.89" transform="translate(-53.19 627.61) rotate(-83.27)"/><ellipse class="cls-9" cx="333.86" cy="336.99" rx="3.54" ry="2.68" transform="translate(-39.96 629.03) rotate(-83.27)"/><path class="cls-10" d="M295.9,195.43a71.66,71.66,0,0,0-13.48,3.43c1.45.27,1.78,2.52.84,3.72a6.05,6.05,0,0,1-4,1.81c-1.47.25-3,.49-4.12,1.56-2.19,2.15-1,5.89.37,8.66-5.58-2.5-12.8-.2-16.13,5.15s-2.39,13.1,2.11,17.33l-10.62-2.78c-2,1.78-2.61,4.74-2.62,7.47s.43,5.47,0,8.17a4.38,4.38,0,0,1-.94,2.34,3.46,3.46,0,0,1-4.12.3,27.92,27.92,0,0,1-3.5-2.76,11.22,11.22,0,0,0-15.13,1.94c-1.25,1.56-2.09,3.43-3.35,5s-3.14,2.81-5.05,2.45c-2.49-.48-3.72-3.3-5.52-5.14-2.77-2.83-7.11-3.34-11-2.66s-7.48,2.37-11.28,3.39a2.16,2.16,0,0,1-2.18-.25,2.48,2.48,0,0,1-.34-1.91,77.52,77.52,0,0,0,0-14.21c-.3-3.13-.89-6.45-3-8.69-3.8-4.07-10.21-2.71-15.68-3a2.4,2.4,0,0,1-1.39-.39,2.45,2.45,0,0,1-.69-1.56c-.56-3.76.74-7.53,1.63-11.23s1.3-7.93-.78-11c-2.62-3.92-8-4.41-12.58-4.11a75.66,75.66,0,0,0-17.05,3.13,47.89,47.89,0,0,0-2.69-11.5c-1.44-3.71-3.76-7.56-7.51-8.46a10.43,10.43,0,0,0-3.9-.06c-5.84.78-11.27,3.58-16.25,6.89-2.2,1.46-4.56,3.1-7.15,2.89-3.35-.28-5.63-3.46-7.72-6.17a54.86,54.86,0,0,0-4.55-5.19c-1.12-1.11-2.43-2.24-4-2.2a6.07,6.07,0,0,0-3.4,1.66A93,93,0,0,0,62.26,197a86.51,86.51,0,0,1-19.19-3.58c-4.35-1.35-9.11-3-13.29-1.11a14,14,0,0,0-4.63,3.81A14.48,14.48,0,0,0,22,201.5c-.79,2.91-.13,6-.22,9a2.46,2.46,0,0,1-.86,2.14,2.12,2.12,0,0,1-1.34.16c-2.15-.29-4.14-1.34-6.28-1.74a10.76,10.76,0,0,0-5.83.53c-2.52,1-4.88,3.49-4.38,6.21.54,2.92,4,4.51,4.44,7.44a1.82,1.82,0,0,1-.23,1.32,2.35,2.35,0,0,1-.85.6,8,8,0,0,0-2.83,2.14,4.21,4.21,0,0,0-.89,3.42c17.89,4.08,36.89-4.95,53.22-13.84s34.86-17.71,52.41-12.33c12.43,3.8,21.87,14.14,29.69,24.84s14.81,22.34,24.92,30.7c11.29,9.32,25.56,13.78,39.66,17.1,12.23,2.87,25.39,5,37.12.14,8.68-3.57,15.77-10.75,20.4-19.2,2.64-4.82,4.52-10,7-15C275.71,227.62,290.23,214.21,295.9,195.43Z"/><path class="cls-7" d="M370.75,318c-8.06,38-37.39,60.82-74.88,69.67-19.6,4.63-41.44,5.43-63.64,2.56-5.41-.69-10.71-1.64-15.85-2.8-56.22-12.69-95.15-82.34-108.81-102.79-14.9-22.31-26.92-31.14-61.44-38.5s-41.06,6.34-41.06,6.34S3,252.7,3,251.74a12.87,12.87,0,0,1,.3-3.35c2.2-10.72,16.25-33.52,59.8-42.19,49-9.75,93.48,10.08,123.46,45.25,18.52,21.74,19.42,19.41,36.11,15.06,12.91-3.35,24.07-15.52,34.8-29.25,28.08-35.95,43.74-141.21,43.74-141.21l9.61,15.35,4.5,5s45.69-34.37,32,24.34q-.61,2.64-1.06,5.28c-6.75,39.83,13.65,80.52,22.53,120.54C372.66,283.89,374.34,301.07,370.75,318Z"/><path class="cls-11" d="M295.87,387.68c-19.6,4.63-41.44,5.43-63.64,2.56-5.41-.69-10.71-1.64-15.85-2.8-56.22-12.69-95.15-82.34-108.81-102.79-14.9-22.31-26.92-31.14-61.44-38.5s-41.06,6.34-41.06,6.34S3,252.7,3,251.74a12.87,12.87,0,0,1,.3-3.35c26.33-28.74,84.26-19.27,140.91,62.32,64,92.21,147,70.38,147,70.38Z"/><path class="cls-12" d="M369.84,320.57c-12.27,57.64-73.58,77.19-138.23,68.87q-8.13-1.05-15.85-2.8c18.14.57,77.22-.16,111.17-31.17,40.48-37,27.15-85,10.44-132.35s-11.5-83.56-11.5-83.56c3.74-1.95,15.36,6.38,19.78,6.46C336,202.9,381.74,264.65,369.84,320.57Z"/><path class="cls-7" d="M297.66,115.4c-1.35-18.92.75-35.23,20-54.8,16.4-16.68,48.93-16.65,72.8-16,4.14.11,8,.23,11.51.3,20.39.36,40.69,6.51,57.25,2.51a17.48,17.48,0,0,1,16.49,4.51c6.83,6.81,14.46,18.09,10.6,32.27-6.49,23.84-38.42,16.19-38.42,16.19s-19,3.71-18,23.64c0,0-.3,16.53,32.79,15.77,0,0,7.45,17.68-22.78,9.38,0,0-9-3.87-23.61-.42s-38.95,8.09-58.38-.35l-8.89-2.76"/><path class="cls-13" d="M315.25,63c-20.08,19.91-16.83,54.05-16.91,53.5-1.89-13.5-11.64,85.84-41,121.77-11.21,13.72,30.15-10,17.38-4.64,32.14-9.56,41-83.67,39.54-99.9h0c-.49-12,.32-20.68,1.28-38,3-53.07,75.61-48.4,75.61-48.4l.21-.3C366.41,46.36,332.23,46.14,315.25,63Z"/><path class="cls-7" d="M214.1,310.29s28.23-10.09,43.39-10.71c34.44-1.42,48,33.92,25.81,67.27-9.74,14.64-30.9,29.83-30.9,29.83s36-2.13,39.41,22.75l-8.62-1.72a8.64,8.64,0,0,1-.71,5.43c-1.36,2.53-15.07-4.86-15.07-4.86s6.13,6.54-11.37,3.11-34.67-5.28-46.7-5.07-16-4.39-14.44-12.56,26.86-21,20.22-36.76c0,0-.23-6.08-17.81-4"/><path class="cls-8" d="M283.19,417.71s-1.15-11.89-26.25-16.62"/><path class="cls-8" d="M267.41,418.28s-2-8.94-21.38-14.77"/><ellipse class="cls-9" cx="226.9" cy="346.38" rx="6.89" ry="6.33" transform="translate(-176.78 438.59) rotate(-69.64)"/><ellipse class="cls-9" cx="226.98" cy="363.75" rx="6.16" ry="5.49" transform="translate(-193.78 446.19) rotate(-69.12)"/><ellipse class="cls-9" cx="237.72" cy="355.91" rx="4.24" ry="3.78" transform="translate(-179.54 451.18) rotate(-69.12)"/><path class="cls-7" d="M304.49,185.48s-24.2-5.83-45.56,6.39L252.14,194l8.91,5.11L246.47,209.2l12.19-2.49s-12.48,19.13,23.42,49.91l-.67.07a3.05,3.05,0,0,0-2.13,4.87c3.51,4.62,9.56,9.94,14-.24,0,0,2.43,14.89,10.74,3.34,0,0,10.74,2.89,9.66-12.43,0,0,9-2.09,3.37-12.09,0,0-.85-3.16-11.59-6s-17.48-17-17.48-17,14.07,18.92,23.29-6.34"/><path class="cls-8" d="M292.78,262s1.62-2.45-1.85-9.71"/><path class="cls-8" d="M304,264.66s1.22-5.38-4.69-14.93"/><path class="cls-8" d="M313.65,252.23s-.15-3.83-8.6-9.82"/><path class="cls-8" d="M288.82,218.72s-1.53-2.05-2.52-9.94"/><path class="cls-14" d="M463.25,77.76a7.34,7.34,0,0,1,1.26-8.57,5.9,5.9,0,0,1,10.21,3.47c0,.07,0,.13,0,.2C475.22,79.62,472.17,74,463.25,77.76Z"/><path class="cls-15" d="M467.38,56.68s-9.95,2.83-11.33,12.7,3.8,14.32,3.8,14.32-9.37-4.37-6.78-15.57S467.38,56.68,467.38,56.68Z"/><ellipse class="cls-9" cx="330.23" cy="106.38" rx="10.35" ry="11.47" transform="translate(218.03 434.68) rotate(-88.99)"/><ellipse class="cls-9" cx="349.9" cy="89.29" rx="5.29" ry="5.86" transform="translate(254.43 437.55) rotate(-88.99)"/><ellipse class="cls-9" cx="364.69" cy="117.22" rx="5.29" ry="8.1" transform="translate(120.52 412.39) rotate(-68.22)"/><path class="cls-5" d="M340.08,71.46S307.36,51.53,312.56,24.4c0,0-3.28-5.23-8.44,6.6S290.18,68.55,314,84.94C314,84.94,333.67,90,340.08,71.46Z"/><path class="cls-16" d="M298.7,61.8s5.64,3.25,13.36-.66,7.21-8.88,7.21-8.88"/><path class="cls-6" d="M299,61.37a12.6,12.6,0,0,0,6,1.3,16.1,16.1,0,0,0,6.16-1.38,18,18,0,0,0,5.37-3.42,8.25,8.25,0,0,0,2.78-5.61,8.35,8.35,0,0,1-2.61,5.79,18.32,18.32,0,0,1-5.34,3.7A16.89,16.89,0,0,1,305,63.42a13.23,13.23,0,0,1-6.54-1.19Z"/><path class="cls-16" d="M330.45,64.31s2.71,8.3-8.17,12.91-17.09-.76-17.09-.76"/><path class="cls-6" d="M330.93,64.16A10,10,0,0,1,329,72.72a16.17,16.17,0,0,1-7.2,4.93,22,22,0,0,1-8.54,1.55,14.27,14.27,0,0,1-8.11-2.74A14.17,14.17,0,0,0,313.31,79a21.37,21.37,0,0,0,8.34-1.77,15.44,15.44,0,0,0,6.79-4.91,9.18,9.18,0,0,0,1.54-7.8Z"/><path class="cls-16" d="M313.32,40.91s-7.62,6.61-13.24,2.32"/><path class="cls-6" d="M313.65,41.29a19.68,19.68,0,0,1-3.15,2A14.71,14.71,0,0,1,307,44.55a9.66,9.66,0,0,1-3.67.18,7.73,7.73,0,0,1-3.29-1.5,7.64,7.64,0,0,0,3.33,1.25,9.41,9.41,0,0,0,3.5-.41,14.68,14.68,0,0,0,3.23-1.46A18.6,18.6,0,0,0,313,40.53Z"/><path class="cls-17" d="M344.34,170.16s3.76,6.05-18.37,3.19"/><path class="cls-17" d="M348.14,193.81s6.49,11-14.39,17.35"/><path class="cls-17" d="M357.72,229.53s5.13,8.19-14.64,11.36"/><path class="cls-17" d="M364.71,252.19s12.78,13.6-11.78,29"/><path class="cls-17" d="M371.72,293.5s7.21,10.33-21.52,22.85"/><path class="cls-17" d="M367.38,330s2.37,15.18-33.8,18.89"/><ellipse class="cls-9" cx="98.39" cy="257.98" rx="5.29" ry="9.36" transform="translate(-176.54 283.38) rotate(-74.4)"/><ellipse class="cls-9" cx="123.33" cy="251.03" rx="5.29" ry="9.36" transform="translate(-151.61 302.32) rotate(-74.4)"/><ellipse class="cls-9" cx="125.85" cy="269.38" rx="1.81" ry="3.21" transform="translate(-167.45 318.16) rotate(-74.4)"/></svg>