<svg id="Layer_1" data-name="Layer 1" xmlns="http://www.w3.org/2000/svg" viewBox="0 0 266.57 380.24"><defs><style>.cls-1{fill:#ff9f2c;stroke:#b5650d;}.cls-1,.cls-11,.cls-4,.cls-9{stroke-miterlimit:10;}.cls-2{fill:#b5650d;}.cls-11,.cls-3{fill:#35374c;}.cls-4{fill:#eee1b7;stroke:#3d3c21;}.cls-5{fill:#fff;}.cls-6{fill:#1b1b26;}.cls-7{fill:#191928;}.cls-8{fill:#f9f5f2;}.cls-9{fill:#faa02c;stroke:#af6617;}.cls-10{fill:#c7323e;}.cls-11{stroke:#53566b;}</style></defs><path class="cls-1" d="M173.2,315.83s-2.32,8.85,2,15.87c2.89,4.64-5.15,8.13-5.15,8.13L152,353a2.73,2.73,0,0,1-3.77-.56c-1.4-1.85-4.28-3.55-9.83-.2,0,0-.83-7.83-9-3.11,0,0,3.95-6.25-4.62-3.93l9.2-6.58a26.92,26.92,0,0,1,2.42-1.56c4.9-2.76,10.39-4.53,15.72-6.27l5.65-1.84.6-9.65S167.87,307,173.2,315.83Z"/><path class="cls-2" d="M138.27,352.12a11.81,11.81,0,0,1,2.06-6.88,18.44,18.44,0,0,1,4.79-5,19.26,19.26,0,0,1,6.2-2.87,17.64,17.64,0,0,1,3.42-.51,14.39,14.39,0,0,1,3.6.34l.14.38c-1.93.82-3.85,1.67-5.71,2.64a46.31,46.31,0,0,0-5.34,3.28,40.05,40.05,0,0,0-4.83,4,30.57,30.57,0,0,0-2.12,2.29,19.28,19.28,0,0,0-1.86,2.5Z"/><path class="cls-2" d="M129.83,348a12.39,12.39,0,0,1,2.59-6.28,19.68,19.68,0,0,1,4.79-4.63,21.22,21.22,0,0,1,9.2-3.56,16.09,16.09,0,0,1,3.4,0l.1.28c-1.92.79-3.82,1.62-5.67,2.56a47.69,47.69,0,0,0-5.32,3.19,39.36,39.36,0,0,0-4.84,3.88c-.74.72-1.46,1.46-2.13,2.25a19.15,19.15,0,0,0-1.85,2.47Z"/><path class="cls-2" d="M156.84,329.11a5.32,5.32,0,0,1,1.87-2.24,8.1,8.1,0,0,1,2.47-1.17,9.83,9.83,0,0,1,5.08,0,10.52,10.52,0,0,1,4.31,2.29,12,12,0,0,1,1.63,1.9,10.17,10.17,0,0,1,1.11,2.52l-.21.35c-1.27-.65-2.54-1.27-3.83-1.85a26.21,26.21,0,0,0-4-1.34,17.63,17.63,0,0,0-4.13-.67,13.25,13.25,0,0,0-2.09.1,7.45,7.45,0,0,0-2,.46Z"/><path class="cls-1" d="M123.43,315.52s-2.13,1.89,1.5,9.33c2.39,4.92-5.1,7.55-5.1,7.55l-19.29,11.15a2.72,2.72,0,0,1-3.69-1c-1.21-2-3.9-4-9.75-1.23,0,0,0-7.88-8.64-4.05,0,0,4.56-5.8-4.2-4.39l9.82-5.58a24.67,24.67,0,0,1,2.57-1.29c5.15-2.23,10.8-3.41,16.27-4.57l5.81-1.24-.87-8S119,306.17,123.43,315.52Z"/><path class="cls-2" d="M86.93,341.25a11.74,11.74,0,0,1,2.76-6.62A18.13,18.13,0,0,1,95,330.19a19.15,19.15,0,0,1,6.44-2.2,18.12,18.12,0,0,1,3.46-.15,14.59,14.59,0,0,1,3.54.73l.1.38c-2,.62-4,1.26-6,2a45.64,45.64,0,0,0-5.64,2.71,37.54,37.54,0,0,0-5.21,3.44,27.06,27.06,0,0,0-2.35,2.06,18.94,18.94,0,0,0-2.1,2.29Z"/><path class="cls-2" d="M79,336.24a12.54,12.54,0,0,1,3.21-6,20.37,20.37,0,0,1,5.25-4.09,22,22,0,0,1,6.21-2.22,24.14,24.14,0,0,1,3.29-.34,16.92,16.92,0,0,1,3.38.34l.08.3c-2,.58-4,1.2-5.9,1.95a44.75,44.75,0,0,0-5.62,2.61,37.7,37.7,0,0,0-5.2,3.34,28.39,28.39,0,0,0-2.35,2,18.6,18.6,0,0,0-2.1,2.25Z"/><path class="cls-2" d="M107.75,320.33a5.28,5.28,0,0,1,2.09-2,7.79,7.79,0,0,1,2.58-.9,9.77,9.77,0,0,1,5.06.55,10.66,10.66,0,0,1,4,2.72,11.65,11.65,0,0,1,1.42,2.07,9.15,9.15,0,0,1,.84,2.62l-.24.32c-1.19-.77-2.39-1.53-3.62-2.24a26.51,26.51,0,0,0-3.84-1.75,17.89,17.89,0,0,0-4-1.11,14.57,14.57,0,0,0-2.09-.12,7.73,7.73,0,0,0-2,.24Z"/><path class="cls-3" d="M94.85,187.07s-27.18,4-42,35.26S67.32,268,65.55,245c0,0,9.53,8.28,10.24-5.39S77.55,222,90.61,217.29,94.85,187.07,94.85,187.07Z"/><path class="cls-4" d="M118.85,122.31s-31.77,5.39-30,49.29,7.41,26.26-9.89,69.08,1.77,76.63,43.77,84.91,58.94-31.66,58.94-31.66l3.53-101.46S184.49,111.51,118.85,122.31Z"/><ellipse class="cls-5" cx="131.32" cy="156.4" rx="11.02" ry="9.87" transform="translate(-31.2 280.07) rotate(-87.25)"/><path class="cls-6" d="M121.49,156.06a11.66,11.66,0,0,0,2.5,7.58,8.79,8.79,0,0,0,13.77.17,11.21,11.21,0,0,0,2.75-7.1,11.09,11.09,0,0,0-2.22-7.27,8.94,8.94,0,0,0-6.59-3.69,9.11,9.11,0,0,0-7.17,2.94A11.75,11.75,0,0,0,121.49,156.06Zm-.07,0a11.82,11.82,0,0,1,3-7.49,9.22,9.22,0,0,1,14.4.47,12,12,0,0,1-.56,15.21,9.2,9.2,0,0,1-14.39-.5A11.76,11.76,0,0,1,121.42,156.06Z"/><ellipse class="cls-7" cx="129.05" cy="154.55" rx="6.52" ry="6.02" transform="translate(-38.19 266.66) rotate(-83.98)"/><ellipse class="cls-8" cx="132.8" cy="151.96" rx="1.17" ry="1.8" transform="translate(-30.98 34.05) rotate(-13.1)"/><ellipse class="cls-5" cx="100.79" cy="154.2" rx="9.55" ry="7.4" transform="translate(-54.44 253.39) rotate(-89.41)"/><path class="cls-6" d="M93.43,153.88a11.44,11.44,0,0,0,1.73,6.31,6.72,6.72,0,0,0,5.31,3.19,6.31,6.31,0,0,0,5.18-3,10.62,10.62,0,0,0,1.86-5.92,10.83,10.83,0,0,0-1.48-6.05,6.6,6.6,0,0,0-4.92-3.44,6.47,6.47,0,0,0-5.56,2.7A11.16,11.16,0,0,0,93.43,153.88Zm-.08,0a11.28,11.28,0,0,1,2.06-6.27,6.83,6.83,0,0,1,5.72-3,7.07,7.07,0,0,1,5.45,3.51,11.54,11.54,0,0,1,1.68,6.41,11.36,11.36,0,0,1-2.08,6.28,6.84,6.84,0,0,1-5.73,3A7.06,7.06,0,0,1,95,160.28,11.51,11.51,0,0,1,93.35,153.88Z"/><ellipse class="cls-7" cx="99.22" cy="152.65" rx="4.79" ry="5.79"/><ellipse class="cls-8" cx="97.3" cy="149.97" rx="1.52" ry="1.83"/><path class="cls-9" d="M110,185.2c3.75.26,22.83-9.55,22.74-12.28l-5.15.14a.14.14,0,0,0,0-.11c0-.09-.29,0-.73.15l-.33.09a5.8,5.8,0,0,1-2.54.22c-2.66-.5-6.8-5.88-12.31-9.87a1.63,1.63,0,0,0-.43-.23.84.84,0,0,0-.33-.13,1.19,1.19,0,0,0-.37-.06.66.66,0,0,0-.28,0c-.11,0-.2,0-.31,0a1.21,1.21,0,0,0-.32.11l0,0a1.25,1.25,0,0,0-.31.15,2.62,2.62,0,0,0-.34.21c-2.86,1.94-5.54,8.54-7.52,8.23,0,0,0,0,0,0a1.1,1.1,0,0,0-.25,0c-.47,0-1.41,0-1.59.64a4.68,4.68,0,0,0,0,.51.37.37,0,0,1,0,.14C99.52,175.72,107.88,185.06,110,185.2Z"/><path class="cls-10" d="M107,179.75c4.65.06,8.57-2.08,10.51-2.89,1.77-.74,9.38-3.76,9.38-3.76s-12.46,3.59-14.29,3.63c-3.27.07-6.47-2.83-6.47-2.83s-1.89,1.85-3.19,1.38a3.26,3.26,0,0,1-1.16-.48C102.37,176.13,103.92,179.71,107,179.75Z"/><path class="cls-9" d="M101,174.19a8.13,8.13,0,0,0,1.42.87c2,.88,3.71-1.16,3.71-1.16a11.61,11.61,0,0,0,6.47,2.83c1.49.17,7-1.22,9.17-1.78,3-.82,5.85-1.87,5.85-1.87v0c-.06-.07-.31,0-.72,0l-.33.09c-.66.18,2-.06,1.06-.24-2.66-.49-10.4-5.42-15.91-9.41a1.63,1.63,0,0,0-.43-.23.84.84,0,0,0-.33-.13,1.19,1.19,0,0,0-.37-.06.66.66,0,0,0-.28,0c-.11,0-.2,0-.31,0a1.21,1.21,0,0,0-.32.11l0,0a1.25,1.25,0,0,0-.31.15,2.62,2.62,0,0,0-.34.21c-2.86,1.94-5.94,7.05-7.92,6.74h0c-.08,0-2.87.17-2.94.18-.47,0,0-.48-.18.18A40.85,40.85,0,0,0,101,174.19Z"/><path class="cls-3" d="M99.43,138.32a8,8,0,0,1,3.89,1.08c4,2.6,8.92,8.95,4.94,25.72l8.47,2.88s-4.59-25.19,16.59-30.94S170.73,163.32,161.9,186,169,204.34,169,204.34s26.12,27.34-16.94,54.33c0,0-12.7,7.19-.7,37.77S119.2,324.51,112.85,322c0,0,12.7,9,42.7,4,0,0,4.59,10.79,23.65,2.87S206.73,309.4,214.49,290s-1.41-47.49-12-73.4-5.64-48.57-15.17-66.2-22.83-35.5-56.71-31.66c0,0-26.94,2.7-34.53,20.51"/><path class="cls-11" d="M194.37,180.23s-1.76,13.31,9.18,37.42-6,49.65-26.82,45-6.36-19.42-6.36-19.42-8.11.71-6-6.12S177.08,231,177.08,231s3.88-6.47-1.41-15.47"/><path class="cls-3" d="M138.61,121.4s6.65-22-1.06-23.24-.84,23.73-.84,23.73Z"/><path class="cls-3" d="M136,119.22S130.92,105.93,128,110s7.55,10.47,7.55,10.47Z"/><path class="cls-3" d="M140.37,121.89c-.5,0,.58-14.87,12.71-14.39C160.44,107.78,140.37,121.89,140.37,121.89Z"/></svg>