<svg id="Layer_1" data-name="Layer 1" xmlns="http://www.w3.org/2000/svg" viewBox="0 0 266.57 380.24"><defs><style>.cls-1,.cls-3{fill:#35374c;}.cls-2{fill:#eee1b7;stroke:#3d3c21;}.cls-2,.cls-3,.cls-4,.cls-7{stroke-miterlimit:10;}.cls-3{stroke:#53566b;}.cls-4,.cls-5{fill:#faa02c;}.cls-4,.cls-7{stroke:#af6617;}.cls-6{fill:#af6617;}.cls-7{fill:#f4ba7a;}.cls-8{fill:#fff;}.cls-9{fill:#1b1b26;}.cls-10{fill:#191928;}.cls-11{fill:#f9f5f2;}.cls-12{fill:#8e1b2f;}</style></defs><path class="cls-1" d="M95.12,98.19S70.41,82.3,58.59,77.54l-3-1.76s9.7-8.12,2.12-13.06c0,0-4.94-.89-7.94,8.29a26.74,26.74,0,0,0-17,1.77s-9.53,2.29-8.11,9.7S39,91.83,39,91.83s36.71,18,44.82,37.77,13.06-10.06,13.06-10.06Z"/><path class="cls-2" d="M130.77,37S95.94,35.3,92.18,63.07s4.7,36.94-4.24,53.65-20.47,56.94-6.35,80,33.65,24.47,44.7,18.82c0,0,23.53-6.12,29.42-44.24S176.41,60,130.77,37Z"/><path class="cls-3" d="M152.88,104.48s26.59-16.94,54.36-29.18l1.64-1.64s3.06-10.59,14.36-10.12c0,0,8.23,5.41-4.47,10.59,0,0,15.76,9.17,20.47,17.65S227,102.13,211.47,95.3c0,0-41.88,31.06-47.29,35.77"/><path class="cls-4" d="M91.46,217.43S73,209.2,64.14,198.7c0,0,7.26,9.56-1.21,8.78,0,0,6.61,8.47-.23,7.42,0,0,6.64,7.27-.66,6.3s.61.86.61.86,19.45,15.7,33.5,12.73c0,0,8-2,.73-11.8S91.46,217.43,91.46,217.43Z"/><path class="cls-5" d="M62.93,207.48s13.33,8.82,22.95,12.28"/><path class="cls-6" d="M63.21,207.06c3.58,2.43,7.26,4.74,11,6.91a89.08,89.08,0,0,0,11.66,5.79A90,90,0,0,1,74,214.41q-5.78-3.06-11.32-6.52Z"/><path class="cls-5" d="M63.74,215.45s11.44,7.45,21.06,9.48"/><path class="cls-6" d="M64,215a96,96,0,0,0,10,5.78,52.86,52.86,0,0,0,10.8,4.12,53.13,53.13,0,0,1-11-3.67,96.55,96.55,0,0,1-10.33-5.39Z"/><path class="cls-1" d="M94.53,208.25s.47,11.29-3.76,16c0,0-3.06,5.64,7.52,6.35,0,0,11.3-7.06,21.89-9.65C120.18,221,95.47,215.78,94.53,208.25Z"/><path class="cls-1" d="M168.65,111.78s4-34.36-7.3-57.18-44.23-26.12-60.94-8.24l-3.29,5.18S103.94,44,107.94,57c0,0,1.65,11.53-3.53,18.35L111,78.13s-2.59-8.94,3.53-23.3c0,0,6.82-10.58,21.41-1.88s13.88,37.41,9.65,46.12-1.18,34.82-9.88,49.41-4.71,36.71-2.59,47.3S126.06,228,92.65,209.89c0,0,20.94,16.47,42.35,9.41l2.12.48s4.7,9.41,10.35,12a18.81,18.81,0,0,1,7.3,5.64c3,4,11-13.17,11-13.17s0-6.12-3-9.42c0,0,20.7-14.82,20.47-40.7s-13.18-55.77-13.18-55.77Z"/><path class="cls-7" d="M193.35,226.36s-29.64,22.12-35.29,20-5.18-7.53-2.35-14.35,19.53-27.76,19.53-27.76-3.77,9.17,4.47,8c0,0-2.36,6.82,4.47,6.58C184.18,218.83,178.77,228,193.35,226.36Z"/><ellipse class="cls-8" cx="122.47" cy="65.77" rx="10.23" ry="8.35" transform="translate(53.56 186.5) rotate(-88.52)"/><path class="cls-9" d="M114.16,65.46a11.7,11.7,0,0,0,2,6.85,7.53,7.53,0,0,0,6,3.32A7.34,7.34,0,0,0,128,72.5a11.81,11.81,0,0,0,.45-13,7,7,0,0,0-11.77-.73A11.56,11.56,0,0,0,114.16,65.46Zm-.07,0a11.63,11.63,0,0,1,2.4-6.8,7.82,7.82,0,0,1,6.34-3.16,7.91,7.91,0,0,1,6.1,3.63,12,12,0,0,1-.47,13.78,7.83,7.83,0,0,1-6.36,3.15A7.92,7.92,0,0,1,116,72.41,11.81,11.81,0,0,1,114.09,65.45Z"/><ellipse class="cls-10" cx="120.55" cy="64.05" rx="6.05" ry="5.1" transform="translate(50.78 181.38) rotate(-87.24)"/><ellipse class="cls-11" cx="123.72" cy="61.65" rx="1" ry="1.66" transform="translate(-9.25 23.88) rotate(-10.63)"/><ellipse class="cls-8" cx="99.86" cy="63.56" rx="9.44" ry="6.32" transform="translate(35.65 163.01) rotate(-89.63)"/><path class="cls-9" d="M93.58,63.25a12.87,12.87,0,0,0,1.36,6c1,1.8,2.66,3.33,4.61,3.39a4.24,4.24,0,0,0,2.65-.89,7.17,7.17,0,0,0,1.85-2.2,12,12,0,0,0,1.45-5.68,12.39,12.39,0,0,0-1.12-5.77c-.81-1.75-2.27-3.36-4.21-3.59s-3.83,1.13-4.89,2.86A12.38,12.38,0,0,0,93.58,63.25Zm-.07,0a12.57,12.57,0,0,1,1.61-6,7.33,7.33,0,0,1,2.1-2.3,4.65,4.65,0,0,1,3-.87,5.06,5.06,0,0,1,2.86,1.23A8,8,0,0,1,105,57.8a13,13,0,0,1,1.3,6.08,12.58,12.58,0,0,1-1.64,6,7.29,7.29,0,0,1-2.11,2.31,4.66,4.66,0,0,1-3,.86,5,5,0,0,1-2.84-1.23,8,8,0,0,1-1.9-2.49A13,13,0,0,1,93.51,63.25Z"/><ellipse class="cls-10" cx="98.52" cy="62.04" rx="4.09" ry="5.72"/><ellipse class="cls-11" cx="96.88" cy="59.39" rx="1.3" ry="1.81"/><path class="cls-4" d="M122.21,81.78s-7.77,15-15.36,14.91c0,0-4.32-1.59-6.17-12.18s11.47-3.26,11.47-3.26A9.85,9.85,0,0,0,122.21,81.78Z"/><path class="cls-4" d="M104.11,94.13c.71,1.25,2.14.66,3.79-.75,3.74-3.17,8.57-10.55,8.57-10.55a49.67,49.67,0,0,0-3.92-3.06c-4.47-3.15-11.27-6.81-12-.47C99.53,88.83,101.82,90.07,104.11,94.13Z"/><path class="cls-12" d="M103.41,79.13S104,90,107.9,93.38c3.74-3.17,8.57-10.55,8.57-10.55a49.67,49.67,0,0,0-3.92-3.06Z"/><path class="cls-4" d="M121.42,82.62c-3.3.94-12.24,2.34-25.07-4.55,0,0,5.65.71,11.12-5.65,0,0,6,9.41,13.89,9.75A.23.23,0,0,1,121.42,82.62Z"/><path class="cls-1" d="M126,38.57s3.16-2-5.6-10,11.27-7.28,8.28,9.74Z"/><path class="cls-1" d="M128.63,40s-1.95-9.73,9.73-8.27-6.57,7.3-6.57,7.3L128.14,41"/><path class="cls-1" d="M126,39.79S124,30.3,116,32s4.38,5.11,8.52,8.52,2,.49,2,.49"/></svg>