<svg id="Layer_1" data-name="Layer 1" xmlns="http://www.w3.org/2000/svg" viewBox="0 0 90 150"><defs><style>.cls-1{opacity:0.2;}.cls-2{fill:#161616;}.cls-3{fill:#ff9f2c;stroke:#b5650d;}.cls-10,.cls-3,.cls-6,.cls-9{stroke-miterlimit:10;}.cls-4{fill:#b5650d;}.cls-5{fill:#35374c;}.cls-6{fill:#35467a;stroke:#1d2c54;}.cls-7{fill:#233559;}.cls-8{fill:#2b3245;}.cls-13,.cls-9{fill:#eee1b7;}.cls-9{stroke:#3d3c21;stroke-width:2px;}.cls-10{fill:#faa02c;stroke:#af6617;}.cls-11{fill:#c7323e;}.cls-12{fill:#ad886f;}.cls-14{fill:#3d3c21;}</style></defs><g class="cls-1"><ellipse class="cls-2" cx="42.42" cy="138.5" rx="35" ry="9"/></g><path class="cls-3" d="M22,126.69s1.19,4.42-1,7.92c-1.47,2.32,2.62,4.07,2.62,4.07l9.19,6.56a1.4,1.4,0,0,0,1.92-.28c.72-.92,2.18-1.77,5-.1,0,0,.43-3.91,4.59-1.55,0,0-2-3.12,2.35-2l-4.68-3.3a12.19,12.19,0,0,0-1.24-.77,43.69,43.69,0,0,0-8-3.13l-2.88-.92-.3-4.82S24.67,122.28,22,126.69Z"/><path class="cls-4" d="M39.48,145a21.06,21.06,0,0,1-3.85-.52,7.34,7.34,0,0,1-2.5-1.12,8,8,0,0,1-2-2,11.1,11.1,0,0,1-.89-1.52,12.21,12.21,0,0,1-.83-2.11l.13-.38,1.54.5c.5.21,1,.4,1.49.64A20.83,20.83,0,0,1,35.41,140a17.12,17.12,0,0,1,2.48,2.1,10.78,10.78,0,0,1,1.94,2.64Z"/><path class="cls-4" d="M43.84,142.86a21.48,21.48,0,0,1-3.37-.93,12,12,0,0,1-4.67-3.19,11.13,11.13,0,0,1-1-1.3,10,10,0,0,1-1-1.72l.1-.28,1.51.51c.49.22,1,.41,1.46.64a24.55,24.55,0,0,1,2.79,1.56,20.14,20.14,0,0,1,2.48,2,10.57,10.57,0,0,1,2,2.53Z"/><path class="cls-4" d="M30.15,133.59a26,26,0,0,0-2,2.34,2.52,2.52,0,0,1-1.32.92A3.4,3.4,0,0,1,25,136.7a7.87,7.87,0,0,1-1.28-.51,12.36,12.36,0,0,1-1.71-1l-.2-.34.92-.62,1-.52a12.3,12.3,0,0,1,2.1-.77,9,9,0,0,1,2.25-.28,5,5,0,0,1,2.23.53Z"/><path class="cls-3" d="M47.3,126.53s1.08.94-.76,4.66c-1.22,2.46,2.59,3.77,2.59,3.77L59,140.53a1.41,1.41,0,0,0,1.88-.47c.61-1,2-2,5-.62,0,0,0-3.94,4.4-2,0,0-2.32-2.9,2.14-2.2l-5-2.78a13.29,13.29,0,0,0-1.31-.65,44.53,44.53,0,0,0-8.28-2.28l-3-.62.44-4S49.55,121.86,47.3,126.53Z"/><path class="cls-4" d="M65.64,139.55a21.31,21.31,0,0,1-3.88-.12,7.71,7.71,0,0,1-2.61-.85A8.36,8.36,0,0,1,57,136.77a11.64,11.64,0,0,1-1-1.42,12,12,0,0,1-1-2L55,133l1.58.34c.52.16,1,.29,1.55.47a21.91,21.91,0,0,1,3,1.31,17.53,17.53,0,0,1,2.69,1.84,10.81,10.81,0,0,1,2.2,2.42Z"/><path class="cls-4" d="M69.76,137a20.57,20.57,0,0,1-3.45-.57,12,12,0,0,1-5-2.69,11.79,11.79,0,0,1-1.15-1.18A10,10,0,0,1,59,131l.07-.29,1.56.35c.5.16,1,.3,1.52.49a25.17,25.17,0,0,1,2.94,1.25,20.59,20.59,0,0,1,2.67,1.77A10.64,10.64,0,0,1,70,136.84Z"/><path class="cls-4" d="M55.18,129.21a25.29,25.29,0,0,0-1.75,2.54,2.52,2.52,0,0,1-1.21,1.05,3.33,3.33,0,0,1-1.8,0,7.58,7.58,0,0,1-1.33-.37,13.17,13.17,0,0,1-1.79-.78l-.24-.32.85-.71.92-.62a13.39,13.39,0,0,1,2-1,9.22,9.22,0,0,1,2.21-.51,5,5,0,0,1,2.27.3Z"/><path class="cls-5" d="M41,13.57s-4.22-10.32.4-11,.74,11.33.74,11.33Z"/><path class="cls-5" d="M43.74,10.05s2.79-5.5,4.53-3.1S44,10.78,44,10.78Z"/><path class="cls-5" d="M40.73,10.16s-2.66-3.84-7.08-3.82S40.73,10.16,40.73,10.16Z"/><path class="cls-6" d="M67.23,83.42S84,103.14,63,120.87C63,120.87,49.44,102.94,67.23,83.42Z"/><path class="cls-7" d="M55.09,125.27c0-.73-1-2.84-.66-4.78C61.08,107.87,66.72,91,48,75.68c-12.37-10.12-17.91-7.74-21.07,22,3.66,23.94,18.36,27.18,19,29l.43.86c.57.65-.22,2.4.63,2.56,1.93.36,6.84-.72,7.81-2.41A21.76,21.76,0,0,0,55.09,125.27Z"/><path class="cls-8" d="M58.49,45.63c.36,1,2.87,18.27,23.95,20,0,0,10.54-.91,3.28,7.23S61.53,82,52.21,70,58.49,45.63,58.49,45.63Z"/><path class="cls-5" d="M57,40.52c1.1-.78,9.35-7.72,2.7-21S28.93,7.05,20.87,16s-7,20.9-9.61,32.65S2.1,81,1.76,96s5.53,26.34,19.69,31.39,37.49,4.09,45.79-12.53S65,66.51,61.36,56.56,55.31,41.74,57,40.52Z"/><path class="cls-9" d="M63.09,119.7c-20.35,15.92-40-3.11-41.87-21.77C19.7,82.62,23.54,66.15,25,50.24c.32-3.49.51-7,.51-10.36,0,0-1.26-17.85,9.33-21.42,8-2.69,13.6,1.89,14.11,9.46.17,2.5.59,5.85-.46,8.84,0,0,2.76,2.89,7.12-1.56a13.41,13.41,0,0,1-2.07-4.52A10.74,10.74,0,0,1,54.34,23c2.89-5.6,9.67,1,7.29,9v0a13.08,13.08,0,0,1-1.45,3.2S64,36.77,61.3,43.1c-3.39,8.12,3.46,21.77,5.76,32.14S74,111.14,63.09,119.7Z"/><path class="cls-10" d="M53.53,43.7c-1.91.12-9-4.7-9-6.06h0a.09.09,0,0,1,0-.05s.15,0,.38.07l.16,0a3,3,0,0,0,1.3.11c1.35-.25,3.46-2.93,6.26-4.92a1,1,0,0,1,.22-.12.39.39,0,0,1,.17-.06l.19,0a.32.32,0,0,1,.14,0,.41.41,0,0,1,.16,0l.16.05h0l.16.08a.75.75,0,0,1,.17.1c1.46,1,2.82,4.27,3.83,4.12H58c.24,0,.72,0,.81.33a2,2,0,0,1,0,.25.32.32,0,0,0,0,.07C58.86,39,54.6,43.63,53.53,43.7Z"/><path class="cls-11" d="M55.06,41a13.06,13.06,0,0,1-5.35-1.44c-.9-.37-4.77-1.88-4.77-1.88s6.34,1.79,7.27,1.81a5.73,5.73,0,0,0,3.3-1.41s1,.92,1.62.69a1.67,1.67,0,0,0,.59-.24C57.41,39.16,56.62,41,55.06,41Z"/><path class="cls-10" d="M58.12,38.19a3.67,3.67,0,0,1-.72.44,1.77,1.77,0,0,1-1.89-.58,6,6,0,0,1-3.3,1.41,24.2,24.2,0,0,1-4.66-.89c-1.55-.4-3-.93-3-.93h0s.16,0,.37,0l.16,0a3,3,0,0,0,1.3.11c1.35-.25,3.46-2.93,6.26-4.92a1,1,0,0,1,.22-.12.39.39,0,0,1,.17-.06l.19,0a.32.32,0,0,1,.14,0,.41.41,0,0,1,.16,0l.16.05h0l.16.08a.75.75,0,0,1,.17.1c1.46,1,2.82,4.27,3.83,4.12H58c.24,0,.72,0,.81.33A4,4,0,0,1,58.12,38.19Z"/><path class="cls-5" d="M25.45,42.41c-.12.92.07,16,9.82,21.32,19.92,10.87,20.45,22.61,15,24.75C43.91,91,11.94,74.72,9.86,57.1"/><path class="cls-12" d="M44.54,36.83a1.57,1.57,0,0,0-.69.06.41.41,0,0,0-.23.19.63.63,0,0,0,0,.31,2.41,2.41,0,0,0,.19.67l.3.67a3.2,3.2,0,0,1-.43-.61,1.88,1.88,0,0,1-.25-.71.74.74,0,0,1,.06-.41.56.56,0,0,1,.34-.25,1,1,0,0,1,.38,0A1.36,1.36,0,0,1,44.54,36.83Z"/><path class="cls-12" d="M58.92,36.52a1.58,1.58,0,0,1,.31-.09.79.79,0,0,1,.34,0l.16.1a.39.39,0,0,1,.1.16.72.72,0,0,1,0,.35,1.87,1.87,0,0,1-.21.63,2.75,2.75,0,0,1-.36.53l.24-.59a3,3,0,0,0,.16-.59.41.41,0,0,0-.18-.46.82.82,0,0,0-.28-.07A1.71,1.71,0,0,0,58.92,36.52Z"/><path class="cls-5" d="M1.73,100.9c3.67,23.94,16.59,28,19.84,30.43h0a3.92,3.92,0,0,0,2.26,1.28c1.93.35,4.74.09,6-1.27,0,0,1.75-2.67,1.73-3.26s-2.68-2.48-2.31-4.43C35.88,111,40.2,94.3,21.48,79"/><path class="cls-5" d="M34.3,66.2c.52-1.27,13.27-1,13.5,2.57s-6.48-.6-3.93,6.08S30.25,76.2,34.3,66.2Z"/><path class="cls-8" d="M70.32,61.75c-.91.59,1.42,6.87,4.23,6.07S73,64.74,78.67,64.28,77.47,57.14,70.32,61.75Z"/><path class="cls-13" d="M32.2,20S27,22.19,25.49,29.2c-1.84,8.38-2.65,19.61,15.92,21.5"/><path class="cls-14" d="M32.24,20A13.23,13.23,0,0,0,28.74,24a15.63,15.63,0,0,0-1.1,2.3A16.24,16.24,0,0,0,27,28.71a32,32,0,0,0-.39,10.18,11.18,11.18,0,0,0,5.09,7.62,39.36,39.36,0,0,0,9.75,4.09l0,.2a27.66,27.66,0,0,1-10.53-2.88,12.84,12.84,0,0,1-4.15-3.61,12,12,0,0,1-2.09-5.09,27.61,27.61,0,0,1,.94-10.89,13.37,13.37,0,0,1,6.59-8.47Z"/><path class="cls-13" d="M61.8,41.08a10.88,10.88,0,0,1-8.17,8.17"/><path class="cls-14" d="M61.8,41.08a7.11,7.11,0,0,1-.74,3,9.09,9.09,0,0,1-4.43,4.36,8.55,8.55,0,0,1-3,.79c.91-.49,1.81-.92,2.63-1.47A13.83,13.83,0,0,0,58.53,46a12.89,12.89,0,0,0,1.85-2.24A16.23,16.23,0,0,0,61.8,41.08Z"/></svg>