<svg id="Layer_1" data-name="Layer 1" xmlns="http://www.w3.org/2000/svg" viewBox="0 0 320 100"><defs><style>.cls-1{fill:#ef4720;stroke:#d33718;}.cls-1,.cls-2{stroke-miterlimit:10;}.cls-2{fill:#ce3a1d;stroke:#ef4720;}.cls-3{fill:#ff7100;}</style></defs><path class="cls-1" d="M37.87,43.46c23.66-7.42,30.28-12,52-14.28,12.47-2.08,21-12.5,8.62-15.83,4.15-4.81,18.94-12,32-4.68,6.39,4.55,3.43,6.31,6.86,11s10.63,2.69,20.4-4.47S178.79.58,198.32,8.67c-6.8,2.05-14.6,8-12.55,13.16S196,27.13,208.43,20s31.66-14.18,52.76-5.7,37.64,22,52.8,3c0,0-.19,18.39-19.63,22.4s-26.65-5.07-35.95,10.73c7.75.28,14.42,9.23,11.56,19.4-5.83-2.31-12.64-8.51-29-2.32s-29.34,16.6-46.7,4.66c3.25,11.44-5.19,22.7-5.19,22.7S178.28,81.23,167.12,81.2s-27.24,7.76-42-.8-19.75-18-28.71-17.32c5.15,8.63,4.53,16-.5,21C92.74,74.94,85.53,66.2,74.41,60.46s-28-4.37-40.91-3S6,44.4,6,44.4,14.22,50.87,37.87,43.46Z"/><path class="cls-2" d="M13.16,46.72c16.52,8,36.55,3,55.81,5.27,8.11.41,17.38,7.42,22.38,13.62.39-1.55-2.7-7-3.85-8.93,5.94-.76,13.54,2.91,17.2,4.66,34.21,23.86,44.45,13.82,65.41,13,6.85-.28,14.27,4.41,16.3,8.64,2.23-3.13,4.74-11.76,2.9-17.13,19.7,10.75,36.14-1.21,55.47-5.75,5.45-1.28,11.78-.4,17.69-.17-2.88-4.83-7.12-7.55-13.11-6.6,1.75-3.67,9.25-10.76,11.88-12.87,18.25-14.66,36.07,5.7,52.62-23a1.83,1.83,0,0,1,.13-.16s-.19,18.39-19.63,22.4-26.65-5.07-35.95,10.73c7.75.28,14.42,9.23,11.56,19.4-5.83-2.31-12.64-8.51-29-2.32s-29.34,16.6-46.7,4.66c3.25,11.44-5.19,22.7-5.19,22.7S178.28,81.23,167.12,81.2s-27.24,7.76-42-.8-19.75-18-28.71-17.32c5.15,8.63,4.53,16-.5,21C92.74,74.94,85.53,66.2,74.41,60.46s-28-4.37-40.91-3S6,44.4,6,44.4,8.09,46,13.16,46.72Z"/><path class="cls-3" d="M113.75,24.46c3.89,12.4,17.69,22,51.14-1.75-4.46,7.21,2.64,13.25,18.68,14.89s49.78-17.53,75.3-10c0,0-26.79,4.41-26.42,18.54.2,2.69,10.74-.79,17.31,7.89-10.11.08-10.77-1.63-21.11,4.53s-19.59,5.33-32.7,2.14a225.93,225.93,0,0,0-24.4-4.52s9,8.64,5.44,17.94c-2.18-4.83-10.47-11.1-18.62-10.09s-24.22,6.38-44.6-10.19c2,5.11.74,11.82.74,11.82S74.32,46.24,54.3,47.31C73.2,42,110,35.8,113.75,24.46Z"/></svg>