<svg id="Layer_1" data-name="Layer 1" xmlns="http://www.w3.org/2000/svg" viewBox="0 0 580 200"><defs><style>.cls-1{fill:#ff7f29;stroke:#e53d1c;}.cls-1,.cls-3,.cls-5{stroke-miterlimit:10;}.cls-2{opacity:0.35;}.cls-3{fill:#ce3a1d;}.cls-3,.cls-5{stroke:#ef4720;}.cls-4{fill:#ff7100;}.cls-5{fill:#ff8c2e;}</style></defs><path class="cls-1" d="M64.07,98.17c43.77-13.72,56-22.25,96.19-26.41,23.06-3.85,38.79-23.12,15.94-29.29,7.68-8.9,35.05-22.12,59.15-8.66,11.82,8.42,6.35,11.68,12.7,20.26s19.66,5,37.74-8.27,39-26.94,75.1-12c-12.58,3.79-27,14.87-23.21,24.35s18.83,9.8,41.92-3.34,58.56-26.24,97.6-10.55S546.83,85,574.87,49.75c0,0-.34,34-36.32,41.43s-49.29-9.37-66.5,19.85c14.33.53,26.67,17.09,21.4,35.9-10.8-4.29-23.4-15.74-53.68-4.29s-54.27,30.69-86.39,8.61c6,21.16-9.6,42-9.6,42s-20-25.2-40.62-25.26-50.39,14.37-77.76-1.47-36.53-33.27-53.11-32.05c9.52,16,8.38,29.64-.94,38.9-5.78-17-19.12-33.12-39.68-43.75S79.86,121.54,56,124,5.13,99.91,5.13,99.91,20.31,111.89,64.07,98.17Z"/><g class="cls-2"><path class="cls-3" d="M18.35,104.21C48.91,119.08,86,109.82,121.61,114c15,.76,32.13,13.74,41.39,25.2.72-2.86-5-13-7.12-16.53,11-1.39,25,5.39,31.82,8.63,63.29,44.15,82.24,25.56,121,24,12.66-.52,26.38,8.16,30.14,16,4.13-5.8,8.77-21.76,5.36-31.7,36.45,19.9,66.87-2.23,102.62-10.63,10.09-2.37,21.81-.74,32.74-.31-5.33-9-13.18-14-24.26-12.22,3.24-6.78,17.11-19.9,22-23.82C511.05,65.44,544,103.1,574.63,50l.24-.29s-.34,34-36.32,41.43-49.29-9.37-66.5,19.85c14.33.53,26.67,17.09,21.4,35.9-10.8-4.29-23.4-15.74-53.68-4.29s-54.27,30.69-86.39,8.61c6,21.16-9.6,42-9.6,42s-20-25.2-40.62-25.26-50.39,14.37-77.76-1.47-36.53-33.27-53.11-32.05c9.52,16,8.38,29.64-.94,38.9-5.78-17-19.12-33.12-39.68-43.75S79.86,121.54,56,124,5.13,99.91,5.13,99.91,9,102.94,18.35,104.21Z"/></g><path class="cls-4" d="M204.45,63C211.63,86,237.16,103.79,299,59.78c-8.25,13.34,4.89,24.51,34.56,27.56s92.1-32.43,139.3-18.46c0,0-49.55,8.16-48.87,34.31.37,5,19.86-1.47,32,14.6-18.71.14-19.94-3-39.06,8.38s-36.23,9.87-60.49,4a420.84,420.84,0,0,0-45.15-8.36s16.65,16,10.07,33.2c-4-8.94-19.37-20.53-34.45-18.67s-44.8,11.8-82.5-18.85c3.69,9.46,1.37,21.86,1.37,21.86s-74.35-36-111.39-34C129.42,95.49,197.52,84,204.45,63Z"/><path class="cls-5" d="M280.92,6.75s12.92,25.34-13.17,43.35c-9.88,6.82-20.93-2.47-12.4-10.74,3.07-3,10.55-5.92,16.59-9.62C271.94,29.74,282.6,23.2,280.92,6.75Z"/><path class="cls-5" d="M185.17,145.42s19.16,7.78,14.06,29.67c-1.92,8.29-12.29,8.36-11.79-.09.19-3,2.73-8.11,4.13-12.92C191.57,162.08,194.05,153.58,185.17,145.42Z"/><path class="cls-5" d="M556.57,103.47c-28.44,14.56-43.22-20.09-74.29,4.39C508.84,104.84,533.21,138.58,556.57,103.47Z"/><path class="cls-5" d="M392.42,27.21c-4.45,9.37-28.07,9.86-42.84,22.13-7.4,6.14-1.48,14.57,3.84,9.65C361.55,51.49,391.26,48,392.42,27.21Z"/><path class="cls-5" d="M401.15,187.33c-22.76-11.83-25.49,3.63-41.22-25.64C379.37,173.14,391.62,161.69,401.15,187.33Z"/></svg>