<svg id="Layer_1" data-name="Layer 1" xmlns="http://www.w3.org/2000/svg" viewBox="0 0 440 380"><defs><style>.cls-1{fill:#bb8f81;}</style></defs><path class="cls-1" d="M160.45,142.39,158.71,179l8.33.65,4.37,15.42,11.14,2.13,8.33-32.68L209,184.17l17.82-13.92S241.48,184.71,244,183.9s23.19-33.43,23.19-33.43q19.94,17.1,20.13,16.88a0,0,0,0,0,0,0q-3.67-12.78-7.37-25.55a88.1,88.1,0,0,1,16.21,20.14,53.64,53.64,0,0,1,5.32,20.9,2.8,2.8,0,0,1,0,.29,50.56,50.56,0,0,1-.41,8.84c-.43,2.92-13.64,30.12-48.12,41.52-49.11,16.25-102.27-12.49-111-33.8a47.58,47.58,0,0,1-3.41-18.21c.43-9.31,4-16.11,6.75-21.45a50.46,50.46,0,0,1,6.53-9.87A45.34,45.34,0,0,1,160.45,142.39Z"/></svg>