<svg id="Layer_1" data-name="Layer 1" xmlns="http://www.w3.org/2000/svg" xmlns:xlink="http://www.w3.org/1999/xlink" viewBox="0 0 230 480"><defs><style>.cls-1{stroke:#933e27;fill:url(#linear-gradient);}.cls-1,.cls-2{stroke-miterlimit:10;}.cls-2{fill:#ff8c2e;stroke:#ef4720;stroke-width:0.5px;}</style><linearGradient id="linear-gradient" x1="115" y1="84.86" x2="115" y2="466.34" gradientUnits="userSpaceOnUse"><stop offset="0" stop-color="#f60"/><stop offset="0.14" stop-color="#ff6b00"/><stop offset="0.31" stop-color="#ff7900"/><stop offset="0.48" stop-color="#ff9000"/><stop offset="0.67" stop-color="#ffb000"/><stop offset="0.85" stop-color="#ffd900"/><stop offset="1" stop-color="#ff0"/></linearGradient></defs><path class="cls-1" d="M118.39,84.86s2.68,29.32-24.72,69.9c0,0-27.24,32-4.28,82.05,4.13,17.64-30.82,9.35-22.42-32.58,0,0,12.28-40.42-18.69-44,0,0,20.29,11.47,0,47.06S36.83,268.86,60,295.94c4,4.7,5.83,9,6.14,12.55.67,7.42-9.65,10.15-12.95,3.47-3.72-7.54-13.38-21.55-32-16,0,0,17.3,15.16-2.82,53.63-6.26,12-9.76,29.75-10.24,38.12-1,18.22,6.73,44.91,41.66,64.33A101.7,101.7,0,0,0,82.4,463.38c30.27,5.1,103.68,10.66,129.28-48.6,0,0,19.68-47-3.76-95.12A89.13,89.13,0,0,1,201.35,302c-3.52-14.21-10.07-34.66,20.64-54.78,0,0-46.59-4.33-45.89,38.48.11,6.45-13.67,4.87-11.95-8.46,3.21-24.73,47.26-36.8,35.78-66.66-6.67-22.63-41.44-63.66-15.75-66.36,0,0-21.9.6-19.76,21.71s-12,24.82-27.14,24.82-23.91-20.05-15-34.77C139.75,126.86,138,101.8,118.39,84.86Z"/><path class="cls-2" d="M137.37,94s37,24.24,19.13,68.89c-6.78,16.9-28.29,12.93-24.39-4.89,1.4-6.42,8.37-16.22,12.9-25.91C145,132.12,153,115,137.37,94Z"/><path class="cls-2" d="M12.68,228.18c19.52,19.12-7.16,40.7,21.65,59.22C25.33,266.63,48.92,237.49,12.68,228.18Z"/><path class="cls-2" d="M142.05,13.66c11.52,24.78-21.07,35.55-.64,63.05C140.31,54.1,172.67,35.16,142.05,13.66Z"/><path class="cls-2" d="M165.49,145.68c9.85-33.92-38.67-47.42-2-90.56C153.45,98.89,203.14,112.94,165.49,145.68Z"/></svg>