<svg id="Layer_1" data-name="Layer 1" xmlns="http://www.w3.org/2000/svg" xmlns:xlink="http://www.w3.org/1999/xlink" viewBox="0 0 230 340"><defs><style>.cls-1{stroke:#933e27;fill:url(#linear-gradient);}.cls-1,.cls-2{stroke-miterlimit:10;}.cls-2{fill:#ff8c2e;stroke:#ef4720;stroke-width:0.5px;}</style><linearGradient id="linear-gradient" x1="115" y1="29.1" x2="115" y2="337.4" gradientUnits="userSpaceOnUse"><stop offset="0" stop-color="#f60"/><stop offset="0.14" stop-color="#ff6b00"/><stop offset="0.31" stop-color="#ff7900"/><stop offset="0.48" stop-color="#ff9000"/><stop offset="0.67" stop-color="#ffb000"/><stop offset="0.85" stop-color="#ffd900"/><stop offset="1" stop-color="#ff0"/></linearGradient></defs><path class="cls-1" d="M106.82,29.1c0,70.26-48.66,49.3-37.84,116,2.21,13.63-16.16,20.67-23.34,8.87-14-23.08,17.28-62.49-16.35-83.87,19.56,49.54-67.24,65.37,6.12,152.35A17.88,17.88,0,0,1,39.32,238c-3.23,13.87-20.16,12.43-20.58-11.15,0,0-31.34,102.83,87.25,110.12s111.06-78.12,111.06-78.12c-10.14-28.95-12.91-52.18,7.53-57.41-22.49-5.18-30,6.55-28.9,27.85a19.61,19.61,0,0,1-7.11,16.4c-7.1,5.67-12.76,3.16-15.21-2.57a14,14,0,0,1,2.44-14.45c55-64.37-59.74-111.12-2.51-141.58-69,9.92-9.93,53.4-33.31,63.53-4.54,2-16.28,7.5-20.46,4.85C79.58,130,122.77,99.76,106.82,29.1Z"/><path class="cls-2" d="M152.65,60.07s-50,11-43.57,69.2c2.42,22.06,28.23,27.06,29.4,5.26.42-7.86-4.45-22-6.56-34.9C131.92,99.63,128.18,76.78,152.65,60.07Z"/><path class="cls-2" d="M59.34,60.07c12.57,29.37-23,41.74-.71,74.41C57.44,107.78,92.76,85.78,59.34,60.07Z"/><path class="cls-2" d="M134,2.6C116.24,28.78,145.17,47.66,118,75.2,125,49.42,98.47,21.22,134,2.6Z"/><path class="cls-2" d="M199.16,148.22c-6.23,24.35,23.62,35.77-6.11,59.07C204.64,183.21,179.17,168.48,199.16,148.22Z"/></svg>