<svg id="Layer_1" data-name="Layer 1" xmlns="http://www.w3.org/2000/svg" xmlns:xlink="http://www.w3.org/1999/xlink" viewBox="0 0 150 200"><defs><style>.cls-1{stroke:#933e27;fill:url(#linear-gradient);}.cls-1,.cls-2{stroke-miterlimit:10;}.cls-2{fill:#ff8c2e;stroke:#ef4720;stroke-width:0.5px;}</style><linearGradient id="linear-gradient" x1="75" y1="14.31" x2="75" y2="192.21" gradientUnits="userSpaceOnUse"><stop offset="0" stop-color="#f60"/><stop offset="0.14" stop-color="#ff6b00"/><stop offset="0.31" stop-color="#ff7900"/><stop offset="0.48" stop-color="#ff9000"/><stop offset="0.67" stop-color="#ffb000"/><stop offset="0.85" stop-color="#ffd900"/><stop offset="1" stop-color="#ff0"/></linearGradient></defs><path class="cls-1" d="M68.79,11.05s46.59,31.77,29.29,103.06c0,0,22.59,2.82,14.12-27.53S122.44,58,122.44,58s-10.59,3.89,0,21.53,15.88,49.77-5.65,64.24c0,0,11.29,2.82,23.29-18.71,0,0,17.53,62.71-64.23,63.88S9.49,120.11,9.49,120.11c2.42,11.67,8.25,17.28,19.42,13.41C.72,101,62.19,78.59,51.49,47.76c27.71,25.23-22,52.94,1.42,72C59.26,88.35,103.73,87.29,68.79,11.05Z"/><path class="cls-2" d="M56,40.26s22.76,0,21.28,30.68C76.76,82.57,65.26,88.1,64.21,77c-.38-4,1.47-11.83,2.12-18.73C66.33,58.27,67.46,46.07,56,40.26Z"/><path class="cls-2" d="M140.21,96c-5.24,8.11,4.84,19-4.47,29.34C139,111.42,128.59,104,140.21,96Z"/><path class="cls-2" d="M20.27,73.42c8.43,14.29-19.82,25.65-3,45.13C16,96.64,43.5,90.53,20.27,73.42Z"/></svg>