<svg id="Layer_1" data-name="Layer 1" xmlns="http://www.w3.org/2000/svg" viewBox="0 0 440 380"><defs><style>.cls-1,.cls-5{fill:#f6d4c4;stroke:#9d6c57;stroke-miterlimit:10;}.cls-1{stroke-width:2px;}.cls-2{opacity:0.26;}.cls-3{fill:#a4685f;}.cls-4{fill:#c8897c;opacity:0.41;}</style></defs><path class="cls-1" d="M310.62,258.32l-.09.18q-1.2,2.33-2.52,4.57a97.27,97.27,0,0,1-7.57,11.17c-.81,1-1.63,2.05-2.48,3.05a92.65,92.65,0,0,1-9.35,9.54c-.48.43-1,.85-1.47,1.27s-1,.83-1.49,1.23-1,.81-1.52,1.2-1.07.82-1.61,1.22L281,292.82c-1.09.77-2.19,1.51-3.32,2.23-1.52.95-3.06,1.87-4.63,2.74l-.05,0-.15.09c-.56.31-1.13.61-1.7.9s-1.13.58-1.71.86l-.16.08-1.18.56-.39.18-1.75.78c-.61.27-1.22.52-1.83.77l-.28.11c-1.08.42-2.16.82-3.26,1.21-.49.18-1,.34-1.48.51l-1.13.35-.32.1-1.17.35c-1.09.32-2.19.61-3.3.88a80.1,80.1,0,0,1-16,2.22A81.62,81.62,0,0,1,193,296.48a90.34,90.34,0,0,1-10.22-6.92h0C164.07,275,150.26,252.81,145,226.87q-.36-1.73-.66-3.48v0a116.54,116.54,0,0,1-1.56-14.62,122.34,122.34,0,0,1,7.63-48.43q.81-2.15,1.71-4.23a94.67,94.67,0,0,1,5.78-11.27c-1.27,11.33-2.24,35.2,5.54,47.34.7-.81,1.23-1.17,1.62-1.17,2.91,0,6,6,11.08,12.06l21.76,3.11,11.38-21.85,18.46,19.05,5.85-11.77,22.76,9.25L280.68,167l13.21,12.16,5.37,3.29,3.13,1.91,1,.64,3.16,1.94.14-2.08,2.11-32.42c.28.51.56,1,.82,1.53q2.29,4.32,4.22,8.89a.07.07,0,0,1,0,.05q1.77,4.19,3.19,8.56s0,0,0,0a109.71,109.71,0,0,1,3,10.82s0,0,0,0c.07.32.14.65.2,1,.12.55.23,1.1.34,1.65a116.51,116.51,0,0,1,2.05,17.3A111.44,111.44,0,0,1,310.62,258.32Z"/><g class="cls-2"><path class="cls-3" d="M291,265.4c0,4.91-3.16,9.88-8.4,9.88S276,271,276,266.06s1.3-10.2,6.54-10.2S291,260.49,291,265.4Z"/><path class="cls-3" d="M307.9,205.57c0,4.61-3,9.27-7.89,9.27s-7.88-4-7.88-8.65,3-9.58,7.88-9.58S307.9,201,307.9,205.57Z"/><path class="cls-3" d="M278.72,247.58c0,3.54-2.29,5.7-6.07,5.7s-6.07-1.68-6.07-5.23,1.83-5.47,5.62-5.47S278.72,244,278.72,247.58Z"/><path class="cls-3" d="M283.59,216.86c0,3.55-2.29,5.71-6.07,5.71s-6.07-1.68-6.07-5.23,1.83-5.47,5.62-5.47S283.59,213.32,283.59,216.86Z"/><path class="cls-3" d="M255.86,258.47c0,3.55-2.28,5.71-6.07,5.71s-6.07-1.69-6.07-5.23,1.84-5.47,5.62-5.47S255.86,254.93,255.86,258.47Z"/><path class="cls-3" d="M297.4,237.69c0,4.2-2.7,8.46-7.2,8.46s-5.6-3.69-5.6-7.9,1.11-8.74,5.6-8.74S297.4,233.48,297.4,237.69Z"/><path class="cls-3" d="M273.84,269.77c0,3.54-2.28,5.7-6.06,5.7s-6.07-1.68-6.07-5.23,1.83-5.47,5.62-5.47S273.84,266.22,273.84,269.77Z"/><path class="cls-3" d="M241.48,221.65c0,2.29-1.48,3.69-3.94,3.69s-3.93-1.09-3.93-3.39,1.19-3.54,3.64-3.54S241.48,219.35,241.48,221.65Z"/><path class="cls-3" d="M190.79,215c0,2.3-1.48,3.7-3.94,3.7s-3.93-1.1-3.93-3.39,1.19-3.55,3.64-3.55S190.79,212.71,190.79,215Z"/><path class="cls-3" d="M216.45,256.57a2.72,2.72,0,0,1-3,2.85c-1.89,0-3-.84-3-2.61a2.47,2.47,0,0,1,2.81-2.74C215.08,254.07,216.45,254.8,216.45,256.57Z"/><path class="cls-3" d="M240.24,244.33c0,2.3-1.48,3.7-3.93,3.7s-3.94-1.09-3.94-3.39,1.19-3.54,3.64-3.54S240.24,242,240.24,244.33Z"/></g><path class="cls-4" d="M310.62,258.32l-.09.18q-.72,1.53-1.5,3c-8.61,16.65-21.1,29.51-35.95,36.26l-.05,0a58.56,58.56,0,0,1-8.39,3.08c.09-.1.18-.19.26-.29a125.56,125.56,0,0,0,17.86-25.33,148.46,148.46,0,0,0,7-14.93h0a173.83,173.83,0,0,0,5.81-16.94h0c.63-2.23,1.23-4.47,1.77-6.69v0a201.41,201.41,0,0,0,4.14-22c.81-6.05,1.33-11.9,1.63-17.43.23-4.32.33-8.44.32-12.31l3.16,1.94.14-2.08.88.54,2.05-31.43,10.59,29.38c.79,6.24,1.32,12.69,1.51,19.19C322.37,223,318.24,242.27,310.62,258.32Z"/><path class="cls-1" d="M309.41,149.68q-.23-1.16-.48-2.31a0,0,0,0,1,0,0,97.5,97.5,0,0,0-5.39-17,.07.07,0,0,0,0-.05,97.54,97.54,0,0,0-4.42-9.14l-2,30.27-.76-.46-5.67-3.48L286,144.56l-11.6-10.67-21.33,29.74-20-8.12L228,165.84l-16.2-16.72-10,19.17-19.09-2.73c-4.44-5.35-7.17-10.58-9.73-10.58-.34,0-.8.32-1.42,1-6.82-10.65-6-31.6-4.86-41.54a82,82,0,0,0-5.07,9.89c-.53,1.22-1,2.45-1.5,3.71,11.94-38,39.78-68.7,72.2-68.7,17.82,0,34.24,9.25,47.4,23.89l0,0C294.93,100.2,305.79,124.31,309.41,149.68Z"/><path class="cls-4" d="M309.41,149.68q-.23-1.16-.48-2.31a0,0,0,0,1,0,0,97.5,97.5,0,0,0-5.39-17,.07.07,0,0,0,0-.05,97.54,97.54,0,0,0-4.42-9.14l-2,30.27-.76-.46c0-.7-.06-1.4-.09-2.07-2-42.13-23.18-71.49-23.84-72.41a75.43,75.43,0,0,1,7.26,6.82l0,0C294.93,100.2,305.79,124.31,309.41,149.68Z"/><path class="cls-5" d="M153.34,284.15l-30.18,27,23.36,9.45S144.42,304.62,153.34,284.15Z"/><path class="cls-5" d="M130.91,166.69s-13.17-6.47-18.17-2.37c-5.32,5.68-16.52,20.66-17,24.45-.16-.63,17.34,1.42,21.29,5.52C117.19,194,126.18,173.31,130.91,166.69Z"/><path class="cls-5" d="M133.16,81.14,119.2,101a8.63,8.63,0,0,1,3,0c2.12.25,7.6,8.22,9.47,7.48s10-11,10.22-12,.75-2.87.75-2.87S137.52,82,133.16,81.14Z"/><path class="cls-5" d="M241.29,170.46s9.58,1.31,10.35,4.14c.53,1.92-7.13,12.18-7.89,12.18s-8.51-2.83-9-4.59S238.46,172.23,241.29,170.46Z"/><path class="cls-5" d="M341.94,124.12s2.95,20.31,2.19,23.81-.87,5.13-4,4.91-19-3.82-19.22-5.13S335.28,127.07,341.94,124.12Z"/></svg>