<svg id="Layer_1" data-name="Layer 1" xmlns="http://www.w3.org/2000/svg" xmlns:xlink="http://www.w3.org/1999/xlink" viewBox="0 0 230 480"><defs><style>.cls-1{stroke:#933e27;fill:url(#linear-gradient);}.cls-1,.cls-2{stroke-miterlimit:10;}.cls-2{fill:#ff8c2e;stroke:#ef4720;stroke-width:0.5px;}</style><linearGradient id="linear-gradient" x1="117.72" y1="48.11" x2="117.72" y2="471.9" gradientUnits="userSpaceOnUse"><stop offset="0" stop-color="#f60"/><stop offset="0.14" stop-color="#ff6b00"/><stop offset="0.31" stop-color="#ff7900"/><stop offset="0.48" stop-color="#ff9000"/><stop offset="0.67" stop-color="#ffb000"/><stop offset="0.85" stop-color="#ffd900"/><stop offset="1" stop-color="#ff0"/></linearGradient></defs><path class="cls-1" d="M124.75,48.11S147,92.75,98.7,160.32c0,0-27.51,32.1-10.92,80.45,3.88,10.94-7,26.16-18,13.06-10.2-12.21,5.21-44,5.21-44s10.9-40.42-16.58-44c0,0,18,11.46,0,47.06s-31.71,48.79-9.12,89.73c6.12,11.09,10.94,26.82,7.41,36.35,0,0,1-25.23-25.06-32.47,0,0,11.45,38.78-.09,61.59a58.8,58.8,0,0,0-6.27,23.41c-.92,18.22,3.46,46.74,34.45,66.16a83.67,83.67,0,0,0,29,11.36c26.86,5.1,92,10.66,114.69-48.6,0,0,17.46-47-3.34-95.12a97.82,97.82,0,0,1-5.82-17.67c-3.13-14.21-4.42-34.91,13.39-38,0,0-29.59-20.18-30.19,12.55-.12,6.45-4.59,14.47-9.53,12.7-14-3.35-2.47-19.76-2.47-19.76s37.72-29,27.54-58.88c-5.92-22.63-36.77-63.66-14-66.37,0,0-19.42.61-17.53,21.72s-9.76,35.51-20,32.94c-17-4.24-10-29.58.7-42.35C167.54,131.71,159.1,59.57,124.75,48.11Z"/><path class="cls-2" d="M35.86,248.44s-25.5,14.3-12.33,45.1c5,11.66,19.94,10.11,17-2-1.08-4.36-6.09-11.28-9.39-18C31.1,273.53,25.25,261.64,35.86,248.44Z"/><path class="cls-2" d="M90.33,123.3C97.22,147.91,67.7,154,82,182.22,83.81,160.93,114.14,147.19,90.33,123.3Z"/><path class="cls-2" d="M162.7,93.39c-1-32.7-38.91-42-22.85-85.29C143,50.11,181.91,59.81,162.7,93.39Z"/></svg>