<svg id="Layer_1" data-name="Layer 1" xmlns="http://www.w3.org/2000/svg" xmlns:xlink="http://www.w3.org/1999/xlink" viewBox="0 0 230 480"><defs><style>.cls-1{stroke:#933e27;fill:url(#linear-gradient);}.cls-1,.cls-2{stroke-miterlimit:10;}.cls-2{fill:#ff8c2e;stroke:#ef4720;stroke-width:0.5px;}</style><linearGradient id="linear-gradient" x1="115" y1="48.93" x2="115" y2="472.72" gradientUnits="userSpaceOnUse"><stop offset="0" stop-color="#f60"/><stop offset="0.14" stop-color="#ff6b00"/><stop offset="0.31" stop-color="#ff7900"/><stop offset="0.48" stop-color="#ff9000"/><stop offset="0.67" stop-color="#ffb000"/><stop offset="0.85" stop-color="#ffd900"/><stop offset="1" stop-color="#ff0"/></linearGradient></defs><path class="cls-1" d="M126.69,48.93s25.93,44.64-30.35,112.21c-46.42,48.69-19.06,90.08-33.66,93.51-18.06,4.24-16-16.89-16-16.89s12.69-40.42-19.31-44c0,0,21,11.46,0,47.05S19,304.14,43.92,330.53c10,10.6,11.29,30-6.62,36.17,7.67-10.05,1-50.64-26.58-49.61,2.78-.55,17.4,18.13,0,46.62-8.33,13.65-7.51,29.53-6.1,35.06C9.14,416.45,14.88,439,51,458.4A107.49,107.49,0,0,0,84.7,469.76c31.28,5.1,107.14,10.66,133.59-48.6,0,0,20.34-47-3.89-95.12a87.56,87.56,0,0,1-6.78-17.67c-3.65-14.21-5.15-34.91,15.59-38-25.41-20.63-32,2.78-40.47-7.81C169.5,246,218,246.81,206.15,216.94c-6.9-22.62-42.83-63.65-16.28-66.36,0,0-22.62.61-20.42,21.72s-15.91,37.22-25.65,29.06c-10.94-9.18-1.36-24.64,8.12-39.18C166.26,140.16,166.69,60.39,126.69,48.93Z"/><path class="cls-2" d="M84.8,58.08s39.84,12.22,28,61c-4.48,18.45-26.26,21.14-24.76,2.68.54-6.65,6.14-18.26,9.34-29C97.38,92.67,103,73.62,84.8,58.08Z"/><path class="cls-2" d="M194.09,113c-33.36,6.42,2,37.05-41.15,55.87C174,142.56,152.31,104,194.09,113Z"/><path class="cls-2" d="M123.44,90.57c-3.47-32.52-42-38.88-29.3-83.29C100.49,48.93,140,55.63,123.44,90.57Z"/><path class="cls-2" d="M72.28,176.9c16.15-26-33.35-43.66,13-73.31C67.22,137.48,117.88,155.77,72.28,176.9Z"/></svg>