<svg id="Layer_1" data-name="Layer 1" xmlns="http://www.w3.org/2000/svg" viewBox="0 0 440 380"><defs><style>.cls-1,.cls-5,.cls-6,.cls-7,.cls-8{fill:#f6d4c4;}.cls-1,.cls-5,.cls-6,.cls-7{stroke:#9d6c57;stroke-miterlimit:10;}.cls-1{stroke-width:2px;}.cls-2{opacity:0.26;}.cls-3{fill:#a4685f;}.cls-4{fill:#c8897c;opacity:0.41;}.cls-5{stroke-width:0.75px;}.cls-6{stroke-width:0.5px;}.cls-9{fill:#9d6c57;}</style></defs><path class="cls-1" d="M307.6,277.82l-.09.18q-1.2,2.33-2.52,4.57a97.27,97.27,0,0,1-7.57,11.17c-.81,1-1.63,2.05-2.48,3.05a92.65,92.65,0,0,1-9.35,9.54c-.48.43-1,.85-1.47,1.27s-1,.83-1.49,1.23-1,.81-1.52,1.2-1.07.82-1.61,1.22L278,312.32c-1.09.77-2.19,1.51-3.32,2.23-1.52.95-3.06,1.87-4.63,2.74l-.05,0-.15.09c-.56.31-1.13.61-1.7.9s-1.13.58-1.71.86l-.16.08-1.18.56-.39.18-1.75.78c-.61.27-1.22.52-1.83.77l-.28.11c-1.08.42-2.16.82-3.26,1.21-.49.18-1,.34-1.48.51l-1.13.35-.32.1-1.17.35c-1.09.32-2.19.61-3.3.88a80.1,80.1,0,0,1-16,2.22A81.62,81.62,0,0,1,189.94,316a90.34,90.34,0,0,1-10.22-6.92h0c-18.66-14.53-32.47-36.74-37.71-62.68q-.36-1.73-.66-3.48v0a116.54,116.54,0,0,1-1.56-14.62,122.34,122.34,0,0,1,7.63-48.43q.81-2.15,1.71-4.23a94.67,94.67,0,0,1,5.78-11.27c-1.27,11.33-2.24,35.2,5.54,47.34.7-.81,1.23-1.17,1.62-1.17,2.91,0,6,6,11.08,12.06l21.76,3.11,11.38-21.85,18.46,19.05,5.85-11.77,22.76,9.25,24.31-33.89,13.21,12.16,5.37,3.29,3.13,1.91,1,.64,3.16,1.94.14-2.08,2.11-32.42c.28.51.56,1,.82,1.53q2.3,4.32,4.22,8.89a.07.07,0,0,1,0,.05q1.77,4.19,3.19,8.56s0,0,0,0A109.71,109.71,0,0,1,317,201.78s0,0,0,0c.07.32.14.65.2,1,.12.55.23,1.1.34,1.65a116.51,116.51,0,0,1,2.05,17.3A111.44,111.44,0,0,1,307.6,277.82Z"/><g class="cls-2"><path class="cls-3" d="M288,284.9c0,4.9-3.16,9.87-8.4,9.87s-6.54-4.31-6.54-9.22,1.3-10.2,6.54-10.2S288,280,288,284.9Z"/><path class="cls-3" d="M304.88,225.07c0,4.61-3,9.27-7.89,9.27s-7.88-4.05-7.88-8.65,3-9.58,7.88-9.58S304.88,220.46,304.88,225.07Z"/><path class="cls-3" d="M275.7,267.07c0,3.55-2.29,5.71-6.07,5.71s-6.07-1.69-6.07-5.23,1.83-5.47,5.62-5.47S275.7,263.52,275.7,267.07Z"/><path class="cls-3" d="M280.57,236.36c0,3.54-2.29,5.7-6.07,5.7s-6.07-1.68-6.07-5.23,1.83-5.46,5.62-5.46S280.57,232.81,280.57,236.36Z"/><path class="cls-3" d="M252.84,278c0,3.54-2.28,5.7-6.07,5.7s-6.07-1.68-6.07-5.23,1.84-5.47,5.62-5.47S252.84,274.42,252.84,278Z"/><path class="cls-3" d="M294.38,257.18c0,4.21-2.7,8.46-7.2,8.46s-5.6-3.69-5.6-7.9,1.11-8.74,5.6-8.74S294.38,253,294.38,257.18Z"/><path class="cls-3" d="M270.83,289.26c0,3.55-2.29,5.71-6.07,5.71s-6.07-1.69-6.07-5.23,1.83-5.47,5.62-5.47S270.83,285.72,270.83,289.26Z"/><path class="cls-3" d="M238.46,241.14c0,2.3-1.48,3.7-3.94,3.7s-3.93-1.09-3.93-3.39,1.19-3.55,3.64-3.55S238.46,238.84,238.46,241.14Z"/><path class="cls-3" d="M187.77,234.5c0,2.3-1.48,3.7-3.94,3.7s-3.93-1.09-3.93-3.39,1.19-3.54,3.64-3.54S187.77,232.2,187.77,234.5Z"/><path class="cls-3" d="M213.43,276.07a2.72,2.72,0,0,1-3,2.85c-1.89,0-3-.84-3-2.62s.92-2.73,2.81-2.73S213.43,274.29,213.43,276.07Z"/><path class="cls-3" d="M237.22,263.83c0,2.29-1.48,3.7-3.93,3.7s-3.94-1.1-3.94-3.4,1.19-3.54,3.64-3.54S237.22,261.53,237.22,263.83Z"/></g><path class="cls-4" d="M307.6,277.82l-.09.18q-.72,1.53-1.5,3c-8.61,16.65-21.1,29.51-35.95,36.26l-.05,0a58.56,58.56,0,0,1-8.39,3.08c.09-.1.18-.19.26-.29a125.56,125.56,0,0,0,17.86-25.33,148.46,148.46,0,0,0,7-14.93h0a173.83,173.83,0,0,0,5.81-16.94h0c.63-2.23,1.23-4.47,1.77-6.69v0a201.41,201.41,0,0,0,4.14-22c.81-6.05,1.33-11.9,1.63-17.43.23-4.32.33-8.44.32-12.31l3.16,1.94.14-2.08.88.54,2.05-31.43,10.59,29.38c.79,6.24,1.32,12.69,1.51,19.19C319.35,242.52,315.22,261.77,307.6,277.82Z"/><path class="cls-5" d="M137,172.13a8.85,8.85,0,0,0-1.75-1.07,9,9,0,0,0-3.88-.82l-.36,6.94a14,14,0,0,1,7.58,0Z"/><path class="cls-6" d="M125.31,151.46a26.43,26.43,0,0,1,.34,3.77c-.12.55-.13.81-.63.78a11.56,11.56,0,0,1-3-.82C121.94,155,124.26,151.93,125.31,151.46Z"/><path class="cls-7" d="M94.92,255s15.63,8.14,15.76,9.7c.65-.26,18.25-21.1,18.51-31.71.26,2.07-13.72,7.76-13.72,7.76l.78-12.29S96.51,248.79,94.92,255Z"/><path class="cls-5" d="M107.9,164.87s3.66,1.91,3.69,2.27c.15-.06,4.27-4.93,4.33-7.42.06.49-3.21,1.82-3.21,1.82l.18-2.88S108.27,163.42,107.9,164.87Z"/><path class="cls-7" d="M140.13,300s-10.94,15.22-15.28,17.32c-4.08,3-6.85,9.36-6.85,9.36s25.42,6.84,26.21,6.45,2.11-5.93,5.53-7.64C149.08,325.57,139.73,302.38,140.13,300Z"/><path class="cls-7" d="M322.67,295.68a22.51,22.51,0,0,1,21.91,2.23c2.35,2.1-4.09,9.15-8.42,10.14-1.85,1-.62,3.22,4.58,4.83.62,1.61-2.1,6.19-2.1,6.19s-25.49,2-27,2S320.89,296.38,322.67,295.68Z"/><path class="cls-7" d="M221,328.83s3.67-6.68,7.92-9.67c4-6,6.33-9.09,7.25-10.12s7.59-1.61,7.59-1.61.81,3.68-.46,5.4c0,.46,15.08,2.89,15.19,4,0-.07-2.76,4.08-2.76,4.08s-10,2.87-11.51,6.09-4,18.41-4.48,19.45S221,328.83,221,328.83Z"/><path class="cls-1" d="M302.41,113a138.72,138.72,0,0,1-2,15.34l-20.16-9.85L255.9,152.34l-22.76-9.25-5.85,11.77-18.46-19.05-11.38,21.85-21.76-3.11c-5.06-6.1-8.17-12.06-11.08-12.06-.39,0-.92.36-1.62,1.17-7.78-12.14-6.81-36-5.54-47.34a94.67,94.67,0,0,0-5.78,11.27q-.9,2.09-1.71,4.23C158.37,85,173.7,61.45,192.91,47.34c.23-.17.46-.34.7-.5,11.69-8.41,24.79-13.31,38.63-13.31,20.31,0,39,10.54,54,27.23,0,0,0,0,0,0q2.7,3,5.23,6.26A128.27,128.27,0,0,1,301.93,82.7,144,144,0,0,1,302.41,113Z"/><path class="cls-4" d="M302.41,113a170.86,170.86,0,0,0-16.66-47.11A116.11,116.11,0,0,0,278,53a83.25,83.25,0,0,1,8.28,7.77s0,0,0,0q2.7,3,5.23,6.26A128.27,128.27,0,0,1,301.93,82.7,144,144,0,0,1,302.41,113Z"/><line class="cls-8" x1="183.5" y1="55.3" x2="196.56" y2="87.98"/><polygon class="cls-9" points="183.96 55.11 198 87.4 195.12 88.55 183.03 55.48 183.96 55.11"/><line class="cls-8" x1="251.06" y1="68.39" x2="266.37" y2="101.07"/><polygon class="cls-9" points="251.51 68.18 267.77 100.41 264.96 101.72 250.61 68.6 251.51 68.18"/><line class="cls-8" x1="240.14" y1="38.04" x2="238.48" y2="74.08"/><polygon class="cls-9" points="240.64 38.06 240.03 74.16 236.93 74.01 239.65 38.02 240.64 38.06"/><line class="cls-8" x1="178.92" y1="118.61" x2="196.56" y2="87.14"/><polygon class="cls-9" points="178.48 118.37 195.21 86.38 197.91 87.89 179.35 118.86 178.48 118.37"/><line class="cls-8" x1="195.41" y1="88.18" x2="251.82" y2="69.76"/><polygon class="cls-9" points="195.25 87.71 251.34 68.29 252.3 71.24 195.56 88.66 195.25 87.71"/></svg>