<svg id="Layer_1" data-name="Layer 1" xmlns="http://www.w3.org/2000/svg" viewBox="0 0 390 330"><defs><style>.cls-1{fill:#262727;}.cls-2{fill:#141414;}.cls-3{fill:#4f4f4f;}.cls-4{fill:#0f0f0f;}.cls-5{fill:#380b06;}.cls-6{fill:#1d1d1d;}.cls-7{fill:#010101;}.cls-8{fill:#626262;}.cls-9{fill:#232424;}.cls-10{fill:#030303;}.cls-11{fill:#4c4c4c;}.cls-12{fill:#5f5f5f;}.cls-13{fill:#8e1616;}.cls-14{fill:#a00d0d;}.cls-15{fill:#ffa300;}.cls-16{fill:#1c1c1c;}.cls-17{fill:#212121;}.cls-18{fill:#2a2a2a;}.cls-19{fill:#ff7900;}.cls-20{fill:#c10a0a;}.cls-21{fill:#222323;}.cls-22{fill:#1a1a1a;}.cls-23{fill:#0e0f0f;}.cls-24{fill:#d36409;}.cls-25{fill:#1b1b1b;}.cls-26{fill:#242525;}.cls-27{fill:#111212;}.cls-28{fill:#686868;}.cls-29{fill:#676767;}.cls-30{fill:#262626;}.cls-31{fill:#5b0c06;}.cls-32{fill:#0f1010;}.cls-33{fill:#181a19;}.cls-34{fill:#252626;}.cls-35{fill:#bc1515;}.cls-36{fill:#333434;}.cls-37{fill:#a50e0e;}.cls-38{fill:#040404;}.cls-39{fill:#020202;}.cls-40{fill:#300505;}.cls-41{fill:#2b0806;}.cls-42{fill:#202121;}.cls-43{fill:#282929;}.cls-44{fill:#545453;}.cls-45{fill:#807f7f;}.cls-46{fill:#7a7978;}.cls-47{fill:#212122;}.cls-48{fill:#470a07;}.cls-49{fill:#343534;}.cls-50{fill:#464646;}.cls-51{fill:#2b2b2b;}.cls-52{fill:#181818;}.cls-53{fill:#131313;}.cls-54{fill:#949494;}.cls-55{fill:#0b0b0b;}.cls-56{fill:#4c0d0a;}.cls-57{fill:#511507;}.cls-58{fill:#191919;}.cls-59{fill:#333232;}.cls-60{fill:#242424;}.cls-61{fill:#303131;}.cls-62{fill:#0b0c0c;}.cls-63{fill:#505050;}.cls-64{fill:#504f4f;}.cls-65{fill:#3a3a39;}.cls-66{fill:#575756;}.cls-67{fill:#2d2e2e;}.cls-68{fill:#0d0e0e;}.cls-69{fill:#080808;}.cls-70{fill:#2c2c2c;}.cls-71{fill:#20201f;}.cls-72{fill:#212120;}.cls-73{fill:#0f0f10;}.cls-74{fill:#2d2d2d;}.cls-75{fill:#f40808;}.cls-76{fill:#161717;}.cls-77{fill:#393a39;}.cls-78{fill:#160303;}.cls-79{fill:#1f201f;}.cls-80{fill:#252525;}.cls-81{fill:#aa0202;}.cls-82{fill:#2a2b2b;}.cls-83{fill:#dd1010;}.cls-84{fill:#050505;}.cls-85{fill:#494a49;}.cls-86{fill:#191a1a;}.cls-87{fill:#444545;}.cls-88{fill:#343535;}.cls-89{fill:#111315;}.cls-90{fill:#0a0b0c;}.cls-91{fill:#8c0e0e;}.cls-92{fill:#f20303;}.cls-93{fill:#1e2022;}.cls-94{fill:#2c2d30;}.cls-95{fill:#333437;}.cls-96{fill:#1b1c1e;}.cls-97{fill:#101214;}.cls-98{fill:#661608;}.cls-99{fill:#57585b;}.cls-100{fill:#2c2d31;}.cls-101{fill:#222426;}.cls-102{fill:#36383b;}.cls-103{fill:#5d5d60;}.cls-104{fill:#d10707;}.cls-105{fill:#7c7d81;}.cls-106{fill:#3b3d40;}.cls-107{fill:#17191b;}.cls-108{fill:#54545a;}.cls-109{fill:#57595c;}.cls-110{fill:#606165;}.cls-111{fill:#313236;}.cls-112{fill:#5b1208;}.cls-113{fill:#252629;}.cls-114{fill:#292b2e;}.cls-115{fill:#8e0c0c;}.cls-116{fill:#292c2f;}.cls-117{fill:#141619;}.cls-118{fill:#202124;}.cls-119{fill:#18191b;}.cls-120{fill:#1a1b1d;}.cls-121{fill:#ffb600;}.cls-122{fill:#040505;}.cls-123{fill:#d11111;}.cls-124{fill:#ce0d0d;}.cls-125{fill:#131415;}.cls-126{fill:#1a1b1e;}.cls-127{fill:#2a2c2f;}.cls-128{fill:#161719;}.cls-129{fill:#161618;}.cls-130{fill:#141516;}.cls-131{fill:#282a2c;}.cls-132{fill:#101113;}.cls-133{fill:#181a1b;}.cls-134{fill:#25272a;}.cls-135{fill:#212223;}.cls-136{fill:#191a1b;}.cls-137{fill:#070708;}.cls-138{fill:#131416;}.cls-139{fill:#2d2e31;}.cls-140{fill:#0a0b0d;}.cls-141{fill:#161819;}.cls-142{fill:#303135;}.cls-143{fill:#313437;}.cls-144{fill:#34373b;}.cls-145{fill:#2e3033;}.cls-146{fill:#252628;}.cls-147{fill:#45484c;}.cls-148{fill:#333639;}.cls-149{fill:#191a1c;}.cls-150{fill:#464a4e;}.cls-151{fill:#2f3133;}.cls-152{fill:#303336;}.cls-153{fill:#37393d;}.cls-154{fill:#3c4044;}.cls-155{fill:#2e2f32;}.cls-156{fill:#505155;}.cls-157{fill:#28292c;}.cls-158{fill:#212325;}.cls-159{fill:#540606;}.cls-160{fill:#1d1f21;}.cls-161{fill:#0b0c0d;}.cls-162{fill:#141618;}.cls-163{fill:#424345;}.cls-164{fill:#2c2d2f;}.cls-165{fill:#101112;}.cls-166{fill:#131516;}.cls-167{fill:#191b1d;}.cls-168{fill:#919191;opacity:0.29;}</style></defs><polygon class="cls-1" points="114.87 207.75 106.48 228.52 132.26 240.25 158.6 243.16 178.51 243.84 195.46 234.17 203.77 224.95 206.83 211.59 201.29 203.88 173.11 187.71 140.67 190.72 130.41 205.3 114.87 207.75"/><polyline class="cls-2" points="114.87 207.75 106.48 228.52 115.7 221.42 114.87 207.75"/><polyline class="cls-3" points="114.87 207.75 130.41 205.3 121.08 209.31 114.87 207.75"/><polyline class="cls-4" points="114.87 207.75 121.08 209.31 115.7 221.42 114.87 207.75"/><polyline class="cls-5" points="106.48 228.52 132.26 240.25 133.25 236.06 106.48 228.52"/><polyline class="cls-6" points="106.48 228.52 133.25 236.06 115.7 221.42 106.48 228.52"/><polyline class="cls-7" points="132.26 240.25 158.6 243.16 133.25 236.06 132.26 240.25"/><polyline class="cls-8" points="158.6 243.16 178.51 243.84 167.58 234.41 158.6 243.16"/><polyline class="cls-9" points="158.6 243.16 148.01 228.62 167.58 234.41 158.6 243.16"/><polyline class="cls-10" points="158.6 243.16 148.01 228.62 133.25 236.06 158.6 243.16"/><polyline class="cls-11" points="178.51 243.84 195.46 234.17 175.63 233.49 178.51 243.84"/><polyline class="cls-12" points="178.51 243.84 167.58 234.41 175.63 233.49 178.51 243.84"/><polyline class="cls-13" points="195.46 234.17 203.77 224.95 189.06 220.45 195.46 234.17"/><polyline class="cls-14" points="195.46 234.17 189.06 220.45 180.21 224.91 195.46 234.17"/><polyline class="cls-15" points="195.46 234.17 175.63 233.49 180.21 224.91 195.46 234.17"/><polyline class="cls-16" points="203.77 224.95 206.83 211.59 189.06 220.45 203.77 224.95"/><polyline class="cls-17" points="206.83 211.59 201.29 203.88 189.06 220.45 206.83 211.59"/><polyline class="cls-18" points="201.29 203.88 173.11 187.71 186.28 198.36 201.29 203.88"/><polyline class="cls-19" points="201.29 203.88 189.06 220.45 186.28 198.36 201.29 203.88"/><polyline class="cls-13" points="173.11 187.71 140.67 190.72 174.18 216.99 173.11 187.71"/><polyline class="cls-20" points="173.11 187.71 186.28 198.36 174.18 216.99 173.11 187.71"/><polyline class="cls-21" points="140.67 190.72 130.41 205.3 174.18 216.99 140.67 190.72"/><polyline class="cls-22" points="130.41 205.3 148.01 228.62 121.08 209.31 130.41 205.3"/><polyline class="cls-23" points="130.41 205.3 148.01 228.62 174.18 216.99 130.41 205.3"/><polyline class="cls-24" points="189.06 220.45 186.28 198.36 174.18 216.99 189.06 220.45"/><polyline class="cls-24" points="189.06 220.45 180.21 224.91 174.18 216.99 189.06 220.45"/><polyline class="cls-25" points="148.01 228.62 121.08 209.31 115.7 221.42 148.01 228.62"/><polyline class="cls-26" points="148.01 228.62 167.58 234.41 174.18 216.99 148.01 228.62"/><polyline class="cls-27" points="148.01 228.62 133.25 236.06 115.7 221.42 148.01 228.62"/><polyline class="cls-28" points="167.58 234.41 175.63 233.49 180.21 224.91 167.58 234.41"/><polyline class="cls-29" points="167.58 234.41 180.21 224.91 174.18 216.99 167.58 234.41"/><polyline class="cls-30" points="70.57 229.76 85.72 223.61 95.9 235.24 70.57 229.76"/><polyline class="cls-16" points="70.57 229.76 56.34 246.62 73.44 246.83 70.57 229.76"/><polyline class="cls-31" points="70.57 229.76 73.44 246.83 95.9 235.24 70.57 229.76"/><polyline class="cls-16" points="85.72 223.61 96.75 227.36 95.9 235.24 85.72 223.61"/><polyline class="cls-32" points="96.75 227.36 98.89 223.65 114.1 224.01 96.75 227.36"/><polyline class="cls-23" points="96.75 227.36 114.1 224.01 95.9 235.24 96.75 227.36"/><polyline class="cls-5" points="98.89 223.65 101.66 221.81 114.1 224.01 98.89 223.65"/><polyline class="cls-33" points="114.1 224.01 121.47 229.65 95.9 235.24 114.1 224.01"/><polyline class="cls-34" points="121.47 229.65 131.27 236.22 109.28 255.84 121.47 229.65"/><polyline class="cls-31" points="121.47 229.65 95.9 235.24 109.28 255.84 121.47 229.65"/><polyline class="cls-35" points="131.27 236.22 133.52 243.04 109.28 255.84 131.27 236.22"/><polyline class="cls-36" points="133.52 243.04 118.52 257.24 109.28 255.84 133.52 243.04"/><polyline class="cls-37" points="118.52 257.24 109.73 260.98 109.28 255.84 118.52 257.24"/><polyline class="cls-15" points="109.73 260.98 98.46 255.72 109.28 255.84 109.73 260.98"/><polyline class="cls-38" points="98.46 255.72 94.87 254.75 95.9 235.24 98.46 255.72"/><polyline points="98.46 255.72 95.9 235.24 109.28 255.84 98.46 255.72"/><polyline points="94.87 254.75 73.16 258.1 73.44 246.83 94.87 254.75"/><polyline class="cls-7" points="94.87 254.75 73.44 246.83 95.9 235.24 94.87 254.75"/><polyline class="cls-39" points="73.16 258.1 65.27 256.1 73.44 246.83 73.16 258.1"/><polyline class="cls-40" points="65.27 256.1 57.65 251.14 73.44 246.83 65.27 256.1"/><polyline class="cls-31" points="57.65 251.14 56.34 246.62 73.44 246.83 57.65 251.14"/><polyline class="cls-31" points="248.63 249.23 228.86 261.09 232.1 243.17 248.63 249.23"/><polyline class="cls-41" points="248.63 249.23 250.42 239.7 236 238.79 248.63 249.23"/><polyline class="cls-37" points="248.63 249.23 232.1 243.17 236 238.79 248.63 249.23"/><polyline class="cls-35" points="228.86 261.09 171.57 262.38 218.05 250.65 228.86 261.09"/><polyline class="cls-37" points="228.86 261.09 218.05 250.65 232.1 243.17 228.86 261.09"/><polyline class="cls-42" points="171.57 262.38 170.61 245.51 211.47 242.22 171.57 262.38"/><polyline class="cls-43" points="171.57 262.38 211.47 242.22 218.05 250.65 171.57 262.38"/><polyline class="cls-44" points="170.61 245.51 192.05 227.31 211.47 242.22 170.61 245.51"/><polyline class="cls-45" points="192.05 227.31 222.18 221.7 212.84 227.89 192.05 227.31"/><polyline class="cls-46" points="192.05 227.31 211.47 242.22 212.84 227.89 192.05 227.31"/><polyline class="cls-47" points="222.18 221.7 250.42 239.7 236 238.79 222.18 221.7"/><polyline class="cls-48" points="222.18 221.7 236 238.79 212.84 227.89 222.18 221.7"/><polyline class="cls-24" points="211.47 242.22 218.05 250.65 232.1 243.17 211.47 242.22"/><polyline class="cls-49" points="211.47 242.22 232.1 243.17 236 238.79 211.47 242.22"/><polyline class="cls-50" points="211.47 242.22 236 238.79 212.84 227.89 211.47 242.22"/><polyline class="cls-13" points="189.49 257 191.15 254.75 194.88 253.05 189.49 257"/><polyline class="cls-37" points="189.49 257 194.88 253.05 209.96 262.29 189.49 257"/><polyline class="cls-51" points="189.49 257 187.94 259.1 209.96 262.29 189.49 257"/><polyline class="cls-52" points="191.15 254.75 194.18 253.15 194.88 253.05 191.15 254.75"/><polyline points="191.15 254.75 194.18 253.15 197.82 250.9 191.15 254.75"/><polyline points="194.18 253.15 194.88 253.05 197.82 250.9 194.18 253.15"/><polyline class="cls-10" points="194.88 253.05 197.82 250.9 204.05 251.74 194.88 253.05"/><polyline class="cls-53" points="194.88 253.05 204.05 251.74 209.96 262.29 194.88 253.05"/><polyline class="cls-4" points="197.82 250.9 204.05 251.74 204.69 251.65 197.82 250.9"/><polyline class="cls-41" points="204.05 251.74 204.69 251.65 207.13 251.96 204.05 251.74"/><polyline class="cls-15" points="204.05 251.74 207.13 251.96 209.96 262.29 204.05 251.74"/><polyline class="cls-6" points="207.13 251.96 215.01 250.05 212.11 254.31 207.13 251.96"/><polyline class="cls-15" points="207.13 251.96 209.96 262.29 212.11 254.31 207.13 251.96"/><polyline class="cls-15" points="215.01 250.05 227.76 253.78 212.11 254.31 215.01 250.05"/><polyline class="cls-7" points="227.76 253.78 233.25 260.75 227.57 264.72 227.76 253.78"/><polyline class="cls-5" points="227.76 253.78 227.57 264.72 212.11 254.31 227.76 253.78"/><polyline class="cls-20" points="233.25 260.75 227.57 264.72 230.28 266.1 233.25 260.75"/><polyline class="cls-20" points="233.25 260.75 230.28 266.1 232.82 268.98 233.25 260.75"/><polyline class="cls-54" points="233.25 260.75 232.82 268.98 232.76 271.09 233.25 260.75"/><polyline class="cls-7" points="227.57 264.72 230.28 266.1 229.34 269.77 227.57 264.72"/><polyline class="cls-5" points="227.57 264.72 229.34 269.77 209.96 262.29 227.57 264.72"/><polyline class="cls-55" points="227.57 264.72 209.96 262.29 212.11 254.31 227.57 264.72"/><polyline class="cls-39" points="230.28 266.1 232.82 268.98 229.34 269.77 230.28 266.1"/><polyline class="cls-39" points="232.82 268.98 232.76 271.09 229.34 269.77 232.82 268.98"/><polyline points="232.76 271.09 228.88 275.1 229.34 269.77 232.76 271.09"/><polyline class="cls-31" points="228.88 275.1 212.03 277.26 229.34 269.77 228.88 275.1"/><polyline class="cls-39" points="212.03 277.26 211.57 277.26 209.96 262.29 212.03 277.26"/><polyline class="cls-5" points="212.03 277.26 229.34 269.77 209.96 262.29 212.03 277.26"/><polyline class="cls-7" points="211.57 277.26 206.63 277.01 209.96 262.29 211.57 277.26"/><polyline class="cls-19" points="206.63 277.01 197.82 274.55 209.96 262.29 206.63 277.01"/><polyline class="cls-37" points="197.82 274.55 183.26 265.44 187.94 259.1 197.82 274.55"/><polyline class="cls-36" points="197.82 274.55 187.94 259.1 209.96 262.29 197.82 274.55"/><polyline class="cls-56" points="135.16 277.08 112.79 265.52 144.99 250.6 135.16 277.08"/><polyline class="cls-19" points="135.16 277.08 168.87 276.3 156.64 256.65 135.16 277.08"/><polyline class="cls-13" points="135.16 277.08 144.99 250.6 156.64 256.65 135.16 277.08"/><polyline class="cls-26" points="112.79 265.52 132.19 228.66 137.51 236.58 112.79 265.52"/><polyline class="cls-37" points="112.79 265.52 137.51 236.58 140.23 245.98 112.79 265.52"/><polyline class="cls-57" points="112.79 265.52 144.99 250.6 140.23 245.98 112.79 265.52"/><polyline points="132.19 228.66 146.85 226.57 137.51 236.58 132.19 228.66"/><polyline class="cls-32" points="146.85 226.57 180.43 230.81 154.14 251.97 146.85 226.57"/><polyline class="cls-15" points="146.85 226.57 137.51 236.58 154.14 251.97 146.85 226.57"/><polyline class="cls-5" points="180.43 230.81 197.58 257.09 154.14 251.97 180.43 230.81"/><polyline class="cls-31" points="197.58 257.09 168.87 276.3 156.64 256.65 197.58 257.09"/><polyline class="cls-24" points="197.58 257.09 154.14 251.97 156.64 256.65 197.58 257.09"/><polyline class="cls-58" points="137.51 236.58 140.23 245.98 154.14 251.97 137.51 236.58"/><polyline class="cls-24" points="144.99 250.6 140.23 245.98 154.14 251.97 144.99 250.6"/><polyline class="cls-59" points="144.99 250.6 154.14 251.97 156.64 256.65 144.99 250.6"/><polyline class="cls-7" points="129.3 267.68 117.08 272.2 126.49 262.87 129.3 267.68"/><polyline class="cls-37" points="117.08 272.2 111.1 276.21 113.14 271.53 117.08 272.2"/><polyline class="cls-31" points="117.08 272.2 126.49 262.87 110.03 266.12 117.08 272.2"/><polyline class="cls-31" points="117.08 272.2 113.14 271.53 110.03 266.12 117.08 272.2"/><polyline class="cls-60" points="111.1 276.21 104.06 274.57 103.94 274.68 111.1 276.21"/><polyline class="cls-16" points="111.1 276.21 104.06 274.57 113.14 271.53 111.1 276.21"/><polyline class="cls-31" points="104.06 274.57 103.94 274.68 82.69 272.64 104.06 274.57"/><polyline class="cls-61" points="104.06 274.57 82.69 272.64 110.03 266.12 104.06 274.57"/><polyline class="cls-60" points="104.06 274.57 113.14 271.53 110.03 266.12 104.06 274.57"/><polyline class="cls-62" points="82.69 272.64 77.67 257.05 95.45 251.42 82.69 272.64"/><polyline class="cls-19" points="82.69 272.64 95.45 251.42 110.03 266.12 82.69 272.64"/><polyline class="cls-19" points="95.45 251.42 104.73 253.16 110.03 266.12 95.45 251.42"/><polyline class="cls-63" points="104.73 253.16 113.17 249.42 116.33 258.85 104.73 253.16"/><polyline class="cls-41" points="104.73 253.16 110.03 266.12 116.33 258.85 104.73 253.16"/><polyline class="cls-46" points="113.17 249.42 124.92 253.75 116.33 258.85 113.17 249.42"/><polyline class="cls-64" points="124.92 253.75 126.49 262.87 116.33 258.85 124.92 253.75"/><polyline class="cls-57" points="126.49 262.87 110.03 266.12 116.33 258.85 126.49 262.87"/><polyline class="cls-37" points="69.3 271.79 63.7 270.89 62.92 261.09 69.3 271.79"/><polyline class="cls-58" points="69.3 271.79 84.6 261.08 81.36 260.66 69.3 271.79"/><polyline class="cls-34" points="69.3 271.79 62.92 261.09 81.36 260.66 69.3 271.79"/><polyline class="cls-41" points="63.7 270.89 63.03 270.56 63.02 270.56 63.7 270.89"/><polyline class="cls-55" points="63.7 270.89 63.03 270.56 62.92 261.09 63.7 270.89"/><polyline class="cls-65" points="63.7 270.89 63.02 270.56 47.36 266.11 63.7 270.89"/><polyline class="cls-55" points="63.03 270.56 63.02 270.56 62.92 261.09 63.03 270.56"/><polyline class="cls-31" points="63.02 270.56 47.36 266.11 62.92 261.09 63.02 270.56"/><polyline class="cls-38" points="47.36 266.11 41.68 258.97 45.44 260.07 47.36 266.11"/><polyline class="cls-66" points="47.36 266.11 61.86 260.4 62.92 261.09 47.36 266.11"/><polyline class="cls-66" points="47.36 266.11 61.86 260.4 58.72 259.05 47.36 266.11"/><polyline class="cls-67" points="47.36 266.11 58.72 259.05 45.44 260.07 47.36 266.11"/><polyline class="cls-53" points="41.68 258.97 51.4 251.85 45.44 260.07 41.68 258.97"/><polyline class="cls-68" points="51.4 251.85 59.62 252.97 58.72 259.05 51.4 251.85"/><polyline class="cls-5" points="51.4 251.85 58.72 259.05 45.44 260.07 51.4 251.85"/><polyline class="cls-32" points="59.62 252.97 67.51 251.06 61.86 260.4 59.62 252.97"/><polyline class="cls-69" points="59.62 252.97 61.86 260.4 58.72 259.05 59.62 252.97"/><polyline class="cls-70" points="67.51 251.06 79.46 254.55 62.92 261.09 67.51 251.06"/><polyline class="cls-35" points="67.51 251.06 61.86 260.4 62.92 261.09 67.51 251.06"/><polyline class="cls-4" points="79.46 254.55 84.6 261.08 81.36 260.66 79.46 254.55"/><polyline class="cls-27" points="79.46 254.55 62.92 261.09 81.36 260.66 79.46 254.55"/><polyline class="cls-71" points="217.32 273.16 225.94 274.38 225.9 268.62 217.32 273.16"/><polyline class="cls-72" points="217.32 273.16 218.65 261.96 225.9 268.62 217.32 273.16"/><polyline class="cls-73" points="225.94 274.38 226.48 275.46 228.14 269.92 225.94 274.38"/><polyline class="cls-13" points="225.94 274.38 228.14 269.92 225.9 268.62 225.94 274.38"/><polyline class="cls-2" points="226.48 275.46 233.41 279.5 228.14 269.92 226.48 275.46"/><polyline class="cls-41" points="233.41 279.5 236.72 279.64 228.14 269.92 233.41 279.5"/><polyline class="cls-6" points="236.72 279.64 246.04 280.04 228.14 269.92 236.72 279.64"/><polyline class="cls-74" points="246.04 280.04 267.12 280.94 262.73 264.93 246.04 280.04"/><polyline class="cls-75" points="246.04 280.04 228.14 269.92 249.67 259.97 246.04 280.04"/><polyline class="cls-51" points="246.04 280.04 249.67 259.97 262.73 264.93 246.04 280.04"/><polyline class="cls-76" points="267.12 280.94 278.91 271.17 262.73 264.93 267.12 280.94"/><polyline class="cls-15" points="278.91 271.17 261.57 256.96 262.73 264.93 278.91 271.17"/><polyline class="cls-14" points="261.57 256.96 246.72 251.53 249.67 259.97 261.57 256.96"/><polyline class="cls-25" points="246.72 251.53 240.2 253.9 249.67 259.97 246.72 251.53"/><polyline class="cls-14" points="240.2 253.9 238.14 253.15 221.47 260.68 240.2 253.9"/><polyline class="cls-77" points="240.2 253.9 221.47 260.68 225.9 268.62 240.2 253.9"/><polyline class="cls-18" points="240.2 253.9 228.14 269.92 249.67 259.97 240.2 253.9"/><polyline class="cls-78" points="240.2 253.9 228.14 269.92 225.9 268.62 240.2 253.9"/><polyline class="cls-79" points="219.56 261.55 218.65 261.96 225.9 268.62 219.56 261.55"/><polyline points="176.77 262.15 181.94 265.44 176.29 265.76 176.77 262.15"/><polyline points="176.77 262.15 164.47 264.44 176.29 265.76 176.77 262.15"/><polyline class="cls-80" points="181.94 265.44 188.02 266.24 177.69 274.53 181.94 265.44"/><polyline class="cls-15" points="181.94 265.44 176.29 265.76 177.69 274.53 181.94 265.44"/><polyline class="cls-38" points="188.02 266.24 192.85 267.82 189.46 276.29 188.02 266.24"/><polyline class="cls-81" points="188.02 266.24 189.46 276.29 177.69 274.53 188.02 266.24"/><polyline class="cls-52" points="192.85 267.82 199.18 271.93 194.29 275.5 192.85 267.82"/><polyline class="cls-10" points="192.85 267.82 189.46 276.29 194.29 275.5 192.85 267.82"/><polyline class="cls-25" points="199.18 271.93 196.46 276.81 194.29 275.5 199.18 271.93"/><polyline class="cls-41" points="196.46 276.81 192.44 281.35 189.46 276.29 196.46 276.81"/><polyline class="cls-68" points="196.46 276.81 189.46 276.29 194.29 275.5 196.46 276.81"/><polyline class="cls-20" points="192.44 281.35 188.99 282.13 189.46 276.29 192.44 281.35"/><polyline class="cls-30" points="188.99 282.13 172.05 282.37 177.69 274.53 188.99 282.13"/><polyline class="cls-82" points="188.99 282.13 189.46 276.29 177.69 274.53 188.99 282.13"/><polyline points="172.05 282.37 171.76 282.21 177.69 274.53 172.05 282.37"/><polyline points="171.76 282.21 168.75 280.3 169.41 278.46 171.76 282.21"/><polyline class="cls-83" points="171.76 282.21 169.41 278.46 177.69 274.53 171.76 282.21"/><polyline class="cls-84" points="169.41 278.46 156.11 278.76 157.08 271.62 169.41 278.46"/><polyline class="cls-10" points="169.41 278.46 164.47 264.44 157.08 271.62 169.41 278.46"/><polyline class="cls-31" points="169.41 278.46 164.47 264.44 177.69 274.53 169.41 278.46"/><polyline class="cls-55" points="164.47 264.44 176.29 265.76 177.69 274.53 164.47 264.44"/><polyline class="cls-7" points="122.08 276.26 128.82 274 123.45 278.9 122.08 276.26"/><polyline class="cls-37" points="128.82 274 132.17 271.92 130.93 274.42 128.82 274"/><polyline class="cls-31" points="128.82 274 123.45 278.9 132.45 277.39 128.82 274"/><polyline class="cls-31" points="128.82 274 130.93 274.42 132.45 277.39 128.82 274"/><polyline class="cls-60" points="132.17 271.92 135.92 272.91 135.99 272.85 132.17 271.92"/><polyline class="cls-16" points="132.17 271.92 135.92 272.91 130.93 274.42 132.17 271.92"/><polyline class="cls-31" points="135.92 272.91 135.99 272.85 147.41 274.26 135.92 272.91"/><polyline class="cls-61" points="135.92 272.91 147.41 274.26 132.45 277.39 135.92 272.91"/><polyline class="cls-60" points="135.92 272.91 130.93 274.42 132.45 277.39 135.92 272.91"/><polyline class="cls-62" points="147.41 274.26 149.66 282.75 139.89 285.54 147.41 274.26"/><polyline class="cls-19" points="147.41 274.26 139.89 285.54 132.45 277.39 147.41 274.26"/><polyline class="cls-19" points="139.89 285.54 134.92 284.46 132.45 277.39 139.89 285.54"/><polyline class="cls-63" points="134.92 284.46 130.25 286.36 128.82 281.22 134.92 284.46"/><polyline class="cls-41" points="134.92 284.46 132.45 277.39 128.82 281.22 134.92 284.46"/><polyline class="cls-46" points="130.25 286.36 124.03 283.86 128.82 281.22 130.25 286.36"/><polyline class="cls-64" points="124.03 283.86 123.45 278.9 128.82 281.22 124.03 283.86"/><polyline class="cls-57" points="123.45 278.9 132.45 277.39 128.82 281.22 123.45 278.9"/><polyline class="cls-31" points="98.97 274.38 92.33 278.37 93.42 272.35 98.97 274.38"/><polyline class="cls-41" points="98.97 274.38 99.58 271.18 94.73 270.87 98.97 274.38"/><polyline class="cls-37" points="98.97 274.38 93.42 272.35 94.73 270.87 98.97 274.38"/><polyline class="cls-35" points="92.33 278.37 73.08 278.8 88.7 274.86 92.33 278.37"/><polyline class="cls-37" points="92.33 278.37 88.7 274.86 93.42 272.35 92.33 278.37"/><polyline class="cls-42" points="73.08 278.8 72.75 273.13 86.48 272.03 73.08 278.8"/><polyline class="cls-43" points="73.08 278.8 86.48 272.03 88.7 274.86 73.08 278.8"/><polyline class="cls-44" points="72.75 273.13 79.96 267.02 86.48 272.03 72.75 273.13"/><polyline class="cls-45" points="79.96 267.02 90.08 265.13 86.94 267.21 79.96 267.02"/><polyline class="cls-46" points="79.96 267.02 86.48 272.03 86.94 267.21 79.96 267.02"/><polyline class="cls-47" points="90.08 265.13 99.58 271.18 94.73 270.87 90.08 265.13"/><polyline class="cls-48" points="90.08 265.13 94.73 270.87 86.94 267.21 90.08 265.13"/><polyline class="cls-24" points="86.48 272.03 88.7 274.86 93.42 272.35 86.48 272.03"/><polyline class="cls-49" points="86.48 272.03 93.42 272.35 94.73 270.87 86.48 272.03"/><polyline class="cls-50" points="86.48 272.03 94.73 270.87 86.94 267.21 86.48 272.03"/><polyline class="cls-37" points="246.46 286.5 242.29 285.82 241.72 278.54 246.46 286.5"/><polyline class="cls-58" points="246.46 286.5 257.83 278.54 255.42 278.22 246.46 286.5"/><polyline class="cls-34" points="246.46 286.5 241.72 278.54 255.42 278.22 246.46 286.5"/><polyline class="cls-41" points="242.29 285.82 241.8 285.58 241.79 285.58 242.29 285.82"/><polyline class="cls-55" points="242.29 285.82 241.8 285.58 241.72 278.54 242.29 285.82"/><polyline class="cls-65" points="242.29 285.82 241.79 285.58 230.15 282.27 242.29 285.82"/><polyline class="cls-55" points="241.8 285.58 241.79 285.58 241.72 278.54 241.8 285.58"/><polyline class="cls-31" points="241.79 285.58 230.15 282.27 241.72 278.54 241.79 285.58"/><polyline class="cls-38" points="230.15 282.27 225.93 276.97 228.73 277.78 230.15 282.27"/><polyline class="cls-66" points="230.15 282.27 240.93 278.03 241.72 278.54 230.15 282.27"/><polyline class="cls-66" points="230.15 282.27 240.93 278.03 238.6 277.02 230.15 282.27"/><polyline class="cls-67" points="230.15 282.27 238.6 277.02 228.73 277.78 230.15 282.27"/><polyline class="cls-53" points="225.93 276.97 233.15 271.67 228.73 277.78 225.93 276.97"/><polyline class="cls-68" points="233.15 271.67 239.26 272.5 238.6 277.02 233.15 271.67"/><polyline class="cls-5" points="233.15 271.67 238.6 277.02 228.73 277.78 233.15 271.67"/><polyline class="cls-32" points="239.26 272.5 245.13 271.08 240.93 278.03 239.26 272.5"/><polyline class="cls-69" points="239.26 272.5 240.93 278.03 238.6 277.02 239.26 272.5"/><polyline class="cls-70" points="245.13 271.08 254.01 273.68 241.72 278.54 245.13 271.08"/><polyline class="cls-35" points="245.13 271.08 240.93 278.03 241.72 278.54 245.13 271.08"/><polyline class="cls-4" points="254.01 273.68 257.83 278.54 255.42 278.22 254.01 273.68"/><polyline class="cls-27" points="254.01 273.68 241.72 278.54 255.42 278.22 254.01 273.68"/><polyline class="cls-13" points="40.59 271.87 41.14 270.23 43.16 268.69 40.59 271.87"/><polyline class="cls-37" points="40.59 271.87 43.16 268.69 55.14 272.98 40.59 271.87"/><polyline class="cls-51" points="40.59 271.87 40.08 273.41 55.14 272.98 40.59 271.87"/><polyline class="cls-52" points="41.14 270.23 42.74 268.84 43.16 268.69 41.14 270.23"/><polyline points="41.14 270.23 42.74 268.84 44.57 266.96 41.14 270.23"/><polyline points="42.74 268.84 43.16 268.69 44.57 266.96 42.74 268.84"/><polyline class="cls-10" points="43.16 268.69 44.57 266.96 48.81 266.8 43.16 268.69"/><polyline class="cls-53" points="43.16 268.69 48.81 266.8 55.14 272.98 43.16 268.69"/><polyline class="cls-4" points="44.57 266.96 48.81 266.8 49.21 266.67 44.57 266.96"/><polyline class="cls-41" points="48.81 266.8 49.21 266.67 50.87 266.59 48.81 266.8"/><polyline class="cls-15" points="48.81 266.8 50.87 266.59 55.14 272.98 48.81 266.8"/><polyline class="cls-6" points="50.87 266.59 55.54 264.45 54.66 267.55 50.87 266.59"/><polyline class="cls-15" points="50.87 266.59 55.14 272.98 54.66 267.55 50.87 266.59"/><polyline class="cls-15" points="55.54 264.45 64.7 265.42 54.66 267.55 55.54 264.45"/><polyline class="cls-7" points="64.7 265.42 69.9 269.33 67.15 272.55 64.7 265.42"/><polyline class="cls-5" points="64.7 265.42 67.15 272.55 54.66 267.55 64.7 265.42"/><polyline class="cls-20" points="69.9 269.33 67.15 272.55 69.24 273.14 69.9 269.33"/><polyline class="cls-20" points="69.9 269.33 69.24 273.14 71.56 274.72 69.9 269.33"/><polyline class="cls-54" points="69.9 269.33 71.56 274.72 72.02 276.1 69.9 269.33"/><polyline class="cls-7" points="67.15 272.55 69.24 273.14 69.49 275.63 67.15 272.55"/><polyline class="cls-5" points="67.15 272.55 69.49 275.63 55.14 272.98 67.15 272.55"/><polyline class="cls-55" points="67.15 272.55 55.14 272.98 54.66 267.55 67.15 272.55"/><polyline class="cls-39" points="69.24 273.14 71.56 274.72 69.49 275.63 69.24 273.14"/><polyline class="cls-39" points="71.56 274.72 72.02 276.1 69.49 275.63 71.56 274.72"/><polyline points="72.02 276.1 70.44 279.15 69.49 275.63 72.02 276.1"/><polyline class="cls-31" points="70.44 279.15 60.01 282.47 69.49 275.63 70.44 279.15"/><polyline class="cls-39" points="60.01 282.47 59.71 282.52 55.14 272.98 60.01 282.47"/><polyline class="cls-5" points="60.01 282.47 69.49 275.63 55.14 272.98 60.01 282.47"/><polyline class="cls-7" points="59.71 282.52 56.44 282.92 55.14 272.98 59.71 282.52"/><polyline class="cls-19" points="56.44 282.92 50.14 282.32 55.14 272.98 56.44 282.92"/><polyline class="cls-37" points="50.14 282.32 38.53 278.06 40.08 273.41 50.14 282.32"/><polyline class="cls-36" points="50.14 282.32 40.08 273.41 55.14 272.98 50.14 282.32"/><polyline class="cls-7" points="214.34 267.17 218.1 269.46 209.58 267.6 214.34 267.17"/><polyline class="cls-38" points="214.34 267.17 209.58 267.6 211.4 266.81 214.34 267.17"/><polyline class="cls-30" points="218.1 269.46 224.32 278.35 206.95 275.78 218.1 269.46"/><polyline class="cls-76" points="218.1 269.46 209.58 267.6 206.95 275.78 218.1 269.46"/><polyline class="cls-38" points="224.32 278.35 223.16 285.09 218.9 284.2 224.32 278.35"/><polyline class="cls-42" points="224.32 278.35 206.95 275.78 218.9 284.2 224.32 278.35"/><polyline class="cls-85" points="223.16 285.09 213.66 287.08 218.9 284.2 223.16 285.09"/><polyline class="cls-39" points="213.66 287.08 196.05 283.88 205.38 283.18 213.66 287.08"/><polyline class="cls-5" points="213.66 287.08 205.38 283.18 218.9 284.2 213.66 287.08"/><polyline points="196.05 283.88 194.84 282.5 202.3 279.23 196.05 283.88"/><polyline class="cls-7" points="196.05 283.88 202.3 279.23 205.38 283.18 196.05 283.88"/><polyline class="cls-10" points="194.84 282.5 190.84 281.48 189.73 277.76 194.84 282.5"/><polyline class="cls-10" points="194.84 282.5 189.73 277.76 202.3 279.23 194.84 282.5"/><polyline class="cls-86" points="189.73 277.76 191.96 269.22 200.12 273.93 189.73 277.76"/><polyline class="cls-5" points="189.73 277.76 202.3 279.23 200.12 273.93 189.73 277.76"/><polyline class="cls-87" points="191.96 269.22 205.79 264.87 200.12 273.93 191.96 269.22"/><polyline class="cls-88" points="205.79 264.87 209.58 267.6 200.12 273.93 205.79 264.87"/><polyline class="cls-26" points="209.58 267.6 200.12 273.93 206.95 275.78 209.58 267.6"/><polyline class="cls-76" points="202.3 279.23 200.12 273.93 206.95 275.78 202.3 279.23"/><polyline class="cls-53" points="202.3 279.23 205.38 283.18 206.95 275.78 202.3 279.23"/><polyline class="cls-19" points="205.38 283.18 206.95 275.78 218.9 284.2 205.38 283.18"/><polyline points="105.72 276.15 108.73 278.07 105.44 278.26 105.72 276.15"/><polyline points="105.72 276.15 98.53 277.49 105.44 278.26 105.72 276.15"/><polyline class="cls-80" points="108.73 278.07 112.29 278.54 106.25 283.38 108.73 278.07"/><polyline class="cls-15" points="108.73 278.07 105.44 278.26 106.25 283.38 108.73 278.07"/><polyline class="cls-38" points="112.29 278.54 115.11 279.46 113.13 284.41 112.29 278.54"/><polyline class="cls-81" points="112.29 278.54 113.13 284.41 106.25 283.38 112.29 278.54"/><polyline class="cls-52" points="115.11 279.46 118.8 281.87 115.95 283.95 115.11 279.46"/><polyline class="cls-10" points="115.11 279.46 113.13 284.41 115.95 283.95 115.11 279.46"/><polyline class="cls-25" points="118.8 281.87 117.22 284.72 115.95 283.95 118.8 281.87"/><polyline class="cls-41" points="117.22 284.72 114.87 287.37 113.13 284.41 117.22 284.72"/><polyline class="cls-68" points="117.22 284.72 113.13 284.41 115.95 283.95 117.22 284.72"/><polyline class="cls-20" points="114.87 287.37 112.86 287.82 113.13 284.41 114.87 287.37"/><polyline class="cls-30" points="112.86 287.82 102.96 287.96 106.25 283.38 112.86 287.82"/><polyline class="cls-82" points="112.86 287.82 113.13 284.41 106.25 283.38 112.86 287.82"/><polyline points="102.96 287.96 102.79 287.87 106.25 283.38 102.96 287.96"/><polyline points="102.79 287.87 101.03 286.76 101.42 285.68 102.79 287.87"/><polyline class="cls-83" points="102.79 287.87 101.42 285.68 106.25 283.38 102.79 287.87"/><polyline class="cls-84" points="101.42 285.68 93.65 285.85 94.22 281.68 101.42 285.68"/><polyline class="cls-10" points="101.42 285.68 98.53 277.49 94.22 281.68 101.42 285.68"/><polyline class="cls-31" points="101.42 285.68 98.53 277.49 106.25 283.38 101.42 285.68"/><polyline points="93.65 285.85 93.42 281.83 94.22 281.68 93.65 285.85"/><polyline points="93.42 281.83 98.53 277.49 94.22 281.68 93.42 281.83"/><polyline class="cls-55" points="98.53 277.49 105.44 278.26 106.25 283.38 98.53 277.49"/><polygon class="cls-89" points="66.11 295.75 62.53 295.28 68.87 288.17 66.11 295.75"/><polygon class="cls-90" points="78.94 294.98 66.11 295.75 68.87 288.17 78.94 294.98"/><polygon class="cls-91" points="62.53 295.28 58.21 287.82 68.87 288.17 62.53 295.28"/><polygon class="cls-92" points="68.87 288.17 58.21 287.82 62.37 285.49 68.87 288.17"/><polygon class="cls-93" points="57.26 293.2 58.21 287.82 62.53 295.28 57.26 293.2"/><polygon class="cls-92" points="56.14 292.12 58.21 287.82 57.26 293.2 56.14 292.12"/><polygon class="cls-94" points="72 281.89 80.9 287.94 68.87 288.17 72 281.89"/><polygon class="cls-15" points="68.87 288.17 80.9 287.94 78.94 294.98 68.87 288.17"/><polygon class="cls-95" points="80.9 287.94 83.03 291.25 78.94 294.98 80.9 287.94"/><polygon class="cls-96" points="67.27 282.35 72 281.89 68.87 288.17 67.27 282.35"/><polygon class="cls-97" points="62.37 285.49 67.27 282.35 68.87 288.17 62.37 285.49"/><polygon class="cls-31" points="11.5 298.99 12.46 295.12 16.37 297.93 11.5 298.99"/><polygon class="cls-98" points="12.46 295.12 16.57 293.5 16.37 297.93 12.46 295.12"/><polygon class="cls-99" points="13.69 289.62 14.46 290.65 12.01 292.22 13.69 289.62"/><polygon class="cls-100" points="16.57 293.5 17.97 297.49 16.37 297.93 16.57 293.5"/><polygon class="cls-37" points="12.01 292.22 16.57 293.5 12.46 295.12 12.01 292.22"/><polygon class="cls-101" points="14.46 290.65 16.57 293.5 12.01 292.22 14.46 290.65"/><polygon class="cls-102" points="17.97 297.49 17.78 299.52 16.37 297.93 17.97 297.49"/><polygon class="cls-103" points="13.93 300.34 11.5 298.99 11.5 298.99 13.93 300.34"/><polygon class="cls-104" points="16.37 297.93 13.93 300.34 11.5 298.99 16.37 297.93"/><polygon class="cls-15" points="17.78 299.52 13.93 300.34 16.37 297.93 17.78 299.52"/><polygon class="cls-15" points="3.49 292.66 9.57 289.57 12.01 292.22 3.49 292.66"/><polygon class="cls-105" points="9.01 299.6 7.85 300.01 9.57 299 9.01 299.6"/><polygon class="cls-106" points="10.41 299.46 9.57 299 11.5 298.99 10.41 299.46"/><polygon class="cls-107" points="3.1 298.73 1.33 297.84 3.91 298.52 3.1 298.73"/><polygon class="cls-108" points="3.48 292.66 9.57 289.57 3.49 292.66 3.48 292.66"/><polygon class="cls-109" points="12.81 289.33 13.69 289.62 12.01 292.22 12.81 289.33"/><polygon class="cls-110" points="9.57 289.57 12.81 289.33 12.01 292.22 9.57 289.57"/><polygon class="cls-111" points="11.5 298.99 9.57 299 11.5 298.99 11.5 298.99"/><polygon class="cls-112" points="12.46 295.12 3.49 292.66 12.01 292.22 12.46 295.12"/><polygon class="cls-113" points="7.85 300.01 3.91 298.52 9.57 299 7.85 300.01"/><polygon class="cls-114" points="3.49 292.66 3.91 298.52 3.48 292.66 3.49 292.66"/><polygon class="cls-104" points="12.46 295.12 3.91 298.52 3.49 292.66 12.46 295.12"/><polygon class="cls-37" points="3.48 292.66 3.91 298.52 0.73 295.66 3.48 292.66"/><polygon class="cls-115" points="9.57 299 3.91 298.52 12.46 295.12 9.57 299"/><polygon class="cls-98" points="11.5 298.99 9.57 299 12.46 295.12 11.5 298.99"/><polygon class="cls-116" points="3.91 298.52 1.33 297.84 0.73 295.66 3.91 298.52"/><polygon class="cls-117" points="38.23 292.07 41.07 292.3 39.27 292.47 38.23 292.07"/><polygon class="cls-118" points="39.27 292.47 41.07 292.3 42.15 295.1 39.27 292.47"/><polygon class="cls-119" points="41.07 292.3 44.47 294.61 42.15 295.1 41.07 292.3"/><polygon class="cls-120" points="36.88 293.19 38.23 292.07 39.27 292.47 36.88 293.19"/><polygon class="cls-101" points="45.28 295.87 43.72 297.29 44.47 294.61 45.28 295.87"/><polygon class="cls-104" points="34.7 295.19 36.88 293.19 37.99 295.65 34.7 295.19"/><polygon class="cls-37" points="37.99 295.65 36.88 293.19 42.15 295.1 37.99 295.65"/><polygon class="cls-121" points="42.15 295.1 36.88 293.19 39.27 292.47 42.15 295.1"/><polygon class="cls-122" points="37.46 297.4 35.11 296.48 37.99 295.65 37.46 297.4"/><polygon class="cls-31" points="37.99 295.65 35.11 296.48 34.7 295.19 37.99 295.65"/><polygon class="cls-123" points="38.82 297.58 37.46 297.4 37.99 295.65 38.82 297.58"/><polygon class="cls-37" points="42.15 295.1 38.82 297.58 37.99 295.65 42.15 295.1"/><polygon class="cls-124" points="43.72 297.29 41.57 297.61 42.15 295.1 43.72 297.29"/><polygon class="cls-92" points="41.57 297.61 38.82 297.58 42.15 295.1 41.57 297.61"/><polygon class="cls-115" points="44.47 294.61 43.72 297.29 42.15 295.1 44.47 294.61"/><polygon class="cls-89" points="360.35 302.4 355.19 301.72 364.33 291.46 360.35 302.4"/><polygon class="cls-90" points="378.88 301.28 360.35 302.4 364.33 291.46 378.88 301.28"/><polygon class="cls-91" points="355.19 301.72 348.94 290.95 364.33 291.46 355.19 301.72"/><polygon class="cls-92" points="364.33 291.46 348.94 290.95 354.95 287.59 364.33 291.46"/><polygon class="cls-93" points="347.56 298.72 348.94 290.95 355.19 301.72 347.56 298.72"/><polygon class="cls-92" points="345.95 297.17 348.94 290.95 347.56 298.72 345.95 297.17"/><polygon class="cls-94" points="368.85 282.39 381.72 291.12 364.33 291.46 368.85 282.39"/><polygon class="cls-15" points="364.33 291.46 381.72 291.12 378.88 301.28 364.33 291.46"/><polygon class="cls-95" points="381.72 291.12 384.79 295.9 378.88 301.28 381.72 291.12"/><polygon class="cls-96" points="362.03 283.05 368.85 282.39 364.33 291.46 362.03 283.05"/><polygon class="cls-97" points="354.95 287.59 362.03 283.05 364.33 291.46 354.95 287.59"/><polygon class="cls-31" points="281.48 307.08 282.85 301.49 288.5 305.54 281.48 307.08"/><polygon class="cls-98" points="282.85 301.49 288.8 299.14 288.5 305.54 282.85 301.49"/><polygon class="cls-99" points="284.64 293.54 285.76 295.04 282.22 297.31 284.64 293.54"/><polygon class="cls-100" points="288.8 299.14 290.81 304.92 288.5 305.54 288.8 299.14"/><polygon class="cls-37" points="282.22 297.31 288.8 299.14 282.85 301.49 282.22 297.31"/><polygon class="cls-101" points="285.76 295.04 288.8 299.14 282.22 297.31 285.76 295.04"/><polygon class="cls-102" points="290.81 304.92 290.54 307.85 288.5 305.54 290.81 304.92"/><polygon class="cls-103" points="284.99 309.03 281.48 307.08 281.48 307.08 284.99 309.03"/><polygon class="cls-104" points="288.5 305.54 284.99 309.03 281.48 307.08 288.5 305.54"/><polygon class="cls-15" points="290.54 307.85 284.99 309.03 288.5 305.54 290.54 307.85"/><polygon class="cls-15" points="269.9 297.94 278.69 293.48 282.22 297.31 269.9 297.94"/><polygon class="cls-105" points="277.87 307.96 276.2 308.56 278.68 307.1 277.87 307.96"/><polygon class="cls-106" points="279.9 307.76 278.68 307.1 281.48 307.08 279.9 307.76"/><polygon class="cls-107" points="269.35 306.7 266.79 305.42 270.51 306.4 269.35 306.7"/><polygon class="cls-108" points="269.89 297.94 278.69 293.48 269.9 297.94 269.89 297.94"/><polygon class="cls-109" points="283.37 293.14 284.64 293.54 282.22 297.31 283.37 293.14"/><polygon class="cls-110" points="278.69 293.48 283.37 293.14 282.22 297.31 278.69 293.48"/><polygon class="cls-111" points="281.48 307.08 278.68 307.1 281.48 307.08 281.48 307.08"/><polygon class="cls-112" points="282.85 301.49 269.9 297.94 282.22 297.31 282.85 301.49"/><polygon class="cls-113" points="276.2 308.56 270.51 306.4 278.68 307.1 276.2 308.56"/><polygon class="cls-114" points="269.9 297.94 270.51 306.4 269.89 297.94 269.9 297.94"/><polygon class="cls-104" points="282.85 301.49 270.51 306.4 269.9 297.94 282.85 301.49"/><polygon class="cls-37" points="269.89 297.94 270.51 306.4 265.92 302.27 269.89 297.94"/><polygon class="cls-115" points="278.68 307.1 270.51 306.4 282.85 301.49 278.68 307.1"/><polygon class="cls-98" points="281.48 307.08 278.68 307.1 282.85 301.49 281.48 307.08"/><polygon class="cls-116" points="270.51 306.4 266.79 305.42 265.92 302.27 270.51 306.4"/><polygon class="cls-125" points="249.51 304.29 251.91 312.99 239.83 308.21 249.51 304.29"/><polygon class="cls-126" points="253.49 312.28 251.91 312.99 254.81 308.97 253.49 312.28"/><polygon class="cls-127" points="222.12 296.36 236 297.39 220.62 301.93 222.12 296.36"/><polygon class="cls-128" points="231.55 316.17 220.62 301.93 239.83 308.21 231.55 316.17"/><polygon class="cls-129" points="254.81 308.97 251.91 312.99 249.51 304.29 254.81 308.97"/><polygon class="cls-130" points="239.83 308.21 244.23 296.26 249.51 304.29 239.83 308.21"/><polygon class="cls-131" points="244.23 296.26 250.78 302.63 249.51 304.29 244.23 296.26"/><polygon class="cls-98" points="250.78 302.63 254.81 308.97 249.51 304.29 250.78 302.63"/><polygon class="cls-124" points="220.62 301.93 236 297.39 239.83 308.21 220.62 301.93"/><polygon class="cls-132" points="236 297.39 244.23 296.26 239.83 308.21 236 297.39"/><polygon class="cls-133" points="221 319.77 214.62 310.89 231.55 316.17 221 319.77"/><polygon class="cls-134" points="231.55 316.17 214.62 310.89 220.62 301.93 231.55 316.17"/><polygon class="cls-135" points="233.25 319.95 221 319.77 231.55 316.17 233.25 319.95"/><polygon class="cls-136" points="239.83 308.21 233.25 319.95 231.55 316.17 239.83 308.21"/><polygon class="cls-31" points="251.91 312.99 233.25 319.95 239.83 308.21 251.91 312.99"/><polygon class="cls-137" points="111.56 296.07 111.56 296.07 111.56 296.07 111.56 296.07"/><polygon class="cls-138" points="111.56 296.07 116.89 298.11 111.56 296.07 111.56 296.07"/><polygon class="cls-137" points="111.56 296.07 111.56 296.07 111.56 296.07 111.56 296.07"/><polygon class="cls-139" points="113.37 303.46 116.89 298.11 117.97 304.06 113.37 303.46"/><polygon class="cls-140" points="111.56 296.07 116.89 298.11 113.37 303.46 111.56 296.07"/><polygon class="cls-141" points="116.89 298.11 121.17 301.2 117.97 304.06 116.89 298.11"/><polygon class="cls-142" points="103.06 300.39 111.56 296.07 111.56 296.07 103.06 300.39"/><polygon class="cls-100" points="111.56 296.07 103.06 300.39 111.56 296.07 111.56 296.07"/><polygon points="111.05 307.91 107.93 307.29 107.93 307.29 111.05 307.91"/><polygon class="cls-68" points="113.55 305.09 111.05 307.91 107.93 307.29 113.55 305.09"/><polygon class="cls-143" points="107.93 307.29 103.06 300.39 107.93 307.29 107.93 307.29"/><polygon class="cls-144" points="118.38 306.3 111.05 307.91 113.55 305.09 118.38 306.3"/><polygon class="cls-145" points="111.56 296.07 103.06 300.39 111.56 296.07 111.56 296.07"/><polygon class="cls-15" points="113.37 303.46 103.06 300.39 111.56 296.07 113.37 303.46"/><polygon class="cls-19" points="107.93 307.29 103.06 300.39 113.37 303.46 107.93 307.29"/><polygon class="cls-111" points="117.97 304.06 118.38 306.3 113.55 305.09 117.97 304.06"/><polygon class="cls-146" points="107.93 307.29 113.37 303.46 113.55 305.09 107.93 307.29"/><polygon class="cls-145" points="113.37 303.46 117.97 304.06 113.55 305.09 113.37 303.46"/><polygon class="cls-147" points="62.24 295.27 74.16 297.89 63.49 295.7 62.24 295.27"/><polygon class="cls-15" points="64.76 302.96 76.04 308.65 59.44 310.09 64.76 302.96"/><polygon class="cls-19" points="76.04 308.65 62.75 315.21 59.44 310.09 76.04 308.65"/><polygon class="cls-148" points="59.44 310.09 62.75 315.21 54.78 314.05 59.44 310.09"/><polygon class="cls-149" points="79.76 302.75 76.04 308.65 64.76 302.96 79.76 302.75"/><polygon class="cls-150" points="54.78 314.05 52.4 311.64 59.44 310.09 54.78 314.05"/><polygon class="cls-151" points="59.73 302.18 62.24 295.27 63.49 295.7 59.73 302.18"/><polygon class="cls-15" points="64.76 302.96 59.44 310.09 59.73 302.18 64.76 302.96"/><polygon class="cls-152" points="63.49 295.7 64.76 302.96 59.73 302.18 63.49 295.7"/><polygon class="cls-153" points="55.85 296.86 57.91 295.65 59.73 302.18 55.85 296.86"/><polygon class="cls-24" points="59.44 310.09 52.55 310.44 59.73 302.18 59.44 310.09"/><polygon class="cls-31" points="52.55 310.44 55.85 296.86 59.73 302.18 52.55 310.44"/><polygon class="cls-154" points="52.4 311.64 52.55 310.44 59.44 310.09 52.4 311.64"/><polygon class="cls-15" points="63.49 295.7 74.16 297.89 64.76 302.96 63.49 295.7"/><polygon class="cls-31" points="74.16 297.89 79.76 302.75 64.76 302.96 74.16 297.89"/><polygon class="cls-155" points="57.91 295.65 62.24 295.27 59.73 302.18 57.91 295.65"/><polygon class="cls-31" points="137.78 306.96 138.86 306.25 139.4 309.84 137.78 306.96"/><polygon class="cls-37" points="151.31 303.26 138.86 306.25 142.49 300.08 151.31 303.26"/><polygon class="cls-115" points="137.93 305.25 137.77 302.55 138.86 306.25 137.93 305.25"/><polygon class="cls-156" points="138.86 306.25 137.77 302.55 142.49 300.08 138.86 306.25"/><polygon class="cls-140" points="139.4 309.84 138.86 306.25 145.68 312.21 139.4 309.84"/><polygon class="cls-157" points="153.25 309.41 151.01 310.25 153.54 306.13 153.25 309.41"/><polygon class="cls-158" points="151.01 310.25 138.86 306.25 151.31 303.26 151.01 310.25"/><polygon class="cls-94" points="153.54 306.13 151.01 310.25 151.31 303.26 153.54 306.13"/><polygon class="cls-159" points="145.68 312.21 138.86 306.25 151.01 310.25 145.68 312.21"/><polygon class="cls-117" points="83.77 295.58 86.57 293.29 85.29 295.01 83.77 295.58"/><polygon class="cls-118" points="85.29 295.01 86.57 293.29 91.8 294.74 85.29 295.01"/><polygon class="cls-119" points="86.57 293.29 93.04 292.29 91.8 294.74 86.57 293.29"/><polygon class="cls-120" points="84.34 297.71 83.77 295.58 85.29 295.01 84.34 297.71"/><polygon class="cls-101" points="95.68 292.67 96.53 295.25 93.04 292.29 95.68 292.67"/><polygon class="cls-104" points="85.53 301.35 84.34 297.71 89.07 298.86 85.53 301.35"/><polygon class="cls-37" points="89.07 298.86 84.34 297.71 91.8 294.74 89.07 298.86"/><polygon class="cls-121" points="91.8 294.74 84.34 297.71 85.29 295.01 91.8 294.74"/><polygon class="cls-122" points="91.32 300.83 87.88 302.1 89.07 298.86 91.32 300.83"/><polygon class="cls-31" points="89.07 298.86 87.88 302.1 85.53 301.35 89.07 298.86"/><polygon class="cls-123" points="92.77 299.79 91.32 300.83 89.07 298.86 92.77 299.79"/><polygon class="cls-37" points="91.8 294.74 92.77 299.79 89.07 298.86 91.8 294.74"/><polygon class="cls-124" points="96.53 295.25 95.17 297.41 91.8 294.74 96.53 295.25"/><polygon class="cls-92" points="95.17 297.41 92.77 299.79 91.8 294.74 95.17 297.41"/><polygon class="cls-115" points="93.04 292.29 96.53 295.25 91.8 294.74 93.04 292.29"/><polygon class="cls-160" points="174.37 306.7 179.02 303.31 176.13 308.75 174.37 306.7"/><polygon class="cls-161" points="184.72 305.68 186.63 310.72 183.29 312.71 184.72 305.68"/><polygon class="cls-7" points="186.63 310.72 184.82 312.24 183.29 312.71 186.63 310.72"/><polygon class="cls-162" points="176.13 308.75 184.72 305.68 183.29 312.71 176.13 308.75"/><polygon class="cls-160" points="179.02 303.31 184.72 305.68 176.13 308.75 179.02 303.31"/><polygon class="cls-39" points="184.82 312.24 185.81 313.67 183.29 312.71 184.82 312.24"/><polygon class="cls-104" points="183.29 312.71 180.1 316.21 174.54 315.56 183.29 312.71"/><polygon class="cls-163" points="185.42 315.69 180.1 316.21 183.29 312.71 185.42 315.69"/><polygon class="cls-104" points="185.81 313.67 185.42 315.69 183.29 312.71 185.81 313.67"/><polygon class="cls-164" points="183.29 312.71 174.54 315.56 176.13 308.75 183.29 312.71"/><polygon class="cls-165" points="187.53 307.27 186.63 310.72 184.72 305.68 187.53 307.27"/><polygon class="cls-166" points="174.54 315.56 171.65 311.59 176.13 308.75 174.54 315.56"/><polygon class="cls-167" points="171.65 311.59 174.37 306.7 176.13 308.75 171.65 311.59"/><polygon class="cls-117" points="197.82 300.57 192.17 300.11 195.75 299.76 197.82 300.57"/><polygon class="cls-118" points="195.75 299.76 192.17 300.11 190.01 294.56 195.75 299.76"/><polygon class="cls-119" points="192.17 300.11 185.42 295.53 190.01 294.56 192.17 300.11"/><polygon class="cls-120" points="200.48 298.34 197.82 300.57 195.75 299.76 200.48 298.34"/><polygon class="cls-101" points="183.8 293.02 186.9 290.19 185.42 295.53 183.8 293.02"/><polygon class="cls-104" points="204.83 294.38 200.48 298.34 198.29 293.46 204.83 294.38"/><polygon class="cls-37" points="198.29 293.46 200.48 298.34 190.01 294.56 198.29 293.46"/><polygon class="cls-121" points="190.01 294.56 200.48 298.34 195.75 299.76 190.01 294.56"/><polygon class="cls-122" points="199.34 289.96 204.01 291.8 198.29 293.46 199.34 289.96"/><polygon class="cls-31" points="198.29 293.46 204.01 291.8 204.83 294.38 198.29 293.46"/><polygon class="cls-123" points="196.63 289.61 199.34 289.96 198.29 293.46 196.63 289.61"/><polygon class="cls-37" points="190.01 294.56 196.63 289.61 198.29 293.46 190.01 294.56"/><polygon class="cls-124" points="186.9 290.19 191.18 289.56 190.01 294.56 186.9 290.19"/><polygon class="cls-92" points="191.18 289.56 196.63 289.61 190.01 294.56 191.18 289.56"/><polygon class="cls-115" points="185.42 295.53 186.9 290.19 190.01 294.56 185.42 295.53"/><polygon class="cls-117" points="320.07 297.08 324.18 297.42 321.58 297.67 320.07 297.08"/><polygon class="cls-118" points="321.58 297.67 324.18 297.42 325.75 301.46 321.58 297.67"/><polygon class="cls-119" points="324.18 297.42 329.09 300.75 325.75 301.46 324.18 297.42"/><polygon class="cls-120" points="318.14 298.7 320.07 297.08 321.58 297.67 318.14 298.7"/><polygon class="cls-101" points="330.26 302.57 328.01 304.63 329.09 300.75 330.26 302.57"/><polygon class="cls-104" points="314.98 301.59 318.14 298.7 319.73 302.25 314.98 301.59"/><polygon class="cls-37" points="319.73 302.25 318.14 298.7 325.75 301.46 319.73 302.25"/><polygon class="cls-121" points="325.75 301.46 318.14 298.7 321.58 297.67 325.75 301.46"/><polygon class="cls-122" points="318.97 304.79 315.57 303.46 319.73 302.25 318.97 304.79"/><polygon class="cls-31" points="319.73 302.25 315.57 303.46 314.98 301.59 319.73 302.25"/><polygon class="cls-123" points="320.94 305.05 318.97 304.79 319.73 302.25 320.94 305.05"/><polygon class="cls-37" points="325.75 301.46 320.94 305.05 319.73 302.25 325.75 301.46"/><polygon class="cls-124" points="328.01 304.63 324.9 305.08 325.75 301.46 328.01 304.63"/><polygon class="cls-92" points="324.9 305.08 320.94 305.05 325.75 301.46 324.9 305.08"/><polygon class="cls-115" points="329.09 300.75 328.01 304.63 325.75 301.46 329.09 300.75"/><path class="cls-168" d="M195.51,10.05C163,41.61,231,121.28,180.3,177.85,234.87,125.57,171,56.77,195.51,10.05Z"/><path class="cls-168" d="M169.1,108.89s21.6,23.27-1,61.2C168.09,170.09,182.66,143.66,169.1,108.89Z"/><path class="cls-168" d="M108.64,156.2s-16.2,18.76,2.1,48.1C110.74,204.3,98.9,183.83,108.64,156.2Z"/><path class="cls-168" d="M116.59,81.87c-1.75,69.24-48.75,86.59-9.37,136C78.66,156.16,114.84,158.29,116.59,81.87Z"/><path class="cls-168" d="M228.49,194.06s-24.56-38.37-3.59-103.63C224.9,90.43,211.53,135.86,228.49,194.06Z"/><path class="cls-168" d="M99,28.54C96.73,124.14,35.5,148.09,86.8,216.25,49.6,131.11,96.73,134.05,99,28.54Z"/><path class="cls-168" d="M271.1,131.17s21.11,25.89-2.73,66.4C268.37,197.57,283.79,169.3,271.1,131.17Z"/><path class="cls-168" d="M260.75,28.54C263,124.14,324.26,148.09,273,216.25,310.16,131.11,263,134.05,260.75,28.54Z"/><path class="cls-168" d="M279.64,28.54c2.28,95.6,63.51,119.55,12.2,187.71C329.05,131.11,281.92,134.05,279.64,28.54Z"/><polygon class="cls-1" points="265.58 201.22 274.09 224.08 247.96 236.98 221.28 240.18 201.1 240.93 183.93 230.29 175.5 220.15 172.41 205.45 178.01 196.97 206.57 179.18 239.44 182.49 249.84 198.53 265.58 201.22"/><polyline class="cls-2" points="265.58 201.22 274.09 224.08 264.75 216.26 265.58 201.22"/><polyline class="cls-3" points="265.58 201.22 249.84 198.53 259.29 202.94 265.58 201.22"/><polyline class="cls-4" points="265.58 201.22 259.29 202.94 264.75 216.26 265.58 201.22"/><polyline class="cls-5" points="274.09 224.08 247.96 236.98 246.97 232.38 274.09 224.08"/><polyline class="cls-6" points="274.09 224.08 246.97 232.38 264.75 216.26 274.09 224.08"/><polyline class="cls-7" points="247.96 236.98 221.28 240.18 246.97 232.38 247.96 236.98"/><polyline class="cls-8" points="221.28 240.18 201.1 240.93 212.17 230.56 221.28 240.18"/><polyline class="cls-9" points="221.28 240.18 232.01 224.19 212.17 230.56 221.28 240.18"/><polyline class="cls-10" points="221.28 240.18 232.01 224.19 246.97 232.38 221.28 240.18"/><polyline class="cls-11" points="201.1 240.93 183.93 230.29 204.02 229.54 201.1 240.93"/><polyline class="cls-12" points="201.1 240.93 212.17 230.56 204.02 229.54 201.1 240.93"/><polyline class="cls-13" points="183.93 230.29 175.5 220.15 190.41 215.2 183.93 230.29"/><polyline class="cls-14" points="183.93 230.29 190.41 215.2 199.38 220.11 183.93 230.29"/><polyline class="cls-15" points="183.93 230.29 204.02 229.54 199.38 220.11 183.93 230.29"/><polyline class="cls-16" points="175.5 220.15 172.41 205.45 190.41 215.2 175.5 220.15"/><polyline class="cls-17" points="172.41 205.45 178.01 196.97 190.41 215.2 172.41 205.45"/><polyline class="cls-18" points="178.01 196.97 206.57 179.18 193.23 190.89 178.01 196.97"/><polyline class="cls-19" points="178.01 196.97 190.41 215.2 193.23 190.89 178.01 196.97"/><polyline class="cls-13" points="206.57 179.18 239.44 182.49 205.49 211.39 206.57 179.18"/><polyline class="cls-20" points="206.57 179.18 193.23 190.89 205.49 211.39 206.57 179.18"/><polyline class="cls-21" points="239.44 182.49 249.84 198.53 205.49 211.39 239.44 182.49"/><polyline class="cls-22" points="249.84 198.53 232.01 224.19 259.29 202.94 249.84 198.53"/><polyline class="cls-23" points="249.84 198.53 232.01 224.19 205.49 211.39 249.84 198.53"/><polyline class="cls-24" points="190.41 215.2 193.23 190.89 205.49 211.39 190.41 215.2"/><polyline class="cls-24" points="190.41 215.2 199.38 220.11 205.49 211.39 190.41 215.2"/><polyline class="cls-25" points="232.01 224.19 259.29 202.94 264.75 216.26 232.01 224.19"/><polyline class="cls-26" points="232.01 224.19 212.17 230.56 205.49 211.39 232.01 224.19"/><polyline class="cls-27" points="232.01 224.19 246.97 232.38 264.75 216.26 232.01 224.19"/><polyline class="cls-28" points="212.17 230.56 204.02 229.54 199.38 220.11 212.17 230.56"/><polyline class="cls-29" points="212.17 230.56 199.38 220.11 205.49 211.39 212.17 230.56"/><polyline class="cls-30" points="310.48 225.44 295.13 218.68 284.81 231.47 310.48 225.44"/><polyline class="cls-16" points="310.48 225.44 324.89 243.99 307.56 244.22 310.48 225.44"/><polyline class="cls-31" points="310.48 225.44 307.56 244.22 284.81 231.47 310.48 225.44"/><polyline class="cls-16" points="295.13 218.68 283.95 222.8 284.81 231.47 295.13 218.68"/><polyline class="cls-32" points="283.95 222.8 281.77 218.72 266.37 219.12 283.95 222.8"/><polyline class="cls-23" points="283.95 222.8 266.37 219.12 284.81 231.47 283.95 222.8"/><polyline class="cls-5" points="281.77 218.72 278.97 216.7 266.37 219.12 281.77 218.72"/><polyline class="cls-33" points="266.37 219.12 258.9 225.32 284.81 231.47 266.37 219.12"/><polyline class="cls-34" points="258.9 225.32 248.97 232.55 271.25 254.13 258.9 225.32"/><polyline class="cls-31" points="258.9 225.32 284.81 231.47 271.25 254.13 258.9 225.32"/><polyline class="cls-35" points="248.97 232.55 246.69 240.06 271.25 254.13 248.97 232.55"/><polyline class="cls-36" points="246.69 240.06 261.89 255.68 271.25 254.13 246.69 240.06"/><polyline class="cls-37" points="261.89 255.68 270.8 259.8 271.25 254.13 261.89 255.68"/><polyline class="cls-15" points="270.8 259.8 282.21 254.01 271.25 254.13 270.8 259.8"/><polyline class="cls-38" points="282.21 254.01 285.85 252.93 284.81 231.47 282.21 254.01"/><polyline points="282.21 254.01 284.81 231.47 271.25 254.13 282.21 254.01"/><polyline points="285.85 252.93 307.85 256.62 307.56 244.22 285.85 252.93"/><polyline class="cls-7" points="285.85 252.93 307.56 244.22 284.81 231.47 285.85 252.93"/><polyline class="cls-39" points="307.85 256.62 315.84 254.42 307.56 244.22 307.85 256.62"/><polyline class="cls-40" points="315.84 254.42 323.56 248.97 307.56 244.22 315.84 254.42"/><polyline class="cls-31" points="323.56 248.97 324.89 243.99 307.56 244.22 323.56 248.97"/><polyline class="cls-31" points="130.05 246.87 150.09 259.91 146.81 240.2 130.05 246.87"/><polyline class="cls-41" points="130.05 246.87 128.24 236.38 142.85 235.38 130.05 246.87"/><polyline class="cls-37" points="130.05 246.87 146.81 240.2 142.85 235.38 130.05 246.87"/><polyline class="cls-35" points="150.09 259.91 208.13 261.34 161.04 248.43 150.09 259.91"/><polyline class="cls-37" points="150.09 259.91 161.04 248.43 146.81 240.2 150.09 259.91"/><polyline class="cls-42" points="208.13 261.34 209.1 242.77 167.71 239.15 208.13 261.34"/><polyline class="cls-43" points="208.13 261.34 167.71 239.15 161.04 248.43 208.13 261.34"/><polyline class="cls-44" points="209.1 242.77 187.38 222.75 167.71 239.15 209.1 242.77"/><polyline class="cls-45" points="187.38 222.75 156.86 216.57 166.32 223.38 187.38 222.75"/><polyline class="cls-46" points="187.38 222.75 167.71 239.15 166.32 223.38 187.38 222.75"/><polyline class="cls-47" points="156.86 216.57 128.24 236.38 142.85 235.38 156.86 216.57"/><polyline class="cls-48" points="156.86 216.57 142.85 235.38 166.32 223.38 156.86 216.57"/><polyline class="cls-24" points="167.71 239.15 161.04 248.43 146.81 240.2 167.71 239.15"/><polyline class="cls-49" points="167.71 239.15 146.81 240.2 142.85 235.38 167.71 239.15"/><polyline class="cls-50" points="167.71 239.15 142.85 235.38 166.32 223.38 167.71 239.15"/><polyline class="cls-13" points="189.98 255.41 188.3 252.94 184.52 251.07 189.98 255.41"/><polyline class="cls-37" points="189.98 255.41 184.52 251.07 169.23 261.23 189.98 255.41"/><polyline class="cls-51" points="189.98 255.41 191.55 257.72 169.23 261.23 189.98 255.41"/><polyline class="cls-52" points="188.3 252.94 185.22 251.18 184.52 251.07 188.3 252.94"/><polyline points="188.3 252.94 185.22 251.18 181.53 248.7 188.3 252.94"/><polyline points="185.22 251.18 184.52 251.07 181.53 248.7 185.22 251.18"/><polyline class="cls-10" points="184.52 251.07 181.53 248.7 175.23 249.63 184.52 251.07"/><polyline class="cls-53" points="184.52 251.07 175.23 249.63 169.23 261.23 184.52 251.07"/><polyline class="cls-4" points="181.53 248.7 175.23 249.63 174.58 249.53 181.53 248.7"/><polyline class="cls-41" points="175.23 249.63 174.58 249.53 172.1 249.87 175.23 249.63"/><polyline class="cls-15" points="175.23 249.63 172.1 249.87 169.23 261.23 175.23 249.63"/><polyline class="cls-6" points="172.1 249.87 164.12 247.77 167.05 252.45 172.1 249.87"/><polyline class="cls-15" points="172.1 249.87 169.23 261.23 167.05 252.45 172.1 249.87"/><polyline class="cls-15" points="164.12 247.77 151.2 251.87 167.05 252.45 164.12 247.77"/><polyline class="cls-7" points="151.2 251.87 145.64 259.54 151.39 263.9 151.2 251.87"/><polyline class="cls-5" points="151.2 251.87 151.39 263.9 167.05 252.45 151.2 251.87"/><polyline class="cls-20" points="145.64 259.54 151.39 263.9 148.64 265.43 145.64 259.54"/><polyline class="cls-20" points="145.64 259.54 148.64 265.43 146.07 268.59 145.64 259.54"/><polyline class="cls-54" points="145.64 259.54 146.07 268.59 146.14 270.91 145.64 259.54"/><polyline class="cls-7" points="151.39 263.9 148.64 265.43 149.6 269.46 151.39 263.9"/><polyline class="cls-5" points="151.39 263.9 149.6 269.46 169.23 261.23 151.39 263.9"/><polyline class="cls-55" points="151.39 263.9 169.23 261.23 167.05 252.45 151.39 263.9"/><polyline class="cls-39" points="148.64 265.43 146.07 268.59 149.6 269.46 148.64 265.43"/><polyline class="cls-39" points="146.07 268.59 146.14 270.91 149.6 269.46 146.07 268.59"/><polyline points="146.14 270.91 150.07 275.32 149.6 269.46 146.14 270.91"/><polyline class="cls-31" points="150.07 275.32 167.14 277.71 149.6 269.46 150.07 275.32"/><polyline class="cls-39" points="167.14 277.71 167.6 277.71 169.23 261.23 167.14 277.71"/><polyline class="cls-5" points="167.14 277.71 149.6 269.46 169.23 261.23 167.14 277.71"/><polyline class="cls-7" points="167.6 277.71 172.61 277.43 169.23 261.23 167.6 277.71"/><polyline class="cls-19" points="172.61 277.43 181.53 274.72 169.23 261.23 172.61 277.43"/><polyline class="cls-37" points="181.53 274.72 196.29 264.7 191.55 257.72 181.53 274.72"/><polyline class="cls-36" points="181.53 274.72 191.55 257.72 169.23 261.23 181.53 274.72"/><polyline class="cls-56" points="245.03 277.5 267.69 264.79 235.06 248.38 245.03 277.5"/><polyline class="cls-19" points="245.03 277.5 210.87 276.64 223.26 255.02 245.03 277.5"/><polyline class="cls-13" points="245.03 277.5 235.06 248.38 223.26 255.02 245.03 277.5"/><polyline class="cls-26" points="267.69 264.79 248.04 224.24 242.65 232.94 267.69 264.79"/><polyline class="cls-37" points="267.69 264.79 242.65 232.94 239.89 243.29 267.69 264.79"/><polyline class="cls-57" points="267.69 264.79 235.06 248.38 239.89 243.29 267.69 264.79"/><polyline points="248.04 224.24 233.19 221.93 242.65 232.94 248.04 224.24"/><polyline class="cls-32" points="233.19 221.93 199.16 226.59 225.79 249.88 233.19 221.93"/><polyline class="cls-15" points="233.19 221.93 242.65 232.94 225.79 249.88 233.19 221.93"/><polyline class="cls-5" points="199.16 226.59 181.78 255.51 225.79 249.88 199.16 226.59"/><polyline class="cls-31" points="181.78 255.51 210.87 276.64 223.26 255.02 181.78 255.51"/><polyline class="cls-24" points="181.78 255.51 225.79 249.88 223.26 255.02 181.78 255.51"/><polyline class="cls-58" points="242.65 232.94 239.89 243.29 225.79 249.88 242.65 232.94"/><polyline class="cls-24" points="235.06 248.38 239.89 243.29 225.79 249.88 235.06 248.38"/><polyline class="cls-59" points="235.06 248.38 225.79 249.88 223.26 255.02 235.06 248.38"/><polyline class="cls-7" points="250.96 267.17 263.35 272.14 253.81 261.87 250.96 267.17"/><polyline class="cls-37" points="263.35 272.14 269.41 276.55 267.34 271.4 263.35 272.14"/><polyline class="cls-31" points="263.35 272.14 253.81 261.87 270.49 265.45 263.35 272.14"/><polyline class="cls-31" points="263.35 272.14 267.34 271.4 270.49 265.45 263.35 272.14"/><polyline class="cls-60" points="269.41 276.55 276.54 274.74 276.66 274.86 269.41 276.55"/><polyline class="cls-16" points="269.41 276.55 276.54 274.74 267.34 271.4 269.41 276.55"/><polyline class="cls-31" points="276.54 274.74 276.66 274.86 298.19 272.62 276.54 274.74"/><polyline class="cls-61" points="276.54 274.74 298.19 272.62 270.49 265.45 276.54 274.74"/><polyline class="cls-60" points="276.54 274.74 267.34 271.4 270.49 265.45 276.54 274.74"/><polyline class="cls-62" points="298.19 272.62 303.28 255.47 285.27 249.27 298.19 272.62"/><polyline class="cls-19" points="298.19 272.62 285.27 249.27 270.49 265.45 298.19 272.62"/><polyline class="cls-19" points="285.27 249.27 275.86 251.19 270.49 265.45 285.27 249.27"/><polyline class="cls-63" points="275.86 251.19 267.31 247.08 264.11 257.45 275.86 251.19"/><polyline class="cls-41" points="275.86 251.19 270.49 265.45 264.11 257.45 275.86 251.19"/><polyline class="cls-46" points="267.31 247.08 255.41 251.84 264.11 257.45 267.31 247.08"/><polyline class="cls-64" points="255.41 251.84 253.81 261.87 264.11 257.45 255.41 251.84"/><polyline class="cls-57" points="253.81 261.87 270.49 265.45 264.11 257.45 253.81 261.87"/><polyline class="cls-37" points="311.76 271.69 317.44 270.69 318.22 259.91 311.76 271.69"/><polyline class="cls-58" points="311.76 271.69 296.25 259.91 299.54 259.44 311.76 271.69"/><polyline class="cls-34" points="311.76 271.69 318.22 259.91 299.54 259.44 311.76 271.69"/><polyline class="cls-41" points="317.44 270.69 318.12 270.33 318.13 270.34 317.44 270.69"/><polyline class="cls-55" points="317.44 270.69 318.12 270.33 318.22 259.91 317.44 270.69"/><polyline class="cls-65" points="317.44 270.69 318.13 270.34 334 265.44 317.44 270.69"/><polyline class="cls-55" points="318.12 270.33 318.13 270.34 318.22 259.91 318.12 270.33"/><polyline class="cls-31" points="318.13 270.34 334 265.44 318.22 259.91 318.13 270.34"/><polyline class="cls-38" points="334 265.44 339.75 257.58 335.93 258.79 334 265.44"/><polyline class="cls-66" points="334 265.44 319.3 259.16 318.22 259.91 334 265.44"/><polyline class="cls-66" points="334 265.44 319.3 259.16 322.48 257.67 334 265.44"/><polyline class="cls-67" points="334 265.44 322.48 257.67 335.93 258.79 334 265.44"/><polyline class="cls-53" points="339.75 257.58 329.9 249.75 335.93 258.79 339.75 257.58"/><polyline class="cls-68" points="329.9 249.75 321.57 250.98 322.48 257.67 329.9 249.75"/><polyline class="cls-5" points="329.9 249.75 322.48 257.67 335.93 258.79 329.9 249.75"/><polyline class="cls-32" points="321.57 250.98 313.57 248.88 319.3 259.16 321.57 250.98"/><polyline class="cls-69" points="321.57 250.98 319.3 259.16 322.48 257.67 321.57 250.98"/><polyline class="cls-70" points="313.57 248.88 301.46 252.72 318.22 259.91 313.57 248.88"/><polyline class="cls-35" points="313.57 248.88 319.3 259.16 318.22 259.91 313.57 248.88"/><polyline class="cls-4" points="301.46 252.72 296.25 259.91 299.54 259.44 301.46 252.72"/><polyline class="cls-27" points="301.46 252.72 318.22 259.91 299.54 259.44 301.46 252.72"/><polyline class="cls-71" points="161.77 273.19 153.04 274.54 153.09 268.2 161.77 273.19"/><polyline class="cls-72" points="161.77 273.19 160.44 260.87 153.09 268.2 161.77 273.19"/><polyline class="cls-73" points="153.04 274.54 152.5 275.72 150.82 269.63 153.04 274.54"/><polyline class="cls-13" points="153.04 274.54 150.82 269.63 153.09 268.2 153.04 274.54"/><polyline class="cls-2" points="152.5 275.72 145.47 280.17 150.82 269.63 152.5 275.72"/><polyline class="cls-41" points="145.47 280.17 142.12 280.32 150.82 269.63 145.47 280.17"/><polyline class="cls-6" points="142.12 280.32 132.68 280.76 150.82 269.63 142.12 280.32"/><polyline class="cls-74" points="132.68 280.76 111.32 281.75 115.76 264.14 132.68 280.76"/><polyline class="cls-75" points="132.68 280.76 150.82 269.63 129 258.68 132.68 280.76"/><polyline class="cls-51" points="132.68 280.76 129 258.68 115.76 264.14 132.68 280.76"/><polyline class="cls-76" points="111.32 281.75 99.37 271 115.76 264.14 111.32 281.75"/><polyline class="cls-15" points="99.37 271 116.95 255.37 115.76 264.14 99.37 271"/><polyline class="cls-14" points="116.95 255.37 131.99 249.4 129 258.68 116.95 255.37"/><polyline class="cls-25" points="131.99 249.4 138.59 252 129 258.68 131.99 249.4"/><polyline class="cls-14" points="138.59 252 140.68 251.18 157.57 259.47 138.59 252"/><polyline class="cls-77" points="138.59 252 157.57 259.47 153.09 268.2 138.59 252"/><polyline class="cls-18" points="138.59 252 150.82 269.63 129 258.68 138.59 252"/><polyline class="cls-78" points="138.59 252 150.82 269.63 153.09 268.2 138.59 252"/><polyline class="cls-79" points="159.51 260.42 160.44 260.87 153.09 268.2 159.51 260.42"/><polyline points="202.86 261.08 197.63 264.7 203.35 265.05 202.86 261.08"/><polyline points="202.86 261.08 215.32 263.6 203.35 265.05 202.86 261.08"/><polyline class="cls-80" points="197.63 264.7 191.46 265.58 201.94 274.7 197.63 264.7"/><polyline class="cls-15" points="197.63 264.7 203.35 265.05 201.94 274.7 197.63 264.7"/><polyline class="cls-38" points="191.46 265.58 186.57 267.32 190.01 276.63 191.46 265.58"/><polyline class="cls-81" points="191.46 265.58 190.01 276.63 201.94 274.7 191.46 265.58"/><polyline class="cls-52" points="186.57 267.32 180.16 271.84 185.11 275.76 186.57 267.32"/><polyline class="cls-10" points="186.57 267.32 190.01 276.63 185.11 275.76 186.57 267.32"/><polyline class="cls-25" points="180.16 271.84 182.91 277.21 185.11 275.76 180.16 271.84"/><polyline class="cls-41" points="182.91 277.21 186.99 282.2 190.01 276.63 182.91 277.21"/><polyline class="cls-68" points="182.91 277.21 190.01 276.63 185.11 275.76 182.91 277.21"/><polyline class="cls-20" points="186.99 282.2 190.48 283.06 190.01 276.63 186.99 282.2"/><polyline class="cls-30" points="190.48 283.06 207.64 283.33 201.94 274.7 190.48 283.06"/><polyline class="cls-82" points="190.48 283.06 190.01 276.63 201.94 274.7 190.48 283.06"/><polyline points="207.64 283.33 207.94 283.15 201.94 274.7 207.64 283.33"/><polyline points="207.94 283.15 210.99 281.05 210.32 279.02 207.94 283.15"/><polyline class="cls-83" points="207.94 283.15 210.32 279.02 201.94 274.7 207.94 283.15"/><polyline class="cls-84" points="210.32 279.02 223.8 279.35 222.81 271.5 210.32 279.02"/><polyline class="cls-10" points="210.32 279.02 215.32 263.6 222.81 271.5 210.32 279.02"/><polyline class="cls-31" points="210.32 279.02 215.32 263.6 201.94 274.7 210.32 279.02"/><polyline class="cls-55" points="215.32 263.6 203.35 265.05 201.94 274.7 215.32 263.6"/><polyline class="cls-7" points="258.28 276.61 251.45 274.11 256.89 279.51 258.28 276.61"/><polyline class="cls-37" points="251.45 274.11 248.06 271.83 249.31 274.57 251.45 274.11"/><polyline class="cls-31" points="251.45 274.11 256.89 279.51 247.78 277.84 251.45 274.11"/><polyline class="cls-31" points="251.45 274.11 249.31 274.57 247.78 277.84 251.45 274.11"/><polyline class="cls-60" points="248.06 271.83 244.25 272.91 244.19 272.85 248.06 271.83"/><polyline class="cls-16" points="248.06 271.83 244.25 272.91 249.31 274.57 248.06 271.83"/><polyline class="cls-31" points="244.25 272.91 244.19 272.85 232.61 274.4 244.25 272.91"/><polyline class="cls-61" points="244.25 272.91 232.61 274.4 247.78 277.84 244.25 272.91"/><polyline class="cls-60" points="244.25 272.91 249.31 274.57 247.78 277.84 244.25 272.91"/><polyline class="cls-62" points="232.61 274.4 230.33 283.75 240.24 286.81 232.61 274.4"/><polyline class="cls-19" points="232.61 274.4 240.24 286.81 247.78 277.84 232.61 274.4"/><polyline class="cls-19" points="240.24 286.81 245.27 285.63 247.78 277.84 240.24 286.81"/><polyline class="cls-63" points="245.27 285.63 250 287.72 251.45 282.06 245.27 285.63"/><polyline class="cls-41" points="245.27 285.63 247.78 277.84 251.45 282.06 245.27 285.63"/><polyline class="cls-46" points="250 287.72 256.3 284.96 251.45 282.06 250 287.72"/><polyline class="cls-64" points="256.3 284.96 256.89 279.51 251.45 282.06 256.3 284.96"/><polyline class="cls-57" points="256.89 279.51 247.78 277.84 251.45 282.06 256.89 279.51"/><polyline class="cls-31" points="281.69 274.54 288.43 278.92 287.32 272.3 281.69 274.54"/><polyline class="cls-41" points="281.69 274.54 281.08 271.01 285.99 270.68 281.69 274.54"/><polyline class="cls-37" points="281.69 274.54 287.32 272.3 285.99 270.68 281.69 274.54"/><polyline class="cls-35" points="288.43 278.92 307.93 279.4 292.11 275.06 288.43 278.92"/><polyline class="cls-37" points="288.43 278.92 292.11 275.06 287.32 272.3 288.43 278.92"/><polyline class="cls-42" points="307.93 279.4 308.26 273.16 294.35 271.94 307.93 279.4"/><polyline class="cls-43" points="307.93 279.4 294.35 271.94 292.11 275.06 307.93 279.4"/><polyline class="cls-44" points="308.26 273.16 300.96 266.43 294.35 271.94 308.26 273.16"/><polyline class="cls-45" points="300.96 266.43 290.7 264.36 293.88 266.64 300.96 266.43"/><polyline class="cls-46" points="300.96 266.43 294.35 271.94 293.88 266.64 300.96 266.43"/><polyline class="cls-47" points="290.7 264.36 281.08 271.01 285.99 270.68 290.7 264.36"/><polyline class="cls-48" points="290.7 264.36 285.99 270.68 293.88 266.64 290.7 264.36"/><polyline class="cls-24" points="294.35 271.94 292.11 275.06 287.32 272.3 294.35 271.94"/><polyline class="cls-49" points="294.35 271.94 287.32 272.3 285.99 270.68 294.35 271.94"/><polyline class="cls-50" points="294.35 271.94 285.99 270.68 293.88 266.64 294.35 271.94"/><polyline class="cls-37" points="132.25 287.87 136.47 287.12 137.06 279.11 132.25 287.87"/><polyline class="cls-58" points="132.25 287.87 120.73 279.11 123.17 278.76 132.25 287.87"/><polyline class="cls-34" points="132.25 287.87 137.06 279.11 123.17 278.76 132.25 287.87"/><polyline class="cls-41" points="136.47 287.12 136.98 286.86 136.99 286.86 136.47 287.12"/><polyline class="cls-55" points="136.47 287.12 136.98 286.86 137.06 279.11 136.47 287.12"/><polyline class="cls-65" points="136.47 287.12 136.99 286.86 148.78 283.22 136.47 287.12"/><polyline class="cls-55" points="136.98 286.86 136.99 286.86 137.06 279.11 136.98 286.86"/><polyline class="cls-31" points="136.99 286.86 148.78 283.22 137.06 279.11 136.99 286.86"/><polyline class="cls-38" points="148.78 283.22 153.06 277.38 150.22 278.28 148.78 283.22"/><polyline class="cls-66" points="148.78 283.22 137.85 278.55 137.06 279.11 148.78 283.22"/><polyline class="cls-66" points="148.78 283.22 137.85 278.55 140.22 277.44 148.78 283.22"/><polyline class="cls-67" points="148.78 283.22 140.22 277.44 150.22 278.28 148.78 283.22"/><polyline class="cls-53" points="153.06 277.38 145.74 271.56 150.22 278.28 153.06 277.38"/><polyline class="cls-68" points="145.74 271.56 139.54 272.47 140.22 277.44 145.74 271.56"/><polyline class="cls-5" points="145.74 271.56 140.22 277.44 150.22 278.28 145.74 271.56"/><polyline class="cls-32" points="139.54 272.47 133.6 270.91 137.85 278.55 139.54 272.47"/><polyline class="cls-69" points="139.54 272.47 137.85 278.55 140.22 277.44 139.54 272.47"/><polyline class="cls-70" points="133.6 270.91 124.6 273.76 137.06 279.11 133.6 270.91"/><polyline class="cls-35" points="133.6 270.91 137.85 278.55 137.06 279.11 133.6 270.91"/><polyline class="cls-4" points="124.6 273.76 120.73 279.11 123.17 278.76 124.6 273.76"/><polyline class="cls-27" points="124.6 273.76 137.06 279.11 123.17 278.76 124.6 273.76"/><polyline class="cls-13" points="340.85 271.78 340.29 269.96 338.24 268.28 340.85 271.78"/><polyline class="cls-37" points="340.85 271.78 338.24 268.28 326.11 272.99 340.85 271.78"/><polyline class="cls-51" points="340.85 271.78 341.37 273.47 326.11 272.99 340.85 271.78"/><polyline class="cls-52" points="340.29 269.96 338.68 268.44 338.24 268.28 340.29 269.96"/><polyline points="340.29 269.96 338.68 268.44 336.82 266.37 340.29 269.96"/><polyline points="338.68 268.44 338.24 268.28 336.82 266.37 338.68 268.44"/><polyline class="cls-10" points="338.24 268.28 336.82 266.37 332.52 266.19 338.24 268.28"/><polyline class="cls-53" points="338.24 268.28 332.52 266.19 326.11 272.99 338.24 268.28"/><polyline class="cls-4" points="336.82 266.37 332.52 266.19 332.12 266.05 336.82 266.37"/><polyline class="cls-41" points="332.52 266.19 332.12 266.05 330.44 265.96 332.52 266.19"/><polyline class="cls-15" points="332.52 266.19 330.44 265.96 326.11 272.99 332.52 266.19"/><polyline class="cls-6" points="330.44 265.96 325.71 263.62 326.6 267.02 330.44 265.96"/><polyline class="cls-15" points="330.44 265.96 326.11 272.99 326.6 267.02 330.44 265.96"/><polyline class="cls-15" points="325.71 263.62 316.43 264.68 326.6 267.02 325.71 263.62"/><polyline class="cls-7" points="316.43 264.68 311.15 268.98 313.94 272.53 316.43 264.68"/><polyline class="cls-5" points="316.43 264.68 313.94 272.53 326.6 267.02 316.43 264.68"/><polyline class="cls-20" points="311.15 268.98 313.94 272.53 311.82 273.18 311.15 268.98"/><polyline class="cls-20" points="311.15 268.98 311.82 273.18 309.47 274.91 311.15 268.98"/><polyline class="cls-54" points="311.15 268.98 309.47 274.91 309.01 276.43 311.15 268.98"/><polyline class="cls-7" points="313.94 272.53 311.82 273.18 311.57 275.91 313.94 272.53"/><polyline class="cls-5" points="313.94 272.53 311.57 275.91 326.11 272.99 313.94 272.53"/><polyline class="cls-55" points="313.94 272.53 326.11 272.99 326.6 267.02 313.94 272.53"/><polyline class="cls-39" points="311.82 273.18 309.47 274.91 311.57 275.91 311.82 273.18"/><polyline class="cls-39" points="309.47 274.91 309.01 276.43 311.57 275.91 309.47 274.91"/><polyline points="309.01 276.43 310.61 279.78 311.57 275.91 309.01 276.43"/><polyline class="cls-31" points="310.61 279.78 321.18 283.44 311.57 275.91 310.61 279.78"/><polyline class="cls-39" points="321.18 283.44 321.47 283.5 326.11 272.99 321.18 283.44"/><polyline class="cls-5" points="321.18 283.44 311.57 275.91 326.11 272.99 321.18 283.44"/><polyline class="cls-7" points="321.47 283.5 324.79 283.93 326.11 272.99 321.47 283.5"/><polyline class="cls-19" points="324.79 283.93 331.17 283.28 326.11 272.99 324.79 283.93"/><polyline class="cls-37" points="331.17 283.28 342.94 278.59 341.37 273.47 331.17 283.28"/><polyline class="cls-36" points="331.17 283.28 341.37 273.47 326.11 272.99 331.17 283.28"/><polyline class="cls-7" points="164.8 266.61 160.98 269.12 169.62 267.07 164.8 266.61"/><polyline class="cls-38" points="164.8 266.61 169.62 267.07 167.77 266.21 164.8 266.61"/><polyline class="cls-30" points="160.98 269.12 154.69 278.9 172.29 276.08 160.98 269.12"/><polyline class="cls-76" points="160.98 269.12 169.62 267.07 172.29 276.08 160.98 269.12"/><polyline class="cls-38" points="154.69 278.9 155.86 286.32 160.17 285.34 154.69 278.9"/><polyline class="cls-42" points="154.69 278.9 172.29 276.08 160.17 285.34 154.69 278.9"/><polyline class="cls-85" points="155.86 286.32 165.49 288.5 160.17 285.34 155.86 286.32"/><polyline class="cls-39" points="165.49 288.5 183.33 284.99 173.88 284.21 165.49 288.5"/><polyline class="cls-5" points="165.49 288.5 173.88 284.21 160.17 285.34 165.49 288.5"/><polyline points="183.33 284.99 184.56 283.47 177 279.88 183.33 284.99"/><polyline class="cls-7" points="183.33 284.99 177 279.88 173.88 284.21 183.33 284.99"/><polyline class="cls-10" points="184.56 283.47 188.61 282.35 189.73 278.25 184.56 283.47"/><polyline class="cls-10" points="184.56 283.47 189.73 278.25 177 279.88 184.56 283.47"/><polyline class="cls-86" points="189.73 278.25 187.47 268.86 179.21 274.04 189.73 278.25"/><polyline class="cls-5" points="189.73 278.25 177 279.88 179.21 274.04 189.73 278.25"/><polyline class="cls-87" points="187.47 268.86 173.46 264.07 179.21 274.04 187.47 268.86"/><polyline class="cls-88" points="173.46 264.07 169.62 267.07 179.21 274.04 173.46 264.07"/><polyline class="cls-26" points="169.62 267.07 179.21 274.04 172.29 276.08 169.62 267.07"/><polyline class="cls-76" points="177 279.88 179.21 274.04 172.29 276.08 177 279.88"/><polyline class="cls-53" points="177 279.88 173.88 284.21 172.29 276.08 177 279.88"/><polyline class="cls-19" points="173.88 284.21 172.29 276.08 160.17 285.34 173.88 284.21"/><polyline points="274.86 276.49 271.8 278.6 275.15 278.8 274.86 276.49"/><polyline points="274.86 276.49 282.14 277.96 275.15 278.8 274.86 276.49"/><polyline class="cls-80" points="271.8 278.6 268.2 279.12 274.32 284.44 271.8 278.6"/><polyline class="cls-15" points="271.8 278.6 275.15 278.8 274.32 284.44 271.8 278.6"/><polyline class="cls-38" points="268.2 279.12 265.34 280.13 267.35 285.57 268.2 279.12"/><polyline class="cls-81" points="268.2 279.12 267.35 285.57 274.32 284.44 268.2 279.12"/><polyline class="cls-52" points="265.34 280.13 261.6 282.77 264.49 285.06 265.34 280.13"/><polyline class="cls-10" points="265.34 280.13 267.35 285.57 264.49 285.06 265.34 280.13"/><polyline class="cls-25" points="261.6 282.77 263.21 285.91 264.49 285.06 261.6 282.77"/><polyline class="cls-41" points="263.21 285.91 265.59 288.82 267.35 285.57 263.21 285.91"/><polyline class="cls-68" points="263.21 285.91 267.35 285.57 264.49 285.06 263.21 285.91"/><polyline class="cls-20" points="265.59 288.82 267.63 289.32 267.35 285.57 265.59 288.82"/><polyline class="cls-30" points="267.63 289.32 277.65 289.48 274.32 284.44 267.63 289.32"/><polyline class="cls-82" points="267.63 289.32 267.35 285.57 274.32 284.44 267.63 289.32"/><polyline points="277.65 289.48 277.83 289.38 274.32 284.44 277.65 289.48"/><polyline points="277.83 289.38 279.61 288.15 279.21 286.97 277.83 289.38"/><polyline class="cls-83" points="277.83 289.38 279.21 286.97 274.32 284.44 277.83 289.38"/><polyline class="cls-84" points="279.21 286.97 287.09 287.16 286.51 282.57 279.21 286.97"/><polyline class="cls-10" points="279.21 286.97 282.14 277.96 286.51 282.57 279.21 286.97"/><polyline class="cls-31" points="279.21 286.97 282.14 277.96 274.32 284.44 279.21 286.97"/><polyline points="287.09 287.16 287.32 282.73 286.51 282.57 287.09 287.16"/><polyline points="287.32 282.73 282.14 277.96 286.51 282.57 287.32 282.73"/><polyline class="cls-55" points="282.14 277.96 275.15 278.8 274.32 284.44 282.14 277.96"/></svg>