<svg id="Layer_1" data-name="Layer 1" xmlns="http://www.w3.org/2000/svg" viewBox="0 0 440 380"><defs><style>.cls-1{fill:#f6d4c4;stroke:#9d6c57;stroke-miterlimit:10;stroke-width:2px;}.cls-2{opacity:0.26;}.cls-3{fill:#a4685f;}.cls-4{fill:#c8897c;opacity:0.41;}</style></defs><path class="cls-1" d="M309.39,202.5c0,61.47-40,98.79-89.39,98.79S130.61,264,130.61,202.5,170.63,78.71,220,78.71,309.39,141,309.39,202.5Z"/><g class="cls-2"><path class="cls-3" d="M272.36,263.16a9.64,9.64,0,0,1-9.63,9.87c-6,0-7.48-4.3-7.48-9.21s1.48-10.2,7.48-10.2A9.37,9.37,0,0,1,272.36,263.16Z"/><path class="cls-3" d="M291.74,203.33a9.05,9.05,0,0,1-9,9.27c-5.64,0-9-4-9-8.65s3.4-9.58,9-9.58A8.81,8.81,0,0,1,291.74,203.33Z"/><path class="cls-3" d="M258.31,245.33c0,3.55-2.62,5.71-7,5.71s-6.95-1.68-6.95-5.23,2.1-5.47,6.44-5.47S258.31,241.79,258.31,245.33Z"/><path class="cls-3" d="M263.89,214.62c0,3.55-2.62,5.71-7,5.71s-7-1.69-7-5.23,2.1-5.47,6.44-5.47S263.89,211.08,263.89,214.62Z"/><path class="cls-3" d="M232.13,256.23c0,3.55-2.62,5.71-7,5.71s-6.95-1.69-6.95-5.23,2.1-5.47,6.44-5.47S232.13,252.69,232.13,256.23Z"/><path class="cls-3" d="M279.72,235.44a8.27,8.27,0,0,1-8.25,8.47c-5.15,0-6.42-3.69-6.42-7.9s1.27-8.75,6.42-8.75A8,8,0,0,1,279.72,235.44Z"/><path class="cls-3" d="M252.73,267.53c0,3.54-2.62,5.7-7,5.7s-7-1.68-7-5.23,2.1-5.47,6.44-5.47S252.73,264,252.73,267.53Z"/><path class="cls-3" d="M215.64,219.4c0,2.3-1.69,3.7-4.5,3.7s-4.51-1.09-4.51-3.39,1.36-3.54,4.17-3.54S215.64,217.11,215.64,219.4Z"/><path class="cls-3" d="M157.57,212.77c0,2.29-1.69,3.7-4.5,3.7s-4.51-1.1-4.51-3.39,1.36-3.55,4.17-3.55S157.57,210.47,157.57,212.77Z"/><path class="cls-3" d="M187,254.33c0,1.77-1.3,2.85-3.47,2.85s-3.48-.84-3.48-2.61,1-2.74,3.22-2.74S187,252.56,187,254.33Z"/><path class="cls-3" d="M214.23,242.09c0,2.3-1.7,3.7-4.51,3.7s-4.5-1.09-4.5-3.39,1.36-3.54,4.17-3.54S214.23,239.79,214.23,242.09Z"/></g><path class="cls-4" d="M242.18,298.66c39.71-37.61,45.92-93.57,44.18-124.92-2.71-48.76-31.15-82.53-31.15-82.53s20.32,13.76,35.22,40c8.25,14.54,16.25,41.26,17.19,69C309.24,248.12,281.39,289,242.18,298.66Z"/></svg>