<svg id="Layer_1" data-name="Layer 1" xmlns="http://www.w3.org/2000/svg" xmlns:xlink="http://www.w3.org/1999/xlink" viewBox="0 0 230 440"><defs><style>.cls-1{stroke:#933e27;fill:url(#linear-gradient);}.cls-1,.cls-2{stroke-miterlimit:10;}.cls-2{fill:#ff8c2e;stroke:#ef4720;stroke-width:0.5px;}</style><linearGradient id="linear-gradient" x1="115" y1="8.1" x2="115" y2="431.9" gradientUnits="userSpaceOnUse"><stop offset="0" stop-color="#f60"/><stop offset="0.14" stop-color="#ff6b00"/><stop offset="0.31" stop-color="#ff7900"/><stop offset="0.48" stop-color="#ff9000"/><stop offset="0.67" stop-color="#ffb000"/><stop offset="0.85" stop-color="#ffd900"/><stop offset="1" stop-color="#ff0"/></linearGradient></defs><path class="cls-1" d="M123.19,8.1s25.93,44.65-30.35,112.22c0,0-28.14,32-4.41,82,10.76,19-13.24,35.63-29.25,11.47-9.15-13.83,6.07-44,6.07-44s12.69-40.42-19.31-44c0,0,21,11.46,0,47.05s-35.31,71.09-8.28,95.27,15.45,55.82-3.86,57.8c0,0,3.77-42.36-26.58-49.6,0,0,20.87,28.92,7.43,51.74a52.29,52.29,0,0,0-7.3,23.4c-1.08,18.22,4,46.74,40.12,66.17A107.47,107.47,0,0,0,81.2,428.93c31.28,5.1,107.14,10.67,133.59-48.59,0,0,20.34-47-3.89-95.12a87.79,87.79,0,0,1-6.78-17.67c-3.65-14.21-5.15-34.91,15.59-38,0,0-29.4-8.55-30.11,24.18-.14,6.45-5.63,11.13-11.35,9.55-7.09-1.94-14.36-7.12-12.57-20.45,3.31-24.74,48.83-36.81,37-66.67-6.9-22.62-42.83-63.65-16.28-66.36,0,0-22.62.6-20.42,21.72s6.35,48.56-19.31,51.28-33.75-46.7-24.28-61.24C136.71,99.5,163.2,19.57,123.19,8.1Z"/><path class="cls-2" d="M175.89,87.92s-49.95,11-43.56,69.21c2.42,22.05,28.23,27.06,29.4,5.25.42-7.86-4.45-22-6.57-34.89C155.16,127.49,151.43,104.63,175.89,87.92Z"/><path class="cls-2" d="M85.18,85.83c6.89,24.6-22.62,30.68-8.37,58.92C78.67,123.46,109,109.72,85.18,85.83Z"/><path class="cls-2" d="M42.89,316.53c-3.47-32.53-42-38.88-29.3-83.29C19.94,274.89,59.47,281.59,42.89,316.53Z"/></svg>