<svg id="Layer_1" data-name="Layer 1" xmlns="http://www.w3.org/2000/svg" viewBox="0 0 120 370"><defs><style>.cls-1{fill:#111315;}.cls-2{fill:#0a0b0c;}.cls-3{fill:#8c0e0e;}.cls-4{fill:#f20303;}.cls-5{fill:#1e2022;}.cls-6{fill:#2c2d30;}.cls-7{fill:#ffa300;}.cls-8{fill:#333437;}.cls-9{fill:#1b1c1e;}.cls-10{fill:#101214;}.cls-11{fill:#5b0c06;}.cls-12{fill:#661608;}.cls-13{fill:#57585b;}.cls-14{fill:#2c2d31;}.cls-15{fill:#a50e0e;}.cls-16{fill:#222426;}.cls-17{fill:#36383b;}.cls-18{fill:#5d5d60;}.cls-19{fill:#d10707;}.cls-20{fill:#7c7d81;}.cls-21{fill:#3b3d40;}.cls-22{fill:#17191b;}.cls-23{fill:#54545a;}.cls-24{fill:#57595c;}.cls-25{fill:#606165;}.cls-26{fill:#313236;}.cls-27{fill:#5b1208;}.cls-28{fill:#252629;}.cls-29{fill:#292b2e;}.cls-30{fill:#8e0c0c;}.cls-31{fill:#292c2f;}.cls-32{fill:#141619;}.cls-33{fill:#202124;}.cls-34{fill:#18191b;}.cls-35{fill:#1a1b1d;}.cls-36{fill:#ffb600;}.cls-37{fill:#040505;}.cls-38{fill:#d11111;}.cls-39{fill:#ce0d0d;}.cls-40{fill:#131415;}.cls-41{fill:#1a1b1e;}.cls-42{fill:#2a2c2f;}.cls-43{fill:#161719;}.cls-44{fill:#161618;}.cls-45{fill:#141516;}.cls-46{fill:#282a2c;}.cls-47{fill:#101113;}.cls-48{fill:#181a1b;}.cls-49{fill:#25272a;}.cls-50{fill:#212223;}.cls-51{fill:#191a1b;}.cls-52{fill:#070708;}.cls-53{fill:#131416;}.cls-54{fill:#2d2e31;}.cls-55{fill:#0a0b0d;}.cls-56{fill:#161819;}.cls-57{fill:#303135;}.cls-58{fill:#0d0e0e;}.cls-59{fill:#313437;}.cls-60{fill:#34373b;}.cls-61{fill:#2e3033;}.cls-62{fill:#ff7900;}.cls-63{fill:#252628;}.cls-64{fill:#45484c;}.cls-65{fill:#333639;}.cls-66{fill:#191a1c;}.cls-67{fill:#464a4e;}.cls-68{fill:#2f3133;}.cls-69{fill:#303336;}.cls-70{fill:#37393d;}.cls-71{fill:#d36409;}.cls-72{fill:#3c4044;}.cls-73{fill:#2e2f32;}.cls-74{fill:#505155;}.cls-75{fill:#28292c;}.cls-76{fill:#212325;}.cls-77{fill:#540606;}.cls-78{fill:#1d1f21;}.cls-79{fill:#0b0c0d;}.cls-80{fill:#010101;}.cls-81{fill:#141618;}.cls-82{fill:#020202;}.cls-83{fill:#424345;}.cls-84{fill:#2c2d2f;}.cls-85{fill:#101112;}.cls-86{fill:#131516;}.cls-87{fill:#191b1d;}</style></defs><polygon class="cls-1" points="55.64 56.3 52.06 55.83 58.39 48.73 55.64 56.3"/><polygon class="cls-2" points="68.47 55.53 55.64 56.3 58.39 48.73 68.47 55.53"/><polygon class="cls-3" points="52.06 55.83 47.74 48.38 58.39 48.73 52.06 55.83"/><polygon class="cls-4" points="58.39 48.73 47.74 48.38 51.9 46.05 58.39 48.73"/><polygon class="cls-5" points="46.78 53.75 47.74 48.38 52.06 55.83 46.78 53.75"/><polygon class="cls-4" points="45.67 52.68 47.74 48.38 46.78 53.75 45.67 52.68"/><polygon class="cls-6" points="61.52 42.45 70.43 48.49 58.39 48.73 61.52 42.45"/><polygon class="cls-7" points="58.39 48.73 70.43 48.49 68.47 55.53 58.39 48.73"/><polygon class="cls-8" points="70.43 48.49 72.56 51.8 68.47 55.53 70.43 48.49"/><polygon class="cls-9" points="56.8 42.9 61.52 42.45 58.39 48.73 56.8 42.9"/><polygon class="cls-10" points="51.9 46.05 56.8 42.9 58.39 48.73 51.9 46.05"/><polygon class="cls-11" points="93.47 73.82 94.87 68.1 100.65 72.25 93.47 73.82"/><polygon class="cls-12" points="94.87 68.1 100.96 65.7 100.65 72.25 94.87 68.1"/><polygon class="cls-13" points="96.7 59.97 97.84 61.51 94.22 63.83 96.7 59.97"/><polygon class="cls-14" points="100.96 65.7 103.01 71.61 100.65 72.25 100.96 65.7"/><polygon class="cls-15" points="94.22 63.83 100.96 65.7 94.87 68.1 94.22 63.83"/><polygon class="cls-16" points="97.84 61.51 100.96 65.7 94.22 63.83 97.84 61.51"/><polygon class="cls-17" points="103.01 71.61 102.74 74.61 100.65 72.25 103.01 71.61"/><polygon class="cls-18" points="97.06 75.82 93.47 73.82 93.47 73.82 97.06 75.82"/><polygon class="cls-19" points="100.65 72.25 97.06 75.82 93.47 73.82 100.65 72.25"/><polygon class="cls-7" points="102.74 74.61 97.06 75.82 100.65 72.25 102.74 74.61"/><polygon class="cls-7" points="81.63 64.47 90.61 59.91 94.22 63.83 81.63 64.47"/><polygon class="cls-20" points="89.78 74.72 88.07 75.33 90.61 73.84 89.78 74.72"/><polygon class="cls-21" points="91.86 74.52 90.61 73.84 93.47 73.82 91.86 74.52"/><polygon class="cls-22" points="81.06 73.44 78.44 72.12 82.25 73.13 81.06 73.44"/><polygon class="cls-23" points="81.61 64.47 90.61 59.91 81.63 64.47 81.61 64.47"/><polygon class="cls-24" points="95.4 59.56 96.7 59.97 94.22 63.83 95.4 59.56"/><polygon class="cls-25" points="90.61 59.91 95.4 59.56 94.22 63.83 90.61 59.91"/><polygon class="cls-26" points="93.47 73.82 90.61 73.84 93.47 73.82 93.47 73.82"/><polygon class="cls-27" points="94.87 68.1 81.63 64.47 94.22 63.83 94.87 68.1"/><polygon class="cls-28" points="88.07 75.33 82.25 73.13 90.61 73.84 88.07 75.33"/><polygon class="cls-29" points="81.63 64.47 82.25 73.13 81.61 64.47 81.63 64.47"/><polygon class="cls-19" points="94.87 68.1 82.25 73.13 81.63 64.47 94.87 68.1"/><polygon class="cls-15" points="81.61 64.47 82.25 73.13 77.54 68.9 81.61 64.47"/><polygon class="cls-30" points="90.61 73.84 82.25 73.13 94.87 68.1 90.61 73.84"/><polygon class="cls-12" points="93.47 73.82 90.61 73.84 94.87 68.1 93.47 73.82"/><polygon class="cls-31" points="82.25 73.13 78.44 72.12 77.54 68.9 82.25 73.13"/><polygon class="cls-11" points="69.48 100.95 70.89 95.23 76.67 99.38 69.48 100.95"/><polygon class="cls-12" points="70.89 95.23 76.98 92.83 76.67 99.38 70.89 95.23"/><polygon class="cls-13" points="72.72 87.1 73.86 88.64 70.24 90.95 72.72 87.1"/><polygon class="cls-14" points="76.98 92.83 79.03 98.74 76.67 99.38 76.98 92.83"/><polygon class="cls-15" points="70.24 90.95 76.98 92.83 70.89 95.23 70.24 90.95"/><polygon class="cls-16" points="73.86 88.64 76.98 92.83 70.24 90.95 73.86 88.64"/><polygon class="cls-17" points="79.03 98.74 78.76 101.74 76.67 99.38 79.03 98.74"/><polygon class="cls-18" points="73.07 102.95 69.48 100.95 69.48 100.95 73.07 102.95"/><polygon class="cls-19" points="76.67 99.38 73.07 102.95 69.48 100.95 76.67 99.38"/><polygon class="cls-7" points="78.76 101.74 73.07 102.95 76.67 99.38 78.76 101.74"/><polygon class="cls-7" points="57.64 91.6 66.63 87.04 70.24 90.95 57.64 91.6"/><polygon class="cls-20" points="65.79 101.85 64.09 102.47 66.63 100.97 65.79 101.85"/><polygon class="cls-21" points="67.87 101.65 66.63 100.97 69.48 100.95 67.87 101.65"/><polygon class="cls-22" points="57.07 100.56 54.45 99.25 58.27 100.26 57.07 100.56"/><polygon class="cls-23" points="57.63 91.61 66.63 87.04 57.64 91.6 57.63 91.61"/><polygon class="cls-24" points="71.42 86.69 72.72 87.1 70.24 90.95 71.42 86.69"/><polygon class="cls-25" points="66.63 87.04 71.42 86.69 70.24 90.95 66.63 87.04"/><polygon class="cls-26" points="69.48 100.95 66.63 100.97 69.48 100.95 69.48 100.95"/><polygon class="cls-27" points="70.89 95.23 57.64 91.6 70.24 90.95 70.89 95.23"/><polygon class="cls-28" points="64.09 102.47 58.27 100.26 66.63 100.97 64.09 102.47"/><polygon class="cls-29" points="57.64 91.6 58.27 100.26 57.63 91.61 57.64 91.6"/><polygon class="cls-19" points="70.89 95.23 58.27 100.26 57.64 91.6 70.89 95.23"/><polygon class="cls-15" points="57.63 91.61 58.27 100.26 53.56 96.03 57.63 91.61"/><polygon class="cls-30" points="66.63 100.97 58.27 100.26 70.89 95.23 66.63 100.97"/><polygon class="cls-12" points="69.48 100.95 66.63 100.97 70.89 95.23 69.48 100.95"/><polygon class="cls-31" points="58.27 100.26 54.45 99.25 53.56 96.03 58.27 100.26"/><polygon class="cls-11" points="35.88 100.68 40.05 98.33 40.93 103.92 35.88 100.68"/><polygon class="cls-12" points="40.05 98.33 44.95 100.49 40.93 103.92 40.05 98.33"/><polygon class="cls-13" points="45.88 94.9 45.63 96.39 42.19 95.6 45.88 94.9"/><polygon class="cls-14" points="44.95 100.49 42.66 104.91 40.93 103.92 44.95 100.49"/><polygon class="cls-15" points="42.19 95.6 44.95 100.49 40.05 98.33 42.19 95.6"/><polygon class="cls-16" points="45.63 96.39 44.95 100.49 42.19 95.6 45.63 96.39"/><polygon class="cls-17" points="42.66 104.91 40.74 106.41 40.93 103.92 42.66 104.91"/><polygon class="cls-18" points="36.77 103.83 35.88 100.68 35.88 100.68 36.77 103.83"/><polygon class="cls-19" points="40.93 103.92 36.77 103.83 35.88 100.68 40.93 103.92"/><polygon class="cls-7" points="40.74 106.41 36.77 103.83 40.93 103.92 40.74 106.41"/><polygon class="cls-7" points="34.6 88.76 42.43 91.38 42.19 95.6 34.6 88.76"/><polygon class="cls-20" points="33.24 99.07 31.91 98.43 34.23 99.06 33.24 99.07"/><polygon class="cls-21" points="34.55 100.14 34.23 99.06 35.88 100.68 34.55 100.14"/><polygon class="cls-22" points="29 93.38 28.27 91.16 29.86 93.89 29 93.38"/><polygon class="cls-23" points="34.59 88.76 42.43 91.38 34.6 88.76 34.59 88.76"/><polygon class="cls-24" points="45.38 93.92 45.88 94.9 42.19 95.6 45.38 93.92"/><polygon class="cls-25" points="42.43 91.38 45.38 93.92 42.19 95.6 42.43 91.38"/><polygon class="cls-26" points="35.88 100.68 34.23 99.06 35.88 100.68 35.88 100.68"/><polygon class="cls-27" points="40.05 98.33 34.6 88.76 42.19 95.6 40.05 98.33"/><polygon class="cls-28" points="31.91 98.43 29.86 93.89 34.23 99.06 31.91 98.43"/><polygon class="cls-29" points="34.6 88.76 29.86 93.89 34.59 88.76 34.6 88.76"/><polygon class="cls-19" points="40.05 98.33 29.86 93.89 34.6 88.76 40.05 98.33"/><polygon class="cls-15" points="34.59 88.76 29.86 93.89 29.65 88.87 34.59 88.76"/><polygon class="cls-30" points="34.23 99.06 29.86 93.89 40.05 98.33 34.23 99.06"/><polygon class="cls-12" points="35.88 100.68 34.23 99.06 40.05 98.33 35.88 100.68"/><polygon class="cls-31" points="29.86 93.89 28.27 91.16 29.65 88.87 29.86 93.89"/><polygon class="cls-11" points="44.37 192.94 48.54 190.59 49.41 196.18 44.37 192.94"/><polygon class="cls-12" points="48.54 190.59 53.43 192.74 49.41 196.18 48.54 190.59"/><polygon class="cls-13" points="54.36 187.16 54.11 188.65 50.68 187.86 54.36 187.16"/><polygon class="cls-14" points="53.43 192.74 51.14 197.17 49.41 196.18 53.43 192.74"/><polygon class="cls-15" points="50.68 187.86 53.43 192.74 48.54 190.59 50.68 187.86"/><polygon class="cls-16" points="54.11 188.65 53.43 192.74 50.68 187.86 54.11 188.65"/><polygon class="cls-17" points="51.14 197.17 49.22 198.66 49.41 196.18 51.14 197.17"/><polygon class="cls-18" points="45.25 196.09 44.37 192.94 44.37 192.94 45.25 196.09"/><polygon class="cls-19" points="49.41 196.18 45.25 196.09 44.37 192.94 49.41 196.18"/><polygon class="cls-7" points="49.22 198.66 45.25 196.09 49.41 196.18 49.22 198.66"/><polygon class="cls-7" points="43.08 181.02 50.91 183.64 50.68 187.86 43.08 181.02"/><polygon class="cls-20" points="41.73 191.32 40.39 190.69 42.72 191.31 41.73 191.32"/><polygon class="cls-21" points="43.04 192.4 42.72 191.31 44.37 192.94 43.04 192.4"/><polygon class="cls-22" points="37.48 185.63 36.76 183.41 38.35 186.15 37.48 185.63"/><polygon class="cls-23" points="43.07 181.02 50.91 183.64 43.08 181.02 43.07 181.02"/><polygon class="cls-24" points="53.86 186.18 54.36 187.16 50.68 187.86 53.86 186.18"/><polygon class="cls-25" points="50.91 183.64 53.86 186.18 50.68 187.86 50.91 183.64"/><polygon class="cls-26" points="44.37 192.94 42.72 191.31 44.37 192.94 44.37 192.94"/><polygon class="cls-27" points="48.54 190.59 43.08 181.02 50.68 187.86 48.54 190.59"/><polygon class="cls-28" points="40.39 190.69 38.35 186.15 42.72 191.31 40.39 190.69"/><polygon class="cls-29" points="43.08 181.02 38.35 186.15 43.07 181.02 43.08 181.02"/><polygon class="cls-19" points="48.54 190.59 38.35 186.15 43.08 181.02 48.54 190.59"/><polygon class="cls-15" points="43.07 181.02 38.35 186.15 38.14 181.13 43.07 181.02"/><polygon class="cls-30" points="42.72 191.31 38.35 186.15 48.54 190.59 42.72 191.31"/><polygon class="cls-12" points="44.37 192.94 42.72 191.31 48.54 190.59 44.37 192.94"/><polygon class="cls-31" points="38.35 186.15 36.76 183.41 38.14 181.13 38.35 186.15"/><polygon class="cls-32" points="80.14 52.53 82.98 52.76 81.18 52.94 80.14 52.53"/><polygon class="cls-33" points="81.18 52.94 82.98 52.76 84.07 55.56 81.18 52.94"/><polygon class="cls-34" points="82.98 52.76 86.38 55.07 84.07 55.56 82.98 52.76"/><polygon class="cls-35" points="78.8 53.65 80.14 52.53 81.18 52.94 78.8 53.65"/><polygon class="cls-16" points="87.19 56.33 85.63 57.75 86.38 55.07 87.19 56.33"/><polygon class="cls-19" points="76.61 55.65 78.8 53.65 79.9 56.11 76.61 55.65"/><polygon class="cls-15" points="79.9 56.11 78.8 53.65 84.07 55.56 79.9 56.11"/><polygon class="cls-36" points="84.07 55.56 78.8 53.65 81.18 52.94 84.07 55.56"/><polygon class="cls-37" points="79.37 57.87 77.02 56.94 79.9 56.11 79.37 57.87"/><polygon class="cls-11" points="79.9 56.11 77.02 56.94 76.61 55.65 79.9 56.11"/><polygon class="cls-38" points="80.74 58.05 79.37 57.87 79.9 56.11 80.74 58.05"/><polygon class="cls-15" points="84.07 55.56 80.74 58.05 79.9 56.11 84.07 55.56"/><polygon class="cls-39" points="85.63 57.75 83.48 58.07 84.07 55.56 85.63 57.75"/><polygon class="cls-4" points="83.48 58.07 80.74 58.05 84.07 55.56 83.48 58.07"/><polygon class="cls-30" points="86.38 55.07 85.63 57.75 84.07 55.56 86.38 55.07"/><polygon class="cls-32" points="27.31 76.95 30.15 77.18 28.35 77.35 27.31 76.95"/><polygon class="cls-33" points="28.35 77.35 30.15 77.18 31.23 79.97 28.35 77.35"/><polygon class="cls-34" points="30.15 77.18 33.55 79.48 31.23 79.97 30.15 77.18"/><polygon class="cls-35" points="25.97 78.07 27.31 76.95 28.35 77.35 25.97 78.07"/><polygon class="cls-16" points="34.36 80.75 32.8 82.17 33.55 79.48 34.36 80.75"/><polygon class="cls-19" points="23.78 80.06 25.97 78.07 27.07 80.53 23.78 80.06"/><polygon class="cls-15" points="27.07 80.53 25.97 78.07 31.23 79.97 27.07 80.53"/><polygon class="cls-36" points="31.23 79.97 25.97 78.07 28.35 77.35 31.23 79.97"/><polygon class="cls-37" points="26.54 82.28 24.19 81.36 27.07 80.53 26.54 82.28"/><polygon class="cls-11" points="27.07 80.53 24.19 81.36 23.78 80.06 27.07 80.53"/><polygon class="cls-38" points="27.91 82.47 26.54 82.28 27.07 80.53 27.91 82.47"/><polygon class="cls-15" points="31.23 79.97 27.91 82.47 27.07 80.53 31.23 79.97"/><polygon class="cls-39" points="32.8 82.17 30.65 82.49 31.23 79.97 32.8 82.17"/><polygon class="cls-4" points="30.65 82.49 27.91 82.47 31.23 79.97 30.65 82.49"/><polygon class="cls-30" points="33.55 79.48 32.8 82.17 31.23 79.97 33.55 79.48"/><polygon class="cls-1" points="99.73 99.54 95.86 103.03 93.97 89.42 99.73 99.54"/><polygon class="cls-2" points="110.88 84.7 99.73 99.54 93.97 89.42 110.88 84.7"/><polygon class="cls-3" points="95.86 103.03 83.61 100.81 93.97 89.42 95.86 103.03"/><polygon class="cls-4" points="93.97 89.42 83.61 100.81 84.94 94.06 93.97 89.42"/><polygon class="cls-5" points="88.63 106.9 83.61 100.81 95.86 103.03 88.63 106.9"/><polygon class="cls-4" points="86.41 107.12 83.61 100.81 88.63 106.9 86.41 107.12"/><polygon class="cls-6" points="89.99 80.1 104.97 75.95 93.97 89.42 89.99 80.1"/><polygon class="cls-7" points="93.97 89.42 104.97 75.95 110.88 84.7 93.97 89.42"/><polygon class="cls-8" points="104.97 75.95 110.6 76.71 110.88 84.7 104.97 75.95"/><polygon class="cls-9" points="86.07 85.72 89.99 80.1 93.97 89.42 86.07 85.72"/><polygon class="cls-10" points="84.94 94.06 86.07 85.72 93.97 89.42 84.94 94.06"/><polygon class="cls-11" points="87.95 152.53 89.32 146.94 94.97 151 87.95 152.53"/><polygon class="cls-12" points="89.32 146.94 95.27 144.59 94.97 151 89.32 146.94"/><polygon class="cls-13" points="91.11 138.99 92.22 140.49 88.68 142.76 91.11 138.99"/><polygon class="cls-14" points="95.27 144.59 97.28 150.37 94.97 151 95.27 144.59"/><polygon class="cls-15" points="88.68 142.76 95.27 144.59 89.32 146.94 88.68 142.76"/><polygon class="cls-16" points="92.22 140.49 95.27 144.59 88.68 142.76 92.22 140.49"/><polygon class="cls-17" points="97.28 150.37 97.01 153.3 94.97 151 97.28 150.37"/><polygon class="cls-18" points="91.45 154.48 87.95 152.53 87.95 152.53 91.45 154.48"/><polygon class="cls-19" points="94.97 151 91.45 154.48 87.95 152.53 94.97 151"/><polygon class="cls-7" points="97.01 153.3 91.45 154.48 94.97 151 97.01 153.3"/><polygon class="cls-7" points="76.37 143.39 85.15 138.93 88.68 142.76 76.37 143.39"/><polygon class="cls-20" points="84.34 153.41 82.67 154.01 85.15 152.55 84.34 153.41"/><polygon class="cls-21" points="86.37 153.21 85.15 152.55 87.95 152.53 86.37 153.21"/><polygon class="cls-22" points="75.81 152.15 73.25 150.87 76.98 151.85 75.81 152.15"/><polygon class="cls-23" points="76.36 143.39 85.15 138.93 76.37 143.39 76.36 143.39"/><polygon class="cls-24" points="89.83 138.59 91.11 138.99 88.68 142.76 89.83 138.59"/><polygon class="cls-25" points="85.15 138.93 89.83 138.59 88.68 142.76 85.15 138.93"/><polygon class="cls-26" points="87.95 152.53 85.15 152.55 87.95 152.53 87.95 152.53"/><polygon class="cls-27" points="89.32 146.94 76.37 143.39 88.68 142.76 89.32 146.94"/><polygon class="cls-28" points="82.67 154.01 76.98 151.85 85.15 152.55 82.67 154.01"/><polygon class="cls-29" points="76.37 143.39 76.98 151.85 76.36 143.39 76.37 143.39"/><polygon class="cls-19" points="89.32 146.94 76.98 151.85 76.37 143.39 89.32 146.94"/><polygon class="cls-15" points="76.36 143.39 76.98 151.85 72.38 147.72 76.36 143.39"/><polygon class="cls-30" points="85.15 152.55 76.98 151.85 89.32 146.94 85.15 152.55"/><polygon class="cls-12" points="87.95 152.53 85.15 152.55 89.32 146.94 87.95 152.53"/><polygon class="cls-31" points="76.98 151.85 73.25 150.87 72.38 147.72 76.98 151.85"/><polygon class="cls-11" points="34.59 110.45 28.78 114.06 27.12 106.24 34.59 110.45"/><polygon class="cls-12" points="28.78 114.06 21.59 111.36 27.12 106.24 28.78 114.06"/><polygon class="cls-13" points="20.67 119.31 20.92 117.18 25.91 118.06 20.67 119.31"/><polygon class="cls-14" points="21.59 111.36 24.56 104.95 27.12 106.24 21.59 111.36"/><polygon class="cls-15" points="25.91 118.06 21.59 111.36 28.78 114.06 25.91 118.06"/><polygon class="cls-16" points="20.92 117.18 21.59 111.36 25.91 118.06 20.92 117.18"/><polygon class="cls-17" points="24.56 104.95 27.21 102.71 27.12 106.24 24.56 104.95"/><polygon class="cls-18" points="33.09 106.07 34.59 110.45 34.59 110.45 33.09 106.07"/><polygon class="cls-19" points="27.12 106.24 33.09 106.07 34.59 110.45 27.12 106.24"/><polygon class="cls-7" points="27.21 102.71 33.09 106.07 27.12 106.24 27.21 102.71"/><polygon class="cls-7" points="37.3 127.18 25.88 124.03 25.91 118.06 37.3 127.18"/><polygon class="cls-20" points="38.5 112.54 40.47 113.35 37.08 112.63 38.5 112.54"/><polygon class="cls-21" points="36.54 111.12 37.08 112.63 34.59 110.45 36.54 111.12"/><polygon class="cls-22" points="45 120.28 46.21 123.36 43.73 119.61 45 120.28"/><polygon class="cls-23" points="37.32 127.19 25.88 124.03 37.3 127.18 37.32 127.19"/><polygon class="cls-24" points="21.46 120.65 20.67 119.31 25.91 118.06 21.46 120.65"/><polygon class="cls-25" points="25.88 124.03 21.46 120.65 25.91 118.06 25.88 124.03"/><polygon class="cls-26" points="34.59 110.45 37.08 112.63 34.59 110.45 34.59 110.45"/><polygon class="cls-27" points="28.78 114.06 37.3 127.18 25.91 118.06 28.78 114.06"/><polygon class="cls-28" points="40.47 113.35 43.73 119.61 37.08 112.63 40.47 113.35"/><polygon class="cls-29" points="37.3 127.18 43.73 119.61 37.32 127.19 37.3 127.18"/><polygon class="cls-19" points="28.78 114.06 43.73 119.61 37.3 127.18 28.78 114.06"/><polygon class="cls-15" points="37.32 127.19 43.73 119.61 44.39 126.68 37.32 127.19"/><polygon class="cls-30" points="37.08 112.63 43.73 119.61 28.78 114.06 37.08 112.63"/><polygon class="cls-12" points="34.59 110.45 37.08 112.63 28.78 114.06 34.59 110.45"/><polygon class="cls-31" points="43.73 119.61 46.21 123.36 44.39 126.68 43.73 119.61"/><polygon class="cls-40" points="72.42 72.83 74.82 81.53 62.74 76.75 72.42 72.83"/><polygon class="cls-41" points="76.4 80.82 74.82 81.53 77.72 77.51 76.4 80.82"/><polygon class="cls-42" points="45.03 64.9 58.91 65.93 43.53 70.47 45.03 64.9"/><polygon class="cls-43" points="54.46 84.72 43.53 70.47 62.74 76.75 54.46 84.72"/><polygon class="cls-44" points="77.72 77.51 74.82 81.53 72.42 72.83 77.72 77.51"/><polygon class="cls-45" points="62.74 76.75 67.14 64.8 72.42 72.83 62.74 76.75"/><polygon class="cls-46" points="67.14 64.8 73.69 71.17 72.42 72.83 67.14 64.8"/><polygon class="cls-12" points="73.69 71.17 77.72 77.51 72.42 72.83 73.69 71.17"/><polygon class="cls-39" points="43.53 70.47 58.91 65.93 62.74 76.75 43.53 70.47"/><polygon class="cls-47" points="58.91 65.93 67.14 64.8 62.74 76.75 58.91 65.93"/><polygon class="cls-48" points="43.91 88.31 37.53 79.44 54.46 84.72 43.91 88.31"/><polygon class="cls-49" points="54.46 84.72 37.53 79.44 43.53 70.47 54.46 84.72"/><polygon class="cls-50" points="56.15 88.49 43.91 88.31 54.46 84.72 56.15 88.49"/><polygon class="cls-51" points="62.74 76.75 56.15 88.49 54.46 84.72 62.74 76.75"/><polygon class="cls-11" points="74.82 81.53 56.15 88.49 62.74 76.75 74.82 81.53"/><polygon class="cls-40" points="17.33 67.99 9.86 62.92 22.16 58.72 17.33 67.99"/><polygon class="cls-41" points="9.12 64.48 9.86 62.92 10.26 67.86 9.12 64.48"/><polygon class="cls-42" points="43.32 56.27 32.09 64.48 40.85 51.05 43.32 56.27"/><polygon class="cls-43" points="23.3 47.29 40.85 51.05 22.16 58.72 23.3 47.29"/><polygon class="cls-44" points="10.26 67.86 9.86 62.92 17.33 67.99 10.26 67.86"/><polygon class="cls-45" points="22.16 58.72 26.56 70.67 17.33 67.99 22.16 58.72"/><polygon class="cls-46" points="26.56 70.67 17.44 70.07 17.33 67.99 26.56 70.67"/><polygon class="cls-12" points="17.44 70.07 10.26 67.86 17.33 67.99 17.44 70.07"/><polygon class="cls-39" points="40.85 51.05 32.09 64.48 22.16 58.72 40.85 51.05"/><polygon class="cls-47" points="32.09 64.48 26.56 70.67 22.16 58.72 32.09 64.48"/><polygon class="cls-48" points="29 37.72 39.61 40.34 23.3 47.29 29 37.72"/><polygon class="cls-49" points="23.3 47.29 39.61 40.34 40.85 51.05 23.3 47.29"/><polygon class="cls-50" points="19.56 45.52 29 37.72 23.3 47.29 19.56 45.52"/><polygon class="cls-51" points="22.16 58.72 19.56 45.52 23.3 47.29 22.16 58.72"/><polygon class="cls-11" points="9.86 62.92 19.56 45.52 22.16 58.72 9.86 62.92"/><polygon class="cls-40" points="30.04 14.47 34.7 6.73 39.55 18.79 30.04 14.47"/><polygon class="cls-41" points="33.1 6.08 34.7 6.73 29.79 7.4 33.1 6.08"/><polygon class="cls-42" points="43.15 39.79 34.34 29.02 48.22 37.05 43.15 39.79"/><polygon class="cls-43" points="51.03 19.32 48.22 37.05 39.55 18.79 51.03 19.32"/><polygon class="cls-44" points="29.79 7.4 34.7 6.73 30.04 14.47 29.79 7.4"/><polygon class="cls-45" points="39.55 18.79 27.86 23.83 30.04 14.47 39.55 18.79"/><polygon class="cls-46" points="27.86 23.83 27.97 14.69 30.04 14.47 27.86 23.83"/><polygon class="cls-12" points="27.97 14.69 29.79 7.4 30.04 14.47 27.97 14.69"/><polygon class="cls-39" points="48.22 37.05 34.34 29.02 39.55 18.79 48.22 37.05"/><polygon class="cls-47" points="34.34 29.02 27.86 23.83 39.55 18.79 34.34 29.02"/><polygon class="cls-48" points="60.9 24.49 58.85 35.23 51.03 19.32 60.9 24.49"/><polygon class="cls-49" points="51.03 19.32 58.85 35.23 48.22 37.05 51.03 19.32"/><polygon class="cls-50" points="52.6 15.49 60.9 24.49 51.03 19.32 52.6 15.49"/><polygon class="cls-51" points="39.55 18.79 52.6 15.49 51.03 19.32 39.55 18.79"/><polygon class="cls-11" points="34.7 6.73 52.6 15.49 39.55 18.79 34.7 6.73"/><polygon class="cls-52" points="51.22 308.15 51.22 308.15 51.22 308.15 51.22 308.15"/><polygon class="cls-53" points="51.22 308.15 56.55 310.19 51.22 308.15 51.22 308.15"/><polygon class="cls-52" points="51.22 308.15 51.22 308.15 51.22 308.15 51.22 308.15"/><polygon class="cls-54" points="53.02 315.55 56.55 310.19 57.62 316.14 53.02 315.55"/><polygon class="cls-55" points="51.22 308.15 56.55 310.19 53.02 315.55 51.22 308.15"/><polygon class="cls-56" points="56.55 310.19 60.83 313.29 57.62 316.14 56.55 310.19"/><polygon class="cls-57" points="42.71 312.48 51.22 308.15 51.22 308.15 42.71 312.48"/><polygon class="cls-14" points="51.22 308.15 42.71 312.48 51.22 308.15 51.22 308.15"/><polygon points="50.7 319.99 47.58 319.37 47.58 319.37 50.7 319.99"/><polygon class="cls-58" points="53.2 317.17 50.7 319.99 47.58 319.37 53.2 317.17"/><polygon class="cls-59" points="47.58 319.37 42.71 312.48 47.58 319.37 47.58 319.37"/><polygon class="cls-60" points="58.03 318.38 50.7 319.99 53.2 317.17 58.03 318.38"/><polygon class="cls-61" points="51.22 308.15 42.71 312.48 51.22 308.15 51.22 308.15"/><polygon class="cls-7" points="53.02 315.55 42.71 312.48 51.22 308.15 53.02 315.55"/><polygon class="cls-62" points="47.58 319.37 42.71 312.48 53.02 315.55 47.58 319.37"/><polygon class="cls-26" points="57.62 316.14 58.03 318.38 53.2 317.17 57.62 316.14"/><polygon class="cls-63" points="47.58 319.37 53.02 315.55 53.2 317.17 47.58 319.37"/><polygon class="cls-61" points="53.02 315.55 57.62 316.14 53.2 317.17 53.02 315.55"/><polygon class="cls-64" points="43.13 234.74 55.04 237.36 44.38 235.17 43.13 234.74"/><polygon class="cls-7" points="45.64 242.43 56.92 248.12 40.33 249.56 45.64 242.43"/><polygon class="cls-62" points="56.92 248.12 43.64 254.68 40.33 249.56 56.92 248.12"/><polygon class="cls-65" points="40.33 249.56 43.64 254.68 35.67 253.52 40.33 249.56"/><polygon class="cls-66" points="60.64 242.21 56.92 248.12 45.64 242.43 60.64 242.21"/><polygon class="cls-67" points="35.67 253.52 33.28 251.11 40.33 249.56 35.67 253.52"/><polygon class="cls-68" points="40.62 241.65 43.13 234.74 44.38 235.17 40.62 241.65"/><polygon class="cls-7" points="45.64 242.43 40.33 249.56 40.62 241.65 45.64 242.43"/><polygon class="cls-69" points="44.38 235.17 45.64 242.43 40.62 241.65 44.38 235.17"/><polygon class="cls-70" points="36.74 236.32 38.79 235.12 40.62 241.65 36.74 236.32"/><polygon class="cls-71" points="40.33 249.56 33.44 249.91 40.62 241.65 40.33 249.56"/><polygon class="cls-11" points="33.44 249.91 36.74 236.32 40.62 241.65 33.44 249.91"/><polygon class="cls-72" points="33.28 251.11 33.44 249.91 40.33 249.56 33.28 251.11"/><polygon class="cls-7" points="44.38 235.17 55.04 237.36 45.64 242.43 44.38 235.17"/><polygon class="cls-11" points="55.04 237.36 60.64 242.21 45.64 242.43 55.04 237.36"/><polygon class="cls-73" points="38.79 235.12 43.13 234.74 40.62 241.65 38.79 235.12"/><polygon class="cls-11" points="54.6 359.38 55.68 358.78 56.25 361.84 54.6 359.38"/><polygon class="cls-15" points="68.09 356.36 55.68 358.78 59.24 353.56 68.09 356.36"/><polygon class="cls-30" points="54.74 357.92 54.55 355.62 55.68 358.78 54.74 357.92"/><polygon class="cls-74" points="55.68 358.78 54.55 355.62 59.24 353.56 55.68 358.78"/><polygon class="cls-55" points="56.25 361.84 55.68 358.78 62.55 363.92 56.25 361.84"/><polygon class="cls-75" points="70.09 361.61 67.86 362.3 70.34 358.82 70.09 361.61"/><polygon class="cls-76" points="67.86 362.3 55.68 358.78 68.09 356.36 67.86 362.3"/><polygon class="cls-6" points="70.34 358.82 67.86 362.3 68.09 356.36 70.34 358.82"/><polygon class="cls-77" points="62.55 363.92 55.68 358.78 67.86 362.3 62.55 363.92"/><polygon class="cls-11" points="102.44 196.71 102.27 195.94 104.44 196.41 102.44 196.71"/><polygon class="cls-15" points="103.26 188.16 102.27 195.94 99.52 192.52 103.26 188.16"/><polygon class="cls-30" points="101.49 196.25 99.91 195.75 102.27 195.94 101.49 196.25"/><polygon class="cls-74" points="102.27 195.94 99.91 195.75 99.52 192.52 102.27 195.94"/><polygon class="cls-55" points="104.44 196.41 102.27 195.94 107.16 193.32 104.44 196.41"/><polygon class="cls-75" points="107.2 188.38 107.2 189.84 105.39 187.5 107.2 188.38"/><polygon class="cls-76" points="107.2 189.84 102.27 195.94 103.26 188.16 107.2 189.84"/><polygon class="cls-6" points="105.39 187.5 107.2 189.84 103.26 188.16 105.39 187.5"/><polygon class="cls-77" points="107.16 193.32 102.27 195.94 107.2 189.84 107.16 193.32"/><polygon class="cls-11" points="14.81 179.76 15.89 179.05 16.43 182.64 14.81 179.76"/><polygon class="cls-15" points="28.34 176.06 15.89 179.05 19.52 172.88 28.34 176.06"/><polygon class="cls-30" points="14.96 178.05 14.8 175.35 15.89 179.05 14.96 178.05"/><polygon class="cls-74" points="15.89 179.05 14.8 175.35 19.52 172.88 15.89 179.05"/><polygon class="cls-55" points="16.43 182.64 15.89 179.05 22.7 185.01 16.43 182.64"/><polygon class="cls-75" points="30.28 182.21 28.04 183.05 30.57 178.93 30.28 182.21"/><polygon class="cls-76" points="28.04 183.05 15.89 179.05 28.34 176.06 28.04 183.05"/><polygon class="cls-6" points="30.57 178.93 28.04 183.05 28.34 176.06 30.57 178.93"/><polygon class="cls-77" points="22.7 185.01 15.89 179.05 28.04 183.05 22.7 185.01"/><polygon class="cls-32" points="9.93 92.68 12.73 90.39 11.45 92.12 9.93 92.68"/><polygon class="cls-33" points="11.45 92.12 12.73 90.39 17.96 91.84 11.45 92.12"/><polygon class="cls-34" points="12.73 90.39 19.2 89.39 17.96 91.84 12.73 90.39"/><polygon class="cls-35" points="10.5 94.82 9.93 92.68 11.45 92.12 10.5 94.82"/><polygon class="cls-16" points="21.83 89.77 22.68 92.36 19.2 89.39 21.83 89.77"/><polygon class="cls-19" points="11.69 98.45 10.5 94.82 15.23 95.97 11.69 98.45"/><polygon class="cls-15" points="15.23 95.97 10.5 94.82 17.96 91.84 15.23 95.97"/><polygon class="cls-36" points="17.96 91.84 10.5 94.82 11.45 92.12 17.96 91.84"/><polygon class="cls-37" points="17.48 97.94 14.04 99.2 15.23 95.97 17.48 97.94"/><polygon class="cls-11" points="15.23 95.97 14.04 99.2 11.69 98.45 15.23 95.97"/><polygon class="cls-38" points="18.93 96.9 17.48 97.94 15.23 95.97 18.93 96.9"/><polygon class="cls-15" points="17.96 91.84 18.93 96.9 15.23 95.97 17.96 91.84"/><polygon class="cls-39" points="22.68 92.36 21.32 94.52 17.96 91.84 22.68 92.36"/><polygon class="cls-4" points="21.32 94.52 18.93 96.9 17.96 91.84 21.32 94.52"/><polygon class="cls-30" points="19.2 89.39 22.68 92.36 17.96 91.84 19.2 89.39"/><polygon class="cls-78" points="75.84 314.39 80.5 311.01 77.6 316.45 75.84 314.39"/><polygon class="cls-79" points="86.2 313.37 88.1 318.41 84.76 320.41 86.2 313.37"/><polygon class="cls-80" points="88.1 318.41 86.29 319.94 84.76 320.41 88.1 318.41"/><polygon class="cls-81" points="77.6 316.45 86.2 313.37 84.76 320.41 77.6 316.45"/><polygon class="cls-78" points="80.5 311.01 86.2 313.37 77.6 316.45 80.5 311.01"/><polygon class="cls-82" points="86.29 319.94 87.28 321.37 84.76 320.41 86.29 319.94"/><polygon class="cls-19" points="84.76 320.41 81.57 323.91 76.01 323.26 84.76 320.41"/><polygon class="cls-83" points="86.89 323.39 81.57 323.91 84.76 320.41 86.89 323.39"/><polygon class="cls-19" points="87.28 321.37 86.89 323.39 84.76 320.41 87.28 321.37"/><polygon class="cls-84" points="84.76 320.41 76.01 323.26 77.6 316.45 84.76 320.41"/><polygon class="cls-85" points="89 314.96 88.1 318.41 86.2 313.37 89 314.96"/><polygon class="cls-86" points="76.01 323.26 73.13 319.29 77.6 316.45 76.01 323.26"/><polygon class="cls-87" points="73.13 319.29 75.84 314.39 77.6 316.45 73.13 319.29"/><polygon class="cls-78" points="94.29 267.41 98.95 264.02 96.06 269.46 94.29 267.41"/><polygon class="cls-79" points="104.65 266.39 106.56 271.43 103.22 273.42 104.65 266.39"/><polygon class="cls-80" points="106.56 271.43 104.75 272.95 103.22 273.42 106.56 271.43"/><polygon class="cls-81" points="96.06 269.46 104.65 266.39 103.22 273.42 96.06 269.46"/><polygon class="cls-78" points="98.95 264.02 104.65 266.39 96.06 269.46 98.95 264.02"/><polygon class="cls-82" points="104.75 272.95 105.74 274.38 103.22 273.42 104.75 272.95"/><polygon class="cls-19" points="103.22 273.42 100.03 276.92 94.47 276.28 103.22 273.42"/><polygon class="cls-83" points="105.35 276.4 100.03 276.92 103.22 273.42 105.35 276.4"/><polygon class="cls-19" points="105.74 274.38 105.35 276.4 103.22 273.42 105.74 274.38"/><polygon class="cls-84" points="103.22 273.42 94.47 276.28 96.06 269.46 103.22 273.42"/><polygon class="cls-85" points="107.46 267.98 106.56 271.43 104.65 266.39 107.46 267.98"/><polygon class="cls-86" points="94.47 276.28 91.58 272.3 96.06 269.46 94.47 276.28"/><polygon class="cls-87" points="91.58 272.3 94.29 267.41 96.06 269.46 91.58 272.3"/><polygon class="cls-78" points="19.96 269.36 24.62 265.98 21.73 271.41 19.96 269.36"/><polygon class="cls-79" points="30.32 268.34 32.23 273.38 28.88 275.37 30.32 268.34"/><polygon class="cls-80" points="32.23 273.38 30.41 274.9 28.88 275.37 32.23 273.38"/><polygon class="cls-81" points="21.73 271.41 30.32 268.34 28.88 275.37 21.73 271.41"/><polygon class="cls-78" points="24.62 265.98 30.32 268.34 21.73 271.41 24.62 265.98"/><polygon class="cls-82" points="30.41 274.9 31.41 276.33 28.88 275.37 30.41 274.9"/><polygon class="cls-19" points="28.88 275.37 25.69 278.87 20.14 278.23 28.88 275.37"/><polygon class="cls-83" points="31.01 278.36 25.69 278.87 28.88 275.37 31.01 278.36"/><polygon class="cls-19" points="31.41 276.33 31.01 278.36 28.88 275.37 31.41 276.33"/><polygon class="cls-84" points="28.88 275.37 20.14 278.23 21.73 271.41 28.88 275.37"/><polygon class="cls-85" points="33.13 269.93 32.23 273.38 30.32 268.34 33.13 269.93"/><polygon class="cls-86" points="20.14 278.23 17.25 274.25 21.73 271.41 20.14 278.23"/><polygon class="cls-87" points="17.25 274.25 19.96 269.36 21.73 271.41 17.25 274.25"/><polygon class="cls-78" points="50.39 209.5 55.05 206.12 52.15 211.56 50.39 209.5"/><polygon class="cls-79" points="60.75 208.49 62.65 213.53 59.31 215.52 60.75 208.49"/><polygon class="cls-80" points="62.65 213.53 60.84 215.05 59.31 215.52 62.65 213.53"/><polygon class="cls-81" points="52.15 211.56 60.75 208.49 59.31 215.52 52.15 211.56"/><polygon class="cls-78" points="55.05 206.12 60.75 208.49 52.15 211.56 55.05 206.12"/><polygon class="cls-82" points="60.84 215.05 61.83 216.48 59.31 215.52 60.84 215.05"/><polygon class="cls-19" points="59.31 215.52 56.12 219.02 50.56 218.37 59.31 215.52"/><polygon class="cls-83" points="61.44 218.5 56.12 219.02 59.31 215.52 61.44 218.5"/><polygon class="cls-19" points="61.83 216.48 61.44 218.5 59.31 215.52 61.83 216.48"/><polygon class="cls-84" points="59.31 215.52 50.56 218.37 52.15 211.56 59.31 215.52"/><polygon class="cls-85" points="63.55 210.07 62.65 213.53 60.75 208.49 63.55 210.07"/><polygon class="cls-86" points="50.56 218.37 47.67 214.4 52.15 211.56 50.56 218.37"/><polygon class="cls-87" points="47.67 214.4 50.39 209.5 52.15 211.56 47.67 214.4"/><polygon class="cls-78" points="20.79 148.44 25.45 145.06 22.56 150.5 20.79 148.44"/><polygon class="cls-79" points="31.15 147.43 33.06 152.47 29.72 154.46 31.15 147.43"/><polygon class="cls-80" points="33.06 152.47 31.25 153.99 29.72 154.46 33.06 152.47"/><polygon class="cls-81" points="22.56 150.5 31.15 147.43 29.72 154.46 22.56 150.5"/><polygon class="cls-78" points="25.45 145.06 31.15 147.43 22.56 150.5 25.45 145.06"/><polygon class="cls-82" points="31.25 153.99 32.24 155.42 29.72 154.46 31.25 153.99"/><polygon class="cls-19" points="29.72 154.46 26.53 157.96 20.97 157.31 29.72 154.46"/><polygon class="cls-83" points="31.85 157.44 26.53 157.96 29.72 154.46 31.85 157.44"/><polygon class="cls-19" points="32.24 155.42 31.85 157.44 29.72 154.46 32.24 155.42"/><polygon class="cls-84" points="29.72 154.46 20.97 157.31 22.56 150.5 29.72 154.46"/><polygon class="cls-85" points="33.96 149.01 33.06 152.47 31.15 147.43 33.96 149.01"/><polygon class="cls-86" points="20.97 157.31 18.08 153.34 22.56 150.5 20.97 157.31"/><polygon class="cls-87" points="18.08 153.34 20.79 148.44 22.56 150.5 18.08 153.34"/><polygon class="cls-32" points="59.57 118.19 53.92 117.73 57.5 117.38 59.57 118.19"/><polygon class="cls-33" points="57.5 117.38 53.92 117.73 51.77 112.17 57.5 117.38"/><polygon class="cls-34" points="53.92 117.73 47.17 113.14 51.77 112.17 53.92 117.73"/><polygon class="cls-35" points="62.24 115.96 59.57 118.19 57.5 117.38 62.24 115.96"/><polygon class="cls-16" points="45.56 110.64 48.66 107.81 47.17 113.14 45.56 110.64"/><polygon class="cls-19" points="66.59 111.99 62.24 115.96 60.05 111.08 66.59 111.99"/><polygon class="cls-15" points="60.05 111.08 62.24 115.96 51.77 112.17 60.05 111.08"/><polygon class="cls-36" points="51.77 112.17 62.24 115.96 57.5 117.38 51.77 112.17"/><polygon class="cls-37" points="61.1 107.58 65.77 109.42 60.05 111.08 61.1 107.58"/><polygon class="cls-11" points="60.05 111.08 65.77 109.42 66.59 111.99 60.05 111.08"/><polygon class="cls-38" points="58.38 107.22 61.1 107.58 60.05 111.08 58.38 107.22"/><polygon class="cls-15" points="51.77 112.17 58.38 107.22 60.05 111.08 51.77 112.17"/><polygon class="cls-39" points="48.66 107.81 52.93 107.18 51.77 112.17 48.66 107.81"/><polygon class="cls-4" points="52.93 107.18 58.38 107.22 51.77 112.17 52.93 107.18"/><polygon class="cls-30" points="47.17 113.14 48.66 107.81 51.77 112.17 47.17 113.14"/><polygon class="cls-32" points="96.05 34.8 91.69 41.46 93.53 36.73 96.05 34.8"/><polygon class="cls-33" points="93.53 36.73 91.69 41.46 82.2 39.68 93.53 36.73"/><polygon class="cls-34" points="91.69 41.46 80.62 46.19 82.2 39.68 91.69 41.46"/><polygon class="cls-35" points="94.55 29.69 96.05 34.8 93.53 36.73 94.55 29.69"/><polygon class="cls-16" points="75.92 46.17 73.83 40.04 80.62 46.19 75.92 46.17"/><polygon class="cls-19" points="91.61 21.08 94.55 29.69 86.01 28.49 91.61 21.08"/><polygon class="cls-15" points="86.01 28.49 94.55 29.69 82.2 39.68 86.01 28.49"/><polygon class="cls-36" points="82.2 39.68 94.55 29.69 93.53 36.73 82.2 39.68"/><polygon class="cls-37" points="81.61 24.37 87.33 20.03 86.01 28.49 81.61 24.37"/><polygon class="cls-11" points="86.01 28.49 87.33 20.03 91.61 21.08 86.01 28.49"/><polygon class="cls-38" points="79.32 27.46 81.61 24.37 86.01 28.49 79.32 27.46"/><polygon class="cls-15" points="82.2 39.68 79.32 27.46 86.01 28.49 82.2 39.68"/><polygon class="cls-39" points="73.83 40.04 75.7 34.21 82.2 39.68 73.83 40.04"/><polygon class="cls-4" points="75.7 34.21 79.32 27.46 82.2 39.68 75.7 34.21"/><polygon class="cls-30" points="80.62 46.19 73.83 40.04 82.2 39.68 80.62 46.19"/><polygon class="cls-32" points="86.78 219.02 90.88 219.35 88.28 219.6 86.78 219.02"/><polygon class="cls-33" points="88.28 219.6 90.88 219.35 92.45 223.39 88.28 219.6"/><polygon class="cls-34" points="90.88 219.35 95.79 222.68 92.45 223.39 90.88 219.35"/><polygon class="cls-35" points="84.84 220.64 86.78 219.02 88.28 219.6 84.84 220.64"/><polygon class="cls-16" points="96.96 224.51 94.71 226.56 95.79 222.68 96.96 224.51"/><polygon class="cls-19" points="81.68 223.52 84.84 220.64 86.43 224.19 81.68 223.52"/><polygon class="cls-15" points="86.43 224.19 84.84 220.64 92.45 223.39 86.43 224.19"/><polygon class="cls-36" points="92.45 223.39 84.84 220.64 88.28 219.6 92.45 223.39"/><polygon class="cls-37" points="85.67 226.73 82.28 225.39 86.43 224.19 85.67 226.73"/><polygon class="cls-11" points="86.43 224.19 82.28 225.39 81.68 223.52 86.43 224.19"/><polygon class="cls-38" points="87.64 226.99 85.67 226.73 86.43 224.19 87.64 226.99"/><polygon class="cls-15" points="92.45 223.39 87.64 226.99 86.43 224.19 92.45 223.39"/><polygon class="cls-39" points="94.71 226.56 91.6 227.02 92.45 223.39 94.71 226.56"/><polygon class="cls-4" points="91.6 227.02 87.64 226.99 92.45 223.39 91.6 227.02"/><polygon class="cls-30" points="95.79 222.68 94.71 226.56 92.45 223.39 95.79 222.68"/><polygon class="cls-32" points="61.14 170.84 64.02 171.08 62.19 171.25 61.14 170.84"/><polygon class="cls-33" points="62.19 171.25 64.02 171.08 65.12 173.91 62.19 171.25"/><polygon class="cls-34" points="64.02 171.08 67.47 173.42 65.12 173.91 64.02 171.08"/><polygon class="cls-35" points="59.78 171.98 61.14 170.84 62.19 171.25 59.78 171.98"/><polygon class="cls-16" points="68.3 174.7 66.71 176.14 67.47 173.42 68.3 174.7"/><polygon class="cls-19" points="57.55 174.01 59.78 171.98 60.89 174.47 57.55 174.01"/><polygon class="cls-15" points="60.89 174.47 59.78 171.98 65.12 173.91 60.89 174.47"/><polygon class="cls-36" points="65.12 173.91 59.78 171.98 62.19 171.25 65.12 173.91"/><polygon class="cls-37" points="60.36 176.26 57.97 175.32 60.89 174.47 60.36 176.26"/><polygon class="cls-11" points="60.89 174.47 57.97 175.32 57.55 174.01 60.89 174.47"/><polygon class="cls-38" points="61.74 176.44 60.36 176.26 60.89 174.47 61.74 176.44"/><polygon class="cls-15" points="65.12 173.91 61.74 176.44 60.89 174.47 65.12 173.91"/><polygon class="cls-39" points="66.71 176.14 64.53 176.47 65.12 173.91 66.71 176.14"/><polygon class="cls-4" points="64.53 176.47 61.74 176.44 65.12 173.91 64.53 176.47"/><polygon class="cls-30" points="67.47 173.42 66.71 176.14 65.12 173.91 67.47 173.42"/><polygon class="cls-32" points="65.92 282.14 68.63 282.36 66.91 282.53 65.92 282.14"/><polygon class="cls-33" points="66.91 282.53 68.63 282.36 69.66 285.02 66.91 282.53"/><polygon class="cls-34" points="68.63 282.36 71.87 284.56 69.66 285.02 68.63 282.36"/><polygon class="cls-35" points="64.64 283.21 65.92 282.14 66.91 282.53 64.64 283.21"/><polygon class="cls-16" points="72.64 285.76 71.15 287.12 71.87 284.56 72.64 285.76"/><polygon class="cls-19" points="62.56 285.11 64.64 283.21 65.69 285.55 62.56 285.11"/><polygon class="cls-15" points="65.69 285.55 64.64 283.21 69.66 285.02 65.69 285.55"/><polygon class="cls-36" points="69.66 285.02 64.64 283.21 66.91 282.53 69.66 285.02"/><polygon class="cls-37" points="65.19 287.23 62.95 286.34 65.69 285.55 65.19 287.23"/><polygon class="cls-11" points="65.69 285.55 62.95 286.34 62.56 285.11 65.69 285.55"/><polygon class="cls-38" points="66.49 287.4 65.19 287.23 65.69 285.55 66.49 287.4"/><polygon class="cls-15" points="69.66 285.02 66.49 287.4 65.69 285.55 69.66 285.02"/><polygon class="cls-39" points="71.15 287.12 69.1 287.42 69.66 285.02 71.15 287.12"/><polygon class="cls-4" points="69.1 287.42 66.49 287.4 69.66 285.02 69.1 287.42"/><polygon class="cls-30" points="71.87 284.56 71.15 287.12 69.66 285.02 71.87 284.56"/><polygon class="cls-32" points="50.66 136.88 54.76 137.21 52.16 137.46 50.66 136.88"/><polygon class="cls-33" points="52.16 137.46 54.76 137.21 56.33 141.25 52.16 137.46"/><polygon class="cls-34" points="54.76 137.21 59.67 140.54 56.33 141.25 54.76 137.21"/><polygon class="cls-35" points="48.72 138.49 50.66 136.88 52.16 137.46 48.72 138.49"/><polygon class="cls-16" points="60.84 142.36 58.59 144.42 59.67 140.54 60.84 142.36"/><polygon class="cls-19" points="45.56 141.38 48.72 138.49 50.31 142.04 45.56 141.38"/><polygon class="cls-15" points="50.31 142.04 48.72 138.49 56.33 141.25 50.31 142.04"/><polygon class="cls-36" points="56.33 141.25 48.72 138.49 52.16 137.46 56.33 141.25"/><polygon class="cls-37" points="49.55 144.58 46.16 143.25 50.31 142.04 49.55 144.58"/><polygon class="cls-11" points="50.31 142.04 46.16 143.25 45.56 141.38 50.31 142.04"/><polygon class="cls-38" points="51.52 144.84 49.55 144.58 50.31 142.04 51.52 144.84"/><polygon class="cls-15" points="56.33 141.25 51.52 144.84 50.31 142.04 56.33 141.25"/><polygon class="cls-39" points="58.59 144.42 55.48 144.88 56.33 141.25 58.59 144.42"/><polygon class="cls-4" points="55.48 144.88 51.52 144.84 56.33 141.25 55.48 144.88"/><polygon class="cls-30" points="59.67 140.54 58.59 144.42 56.33 141.25 59.67 140.54"/><polygon class="cls-32" points="96.68 47.76 100.78 48.09 98.18 48.34 96.68 47.76"/><polygon class="cls-33" points="98.18 48.34 100.78 48.09 102.35 52.13 98.18 48.34"/><polygon class="cls-34" points="100.78 48.09 105.69 51.42 102.35 52.13 100.78 48.09"/><polygon class="cls-35" points="94.74 49.38 96.68 47.76 98.18 48.34 94.74 49.38"/><polygon class="cls-16" points="106.86 53.24 104.61 55.3 105.69 51.42 106.86 53.24"/><polygon class="cls-19" points="91.58 52.26 94.74 49.38 96.33 52.92 91.58 52.26"/><polygon class="cls-15" points="96.33 52.92 94.74 49.38 102.35 52.13 96.33 52.92"/><polygon class="cls-36" points="102.35 52.13 94.74 49.38 98.18 48.34 102.35 52.13"/><polygon class="cls-37" points="95.57 55.47 92.18 54.13 96.33 52.92 95.57 55.47"/><polygon class="cls-11" points="96.33 52.92 92.18 54.13 91.58 52.26 96.33 52.92"/><polygon class="cls-38" points="97.54 55.73 95.57 55.47 96.33 52.92 97.54 55.73"/><polygon class="cls-15" points="102.35 52.13 97.54 55.73 96.33 52.92 102.35 52.13"/><polygon class="cls-39" points="104.61 55.3 101.51 55.76 102.35 52.13 104.61 55.3"/><polygon class="cls-4" points="101.51 55.76 97.54 55.73 102.35 52.13 101.51 55.76"/><polygon class="cls-30" points="105.69 51.42 104.61 55.3 102.35 52.13 105.69 51.42"/></svg>