<svg id="Layer_1" data-name="Layer 1" xmlns="http://www.w3.org/2000/svg" viewBox="0 0 290 330"><defs><style>.cls-1{fill:#111315;}.cls-2{fill:#0a0b0c;}.cls-3{fill:#8c0e0e;}.cls-4{fill:#f20303;}.cls-5{fill:#1e2022;}.cls-6{fill:#2c2d30;}.cls-7{fill:#ffa300;}.cls-8{fill:#333437;}.cls-9{fill:#1b1c1e;}.cls-10{fill:#101214;}.cls-11{fill:#5b0c06;}.cls-12{fill:#661608;}.cls-13{fill:#57585b;}.cls-14{fill:#2c2d31;}.cls-15{fill:#a50e0e;}.cls-16{fill:#222426;}.cls-17{fill:#36383b;}.cls-18{fill:#5d5d60;}.cls-19{fill:#d10707;}.cls-20{fill:#7c7d81;}.cls-21{fill:#3b3d40;}.cls-22{fill:#17191b;}.cls-23{fill:#54545a;}.cls-24{fill:#57595c;}.cls-25{fill:#606165;}.cls-26{fill:#313236;}.cls-27{fill:#5b1208;}.cls-28{fill:#252629;}.cls-29{fill:#292b2e;}.cls-30{fill:#8e0c0c;}.cls-31{fill:#292c2f;}.cls-32{fill:#131415;}.cls-33{fill:#1a1b1e;}.cls-34{fill:#2a2c2f;}.cls-35{fill:#161719;}.cls-36{fill:#161618;}.cls-37{fill:#141516;}.cls-38{fill:#282a2c;}.cls-39{fill:#ce0d0d;}.cls-40{fill:#101113;}.cls-41{fill:#181a1b;}.cls-42{fill:#25272a;}.cls-43{fill:#212223;}.cls-44{fill:#191a1b;}.cls-45{fill:#070708;}.cls-46{fill:#131416;}.cls-47{fill:#2d2e31;}.cls-48{fill:#0a0b0d;}.cls-49{fill:#161819;}.cls-50{fill:#303135;}.cls-51{fill:#0d0e0e;}.cls-52{fill:#313437;}.cls-53{fill:#34373b;}.cls-54{fill:#2e3033;}.cls-55{fill:#ff7900;}.cls-56{fill:#252628;}.cls-57{fill:#45484c;}.cls-58{fill:#333639;}.cls-59{fill:#191a1c;}.cls-60{fill:#464a4e;}.cls-61{fill:#2f3133;}.cls-62{fill:#303336;}.cls-63{fill:#37393d;}.cls-64{fill:#d36409;}.cls-65{fill:#3c4044;}.cls-66{fill:#2e2f32;}.cls-67{fill:#505155;}.cls-68{fill:#28292c;}.cls-69{fill:#212325;}.cls-70{fill:#540606;}.cls-71{fill:#141619;}.cls-72{fill:#202124;}.cls-73{fill:#18191b;}.cls-74{fill:#1a1b1d;}.cls-75{fill:#ffb600;}.cls-76{fill:#040505;}.cls-77{fill:#d11111;}.cls-78{fill:#1d1f21;}.cls-79{fill:#0b0c0d;}.cls-80{fill:#010101;}.cls-81{fill:#141618;}.cls-82{fill:#020202;}.cls-83{fill:#424345;}.cls-84{fill:#2c2d2f;}.cls-85{fill:#101112;}.cls-86{fill:#131516;}.cls-87{fill:#191b1d;}.cls-88{fill:#262727;}.cls-89{fill:#141414;}.cls-90{fill:#4f4f4f;}.cls-91{fill:#0f0f0f;}.cls-92{fill:#380b06;}.cls-93{fill:#1d1d1d;}.cls-94{fill:#626262;}.cls-95{fill:#232424;}.cls-96{fill:#030303;}.cls-97{fill:#4c4c4c;}.cls-98{fill:#5f5f5f;}.cls-99{fill:#8e1616;}.cls-100{fill:#a00d0d;}.cls-101{fill:#1c1c1c;}.cls-102{fill:#212121;}.cls-103{fill:#2a2a2a;}.cls-104{fill:#c10a0a;}.cls-105{fill:#222323;}.cls-106{fill:#1a1a1a;}.cls-107{fill:#0e0f0f;}.cls-108{fill:#1b1b1b;}.cls-109{fill:#242525;}.cls-110{fill:#111212;}.cls-111{fill:#686868;}.cls-112{fill:#676767;}.cls-113{fill:#262626;}.cls-114{fill:#0f1010;}.cls-115{fill:#181a19;}.cls-116{fill:#252626;}.cls-117{fill:#bc1515;}.cls-118{fill:#333434;}.cls-119{fill:#040404;}.cls-120{fill:#300505;}.cls-121{fill:#2b0806;}.cls-122{fill:#202121;}.cls-123{fill:#282929;}.cls-124{fill:#545453;}.cls-125{fill:#807f7f;}.cls-126{fill:#7a7978;}.cls-127{fill:#212122;}.cls-128{fill:#470a07;}.cls-129{fill:#343534;}.cls-130{fill:#464646;}.cls-131{fill:#2b2b2b;}.cls-132{fill:#181818;}.cls-133{fill:#131313;}.cls-134{fill:#949494;}.cls-135{fill:#0b0b0b;}.cls-136{fill:#4c0d0a;}.cls-137{fill:#511507;}.cls-138{fill:#191919;}.cls-139{fill:#333232;}.cls-140{fill:#242424;}.cls-141{fill:#303131;}.cls-142{fill:#0b0c0c;}.cls-143{fill:#505050;}.cls-144{fill:#504f4f;}.cls-145{fill:#3a3a39;}.cls-146{fill:#575756;}.cls-147{fill:#2d2e2e;}.cls-148{fill:#080808;}.cls-149{fill:#2c2c2c;}.cls-150{fill:#20201f;}.cls-151{fill:#212120;}.cls-152{fill:#0f0f10;}.cls-153{fill:#2d2d2d;}.cls-154{fill:#f40808;}.cls-155{fill:#161717;}.cls-156{fill:#393a39;}.cls-157{fill:#160303;}.cls-158{fill:#1f201f;}.cls-159{fill:#252525;}.cls-160{fill:#aa0202;}.cls-161{fill:#2a2b2b;}.cls-162{fill:#dd1010;}.cls-163{fill:#050505;}.cls-164{fill:#494a49;}.cls-165{fill:#191a1a;}.cls-166{fill:#444545;}.cls-167{fill:#343535;}.cls-168{fill:#919191;opacity:0.29;}</style></defs><polygon class="cls-1" points="96.18 325.92 99.9 324.88 92.14 316.42 96.18 325.92"/><polygon class="cls-2" points="82.49 326.47 96.18 325.92 92.14 316.42 82.49 326.47"/><polygon class="cls-3" points="99.9 324.88 103.37 314.68 92.14 316.42 99.9 324.88"/><polygon class="cls-4" points="92.14 316.42 103.37 314.68 98.62 312.16 92.14 316.42"/><polygon class="cls-5" points="105.18 321.54 103.37 314.68 99.9 324.88 105.18 321.54"/><polygon class="cls-4" points="106.2 320.01 103.37 314.68 105.18 321.54 106.2 320.01"/><polygon class="cls-6" points="87.9 308.66 79.37 317.57 92.14 316.42 87.9 308.66"/><polygon class="cls-7" points="92.14 316.42 79.37 317.57 82.49 326.47 92.14 316.42"/><polygon class="cls-8" points="79.37 317.57 77.61 322.12 82.49 326.47 79.37 317.57"/><polygon class="cls-9" points="92.97 308.68 87.9 308.66 92.14 316.42 92.97 308.68"/><polygon class="cls-10" points="98.62 312.16 92.97 308.68 92.14 316.42 98.62 312.16"/><polygon class="cls-11" points="131.42 319.4 129.84 314.49 126.11 318.61 131.42 319.4"/><polygon class="cls-12" points="129.84 314.49 125.23 312.88 126.11 318.61 129.84 314.49"/><polygon class="cls-13" points="127.71 307.5 127.05 308.94 129.87 310.68 127.71 307.5"/><polygon class="cls-14" points="125.23 312.88 124.36 318.24 126.11 318.61 125.23 312.88"/><polygon class="cls-15" points="129.87 310.68 125.23 312.88 129.84 314.49 129.87 310.68"/><polygon class="cls-16" points="127.05 308.94 125.23 312.88 129.87 310.68 127.05 308.94"/><polygon class="cls-17" points="124.36 318.24 124.85 320.85 126.11 318.61 124.36 318.24"/><polygon class="cls-18" points="129.05 321.45 131.42 319.4 131.42 319.4 129.05 321.45"/><polygon class="cls-19" points="126.11 318.61 129.05 321.45 131.42 319.4 126.11 318.61"/><polygon class="cls-7" points="124.85 320.85 129.05 321.45 126.11 318.61 124.85 320.85"/><polygon class="cls-7" points="138.96 310.22 132.07 306.95 129.87 310.68 138.96 310.22"/><polygon class="cls-20" points="134.15 319.89 135.43 320.29 133.47 319.18 134.15 319.89"/><polygon class="cls-21" points="132.64 319.88 133.47 319.18 131.42 319.4 132.64 319.88"/><polygon class="cls-22" points="140.27 318.05 142.01 316.68 139.38 317.88 140.27 318.05"/><polygon class="cls-23" points="138.97 310.22 132.07 306.95 138.96 310.22 138.97 310.22"/><polygon class="cls-24" points="128.6 307.03 127.71 307.5 129.87 310.68 128.6 307.03"/><polygon class="cls-25" points="132.07 306.95 128.6 307.03 129.87 310.68 132.07 306.95"/><polygon class="cls-26" points="131.42 319.4 133.47 319.18 131.42 319.4 131.42 319.4"/><polygon class="cls-27" points="129.84 314.49 138.96 310.22 129.87 310.68 129.84 314.49"/><polygon class="cls-28" points="135.43 320.29 139.38 317.88 133.47 319.18 135.43 320.29"/><polygon class="cls-29" points="138.96 310.22 139.38 317.88 138.97 310.22 138.96 310.22"/><polygon class="cls-19" points="129.84 314.49 139.38 317.88 138.96 310.22 129.84 314.49"/><polygon class="cls-15" points="138.97 310.22 139.38 317.88 142.33 313.78 138.97 310.22"/><polygon class="cls-30" points="133.47 319.18 139.38 317.88 129.84 314.49 133.47 319.18"/><polygon class="cls-12" points="131.42 319.4 133.47 319.18 129.84 314.49 131.42 319.4"/><polygon class="cls-31" points="139.38 317.88 142.01 316.68 142.33 313.78 139.38 317.88"/><polygon class="cls-32" points="259.37 280.41 258.5 288.43 266.87 283.13 259.37 280.41"/><polygon class="cls-33" points="257.27 287.92 258.5 288.43 255.97 285.06 257.27 287.92"/><polygon class="cls-34" points="278.62 271 268.56 273.08 280.3 275.88 278.62 271"/><polygon class="cls-35" points="273.75 289.58 280.3 275.88 266.87 283.13 273.75 289.58"/><polygon class="cls-36" points="255.97 285.06 258.5 288.43 259.37 280.41 255.97 285.06"/><polygon class="cls-37" points="266.87 283.13 262.42 272.76 259.37 280.41 266.87 283.13"/><polygon class="cls-38" points="262.42 272.76 258.27 279.03 259.37 280.41 262.42 272.76"/><polygon class="cls-12" points="258.27 279.03 255.97 285.06 259.37 280.41 258.27 279.03"/><polygon class="cls-39" points="280.3 275.88 268.56 273.08 266.87 283.13 280.3 275.88"/><polygon class="cls-40" points="268.56 273.08 262.42 272.76 266.87 283.13 268.56 273.08"/><polygon class="cls-41" points="281.85 291.94 285.61 283.43 273.75 289.58 281.85 291.94"/><polygon class="cls-42" points="273.75 289.58 285.61 283.43 280.3 275.88 273.75 289.58"/><polygon class="cls-43" points="272.9 293.12 281.85 291.94 273.75 289.58 272.9 293.12"/><polygon class="cls-44" points="266.87 283.13 272.9 293.12 273.75 289.58 266.87 283.13"/><polygon class="cls-11" points="258.5 288.43 272.9 293.12 266.87 283.13 258.5 288.43"/><polygon class="cls-45" points="216.38 294.04 216.38 294.04 216.38 294.04 216.38 294.04"/><polygon class="cls-46" points="216.38 294.04 212.68 296.32 216.38 294.04 216.38 294.04"/><polygon class="cls-45" points="216.38 294.04 216.38 294.04 216.38 294.04 216.38 294.04"/><polygon class="cls-47" points="215.82 300.83 212.68 296.32 212.51 301.75 215.82 300.83"/><polygon class="cls-48" points="216.38 294.04 212.68 296.32 215.82 300.83 216.38 294.04"/><polygon class="cls-49" points="212.68 296.32 209.86 299.46 212.51 301.75 212.68 296.32"/><polygon class="cls-50" points="223.06 297.21 216.38 294.04 216.38 294.04 223.06 297.21"/><polygon class="cls-14" points="216.38 294.04 223.06 297.21 216.38 294.04 216.38 294.04"/><polygon points="217.97 304.63 220.19 303.81 220.19 303.81 217.97 304.63"/><polygon class="cls-51" points="215.85 302.3 217.97 304.63 220.19 303.81 215.85 302.3"/><polygon class="cls-52" points="220.19 303.81 223.06 297.21 220.19 303.81 220.19 303.81"/><polygon class="cls-53" points="212.44 303.8 217.97 304.63 215.85 302.3 212.44 303.8"/><polygon class="cls-54" points="216.38 294.04 223.06 297.21 216.38 294.04 216.38 294.04"/><polygon class="cls-7" points="215.82 300.83 223.06 297.21 216.38 294.04 215.82 300.83"/><polygon class="cls-55" points="220.19 303.81 223.06 297.21 215.82 300.83 220.19 303.81"/><polygon class="cls-26" points="212.51 301.75 212.44 303.8 215.85 302.3 212.51 301.75"/><polygon class="cls-56" points="220.19 303.81 215.82 300.83 215.85 302.3 220.19 303.81"/><polygon class="cls-54" points="215.82 300.83 212.51 301.75 215.85 302.3 215.82 300.83"/><polygon class="cls-57" points="259.86 299.18 251.4 302.53 258.99 299.67 259.86 299.18"/><polygon class="cls-7" points="258.8 306.3 251.12 312.35 263.43 312.25 258.8 306.3"/><polygon class="cls-55" points="251.12 312.35 261.53 317.13 263.43 312.25 251.12 312.35"/><polygon class="cls-58" points="263.43 312.25 261.53 317.13 267.25 315.42 263.43 312.25"/><polygon class="cls-59" points="247.79 307.36 251.12 312.35 258.8 306.3 247.79 307.36"/><polygon class="cls-60" points="267.25 315.42 268.75 313.06 263.43 312.25 267.25 315.42"/><polygon class="cls-61" points="262.41 305.17 259.86 299.18 258.99 299.67 262.41 305.17"/><polygon class="cls-7" points="258.8 306.3 263.43 312.25 262.41 305.17 258.8 306.3"/><polygon class="cls-62" points="258.99 299.67 258.8 306.3 262.41 305.17 258.99 299.67"/><polygon class="cls-63" points="264.7 300.07 263.07 299.16 262.41 305.17 264.7 300.07"/><polygon class="cls-64" points="263.43 312.25 268.51 311.99 262.41 305.17 263.43 312.25"/><polygon class="cls-11" points="268.51 311.99 264.7 300.07 262.41 305.17 268.51 311.99"/><polygon class="cls-65" points="268.75 313.06 268.51 311.99 263.43 312.25 268.75 313.06"/><polygon class="cls-7" points="258.99 299.67 251.4 302.53 258.8 306.3 258.99 299.67"/><polygon class="cls-11" points="251.4 302.53 247.79 307.36 258.8 306.3 251.4 302.53"/><polygon class="cls-66" points="263.07 299.16 259.86 299.18 262.41 305.17 263.07 299.16"/><polygon class="cls-11" points="201.49 301.46 200.62 300.91 200.59 304.17 201.49 301.46"/><polygon class="cls-15" points="191.2 299.25 200.62 300.91 197.34 295.66 191.2 299.25"/><polygon class="cls-30" points="201.21 299.94 201.04 297.49 200.62 300.91 201.21 299.94"/><polygon class="cls-67" points="200.62 300.91 201.04 297.49 197.34 295.66 200.62 300.91"/><polygon class="cls-48" points="200.59 304.17 200.62 300.91 196.23 306.82 200.59 304.17"/><polygon class="cls-68" points="190.39 304.93 192.12 305.5 189.85 302.01 190.39 304.93"/><polygon class="cls-69" points="192.12 305.5 200.62 300.91 191.2 299.25 192.12 305.5"/><polygon class="cls-6" points="189.85 302.01 192.12 305.5 191.2 299.25 189.85 302.01"/><polygon class="cls-70" points="196.23 306.82 200.62 300.91 192.12 305.5 196.23 306.82"/><polygon class="cls-71" points="240.13 301.2 237.84 299.38 238.96 300.82 240.13 301.2"/><polygon class="cls-72" points="238.96 300.82 237.84 299.38 234.16 301.12 238.96 300.82"/><polygon class="cls-73" points="237.84 299.38 233 299.02 234.16 301.12 237.84 299.38"/><polygon class="cls-74" points="239.93 303.17 240.13 301.2 238.96 300.82 239.93 303.17"/><polygon class="cls-16" points="231.1 299.58 230.75 301.98 233 299.02 231.1 299.58"/><polygon class="cls-19" points="239.43 306.53 239.93 303.17 236.58 304.59 239.43 306.53"/><polygon class="cls-15" points="236.58 304.59 239.93 303.17 234.16 301.12 236.58 304.59"/><polygon class="cls-75" points="234.16 301.12 239.93 303.17 238.96 300.82 234.16 301.12"/><polygon class="cls-76" points="235.13 306.56 237.78 307.4 236.58 304.59 235.13 306.56"/><polygon class="cls-11" points="236.58 304.59 237.78 307.4 239.43 306.53 236.58 304.59"/><polygon class="cls-77" points="233.96 305.74 235.13 306.56 236.58 304.59 233.96 305.74"/><polygon class="cls-15" points="234.16 301.12 233.96 305.74 236.58 304.59 234.16 301.12"/><polygon class="cls-39" points="230.75 301.98 231.97 303.8 234.16 301.12 230.75 301.98"/><polygon class="cls-4" points="231.97 303.8 233.96 305.74 234.16 301.12 231.97 303.8"/><polygon class="cls-30" points="233 299.02 230.75 301.98 234.16 301.12 233 299.02"/><polygon class="cls-78" points="211.76 308.8 208 306.15 210.67 310.8 211.76 308.8"/><polygon class="cls-79" points="204.06 308.75 203.18 313.44 205.84 314.95 204.06 308.75"/><polygon class="cls-80" points="203.18 313.44 204.66 314.66 205.84 314.95 203.18 313.44"/><polygon class="cls-81" points="210.67 310.8 204.06 308.75 205.84 314.95 210.67 310.8"/><polygon class="cls-78" points="208 306.15 204.06 308.75 210.67 310.8 208 306.15"/><polygon class="cls-82" points="204.66 314.66 204.09 316.03 205.84 314.95 204.66 314.66"/><polygon class="cls-19" points="205.84 314.95 208.53 317.83 212.54 316.79 205.84 314.95"/><polygon class="cls-83" points="204.58 317.81 208.53 317.83 205.84 314.95 204.58 317.81"/><polygon class="cls-19" points="204.09 316.03 204.58 317.81 205.84 314.95 204.09 316.03"/><polygon class="cls-84" points="205.84 314.95 212.54 316.79 210.67 310.8 205.84 314.95"/><polygon class="cls-85" points="202.17 310.42 203.18 313.44 204.06 308.75 202.17 310.42"/><polygon class="cls-86" points="212.54 316.79 214.25 312.97 210.67 310.8 212.54 316.79"/><polygon class="cls-87" points="214.25 312.97 211.76 308.8 210.67 310.8 214.25 312.97"/><polygon class="cls-71" points="187.99 323.02 192.09 322.13 189.43 322.12 187.99 323.02"/><polygon class="cls-72" points="189.43 322.12 192.09 322.13 193.09 316.96 189.43 322.12"/><polygon class="cls-73" points="192.09 322.13 196.56 317.45 193.09 316.96 192.09 322.13"/><polygon class="cls-74" points="185.81 321.24 187.99 323.02 189.43 322.12 185.81 321.24"/><polygon class="cls-16" points="197.49 315.06 194.93 312.78 196.56 317.45 197.49 315.06"/><polygon class="cls-19" points="182.22 318.04 185.81 321.24 186.92 316.67 182.22 318.04"/><polygon class="cls-15" points="186.92 316.67 185.81 321.24 193.09 316.96 186.92 316.67"/><polygon class="cls-75" points="193.09 316.96 185.81 321.24 189.43 322.12 193.09 316.96"/><polygon class="cls-76" points="185.79 313.62 182.56 315.66 186.92 316.67 185.79 313.62"/><polygon class="cls-11" points="186.92 316.67 182.56 315.66 182.22 318.04 186.92 316.67"/><polygon class="cls-77" points="187.74 313.07 185.79 313.62 186.92 316.67 187.74 313.07"/><polygon class="cls-15" points="193.09 316.96 187.74 313.07 186.92 316.67 193.09 316.96"/><polygon class="cls-39" points="194.93 312.78 191.73 312.57 193.09 316.96 194.93 312.78"/><polygon class="cls-4" points="191.73 312.57 187.74 313.07 193.09 316.96 191.73 312.57"/><polygon class="cls-30" points="196.56 317.45 194.93 312.78 193.09 316.96 196.56 317.45"/><polygon class="cls-71" points="115.42 314.25 112.44 314.89 114.37 314.9 115.42 314.25"/><polygon class="cls-72" points="114.37 314.9 112.44 314.89 111.71 318.65 114.37 314.9"/><polygon class="cls-73" points="112.44 314.89 109.19 318.29 111.71 318.65 112.44 314.89"/><polygon class="cls-74" points="117 315.54 115.42 314.25 114.37 314.9 117 315.54"/><polygon class="cls-16" points="108.52 320.03 110.38 321.69 109.19 318.29 108.52 320.03"/><polygon class="cls-19" points="119.61 317.86 117 315.54 116.2 318.86 119.61 317.86"/><polygon class="cls-15" points="116.2 318.86 117 315.54 111.71 318.65 116.2 318.86"/><polygon class="cls-75" points="111.71 318.65 117 315.54 114.37 314.9 111.71 318.65"/><polygon class="cls-76" points="117.02 321.08 119.37 319.59 116.2 318.86 117.02 321.08"/><polygon class="cls-11" points="116.2 318.86 119.37 319.59 119.61 317.86 116.2 318.86"/><polygon class="cls-77" points="115.6 321.48 117.02 321.08 116.2 318.86 115.6 321.48"/><polygon class="cls-15" points="111.71 318.65 115.6 321.48 116.2 318.86 111.71 318.65"/><polygon class="cls-39" points="110.38 321.69 112.7 321.84 111.71 318.65 110.38 321.69"/><polygon class="cls-4" points="112.7 321.84 115.6 321.48 111.71 318.65 112.7 321.84"/><polygon class="cls-30" points="109.19 318.29 110.38 321.69 111.71 318.65 109.19 318.29"/><polygon class="cls-11" points="171.7 208.62 173.07 203.03 178.72 207.08 171.7 208.62"/><polygon class="cls-12" points="173.07 203.03 179.02 200.68 178.72 207.08 173.07 203.03"/><polygon class="cls-13" points="174.86 195.08 175.98 196.58 172.44 198.84 174.86 195.08"/><polygon class="cls-14" points="179.02 200.68 181.03 206.46 178.72 207.08 179.02 200.68"/><polygon class="cls-15" points="172.44 198.84 179.02 200.68 173.07 203.03 172.44 198.84"/><polygon class="cls-16" points="175.98 196.58 179.02 200.68 172.44 198.84 175.98 196.58"/><polygon class="cls-17" points="181.03 206.46 180.76 209.38 178.72 207.08 181.03 206.46"/><polygon class="cls-18" points="175.21 210.57 171.7 208.62 171.7 208.62 175.21 210.57"/><polygon class="cls-19" points="178.72 207.08 175.21 210.57 171.7 208.62 178.72 207.08"/><polygon class="cls-7" points="180.76 209.38 175.21 210.57 178.72 207.08 180.76 209.38"/><polygon class="cls-7" points="160.12 199.47 168.91 195.01 172.44 198.84 160.12 199.47"/><polygon class="cls-20" points="168.09 209.5 166.43 210.1 168.9 208.64 168.09 209.5"/><polygon class="cls-21" points="170.12 209.3 168.9 208.64 171.7 208.62 170.12 209.3"/><polygon class="cls-22" points="159.57 208.24 157 206.95 160.73 207.94 159.57 208.24"/><polygon class="cls-23" points="160.11 199.48 168.91 195.01 160.12 199.47 160.11 199.48"/><polygon class="cls-24" points="173.59 194.67 174.86 195.08 172.44 198.84 173.59 194.67"/><polygon class="cls-25" points="168.91 195.01 173.59 194.67 172.44 198.84 168.91 195.01"/><polygon class="cls-26" points="171.7 208.62 168.9 208.64 171.7 208.62 171.7 208.62"/><polygon class="cls-27" points="173.07 203.03 160.12 199.47 172.44 198.84 173.07 203.03"/><polygon class="cls-28" points="166.43 210.1 160.73 207.94 168.9 208.64 166.43 210.1"/><polygon class="cls-29" points="160.12 199.47 160.73 207.94 160.11 199.48 160.12 199.47"/><polygon class="cls-19" points="173.07 203.03 160.73 207.94 160.12 199.47 173.07 203.03"/><polygon class="cls-15" points="160.11 199.48 160.73 207.94 156.13 203.81 160.11 199.48"/><polygon class="cls-30" points="168.9 208.64 160.73 207.94 173.07 203.03 168.9 208.64"/><polygon class="cls-12" points="171.7 208.62 168.9 208.64 173.07 203.03 171.7 208.62"/><polygon class="cls-31" points="160.73 207.94 157 206.95 156.13 203.81 160.73 207.94"/><polygon class="cls-45" points="131.85 176.03 131.85 176.03 131.85 176.03 131.85 176.03"/><polygon class="cls-46" points="131.85 176.03 137.19 178.08 131.85 176.03 131.85 176.03"/><polygon class="cls-45" points="131.85 176.03 131.85 176.03 131.85 176.03 131.85 176.03"/><polygon class="cls-47" points="133.66 183.43 137.19 178.08 138.26 184.02 133.66 183.43"/><polygon class="cls-48" points="131.85 176.03 137.19 178.08 133.66 183.43 131.85 176.03"/><polygon class="cls-49" points="137.19 178.08 141.47 181.17 138.26 184.02 137.19 178.08"/><polygon class="cls-50" points="123.35 180.36 131.85 176.03 131.85 176.03 123.35 180.36"/><polygon class="cls-14" points="131.85 176.03 123.35 180.36 131.85 176.03 131.85 176.03"/><polygon points="131.34 187.87 128.22 187.25 128.22 187.25 131.34 187.87"/><polygon class="cls-51" points="133.84 185.05 131.34 187.87 128.22 187.25 133.84 185.05"/><polygon class="cls-52" points="128.22 187.25 123.35 180.36 128.22 187.25 128.22 187.25"/><polygon class="cls-53" points="138.67 186.26 131.34 187.87 133.84 185.05 138.67 186.26"/><polygon class="cls-54" points="131.85 176.03 123.35 180.36 131.85 176.03 131.85 176.03"/><polygon class="cls-7" points="133.66 183.43 123.35 180.36 131.85 176.03 133.66 183.43"/><polygon class="cls-55" points="128.22 187.25 123.35 180.36 133.66 183.43 128.22 187.25"/><polygon class="cls-26" points="138.26 184.02 138.67 186.26 133.84 185.05 138.26 184.02"/><polygon class="cls-56" points="128.22 187.25 133.66 183.43 133.84 185.05 128.22 187.25"/><polygon class="cls-54" points="133.66 183.43 138.26 184.02 133.84 185.05 133.66 183.43"/><polygon class="cls-57" points="121.02 128.26 132.93 130.88 122.27 128.69 121.02 128.26"/><polygon class="cls-7" points="123.53 135.94 134.81 141.63 118.22 143.07 123.53 135.94"/><polygon class="cls-55" points="134.81 141.63 121.53 148.19 118.22 143.07 134.81 141.63"/><polygon class="cls-58" points="118.22 143.07 121.53 148.19 113.56 147.04 118.22 143.07"/><polygon class="cls-59" points="138.53 135.73 134.81 141.63 123.53 135.94 138.53 135.73"/><polygon class="cls-60" points="113.56 147.04 111.17 144.63 118.22 143.07 113.56 147.04"/><polygon class="cls-61" points="118.51 135.16 121.02 128.26 122.27 128.69 118.51 135.16"/><polygon class="cls-7" points="123.53 135.94 118.22 143.07 118.51 135.16 123.53 135.94"/><polygon class="cls-62" points="122.27 128.69 123.53 135.94 118.51 135.16 122.27 128.69"/><polygon class="cls-63" points="114.63 129.84 116.69 128.64 118.51 135.16 114.63 129.84"/><polygon class="cls-64" points="118.22 143.07 111.33 143.43 118.51 135.16 118.22 143.07"/><polygon class="cls-11" points="111.33 143.43 114.63 129.84 118.51 135.16 111.33 143.43"/><polygon class="cls-65" points="111.17 144.63 111.33 143.43 118.22 143.07 111.17 144.63"/><polygon class="cls-7" points="122.27 128.69 132.93 130.88 123.53 135.94 122.27 128.69"/><polygon class="cls-11" points="132.93 130.88 138.53 135.73 123.53 135.94 132.93 130.88"/><polygon class="cls-66" points="116.69 128.64 121.02 128.26 118.51 135.16 116.69 128.64"/><polygon class="cls-57" points="97.71 155.3 104.74 156.85 98.45 155.55 97.71 155.3"/><polygon class="cls-7" points="99.19 159.83 105.85 163.19 96.06 164.04 99.19 159.83"/><polygon class="cls-55" points="105.85 163.19 98.01 167.06 96.06 164.04 105.85 163.19"/><polygon class="cls-58" points="96.06 164.04 98.01 167.06 93.31 166.38 96.06 164.04"/><polygon class="cls-59" points="108.04 159.71 105.85 163.19 99.19 159.83 108.04 159.71"/><polygon class="cls-60" points="93.31 166.38 91.9 164.96 96.06 164.04 93.31 166.38"/><polygon class="cls-61" points="96.23 159.37 97.71 155.3 98.45 155.55 96.23 159.37"/><polygon class="cls-7" points="99.19 159.83 96.06 164.04 96.23 159.37 99.19 159.83"/><polygon class="cls-62" points="98.45 155.55 99.19 159.83 96.23 159.37 98.45 155.55"/><polygon class="cls-63" points="93.94 156.23 95.15 155.52 96.23 159.37 93.94 156.23"/><polygon class="cls-64" points="96.06 164.04 92 164.25 96.23 159.37 96.06 164.04"/><polygon class="cls-11" points="92 164.25 93.94 156.23 96.23 159.37 92 164.25"/><polygon class="cls-65" points="91.9 164.96 92 164.25 96.06 164.04 91.9 164.96"/><polygon class="cls-7" points="98.45 155.55 104.74 156.85 99.19 159.83 98.45 155.55"/><polygon class="cls-11" points="104.74 156.85 108.04 159.71 99.19 159.83 104.74 156.85"/><polygon class="cls-66" points="95.15 155.52 97.71 155.3 96.23 159.37 95.15 155.52"/><polygon class="cls-11" points="71.91 207.85 72.98 207.14 73.52 210.72 71.91 207.85"/><polygon class="cls-15" points="85.44 204.15 72.98 207.14 76.61 200.97 85.44 204.15"/><polygon class="cls-30" points="72.05 206.14 71.9 203.44 72.98 207.14 72.05 206.14"/><polygon class="cls-67" points="72.98 207.14 71.9 203.44 76.61 200.97 72.98 207.14"/><polygon class="cls-48" points="73.52 210.72 72.98 207.14 79.8 213.1 73.52 210.72"/><polygon class="cls-68" points="87.38 210.3 85.14 211.14 87.66 207.02 87.38 210.3"/><polygon class="cls-69" points="85.14 211.14 72.98 207.14 85.44 204.15 85.14 211.14"/><polygon class="cls-6" points="87.66 207.02 85.14 211.14 85.44 204.15 87.66 207.02"/><polygon class="cls-70" points="79.8 213.1 72.98 207.14 85.14 211.14 79.8 213.1"/><polygon class="cls-11" points="161.15 98 160.98 97.23 163.15 97.7 161.15 98"/><polygon class="cls-15" points="161.97 89.45 160.98 97.23 158.23 93.81 161.97 89.45"/><polygon class="cls-30" points="160.21 97.55 158.62 97.05 160.98 97.23 160.21 97.55"/><polygon class="cls-67" points="160.98 97.23 158.62 97.05 158.23 93.81 160.98 97.23"/><polygon class="cls-48" points="163.15 97.7 160.98 97.23 165.87 94.62 163.15 97.7"/><polygon class="cls-68" points="165.91 89.67 165.91 91.14 164.1 88.8 165.91 89.67"/><polygon class="cls-69" points="165.91 91.14 160.98 97.23 161.97 89.45 165.91 91.14"/><polygon class="cls-6" points="164.1 88.8 165.91 91.14 161.97 89.45 164.1 88.8"/><polygon class="cls-70" points="165.87 94.62 160.98 97.23 165.91 91.14 165.87 94.62"/><polygon class="cls-11" points="126.94 80.93 128.02 80.22 128.56 83.8 126.94 80.93"/><polygon class="cls-15" points="140.47 77.23 128.02 80.22 131.65 74.05 140.47 77.23"/><polygon class="cls-30" points="127.09 79.22 126.93 76.51 128.02 80.22 127.09 79.22"/><polygon class="cls-67" points="128.02 80.22 126.93 76.51 131.65 74.05 128.02 80.22"/><polygon class="cls-48" points="128.56 83.8 128.02 80.22 134.84 86.17 128.56 83.8"/><polygon class="cls-68" points="142.41 83.37 140.17 84.22 142.7 80.1 142.41 83.37"/><polygon class="cls-69" points="140.17 84.22 128.02 80.22 140.47 77.23 140.17 84.22"/><polygon class="cls-6" points="142.7 80.1 140.17 84.22 140.47 77.23 142.7 80.1"/><polygon class="cls-70" points="134.84 86.17 128.02 80.22 140.17 84.22 134.84 86.17"/><polygon class="cls-78" points="193.02 196.36 197.68 192.98 194.78 198.41 193.02 196.36"/><polygon class="cls-79" points="203.38 195.34 205.28 200.38 201.94 202.37 203.38 195.34"/><polygon class="cls-80" points="205.28 200.38 203.47 201.91 201.94 202.37 205.28 200.38"/><polygon class="cls-81" points="194.78 198.41 203.38 195.34 201.94 202.37 194.78 198.41"/><polygon class="cls-78" points="197.68 192.98 203.38 195.34 194.78 198.41 197.68 192.98"/><polygon class="cls-82" points="203.47 201.91 204.47 203.34 201.94 202.37 203.47 201.91"/><polygon class="cls-19" points="201.94 202.37 198.75 205.88 193.2 205.23 201.94 202.37"/><polygon class="cls-83" points="204.07 205.36 198.75 205.88 201.94 202.37 204.07 205.36"/><polygon class="cls-19" points="204.47 203.34 204.07 205.36 201.94 202.37 204.47 203.34"/><polygon class="cls-84" points="201.94 202.37 193.2 205.23 194.78 198.41 201.94 202.37"/><polygon class="cls-85" points="206.19 196.93 205.28 200.38 203.38 195.34 206.19 196.93"/><polygon class="cls-86" points="193.2 205.23 190.31 201.25 194.78 198.41 193.2 205.23"/><polygon class="cls-87" points="190.31 201.25 193.02 196.36 194.78 198.41 190.31 201.25"/><polygon class="cls-71" points="149.85 115.51 153.96 115.84 151.36 116.09 149.85 115.51"/><polygon class="cls-72" points="151.36 116.09 153.96 115.84 155.53 119.88 151.36 116.09"/><polygon class="cls-73" points="153.96 115.84 158.87 119.17 155.53 119.88 153.96 115.84"/><polygon class="cls-74" points="147.92 117.13 149.85 115.51 151.36 116.09 147.92 117.13"/><polygon class="cls-16" points="160.04 121 157.79 123.05 158.87 119.17 160.04 121"/><polygon class="cls-19" points="144.76 120.01 147.92 117.13 149.51 120.68 144.76 120.01"/><polygon class="cls-15" points="149.51 120.68 147.92 117.13 155.53 119.88 149.51 120.68"/><polygon class="cls-75" points="155.53 119.88 147.92 117.13 151.36 116.09 155.53 119.88"/><polygon class="cls-76" points="148.75 123.22 145.35 121.88 149.51 120.68 148.75 123.22"/><polygon class="cls-11" points="149.51 120.68 145.35 121.88 144.76 120.01 149.51 120.68"/><polygon class="cls-77" points="150.72 123.48 148.75 123.22 149.51 120.68 150.72 123.48"/><polygon class="cls-15" points="155.53 119.88 150.72 123.48 149.51 120.68 155.53 119.88"/><polygon class="cls-39" points="157.79 123.05 154.68 123.51 155.53 119.88 157.79 123.05"/><polygon class="cls-4" points="154.68 123.51 150.72 123.48 155.53 119.88 154.68 123.51"/><polygon class="cls-30" points="158.87 119.17 157.79 123.05 155.53 119.88 158.87 119.17"/><polygon class="cls-71" points="110.65 102.54 113.54 102.77 111.71 102.95 110.65 102.54"/><polygon class="cls-72" points="111.71 102.95 113.54 102.77 114.64 105.61 111.71 102.95"/><polygon class="cls-73" points="113.54 102.77 116.99 105.11 114.64 105.61 113.54 102.77"/><polygon class="cls-74" points="109.29 103.68 110.65 102.54 111.71 102.95 109.29 103.68"/><polygon class="cls-16" points="117.81 106.39 116.23 107.84 116.99 105.11 117.81 106.39"/><polygon class="cls-19" points="107.07 105.7 109.29 103.68 110.41 106.17 107.07 105.7"/><polygon class="cls-15" points="110.41 106.17 109.29 103.68 114.64 105.61 110.41 106.17"/><polygon class="cls-75" points="114.64 105.61 109.29 103.68 111.71 102.95 114.64 105.61"/><polygon class="cls-76" points="109.87 107.96 107.49 107.02 110.41 106.17 109.87 107.96"/><polygon class="cls-11" points="110.41 106.17 107.49 107.02 107.07 105.7 110.41 106.17"/><polygon class="cls-77" points="111.26 108.14 109.87 107.96 110.41 106.17 111.26 108.14"/><polygon class="cls-15" points="114.64 105.61 111.26 108.14 110.41 106.17 114.64 105.61"/><polygon class="cls-39" points="116.23 107.84 114.05 108.16 114.64 105.61 116.23 107.84"/><polygon class="cls-4" points="114.05 108.16 111.26 108.14 114.64 105.61 114.05 108.16"/><polygon class="cls-30" points="116.99 105.11 116.23 107.84 114.64 105.61 116.99 105.11"/><polygon class="cls-71" points="146.56 150.02 149.27 150.24 147.55 150.41 146.56 150.02"/><polygon class="cls-72" points="147.55 150.41 149.27 150.24 150.3 152.91 147.55 150.41"/><polygon class="cls-73" points="149.27 150.24 152.5 152.44 150.3 152.91 149.27 150.24"/><polygon class="cls-74" points="145.28 151.09 146.56 150.02 147.55 150.41 145.28 151.09"/><polygon class="cls-16" points="153.28 153.64 151.79 155 152.5 152.44 153.28 153.64"/><polygon class="cls-19" points="143.2 152.99 145.28 151.09 146.33 153.43 143.2 152.99"/><polygon class="cls-15" points="146.33 153.43 145.28 151.09 150.3 152.91 146.33 153.43"/><polygon class="cls-75" points="150.3 152.91 145.28 151.09 147.55 150.41 150.3 152.91"/><polygon class="cls-76" points="145.83 155.11 143.59 154.22 146.33 153.43 145.83 155.11"/><polygon class="cls-11" points="146.33 153.43 143.59 154.22 143.2 152.99 146.33 153.43"/><polygon class="cls-77" points="147.13 155.28 145.83 155.11 146.33 153.43 147.13 155.28"/><polygon class="cls-15" points="150.3 152.91 147.13 155.28 146.33 153.43 150.3 152.91"/><polygon class="cls-39" points="151.79 155 149.74 155.3 150.3 152.91 151.79 155"/><polygon class="cls-4" points="149.74 155.3 147.13 155.28 150.3 152.91 149.74 155.3"/><polygon class="cls-30" points="152.5 152.44 151.79 155 150.3 152.91 152.5 152.44"/><polygon class="cls-71" points="184.39 153.69 188.49 154.03 185.89 154.28 184.39 153.69"/><polygon class="cls-72" points="185.89 154.28 188.49 154.03 190.06 158.06 185.89 154.28"/><polygon class="cls-73" points="188.49 154.03 193.4 157.36 190.06 158.06 188.49 154.03"/><polygon class="cls-74" points="182.45 155.31 184.39 153.69 185.89 154.28 182.45 155.31"/><polygon class="cls-16" points="194.57 159.18 192.32 161.24 193.4 157.36 194.57 159.18"/><polygon class="cls-19" points="179.29 158.19 182.45 155.31 184.04 158.86 179.29 158.19"/><polygon class="cls-15" points="184.04 158.86 182.45 155.31 190.06 158.06 184.04 158.86"/><polygon class="cls-75" points="190.06 158.06 182.45 155.31 185.89 154.28 190.06 158.06"/><polygon class="cls-76" points="183.28 161.4 179.89 160.07 184.04 158.86 183.28 161.4"/><polygon class="cls-11" points="184.04 158.86 179.89 160.07 179.29 158.19 184.04 158.86"/><polygon class="cls-77" points="185.25 161.66 183.28 161.4 184.04 158.86 185.25 161.66"/><polygon class="cls-15" points="190.06 158.06 185.25 161.66 184.04 158.86 190.06 158.06"/><polygon class="cls-39" points="192.32 161.24 189.21 161.69 190.06 158.06 192.32 161.24"/><polygon class="cls-4" points="189.21 161.69 185.25 161.66 190.06 158.06 189.21 161.69"/><polygon class="cls-30" points="193.4 157.36 192.32 161.24 190.06 158.06 193.4 157.36"/><polygon class="cls-88" points="183.35 218.85 190.82 238.93 167.88 250.25 144.45 253.06 126.73 253.72 111.65 244.38 104.25 235.47 101.53 222.56 106.46 215.12 131.53 199.49 160.4 202.4 169.53 216.49 183.35 218.85"/><polyline class="cls-89" points="183.35 218.85 190.82 238.93 182.62 232.06 183.35 218.85"/><polyline class="cls-90" points="183.35 218.85 169.53 216.49 177.83 220.36 183.35 218.85"/><polyline class="cls-91" points="183.35 218.85 177.83 220.36 182.62 232.06 183.35 218.85"/><polyline class="cls-92" points="190.82 238.93 167.88 250.25 167.01 246.21 190.82 238.93"/><polyline class="cls-93" points="190.82 238.93 167.01 246.21 182.62 232.06 190.82 238.93"/><polyline class="cls-80" points="167.88 250.25 144.45 253.06 167.01 246.21 167.88 250.25"/><polyline class="cls-94" points="144.45 253.06 126.73 253.72 136.45 244.61 144.45 253.06"/><polyline class="cls-95" points="144.45 253.06 153.87 239.02 136.45 244.61 144.45 253.06"/><polyline class="cls-96" points="144.45 253.06 153.87 239.02 167.01 246.21 144.45 253.06"/><polyline class="cls-97" points="126.73 253.72 111.65 244.38 129.29 243.72 126.73 253.72"/><polyline class="cls-98" points="126.73 253.72 136.45 244.61 129.29 243.72 126.73 253.72"/><polyline class="cls-99" points="111.65 244.38 104.25 235.47 117.34 231.12 111.65 244.38"/><polyline class="cls-100" points="111.65 244.38 117.34 231.12 125.22 235.44 111.65 244.38"/><polyline class="cls-7" points="111.65 244.38 129.29 243.72 125.22 235.44 111.65 244.38"/><polyline class="cls-101" points="104.25 235.47 101.53 222.56 117.34 231.12 104.25 235.47"/><polyline class="cls-102" points="101.53 222.56 106.46 215.12 117.34 231.12 101.53 222.56"/><polyline class="cls-103" points="106.46 215.12 131.53 199.49 119.81 209.78 106.46 215.12"/><polyline class="cls-55" points="106.46 215.12 117.34 231.12 119.81 209.78 106.46 215.12"/><polyline class="cls-99" points="131.53 199.49 160.4 202.4 130.58 227.78 131.53 199.49"/><polyline class="cls-104" points="131.53 199.49 119.81 209.78 130.58 227.78 131.53 199.49"/><polyline class="cls-105" points="160.4 202.4 169.53 216.49 130.58 227.78 160.4 202.4"/><polyline class="cls-106" points="169.53 216.49 153.87 239.02 177.83 220.36 169.53 216.49"/><polyline class="cls-107" points="169.53 216.49 153.87 239.02 130.58 227.78 169.53 216.49"/><polyline class="cls-64" points="117.34 231.12 119.81 209.78 130.58 227.78 117.34 231.12"/><polyline class="cls-64" points="117.34 231.12 125.22 235.44 130.58 227.78 117.34 231.12"/><polyline class="cls-108" points="153.87 239.02 177.83 220.36 182.62 232.06 153.87 239.02"/><polyline class="cls-109" points="153.87 239.02 136.45 244.61 130.58 227.78 153.87 239.02"/><polyline class="cls-110" points="153.87 239.02 167.01 246.21 182.62 232.06 153.87 239.02"/><polyline class="cls-111" points="136.45 244.61 129.29 243.72 125.22 235.44 136.45 244.61"/><polyline class="cls-112" points="136.45 244.61 125.22 235.44 130.58 227.78 136.45 244.61"/><polyline class="cls-113" points="222.78 240.12 209.3 234.18 200.24 245.41 222.78 240.12"/><polyline class="cls-101" points="222.78 240.12 235.44 256.41 220.22 256.61 222.78 240.12"/><polyline class="cls-11" points="222.78 240.12 220.22 256.61 200.24 245.41 222.78 240.12"/><polyline class="cls-101" points="209.3 234.18 199.49 237.8 200.24 245.41 209.3 234.18"/><polyline class="cls-114" points="199.49 237.8 197.57 234.21 184.04 234.57 199.49 237.8"/><polyline class="cls-107" points="199.49 237.8 184.04 234.57 200.24 245.41 199.49 237.8"/><polyline class="cls-92" points="197.57 234.21 195.11 232.44 184.04 234.57 197.57 234.21"/><polyline class="cls-115" points="184.04 234.57 177.48 240.01 200.24 245.41 184.04 234.57"/><polyline class="cls-116" points="177.48 240.01 168.76 246.36 188.33 265.31 177.48 240.01"/><polyline class="cls-11" points="177.48 240.01 200.24 245.41 188.33 265.31 177.48 240.01"/><polyline class="cls-117" points="168.76 246.36 166.76 252.95 188.33 265.31 168.76 246.36"/><polyline class="cls-118" points="166.76 252.95 180.11 266.67 188.33 265.31 166.76 252.95"/><polyline class="cls-15" points="180.11 266.67 187.93 270.29 188.33 265.31 180.11 266.67"/><polyline class="cls-7" points="187.93 270.29 197.96 265.2 188.33 265.31 187.93 270.29"/><polyline class="cls-119" points="197.96 265.2 201.16 264.26 200.24 245.41 197.96 265.2"/><polyline points="197.96 265.2 200.24 245.41 188.33 265.31 197.96 265.2"/><polyline points="201.16 264.26 220.47 267.5 220.22 256.61 201.16 264.26"/><polyline class="cls-80" points="201.16 264.26 220.22 256.61 200.24 245.41 201.16 264.26"/><polyline class="cls-82" points="220.47 267.5 227.49 265.56 220.22 256.61 220.47 267.5"/><polyline class="cls-120" points="227.49 265.56 234.27 260.78 220.22 256.61 227.49 265.56"/><polyline class="cls-11" points="234.27 260.78 235.44 256.41 220.22 256.61 234.27 260.78"/><polyline class="cls-11" points="64.34 258.93 81.93 270.39 79.05 253.08 64.34 258.93"/><polyline class="cls-121" points="64.34 258.93 62.74 249.73 75.57 248.84 64.34 258.93"/><polyline class="cls-15" points="64.34 258.93 79.05 253.08 75.57 248.84 64.34 258.93"/><polyline class="cls-117" points="81.93 270.39 132.9 271.64 91.55 260.3 81.93 270.39"/><polyline class="cls-15" points="81.93 270.39 91.55 260.3 79.05 253.08 81.93 270.39"/><polyline class="cls-122" points="132.9 271.64 133.76 255.34 97.4 252.16 132.9 271.64"/><polyline class="cls-123" points="132.9 271.64 97.4 252.16 91.55 260.3 132.9 271.64"/><polyline class="cls-124" points="133.76 255.34 114.68 237.76 97.4 252.16 133.76 255.34"/><polyline class="cls-125" points="114.68 237.76 87.87 232.33 96.19 238.31 114.68 237.76"/><polyline class="cls-126" points="114.68 237.76 97.4 252.16 96.19 238.31 114.68 237.76"/><polyline class="cls-127" points="87.87 232.33 62.74 249.73 75.57 248.84 87.87 232.33"/><polyline class="cls-128" points="87.87 232.33 75.57 248.84 96.19 238.31 87.87 232.33"/><polyline class="cls-64" points="97.4 252.16 91.55 260.3 79.05 253.08 97.4 252.16"/><polyline class="cls-129" points="97.4 252.16 79.05 253.08 75.57 248.84 97.4 252.16"/><polyline class="cls-130" points="97.4 252.16 75.57 248.84 96.19 238.31 97.4 252.16"/><polyline class="cls-99" points="116.96 266.44 115.49 264.27 112.17 262.62 116.96 266.44"/><polyline class="cls-15" points="116.96 266.44 112.17 262.62 98.74 271.55 116.96 266.44"/><polyline class="cls-131" points="116.96 266.44 118.34 268.47 98.74 271.55 116.96 266.44"/><polyline class="cls-132" points="115.49 264.27 112.78 262.72 112.17 262.62 115.49 264.27"/><polyline points="115.49 264.27 112.78 262.72 109.55 260.54 115.49 264.27"/><polyline points="112.78 262.72 112.17 262.62 109.55 260.54 112.78 262.72"/><polyline class="cls-96" points="112.17 262.62 109.55 260.54 104.01 261.36 112.17 262.62"/><polyline class="cls-133" points="112.17 262.62 104.01 261.36 98.74 271.55 112.17 262.62"/><polyline class="cls-91" points="109.55 260.54 104.01 261.36 103.44 261.27 109.55 260.54"/><polyline class="cls-121" points="104.01 261.36 103.44 261.27 101.26 261.57 104.01 261.36"/><polyline class="cls-7" points="104.01 261.36 101.26 261.57 98.74 271.55 104.01 261.36"/><polyline class="cls-93" points="101.26 261.57 94.25 259.73 96.83 263.84 101.26 261.57"/><polyline class="cls-7" points="101.26 261.57 98.74 271.55 96.83 263.84 101.26 261.57"/><polyline class="cls-7" points="94.25 259.73 82.9 263.32 96.83 263.84 94.25 259.73"/><polyline class="cls-80" points="82.9 263.32 78.03 270.06 83.08 273.89 82.9 263.32"/><polyline class="cls-92" points="82.9 263.32 83.08 273.89 96.83 263.84 82.9 263.32"/><polyline class="cls-104" points="78.03 270.06 83.08 273.89 80.66 275.23 78.03 270.06"/><polyline class="cls-104" points="78.03 270.06 80.66 275.23 78.4 278.01 78.03 270.06"/><polyline class="cls-134" points="78.03 270.06 78.4 278.01 78.46 280.05 78.03 270.06"/><polyline class="cls-80" points="83.08 273.89 80.66 275.23 81.5 278.77 83.08 273.89"/><polyline class="cls-92" points="83.08 273.89 81.5 278.77 98.74 271.55 83.08 273.89"/><polyline class="cls-135" points="83.08 273.89 98.74 271.55 96.83 263.84 83.08 273.89"/><polyline class="cls-82" points="80.66 275.23 78.4 278.01 81.5 278.77 80.66 275.23"/><polyline class="cls-82" points="78.4 278.01 78.46 280.05 81.5 278.77 78.4 278.01"/><polyline points="78.46 280.05 81.92 283.92 81.5 278.77 78.46 280.05"/><polyline class="cls-11" points="81.92 283.92 96.91 286.02 81.5 278.77 81.92 283.92"/><polyline class="cls-82" points="96.91 286.02 97.31 286.02 98.74 271.55 96.91 286.02"/><polyline class="cls-92" points="96.91 286.02 81.5 278.77 98.74 271.55 96.91 286.02"/><polyline class="cls-80" points="97.31 286.02 101.71 285.77 98.74 271.55 97.31 286.02"/><polyline class="cls-55" points="101.71 285.77 109.54 283.4 98.74 271.55 101.71 285.77"/><polyline class="cls-15" points="109.54 283.4 122.51 274.59 118.34 268.47 109.54 283.4"/><polyline class="cls-118" points="109.54 283.4 118.34 268.47 98.74 271.55 109.54 283.4"/><polyline class="cls-136" points="165.3 285.84 185.21 274.68 156.55 260.26 165.3 285.84"/><polyline class="cls-55" points="165.3 285.84 135.31 285.08 146.19 266.1 165.3 285.84"/><polyline class="cls-99" points="165.3 285.84 156.55 260.26 146.19 266.1 165.3 285.84"/><polyline class="cls-109" points="185.21 274.68 167.95 239.06 163.22 246.71 185.21 274.68"/><polyline class="cls-15" points="185.21 274.68 163.22 246.71 160.79 255.79 185.21 274.68"/><polyline class="cls-137" points="185.21 274.68 156.55 260.26 160.79 255.79 185.21 274.68"/><polyline points="167.95 239.06 154.9 237.03 163.22 246.71 167.95 239.06"/><polyline class="cls-114" points="154.9 237.03 125.02 241.13 148.41 261.58 154.9 237.03"/><polyline class="cls-7" points="154.9 237.03 163.22 246.71 148.41 261.58 154.9 237.03"/><polyline class="cls-92" points="125.02 241.13 109.76 266.52 148.41 261.58 125.02 241.13"/><polyline class="cls-11" points="109.76 266.52 135.31 285.08 146.19 266.1 109.76 266.52"/><polyline class="cls-64" points="109.76 266.52 148.41 261.58 146.19 266.1 109.76 266.52"/><polyline class="cls-138" points="163.22 246.71 160.79 255.79 148.41 261.58 163.22 246.71"/><polyline class="cls-64" points="156.55 260.26 160.79 255.79 148.41 261.58 156.55 260.26"/><polyline class="cls-139" points="156.55 260.26 148.41 261.58 146.19 266.1 156.55 260.26"/><polyline class="cls-80" points="170.51 276.76 181.39 281.13 173.02 272.11 170.51 276.76"/><polyline class="cls-15" points="181.39 281.13 186.72 285 184.9 280.48 181.39 281.13"/><polyline class="cls-11" points="181.39 281.13 173.02 272.11 187.67 275.25 181.39 281.13"/><polyline class="cls-11" points="181.39 281.13 184.9 280.48 187.67 275.25 181.39 281.13"/><polyline class="cls-140" points="186.72 285 192.97 283.41 193.08 283.52 186.72 285"/><polyline class="cls-101" points="186.72 285 192.97 283.41 184.9 280.48 186.72 285"/><polyline class="cls-11" points="192.97 283.41 193.08 283.52 211.99 281.55 192.97 283.41"/><polyline class="cls-141" points="192.97 283.41 211.99 281.55 187.67 275.25 192.97 283.41"/><polyline class="cls-140" points="192.97 283.41 184.9 280.48 187.67 275.25 192.97 283.41"/><polyline class="cls-142" points="211.99 281.55 216.46 266.49 200.64 261.05 211.99 281.55"/><polyline class="cls-55" points="211.99 281.55 200.64 261.05 187.67 275.25 211.99 281.55"/><polyline class="cls-55" points="200.64 261.05 192.38 262.73 187.67 275.25 200.64 261.05"/><polyline class="cls-143" points="192.38 262.73 184.88 259.12 182.06 268.23 192.38 262.73"/><polyline class="cls-121" points="192.38 262.73 187.67 275.25 182.06 268.23 192.38 262.73"/><polyline class="cls-126" points="184.88 259.12 174.42 263.3 182.06 268.23 184.88 259.12"/><polyline class="cls-144" points="174.42 263.3 173.02 272.11 182.06 268.23 174.42 263.3"/><polyline class="cls-137" points="173.02 272.11 187.67 275.25 182.06 268.23 173.02 272.11"/><polyline class="cls-15" points="223.91 280.73 228.89 279.86 229.58 270.39 223.91 280.73"/><polyline class="cls-138" points="223.91 280.73 210.29 270.39 213.18 269.98 223.91 280.73"/><polyline class="cls-116" points="223.91 280.73 229.58 270.39 213.18 269.98 223.91 280.73"/><polyline class="cls-121" points="228.89 279.86 229.49 279.54 229.5 279.54 228.89 279.86"/><polyline class="cls-135" points="228.89 279.86 229.49 279.54 229.58 270.39 228.89 279.86"/><polyline class="cls-145" points="228.89 279.86 229.5 279.54 243.43 275.24 228.89 279.86"/><polyline class="cls-135" points="229.49 279.54 229.5 279.54 229.58 270.39 229.49 279.54"/><polyline class="cls-11" points="229.5 279.54 243.43 275.24 229.58 270.39 229.5 279.54"/><polyline class="cls-119" points="243.43 275.24 248.49 268.34 245.13 269.41 243.43 275.24"/><polyline class="cls-146" points="243.43 275.24 230.52 269.73 229.58 270.39 243.43 275.24"/><polyline class="cls-146" points="243.43 275.24 230.52 269.73 233.32 268.42 243.43 275.24"/><polyline class="cls-147" points="243.43 275.24 233.32 268.42 245.13 269.41 243.43 275.24"/><polyline class="cls-133" points="248.49 268.34 239.84 261.46 245.13 269.41 248.49 268.34"/><polyline class="cls-51" points="239.84 261.46 232.52 262.54 233.32 268.42 239.84 261.46"/><polyline class="cls-92" points="239.84 261.46 233.32 268.42 245.13 269.41 239.84 261.46"/><polyline class="cls-114" points="232.52 262.54 225.5 260.7 230.52 269.73 232.52 262.54"/><polyline class="cls-148" points="232.52 262.54 230.52 269.73 233.32 268.42 232.52 262.54"/><polyline class="cls-149" points="225.5 260.7 214.86 264.07 229.58 270.39 225.5 260.7"/><polyline class="cls-117" points="225.5 260.7 230.52 269.73 229.58 270.39 225.5 260.7"/><polyline class="cls-91" points="214.86 264.07 210.29 270.39 213.18 269.98 214.86 264.07"/><polyline class="cls-110" points="214.86 264.07 229.58 270.39 213.18 269.98 214.86 264.07"/><polyline class="cls-150" points="92.19 282.05 84.53 283.23 84.56 277.67 92.19 282.05"/><polyline class="cls-151" points="92.19 282.05 91.02 271.23 84.56 277.67 92.19 282.05"/><polyline class="cls-152" points="84.53 283.23 84.05 284.27 82.57 278.93 84.53 283.23"/><polyline class="cls-99" points="84.53 283.23 82.57 278.93 84.56 277.67 84.53 283.23"/><polyline class="cls-89" points="84.05 284.27 77.88 288.18 82.57 278.93 84.05 284.27"/><polyline class="cls-121" points="77.88 288.18 74.93 288.31 82.57 278.93 77.88 288.18"/><polyline class="cls-93" points="74.93 288.31 66.64 288.7 82.57 278.93 74.93 288.31"/><polyline class="cls-153" points="66.64 288.7 47.88 289.57 51.79 274.1 66.64 288.7"/><polyline class="cls-154" points="66.64 288.7 82.57 278.93 63.41 269.31 66.64 288.7"/><polyline class="cls-131" points="66.64 288.7 63.41 269.31 51.79 274.1 66.64 288.7"/><polyline class="cls-155" points="47.88 289.57 37.4 280.13 51.79 274.1 47.88 289.57"/><polyline class="cls-7" points="37.4 280.13 52.83 266.4 51.79 274.1 37.4 280.13"/><polyline class="cls-100" points="52.83 266.4 66.03 261.16 63.41 269.31 52.83 266.4"/><polyline class="cls-108" points="66.03 261.16 71.83 263.44 63.41 269.31 66.03 261.16"/><polyline class="cls-100" points="71.83 263.44 73.67 262.72 88.5 270 71.83 263.44"/><polyline class="cls-156" points="71.83 263.44 88.5 270 84.56 277.67 71.83 263.44"/><polyline class="cls-103" points="71.83 263.44 82.57 278.93 63.41 269.31 71.83 263.44"/><polyline class="cls-157" points="71.83 263.44 82.57 278.93 84.56 277.67 71.83 263.44"/><polyline class="cls-158" points="90.2 270.84 91.02 271.23 84.56 277.67 90.2 270.84"/><polyline points="128.28 271.42 123.68 274.6 128.71 274.9 128.28 271.42"/><polyline points="128.28 271.42 139.22 273.63 128.71 274.9 128.28 271.42"/><polyline class="cls-159" points="123.68 274.6 118.27 275.37 127.46 283.37 123.68 274.6"/><polyline class="cls-7" points="123.68 274.6 128.71 274.9 127.46 283.37 123.68 274.6"/><polyline class="cls-119" points="118.27 275.37 113.97 276.9 116.98 285.07 118.27 275.37"/><polyline class="cls-160" points="118.27 275.37 116.98 285.07 127.46 283.37 118.27 275.37"/><polyline class="cls-132" points="113.97 276.9 108.34 280.87 112.68 284.31 113.97 276.9"/><polyline class="cls-96" points="113.97 276.9 116.98 285.07 112.68 284.31 113.97 276.9"/><polyline class="cls-108" points="108.34 280.87 110.76 285.58 112.68 284.31 108.34 280.87"/><polyline class="cls-121" points="110.76 285.58 114.34 289.97 116.98 285.07 110.76 285.58"/><polyline class="cls-51" points="110.76 285.58 116.98 285.07 112.68 284.31 110.76 285.58"/><polyline class="cls-104" points="114.34 289.97 117.4 290.71 116.98 285.07 114.34 289.97"/><polyline class="cls-113" points="117.4 290.71 132.47 290.95 127.46 283.37 117.4 290.71"/><polyline class="cls-161" points="117.4 290.71 116.98 285.07 127.46 283.37 117.4 290.71"/><polyline points="132.47 290.95 132.74 290.8 127.46 283.37 132.47 290.95"/><polyline points="132.74 290.8 135.41 288.95 134.82 287.17 132.74 290.8"/><polyline class="cls-162" points="132.74 290.8 134.82 287.17 127.46 283.37 132.74 290.8"/><polyline class="cls-163" points="134.82 287.17 146.66 287.46 145.79 280.56 134.82 287.17"/><polyline class="cls-96" points="134.82 287.17 139.22 273.63 145.79 280.56 134.82 287.17"/><polyline class="cls-11" points="134.82 287.17 139.22 273.63 127.46 283.37 134.82 287.17"/><polyline class="cls-135" points="139.22 273.63 128.71 274.9 127.46 283.37 139.22 273.63"/><polyline class="cls-80" points="176.94 285.05 170.95 282.86 175.72 287.6 176.94 285.05"/><polyline class="cls-15" points="170.95 282.86 167.96 280.85 169.07 283.27 170.95 282.86"/><polyline class="cls-11" points="170.95 282.86 175.72 287.6 167.72 286.14 170.95 282.86"/><polyline class="cls-11" points="170.95 282.86 169.07 283.27 167.72 286.14 170.95 282.86"/><polyline class="cls-140" points="167.96 280.85 164.63 281.81 164.56 281.75 167.96 280.85"/><polyline class="cls-101" points="167.96 280.85 164.63 281.81 169.07 283.27 167.96 280.85"/><polyline class="cls-11" points="164.63 281.81 164.56 281.75 154.4 283.11 164.63 281.81"/><polyline class="cls-141" points="164.63 281.81 154.4 283.11 167.72 286.14 164.63 281.81"/><polyline class="cls-140" points="164.63 281.81 169.07 283.27 167.72 286.14 164.63 281.81"/><polyline class="cls-142" points="154.4 283.11 152.4 291.32 161.1 294.01 154.4 283.11"/><polyline class="cls-55" points="154.4 283.11 161.1 294.01 167.72 286.14 154.4 283.11"/><polyline class="cls-55" points="161.1 294.01 165.52 292.97 167.72 286.14 161.1 294.01"/><polyline class="cls-143" points="165.52 292.97 169.67 294.81 170.94 289.84 165.52 292.97"/><polyline class="cls-121" points="165.52 292.97 167.72 286.14 170.94 289.84 165.52 292.97"/><polyline class="cls-126" points="169.67 294.81 175.21 292.39 170.94 289.84 169.67 294.81"/><polyline class="cls-144" points="175.21 292.39 175.72 287.6 170.94 289.84 175.21 292.39"/><polyline class="cls-137" points="175.72 287.6 167.72 286.14 170.94 289.84 175.72 287.6"/><polyline class="cls-11" points="197.5 283.23 203.42 287.08 202.45 281.27 197.5 283.23"/><polyline class="cls-121" points="197.5 283.23 196.97 280.14 201.28 279.84 197.5 283.23"/><polyline class="cls-15" points="197.5 283.23 202.45 281.27 201.28 279.84 197.5 283.23"/><polyline class="cls-117" points="203.42 287.08 220.54 287.5 206.65 283.69 203.42 287.08"/><polyline class="cls-15" points="203.42 287.08 206.65 283.69 202.45 281.27 203.42 287.08"/><polyline class="cls-122" points="220.54 287.5 220.83 282.02 208.62 280.96 220.54 287.5"/><polyline class="cls-123" points="220.54 287.5 208.62 280.96 206.65 283.69 220.54 287.5"/><polyline class="cls-124" points="220.83 282.02 214.42 276.12 208.62 280.96 220.83 282.02"/><polyline class="cls-125" points="214.42 276.12 205.41 274.29 208.21 276.3 214.42 276.12"/><polyline class="cls-126" points="214.42 276.12 208.62 280.96 208.21 276.3 214.42 276.12"/><polyline class="cls-127" points="205.41 274.29 196.97 280.14 201.28 279.84 205.41 274.29"/><polyline class="cls-128" points="205.41 274.29 201.28 279.84 208.21 276.3 205.41 274.29"/><polyline class="cls-64" points="208.62 280.96 206.65 283.69 202.45 281.27 208.62 280.96"/><polyline class="cls-129" points="208.62 280.96 202.45 281.27 201.28 279.84 208.62 280.96"/><polyline class="cls-130" points="208.62 280.96 201.28 279.84 208.21 276.3 208.62 280.96"/><polyline class="cls-15" points="66.27 294.94 69.97 294.29 70.49 287.25 66.27 294.94"/><polyline class="cls-138" points="66.27 294.94 56.15 287.25 58.29 286.94 66.27 294.94"/><polyline class="cls-116" points="66.27 294.94 70.49 287.25 58.29 286.94 66.27 294.94"/><polyline class="cls-121" points="69.97 294.29 70.42 294.05 70.42 294.06 69.97 294.29"/><polyline class="cls-135" points="69.97 294.29 70.42 294.05 70.49 287.25 69.97 294.29"/><polyline class="cls-145" points="69.97 294.29 70.42 294.06 80.78 290.86 69.97 294.29"/><polyline class="cls-135" points="70.42 294.05 70.42 294.06 70.49 287.25 70.42 294.05"/><polyline class="cls-11" points="70.42 294.06 80.78 290.86 70.49 287.25 70.42 294.06"/><polyline class="cls-119" points="80.78 290.86 84.54 285.73 82.05 286.52 80.78 290.86"/><polyline class="cls-146" points="80.78 290.86 71.19 286.76 70.49 287.25 80.78 290.86"/><polyline class="cls-146" points="80.78 290.86 71.19 286.76 73.26 285.79 80.78 290.86"/><polyline class="cls-147" points="80.78 290.86 73.26 285.79 82.05 286.52 80.78 290.86"/><polyline class="cls-133" points="84.54 285.73 78.11 280.62 82.05 286.52 84.54 285.73"/><polyline class="cls-51" points="78.11 280.62 72.67 281.42 73.26 285.79 78.11 280.62"/><polyline class="cls-92" points="78.11 280.62 73.26 285.79 82.05 286.52 78.11 280.62"/><polyline class="cls-114" points="72.67 281.42 67.45 280.05 71.19 286.76 72.67 281.42"/><polyline class="cls-148" points="72.67 281.42 71.19 286.76 73.26 285.79 72.67 281.42"/><polyline class="cls-149" points="67.45 280.05 59.55 282.56 70.49 287.25 67.45 280.05"/><polyline class="cls-117" points="67.45 280.05 71.19 286.76 70.49 287.25 67.45 280.05"/><polyline class="cls-91" points="59.55 282.56 56.15 287.25 58.29 286.94 59.55 282.56"/><polyline class="cls-110" points="59.55 282.56 70.49 287.25 58.29 286.94 59.55 282.56"/><polyline class="cls-99" points="249.45 280.81 248.96 279.22 247.16 277.74 249.45 280.81"/><polyline class="cls-15" points="249.45 280.81 247.16 277.74 236.51 281.88 249.45 280.81"/><polyline class="cls-131" points="249.45 280.81 249.91 282.3 236.51 281.88 249.45 280.81"/><polyline class="cls-132" points="248.96 279.22 247.54 277.88 247.16 277.74 248.96 279.22"/><polyline points="248.96 279.22 247.54 277.88 245.91 276.06 248.96 279.22"/><polyline points="247.54 277.88 247.16 277.74 245.91 276.06 247.54 277.88"/><polyline class="cls-96" points="247.16 277.74 245.91 276.06 242.14 275.91 247.16 277.74"/><polyline class="cls-133" points="247.16 277.74 242.14 275.91 236.51 281.88 247.16 277.74"/><polyline class="cls-91" points="245.91 276.06 242.14 275.91 241.79 275.78 245.91 276.06"/><polyline class="cls-121" points="242.14 275.91 241.79 275.78 240.31 275.7 242.14 275.91"/><polyline class="cls-7" points="242.14 275.91 240.31 275.7 236.51 281.88 242.14 275.91"/><polyline class="cls-93" points="240.31 275.7 236.15 273.64 236.94 276.63 240.31 275.7"/><polyline class="cls-7" points="240.31 275.7 236.51 281.88 236.94 276.63 240.31 275.7"/><polyline class="cls-7" points="236.15 273.64 228 274.58 236.94 276.63 236.15 273.64"/><polyline class="cls-80" points="228 274.58 223.37 278.35 225.82 281.47 228 274.58"/><polyline class="cls-92" points="228 274.58 225.82 281.47 236.94 276.63 228 274.58"/><polyline class="cls-104" points="223.37 278.35 225.82 281.47 223.96 282.04 223.37 278.35"/><polyline class="cls-104" points="223.37 278.35 223.96 282.04 221.89 283.56 223.37 278.35"/><polyline class="cls-134" points="223.37 278.35 221.89 283.56 221.49 284.89 223.37 278.35"/><polyline class="cls-80" points="225.82 281.47 223.96 282.04 223.74 284.44 225.82 281.47"/><polyline class="cls-92" points="225.82 281.47 223.74 284.44 236.51 281.88 225.82 281.47"/><polyline class="cls-135" points="225.82 281.47 236.51 281.88 236.94 276.63 225.82 281.47"/><polyline class="cls-82" points="223.96 282.04 221.89 283.56 223.74 284.44 223.96 282.04"/><polyline class="cls-82" points="221.89 283.56 221.49 284.89 223.74 284.44 221.89 283.56"/><polyline points="221.49 284.89 222.89 287.84 223.74 284.44 221.49 284.89"/><polyline class="cls-11" points="222.89 287.84 232.18 291.05 223.74 284.44 222.89 287.84"/><polyline class="cls-82" points="232.18 291.05 232.44 291.1 236.51 281.88 232.18 291.05"/><polyline class="cls-92" points="232.18 291.05 223.74 284.44 236.51 281.88 232.18 291.05"/><polyline class="cls-80" points="232.44 291.1 235.35 291.48 236.51 281.88 232.44 291.1"/><polyline class="cls-55" points="235.35 291.48 240.95 290.91 236.51 281.88 235.35 291.48"/><polyline class="cls-15" points="240.95 290.91 251.28 286.79 249.91 282.3 240.95 290.91"/><polyline class="cls-118" points="240.95 290.91 249.91 282.3 236.51 281.88 240.95 290.91"/><polyline class="cls-80" points="94.85 276.27 91.5 278.48 99.08 276.68 94.85 276.27"/><polyline class="cls-119" points="94.85 276.27 99.08 276.68 97.46 275.92 94.85 276.27"/><polyline class="cls-113" points="91.5 278.48 85.97 287.06 101.43 284.59 91.5 278.48"/><polyline class="cls-155" points="91.5 278.48 99.08 276.68 101.43 284.59 91.5 278.48"/><polyline class="cls-119" points="85.97 287.06 87 293.58 90.79 292.72 85.97 287.06"/><polyline class="cls-122" points="85.97 287.06 101.43 284.59 90.79 292.72 85.97 287.06"/><polyline class="cls-164" points="87 293.58 95.46 295.5 90.79 292.72 87 293.58"/><polyline class="cls-82" points="95.46 295.5 111.12 292.42 102.82 291.73 95.46 295.5"/><polyline class="cls-92" points="95.46 295.5 102.82 291.73 90.79 292.72 95.46 295.5"/><polyline points="111.12 292.42 112.2 291.07 105.56 287.92 111.12 292.42"/><polyline class="cls-80" points="111.12 292.42 105.56 287.92 102.82 291.73 111.12 292.42"/><polyline class="cls-96" points="112.2 291.07 115.76 290.09 116.74 286.49 112.2 291.07"/><polyline class="cls-96" points="112.2 291.07 116.74 286.49 105.56 287.92 112.2 291.07"/><polyline class="cls-165" points="116.74 286.49 114.76 278.25 107.5 282.8 116.74 286.49"/><polyline class="cls-92" points="116.74 286.49 105.56 287.92 107.5 282.8 116.74 286.49"/><polyline class="cls-166" points="114.76 278.25 102.45 274.04 107.5 282.8 114.76 278.25"/><polyline class="cls-167" points="102.45 274.04 99.08 276.68 107.5 282.8 102.45 274.04"/><polyline class="cls-109" points="99.08 276.68 107.5 282.8 101.43 284.59 99.08 276.68"/><polyline class="cls-155" points="105.56 287.92 107.5 282.8 101.43 284.59 105.56 287.92"/><polyline class="cls-133" points="105.56 287.92 102.82 291.73 101.43 284.59 105.56 287.92"/><polyline class="cls-55" points="102.82 291.73 101.43 284.59 90.79 292.72 102.82 291.73"/><polyline points="191.5 284.94 188.82 286.8 191.75 286.98 191.5 284.94"/><polyline points="191.5 284.94 197.89 286.24 191.75 286.98 191.5 284.94"/><polyline class="cls-159" points="188.82 286.8 185.66 287.25 191.03 291.93 188.82 286.8"/><polyline class="cls-7" points="188.82 286.8 191.75 286.98 191.03 291.93 188.82 286.8"/><polyline class="cls-119" points="185.66 287.25 183.15 288.14 184.91 292.92 185.66 287.25"/><polyline class="cls-160" points="185.66 287.25 184.91 292.92 191.03 291.93 185.66 287.25"/><polyline class="cls-132" points="183.15 288.14 179.86 290.46 182.4 292.48 183.15 288.14"/><polyline class="cls-96" points="183.15 288.14 184.91 292.92 182.4 292.48 183.15 288.14"/><polyline class="cls-108" points="179.86 290.46 181.27 293.22 182.4 292.48 179.86 290.46"/><polyline class="cls-121" points="181.27 293.22 183.36 295.78 184.91 292.92 181.27 293.22"/><polyline class="cls-51" points="181.27 293.22 184.91 292.92 182.4 292.48 181.27 293.22"/><polyline class="cls-104" points="183.36 295.78 185.15 296.22 184.91 292.92 183.36 295.78"/><polyline class="cls-113" points="185.15 296.22 193.95 296.36 191.03 291.93 185.15 296.22"/><polyline class="cls-161" points="185.15 296.22 184.91 292.92 191.03 291.93 185.15 296.22"/><polyline points="193.95 296.36 194.11 296.27 191.03 291.93 193.95 296.36"/><polyline points="194.11 296.27 195.67 295.19 195.33 294.15 194.11 296.27"/><polyline class="cls-162" points="194.11 296.27 195.33 294.15 191.03 291.93 194.11 296.27"/><polyline class="cls-163" points="195.33 294.15 202.24 294.32 201.74 290.29 195.33 294.15"/><polyline class="cls-96" points="195.33 294.15 197.89 286.24 201.74 290.29 195.33 294.15"/><polyline class="cls-11" points="195.33 294.15 197.89 286.24 191.03 291.93 195.33 294.15"/><polyline points="202.24 294.32 202.44 290.43 201.74 290.29 202.24 294.32"/><polyline points="202.44 290.43 197.89 286.24 201.74 290.29 202.44 290.43"/><polyline class="cls-135" points="197.89 286.24 191.75 286.98 191.03 291.93 197.89 286.24"/><polygon class="cls-32" points="173.68 301.14 175.74 308.62 165.36 304.51 173.68 301.14"/><polygon class="cls-33" points="177.1 308.01 175.74 308.62 178.23 305.17 177.1 308.01"/><polygon class="cls-34" points="150.16 294.34 162.07 295.22 148.87 299.12 150.16 294.34"/><polygon class="cls-35" points="158.25 311.35 148.87 299.12 165.36 304.51 158.25 311.35"/><polygon class="cls-36" points="178.23 305.17 175.74 308.62 173.68 301.14 178.23 305.17"/><polygon class="cls-37" points="165.36 304.51 169.14 294.25 173.68 301.14 165.36 304.51"/><polygon class="cls-38" points="169.14 294.25 174.77 299.72 173.68 301.14 169.14 294.25"/><polygon class="cls-12" points="174.77 299.72 178.23 305.17 173.68 301.14 174.77 299.72"/><polygon class="cls-39" points="148.87 299.12 162.07 295.22 165.36 304.51 148.87 299.12"/><polygon class="cls-40" points="162.07 295.22 169.14 294.25 165.36 304.51 162.07 295.22"/><polygon class="cls-41" points="149.19 314.44 143.71 306.82 158.25 311.35 149.19 314.44"/><polygon class="cls-42" points="158.25 311.35 143.71 306.82 148.87 299.12 158.25 311.35"/><polygon class="cls-43" points="159.71 314.6 149.19 314.44 158.25 311.35 159.71 314.6"/><polygon class="cls-44" points="165.36 304.51 159.71 314.6 158.25 311.35 165.36 304.51"/><polygon class="cls-11" points="175.74 308.62 159.71 314.6 165.36 304.51 175.74 308.62"/><polygon class="cls-45" points="55.2 294.09 55.2 294.08 55.2 294.09 55.2 294.09"/><polygon class="cls-46" points="55.2 294.08 59.78 295.84 55.2 294.09 55.2 294.08"/><polygon class="cls-45" points="55.2 294.09 55.2 294.08 55.2 294.09 55.2 294.09"/><polygon class="cls-47" points="56.75 300.44 59.78 295.84 60.7 300.95 56.75 300.44"/><polygon class="cls-48" points="55.2 294.09 59.78 295.84 56.75 300.44 55.2 294.09"/><polygon class="cls-49" points="59.78 295.84 63.46 298.5 60.7 300.95 59.78 295.84"/><polygon class="cls-50" points="47.9 297.8 55.2 294.08 55.2 294.09 47.9 297.8"/><polygon class="cls-14" points="55.2 294.09 47.9 297.8 55.2 294.09 55.2 294.09"/><polygon points="54.76 304.25 52.08 303.72 52.08 303.72 54.76 304.25"/><polygon class="cls-51" points="56.91 301.83 54.76 304.25 52.08 303.72 56.91 301.83"/><polygon class="cls-52" points="52.08 303.72 47.9 297.8 52.08 303.72 52.08 303.72"/><polygon class="cls-53" points="61.05 302.87 54.76 304.25 56.91 301.83 61.05 302.87"/><polygon class="cls-54" points="55.2 294.09 47.9 297.8 55.2 294.09 55.2 294.09"/><polygon class="cls-7" points="56.75 300.44 47.9 297.8 55.2 294.09 56.75 300.44"/><polygon class="cls-55" points="52.08 303.72 47.9 297.8 56.75 300.44 52.08 303.72"/><polygon class="cls-26" points="60.7 300.95 61.05 302.87 56.91 301.83 60.7 300.95"/><polygon class="cls-56" points="52.08 303.72 56.75 300.44 56.91 301.83 52.08 303.72"/><polygon class="cls-54" points="56.75 300.44 60.7 300.95 56.91 301.83 56.75 300.44"/><polygon class="cls-57" points="12.85 293.4 23.07 295.65 13.92 293.77 12.85 293.4"/><polygon class="cls-7" points="15 300 24.69 304.89 10.44 306.13 15 300"/><polygon class="cls-55" points="24.69 304.89 13.28 310.52 10.44 306.13 24.69 304.89"/><polygon class="cls-58" points="10.44 306.13 13.28 310.52 6.43 309.53 10.44 306.13"/><polygon class="cls-59" points="27.89 299.82 24.69 304.89 15 300 27.89 299.82"/><polygon class="cls-60" points="6.43 309.53 4.39 307.46 10.44 306.13 6.43 309.53"/><polygon class="cls-61" points="10.69 299.33 12.85 293.4 13.92 293.77 10.69 299.33"/><polygon class="cls-7" points="15 300 10.44 306.13 10.69 299.33 15 300"/><polygon class="cls-62" points="13.92 293.77 15 300 10.69 299.33 13.92 293.77"/><polygon class="cls-63" points="7.36 294.76 9.12 293.73 10.69 299.33 7.36 294.76"/><polygon class="cls-64" points="10.44 306.13 4.52 306.43 10.69 299.33 10.44 306.13"/><polygon class="cls-11" points="4.52 306.43 7.36 294.76 10.69 299.33 4.52 306.43"/><polygon class="cls-65" points="4.39 307.46 4.52 306.43 10.44 306.13 4.39 307.46"/><polygon class="cls-7" points="13.92 293.77 23.07 295.65 15 300 13.92 293.77"/><polygon class="cls-11" points="23.07 295.65 27.89 299.82 15 300 23.07 295.65"/><polygon class="cls-66" points="9.12 293.73 12.85 293.4 10.69 299.33 9.12 293.73"/><polygon class="cls-11" points="77.72 303.44 78.64 302.83 79.11 305.91 77.72 303.44"/><polygon class="cls-15" points="89.34 300.26 78.64 302.83 81.76 297.53 89.34 300.26"/><polygon class="cls-30" points="77.84 301.98 77.71 299.65 78.64 302.83 77.84 301.98"/><polygon class="cls-67" points="78.64 302.83 77.71 299.65 81.76 297.53 78.64 302.83"/><polygon class="cls-48" points="79.11 305.91 78.64 302.83 84.5 307.95 79.11 305.91"/><polygon class="cls-68" points="91.01 305.54 89.08 306.26 91.25 302.73 91.01 305.54"/><polygon class="cls-69" points="89.08 306.26 78.64 302.83 89.34 300.26 89.08 306.26"/><polygon class="cls-6" points="91.25 302.73 89.08 306.26 89.34 300.26 91.25 302.73"/><polygon class="cls-70" points="84.5 307.95 78.64 302.83 89.08 306.26 84.5 307.95"/><polygon class="cls-71" points="31.33 293.66 33.74 291.7 32.64 293.18 31.33 293.66"/><polygon class="cls-72" points="32.64 293.18 33.74 291.7 38.23 292.94 32.64 293.18"/><polygon class="cls-73" points="33.74 291.7 39.29 290.84 38.23 292.94 33.74 291.7"/><polygon class="cls-74" points="31.82 295.5 31.33 293.66 32.64 293.18 31.82 295.5"/><polygon class="cls-16" points="41.56 291.16 42.29 293.39 39.29 290.84 41.56 291.16"/><polygon class="cls-19" points="32.85 298.62 31.82 295.5 35.88 296.48 32.85 298.62"/><polygon class="cls-15" points="35.88 296.48 31.82 295.5 38.23 292.94 35.88 296.48"/><polygon class="cls-75" points="38.23 292.94 31.82 295.5 32.64 293.18 38.23 292.94"/><polygon class="cls-76" points="37.82 298.18 34.86 299.26 35.88 296.48 37.82 298.18"/><polygon class="cls-11" points="35.88 296.48 34.86 299.26 32.85 298.62 35.88 296.48"/><polygon class="cls-77" points="39.06 297.29 37.82 298.18 35.88 296.48 39.06 297.29"/><polygon class="cls-15" points="38.23 292.94 39.06 297.29 35.88 296.48 38.23 292.94"/><polygon class="cls-39" points="42.29 293.39 41.12 295.24 38.23 292.94 42.29 293.39"/><polygon class="cls-4" points="41.12 295.24 39.06 297.29 38.23 292.94 41.12 295.24"/><polygon class="cls-30" points="39.29 290.84 42.29 293.39 38.23 292.94 39.29 290.84"/><polygon class="cls-78" points="109.14 303.21 113.14 300.31 110.66 304.98 109.14 303.21"/><polygon class="cls-79" points="118.04 302.34 119.67 306.67 116.8 308.38 118.04 302.34"/><polygon class="cls-80" points="119.67 306.67 118.12 307.97 116.8 308.38 119.67 306.67"/><polygon class="cls-81" points="110.66 304.98 118.04 302.34 116.8 308.38 110.66 304.98"/><polygon class="cls-78" points="113.14 300.31 118.04 302.34 110.66 304.98 113.14 300.31"/><polygon class="cls-82" points="118.12 307.97 118.97 309.2 116.8 308.38 118.12 307.97"/><polygon class="cls-19" points="116.8 308.38 114.06 311.38 109.29 310.83 116.8 308.38"/><polygon class="cls-83" points="118.63 310.94 114.06 311.38 116.8 308.38 118.63 310.94"/><polygon class="cls-19" points="118.97 309.2 118.63 310.94 116.8 308.38 118.97 309.2"/><polygon class="cls-84" points="116.8 308.38 109.29 310.83 110.66 304.98 116.8 308.38"/><polygon class="cls-85" points="120.45 303.7 119.67 306.67 118.04 302.34 120.45 303.7"/><polygon class="cls-86" points="109.29 310.83 106.81 307.41 110.66 304.98 109.29 310.83"/><polygon class="cls-87" points="106.81 307.41 109.14 303.21 110.66 304.98 106.81 307.41"/><polygon class="cls-71" points="129.28 297.95 124.43 297.56 127.51 297.26 129.28 297.95"/><polygon class="cls-72" points="127.51 297.26 124.43 297.56 122.58 292.79 127.51 297.26"/><polygon class="cls-73" points="124.43 297.56 118.63 293.62 122.58 292.79 124.43 297.56"/><polygon class="cls-74" points="131.57 296.04 129.28 297.95 127.51 297.26 131.57 296.04"/><polygon class="cls-16" points="117.25 291.47 119.91 289.04 118.63 293.62 117.25 291.47"/><polygon class="cls-19" points="135.31 292.63 131.57 296.04 129.69 291.84 135.31 292.63"/><polygon class="cls-15" points="129.69 291.84 131.57 296.04 122.58 292.79 129.69 291.84"/><polygon class="cls-75" points="122.58 292.79 131.57 296.04 127.51 297.26 122.58 292.79"/><polygon class="cls-76" points="130.59 288.84 134.6 290.42 129.69 291.84 130.59 288.84"/><polygon class="cls-11" points="129.69 291.84 134.6 290.42 135.31 292.63 129.69 291.84"/><polygon class="cls-77" points="128.26 288.53 130.59 288.84 129.69 291.84 128.26 288.53"/><polygon class="cls-15" points="122.58 292.79 128.26 288.53 129.69 291.84 122.58 292.79"/><polygon class="cls-39" points="119.91 289.04 123.58 288.5 122.58 292.79 119.91 289.04"/><polygon class="cls-4" points="123.58 288.5 128.26 288.53 122.58 292.79 123.58 288.5"/><polygon class="cls-30" points="118.63 293.62 119.91 289.04 122.58 292.79 118.63 293.62"/><path class="cls-168" d="M168,138.22s26.19,32.13-3.39,82.38C164.62,220.6,183.75,185.53,168,138.22Z"/><path class="cls-168" d="M155.17,10.92C158,129.5,234,159.22,170.31,243.77,216.47,138.15,158,141.8,155.17,10.92Z"/><path class="cls-168" d="M178.6,10.92c2.83,118.58,78.79,148.3,15.14,232.85C239.89,138.15,181.43,141.8,178.6,10.92Z"/><path class="cls-168" d="M90.25,141.57s-20.11,23.27,2.6,59.67C92.85,201.24,78.16,175.84,90.25,141.57Z"/><path class="cls-168" d="M100.1,49.36C97.93,135.26,39.62,156.78,88.48,218,53.05,141.52,97.93,144.17,100.1,49.36Z"/><path class="cls-168" d="M88.62,3.53C85.79,122.11,9.83,151.83,73.48,236.38,27.32,130.76,85.79,134.41,88.62,3.53Z"/></svg>