<svg id="Layer_1" data-name="Layer 1" xmlns="http://www.w3.org/2000/svg" viewBox="0 0 440 380"><defs><style>.cls-1{fill:#f6d4c4;stroke:#9d6c57;stroke-miterlimit:10;stroke-width:2px;}.cls-2{opacity:0.26;}.cls-3{fill:#a4685f;}.cls-4{fill:#c8897c;opacity:0.41;}</style></defs><path class="cls-1" d="M298,202.5c0,61.47-34.94,98.79-78,98.79S142,264,142,202.5,176.91,78.71,220,78.71,298,141,298,202.5Z"/><g class="cls-2"><path class="cls-3" d="M265.7,263.16c0,4.91-3.16,9.87-8.4,9.87s-6.53-4.3-6.53-9.21,1.29-10.2,6.53-10.2S265.7,258.25,265.7,263.16Z"/><path class="cls-3" d="M282.62,203.33c0,4.61-3,9.27-7.88,9.27s-7.89-4-7.89-8.65,3-9.58,7.89-9.58S282.62,198.73,282.62,203.33Z"/><path class="cls-3" d="M253.44,245.33c0,3.55-2.28,5.71-6.07,5.71s-6.07-1.68-6.07-5.23,1.83-5.47,5.62-5.47S253.44,241.79,253.44,245.33Z"/><path class="cls-3" d="M258.31,214.62c0,3.55-2.28,5.71-6.07,5.71s-6.07-1.69-6.07-5.23,1.83-5.47,5.62-5.47S258.31,211.08,258.31,214.62Z"/><path class="cls-3" d="M230.58,256.23c0,3.55-2.28,5.71-6.06,5.71s-6.07-1.69-6.07-5.23,1.83-5.47,5.62-5.47S230.58,252.69,230.58,256.23Z"/><path class="cls-3" d="M272.13,235.44c0,4.21-2.71,8.47-7.2,8.47s-5.6-3.69-5.6-7.9,1.1-8.75,5.6-8.75S272.13,231.24,272.13,235.44Z"/><path class="cls-3" d="M248.57,267.53c0,3.54-2.28,5.7-6.07,5.7s-6.07-1.68-6.07-5.23,1.83-5.47,5.62-5.47S248.57,264,248.57,267.53Z"/><path class="cls-3" d="M216.2,219.4c0,2.3-1.48,3.7-3.94,3.7s-3.93-1.09-3.93-3.39,1.19-3.54,3.64-3.54S216.2,217.11,216.2,219.4Z"/><path class="cls-3" d="M165.51,212.77c0,2.29-1.48,3.7-3.94,3.7s-3.93-1.1-3.93-3.39,1.19-3.55,3.64-3.55S165.51,210.47,165.51,212.77Z"/><path class="cls-3" d="M191.17,254.33a2.72,2.72,0,0,1-3,2.85c-1.9,0-3-.84-3-2.61s.92-2.74,2.81-2.74S191.17,252.56,191.17,254.33Z"/><path class="cls-3" d="M215,242.09c0,2.3-1.48,3.7-3.93,3.7s-3.94-1.09-3.94-3.39,1.19-3.54,3.65-3.54S215,239.79,215,242.09Z"/></g><path class="cls-4" d="M239.36,298.66c34.67-37.61,40.09-93.57,38.57-124.92-2.37-48.76-27.19-82.53-27.19-82.53s17.73,13.76,30.74,40c7.2,14.54,14.18,41.26,15,69C297.9,248.12,273.59,289,239.36,298.66Z"/></svg>