<svg id="Layer_1" data-name="Layer 1" xmlns="http://www.w3.org/2000/svg" viewBox="0 0 490 160"><defs><style>.cls-1{fill:#ff722c;stroke:#e23a1a;}.cls-1,.cls-2,.cls-4{stroke-miterlimit:10;}.cls-1,.cls-2{stroke-width:1.03px;}.cls-2{fill:#ce3a1d;opacity:0.44;}.cls-2,.cls-4{stroke:#ef4720;}.cls-3{fill:#ff4e00;}.cls-4{fill:#ff8c2e;}</style></defs><path class="cls-1" d="M51.82,94.46c35.59,10.67,45.41,17.7,78.31,20.24,18.84,2.72,31.25,18.89,12.32,24.79,6.08,7.47,28.21,18.14,48.36,5.93,9.93-7.55,5.51-10.21,11-17.76s16.28-4.79,30.78,6.14,31.3,22.18,61.36,8.38c-10.23-2.94-21.79-12.1-18.42-20.36s15.72-8.92,34.34,1.79,47.41,21.08,79.88,6.57,58.26-36.87,80.37-7.24c0,0,.61-29.26-28.75-34.72s-40.72,9.34-54.1-15.37C399,72,409.59,57.46,405.74,41.41c-9,4-19.62,14.15-44.19,5.08s-43.77-25-70.73-5.19C296.31,23,284,5.41,284,5.41S267,27.61,250,28.2s-41-11.06-63.9,3.28-30.87,29.57-44.46,28.94c8.23-14,7.66-25.72.25-33.45-5.19,14.75-16.58,29-33.74,38.68s-42.77,8.29-62.31,6.77S3.45,94.48,3.45,94.48,16.23,83.78,51.82,94.46Z"/><path class="cls-2" d="M131.26,102.66C98.37,100.11,88.54,93.09,53,82.41A105.63,105.63,0,0,0,28,77.76C15.14,84.27,4.58,95.15,4.58,95.15s12.78-10.71,48.37,0,45.42,17.7,78.31,20.24c8,1.16,14.86,4.75,18.63,9C158.77,117.15,147.38,105,131.26,102.66Z"/><path class="cls-2" d="M231.74,121.3c-14.5-10.94-25.34-13.69-30.78-6.14s-1,10.21-11,17.76c-14.37,8.71-29.75,5.77-39.59.67-1.17,2.44-3.95,4.61-8.76,6.11,6.07,7.46,28.2,18.13,48.35,5.93,9.93-7.55,5.52-10.22,11-17.77s16.28-4.79,30.78,6.14,31.31,22.18,61.37,8.38a35.6,35.6,0,0,1-13.92-7.8C257.54,139.74,243.83,130.42,231.74,121.3Z"/><path class="cls-2" d="M388.9,118.13c-32.47,14.51-61.26,4.15-79.88-6.56s-31-10-34.34-1.79c-1.32,3.24-.34,6.61,1.95,9.69,5-5.2,16.38-4.41,32.39,4.81,18.62,10.71,47.41,21.07,79.88,6.56S447.16,94,469.27,123.6a40.07,40.07,0,0,0-4.88-18.35C443.38,84.48,419,104.67,388.9,118.13Z"/><path class="cls-3" d="M166.19,121.07c6.5-19.92,27.93-35.92,77.6.35-6.42-11.26,4.66-21.22,29.11-24.6s74.8,25.53,113.93,12.28c0,0-40.49-5.74-39.24-28.26.43-4.28,16.27.75,26.69-13.39-15.37.36-16.46,3.11-31.87-6.21s-29.5-7.55-49.57-1.83a341.15,341.15,0,0,1-37.3,8.36s14.09-14.19,9.13-28.83c-3.54,7.8-16.44,18.17-28.78,17s-36.48-9-68.25,18.35c3.28-8.23,1.7-18.85,1.7-18.85S107.33,88.29,77,87.53C105.42,95.08,161.05,103.2,166.19,121.07Z"/><path class="cls-4" d="M153.36,45.19S167,31.2,155,14.35c-4.53-6.38-13.38-2.48-10,4.58,1.22,2.54,5.14,5.92,8,9.51C153,28.44,158.07,34.8,153.36,45.19Z"/><path class="cls-4" d="M208.71,130.45s19-4.71,27.33,14.72c3.16,7.36-4.72,13.17-9.06,6.47-1.56-2.41-2.45-7.66-4.07-12.09C222.91,139.55,220.06,131.72,208.71,130.45Z"/><path class="cls-4" d="M486.55,55.32c-27.29,25.33-55.16-14.75-82.2,23.73C433.27,68.74,471.64,105.32,486.55,55.32Z"/><path class="cls-4" d="M329.49,11.63c-9.36,14.61-26.6-.22-34.31,20.29C307,23.9,328.59,35.92,329.49,11.63Z"/></svg>