<svg id="Layer_1" data-name="Layer 1" xmlns="http://www.w3.org/2000/svg" viewBox="0 0 180 50"><defs><style>.cls-1{fill:#ef4720;stroke:#d63212;}.cls-1,.cls-2{stroke-miterlimit:10;stroke-width:0.5px;}.cls-2{fill:#ff8c2e;stroke:#ef4720;}.cls-3{fill:#ff9b50;}.cls-4{fill:#ffcc4d;}</style></defs><path class="cls-1" d="M74.29,38.71c1.61-.85,2.51-2.24,5.21-1.51C77.38,35.72,72,38,69.16,38a25.35,25.35,0,0,1-11.51-3c5.14.21,9.83,1,15.06,0,7.18-1.4,12.93-4.53,16.65-8.49,3.12-3.32,4.87-6.78,11.73-7.82a21.67,21.67,0,0,1,11.24,1.72C105.76,15.89,94.49,13.35,85,15c-5.77,1-9.5,3.54-14.18,5.62-2.35,1.05-8.07,2.29-10.16.27,4-1.16,8.38-3,6.69-6.2-2.55,3.68-8.68,3.22-13.43,1.55-7.41-2.61-13.38-6.35-22.26-7.08-6.77-.57-18.16,1.55-21.4,5.17-1.16,1.3-8,7.49-.12,15.73C14.84,35,23,38.63,29,38c7.7-.84,9.64-4.16,15.11-4.32,6.84-.19,6.37,4.12,11.31,6a25.21,25.21,0,0,0,12.17.92A22.38,22.38,0,0,0,74.29,38.71Z"/><path class="cls-2" d="M128.59,28.8c-7.68.68-11.09-2.54-17.11-4.86a19.75,19.75,0,0,0-15.42,1.3c-1.64.88-7.27,4.43-7.37,5.81,2.92-.82,5.51-2.34,8.59-3.12a29,29,0,0,1,12.29-.27c3.3.58,6,2.24,9.26,2.67C123.12,30.88,125,29.27,128.59,28.8Z"/><path class="cls-2" d="M130.27,16.66a26,26,0,0,1,11.18-.84c3.42.45,7.61,2.33,11.1,1.57-8.07-1.17-12.63-6.14-22-5.38-5.17.42-8.62,2-10.4,5-1.43,2.42-1.93,5-7,5.41a8.72,8.72,0,0,1-1.12,0l-.33-.13C119.05,25.85,124.82,18.44,130.27,16.66Z"/><path class="cls-2" d="M173.61,18.09c-8.6-1.37-13.17,3.17-21.73,2-7.29-1-14.18-4.87-20.5-1.79l-4.16,1.88c4.32,0,6.77-.6,11.3.87a63.48,63.48,0,0,0,12.37,3.21C161.25,25.54,165.23,20.08,173.61,18.09Z"/><path class="cls-3" d="M55.22,18.83l-.4.21A1.37,1.37,0,0,0,55.22,18.83Z"/><path class="cls-3" d="M48.51,28.34c5.12.95,14,5.4,24.09,2.5C84.09,27.55,80.06,25,92.82,19.09,86.51,18.36,81.08,22,79.68,23c-3,2.06-8.14,3.37-13.61,3.19-6.83-.23-13.8-3.06-20.87-3.94.58,0,1.15,0,1.72,0a15.37,15.37,0,0,0,7.79-2.32c-4,1.41-11.85-5.93-25.93-8.07C24.47,11.19,17.12,14,14.08,16c-6.39,4.27-3,11,.79,14A21,21,0,0,0,26.48,34c5.14.24,9.69-1.46,14.23-2.77,2.09-.6,4.16-1.23,6.37-.71,2.59.6,3.26,2.42,5.81,3C51.67,32.08,51.37,29,48.51,28.34Zm-.92-.13a8.53,8.53,0,0,0-1.88.13A4.7,4.7,0,0,1,47.59,28.21Z"/><path class="cls-4" d="M34.31,25.1c3.76-.18,7.66-.59,11.27.13,4.72.95,9.84,2.93,14.52,2.41-5.48-.68-11.28-3.07-15-4.64-2.49-1.06-8.35-3.91-11.77-2.88A17.81,17.81,0,0,1,43,19.27c-7.76-5.7-27.24-6-29.4,1.76C12,26.72,20.9,30.87,27.07,30.12s13.51-3,18.66-1.22C42.41,26.66,39.13,25.66,34.31,25.1Z"/></svg>