<?xml version="1.0" encoding="utf-8"?>
<!-- Generator: Adobe Illustrator 25.2.3, SVG Export Plug-In . SVG Version: 6.00 Build 0)  -->
<svg version="1.1" id="Layer_1" xmlns="http://www.w3.org/2000/svg" xmlns:xlink="http://www.w3.org/1999/xlink" x="0px" y="0px"
	 viewBox="0 0 430 512" style="enable-background:new 0 0 430 512;" xml:space="preserve">
<style type="text/css">
	.st0{opacity:0.2;enable-background:new    ;}
	.st1{fill:#723600;}
	.st2{fill:#8E430C;}
	.st3{fill:#B76400;}
	.st4{fill:#A85C09;}
	.st5{fill:#9B520A;}
	.st6{fill:#934B0A;}
	.st7{fill:#F2D857;}
	.st8{fill:#FFFB92;}
	.st9{clip-path:url(#SVGID_2_);}
	.st10{clip-path:url(#SVGID_4_);}
	.st11{fill:url(#SVGID_5_);}
	.st12{fill:#B9D7EF;}
	.st13{fill:#A8E533;}
	.st14{clip-path:url(#SVGID_7_);}
	.st15{fill:url(#SVGID_8_);}
	.st16{clip-path:url(#SVGID_10_);}
	.st17{fill:url(#SVGID_11_);}
	.st18{clip-path:url(#SVGID_13_);}
	.st19{fill:url(#SVGID_14_);}
	.st20{clip-path:url(#SVGID_16_);}
	.st21{fill:url(#SVGID_17_);}
	.st22{clip-path:url(#SVGID_19_);}
	.st23{fill:url(#SVGID_20_);}
	.st24{fill:#95CBD3;}
	.st25{fill:#72CD34;}
	.st26{clip-path:url(#SVGID_22_);}
	.st27{fill:url(#SVGID_23_);}
	.st28{clip-path:url(#SVGID_25_);}
	.st29{fill:url(#SVGID_26_);}
	.st30{clip-path:url(#SVGID_28_);}
	.st31{fill:url(#SVGID_29_);}
	.st32{clip-path:url(#SVGID_31_);}
	.st33{fill:url(#SVGID_32_);}
	.st34{fill:#3DBF47;}
	.st35{clip-path:url(#SVGID_34_);}
	.st36{fill:url(#SVGID_35_);}
	.st37{fill:#4C9A22;}
	.st38{fill:#01491D;}
	.st39{fill:#032616;}
	.st40{fill:#011C25;}
	.st41{clip-path:url(#SVGID_37_);}
	.st42{fill:url(#SVGID_38_);}
	.st43{clip-path:url(#SVGID_40_);}
	.st44{fill:url(#SVGID_41_);}
	.st45{fill:#93402A;stroke:#4C3B0C;stroke-miterlimit:10;}
	.st46{fill:none;stroke:#D1A384;stroke-miterlimit:10;}
	.st47{fill:#F9803D;stroke:#56230A;stroke-miterlimit:10;}
	.st48{fill:none;stroke:#56230A;stroke-miterlimit:10;}
	.st49{fill:#F7E8BC;stroke:#664B10;stroke-miterlimit:10;}
	.st50{fill:#CC773E;stroke:#704018;stroke-miterlimit:10;}
	.st51{fill:#F9803D;}
	.st52{fill:#BA5224;}
	.st53{fill:#F7E8BC;}
	.st54{fill:#664B10;}
	.st55{fill:#E9BA26;}
	.st56{fill:#E9BA26;stroke:#664B10;stroke-miterlimit:10;}
	.st57{fill:#325109;}
	.st58{fill:#4C0909;stroke:#4C372D;stroke-miterlimit:10;}
	.st59{fill:#FFFFFF;stroke:#4C372D;stroke-miterlimit:10;}
	.st60{fill:#F71111;}
	.st61{fill:#3A0101;}
	.st62{fill:#FFFFFF;}
	.st63{fill:#4C372D;}
	.st64{fill:#171B1E;}
	.st65{fill:#FAFBFC;}
	.st66{fill:#8E4325;}
	.st67{fill:#5B2704;}
	.st68{fill:#4E6B00;}
	.st69{fill:#5D8E07;}
	.st70{fill:#77A004;}
	.st71{fill:#88B709;}
</style>
<path class="st0" d="M47.9,39.8C26.2,43,9.8,60.4,9.9,81.8s0.9,348.9,6.8,371.3s25.8,30.9,48.1,32.9s292.2,4.5,315.2,0.6
	s32.1-15.2,35.2-37.7s6-336.8,4.6-361.5c-2-33.8-17.5-50.7-46.6-50.9C349.9,36.4,67.7,36.8,47.9,39.8z"/>
<path class="st1" d="M54.2,31.4C32.9,34.7,16.9,52.1,17,73.5s0.9,348.9,6.6,371.3s25.3,30.9,47.1,32.9s286.2,4.5,308.7,0.6
	s31.4-15.2,34.5-37.7s5.9-336.8,4.5-361.5c-1.9-33.8-17.1-50.6-45.7-50.9C350,28.1,73.6,28.4,54.2,31.4z"/>
<path class="st2" d="M51.4,26.6c-21.2,3.3-37.3,20.6-37.2,42.1s0.9,348.9,6.6,371.3s25.3,30.9,47.1,32.9s286.2,4.5,308.7,0.6
	s31.4-15.2,34.5-37.7S417,99,415.6,74.3c-2-33.8-17.1-50.6-45.7-50.9C347.2,23.3,70.8,23.6,51.4,26.6z"/>
<path class="st3" d="M46.6,28.2c-8.3,0-27,15.8-29.7,33.1S19.1,429,20.8,440s14.4,27.6,39.4,28.5c5.1-2.8,6.4-38.3,6.4-38.3
	s0.9,36.9,4.4,38.9c6.4,3.7,41.4,2.5,42.8,0.2s-5.6-437.7-8.4-441s-50.2-3.2-50.6,0S49.7,71,49.7,71S49.8,28.2,46.6,28.2z"/>
<path class="st3" d="M119.1,469.2c2.9,3.2,43.6,3.8,46.9,2.3s9.8-5.2,9.8-5.2s3.8,5.4,6.1,5.8s8.4,1.3,9.9-0.6s4.1-15.7,4.1-15.7
	s-0.8,14.7,1.5,15.7s34.7,1.6,38.4,0.7s1-37.8,2.9-39s3.8,37,5.6,38.4s76,2.9,79.7,1.5s2.8-444.9-1.4-447.2s-35.2-1.9-37.5,0
	s-5.6,37.5-5.6,37.5s0.5-35.3-2.4-37.5s-22.3-2.2-24.8-2.1s-4.8,99.4-4.8,99.4s-0.5-95.2-5.6-97.3s-69-3.5-73.6-1.6
	s-14.1,29.1-14.1,29.1s4.2-26,0.9-27.5s-40.1-2.5-45,0S114.4,463.9,119.1,469.2z"/>
<path class="st3" d="M326.7,27c-5.4,1.8,2.9,440.7,5.6,444.4s47,2.4,53,0s6.3-52,6.3-52s1.2,41.6,4.2,43.1s13.4-18,14-34.4
	s5.2-360.1,3.4-371s-15.2-28.7-26.1-31s-6,57.1-9.2,53.3s0.8-51.3-3.6-53.7S330.3,25.8,326.7,27z"/>
<path class="st2" d="M388.1,70c0-6.2,9.1-5.4,11.5,0.5S388.1,80.2,388.1,70z"/>
<path class="st2" d="M377.8,53.5c5.4,7,3.8,16.4-0.3,16.9S374,48.6,377.8,53.5z"/>
<path class="st4" d="M41.6,39.8C36.2,37.5,21,47.7,19,60.6s1.2,256.3,4.7,259.3s43.6,5,43.6,5s-39.4,1.7-42.2,7.3s4,105.1,4.2,114.5
	S49,465.1,54.6,462s5.6-129.9,5.6-129.9s9.8,127.4,15.5,130.5s28,1.9,33.1-5.5s-4.9-414.5-8.4-421.4s-32-10.9-35.3-7.4
	S52.5,207.5,52.5,207.5S47.6,42.2,41.6,39.8z"/>
<path class="st4" d="M113.9,29.6c-4.9,4.3-4,160,0,160.8s29.3-33.7,32.2-41s6.5-112.2,3.6-113.7S118.5,25.5,113.9,29.6z"/>
<path class="st4" d="M172.1,29.5c-10.4,3-16.2,52-17.6,58.5s4.4,369.1,11,371.2s17.1,10.8,22.7,8.3s4.2-81.1,4.2-81.1
	s3.5,78.9,9.9,80.3s25.8,1,31.1-1.7s8.3-426.2,2.6-431.5S181.4,26.8,172.1,29.5z"/>
<path class="st4" d="M150.7,167.1c-6.6-3.2-35.2,22.9-36.8,32.1s6.8,254.8,8.9,259.7s34.5,0,35.9,0S156.8,170,150.7,167.1z"/>
<path class="st4" d="M243.8,425.8c0.9,8.5,3.5,32.6,6.3,35.3s64,4,67.5,0s4.9-421.3,1.4-423.8s-26-4.6-29.5-1.7
	s-12.7,90.1-12.7,90.1s3.5-95.6-2.1-94.8s-18.3,1.2-20.4,5.6S241.8,406.4,243.8,425.8z"/>
<path class="st4" d="M332,35.6c-2.4,3.6-1.4,259.6,0.5,262.4s35.6,8.2,38,7.8s7-69.8,6.6-68.8s3.3,30.2,6.1,31s20.6,3.3,23-0.8
	s0.5-196.5,0-206s-17.3-20.2-20.4-17.1s-4.4,88.9-4.4,88.9s-9.5-93.4-16.5-96.5S335.8,30,332,35.6z"/>
<path class="st4" d="M332.9,310.4c-0.7,6.6,4.2,152.1,7.5,153.6s36.1,2.1,42.7-2.9s4.7-49,4.7-49S393,445.5,399,447
	s9.8-15.2,8.2-24.6s3.4-144.8-0.3-146.5s-27.7-2.3-27.4,5.8s-4.4,28.6-4.4,28.6S333.5,305.4,332.9,310.4z"/>
<path class="st5" d="M384,390.6c10.7,3.7,6.1,22.2-6.8,16S373.8,387,384,390.6z"/>
<path class="st5" d="M385,202.9c15.9,3.8,2.4,21-5.5,16.6S371.1,199.6,385,202.9z"/>
<path class="st5" d="M311.1,226.4c3.5,2.6,7.7,60.7,1.9,77s-6.2,3.2-7.5,43.5s-4.1,53-10.7,54.9s-13.4-74-11.4-79.7
	s6.2,51.2,10.3,52.5s2.8-49.2,3.3-73.2s8.4-13.9,9.1-30.3S306.7,223.1,311.1,226.4z"/>
<path class="st5" d="M395.5,96.5c2.4,5.5-5,6.2-6,2.6S394.2,93.5,395.5,96.5z"/>
<path class="st5" d="M392.6,376.7c5-4.2-2.3-9-6.6-5.5S387.7,380.8,392.6,376.7z"/>
<path class="st5" d="M361.2,418.6c3.2,0.6-0.5,7.1-2.9,4.5S356.8,417.7,361.2,418.6z"/>
<path class="st5" d="M351.2,47.5c-2.3-6.9-15.8-8.9-13.7,2.5S355.8,61.2,351.2,47.5z"/>
<path class="st5" d="M192.2,364.9c-9.3,6.7-2,98.9,1.1,103.7S199.8,374.6,192.2,364.9z"/>
<path class="st5" d="M174.3,91.5c1.9,5.3,3,34.7,1.7,41.7s-6,6.7-7.9,18.1s-0.7,44.6-5.4,47.5s-4.5-62.1-5.2-73.4
	s-2.5-69.5,3.7-70.1s3.4,14.8,5.9,22.9S172.5,86.6,174.3,91.5z"/>
<path class="st6" d="M169.2,111.4c4.5-4-0.1-31.8-5-30.5S158.9,120.5,169.2,111.4z"/>
<path class="st5" d="M211.8,324.8c3.4,1.7,1.5,21.5,2.1,43.9s9.2,33.7,10.3,64.2c0.3,8-10.9,32.4-14.9,28.1
	c-7.7-8.2-2.4-51.5-2.8-76.5S206.5,322.2,211.8,324.8z"/>
<path class="st6" d="M213.2,403.5c0.7,5.1,7.4,14.1,6.8,24.6s-6,24-8.8,21c-3.4-3.7-0.9-33.7-0.7-50S210.3,382,213.2,403.5z"/>
<path class="st5" d="M138.1,258.8c-2.7-10.7-19.7-5.9-15.1,7.3S143,277.8,138.1,258.8z"/>
<path class="st5" d="M185.6,61.4c-3.1-6.8-12.4-3.2-9,2.8S188.6,68.2,185.6,61.4z"/>
<path class="st5" d="M260.7,444.1c-1.5-10.2-11.5-9-10.1,0S262.2,454.3,260.7,444.1z"/>
<path class="st5" d="M255.6,463.7c0-4.6-7.7-5.6-6.7,0S255.6,468.3,255.6,463.7z"/>
<path class="st5" d="M231.8,383.3c6.2,15.3-12.4,25.5-15.8,9.8S227.9,373.8,231.8,383.3z"/>
<path class="st5" d="M224.1,62.7c-6.8-9.9-18.8,0.8-10.5,13.4S230.9,72.6,224.1,62.7z"/>
<path class="st5" d="M218,89.9c-0.9-5.9-4.2-7.7-4.2-0.8S218.4,93,218,89.9z"/>
<path class="st5" d="M40.6,106.1c-8.5-3.6-4.8-21.4,5.5-15.4S48.7,109.4,40.6,106.1z"/>
<path class="st5" d="M47.1,402.4c-12.7-3.6-1.9-20.2,4.4-16S58.2,405.6,47.1,402.4z"/>
<path class="st5" d="M91.1,347.9c-1.7,5-3.3,27.3-2.3,34s5,6.6,6.4,17.6s-0.4,50.1,3.6,53s5.3-66.7,6.1-77.6s3.7-60.8-1.7-61.6
	s-3.2,14.1-5.6,21.9S92.7,343.2,91.1,347.9z"/>
<path class="st6" d="M97.3,385.8c1.4-5.7-1.8-41.6,2.4-40.8C78,341,93.8,399.7,97.3,385.8z"/>
<path class="st5" d="M65.4,213.7c-2.8-2.5-6.1-55.9-1.5-71.7s5-18.1,6-56.8s3.3-51,8.6-52.8s10.7,71.2,9,76.7s-4.9-49.3-8.2-50.5
	S77,106,76.7,129s-6.7,33.1-7.3,49S68.9,216.8,65.4,213.7z"/>
<path class="st5" d="M66.1,215.1c-2.9,1.6-1.3,20.8-1.8,42.2s-7.9,38.2-8.8,67.6c-0.3,7.7,9.4,31.2,12.8,27.1
	c6.6-7.9,2-49.6,2.4-73.6S70.6,212.6,66.1,215.1z"/>
<path class="st6" d="M64.9,296.6c-0.6,4.9-6.4,13.6-5.8,23.7s5.2,23.1,7.5,20.2c2.9-3.6,0.8-32.5,0.6-48.1S67.4,275.9,64.9,296.6z"
	/>
<path class="st5" d="M31.4,409.6c-2-5.3,4-6,4.8-2.5S32.5,412.5,31.4,409.6z"/>
<path class="st5" d="M33.7,119.4c-3.9,4,1.8,8.7,5.3,5.3S37.7,115.5,33.7,119.4z"/>
<path class="st5" d="M58.8,79.1c-2.5-0.6,0.4-6.9,2.3-4.3S62.3,79.9,58.8,79.1z"/>
<path class="st5" d="M75.7,446.8c1.8,6.7,12.6,8.6,10.9-2.4S72.1,433.6,75.7,446.8z"/>
<path class="st2" d="M56.8,69.5c-12.6,1-26.9,8.9-27.3,23.8s1.8,323,3,331.6c1.2,8.6,8.9,14.5,21.2,16.4s306.4-0.5,316.2-0.4
	c15.2,0.2,28.8-7.1,30.6-20.5c1.5-10.9,0.7-318.7,0.8-326.7c0.1-13.8-13.4-22.2-30.5-22.4C353,71,75.8,67.9,56.8,69.5z"/>
<path class="st7" d="M62.1,74.9c-18.1,1.2-25.9,9.8-25.8,25.4c0,14,1.6,315.5,2.8,323.6s7.1,11.9,18.7,14.2s302-1.1,311.3-1.4
	c17.6-0.6,24.5-9.1,25.8-18c1.5-10.3,0.5-314.4,0.6-322c0-13.1-9.7-19.1-26-19.9C352.4,75.9,80.1,73.7,62.1,74.9z"/>
<path class="st8" d="M70.3,77.4C52.9,78.1,44,87.8,44.1,98.3c0,10.1,0.6,313.4,1.6,321.2S51.5,434,64.3,435s288.6,1.3,302.4,0.3
	c12.3-0.9,22.3-7.8,23.7-16.3s-0.4-318-1.9-324.4s-10.6-14.2-21.7-14.5S79.7,77,70.3,77.4z"/>
<path class="st7" d="M345.1,411.8c14.4-5.4,17.3,11.1,5.3,13.4S332.6,416.5,345.1,411.8z"/>
<path class="st7" d="M72.6,107.5c1.6,6.8-8.6,6.1-8.6,0.8C64,104.2,71.5,102.9,72.6,107.5z"/>
<path class="st2" d="M365.9,73.8c-9.3,0.2-6.6,9.5,2.7,11.3c10.6,2,17.4-7.1,13.3-9.8"/>
<path class="st2" d="M375,89.6c-1.3-3.7,4.6-4.7,7.4-1.5S377.1,95.7,375,89.6z"/>
<path class="st2" d="M370,91.9c2.7,0.1,2.7,2.7,0.2,3.7S365.5,91.8,370,91.9z"/>
<path class="st5" d="M369.6,82.3c-7.2-4.1-1.1-8.6,4.9-7.1C385.2,77.8,376.9,86.5,369.6,82.3z"/>
<path class="st2" d="M46.2,435.6c-6.8-2-2.3-6.4,5.3-5.6s6,8.2,4.5,9.2"/>
<path class="st7" d="M69.9,75.1c15.8-1.2,24.8,15.4,4,19.9C55.8,98.9,49.4,76.7,69.9,75.1z"/>
<g>
	<defs>
		<path id="SVGID_1_" d="M63.7,73.5c-18,0.7-27.2,10.6-27.2,21.3c0,10.3,0.5,319,1.6,326.9s6.1,14.8,19.3,15.9s299,1.3,313.4,0.3
			c12.8-1,23.1-8,24.5-16.6S394.9,97.4,393.4,91s-11-14.5-22.4-14.8S73.5,73.1,63.7,73.5z"/>
	</defs>
	<clipPath id="SVGID_2_">
		<use xlink:href="#SVGID_1_"  style="overflow:visible;"/>
	</clipPath>
	<g class="st9">
		<g>
			<defs>
				<rect id="SVGID_3_" x="-45.2" y="-31.8" width="964.4" height="542.5"/>
			</defs>
			<clipPath id="SVGID_4_">
				<use xlink:href="#SVGID_3_"  style="overflow:visible;"/>
			</clipPath>
			<g class="st10">
				
					<linearGradient id="SVGID_5_" gradientUnits="userSpaceOnUse" x1="-610.9116" y1="-249.2218" x2="-610.1616" y2="-249.2218" gradientTransform="matrix(12.0873 1116.9746 -1116.9746 12.0873 -270557.75 685114.875)">
					<stop  offset="0" style="stop-color:#89EBF4"/>
					<stop  offset="0.43" style="stop-color:#9DF1F6"/>
					<stop  offset="0.82" style="stop-color:#B2F7F9"/>
					<stop  offset="1" style="stop-color:#B2F7F9"/>
				</linearGradient>
				<polygon class="st11" points="-171.3,-99.5 1039.6,-112.6 1045.3,411.1 -165.6,424.2 				"/>
				<path class="st12" d="M-298.7,295.7c0,0,104.8-119.9,278.7-85.1c93.6,18.8,217,79.8,355.3,9.6c170.8-86.7,302.1-184,766.4,6.4
					l-1.6,79.8L-298.7,295.7z"/>
				<path class="st13" d="M-277.7,110.7c2.1-13.4,7.7-33.6,24.6-50.2c45.4-44.6,132.5-23.9,160.3-17.2
					C-27.3,59,23.7,102.7,42.3,122.2l10.8,7.4c-57.1,9.1-114.9,13.3-172.8,12.6c-50.4-0.6-100.6-4.9-150.3-12.8L-277.7,110.7z"/>
				<g>
					<defs>
						<path id="SVGID_6_" d="M-165.7,142.7c14.6,0.8,29.7,1.3,45.3,1.5c57.8,0.7,115.5-3.6,172.5-12.6c-3.6-2.5-7.2-4.9-10.8-7.4
							C19.5,101.1-25,61.4-93.7,44.9c-13.7-3.3-41.7-10-72-10.7L-165.7,142.7z"/>
					</defs>
					<clipPath id="SVGID_7_">
						<use xlink:href="#SVGID_6_"  style="overflow:visible;"/>
					</clipPath>
					<g class="st14">
						
							<linearGradient id="SVGID_8_" gradientUnits="userSpaceOnUse" x1="-610.3585" y1="-247.9399" x2="-609.5986" y2="-247.9399" gradientTransform="matrix(152.5734 -375.3669 375.3669 152.5734 186039.1094 -190951.2188)">
							<stop  offset="0" style="stop-color:#2B8977"/>
							<stop  offset="0.48" style="stop-color:#2B8977"/>
							<stop  offset="0.81" style="stop-color:#8CC585"/>
							<stop  offset="1" style="stop-color:#C7E98E"/>
						</linearGradient>
						<polygon class="st15" points="-204.3,129.3 -134.8,-41.7 90.7,49.9 21.2,220.9 						"/>
					</g>
				</g>
				<path class="st13" d="M8.1,121c0,0,61.7-13.3,89,27.1c17.8,31.4,21,41.6-89,35.9C-10.5,133.8,8.1,121,8.1,121"/>
				<g>
					<defs>
						<path id="SVGID_9_" d="M7,121.5c0,0-18.6,12.8,0,63c110,5.7,106.8-4.5,89-35.9c-16.5-24.4-45.5-29.2-65.9-29.2
							C22.3,119.4,14.6,120.1,7,121.5"/>
					</defs>
					<clipPath id="SVGID_10_">
						<use xlink:href="#SVGID_9_"  style="overflow:visible;"/>
					</clipPath>
					<g class="st16">
						
							<linearGradient id="SVGID_11_" gradientUnits="userSpaceOnUse" x1="-611.8351" y1="-250.0544" x2="-611.0851" y2="-250.0544" gradientTransform="matrix(-154.5218 212.2133 -212.2133 -154.5218 -147488.7188 91265.7656)">
							<stop  offset="0" style="stop-color:#CAEE9D"/>
							<stop  offset="0.37" style="stop-color:#CAEE9D"/>
							<stop  offset="0.83" style="stop-color:#25AF6A"/>
							<stop  offset="1" style="stop-color:#25AF6A"/>
						</linearGradient>
						<polygon class="st17" points="-45.3,165.7 32.9,58.2 150.7,144 72.4,251.4 						"/>
					</g>
				</g>
				<path class="st13" d="M-263.3,137.9c0,0,31.8-23.5,65.1-32.7c36.4-13.8,84.6-44.7,143-30.4c45.1,13.3,78.9,31.8,98.9,65.8
					c9.7,19.8,11.3,43.7-63,40.5l-207,0.3C-226.3,181.4-307.3,176.1-263.3,137.9"/>
				<g>
					<defs>
						<path id="SVGID_12_" d="M-165.7,92.8v92.4l146.1-0.2c74.8,3.3,73.2-21.1,63.4-41.3c-20.1-34.8-54.1-53.6-99.5-67.2
							c-10.1-2.5-20.4-3.8-30.8-3.8C-116.1,72.7-142.6,82.7-165.7,92.8"/>
					</defs>
					<clipPath id="SVGID_13_">
						<use xlink:href="#SVGID_12_"  style="overflow:visible;"/>
					</clipPath>
					<g class="st18">
						
							<linearGradient id="SVGID_14_" gradientUnits="userSpaceOnUse" x1="-610.5585" y1="-247.9243" x2="-609.7985" y2="-247.9243" gradientTransform="matrix(105.4871 -411.1432 411.1432 105.4871 166244.9063 -224594.5625)">
							<stop  offset="0" style="stop-color:#0F5C49"/>
							<stop  offset="0.16" style="stop-color:#0F5C49"/>
							<stop  offset="0.26" style="stop-color:#187754"/>
							<stop  offset="0.45" style="stop-color:#2CAF6A"/>
							<stop  offset="0.47" style="stop-color:#43B96C"/>
							<stop  offset="0.51" style="stop-color:#6AC96F"/>
							<stop  offset="0.55" style="stop-color:#8AD672"/>
							<stop  offset="0.6" style="stop-color:#A3E074"/>
							<stop  offset="0.64" style="stop-color:#B4E776"/>
							<stop  offset="0.69" style="stop-color:#BFEC77"/>
							<stop  offset="0.75" style="stop-color:#C2ED77"/>
							<stop  offset="1" style="stop-color:#C2ED77"/>
						</linearGradient>
						<polygon class="st19" points="-193.5,181.1 -152.1,19.6 82.9,79.9 41.5,241.4 						"/>
					</g>
				</g>
				<g>
					<defs>
						<path id="SVGID_15_" d="M162.6-10.3c-11.4,3.6-13,9.8-13,9.8c-0.9,2.4,0.2,5.1,2.5,6.2c11.2,4,29.8,3,34.3,1.8
							s7.6-11.2,1.3-17.2c-2.6-2.6-6.2-4-9.9-3.9C173.5-13.7,168.6-12.3,162.6-10.3"/>
					</defs>
					<clipPath id="SVGID_16_">
						<use xlink:href="#SVGID_15_"  style="overflow:visible;"/>
					</clipPath>
					<g class="st20">
						
							<linearGradient id="SVGID_17_" gradientUnits="userSpaceOnUse" x1="-606.3847" y1="-249.1196" x2="-605.6347" y2="-249.1196" gradientTransform="matrix(73.8617 3.6124 -3.6124 73.8617 44041.6211 20588.0449)">
							<stop  offset="0" style="stop-color:#ADCFF1"/>
							<stop  offset="8.000000e-02" style="stop-color:#ADCFF1"/>
							<stop  offset="0.78" style="stop-color:#FFFFFF"/>
							<stop  offset="1" style="stop-color:#FFFFFF"/>
						</linearGradient>
						<polygon class="st21" points="147,9.6 148.2,-15.9 195.2,-13.6 193.9,11.9 						"/>
					</g>
				</g>
				<g>
					<defs>
						<path id="SVGID_18_" d="M127.7-17.8c-16.8,5.4-19.2,14.5-19.2,14.5c-2.3,6.4,3.7,9.1,3.7,9.1c16.6,5.9,44.2,4.4,50.8,2.6
							s11.3-16.6,1.9-25.4c-3.9-3.8-9.2-5.9-14.7-5.8C143.9-22.8,136.6-20.7,127.7-17.8"/>
					</defs>
					<clipPath id="SVGID_19_">
						<use xlink:href="#SVGID_18_"  style="overflow:visible;"/>
					</clipPath>
					<g class="st22">
						
							<linearGradient id="SVGID_20_" gradientUnits="userSpaceOnUse" x1="-607.7635" y1="-249.0915" x2="-607.0135" y2="-249.0915" gradientTransform="matrix(109.2994 5.3456 -5.3456 109.2994 65209.832 30467.6055)">
							<stop  offset="0" style="stop-color:#ADCFF1"/>
							<stop  offset="8.000000e-02" style="stop-color:#ADCFF1"/>
							<stop  offset="0.78" style="stop-color:#FFFFFF"/>
							<stop  offset="1" style="stop-color:#FFFFFF"/>
						</linearGradient>
						<polygon class="st23" points="104.5,11.7 106.4,-26.1 175.9,-22.7 174.1,15.1 						"/>
					</g>
				</g>
				<path class="st24" d="M416.6,300.2c0,0,332.6-6.2,422.6-5c86,1.1,209.3-50.8,265.6-29.5l-0.8,121.3
					C1104,386.9,418.4,319.4,416.6,300.2"/>
				<path class="st25" d="M1060.7,390.3c0,0-127-39.3-218-39.3c0,0-42.2-46-119-15c0,0-45.5-29.5-76.8-17c0,0-48.6-35.1-126.8-11.9
					c0,0-253.7-1.5-612.7-8.3l63.2,23.3c0,0-210.4,26.9-216.1,24.8s-11.4,140.5-11.4,140.5l1344.2,10.3L1060.7,390.3z"/>
				<g>
					<defs>
						<path id="SVGID_21_" d="M23.8,273.2c-23.5-6.1-40.5-0.9-40.5-0.9c-27,8.6-13.5,22.2-13.5,22.2c-81,5.6-33.2,19.4-33.2,19.4
							l11.4,2.6L459,320l25-4.1c14.5-8.6-51.9-7.1-51.9-7.1c-26.3-19.5-80-8.2-80-8.2c-19.4-20.4-56.1-9.7-56.1-9.7
							c-41.1-25-75.8-1.5-75.8-1.5s-8.8-18-41-24.8s-60.8,3.1-60.8,3.1c-17.7-6.9-33-9.4-45.9-9.4C40.6,258.2,23.8,273.2,23.8,273.2
							"/>
					</defs>
					<clipPath id="SVGID_22_">
						<use xlink:href="#SVGID_21_"  style="overflow:visible;"/>
					</clipPath>
					<g class="st26">
						
							<linearGradient id="SVGID_23_" gradientUnits="userSpaceOnUse" x1="-610.3644" y1="-248.7958" x2="-609.6144" y2="-248.7958" gradientTransform="matrix(432.6199 -382.8843 382.8843 432.6199 359367.5625 -125650.5078)">
							<stop  offset="0" style="stop-color:#1AA74F"/>
							<stop  offset="0.2" style="stop-color:#1AA74F"/>
							<stop  offset="0.32" style="stop-color:#1EBC56"/>
							<stop  offset="0.51" style="stop-color:#22D45D"/>
							<stop  offset="0.68" style="stop-color:#25E261"/>
							<stop  offset="0.82" style="stop-color:#26E763"/>
							<stop  offset="1" style="stop-color:#26E763"/>
						</linearGradient>
						<polygon class="st27" points="-142.2,285.1 230.7,-44.9 529.4,292.7 156.5,622.6 						"/>
					</g>
				</g>
				<g>
					<defs>
						<path id="SVGID_24_" d="M129.2,293.4c0,0-24.2-3.2-43,10.6c0,0-4.2-5.5-14.5-4.6s-19.4,13.4-23.6,25l-1.1,5.1l288.8,1.6
							c0,0-17.3-13.7-50.5-9c0,0-6,1.9-4.2-5.5c1.6-6.4-0.5-15.1-18.8-10.2c-6.7,2-13.1,5.1-18.8,9.3c0,0-2.4,1.4,0-4.2
							s-0.6-10.2-9.7-10.2s-17.6,4.6-17.6,4.6s-6-8.3-21.8-9.3s-23,2.8-23,2.8s-3.6-11.6-23-12.5h-1
							C137.6,287,129.1,293.5,129.2,293.4"/>
					</defs>
					<clipPath id="SVGID_25_">
						<use xlink:href="#SVGID_24_"  style="overflow:visible;"/>
					</clipPath>
					<g class="st28">
						
							<linearGradient id="SVGID_26_" gradientUnits="userSpaceOnUse" x1="-611.2118" y1="-248.122" x2="-610.4618" y2="-248.122" gradientTransform="matrix(-218.5338 -301.1173 301.1173 -218.5338 -58600.5508 -237871.4375)">
							<stop  offset="0" style="stop-color:#10A159"/>
							<stop  offset="2.000000e-02" style="stop-color:#10A159"/>
							<stop  offset="0.22" style="stop-color:#12A45A"/>
							<stop  offset="0.35" style="stop-color:#17AC5E"/>
							<stop  offset="0.46" style="stop-color:#20BB64"/>
							<stop  offset="0.55" style="stop-color:#2DD06D"/>
							<stop  offset="0.59" style="stop-color:#33DA71"/>
							<stop  offset="1" style="stop-color:#33DA71"/>
						</linearGradient>
						<polygon class="st29" points="26,302.2 236.2,149.6 356.8,315.9 146.6,468.4 						"/>
					</g>
				</g>
				<g>
					<defs>
						<path id="SVGID_27_" d="M-128,278c-6.7-2.6-13.9-3.7-21.1-3.2c-5.7,0.4-11.4,1.9-16.6,4.3v77.1l237.7-12l13.8-7.2
							c7.4-13.6-30.4-8.7-30.4-8.7c-0.8-21-46.5-9.4-46.5-9.4c-4-15.1-33-12.5-33-12.5c-13.9-11-43.5,0.6-43.5,0.6s5.1-21.4-14-30.3
							c-5.8-2.5-12.1-3.8-18.5-3.6C-109.6,273.1-119,274.8-128,278"/>
					</defs>
					<clipPath id="SVGID_28_">
						<use xlink:href="#SVGID_27_"  style="overflow:visible;"/>
					</clipPath>
					<g class="st30">
						
							<linearGradient id="SVGID_29_" gradientUnits="userSpaceOnUse" x1="-609.6174" y1="-249.1901" x2="-608.8674" y2="-249.1901" gradientTransform="matrix(326.1 -111.35 -122.36 -279.5 168079.0156 -137150.0938)">
							<stop  offset="0" style="stop-color:#219F68"/>
							<stop  offset="3.000000e-02" style="stop-color:#219F68"/>
							<stop  offset="0.76" style="stop-color:#3CDA88"/>
							<stop  offset="0.94" style="stop-color:#43EA90"/>
							<stop  offset="1" style="stop-color:#43EA90"/>
						</linearGradient>
						<polygon class="st31" points="-132,433.1 124.9,345.3 59.6,196 -197.4,283.8 						"/>
					</g>
				</g>
				<g>
					<defs>
						<path id="SVGID_30_" d="M556.7,293.7c-28.2,6-28.9,20.2-28.9,20.2s-31.4-18.3-74.3-0.3c0,0-31.1-10.3-55.1,5.8
							c0,0-40.8-15.8-78.4,4.4c0,0-59.1-2.3-51,4.1l5,3l522,9.3l9.2-4c0,0,47-8.8-32.3-14.2c0,0,35.1-3.5,8.8-9.9
							c0,0-26.8-18.6-61.4-5.9c0,0-44.2-26.9-92.5-5.6c0,0-18.4-9.5-45.9-9.5C573.4,291.1,564.9,292,556.7,293.7"/>
					</defs>
					<clipPath id="SVGID_31_">
						<use xlink:href="#SVGID_30_"  style="overflow:visible;"/>
					</clipPath>
					<g class="st32">
						
							<linearGradient id="SVGID_32_" gradientUnits="userSpaceOnUse" x1="-609.7579" y1="-249.9402" x2="-609.0079" y2="-249.9402" gradientTransform="matrix(71.1645 -144.1171 -144.1171 -71.1645 7900.7979 -105296.6641)">
							<stop  offset="0" style="stop-color:#1AA74F"/>
							<stop  offset="0.95" style="stop-color:#26E763"/>
							<stop  offset="1" style="stop-color:#26E763"/>
						</linearGradient>
						<polygon class="st33" points="236.6,328.2 376.8,44.4 876.4,291.2 736.3,574.9 						"/>
					</g>
				</g>
				<path class="st34" d="M22.6,413.1c0,0-35.5-4.7-34.5-17.5S22.6,413.1,22.6,413.1"/>
				<path class="st34" d="M29.5,418.3c0,0-19.7-32-34.5-40.2s25.6-8.8,34.5,24.7V418.3z"/>
				<path class="st34" d="M31,414c0,0-9.9-24.9,27.1-26.2C74.8,387.2,31,414,31,414"/>
				<g>
					<defs>
						<path id="SVGID_33_" d="M253.6,286.9c-7.4,0.7,0.2,33.8,0.2,33.8s-9.3-31.1-13.4-23.5c-2.9,5.3,3.5,15.7,7.5,21.2
							c-13.1-17-16.3-17-16.4-14.2c-0.1,3,17.3,19.9,17.3,19.9c-6.1-5.3-12.5-10.1-19.4-14.4c-9.8-5.8-14-0.8-1.6,7.2
							s13.9,9.5,13.9,9.5c-16.5-4.3-37.2-9-29.1-2.3s25.4,8.1,25.4,8.1l23.8,1.7c35.5-12.5,27.5-20.3,21.5-20.5s-17.1,8.8-20.8,9.2
							s-4.6-1-4.6-1c2.4,0,29.9-17.4,18.7-18.7s-20.1,16.6-20.1,16.6s4.4-32.6-2.7-32.6L253.6,286.9"/>
					</defs>
					<clipPath id="SVGID_34_">
						<use xlink:href="#SVGID_33_"  style="overflow:visible;"/>
					</clipPath>
					<g class="st35">
						
							<linearGradient id="SVGID_35_" gradientUnits="userSpaceOnUse" x1="-607.5161" y1="-248.5406" x2="-606.7561" y2="-248.5406" gradientTransform="matrix(85.5883 -42.5237 42.5237 85.5883 62779.043 -4232.9165)">
							<stop  offset="0" style="stop-color:#1AA74F"/>
							<stop  offset="0.86" style="stop-color:#26E763"/>
							<stop  offset="1" style="stop-color:#26E763"/>
						</linearGradient>
						<polygon class="st36" points="185.6,296.2 278.8,249.9 315.9,324.6 222.8,370.9 						"/>
					</g>
				</g>
				<path class="st37" d="M37.4,481.9c158.4,9.1,594.4-19.8,711.6-36.4c107.7-15.3,296-37.9,320.8,7.6c3,5.5,1.4,8.8,2.2,49.9
					c0.6,32.2,2.1,58.4,3.3,75.5l-1263.3,55.2l-7-159.6c9.1,1.9,17.6,5.9,24.9,11.7L37.4,481.9z"/>
				<path class="st38" d="M-367.5,522.7c0,0,94.7-45.9,301.6,5.1s451.3,44.6,558.3,26.2s83.6-97.6,297.8-99.8
					c159.1-1.7,396.4,23.8,396.4,23.8l85.7,159.8l-639.5,17.6l-997.3,8L-367.5,522.7z"/>
				<path class="st39" d="M-243.9,532.2c0,0,176.4,6,234.6,12.1c0,0-3.1-15.8-8.9-18.1c0,0,13.1-2.3,14.1,18.1c0,0,0-30.1-8.4-35.4
					c0,0,20.4,4.5,18.9,35.4l95.3,6c0,0-5.8-8.3-9.4-10.5c0,0,10.5-5.3,16.2,4.5c0,0-6.8-23.4-11-26.4c0,0,11.7-1.5,14.7,22.6
					c0,0,10.4-12.8,13.6-10.9c0,0-11.5,20-9.4,20.7c0,0,203.7,9.8,274.4,15.1s241.8,7.5,318,0s322.9,4.8,322.9,4.8l147.1,8
					l29.8,36.9l-1489.1-22.6L-243.9,532.2z"/>
				<path class="st39" d="M185.4,579.9c0,0-0.9-55.5-84.1-39.4c0,0,37.6-44.8,90.4-9c0,0-0.9-44.8-57.3-68c0,0,51.5-15.2,92,68
					c0,0-20.4-85-32-90.4c0,0,42.4-1.8,47.6,87.7c0,0,6.6-54.6-15.6-87.7c0,0,46,7.2,31.2,85c0,0,21-71.6,76.5-64.5
					c0,0-59,52.8-60.4,87.7c0,0,32.6-34.9,70.2-24.2c0,0-68,31.3-70.2,61.8l-39.9,22.4L185.4,579.9z"/>
				<path class="st40" d="M75.6,417.7L75.6,417.7c-0.5-0.5-0.9-1.1-1.4-1.6c3.1,56.1-12.7,59.8-0.7,90.7c2.6,6.8,8.1,13.6,10.4,16.4
					c-0.1,0.3-0.1,0.5-0.2,0.8C81.5,534,83.3,568.4,54.5,642c2.5,1.5,4.1,0.7,4.1,0.7S80.2,592,86.1,523.5c0,0,0-0.1,0-0.1
					c2.7-2.6,9.8-10,12.1-16.6C101,498.7,106.5,452.8,75.6,417.7"/>
				<path class="st40" d="M54.3,556.1c0,0,0-0.1,0-0.1c2.3-3,8.2-11.3,9.5-18.2c1.6-8.4,0.1-54.7-35.7-84.8l0,0l-1.6-1.4
					c11.5,55-3.6,61,12.9,89.7c3.6,6.3,10,12.3,12.8,14.6l-0.1,0.8c-0.7,10.3,6.1,44-11.3,121.2c2.7,1.1,4.1,0.1,4.1,0.1
					S58.7,624.7,54.3,556.1"/>
				<g>
					<defs>
						<path id="SVGID_36_" d="M459.7,548.7c-17.5,4.1-20,8.5-39.4,19.1c-5.7,3.1-11,6.7-16,10.8h28.4c40.8-20.7,87.3-38.6,87.3-38.6
							S474.2,545.2,459.7,548.7"/>
					</defs>
					<clipPath id="SVGID_37_">
						<use xlink:href="#SVGID_36_"  style="overflow:visible;"/>
					</clipPath>
					<g class="st41">
						
							<linearGradient id="SVGID_38_" gradientUnits="userSpaceOnUse" x1="-612.4014" y1="-248.4513" x2="-611.6514" y2="-248.4513" gradientTransform="matrix(-110.09 153.14 138.48 89.44 -32524.1563 116525.7969)">
							<stop  offset="0" style="stop-color:#76B50A"/>
							<stop  offset="0.75" style="stop-color:#1A7A0A"/>
							<stop  offset="1" style="stop-color:#1A7A0A"/>
						</linearGradient>
						<polygon class="st42" points="441.1,488.9 385.4,566.3 483.4,629.5 539,552.2 						"/>
					</g>
				</g>
				<g>
					<defs>
						<path id="SVGID_39_" d="M421,578.5h3.4c40.1-25,78.9-33.4,89-37.7C513.4,540.9,465.3,551.6,421,578.5"/>
					</defs>
					<clipPath id="SVGID_40_">
						<use xlink:href="#SVGID_39_"  style="overflow:visible;"/>
					</clipPath>
					<g class="st43">
						
							<linearGradient id="SVGID_41_" gradientUnits="userSpaceOnUse" x1="-611.1973" y1="-244.595" x2="-610.4373" y2="-244.595" gradientTransform="matrix(50.2883 77.2305 77.2305 -50.2883 50091.0078 35458.8477)">
							<stop  offset="0" style="stop-color:#76B50A"/>
							<stop  offset="0.21" style="stop-color:#6CAE0A"/>
							<stop  offset="0.56" style="stop-color:#509D0A"/>
							<stop  offset="1" style="stop-color:#25810A"/>
						</linearGradient>
						<polygon class="st44" points="403.8,552.1 485.8,498.7 530.5,567.4 448.5,620.8 						"/>
					</g>
				</g>
				<path class="st40" d="M428,631.1c0,0,0-0.1,0-0.2c2.9-3.8,10.6-14.7,12.3-23.6c2.1-10.9,0.2-70.9-46.3-110l0,0l0,0
					c-0.7-0.6-1.4-1.2-2.1-1.7c14.9,71.4-4.7,79.2,16.7,116.5c4.7,8.2,13,15.9,16.6,19l-0.1,1c-0.9,13.4,8,57.2-14.6,157.2
					c3.5,1.4,5.4,0.1,5.4,0.1S433.8,720.1,428,631.1"/>
				<path class="st40" d="M455.8,451.4L455.8,451.4l-1.8-2c4,72.8-16.5,77.6-1,117.6c3.4,8.8,10.5,17.7,13.5,21.2l-0.2,1
					c-2.9,13.1-0.7,57.7-38,153.3c3.3,1.9,5.3,0.9,5.3,0.9s28.1-65.8,35.7-154.6c0-0.1,0-0.1,0-0.2c3.5-3.4,12.7-12.9,15.7-21.5
					C488.7,556.6,495.8,497,455.8,451.4"/>
			</g>
		</g>
		<path class="st45" d="M217.6,306.2c0,0,42.5-3.6,64.8-54.5c0,0-7.2,33.5,20.6,38c0,0-21.9,27.3,7.6,39.8c0,0-28.2,15.6-9.4,40.2
			c0,0-26.8,10.7-71.1-33.1C230.1,336.6,209.6,320.5,217.6,306.2z"/>
		<path class="st46" d="M303,289.6c0,0-34,26.4-81.8,25"/>
		<path class="st46" d="M310.6,329.4c0,0-50.5,8.5-84-7.6"/>
		<path class="st45" d="M181.3,306c0,0-34.2-2.9-52.2-44.7c0,0,5.8,27.5-16.6,31.1c0,0,17.7,22.4-6.1,32.6c0,0,22.7,12.8,7.6,33
			c0,0,21.6,8.8,57.3-27.1C171.3,330.9,187.8,317.7,181.3,306z"/>
		<path class="st46" d="M112.5,292.4c0,0,27.4,21.6,65.9,20.5"/>
		<path class="st46" d="M106.4,325c0,0,40.7,7,67.7-6.2"/>
		<path class="st47" d="M136.1,519.3l-1.3,0.3c-8.3,2.2-54.7,14.3-66.4,18.2l-5.1,1.5l0.9-7.2c0,0-12.5,3.3-20,8
			c0,0-2.4-1.5-0.6-10.1c0,0-6,5.4-13.1,7.2s2.7-17.6,28.6-27.1s42.9-5.4,42.9-5.4s-14.6-4.2-33.7-46.2s19.1-60.8,39-44.7
			s40.8,75.4,40.8,75.4"/>
		<path class="st48" d="M43.7,530c0,0,10.4-15.5,46.8-18.8"/>
		<path class="st47" d="M65.2,312.7c16.1,1.2,12.2,9.5,12.2,9.5c8.3,7.8,2.1,13.1,2.1,13.1c5.4,6-1.5,15.2-13.7,11.3
			s-8.3-12.8-8.3-12.8c-8.3-5.7-2.1-11.3-2.1-11.3c-4.5-1.5-3.9-6.3-3.9-6.3c1.2-13.4,25.6-9.8,25.6-9.8c-3.1-6.5-0.7-14.3,5.4-18.2
			c10.7-7.5,10.1,6.3,10.1,6.3c-6,9.5-3.9,21.5-3.9,21.5s6.6,12.2,14.6,17.3s19.7,3.6,19.7,3.6c22.6-6.3,40.2-25,40.2-25l-28.2,56
			l-4.8,0.4c0,0-6,5.4-10.1,8.4l-0.6-6L110,375l5.6-5.4c0,0-21.3-0.2-34.6-27.6"/>
		<path class="st47" d="M53.8,321.8c0,0,13.1,7.4,23.6,0.5"/>
		<path class="st47" d="M56.7,333.3c0,0,4.6,5.8,22.7,2.1"/>
		<path class="st47" d="M77.1,306.5c0,0-4.9,3.2,0.3,12.1"/>
		<path class="st47" d="M88.7,316c0,0,7.3,11.1,3.2,20.3"/>
		<path class="st47" d="M121.7,337.3c0,0,9.3-2.2,11.5,12.5"/>
		<path class="st49" d="M184.7,273.1c0,0-8.3,6.6-6.3,15.2c0,0-6,2.1-11.9,20.6c0,0-8.9,2.4-11,19.1c-6.9,4.9-11.4,12.5-12.5,20.9
			c0,0-12.5,4.8-14.9,25.6c0,0-12.5,8.4-11.3,26.8c0,0-12.8,2.1-12.2,35.5c0,0-10.1,8.6,3,34.3c0,0-4.8,17.3,14.9,33.1
			c0,0,3,15.8,28.3,22.3c0,0,9.5,7.5,30.1,2.4s34.9-4.2,45.3-17.9s5.7-100.7,5.7-100.7s-32.6-43.2-22.4-75.7s18.8-59,25.3-70
			s-5.4-51.6-5.4-51.6L177.8,246L184.7,273.1z"/>
		<path class="st50" d="M243.1,419.1c0,0,16.7-11.3,14.3-1.2s-5.7,14.6,3,14.3s13.1,1.8,8,13.1c0,0-0.3,5.7,6.6,3s11.9-1.8,10.1,9.5
			s4.8-9.8,13.4,1.2s13.1,4.2,13.4-3.6s-3.3-5.7,7.5-8s-10.1-6.9-4.2-12.2s8-8.3-1.5-14s11.6-7.8,1.5-13.4s-11.3-5.1-8.4-14.3
			s-11-5.7-8-16.4s-6-12.2,0-19.7s-11-11.3,0-15.2c0,0-5.7-9.5,0.6-15.5c0,0-2.4-7.5,3.9-11.3s-0.3-1.2-0.3-1.2s-0.9-8.3,3-9.8
			s0.9-1.2,0.9-1.2s0.6-8,5.4-8.4s1.2-0.6,1.2-0.6l6-8c0,0-11.5,24.8-11.5,49.8s9.8,58.1,17.9,73.3s18.5,54.5-7.5,65.9
			S249.3,448.3,243.1,419.1z"/>
		<path class="st47" d="M356.9,272.2c-32.2,37.5-27.4,73-18.2,99.8c8.4,24.5,27.8,41.8,31.6,77.7c0.4,3.4,0.6,7,0.6,10.8
			c0.2,13.5-4.2,23.9-11.2,31.6c-2.1,2.4-4.5,4.5-7.1,6.4c-1.8,1.3-3.6,2.4-5.5,3.5c-1.8,1-3.7,1.9-5.6,2.6
			c-15,5.9-31.5,6.4-46.9,1.5c-24.7-8.4-32.4-44.2-34.3-56.2c-0.4-2.5-0.5-4-0.5-4c5.4,6,11.5,11.5,18,16.3
			c18.7,13.5,28.5,8.8,28.5,8.8c42-16.1,4.8-72.4-1.2-102.5c-5.7-28.7-2.4-52.7,9-73.8c0-0.1,0.1-0.2,0.2-0.3c0.5-0.9,1-1.9,1.6-2.8
			c0.9-1.5,1.8-2.9,2.7-4.2c8-11.1,19.2-19.4,32.1-23.8l-0.2-0.2l-9.6-11.1c48-9.5,82.8,11.3,82.8,11.3
			c-25.6,5.7-51.9,26.2-51.9,26.2l-14.4-17L356.9,272.2z"/>
		<path class="st47" d="M231.8,266.8l-0.9,1.3c-4.7,6.9-26.3,39.8-31.9,72.9c-6.3,37.3,0,68,27.4,88.5s25.3,79.9,25.3,79.9
			s20.3,26.8,64.7,22s63.5-53.9,53.9-82c0,0-3.3,39.3-52.1,33.1s-74.8-70.3-74.8-70.3s-22.4-34-23.3-66.2s1.8-46.8,8.6-62.9
			s14.9-26.9,19.9-39.1"/>
		<path class="st51" d="M220,308.3c0,0,22.1,32.8,48.5,38.1l5.4-8.9c0,0,5.6,8.3,2.6,16.3l8.3-5.6c0,0,1.8,12.7-12.9,15.5
			c0,0-10.1,20.9-27.4,28.6c0,0,5.6,9.5-0.6,15.3c0,0-0.6,5,3.6-0.2c0,0,6.2,13.5-7.8,15.1c0,0-4,4.8-11.5-0.2c0,0-8.7,4.4-12.3-2.2
			s-0.8-18.7,8.4-30.8c0,0,9.3-15.1,8.9-25.2c0,0-7-2-19.3-19.1"/>
		<path class="st48" d="M220,308.3c0,0,22.1,32.8,48.5,38.1l5.4-8.9c0,0,5.6,8.3,2.6,16.3l8.3-5.6c0,0,1.8,12.7-12.9,15.5
			c0,0-10.1,20.9-27.4,28.6c0,0,5.6,9.5-0.6,15.3c0,0-0.6,5,3.6-0.2c0,0,6.2,13.5-7.8,15.1c0,0-4,4.8-11.5-0.2c0,0-8.7,4.4-12.3-2.2
			s-0.8-18.7,8.4-30.8c0,0,9.3-15.1,8.9-25.2c0,0-7-2-19.3-19.1"/>
		<path class="st51" d="M233.1,364.1c0,0,5.4-14.9,21.9-10.5"/>
		<path class="st48" d="M233.1,364.1c0,0,5.4-14.9,21.9-10.5"/>
		<path class="st51" d="M240.9,422.3c0,0-8.3,0.4-7.1-11.5"/>
		<path class="st48" d="M240.9,422.3c0,0-8.3,0.4-7.1-11.5"/>
		<path class="st51" d="M228.2,422.3c0,0-11.3-5.6-2.6-18.3"/>
		<path class="st48" d="M228.2,422.3c0,0-11.3-5.6-2.6-18.3"/>
		<path class="st51" d="M243.1,434.9c-7.5-7.5-18.3-10.5-28.6-8c-17.6,4.2-26.8,28.3-22.9,51.3s20.3,37,20.3,37s-51.6-0.6-53.9,32.5
			l10.1-2.7c-0.3,2.4,0.1,4.9,1.2,7.2c1.8,3.3,17.6-7.2,17.6-7.2s-6.9,8.9,13.7,3.6s40.8-8.7,55.1-8.9s9.8-5.7,7.5-16.4
			s-8.6-18.5-1.8-39.6"/>
		<path class="st48" d="M243.1,434.9c-7.5-7.5-18.3-10.5-28.6-8c-17.6,4.2-26.8,28.3-22.9,51.3s20.3,37,20.3,37s-51.6-0.6-53.9,32.5
			l10.1-2.7c-0.3,2.4,0.1,4.9,1.2,7.2c1.8,3.3,17.6-7.2,17.6-7.2s-6.9,8.9,13.7,3.6s40.8-8.7,55.1-8.9s9.8-5.7,7.5-16.4
			s-8.6-18.5-1.8-39.6"/>
		
			<ellipse transform="matrix(0.9752 -0.2212 0.2212 0.9752 -93.3528 62.0197)" class="st52" cx="230.2" cy="447.8" rx="7.6" ry="9.1"/>
		
			<ellipse transform="matrix(0.9686 -0.2485 0.2485 0.9686 -109.7504 72.2335)" class="st52" cx="231.2" cy="470.8" rx="6.6" ry="8.1"/>
		
			<ellipse transform="matrix(0.9686 -0.2485 0.2485 0.9686 -107.7155 68.6277)" class="st52" cx="218" cy="460.9" rx="4.5" ry="5.6"/>
		<path class="st53" d="M178.4,288.3c0,0,8.1,9.8,28.9,6.3"/>
		<path class="st54" d="M178.8,288c1.7,1.8,3.8,3.3,6.1,4.3c2.3,1.1,4.7,1.8,7.2,2.3l1.9,0.3l1.9,0.2c1.3,0.2,2.6,0.1,3.8,0.1
			s2.6-0.1,3.8-0.2l3.8-0.5l-3.8,0.6c-1.3,0.1-2.6,0.3-3.8,0.3s-2.6,0.1-3.9,0l-1.9-0.1L192,295c-2.6-0.4-5.1-1.1-7.4-2.1
			c-2.4-1-4.7-2.5-6.5-4.3L178.8,288z"/>
		<path class="st53" d="M166.5,308.9c0,0,3,14.3,30.7,13.1"/>
		<path class="st54" d="M167,308.8c0.4,1.4,1,2.7,1.9,3.8c0.4,0.6,0.9,1.1,1.4,1.7c0.5,0.5,1.1,1,1.6,1.5c2.3,1.8,4.9,3.2,7.7,4.1
			l1.1,0.4c0.4,0.1,0.7,0.2,1.1,0.3l2.2,0.5c1.5,0.3,2.9,0.5,4.4,0.7s3,0.3,4.4,0.3h4.5l-4.5,0.1c-1.5,0-3-0.1-4.5-0.2
			s-3-0.4-4.4-0.6l-2.2-0.5c-0.4-0.1-0.7-0.1-1.1-0.3l-1.1-0.3c-2.9-0.8-5.6-2.2-8.1-4c-0.6-0.5-1.1-1-1.7-1.5
			c-0.5-0.5-1-1.1-1.5-1.7c-1-1.2-1.7-2.6-2.2-4L167,308.8z"/>
		<path class="st53" d="M155.5,327.9c0,0,0,15.5,34.6,17.3"/>
		<path class="st54" d="M156,327.9c0.2,1.6,0.7,3.2,1.6,4.6c0.9,1.4,2,2.7,3.3,3.8c2.6,2.2,5.7,3.9,8.9,5c0.8,0.3,1.6,0.5,2.4,0.8
			s1.6,0.6,2.5,0.7l2.5,0.6c0.8,0.2,1.7,0.4,2.5,0.5c1.7,0.2,3.4,0.6,5.1,0.7l5.2,0.5l-5.2-0.4c-1.7-0.1-3.4-0.4-5.2-0.6
			c-0.9-0.1-1.7-0.2-2.6-0.4l-2.6-0.5c-0.9-0.1-1.7-0.5-2.5-0.7s-1.7-0.5-2.5-0.8c-3.3-1.1-6.4-2.8-9.2-4.9c-2.7-2.2-5.1-5.2-5.4-9
			L156,327.9z"/>
		<path class="st53" d="M143,348.8c0,0,9.2,21.2,45.9,17.3"/>
		<path class="st54" d="M143.4,348.6c2,3.8,4.9,7,8.3,9.5c3.5,2.5,7.3,4.5,11.4,5.8l3.1,0.9l3.2,0.6l1.6,0.3l1.6,0.2l3.2,0.3
			c2.1,0.1,4.3,0.1,6.5,0.2l6.5-0.4l-6.5,0.5c-2.2,0-4.3,0-6.5-0.1l-3.2-0.3l-1.6-0.1l-1.6-0.3l-3.2-0.6l-3.1-0.9
			c-4.2-1.2-8.2-3.1-11.8-5.6c-3.6-2.5-6.7-5.8-8.8-9.7L143.4,348.6z"/>
		<path class="st53" d="M128.1,374.4c0,0,4.8,27.1,63.8,21.5"/>
		<path class="st54" d="M128.5,374.3c0.8,2.8,2.2,5.5,4.1,7.7c1.9,2.3,4.2,4.2,6.7,5.8l1.9,1.2c0.6,0.4,1.3,0.7,2,1
			c1.3,0.7,2.7,1.3,4.1,1.8l2.1,0.8c0.7,0.3,1.4,0.5,2.1,0.7l4.4,1.1l1.1,0.3l1.1,0.2l2.2,0.4l2.2,0.4c0.7,0.1,1.5,0.2,2.2,0.3
			l4.5,0.4c1.5,0.2,3,0.2,4.5,0.2h4.5c1.5,0,3,0.1,4.5-0.1l9-0.5l-9,0.7c-1.5,0.1-3,0.1-4.5,0.1h-4.5c-1.5,0-3,0-4.5-0.2l-4.5-0.3
			c-0.8,0-1.5-0.1-2.3-0.3l-2.2-0.3l-2.2-0.3l-1.1-0.2l-1.1-0.3l-4.4-1.1c-0.7-0.2-1.5-0.4-2.2-0.7l-2.1-0.8
			c-1.4-0.5-2.8-1.1-4.2-1.8c-0.7-0.3-1.4-0.6-2-1l-1.9-1.1c-2.6-1.6-5-3.6-7-5.9c-2.1-2.3-3.6-5.1-4.4-8L128.5,374.3z"/>
		<path class="st53" d="M116.7,401.2c0,0-5.4,28.6,75.1,34.3"/>
		<path class="st54" d="M117.2,401.3c-0.2,1.8,0.1,3.5,0.7,5.2c0.6,1.7,1.4,3.3,2.4,4.8c2.1,3,4.8,5.5,7.8,7.6
			c3,2.1,6.3,3.9,9.6,5.3c3.4,1.5,6.8,2.8,10.4,3.8c7.1,2.1,14.3,3.8,21.6,4.9c7.3,1.2,14.7,2,22,2.5c-7.4-0.5-14.8-1.2-22.1-2.3
			c-7.3-1-14.6-2.6-21.7-4.7c-3.6-1-7.1-2.3-10.5-3.7c-3.4-1.4-6.7-3.2-9.8-5.3c-3.1-2.1-5.9-4.7-8.1-7.7c-1.1-1.5-2-3.2-2.6-5
			c-0.7-1.8-0.9-3.8-0.8-5.7L117.2,401.3z"/>
		<path class="st53" d="M104.5,436.7c0,0,3.3,30.7,79,32.2"/>
		<path class="st54" d="M105,436.6c0,0.4,0.2,0.9,0.3,1.3l0.4,1.3c0.2,0.4,0.4,0.8,0.6,1.3c0.2,0.4,0.4,0.8,0.6,1.2l0.7,1.2
			c0.2,0.4,0.5,0.8,0.8,1.2c0.6,0.7,1.1,1.5,1.7,2.2c1.2,1.4,2.6,2.7,4,3.9c0.7,0.6,1.4,1.2,2.1,1.8l2.3,1.6
			c6.3,4,13.2,7.1,20.4,9.2c1.8,0.5,3.6,0.9,5.5,1.4s3.6,1,5.5,1.2l5.6,1l2.8,0.5c0.9,0.1,1.9,0.2,2.8,0.3l5.6,0.6
			c1.9,0.2,3.7,0.4,5.6,0.5l11.3,0.6l-11.3-0.5c-1.9,0-3.8-0.3-5.6-0.4l-5.6-0.5c-0.9-0.1-1.9-0.2-2.8-0.3l-2.8-0.5l-5.6-0.9
			c-1.9-0.2-3.7-0.8-5.5-1.2s-3.7-0.8-5.5-1.3c-7.3-2-14.3-5-20.7-9l-2.4-1.6c-0.8-0.6-1.5-1.2-2.2-1.8c-1.5-1.2-2.8-2.6-4.1-4
			c-0.6-0.7-1.2-1.5-1.7-2.3c-0.3-0.4-0.6-0.8-0.8-1.2l-0.7-1.2c-1-1.7-1.6-3.5-2-5.4L105,436.6z"/>
		<path class="st53" d="M107.5,471c0,0,6.1,23.5,82.2,20.7"/>
		<path class="st54" d="M108,470.9c0.3,0.8,0.7,1.6,1.2,2.3l0.8,1.1c0.3,0.3,0.6,0.7,0.9,1c0.6,0.7,1.2,1.3,1.9,1.9
			c0.3,0.3,0.7,0.6,1,0.9l1.1,0.8c1.5,1.1,3,2,4.6,2.9c0.8,0.4,1.6,0.8,2.4,1.2l2.5,1.1c6.9,2.6,14,4.4,21.2,5.5
			c7.3,1.1,14.6,1.8,21.9,2l5.5,0.2l2.8,0.1c0.9,0,1.8,0,2.8,0l11-0.1l-11,0.2c-0.9,0-1.8,0.1-2.8,0l-2.8-0.1l-5.5-0.1
			c-7.4-0.2-14.7-0.8-22-1.8c-7.3-1-14.5-2.8-21.4-5.3l-2.5-1.1c-0.9-0.3-1.7-0.7-2.5-1.2c-1.7-0.8-3.3-1.8-4.8-2.9l-1.2-0.8
			c-0.4-0.3-0.7-0.6-1.1-0.9c-0.7-0.6-1.4-1.2-2-1.9c-0.3-0.4-0.7-0.7-1-1l-0.8-1.1c-0.6-0.8-1-1.7-1.3-2.6L108,470.9z"/>
		<path class="st55" d="M122.4,504c0,0,15.2,17.3,64.1,9.2"/>
		<path class="st54" d="M122.8,503.7c2,1.9,4.2,3.5,6.7,4.7c0.6,0.4,1.2,0.6,1.9,0.9s1.2,0.6,1.9,0.8c1.3,0.5,2.6,1,3.9,1.4
			c5.3,1.7,10.7,2.8,16.3,3.2c2.8,0.3,5.5,0.3,8.3,0.5c1.4,0.1,2.8,0,4.1,0s2.8,0,4.2-0.1c2.8-0.2,5.5-0.4,8.3-0.7l8.3-1.1l-8.3,1.2
			c-2.8,0.3-5.5,0.5-8.3,0.8c-1.4,0.1-2.8,0.1-4.2,0.2s-2.8,0.2-4.2,0.1c-2.8-0.1-5.6,0-8.3-0.3c-5.6-0.4-11.1-1.4-16.4-3
			c-1.4-0.4-2.6-0.9-4-1.4c-0.6-0.2-1.3-0.6-1.9-0.8s-1.3-0.5-1.9-0.9l-1.9-1l-1.8-1.1c-1.2-0.8-2.3-1.7-3.3-2.7L122.8,503.7z"/>
		
			<ellipse transform="matrix(0.9915 -0.1304 0.1304 0.9915 -55.033 13.8452)" class="st52" cx="78.2" cy="427.3" rx="5.6" ry="7.6"/>
		<ellipse transform="matrix(0.9879 -0.1549 0.1549 0.9879 -68.2219 17.6323)" class="st52" cx="79" cy="446.6" rx="4.9" ry="6.8"/>
		
			<ellipse transform="matrix(0.9879 -0.1549 0.1549 0.9879 -67.0554 16.0102)" class="st52" cx="69.2" cy="438.3" rx="3.4" ry="4.7"/>
		
			<ellipse transform="matrix(0.8139 -0.581 0.581 0.8139 -146.1615 187.8907)" class="st52" cx="220.2" cy="322.1" rx="4.6" ry="7.6"/>
		
			<ellipse transform="matrix(0.8237 -0.567 0.567 0.8237 -154.2955 194.5404)" class="st52" cx="235.7" cy="345.4" rx="4" ry="6.8"/>
		
			<ellipse transform="matrix(0.8237 -0.567 0.567 0.8237 -147.1196 191.3123)" class="st52" cx="234.1" cy="332.3" rx="2.8" ry="4.7"/>
		
			<ellipse transform="matrix(0.5976 -0.8018 0.8018 0.5976 -269.3612 480.5465)" class="st52" cx="344.1" cy="508.6" rx="7.6" ry="4.6"/>
		<ellipse transform="matrix(0.6114 -0.7913 0.7913 0.6114 -251.917 472.3363)" class="st52" cx="355" cy="492.7" rx="6.8" ry="4"/>
		
			<ellipse transform="matrix(0.6114 -0.7913 0.7913 0.6114 -258.4442 464.5163)" class="st52" cx="343.7" cy="495.4" rx="4.7" ry="2.8"/>
		<path class="st46" d="M102.1,504.6c0,0,3-2.1,11.9,3.6"/>
		<path class="st56" d="M424,263c-25.6,5.7-51.9,26.2-51.9,26.2l-14.4-17c1.9-6.4-2.4-8.7-6.9-9.4l-9.6-11.1
			C389.1,242.1,424,263,424,263z"/>
		<path class="st56" d="M177,166.7c0,0-26.2-17.9-20-42.2c0,0-5.8-4.4-10.6,21.4s15,42.4,15,42.4S179.2,180.8,177,166.7z"/>
		<path class="st55" d="M165.6,155.9c0,0-1.1,13.7-16.8,14.3"/>
		<path class="st54" d="M165,155.2c-0.2,1.2-0.4,2.4-0.8,3.5c-0.3,1-0.6,1.9-1.1,2.8c-0.9,1.8-2.1,3.4-3.6,4.7
			c-1.5,1.3-3.2,2.3-5.1,2.9c-1.8,0.6-3.8,1-5.7,1.2c2,0,3.9-0.2,5.8-0.7c4.1-1.1,7.5-3.7,9.6-7.4c0.5-0.9,1-1.9,1.4-2.9
			c0.3-0.8,0.5-1.6,0.6-2.4L165,155.2z"/>
		<path class="st55" d="M158.8,145.3c-2.8,4.4-8.6,5.7-13.1,3"/>
		<path class="st54" d="M158.5,144.4c-0.4,0.6-0.9,1.2-1.4,1.8c-0.2,0.2-0.4,0.4-0.6,0.6l-0.7,0.6c-0.9,0.8-2,1.3-3.1,1.6
			c-0.3,0.1-0.6,0.1-0.9,0.2c-0.3,0.1-0.6,0.1-0.9,0.1h-0.9l-0.9-0.1h-0.4l-0.4-0.1l-0.9-0.2c-0.6-0.2-1.1-0.4-1.7-0.6
			c0.6,0.3,1.1,0.6,1.6,0.8l0.9,0.3l0.4,0.2l0.4,0.1l0.9,0.2l0.9,0.1c0.6,0,1.3,0,1.9-0.1c1.3-0.2,2.5-0.7,3.6-1.4
			c0.3-0.2,0.6-0.4,0.8-0.6s0.5-0.4,0.8-0.6c0.5-0.5,1-1,1.4-1.5L158.5,144.4z"/>
		<path class="st56" d="M240.6,165.6c0,0,27.4-19,20.2-43c0,0,6-4.7,11.8,21s-14.8,43-14.8,43S238.6,179.8,240.6,165.6z"/>
		<path class="st55" d="M252.4,154.4c0,0,1.6,13.7,18.3,13.6"/>
		<path class="st54" d="M253,153.6c0.2,1.2,0.5,2.4,0.9,3.5c0.3,0.9,0.7,1.9,1.2,2.7c1,1.8,2.3,3.3,3.9,4.5c1.6,1.2,3.5,2.1,5.5,2.7
			c2,0.6,4.1,0.9,6.1,0.9c-2.1,0.1-4.2-0.1-6.2-0.5c-2.1-0.4-4.1-1.2-5.9-2.4c-1.8-1.2-3.4-2.7-4.5-4.6c-0.6-0.9-1.1-1.9-1.5-2.9
			c-0.4-0.8-0.6-1.6-0.8-2.4L253,153.6z"/>
		<path class="st55" d="M259.3,143.5c0,0,5.2,7.2,14,2.5"/>
		<path class="st54" d="M259.6,142.6c0.5,0.6,1,1.2,1.5,1.8c0.2,0.2,0.5,0.4,0.7,0.6s0.5,0.4,0.7,0.6c1,0.7,2.1,1.2,3.4,1.5
			c0.3,0.1,0.6,0.1,0.9,0.2c0.3,0.1,0.6,0.1,0.9,0.1h1l0.9-0.1l0.5-0.1l0.5-0.1l0.9-0.3c0.6-0.2,1.2-0.5,1.8-0.7
			c-0.6,0.3-1.1,0.6-1.7,0.9l-0.9,0.4l-0.5,0.2l-0.5,0.1l-1,0.2l-1,0.1c-0.7,0.1-1.3,0.1-2,0c-1.4-0.2-2.7-0.6-3.9-1.2
			c-0.3-0.2-0.6-0.4-0.9-0.5s-0.6-0.4-0.8-0.6c-0.6-0.4-1.1-0.9-1.5-1.5L259.6,142.6z"/>
		<path class="st57" d="M252.5,213.6c2.7,0,5.3,0.9,7.5,2.4l0.2-0.3C255.8,212.5,252.5,213.6,252.5,213.6z"/>
		<path class="st47" d="M260.8,218.1c2-21.1-3-39.1-13.9-50.7c-6.9-7.4-16-11.6-24.9-11.6c-5.9-0.1-11.7,2-16.2,5.8
			c-3.5-3.3-8.2-5-13-5c-7.7,0-16.1,4.4-23,12c-11.1,12.6-16.3,29.4-14.3,46.2c-0.2,0.3,0.3-0.3,0,0c-2.6,2.6-11.8,5.5-12.4,14.2
			c-0.7,9.3,9.1,17.4,16.1,23.9c1.7,1.6,3.4,3.2,5.1,4.9c2.5,2.6,4.7,6.1,7.1,9.9c5.6,9.1,12,19.4,25.4,20c0.5,0,1.1,0,1.6,0
			c16,0,25-10.4,31-17.2c0.7-0.8,1.4-1.6,2-2.3c2.6-2.9,7.3-4.8,12.2-6.8c7.8-3.2,20.5-10.2,25.3-18.7
			C274.4,233.1,267.2,222.5,260.8,218.1z"/>
		<path class="st58" d="M160.2,242.1c2.9,6.5,20.2,36.9,35.4,37.6c14.9,0.7,29.8-9,48.6-44.6C240.1,228.4,160.8,235.3,160.2,242.1z"
			/>
		<path class="st59" d="M225.6,246.9c0,0-0.1,9.7-4.8,12s-4.6-6-4.7-8.9S225.6,246.9,225.6,246.9z"/>
		<path class="st59" d="M172.6,248.1c0,0,0.1,9.7,4.5,12s4.3-6,4.4-8.9S172.6,248.1,172.6,248.1z"/>
		<path class="st60" d="M206.3,268.6c-2.8,0-6.2,0.9-7.9,3.5c-1.2-1.9-3.4-3.1-5.7-3c-1.8,0-3.6,0.7-5,1.9c-1.4,1.2-2.1,3-2,4.8v0.1
			l0.1,0c3.5,2.1,7.3,3.8,11.2,3.8l0,0c6.2,0,13.6-2.6,17.7-6.3l0,0C214.5,270.3,209.8,268.6,206.3,268.6z"/>
		<path class="st57" d="M157,225.6c0-0.1-0.4,0.1-0.4,0.3c0.5,3.2,1.7,7,5.9,9.2l0.2-0.4C158.6,232.6,157.4,229,157,225.6z"/>
		<path class="st47" d="M223.5,218.2c-1.3-1.1-2.7-2-4.3-2.6h-0.1c-7.9-2.9-20.6-3.9-32.4-2.2c-12.1,1.7-21,5.7-25,11.2
			c-7,8.9-2.6,17.7,3.9,22.9c6.9,5.5,18.4,8.8,26.3,4.1c3.3,2.3,8.2,3.4,13.6,3.4c5.5-0.1,10.9-1.1,16-3c6.9-2.6,21.4-8.8,22-17.9
			l-0.1-0.3"/>
		<path class="st58" d="M209.5,234.7c-3.2,0-8,4.8-8.5,7.7v0.2l0.2,0.1c0.7,0.2,1.5,0.3,2.3,0.3c3.4,0,7-1.6,8.3-3.8
			c0.6-0.9,0.6-2.1,0.1-3C211.5,235.3,210.5,234.7,209.5,234.7z"/>
		<path class="st61" d="M207.3,236.5c-2.4,0-5.9,3.5-6.2,5.6v0.1h0.1c0.5,0.1,1.1,0.2,1.7,0.2c2.5,0,5.1-1.2,6.1-2.8
			c0.4-0.7,0.5-1.5,0.1-2.2C208.7,236.9,208,236.5,207.3,236.5z"/>
		<path class="st58" d="M177.7,234.8c-1,0.1-1.9,0.7-2.2,1.6c-0.4,1-0.3,2.1,0.4,3c1.4,2,5.2,3.3,8.6,3.1c0.8-0.1,1.5-0.2,2.2-0.5
			l0.2-0.1v-0.2C186.1,238.9,180.9,234.6,177.7,234.8z"/>
		<path class="st61" d="M180.1,236.5c-0.7,0-1.4,0.5-1.6,1.2c-0.3,0.7-0.2,1.6,0.3,2.2c1,1.5,3.8,2.4,6.3,2.2c0.6,0,1.1-0.2,1.6-0.4
			l0.1-0.1v-0.1C186.2,239.5,182.4,236.3,180.1,236.5z"/>
		<ellipse class="st62" cx="226.5" cy="199.5" rx="15" ry="16.4"/>
		<path class="st63" d="M226.5,216.1c-2.1,0-4.2-0.4-6.1-1.3c-1.9-0.9-3.7-2.1-5.1-3.6c-3.1-3.2-4.9-7.3-5.2-11.7
			c-0.3-4.6,1-9.2,3.8-12.9c1.5-1.9,3.4-3.4,5.5-4.5c4.4-2.3,9.7-2.3,14.2,0c2.1,1.1,4,2.7,5.5,4.6c2.8,3.7,4.1,8.3,3.8,12.9
			c-0.3,4.4-2.1,8.5-5.2,11.7c-1.5,1.5-3.2,2.8-5.1,3.6C230.7,215.6,228.6,216.1,226.5,216.1z M226.5,215.8c4.1-0.1,8-1.9,10.7-5.1
			c5.4-6.5,5.4-15.9-0.1-22.4c-4.9-5.9-13.6-6.6-19.5-1.7c-0.6,0.5-1.2,1.1-1.7,1.7c-5.5,6.4-5.5,15.9-0.1,22.4
			C218.5,213.8,222.4,215.7,226.5,215.8z"/>
		<ellipse class="st64" cx="228.3" cy="198" rx="8.9" ry="9.6"/>
		<ellipse class="st65" cx="235" cy="191.9" rx="2.4" ry="2.6"/>
		<ellipse class="st62" cx="178.2" cy="198" rx="15" ry="16.4"/>
		<path class="st63" d="M178.2,214.2c2,0,4-0.5,5.8-1.4c1.8-0.9,3.3-2.2,4.6-3.8c2.3-3.2,3.4-7.1,3.1-11
			c-0.6-7.7-6.9-13.9-13.5-13.7c-6.6-0.1-13,6-13.5,13.7c-0.3,3.9,0.8,7.8,3.1,11c1.2,1.6,2.8,2.9,4.6,3.8
			C174.1,213.7,176.1,214.2,178.2,214.2z M178.2,214.5c-4.2,0-8.2-1.9-10.9-5.1c-5.6-6.6-5.7-16.3-0.1-23c5-6.1,13.9-7,20-2
			c0.7,0.6,1.4,1.3,2,2c5.6,6.6,5.6,16.4,0,23C186.4,212.6,182.4,214.5,178.2,214.5L178.2,214.5z"/>
		<ellipse class="st64" cx="179.8" cy="197.6" rx="8.9" ry="9.6"/>
		<ellipse class="st65" cx="186" cy="191.6" rx="2.4" ry="2.6"/>
		<path class="st66" d="M237.5,232.9c0,0,6.7-0.8,9.8,9.1C247.4,242,246.7,228.8,237.5,232.9z"/>
		<path class="st66" d="M155.5,231.8c0,0-2.1-7.3,7.1-9.7C162.6,222.1,152.2,223.3,155.5,231.8z"/>
	</g>
</g>
<path class="st3" d="M63.5,56.4c0.9-7,8.4-11.6,13.9-4.8s5.9,13.2,1.3,14.2"/>
<path class="st2" d="M63.8,65.2C60.3,58,65.3,50.1,72,51c6.4,0.9,10.4,13.7,9,16.6S68.6,75,63.8,65.2z"/>
<path class="st67" d="M65.2,65.6c-1.1-3.8,3.1-8.9,7.5-8.6s4.4,9.7,3.2,12S67.3,72.6,65.2,65.6z"/>
<path class="st0" d="M60.4,71.8c-16.6-4-37.6,19.6-31.6,29.3c2.5,4.1,12,6.1,14.4,1.9c0.9-1.6-1.3-2.4-2.5-2.7
	c-2.1-0.4-1.8-3.2,1.6-3.9c5.5-1.1,5.4,12-5.2,11.7c-8.8-0.2-11.7-5.3-11.8-15.5c-0.1-12.2,29-29,38.6-23.5"/>
<path class="st68" d="M61.2,67.8c-16.6-4-37.6,19.6-31.6,29.3c2.5,4.1,12,6.1,14.4,1.9c0.9-1.6-1.3-2.4-2.5-2.7
	c-2.2-0.4-1.8-3.2,1.6-3.9c5.5-1.1,5.4,12-5.2,11.7c-8.8-0.2-11.7-5.3-11.8-15.5c-0.1-12.2,29-29,38.6-23.5"/>
<path class="st69" d="M58.2,65.4c-9.8-2.5-36.6,15.1-30.9,29.7C24,85.2,43.8,67.4,58.2,65.4z"/>
<path class="st70" d="M29.4,99.7c2.1-0.3,2.3,7.9-3.1,6.5C22.1,105,26.3,100.1,29.4,99.7z"/>
<path class="st71" d="M27.8,106.4c2.8,0,3-4.6,0.6-4S24.2,106.3,27.8,106.4z"/>
<path class="st69" d="M40.3,95.3c1.2,1.7,4.6,0.8,3.8-0.8S39,93.5,40.3,95.3z"/>
<path class="st70" d="M26.1,89.2c2.1,0.1-1.3,8-5.7,5.5C17,92.8,23.1,89,26.1,89.2z"/>
<path class="st71" d="M21.7,95.2c2.8,0.5,5.5-4.1,2.7-3.9S18.1,94.6,21.7,95.2z"/>
<path class="st70" d="M35.2,74.6c2-0.9-5.6-7.1-8.2-3.1C25,74.6,32.3,75.8,35.2,74.6z"/>
<path class="st71" d="M27.9,70.5c2.4-1.5,8.4,2.1,5.5,2.9S24.8,72.4,27.9,70.5z"/>
<path class="st0" d="M65.6,68.6c6.8-7.1,13.3,2.8,9,5s-5.2-3.6-8.8-3.8c1.3,3.8-4.2,6.7-8.1,3.2s2.7-5.7,6.5-4.4
	c-1.8-4.9-8.6-6.7-4-9.7C65.4,55.6,69.6,64,65.6,68.6z"/>
<path class="st70" d="M64.6,65.9c6.7-7.1,11.2,3.1,8.3,6.6c-2,2.4-4.4-5.2-8-5.4c1.3,3.8-4.2,6.7-8.1,3.2s2.7-5.7,6.5-4.4
	c-1.8-4.9-8.6-6.7-4-9.7C64.3,52.9,68.6,61.3,64.6,65.9z"/>
<path class="st71" d="M73.1,67.8c-0.7-3.7-5.4-4.8-5.3-1.8S74.5,75,73.1,67.8z"/>
<path class="st71" d="M65,63c0.7-4.1-0.9-8.3-4-6.1S62.5,63.3,65,63z"/>
<path class="st71" d="M61.2,69.2c-2.3-3.2-5.6-1.7-4.6,0S62.8,71.5,61.2,69.2z"/>
</svg>
