<?xml version="1.0" encoding="utf-8"?>
<!-- Generator: Adobe Illustrator 25.2.3, SVG Export Plug-In . SVG Version: 6.00 Build 0)  -->
<svg version="1.1" id="Layer_1" xmlns="http://www.w3.org/2000/svg" xmlns:xlink="http://www.w3.org/1999/xlink" x="0px" y="0px"
	 viewBox="0 0 430 512" style="enable-background:new 0 0 430 512;" xml:space="preserve">
<style type="text/css">
	.st0{opacity:0.2;enable-background:new    ;}
	.st1{fill:#723600;}
	.st2{fill:#8E430C;}
	.st3{fill:#B76400;}
	.st4{fill:#A85C09;}
	.st5{fill:#9B520A;}
	.st6{fill:#934B0A;}
	.st7{fill:#F2D857;}
	.st8{fill:#FFFB92;}
	.st9{clip-path:url(#SVGID_2_);}
	.st10{clip-path:url(#SVGID_4_);}
	.st11{fill:url(#SVGID_5_);}
	.st12{fill:#4998CE;}
	.st13{fill:url(#SVGID_6_);}
	.st14{fill:#8ABADE;}
	.st15{fill:#70A4D2;}
	.st16{fill:url(#SVGID_7_);}
	.st17{opacity:8.000000e-02;fill:#0071BC;enable-background:new    ;}
	.st18{opacity:0.42;fill:#FFFFFF;enable-background:new    ;}
	.st19{fill:url(#SVGID_8_);}
	.st20{fill:url(#SVGID_9_);}
	.st21{opacity:0.83;}
	.st22{opacity:0.86;fill:#C3DDF4;enable-background:new    ;}
	.st23{opacity:0.52;fill:#C3DDF4;enable-background:new    ;}
	.st24{opacity:0.42;fill:#C3DDF4;enable-background:new    ;}
	.st25{opacity:0.65;fill:#C3DDF4;enable-background:new    ;}
	.st26{opacity:0.47;fill:#C3DDF4;enable-background:new    ;}
	.st27{opacity:0.53;fill:#C3DDF4;enable-background:new    ;}
	.st28{opacity:0.94;fill:#C3DDF4;enable-background:new    ;}
	.st29{opacity:0.41;fill:#C3DDF4;enable-background:new    ;}
	.st30{opacity:0.73;fill:#C3DDF4;enable-background:new    ;}
	.st31{opacity:0.72;fill:#C3DDF4;enable-background:new    ;}
	.st32{opacity:0.54;fill:#C3DDF4;enable-background:new    ;}
	.st33{opacity:0.61;fill:#C3DDF4;enable-background:new    ;}
	.st34{opacity:0.71;fill:#C3DDF4;enable-background:new    ;}
	.st35{opacity:0.82;fill:#C3DDF4;enable-background:new    ;}
	.st36{opacity:0.76;fill:#C3DDF4;enable-background:new    ;}
	.st37{opacity:0.57;fill:#C3DDF4;enable-background:new    ;}
	.st38{opacity:0.7;fill:#C3DDF4;enable-background:new    ;}
	.st39{opacity:0.9;fill:#C3DDF4;enable-background:new    ;}
	.st40{opacity:0.2;fill:#C3DDF4;enable-background:new    ;}
	.st41{opacity:0.6;fill:#C3DDF4;enable-background:new    ;}
	.st42{opacity:0.83;fill:#C3DDF4;enable-background:new    ;}
	.st43{opacity:0.84;fill:#C3DDF4;enable-background:new    ;}
	.st44{opacity:0.79;fill:#C3DDF4;enable-background:new    ;}
	.st45{opacity:0.93;fill:#C3DDF4;enable-background:new    ;}
	.st46{opacity:0.56;fill:#C3DDF4;enable-background:new    ;}
	.st47{opacity:0.62;fill:#C3DDF4;enable-background:new    ;}
	.st48{opacity:0.89;fill:#C3DDF4;enable-background:new    ;}
	.st49{opacity:0.8;fill:#C3DDF4;enable-background:new    ;}
	.st50{opacity:0.85;fill:#C3DDF4;enable-background:new    ;}
	.st51{opacity:0.67;fill:#C3DDF4;enable-background:new    ;}
	.st52{opacity:0.4;fill:#C3DDF4;enable-background:new    ;}
	.st53{opacity:0.44;fill:#C3DDF4;enable-background:new    ;}
	.st54{opacity:0.92;fill:#C3DDF4;enable-background:new    ;}
	.st55{opacity:0.63;fill:#C3DDF4;enable-background:new    ;}
	.st56{opacity:0.95;fill:#C3DDF4;enable-background:new    ;}
	.st57{opacity:0.66;fill:#C3DDF4;enable-background:new    ;}
	.st58{opacity:0.48;fill:#C3DDF4;enable-background:new    ;}
	.st59{opacity:0.68;fill:#C3DDF4;enable-background:new    ;}
	.st60{opacity:0.43;fill:#C3DDF4;enable-background:new    ;}
	.st61{opacity:0.45;fill:#C3DDF4;enable-background:new    ;}
	.st62{opacity:0.58;fill:#C3DDF4;enable-background:new    ;}
	.st63{opacity:0.64;fill:#C3DDF4;enable-background:new    ;}
	.st64{opacity:0.55;fill:#C3DDF4;enable-background:new    ;}
	.st65{opacity:0.46;fill:#C3DDF4;enable-background:new    ;}
	.st66{opacity:0.49;fill:#C3DDF4;enable-background:new    ;}
	.st67{opacity:0.77;fill:#C3DDF4;enable-background:new    ;}
	.st68{opacity:0.31;fill:#C3DDF4;enable-background:new    ;}
	.st69{opacity:0.75;fill:#C3DDF4;enable-background:new    ;}
	.st70{opacity:0.59;fill:#C3DDF4;enable-background:new    ;}
	.st71{opacity:0.81;fill:#C3DDF4;enable-background:new    ;}
	.st72{opacity:0.87;fill:#C3DDF4;enable-background:new    ;}
	.st73{opacity:0.51;fill:#C3DDF4;enable-background:new    ;}
	.st74{opacity:0.5;fill:#C3DDF4;enable-background:new    ;}
	.st75{opacity:0.88;fill:#C3DDF4;enable-background:new    ;}
	.st76{opacity:0.78;fill:#C3DDF4;enable-background:new    ;}
	.st77{opacity:0.91;fill:#C3DDF4;enable-background:new    ;}
	.st78{opacity:0.74;fill:#C3DDF4;enable-background:new    ;}
	.st79{opacity:0.2;}
	.st80{fill:#161616;}
	.st81{fill:#FF9F2C;stroke:#B5650D;stroke-miterlimit:10;}
	.st82{fill:#B5650D;}
	.st83{fill:#35374C;}
	.st84{fill:#35467A;stroke:#1D2C54;stroke-miterlimit:10;}
	.st85{fill:#233559;}
	.st86{fill:#2B3245;}
	.st87{fill:#EEE1B7;stroke:#3D3C21;stroke-miterlimit:10;}
	.st88{fill:#FFFFFF;}
	.st89{fill:#1B1B26;}
	.st90{fill:#191928;}
	.st91{fill:#F9F5F2;}
	.st92{fill:#FAA02C;stroke:#AF6617;stroke-miterlimit:10;}
	.st93{fill:#C7323E;}
	.st94{fill:#AD886F;}
	.st95{fill:#EEE1B7;}
	.st96{fill:#3D3C21;}
	.st97{fill:#5B2704;}
	.st98{fill:#4E6B00;}
	.st99{fill:#5D8E07;}
	.st100{fill:#77A004;}
	.st101{fill:#88B709;}
</style>
<path class="st0" d="M47.9,39.8C26.2,43,9.8,60.4,9.9,81.8s0.9,348.9,6.8,371.3s25.8,30.9,48.1,32.9s292.2,4.5,315.2,0.6
	s32.1-15.2,35.2-37.7s6-336.8,4.6-361.5c-2-33.8-17.5-50.7-46.6-50.9C349.9,36.4,67.7,36.8,47.9,39.8z"/>
<path class="st1" d="M54.2,31.4C32.9,34.7,16.9,52.1,17,73.5s0.9,348.9,6.6,371.3s25.3,30.9,47.1,32.9s286.2,4.5,308.7,0.6
	s31.4-15.2,34.5-37.7s5.9-336.8,4.5-361.5c-1.9-33.8-17.1-50.6-45.7-50.9C350,28.1,73.6,28.4,54.2,31.4z"/>
<path class="st2" d="M51.4,26.6c-21.2,3.3-37.3,20.6-37.2,42.1s0.9,348.9,6.6,371.3s25.3,30.9,47.1,32.9s286.2,4.5,308.7,0.6
	s31.4-15.2,34.5-37.7S417,99,415.6,74.3c-2-33.8-17.1-50.6-45.7-50.9C347.2,23.3,70.8,23.6,51.4,26.6z"/>
<path class="st3" d="M46.6,28.2c-8.3,0-27,15.8-29.7,33.1S19.1,429,20.8,440s14.4,27.6,39.4,28.5c5.1-2.8,6.4-38.3,6.4-38.3
	s0.9,36.9,4.4,38.9c6.4,3.7,41.4,2.5,42.8,0.2s-5.6-437.7-8.4-441s-50.2-3.2-50.6,0S49.7,71,49.7,71S49.8,28.2,46.6,28.2z"/>
<path class="st3" d="M119.1,469.2c2.9,3.2,43.6,3.8,46.9,2.3s9.8-5.2,9.8-5.2s3.8,5.4,6.1,5.8s8.4,1.3,9.9-0.6s4.1-15.7,4.1-15.7
	s-0.8,14.7,1.5,15.7s34.7,1.6,38.4,0.7s1-37.8,2.9-39s3.8,37,5.6,38.4s76,2.9,79.7,1.5s2.8-444.9-1.4-447.2s-35.2-1.9-37.5,0
	s-5.6,37.5-5.6,37.5s0.5-35.3-2.4-37.5s-22.3-2.2-24.8-2.1s-4.8,99.4-4.8,99.4s-0.5-95.2-5.6-97.3s-69-3.5-73.6-1.6
	s-14.1,29.1-14.1,29.1s4.2-26,0.9-27.5s-40.1-2.5-45,0S114.4,463.9,119.1,469.2z"/>
<path class="st3" d="M326.7,27c-5.4,1.8,2.9,440.7,5.6,444.4s47,2.4,53,0s6.3-52,6.3-52s1.2,41.6,4.2,43.1s13.4-18,14-34.4
	s5.2-360.1,3.4-371s-15.2-28.7-26.1-31s-6,57.1-9.2,53.3s0.8-51.3-3.6-53.7S330.3,25.8,326.7,27z"/>
<path class="st2" d="M388.1,70c0-6.2,9.1-5.4,11.5,0.5S388.1,80.2,388.1,70z"/>
<path class="st2" d="M377.8,53.5c5.4,7,3.8,16.4-0.3,16.9S374,48.6,377.8,53.5z"/>
<path class="st4" d="M41.6,39.8C36.2,37.5,21,47.7,19,60.6s1.2,256.3,4.7,259.3s43.6,5,43.6,5s-39.4,1.7-42.2,7.3s4,105.1,4.2,114.5
	S49,465.1,54.6,462s5.6-129.9,5.6-129.9s9.8,127.4,15.5,130.5s28,1.9,33.1-5.5s-4.9-414.5-8.4-421.4s-32-10.9-35.3-7.4
	S52.5,207.5,52.5,207.5S47.6,42.2,41.6,39.8z"/>
<path class="st4" d="M113.9,29.6c-4.9,4.3-4,160,0,160.8s29.3-33.7,32.2-41s6.5-112.2,3.6-113.7S118.5,25.5,113.9,29.6z"/>
<path class="st4" d="M172.1,29.5c-10.4,3-16.2,52-17.6,58.5s4.4,369.1,11,371.2s17.1,10.8,22.7,8.3s4.2-81.1,4.2-81.1
	s3.5,78.9,9.9,80.3s25.8,1,31.1-1.7s8.3-426.2,2.6-431.5S181.4,26.8,172.1,29.5z"/>
<path class="st4" d="M150.7,167.1c-6.6-3.2-35.2,22.9-36.8,32.1s6.8,254.8,8.9,259.7s34.5,0,35.9,0S156.8,170,150.7,167.1z"/>
<path class="st4" d="M243.8,425.8c0.9,8.5,3.5,32.6,6.3,35.3s64,4,67.5,0s4.9-421.3,1.4-423.8s-26-4.6-29.5-1.7
	s-12.7,90.1-12.7,90.1s3.5-95.6-2.1-94.8s-18.3,1.2-20.4,5.6S241.8,406.4,243.8,425.8z"/>
<path class="st4" d="M332,35.6c-2.4,3.6-1.4,259.6,0.5,262.4s35.6,8.2,38,7.8s7-69.8,6.6-68.8s3.3,30.2,6.1,31s20.6,3.3,23-0.8
	s0.5-196.5,0-206s-17.3-20.2-20.4-17.1s-4.4,88.9-4.4,88.9s-9.5-93.4-16.5-96.5S335.8,30,332,35.6z"/>
<path class="st4" d="M332.9,310.4c-0.7,6.6,4.2,152.1,7.5,153.6s36.1,2.1,42.7-2.9s4.7-49,4.7-49S393,445.5,399,447
	s9.8-15.2,8.2-24.6s3.4-144.8-0.3-146.5s-27.7-2.3-27.4,5.8s-4.4,28.6-4.4,28.6S333.5,305.4,332.9,310.4z"/>
<path class="st5" d="M384,390.6c10.7,3.7,6.1,22.2-6.8,16S373.8,387,384,390.6z"/>
<path class="st5" d="M385,202.9c15.9,3.8,2.4,21-5.5,16.6S371.1,199.6,385,202.9z"/>
<path class="st5" d="M311.1,226.4c3.5,2.6,7.7,60.7,1.9,77s-6.2,3.2-7.5,43.5s-4.1,53-10.7,54.9s-13.4-74-11.4-79.7
	s6.2,51.2,10.3,52.5s2.8-49.2,3.3-73.2s8.4-13.9,9.1-30.3S306.7,223.1,311.1,226.4z"/>
<path class="st5" d="M395.5,96.5c2.4,5.5-5,6.2-6,2.6S394.2,93.5,395.5,96.5z"/>
<path class="st5" d="M392.6,376.7c5-4.2-2.3-9-6.6-5.5S387.7,380.8,392.6,376.7z"/>
<path class="st5" d="M361.2,418.6c3.2,0.6-0.5,7.1-2.9,4.5S356.8,417.7,361.2,418.6z"/>
<path class="st5" d="M351.2,47.5c-2.3-6.9-15.8-8.9-13.7,2.5S355.8,61.2,351.2,47.5z"/>
<path class="st5" d="M192.2,364.9c-9.3,6.7-2,98.9,1.1,103.7S199.8,374.6,192.2,364.9z"/>
<path class="st5" d="M174.3,91.5c1.9,5.3,3,34.7,1.7,41.7s-6,6.7-7.9,18.1s-0.7,44.6-5.4,47.5s-4.5-62.1-5.2-73.4
	s-2.5-69.5,3.7-70.1s3.4,14.8,5.9,22.9S172.5,86.6,174.3,91.5z"/>
<path class="st6" d="M169.2,111.4c4.5-4-0.1-31.8-5-30.5S158.9,120.5,169.2,111.4z"/>
<path class="st5" d="M211.8,324.8c3.4,1.7,1.5,21.5,2.1,43.9s9.2,33.7,10.3,64.2c0.3,8-10.9,32.4-14.9,28.1
	c-7.7-8.2-2.4-51.5-2.8-76.5S206.5,322.2,211.8,324.8z"/>
<path class="st6" d="M213.2,403.5c0.7,5.1,7.4,14.1,6.8,24.6s-6,24-8.8,21c-3.4-3.7-0.9-33.7-0.7-50S210.3,382,213.2,403.5z"/>
<path class="st5" d="M138.1,258.8c-2.7-10.7-19.7-5.9-15.1,7.3S143,277.8,138.1,258.8z"/>
<path class="st5" d="M185.6,61.4c-3.1-6.8-12.4-3.2-9,2.8S188.6,68.2,185.6,61.4z"/>
<path class="st5" d="M260.7,444.1c-1.5-10.2-11.5-9-10.1,0S262.2,454.3,260.7,444.1z"/>
<path class="st5" d="M255.6,463.7c0-4.6-7.7-5.6-6.7,0S255.6,468.3,255.6,463.7z"/>
<path class="st5" d="M231.8,383.3c6.2,15.3-12.4,25.5-15.8,9.8S227.9,373.8,231.8,383.3z"/>
<path class="st5" d="M224.1,62.7c-6.8-9.9-18.8,0.8-10.5,13.4S230.9,72.6,224.1,62.7z"/>
<path class="st5" d="M218,89.9c-0.9-5.9-4.2-7.7-4.2-0.8S218.4,93,218,89.9z"/>
<path class="st5" d="M40.6,106.1c-8.5-3.6-4.8-21.4,5.5-15.4S48.7,109.4,40.6,106.1z"/>
<path class="st5" d="M47.1,402.4c-12.7-3.6-1.9-20.2,4.4-16S58.2,405.6,47.1,402.4z"/>
<path class="st5" d="M91.1,347.9c-1.7,5-3.3,27.3-2.3,34s5,6.6,6.4,17.6s-0.4,50.1,3.6,53s5.3-66.7,6.1-77.6s3.7-60.8-1.7-61.6
	s-3.2,14.1-5.6,21.9S92.7,343.2,91.1,347.9z"/>
<path class="st6" d="M97.3,385.8c1.4-5.7-1.8-41.6,2.4-40.8C78,341,93.8,399.7,97.3,385.8z"/>
<path class="st5" d="M65.4,213.7c-2.8-2.5-6.1-55.9-1.5-71.7s5-18.1,6-56.8s3.3-51,8.6-52.8s10.7,71.2,9,76.7s-4.9-49.3-8.2-50.5
	S77,106,76.7,129s-6.7,33.1-7.3,49S68.9,216.8,65.4,213.7z"/>
<path class="st5" d="M66.1,215.1c-2.9,1.6-1.3,20.8-1.8,42.2s-7.9,38.2-8.8,67.6c-0.3,7.7,9.4,31.2,12.8,27.1
	c6.6-7.9,2-49.6,2.4-73.6S70.6,212.6,66.1,215.1z"/>
<path class="st6" d="M64.9,296.6c-0.6,4.9-6.4,13.6-5.8,23.7s5.2,23.1,7.5,20.2c2.9-3.6,0.8-32.5,0.6-48.1S67.4,275.9,64.9,296.6z"
	/>
<path class="st5" d="M31.4,409.6c-2-5.3,4-6,4.8-2.5S32.5,412.5,31.4,409.6z"/>
<path class="st5" d="M33.7,119.4c-3.9,4,1.8,8.7,5.3,5.3S37.7,115.5,33.7,119.4z"/>
<path class="st5" d="M58.8,79.1c-2.5-0.6,0.4-6.9,2.3-4.3S62.3,79.9,58.8,79.1z"/>
<path class="st5" d="M75.7,446.8c1.8,6.7,12.6,8.6,10.9-2.4S72.1,433.6,75.7,446.8z"/>
<path class="st2" d="M56.8,69.5c-12.6,1-26.9,8.9-27.3,23.8s1.8,323,3,331.6c1.2,8.6,8.9,14.5,21.2,16.4s306.4-0.5,316.2-0.4
	c15.2,0.2,28.8-7.1,30.6-20.5c1.5-10.9,0.7-318.7,0.8-326.7c0.1-13.8-13.4-22.2-30.5-22.4C353,71,75.8,67.9,56.8,69.5z"/>
<path class="st7" d="M62.1,74.9c-18.1,1.2-25.9,9.8-25.8,25.4c0,14,1.6,315.5,2.8,323.6s7.1,11.9,18.7,14.2s302-1.1,311.3-1.4
	c17.6-0.6,24.5-9.1,25.8-18c1.5-10.3,0.5-314.4,0.6-322c0-13.1-9.7-19.1-26-19.9C352.4,75.9,80.1,73.7,62.1,74.9z"/>
<path class="st8" d="M70.3,77.4C52.9,78.1,44,87.8,44.1,98.3c0,10.1,0.6,313.4,1.6,321.2S51.5,434,64.3,435s288.6,1.3,302.4,0.3
	c12.3-0.9,22.3-7.8,23.7-16.3s-0.4-318-1.9-324.4s-10.6-14.2-21.7-14.5S79.7,77,70.3,77.4z"/>
<path class="st7" d="M345.1,411.8c14.4-5.4,17.3,11.1,5.3,13.4S332.6,416.5,345.1,411.8z"/>
<path class="st7" d="M72.6,107.5c1.6,6.8-8.6,6.1-8.6,0.8C64,104.2,71.5,102.9,72.6,107.5z"/>
<path class="st2" d="M365.9,73.8c-9.3,0.2-6.6,9.5,2.7,11.3c10.6,2,17.4-7.1,13.3-9.8"/>
<path class="st2" d="M375,89.6c-1.3-3.7,4.6-4.7,7.4-1.5S377.1,95.7,375,89.6z"/>
<path class="st2" d="M370,91.9c2.7,0.1,2.7,2.7,0.2,3.7S365.5,91.8,370,91.9z"/>
<path class="st5" d="M369.6,82.3c-7.2-4.1-1.1-8.6,4.9-7.1C385.2,77.8,376.9,86.5,369.6,82.3z"/>
<path class="st2" d="M46.2,435.6c-6.8-2-2.3-6.4,5.3-5.6s6,8.2,4.5,9.2"/>
<path class="st7" d="M69.9,75.1c15.8-1.2,24.8,15.4,4,19.9C55.8,98.9,49.4,76.7,69.9,75.1z"/>
<g>
	<defs>
		<path id="SVGID_1_" d="M63.8,73.5c-18,0.7-27.2,10.6-27.2,21.3c0,10.3,0.5,319,1.6,327s6.1,14.8,19.3,15.9s299,1.3,313.3,0.3
			c12.8-1,23.1-8,24.5-16.6S395,97.5,393.5,91s-11-14.5-22.5-14.8S73.6,73.1,63.8,73.5z"/>
	</defs>
	<clipPath id="SVGID_2_">
		<use xlink:href="#SVGID_1_"  style="overflow:visible;"/>
	</clipPath>
	<g class="st9">
		<g>
			<defs>
				<rect id="SVGID_3_" x="-578.4" y="-68.7" width="1009.7" height="568"/>
			</defs>
			<clipPath id="SVGID_4_">
				<use xlink:href="#SVGID_3_"  style="overflow:visible;"/>
			</clipPath>
			<g class="st10">
				
					<linearGradient id="SVGID_5_" gradientUnits="userSpaceOnUse" x1="-59.3433" y1="816.94" x2="-62.9632" y2="-163.56" gradientTransform="matrix(1 0 0 -1 0 514)">
					<stop  offset="0.12" style="stop-color:#90CBF6"/>
					<stop  offset="0.18" style="stop-color:#86C5F2"/>
					<stop  offset="0.42" style="stop-color:#65AFE3"/>
					<stop  offset="0.62" style="stop-color:#51A2DA"/>
					<stop  offset="0.75" style="stop-color:#4A9DD7"/>
				</linearGradient>
				<rect x="-710.8" y="-160.6" class="st11" width="1299.7" height="577.5"/>
				<polygon class="st12" points="-67.2,279.2 -6.4,239.7 32,223.8 57.8,223.8 80.2,216.8 99.4,209.2 154.6,228.4 174.6,240.4 
					176.6,244.2 187.7,244.2 213,254.6 278.3,269.2 322.9,322.3 -128.1,326.9 				"/>
				<polygon class="st12" points="243.7,322.5 316,278.1 357.7,276.1 388.3,270.5 415.7,263.1 434.9,279.7 446.3,283.4 489.6,313.5 
									"/>
				<polygon class="st12" points="556.3,373.5 381.5,288.8 368.7,276.6 343.5,268.3 338.2,260.2 314.8,243.1 295.6,237.1 269,216.6 
					247.5,232.1 239.1,234.6 224.8,233.6 206.9,244.7 200.8,244.7 191,248.8 164,253.4 138.4,258.6 122.4,260.5 33.8,271.4 
					-6.5,375.2 556.3,375.2 				"/>
				
					<linearGradient id="SVGID_6_" gradientUnits="userSpaceOnUse" x1="-126.6024" y1="347.9101" x2="-148.5424" y2="-36.9198" gradientTransform="matrix(1 0 0 -1 0 514)">
					<stop  offset="0.12" style="stop-color:#90CBF6"/>
					<stop  offset="0.18" style="stop-color:#86C5F2"/>
					<stop  offset="0.42" style="stop-color:#65AFE3"/>
					<stop  offset="0.62" style="stop-color:#51A2DA"/>
					<stop  offset="0.75" style="stop-color:#4A9DD7"/>
				</linearGradient>
				<polygon class="st13" points="-719.2,366.8 446.3,375.2 330.3,331.1 259.9,292.8 236.4,283 216.1,283 202.7,285.4 178.4,277.4 
					165.1,275.4 161.8,271.8 152.6,270 141.8,263.2 111.3,256.9 77.8,236 31.7,225.4 17.6,213.4 4.3,203.6 -6.5,187.1 -14.4,184.2 
					-18.7,179.4 -32.4,172.6 -51.4,155.6 -74.9,135.7 -90.8,143.1 -125.1,163.5 -133.7,172.5 -157.7,193.3 -164.6,207.9 -177,213.1 
					-188.9,219.4 -204.8,223.7 -229.5,239.9 -239.3,250.2 -263.2,261.6 -273.6,260.4 -286.5,264 -297,262.3 -315.6,267 
					-325.5,264.3 -343.2,271.7 -371.6,272.8 -377,270.3 -384.5,265.9 -394.5,257 -421.4,246.8 -450.7,236.7 -491.8,226.5 
					-507.5,235.8 -524.8,248.8 -537,251.9 -549.3,258.8 -556,257.2 -563.7,260.7 -573.6,262.3 -631.2,291.2 -689,295.9 
					-719.2,301.5 				"/>
				<polygon class="st14" points="310,326.4 250.6,321.4 189.9,323.9 142.5,316.2 123,308.1 81.8,305.5 78.9,306.8 43.9,307.9 
					33.2,306.1 15.3,308.9 5.1,306 -4.4,303.7 -40.4,303.7 -79.7,302 -125.2,309.4 -128.8,311 -139.1,312.7 -149.8,314.2 
					-162.4,306.6 -170,306.6 -218.6,310 -228.4,311.7 -274.6,313.4 -291,311.7 -308.9,315.4 -333,317.9 -423.2,329.5 -471.8,379.8 
					-474.3,396.7 371.9,396.7 				"/>
				<polygon class="st15" points="556.3,337.1 554.2,336.9 530.7,324.8 492.1,308.1 430.1,302.4 399.3,298.1 378.4,300 362,305 
					335.1,305 309.6,300 278.6,302.4 251.1,305.6 219.3,305.6 203.8,308.1 177.3,305.6 159.9,314 143.2,314 111.8,324.8 95.7,326.8 
					82.7,330.9 65.3,330.9 55.8,335.3 44.9,337 30.6,335.3 4.5,345.4 -66,370.9 -246.2,412.6 556.3,412.6 				"/>
				
					<linearGradient id="SVGID_7_" gradientUnits="userSpaceOnUse" x1="-430.1509" y1="134.6161" x2="-376.2108" y2="-54.6639" gradientTransform="matrix(-1 8.000000e-02 -8.000000e-02 -1 -536.63 527.46)">
					<stop  offset="0" style="stop-color:#C6E2FF"/>
					<stop  offset="1" style="stop-color:#E5F2FF"/>
				</linearGradient>
				<path class="st16" d="M-769.9,361.6l23.4,286.9L496.9,547.1c-5.5-1.5-10.6-3-14.4-4.4C344,490.3,194.2,448.9,39.7,418.5
					c-262.4-51.6-538.1-71.1-794.1-57.7C-759.6,361.1-764.7,361.3-769.9,361.6z"/>
				<polygon class="st17" points="-760.4,477.4 -736.6,469.3 -653.6,475.6 -751.7,439 -549.9,475.2 -413.2,482.3 -461.6,460.5 
					-332.6,486.4 -140,496.4 48.4,554 -758.3,503.4 				"/>
				<path class="st18" d="M-637.7,391.4l258.4-20.1l-38,12.2l383.8,34.6l53.7,20.3l59.6-9.4c-13.3-3.7-26.7-7.2-40.3-10.6
					c-262.4-51.6-538.1-71.1-794.1-57.7l157,19.7L-637.7,391.4z"/>
				
					<linearGradient id="SVGID_8_" gradientUnits="userSpaceOnUse" x1="-620.5639" y1="171.6987" x2="-652.9239" y2="-68.5713" gradientTransform="matrix(-1 -7.000000e-02 7.000000e-02 -1 -519.22 487.49)">
					<stop  offset="0" style="stop-color:#C6E2FF"/>
					<stop  offset="1" style="stop-color:#E5F2FF"/>
				</linearGradient>
				<path class="st19" d="M-421.5,544.9l1064.7,70.5l16.9-255.6c-6.1,0-12.2,0.1-18.3,0.2C286.2,364.3-103.3,425.7-421.5,544.9z"/>
				<path class="st18" d="M-421.5,544.9l76.4,5.1l65.6-31.8l481-87.4l-49.4-11.1l328.9-4.1l-52.1-9.3L641.8,360
					C286.2,364.3-103.3,425.7-421.5,544.9z"/>
				
					<linearGradient id="SVGID_9_" gradientUnits="userSpaceOnUse" x1="-233.1153" y1="67.5299" x2="-236.0553" y2="-119.7801" gradientTransform="matrix(-1 0 0 -1 -523.39 514)">
					<stop  offset="0" style="stop-color:#C6E2FF"/>
					<stop  offset="1" style="stop-color:#E5F2FF"/>
				</linearGradient>
				<path class="st20" d="M-711.2,444.4v146h846.4c-51.5-14.3-103.8-27.7-157-40.1c-43.8-10.2-87.9-19.8-132.5-28.8
					C-338.2,484.7-524.2,459-711.2,444.4z"/>
				<g class="st21">
					<path class="st22" d="M22.2,512.8c1.2-1.9,0.7-4.5-1.3-5.8c0,0,0,0-0.1,0c-2-1.2-4.6-0.7-5.9,1.3c-1.2,1.9-0.7,4.5,1.3,5.8
						c0,0,0,0,0.1,0C18.3,515.3,20.9,514.8,22.2,512.8z"/>
					<path class="st23" d="M32.4,427.5c0.9-1.4,0.5-3.2-0.9-4.2c0,0-0.1,0-0.1-0.1c-1.4-0.9-3.3-0.5-4.3,0.9
						c-0.9,1.4-0.5,3.2,0.9,4.2c0,0,0,0,0.1,0C29.6,429.3,31.5,428.9,32.4,427.5z"/>
					<path class="st24" d="M42.3,474.6c0.3-0.5,0.2-1.1-0.3-1.4c0,0,0,0,0,0c-0.5-0.3-1.1-0.2-1.4,0.3c0,0,0,0,0,0
						c-0.3,0.5-0.2,1.1,0.3,1.4c0,0,0,0,0,0C41.3,475.2,41.9,475.1,42.3,474.6z"/>
					<path class="st25" d="M66.9,491.5c0.4-0.6,0.2-1.5-0.4-1.9c0,0,0,0,0,0c-0.6-0.4-1.5-0.2-1.9,0.4c-0.4,0.6-0.2,1.5,0.4,1.9
						C65.6,492.3,66.4,492.2,66.9,491.5z"/>
					<path class="st26" d="M47.9,416.1c-0.1,0.2-0.1,0.6,0.2,0.7c0.2,0.2,0.6,0.1,0.7-0.1c0.2-0.2,0.1-0.5-0.1-0.7c0,0,0,0,0,0
						C48.4,415.8,48,415.9,47.9,416.1z"/>
					<path class="st27" d="M47.7,373.8c0.6-1,0.4-2.3-0.6-2.9c0,0,0,0,0,0c-1-0.6-2.3-0.3-3,0.6c-0.6,1-0.3,2.3,0.6,2.9c0,0,0,0,0,0
						C45.7,375.1,47,374.8,47.7,373.8z"/>
					<path class="st28" d="M49.9,508.7c0.2-0.4,0.1-0.9-0.2-1.1c0,0,0,0,0,0c-0.4-0.2-0.9-0.1-1.2,0.3c-0.2,0.4-0.1,0.9,0.3,1.1
						c0,0,0,0,0,0C49.1,509.2,49.6,509.1,49.9,508.7C49.9,508.7,49.9,508.7,49.9,508.7z"/>
					<path class="st29" d="M68.2,496.7c-0.1,0.1-0.2,0.2-0.3,0.4c-0.5,0.9-0.4,2,0.3,2.7V496.7z"/>
					<path class="st30" d="M44.3,174.9c0.2-0.3,0.1-0.6-0.2-0.8c0,0,0,0,0,0c-0.3-0.2-0.6-0.1-0.8,0.2c-0.2,0.3-0.1,0.6,0.2,0.8
						c0,0,0,0,0,0C43.8,175.2,44.2,175.2,44.3,174.9z"/>
					<path class="st31" d="M31.2,70.3c0.9-1.4,0.5-3.2-0.9-4.2c0,0,0,0-0.1,0c-1.4-0.9-3.3-0.5-4.3,0.9c-0.9,1.4-0.5,3.2,0.9,4.2
						c0,0,0,0,0.1,0C28.4,72.1,30.3,71.7,31.2,70.3z"/>
					<path class="st32" d="M34.9,115.7c0.3-0.5,0.2-1.1-0.3-1.4c0,0,0,0,0,0c-0.5-0.3-1.1-0.2-1.4,0.2c0,0,0,0,0,0.1
						c-0.3,0.5-0.2,1.1,0.3,1.4c0,0,0,0,0,0C33.9,116.3,34.5,116.2,34.9,115.7C34.8,115.7,34.9,115.7,34.9,115.7z"/>
					<path class="st33" d="M59.5,132.6c0.4-0.6,0.2-1.5-0.4-1.9c0,0,0,0,0,0c-0.6-0.4-1.5-0.2-1.9,0.4c-0.4,0.6-0.2,1.5,0.4,1.9
						c0,0,0,0,0,0C58.2,133.4,59.1,133.2,59.5,132.6z"/>
					<path class="st34" d="M40.5,57.2c-0.2,0.2-0.1,0.5,0.1,0.7c0,0,0,0,0,0c0.2,0.2,0.6,0.1,0.7-0.2c0.2-0.2,0.1-0.5-0.1-0.7
						c0,0,0,0,0,0C41,56.9,40.7,56.9,40.5,57.2z"/>
					<path class="st35" d="M40.3,14.9c0.6-1,0.3-2.3-0.6-2.9c0,0,0,0,0,0c-1-0.7-2.3-0.4-3,0.6c0,0,0,0,0,0c-0.6,1-0.4,2.3,0.6,2.9
						c0,0,0,0,0,0C38.3,16.2,39.6,15.9,40.3,14.9C40.3,14.9,40.3,14.9,40.3,14.9z"/>
					<path class="st36" d="M5.7,312.7c0.4-0.5,0.2-1.3-0.4-1.6c0,0,0,0,0,0c-0.6-0.4-1.3-0.2-1.7,0.4c-0.4,0.5-0.2,1.3,0.3,1.6
						c0,0,0,0,0,0C4.6,313.5,5.3,313.3,5.7,312.7C5.7,312.7,5.7,312.7,5.7,312.7z"/>
					<path class="st37" d="M58.9,370.9c-0.5,0.8-0.3,1.9,0.5,2.4c0,0,0,0,0,0c0.8,0.5,1.9,0.3,2.4-0.5c0.5-0.8,0.3-1.9-0.5-2.4
						c0,0,0,0,0,0C60.5,369.9,59.5,370.1,58.9,370.9z"/>
					<path class="st31" d="M54.5,282.2c0.6-0.9,0.3-2-0.5-2.5c0,0,0,0,0,0c-0.9-0.6-2-0.3-2.6,0.6c-0.6,0.9-0.3,2,0.5,2.5
						c0,0,0,0,0,0C52.8,283.4,53.9,283.1,54.5,282.2z"/>
					<path class="st38" d="M34.4,189c-0.2,0.3-0.1,0.7,0.2,0.9c0,0,0,0,0,0c0.3,0.2,0.7,0.2,0.9-0.1c0.2-0.3,0.2-0.7-0.1-0.9
						c0,0-0.1-0.1-0.1-0.1C35,188.6,34.6,188.7,34.4,189z"/>
					<path class="st39" d="M25.2,289.3c0.5-0.8,0.3-1.9-0.5-2.5c0,0,0,0-0.1,0c-0.9-0.5-2-0.3-2.5,0.6c-0.5,0.8-0.3,1.9,0.5,2.5
						c0,0,0,0,0,0C23.5,290.4,24.6,290.2,25.2,289.3z"/>
					<path class="st40" d="M86.8,244.5c1.3-1.9,0.7-4.5-1.2-5.7c0,0-0.1,0-0.1-0.1c-2-1.2-4.6-0.7-5.9,1.3c-1.2,1.9-0.7,4.5,1.2,5.8
						c0,0,0.1,0,0.1,0C82.9,247,85.5,246.4,86.8,244.5z"/>
					<path class="st41" d="M41.8-0.1c-0.2,0.3-0.1,0.7,0.2,0.9c0.3,0.2,0.7,0.1,0.9-0.2C43,0.3,43-0.1,42.7-0.3
						C42.4-0.5,42-0.4,41.8-0.1z"/>
					<path class="st42" d="M66.7,217.8c0.1-0.2,0.1-0.5-0.1-0.6c0,0,0,0,0,0c-0.2-0.1-0.5-0.1-0.6,0.1c-0.1,0.2-0.1,0.5,0.1,0.6
						C66.3,218,66.6,218,66.7,217.8z"/>
					<path class="st43" d="M42.5,149.7c0.2-0.4,0.1-0.9-0.2-1.1c0,0,0,0,0,0c-0.4-0.3-0.9-0.1-1.2,0.3c-0.3,0.4-0.1,0.9,0.2,1.1
						c0,0,0,0,0,0C41.7,150.2,42.2,150.1,42.5,149.7z"/>
					<path class="st44" d="M58.8,187.1c0.6-1,0.4-2.3-0.6-2.9c-0.2-0.1-0.3-0.2-0.5-0.2c-0.7-0.2-1.5-0.1-2.1,0.4
						c-0.9,0.8-1,2.1-0.2,3c0.1,0.2,0.3,0.3,0.5,0.4C56.8,188.4,58.1,188.1,58.8,187.1z"/>
					<path class="st45" d="M17.4,121.6c0.7-1,0.4-2.3-0.6-3c0,0,0,0-0.1,0c-1-0.6-2.3-0.3-3,0.7c-0.6,1-0.4,2.3,0.6,3c0,0,0,0,0,0
						C15.4,122.9,16.8,122.6,17.4,121.6z"/>
					<path class="st37" d="M62.9,0.6c-0.1,0-0.2,0-0.2,0.1c-0.1,0.1-0.1,0.2,0,0.2c0,0,0,0,0,0c0.1,0.1,0.2,0.1,0.2,0
						C62.9,0.8,63,0.7,62.9,0.6C62.9,0.6,62.9,0.6,62.9,0.6z"/>
					<path class="st32" d="M389.8,457c-0.5,0.7-0.3,1.7,0.5,2.2c0,0,0,0,0,0c0.8,0.5,1.8,0.3,2.3-0.5c0.5-0.7,0.3-1.7-0.5-2.2
						c0,0,0,0,0,0C391.3,456,390.3,456.2,389.8,457z"/>
					<path class="st42" d="M326.3,504.7c0.4-0.6,0.2-1.4-0.4-1.8c0,0,0,0,0,0c-0.6-0.4-1.5-0.2-1.9,0.4c-0.4,0.6-0.2,1.5,0.4,1.9
						C325,505.5,325.9,505.4,326.3,504.7z"/>
					<path class="st46" d="M405.9,451.9c-0.4,0.6-0.2,1.3,0.3,1.7c0,0,0,0,0,0c0.6,0.4,1.4,0.2,1.7-0.4c0.4-0.6,0.2-1.3-0.4-1.7
						c0,0,0,0,0,0C407.1,451.2,406.3,451.3,405.9,451.9z"/>
					<path class="st47" d="M342.9,438.5c0.5-0.8,0.3-1.8-0.5-2.4c0,0,0,0,0,0c-0.8-0.5-1.9-0.3-2.4,0.5c-0.5,0.8-0.3,1.8,0.5,2.4
						c0,0,0,0,0,0C341.3,439.5,342.4,439.3,342.9,438.5z"/>
					<path class="st48" d="M427.9,435.5c0.7-1.2,0.4-2.7-0.7-3.4c0,0,0,0,0,0c-1.2-0.7-2.7-0.4-3.5,0.8c-0.7,1.1-0.4,2.7,0.7,3.4
						c0,0,0,0,0,0C425.6,437,427.2,436.7,427.9,435.5z"/>
					<path class="st49" d="M405.5,355.3c0.5-0.7,0.3-1.8-0.4-2.3c0,0,0,0,0,0c-0.8-0.5-1.8-0.3-2.3,0.5c-0.5,0.7-0.3,1.8,0.5,2.2
						c0,0,0,0,0,0C404,356.2,405,356,405.5,355.3z"/>
					<path class="st50" d="M429.2,325.7c-0.3,0.5-0.1,1.1,0.3,1.4c0.5,0.3,1.1,0.2,1.4-0.3c0.3-0.5,0.1-1.1-0.3-1.4
						C430.1,325.1,429.5,325.2,429.2,325.7z"/>
					<path class="st51" d="M351.3,347.5c0.4-0.6,0.2-1.4-0.4-1.8c-0.6-0.4-1.4-0.2-1.8,0.4c-0.4,0.6-0.2,1.4,0.4,1.8c0,0,0,0,0,0
						C350.1,348.2,350.9,348.1,351.3,347.5z"/>
					<path class="st52" d="M426.5,394.4c0.7,0.5,1.7,0.3,2.2-0.5c0.5-0.7,0.3-1.7-0.5-2.2c0,0,0,0,0,0c-0.7-0.5-1.7-0.2-2.2,0.5
						C425.6,392.9,425.8,393.9,426.5,394.4C426.5,394.4,426.5,394.4,426.5,394.4z"/>
					<path class="st33" d="M372.7,404c0.5-0.8,0.3-1.8-0.5-2.3c0,0,0,0,0,0c-0.8-0.5-1.8-0.3-2.3,0.5c-0.5,0.7-0.3,1.8,0.5,2.2
						c0,0,0,0,0,0C371.2,405,372.2,404.8,372.7,404z"/>
					<path class="st53" d="M362.8,416.6c0.5-0.8,0.3-1.9-0.5-2.4c0,0,0,0,0,0c-0.8-0.5-1.9-0.3-2.4,0.5c-0.5,0.8-0.3,1.8,0.5,2.4
						c0,0,0,0,0,0C361.2,417.7,362.3,417.4,362.8,416.6z"/>
					<path class="st24" d="M339.1,350c0.3,0.2,0.8,0.1,1-0.2c0.2-0.3,0.1-0.8-0.2-1c0,0,0,0,0,0c-0.3-0.2-0.8-0.1-1,0.2
						C338.7,349.3,338.8,349.8,339.1,350C339.1,350,339.1,350,339.1,350z"/>
					<path class="st54" d="M367.4,421.5c0.2-0.3,0.1-0.7-0.2-0.9c-0.3-0.2-0.7-0.1-0.9,0.2c-0.2,0.3-0.1,0.7,0.2,0.9c0,0,0,0,0,0
						C366.7,421.9,367.2,421.9,367.4,421.5C367.4,421.6,367.4,421.6,367.4,421.5z"/>
					<path class="st53" d="M272.5,351.5c0.4-0.6,0.2-1.4-0.4-1.8c0,0,0,0,0,0c-0.6-0.4-1.4-0.2-1.8,0.4c-0.4,0.6-0.2,1.4,0.4,1.8
						c0,0,0,0,0,0C271.3,352.3,272.1,352.1,272.5,351.5z"/>
					<path class="st22" d="M372.4,433.9c0.8-1.2,0.4-2.8-0.8-3.6c0,0,0,0,0,0c-1.2-0.8-2.8-0.4-3.6,0.8c-0.8,1.2-0.4,2.8,0.7,3.5
						c0,0,0,0,0.1,0C370,435.4,371.6,435.1,372.4,433.9z"/>
					<path class="st49" d="M345.4,349.7c-0.2,0.3-0.1,0.7,0.2,0.9c0,0,0,0,0,0c0.3,0.2,0.7,0.1,0.9-0.2c0.2-0.3,0.1-0.7-0.2-0.9
						c0,0,0,0,0,0C346,349.3,345.6,349.4,345.4,349.7z"/>
					<path class="st46" d="M278.2,428c1.2-1.8,0.7-4.3-1.2-5.5c0,0-0.1,0-0.1-0.1c-1.9-1.2-4.4-0.7-5.7,1.2
						c-1.2,1.8-0.7,4.3,1.2,5.5c0,0,0.1,0,0.1,0.1C274.4,430.4,276.9,429.9,278.2,428z"/>
					<path class="st55" d="M299.8,394.4c0.3-0.5,0.2-1.2-0.3-1.5c0,0,0,0,0,0c-0.5-0.3-1.2-0.2-1.6,0.3c-0.3,0.5-0.2,1.2,0.3,1.5
						c0,0,0,0,0,0C298.7,395.1,299.4,395,299.8,394.4z"/>
					<path class="st56" d="M314,487.9c0.8-1.3,0.5-3-0.8-3.8c0,0,0,0-0.1,0c-1.3-0.8-3.1-0.5-3.9,0.9c-0.8,1.3-0.5,3,0.9,3.9
						c0,0,0,0,0,0C311.4,489.6,313.1,489.2,314,487.9z"/>
					<path class="st57" d="M323.4,463.3c-0.1-0.1-0.2,0-0.3,0.1c-0.1,0.1,0,0.2,0.1,0.3c0.1,0.1,0.2,0,0.3-0.1l0,0
						C323.5,463.5,323.5,463.3,323.4,463.3C323.4,463.3,323.4,463.3,323.4,463.3z"/>
					<path class="st23" d="M356.4,465.2c0.4-0.7,0.2-1.6-0.5-2c-0.7-0.4-1.6-0.2-2.1,0.5c-0.4,0.7-0.2,1.6,0.5,2
						C355,466.1,356,465.9,356.4,465.2z"/>
					<path class="st49" d="M293.1,467.3c0.1-0.1,0-0.3-0.1-0.4c-0.1-0.1-0.3,0-0.4,0.1c-0.1,0.1-0.1,0.3,0.1,0.4c0,0,0,0,0,0
						C292.8,467.5,293,467.4,293.1,467.3z"/>
					<path class="st35" d="M366,505.2c0.3-0.5,0.1-1-0.3-1.3c-0.5-0.3-1.1-0.2-1.4,0.3c-0.3,0.5-0.1,1,0.3,1.3
						C365.1,505.8,365.7,505.7,366,505.2z"/>
					<path class="st58" d="M248,443.5c0.2-0.3,0.2-0.7-0.1-0.9c0,0-0.1,0-0.1-0.1c-0.3-0.2-0.8-0.1-1,0.2c0,0,0,0,0,0
						c-0.2,0.3-0.1,0.7,0.2,0.9c0,0,0,0,0,0C247.3,443.9,247.7,443.8,248,443.5C248,443.5,248,443.5,248,443.5z"/>
					<path class="st52" d="M359.4,496.6c0.3-0.5,0.1-1.1-0.3-1.4c-0.5-0.3-1.1-0.2-1.4,0.3c-0.3,0.5-0.1,1.1,0.3,1.4
						C358.5,497.2,359.1,497,359.4,496.6z"/>
					<path class="st59" d="M242.2,491.8c0.2-0.4,0.1-0.9-0.2-1.1c0,0,0,0,0,0c-0.4-0.2-0.9-0.1-1.1,0.2c0,0,0,0,0,0
						c-0.2,0.4-0.1,0.9,0.2,1.1c0,0,0,0,0,0C241.5,492.2,242,492.1,242.2,491.8z"/>
					<path class="st45" d="M382.5,98.1c-0.5,0.7-0.3,1.7,0.5,2.2c0,0,0,0,0,0c0.8,0.5,1.8,0.3,2.3-0.5c0.5-0.7,0.3-1.7-0.5-2.2
						c0,0,0,0,0,0C384,97.1,382.9,97.3,382.5,98.1z"/>
					<path class="st29" d="M377.2,183.1c0.2-0.4,0.1-0.8-0.2-1.1c0,0,0,0,0,0c-0.4-0.2-0.9-0.1-1.1,0.2c-0.2,0.4-0.1,0.9,0.2,1.1
						C376.5,183.6,377,183.5,377.2,183.1z"/>
					<path class="st60" d="M372,200.4c1.3-1.9,0.7-4.5-1.2-5.8c0,0,0,0-0.1,0c-2-1.2-4.6-0.7-5.9,1.3c-1.3,1.9-0.7,4.5,1.2,5.8
						c0,0,0,0,0.1,0C368.1,202.9,370.7,202.4,372,200.4z"/>
					<path class="st23" d="M414.7,200.5c-0.2,0.3-0.1,0.7,0.2,0.9c0,0,0,0,0,0c0.3,0.2,0.7,0.1,0.9-0.2c0.2-0.3,0.1-0.7-0.2-0.9
						c0,0,0,0,0,0C415.3,200.1,414.9,200.2,414.7,200.5z"/>
					<path class="st61" d="M318.9,145.8c0.4-0.6,0.2-1.5-0.4-1.9c0,0,0,0,0,0c-0.6-0.4-1.5-0.2-1.9,0.4c-0.4,0.6-0.2,1.5,0.4,1.9
						c0,0,0,0,0,0C317.7,146.6,318.5,146.4,318.9,145.8z"/>
					<path class="st53" d="M416.9,187.7c0.3-0.5,0.2-1.2-0.3-1.6c0,0,0,0,0,0c-0.5-0.3-1.2-0.2-1.6,0.3c-0.3,0.5-0.2,1.2,0.3,1.6
						c0,0,0,0,0,0C415.9,188.3,416.6,188.2,416.9,187.7z"/>
					<path class="st44" d="M398.5,93c-0.4,0.6-0.2,1.3,0.4,1.7c0,0,0,0,0,0c0.6,0.4,1.4,0.2,1.7-0.4c0,0,0,0,0,0
						c0.4-0.6,0.2-1.3-0.4-1.7c0,0,0,0,0,0C399.7,92.3,398.9,92.4,398.5,93z"/>
					<path class="st62" d="M424.9,189.6c0.2-0.3,0.1-0.8-0.2-1c-0.3-0.2-0.8-0.1-1,0.2c-0.2,0.3-0.1,0.8,0.2,1
						C424.2,190,424.6,189.9,424.9,189.6z"/>
					<path class="st49" d="M335.5,79.5c0.5-0.8,0.3-1.8-0.5-2.4c0,0,0,0,0,0c-0.8-0.5-1.9-0.3-2.4,0.5c-0.5,0.8-0.3,1.8,0.5,2.4
						c0,0,0,0,0,0C333.9,80.6,335,80.3,335.5,79.5z"/>
					<path class="st63" d="M405.4,156.9c0.2-0.3,0.1-0.8-0.2-1c0,0,0,0,0,0c-0.3-0.2-0.8-0.1-1,0.2c-0.2,0.3-0.1,0.8,0.2,1
						c0,0,0,0,0,0C404.7,157.4,405.2,157.3,405.4,156.9z"/>
					<path class="st22" d="M405.7,41.8c0.7-1.1,0.4-2.7-0.7-3.4c0,0,0,0,0,0c-1.2-0.7-2.7-0.4-3.5,0.8c-0.7,1.2-0.4,2.7,0.7,3.4
						c0,0,0,0,0,0C403.4,43.4,405,43,405.7,41.8z"/>
					<path class="st42" d="M415.7,24.3c0.5-0.7,0.3-1.8-0.5-2.2c0,0,0,0,0,0c-0.8-0.5-1.8-0.3-2.3,0.5c0,0,0,0,0,0
						c-0.5,0.7-0.3,1.8,0.5,2.2c0,0,0,0,0,0C414.2,25.3,415.2,25.1,415.7,24.3z"/>
					<path class="st45" d="M419.1,35.4c0.7,0.5,1.7,0.3,2.2-0.5c0.5-0.7,0.3-1.7-0.5-2.2c0,0,0,0,0,0c-0.7-0.5-1.7-0.3-2.2,0.5
						C418.2,34,418.4,35,419.1,35.4C419.1,35.4,419.1,35.4,419.1,35.4z"/>
					<path class="st26" d="M365.4,45c0.5-0.7,0.3-1.8-0.5-2.2c0,0,0,0,0,0c-0.8-0.5-1.8-0.3-2.3,0.5c-0.5,0.8-0.3,1.8,0.5,2.3
						c0,0,0,0,0,0C363.8,46,364.8,45.8,365.4,45z"/>
					<path class="st61" d="M355.5,57.7c0.5-0.8,0.3-1.9-0.5-2.4c0,0,0,0,0,0c-0.8-0.5-1.9-0.3-2.4,0.5c-0.5,0.8-0.3,1.8,0.5,2.3
						c0,0,0,0,0,0C353.8,58.7,354.9,58.5,355.5,57.7z"/>
					<path class="st61" d="M360,62.6c0.2-0.3,0.1-0.7-0.2-0.9c0,0,0,0,0,0c-0.3-0.2-0.7-0.1-0.9,0.2c0,0,0,0,0,0
						c-0.2,0.3-0.1,0.7,0.2,0.9c0,0,0,0,0,0C359.4,63,359.8,62.9,360,62.6z"/>
					<path class="st23" d="M365,74.9c0.8-1.2,0.4-2.8-0.8-3.5c0,0,0,0,0,0c-1.2-0.8-2.8-0.4-3.6,0.8c-0.8,1.2-0.4,2.8,0.8,3.6
						c0,0,0,0,0,0C362.6,76.5,364.2,76.1,365,74.9z"/>
					<path class="st59" d="M330.6,97.4c1.2-1.8,0.7-4.3-1.2-5.5c0,0-0.1,0-0.1-0.1c-1.9-1.2-4.4-0.7-5.7,1.2
						c-1.2,1.8-0.7,4.3,1.2,5.5c0,0,0.1,0,0.1,0.1C326.8,99.8,329.4,99.3,330.6,97.4z"/>
					<path class="st57" d="M292.4,35.5c0.3-0.5,0.2-1.2-0.3-1.5c0,0,0,0,0,0c-0.5-0.3-1.2-0.2-1.6,0.3c-0.3,0.5-0.2,1.2,0.3,1.5
						c0,0,0,0,0,0C291.4,36.2,292.1,36,292.4,35.5z"/>
					<path class="st38" d="M309,132.6c0.8-1.3,0.5-3-0.9-3.9c0,0,0,0,0,0c-1.3-0.8-3.1-0.4-3.9,0.9c-0.8,1.3-0.5,3,0.9,3.9
						c0,0,0,0,0,0C306.4,134.3,308.2,133.9,309,132.6z"/>
					<path class="st29" d="M316,104.3c-0.1-0.1-0.2,0-0.3,0.1c-0.1,0.1,0,0.2,0.1,0.3c0,0,0,0,0,0c0.1,0.1,0.2,0,0.3-0.1
						C316.1,104.5,316.1,104.4,316,104.3C316,104.3,316,104.3,316,104.3z"/>
					<path class="st60" d="M349,106.3c0.4-0.7,0.2-1.6-0.5-2c0,0,0,0,0,0c-0.7-0.4-1.6-0.2-2.1,0.4c-0.4,0.7-0.2,1.6,0.5,2
						C347.6,107.1,348.5,106.9,349,106.3z"/>
					<path class="st31" d="M285.7,108.4c0.1-0.1,0.1-0.3-0.1-0.4c-0.1-0.1-0.3,0-0.4,0.1c-0.1,0.1-0.1,0.3,0.1,0.4c0,0,0,0,0,0
						C285.4,108.5,285.6,108.5,285.7,108.4z"/>
					<path class="st64" d="M358.6,146.3c0.3-0.5,0.1-1-0.3-1.3c-0.5-0.3-1.1-0.2-1.4,0.3c-0.3,0.5-0.1,1,0.3,1.3
						C357.7,146.8,358.3,146.7,358.6,146.3z"/>
					<path class="st33" d="M327,168.9c0.6-1,0.3-2.3-0.6-2.9c0,0,0,0,0,0c-1-0.6-2.3-0.3-2.9,0.6c-0.6,1-0.4,2.3,0.6,2.9
						c0,0,0,0,0,0C325.1,170.2,326.4,169.9,327,168.9z"/>
					<path class="st28" d="M358.9,259.4c0.2,0.1,0.5,0.1,0.7-0.1c0.1-0.2,0.1-0.5-0.1-0.7c0,0,0,0,0,0c-0.2-0.1-0.5-0.1-0.7,0.1
						C358.6,258.9,358.6,259.2,358.9,259.4C358.8,259.4,358.8,259.4,358.9,259.4z"/>
					<path class="st30" d="M352,137.6c0.3-0.5,0.1-1.1-0.3-1.4c-0.5-0.3-1.1-0.2-1.4,0.3c-0.3,0.5-0.1,1.1,0.3,1.4
						C351.1,138.2,351.7,138.1,352,137.6z"/>
					<path class="st28" d="M288.8,147.6c0.6-1,0.3-2.4-0.7-3c0,0,0,0,0,0c-1-0.6-2.4-0.3-3,0.7c-0.6,1-0.4,2.3,0.6,3c0,0,0,0,0,0
						C286.7,148.9,288.1,148.6,288.8,147.6z"/>
					<path class="st36" d="M289.5,233c0.9-1.4,0.5-3.3-0.9-4.1c0,0,0,0,0,0c-1.4-0.9-3.3-0.5-4.2,0.9c-0.9,1.4-0.5,3.3,0.9,4.1
						c0,0,0,0,0,0C286.7,234.8,288.5,234.4,289.5,233z"/>
					<path class="st56" d="M324.7,266.6c0.3-0.5,0.2-1.1-0.3-1.4c0,0,0,0,0,0c-0.5-0.3-1.1-0.2-1.4,0.3c0,0,0,0,0,0
						c-0.3,0.5-0.2,1.1,0.3,1.4c0,0,0,0,0,0C323.8,267.2,324.4,267.1,324.7,266.6C324.7,266.6,324.7,266.6,324.7,266.6z"/>
					<path class="st59" d="M260.9,293.6c0.3-0.4,0.1-0.9-0.3-1.2c0,0,0,0,0,0c-0.4-0.3-1-0.1-1.2,0.3c-0.3,0.4-0.1,1,0.3,1.2
						c0,0,0,0,0,0C260,294.1,260.6,294,260.9,293.6C260.9,293.6,260.9,293.6,260.9,293.6z"/>
					<path class="st61" d="M301.2,265.2c0.3-0.4,0.1-1-0.3-1.3c-0.5-0.3-1-0.1-1.3,0.3c-0.3,0.4-0.1,1,0.3,1.3
						C300.3,265.8,300.9,265.6,301.2,265.2z"/>
					<path class="st65" d="M373,284.9c0.7-1.1,0.4-2.6-0.7-3.3c0,0,0,0,0,0c-1.1-0.7-2.6-0.4-3.4,0.7c-0.7,1.1-0.4,2.6,0.7,3.3
						c0,0,0,0,0,0C370.8,286.4,372.3,286,373,284.9z"/>
					<path class="st33" d="M292.6,282.9c0.3-0.5,0.2-1.1-0.3-1.4c-0.5-0.3-1.1-0.2-1.4,0.3c0,0,0,0,0,0c-0.3,0.5-0.1,1.1,0.3,1.4
						C291.7,283.5,292.3,283.4,292.6,282.9z"/>
					<path class="st44" d="M398.9,248.7c1.1-1.6,0.6-3.8-1.1-4.9c0,0,0,0,0,0c-1.7-1.1-3.9-0.6-5,1.1c-1.1,1.6-0.6,3.8,1,4.9
						c0,0,0,0,0.1,0C395.5,250.9,397.8,250.4,398.9,248.7z"/>
					<path class="st66" d="M321.4,212.3c-0.3,0.5-0.2,1.2,0.3,1.5c0,0,0,0,0,0c0.5,0.3,1.2,0.2,1.6-0.4c0.3-0.5,0.2-1.2-0.3-1.5
						C322.5,211.6,321.8,211.8,321.4,212.3C321.4,212.3,321.4,212.3,321.4,212.3z"/>
					<path class="st67" d="M343.4,277.3c0.4-0.6,0.2-1.3-0.4-1.7c0,0,0,0,0,0c-0.6-0.4-1.3-0.2-1.7,0.4c-0.4,0.6-0.2,1.3,0.3,1.7
						c0,0,0,0,0,0C342.3,278.1,343.1,277.9,343.4,277.3z"/>
					<path class="st68" d="M339.8,254.4c0.9-1.5,0.5-3.4-1-4.3c0,0,0,0,0,0c-1.5-0.9-3.5-0.5-4.4,1c-0.9,1.5-0.5,3.4,1,4.3
						c0,0,0,0,0,0C336.9,256.3,338.9,255.9,339.8,254.4z"/>
					<path class="st43" d="M327.8,327.6c0.8-1.2,0.4-2.8-0.8-3.6c0,0,0,0,0,0c-1.2-0.8-2.9-0.4-3.7,0.8c-0.8,1.2-0.4,2.8,0.8,3.6
						c0,0,0,0,0,0C325.4,329.2,327,328.8,327.8,327.6z"/>
					<path class="st59" d="M421.9,303.7c0.4-0.6,0.2-1.3-0.4-1.6c0,0,0,0,0,0c-0.6-0.4-1.3-0.2-1.7,0.4c-0.4,0.6-0.2,1.3,0.3,1.6
						c0,0,0,0,0,0C420.8,304.4,421.5,304.2,421.9,303.7z"/>
					<path class="st37" d="M428.1,384.5c0.4-0.6,0.2-1.4-0.4-1.8c0,0,0,0,0,0c-0.6-0.4-1.5-0.2-1.9,0.4c-0.4,0.6-0.2,1.4,0.4,1.8
						c0,0,0,0,0,0C426.9,385.3,427.7,385.1,428.1,384.5C428.1,384.5,428.1,384.5,428.1,384.5z"/>
					<path class="st67" d="M420.1,316.8c0.9,0.6,2.1,0.3,2.6-0.6c0.6-0.9,0.3-2-0.6-2.6c0,0,0,0,0,0c-0.9-0.6-2.1-0.3-2.6,0.6
						C418.9,315,419.2,316.2,420.1,316.8C420,316.8,420.1,316.8,420.1,316.8z"/>
					<path class="st25" d="M388.4,317.4c0.6-1,0.4-2.3-0.6-3c0,0,0,0,0,0c-1-0.6-2.3-0.3-3,0.7c-0.6,1-0.4,2.3,0.6,3c0,0,0,0,0.1,0
						C386.4,318.7,387.7,318.4,388.4,317.4z"/>
					<path class="st37" d="M432.1,158.1c1.3-1.9,0.7-4.5-1.2-5.7c0,0-0.1,0-0.1-0.1c-2-1.3-4.6-0.7-5.9,1.3
						c-1.2,1.9-0.7,4.5,1.3,5.8c0,0,0,0,0.1,0C428.2,160.6,430.8,160,432.1,158.1z"/>
					<path class="st31" d="M380.3,166.3c-0.6,0.9-0.3,2.1,0.6,2.7c0,0,0,0,0,0c0.9,0.6,2.1,0.3,2.7-0.6c0.6-0.9,0.3-2.1-0.6-2.7
						c0,0,0,0,0,0C382.1,165.1,380.9,165.4,380.3,166.3z"/>
					<path class="st65" d="M158.9,2.7c0.5-0.7,0.3-1.7-0.5-2.2c0,0,0,0,0,0c-0.8-0.5-1.8-0.3-2.3,0.5c-0.5,0.7-0.3,1.7,0.5,2.2
						c0,0,0,0,0,0C157.4,3.7,158.4,3.5,158.9,2.7z"/>
					<path class="st69" d="M142.9,7.8c0.4-0.6,0.2-1.3-0.4-1.7c0,0,0,0,0,0c-0.6-0.4-1.4-0.2-1.7,0.4c-0.4,0.6-0.2,1.3,0.4,1.7
						c0,0,0,0,0,0C141.7,8.6,142.5,8.4,142.9,7.8z"/>
					<path class="st70" d="M205.9,21.3c-0.5,0.8-0.3,1.9,0.5,2.4c0,0,0,0,0,0c0.8,0.5,1.9,0.3,2.4-0.5c0.5-0.8,0.3-1.8-0.5-2.4
						c0,0,0,0,0,0C207.5,20.2,206.4,20.5,205.9,21.3z"/>
					<path class="st29" d="M83.2,32.3c-0.9,1.4-0.5,3.2,0.9,4.2c0,0,0,0,0.1,0c1.4,0.9,3.3,0.5,4.3-0.9c0.9-1.4,0.5-3.2-0.9-4.2
						c0,0,0,0-0.1,0C86,30.4,84.1,30.8,83.2,32.3z"/>
					<path class="st22" d="M67.7,43.6c0.2-0.2,0.1-0.5-0.1-0.7c0,0,0,0,0,0c-0.2-0.2-0.6-0.1-0.7,0.1c0,0,0,0,0,0
						c-0.2,0.2-0.1,0.5,0.1,0.7c0,0,0,0,0,0C67.2,43.9,67.5,43.8,67.7,43.6z"/>
					<path class="st71" d="M135.7,58.9c-0.7,1.1-0.4,2.7,0.7,3.4c0,0,0,0,0.1,0c1.2,0.8,2.7,0.4,3.5-0.8c0.7-1.2,0.4-2.7-0.7-3.4
						c0,0,0,0,0,0C138,57.4,136.4,57.8,135.7,58.9z"/>
					<path class="st52" d="M13,96.8c-0.3,0.4-0.1,1,0.3,1.2c0.4,0.3,1,0.1,1.3-0.3c0.3-0.4,0.2-1-0.3-1.2c0,0,0,0,0,0
						C13.8,96.2,13.3,96.4,13,96.8z"/>
					<path class="st52" d="M8.8,70.8c-0.5,0.7-0.3,1.6,0.4,2.1c0,0,0,0,0,0c0.7,0.5,1.7,0.3,2.2-0.5c0.5-0.7,0.3-1.6-0.4-2.1
						c0,0,0,0,0,0C10.3,69.8,9.3,70.1,8.8,70.8L8.8,70.8z"/>
					<path class="st50" d="M67.9,85.9c-0.6,1-0.4,2.3,0.6,2.9c0,0,0,0,0,0c1,0.6,2.4,0.4,3-0.6c0,0,0,0,0,0c0.6-1,0.3-2.3-0.6-2.9
						c0,0,0,0,0,0C69.9,84.6,68.6,84.9,67.9,85.9C67.9,85.9,67.9,85.9,67.9,85.9z"/>
					<path class="st46" d="M125.7,76.5c-0.5,0.8-0.3,1.8,0.5,2.3c0,0,0,0,0,0c0.8,0.5,1.8,0.3,2.3-0.5c0.5-0.8,0.3-1.8-0.5-2.3
						c0,0,0,0,0,0C127.2,75.5,126.1,75.7,125.7,76.5z"/>
					<path class="st51" d="M119.6,134c0.3-0.5,0.2-1.1-0.3-1.4c-0.5-0.3-1.1-0.2-1.4,0.3c0,0,0,0,0,0c-0.3,0.5-0.2,1.1,0.3,1.4
						C118.7,134.6,119.3,134.5,119.6,134z"/>
					<path class="st65" d="M197.4,112.3c-0.4,0.6-0.2,1.4,0.4,1.8c0,0,0,0,0,0c0.6,0.4,1.4,0.2,1.8-0.4c0.4-0.6,0.2-1.4-0.4-1.8
						c0,0,0,0,0,0C198.7,111.5,197.8,111.7,197.4,112.3z"/>
					<path class="st24" d="M122.3,65.4c-0.7-0.5-1.7-0.3-2.2,0.5c-0.5,0.7-0.3,1.7,0.5,2.2c0,0,0,0,0,0c0.7,0.5,1.7,0.3,2.2-0.5
						C123.2,66.8,123,65.8,122.3,65.4z"/>
					<path class="st50" d="M176,55.8c-0.5,0.7-0.3,1.7,0.5,2.2c0,0,0,0,0,0c0.8,0.5,1.8,0.3,2.3-0.5c0.5-0.8,0.3-1.8-0.5-2.3
						c0,0,0,0,0,0C177.5,54.8,176.5,55,176,55.8z"/>
					<path class="st72" d="M185.9,43.1c-0.5,0.8-0.3,1.9,0.5,2.4c0,0,0,0,0,0c0.8,0.5,1.9,0.3,2.4-0.5c0.5-0.8,0.3-1.9-0.5-2.4
						c0,0,0,0,0,0C187.5,42,186.5,42.3,185.9,43.1z"/>
					<path class="st22" d="M209.6,109.7c-0.3-0.2-0.8-0.1-1,0.2c-0.2,0.3-0.1,0.8,0.2,1c0.3,0.2,0.8,0.1,1-0.2
						C210.1,110.4,210,109.9,209.6,109.7z"/>
					<path class="st65" d="M181.4,38.2c-0.2,0.3-0.1,0.7,0.2,0.9c0,0,0,0,0,0c0.3,0.2,0.7,0.1,0.9-0.2c0,0,0,0,0,0
						c0.2-0.3,0.1-0.7-0.2-0.9c0,0,0,0,0,0C182,37.8,181.6,37.9,181.4,38.2C181.4,38.2,181.4,38.2,181.4,38.2z"/>
					<path class="st42" d="M276.3,108.2c-0.4,0.6-0.2,1.4,0.4,1.8c0,0,0,0,0,0c0.6,0.4,1.4,0.2,1.8-0.4c0.4-0.6,0.2-1.4-0.4-1.8
						c0,0,0,0,0,0C277.5,107.5,276.7,107.6,276.3,108.2z"/>
					<path class="st39" d="M176.4,25.9c-0.8,1.2-0.4,2.8,0.8,3.5c0,0,0,0,0,0c1.2,0.8,2.8,0.4,3.6-0.8c0.8-1.2,0.4-2.8-0.8-3.5
						c0,0,0,0,0,0C178.7,24.3,177.1,24.6,176.4,25.9z"/>
					<path class="st73" d="M203.4,110.1c0.2-0.3,0.1-0.7-0.2-0.9c0,0,0,0,0,0c-0.3-0.2-0.7-0.1-0.9,0.2c-0.2,0.3-0.1,0.7,0.2,0.9
						C202.8,110.4,203.2,110.4,203.4,110.1z"/>
					<path class="st69" d="M270.6,31.7c-1.2,1.8-0.7,4.3,1.2,5.5c0,0,0.1,0,0.1,0.1c1.9,1.2,4.4,0.7,5.7-1.2
						c1.2-1.8,0.7-4.3-1.1-5.5c0,0-0.1,0-0.1-0.1C274.4,29.3,271.9,29.8,270.6,31.7z"/>
					<path class="st72" d="M249,65.3c-0.3,0.5-0.2,1.2,0.3,1.5c0,0,0,0,0,0c0.5,0.3,1.2,0.2,1.6-0.3c0.3-0.5,0.2-1.2-0.3-1.5
						c0,0,0,0,0,0C250.1,64.6,249.3,64.7,249,65.3C249,65.3,249,65.3,249,65.3z"/>
					<path class="st69" d="M300.8,16.3c-0.2,0.3-0.1,0.8,0.2,1c0.3,0.2,0.8,0.1,1-0.2c0.2-0.3,0.1-0.7-0.2-0.9c0,0,0,0,0,0
						C301.5,15.8,301,15.9,300.8,16.3C300.8,16.2,300.8,16.2,300.8,16.3z"/>
					<path class="st23" d="M45.3,100.2c0.1,0.1,0.2,0.1,0.2,0c0.1-0.1,0.1-0.2,0-0.2c-0.1,0-0.2,0-0.2,0.1
						C45.3,100.1,45.3,100.2,45.3,100.2z"/>
					<path class="st22" d="M36.8,26.7c0.3-0.4,0.2-1-0.3-1.2c0,0,0,0,0,0c-0.4-0.3-1-0.1-1.3,0.3c-0.3,0.4-0.2,1,0.3,1.2
						c0,0,0,0,0,0C36,27.3,36.6,27.1,36.8,26.7z"/>
					<path class="st58" d="M166.3,361.7c0.5-0.7,0.3-1.7-0.5-2.2c0,0,0,0,0,0c-0.8-0.5-1.8-0.3-2.3,0.5c-0.5,0.7-0.3,1.7,0.5,2.2
						c0,0,0,0,0,0C164.8,362.7,165.8,362.4,166.3,361.7z"/>
					<path class="st46" d="M171.6,276.6c-0.2,0.4-0.1,0.8,0.2,1.1c0,0,0,0,0,0c0.4,0.2,0.9,0.1,1.1-0.2c0.2-0.4,0.1-0.9-0.3-1.1
						C172.2,276.2,171.8,276.3,171.6,276.6z"/>
					<path class="st72" d="M130.4,210.7c-1.3,1.9-0.7,4.5,1.2,5.8c0,0,0,0,0.1,0c2,1.2,4.6,0.7,5.9-1.3c1.3-1.9,0.7-4.5-1.2-5.8
						c0,0,0,0-0.1,0C134.3,208.1,131.7,208.7,130.4,210.7z"/>
					<path class="st47" d="M134,259.2c0.2-0.3,0.1-0.7-0.2-0.9c0,0,0,0,0,0c-0.3-0.2-0.7-0.1-0.9,0.2c-0.2,0.3-0.1,0.7,0.2,0.9
						c0,0,0,0,0,0C133.4,259.6,133.8,259.5,134,259.2z"/>
					<path class="st55" d="M229.9,313.9c-0.4,0.6-0.2,1.5,0.4,1.9c0,0,0,0,0,0c0.6,0.4,1.5,0.2,1.9-0.4c0.4-0.6,0.2-1.5-0.4-1.9
						c0,0,0,0,0,0C231.1,313.1,230.3,313.3,229.9,313.9z"/>
					<path class="st46" d="M131.9,272.1c-0.3,0.5-0.2,1.2,0.3,1.6c0,0,0,0,0,0c0.5,0.3,1.2,0.2,1.6-0.4c0.3-0.5,0.2-1.2-0.3-1.6
						c0,0,0,0,0,0C132.9,271.4,132.2,271.5,131.9,272.1z"/>
					<path class="st74" d="M150.3,366.8c0.4-0.6,0.2-1.3-0.4-1.7c0,0,0,0,0,0c-0.6-0.4-1.4-0.2-1.7,0.4c-0.4,0.6-0.2,1.3,0.4,1.7
						c0,0,0,0,0,0C149.1,367.5,149.9,367.3,150.3,366.8z"/>
					<path class="st54" d="M123.9,270.1c-0.2,0.3-0.1,0.8,0.2,1c0.3,0.2,0.8,0.1,1-0.2c0.2-0.3,0.1-0.8-0.2-1
						C124.6,269.7,124.2,269.8,123.9,270.1z"/>
					<path class="st75" d="M71.2,284.8c-0.2,0.3-0.1,0.6,0.2,0.8c0,0,0,0,0,0c0.3,0.2,0.6,0.1,0.8-0.2c0.2-0.3,0.1-0.6-0.2-0.8
						c0,0,0,0,0,0C71.7,284.5,71.4,284.6,71.2,284.8z"/>
					<path class="st72" d="M213.3,380.2c-0.5,0.8-0.3,1.9,0.5,2.4c0,0,0,0,0,0c0.8,0.5,1.9,0.3,2.4-0.5c0.5-0.8,0.3-1.9-0.5-2.4
						C214.8,379.2,213.8,379.4,213.3,380.2z"/>
					<path class="st25" d="M90.6,391.2c-0.9,1.4-0.5,3.2,0.9,4.2c0,0,0,0,0.1,0c1.4,0.9,3.3,0.5,4.3-0.9c0.9-1.4,0.5-3.2-0.9-4.2
						c0,0,0,0-0.1,0C93.4,389.4,91.5,389.8,90.6,391.2z"/>
					<path class="st31" d="M80.7,344.1c-0.3,0.5-0.2,1.1,0.3,1.4c0,0,0,0,0,0c0.5,0.3,1.1,0.2,1.4-0.3c0.3-0.5,0.2-1.1-0.3-1.4
						c0,0,0,0,0,0C81.7,343.4,81,343.6,80.7,344.1C80.7,344,80.7,344.1,80.7,344.1z"/>
					<path class="st76" d="M143.4,302.8c-0.2,0.3-0.1,0.8,0.2,1c0,0,0,0,0,0c0.3,0.2,0.8,0.1,1-0.2c0.2-0.3,0.1-0.8-0.2-1
						c0,0,0,0,0,0C144.1,302.4,143.6,302.5,143.4,302.8z"/>
					<path class="st52" d="M56.1,327.1c-0.4,0.6-0.2,1.5,0.4,1.9c0,0,0,0,0,0c0.6,0.4,1.5,0.2,1.9-0.4c0.4-0.6,0.2-1.5-0.4-1.9
						c0,0,0,0,0,0C57.3,326.3,56.5,326.5,56.1,327.1z"/>
					<path class="st74" d="M75.1,402.5c0.1-0.2,0.1-0.6-0.2-0.7c-0.2-0.1-0.6-0.1-0.7,0.2c-0.2,0.2-0.1,0.5,0.1,0.7c0,0,0,0,0,0
						C74.6,402.9,74.9,402.8,75.1,402.5z"/>
					<path class="st72" d="M143.1,417.9c-0.7,1.1-0.4,2.7,0.7,3.4c0,0,0,0,0.1,0c1.2,0.7,2.7,0.4,3.5-0.8c0.7-1.1,0.4-2.7-0.7-3.4
						c0,0,0,0-0.1,0C145.4,416.4,143.8,416.7,143.1,417.9z"/>
					<path class="st47" d="M20.4,455.7c-0.3,0.4-0.1,1,0.3,1.2c0,0,0,0,0,0c0.4,0.3,1,0.1,1.3-0.3c0.3-0.4,0.1-1-0.3-1.2
						c0,0,0,0,0,0C21.2,455.2,20.6,455.3,20.4,455.7z"/>
					<path class="st64" d="M16.2,429.7c-0.5,0.7-0.2,1.7,0.5,2.1c0,0,0,0,0,0c0.7,0.5,1.7,0.2,2.2-0.5c0.5-0.7,0.3-1.6-0.4-2.1
						c0,0,0,0,0,0C17.6,428.8,16.7,429,16.2,429.7z"/>
					<path class="st70" d="M75.3,444.8c-0.6,1-0.4,2.3,0.6,2.9c0,0,0,0,0,0c1,0.6,2.3,0.3,2.9-0.6c0.6-1,0.4-2.3-0.6-2.9
						c0,0,0,0,0,0C77.2,443.6,75.9,443.9,75.3,444.8z"/>
					<path class="st36" d="M133,435.4c-0.5,0.8-0.3,1.8,0.5,2.3c0,0,0,0,0,0c0.8,0.5,1.8,0.3,2.3-0.5c0.5-0.7,0.3-1.8-0.5-2.2
						c0,0,0,0,0,0C134.5,434.5,133.5,434.7,133,435.4z"/>
					<path class="st36" d="M125.3,491.9c-0.3,0.5-0.1,1.1,0.3,1.4c0.5,0.3,1.1,0.2,1.4-0.3c0,0,0,0,0,0c0.3-0.5,0.2-1.1-0.3-1.4
						C126.2,491.3,125.6,491.4,125.3,491.9C125.3,491.9,125.3,491.9,125.3,491.9z"/>
					<path class="st23" d="M204.8,471.2c-0.4,0.6-0.2,1.4,0.4,1.8c0,0,0,0,0,0c0.6,0.4,1.4,0.2,1.8-0.4c0.4-0.6,0.2-1.4-0.4-1.8
						c0,0,0,0,0,0C206,470.4,205.2,470.6,204.8,471.2z"/>
					<path class="st70" d="M129.6,424.3c-0.7-0.5-1.7-0.3-2.2,0.5c-0.5,0.7-0.3,1.7,0.5,2.2c0,0,0,0,0,0c0.7,0.5,1.7,0.3,2.2-0.5
						C130.6,425.8,130.4,424.8,129.6,424.3C129.7,424.3,129.7,424.3,129.6,424.3z"/>
					<path class="st26" d="M183.4,414.7c-0.5,0.8-0.3,1.8,0.5,2.3c0,0,0,0,0,0c0.8,0.5,1.8,0.3,2.3-0.5c0.5-0.7,0.3-1.8-0.5-2.2
						c0,0,0,0,0,0C185,413.7,183.9,413.9,183.4,414.7z"/>
					<path class="st39" d="M193.3,402c-0.5,0.8-0.3,1.8,0.5,2.4c0,0,0,0,0,0c0.8,0.5,1.9,0.3,2.4-0.5c0.5-0.8,0.3-1.9-0.5-2.4
						c0,0,0,0,0,0C194.9,401,193.9,401.2,193.3,402z"/>
					<path class="st71" d="M217,468.6c-0.3-0.2-0.8-0.1-1,0.2c-0.2,0.3-0.1,0.8,0.2,1c0,0,0,0,0,0c0.3,0.2,0.8,0.1,1-0.2
						C217.4,469.3,217.3,468.9,217,468.6C217,468.6,217,468.6,217,468.6z"/>
					<path class="st74" d="M188.8,397.1c-0.2,0.3-0.1,0.7,0.2,0.9c0,0,0,0,0,0c0.3,0.2,0.7,0.1,0.9-0.2c0.2-0.3,0.1-0.7-0.2-0.9
						c0,0,0,0,0,0C189.4,396.7,189,396.8,188.8,397.1z"/>
					<path class="st50" d="M285,503.1c-0.4,0.6-0.2,1.4,0.4,1.8c0,0,0,0,0,0c0.6,0.4,1.4,0.2,1.8-0.4c0.4-0.6,0.2-1.4-0.4-1.8
						c0,0,0,0,0,0C286.2,502.3,285.4,502.5,285,503.1z"/>
					<path class="st62" d="M187.6,380.4c-0.8,1.2-0.4,2.8,0.8,3.5c0,0,0,0,0,0c1.2,0.8,2.8,0.4,3.6-0.8c0.8-1.2,0.4-2.8-0.8-3.6
						c0,0,0,0,0,0C190,378.8,188.4,379.2,187.6,380.4z"/>
					<path class="st70" d="M210.8,469c0.2-0.3,0.1-0.7-0.2-0.9c0,0,0,0,0,0c-0.3-0.2-0.7-0.1-0.9,0.2s-0.1,0.7,0.2,0.9
						C210.2,469.4,210.6,469.3,210.8,469z"/>
					<path class="st53" d="M218.2,362.3c-1.2,1.8-0.7,4.3,1.1,5.5c0,0,0.1,0,0.1,0.1c1.9,1.2,4.4,0.6,5.7-1.2
						c1.2-1.8,0.7-4.3-1.1-5.5c0,0-0.1,0-0.1-0.1C221.9,359.9,219.4,360.4,218.2,362.3z"/>
					<path class="st70" d="M256.4,424.2c-0.3,0.5-0.2,1.2,0.3,1.5c0,0,0,0,0,0c0.5,0.3,1.2,0.2,1.6-0.3c0.3-0.5,0.2-1.2-0.3-1.5
						c0,0,0,0,0,0C257.4,423.5,256.7,423.7,256.4,424.2C256.4,424.2,256.4,424.2,256.4,424.2z"/>
					<path class="st69" d="M223.1,347.7c-0.8,1.3-0.5,3,0.8,3.8c0,0,0,0,0,0c1.3,0.8,3.1,0.4,3.9-0.9c0.8-1.3,0.5-3-0.8-3.8
						c0,0,0,0-0.1,0C225.7,346,223.9,346.4,223.1,347.7z"/>
					<path class="st70" d="M232.8,355.4c0.1,0.1,0.2,0,0.3-0.1c0.1-0.1,0-0.2,0-0.3c0,0,0,0,0,0c-0.1-0.1-0.2,0-0.3,0.1
						C232.6,355.2,232.6,355.3,232.8,355.4C232.7,355.4,232.7,355.4,232.8,355.4z"/>
					<path class="st77" d="M198.9,349.8c-0.4,0.7-0.2,1.6,0.5,2c0.7,0.4,1.6,0.2,2.1-0.5c0.4-0.7,0.2-1.6-0.5-2
						C200.2,348.9,199.3,349.1,198.9,349.8z"/>
					<path class="st27" d="M263.1,351.4c-0.1,0.1-0.1,0.3,0.1,0.4c0,0,0,0,0,0c0.1,0.1,0.3,0,0.4-0.1c0.1-0.1,0.1-0.3-0.1-0.4
						c0,0,0,0,0,0C263.4,351.2,263.2,351.2,263.1,351.4z"/>
					<path class="st37" d="M190.2,313.5c-0.3,0.5-0.1,1.1,0.3,1.4c0.5,0.3,1.1,0.2,1.4-0.3c0.3-0.5,0.1-1.1-0.3-1.4
						C191.1,312.9,190.5,313,190.2,313.5z"/>
					<path class="st28" d="M221.8,290.8c-0.6,1-0.3,2.3,0.6,2.9c0,0,0,0,0,0c1,0.6,2.3,0.3,2.9-0.6c0.6-1,0.3-2.3-0.6-2.9
						c0,0,0,0,0,0C223.8,289.6,222.5,289.9,221.8,290.8z"/>
					<path class="st67" d="M189.9,200.4c-0.2-0.1-0.5-0.1-0.7,0.1c0,0,0,0,0,0c-0.1,0.2-0.1,0.5,0.1,0.7c0,0,0,0,0,0
						c0.2,0.1,0.5,0.1,0.7-0.1C190.2,200.8,190.1,200.5,189.9,200.4z"/>
					<path class="st42" d="M196.8,322.1c-0.3,0.5-0.1,1.1,0.3,1.4c0.5,0.3,1.1,0.2,1.4-0.3c0.3-0.5,0.1-1.1-0.3-1.4
						C197.7,321.5,197.1,321.6,196.8,322.1z"/>
					<path class="st57" d="M260,312.1c-0.6,1-0.4,2.3,0.7,3c0,0,0,0,0,0c1,0.7,2.4,0.4,3-0.6c0.6-1,0.3-2.4-0.7-3c0,0,0,0,0,0
						C262,310.8,260.7,311.1,260,312.1z"/>
					<path class="st60" d="M259.3,226.7c-0.9,1.4-0.5,3.3,0.9,4.1c0,0,0,0,0,0c1.4,0.9,3.3,0.5,4.2-0.9c0.9-1.4,0.5-3.3-0.9-4.1
						c0,0,0,0,0,0C262.1,224.9,260.2,225.3,259.3,226.7z"/>
					<path class="st27" d="M224.1,193.1c-0.3,0.5-0.2,1.1,0.3,1.4c0,0,0,0,0,0c0.5,0.3,1.1,0.2,1.4-0.3c0.3-0.5,0.2-1.1-0.3-1.4
						c0,0,0,0,0,0C225,192.5,224.4,192.6,224.1,193.1C224.1,193.1,224.1,193.1,224.1,193.1z"/>
					<path class="st46" d="M287.9,166.1c-0.3,0.4-0.1,1,0.3,1.2c0,0,0,0,0,0c0.4,0.3,1,0.1,1.2-0.3c0.3-0.4,0.1-1-0.3-1.2
						c0,0,0,0,0,0C288.7,165.6,288.2,165.7,287.9,166.1z"/>
					<path class="st58" d="M247.6,194.5c-0.3,0.5-0.1,1,0.3,1.3c0.5,0.3,1,0.1,1.3-0.3c0.3-0.5,0.1-1-0.3-1.3
						C248.5,194,247.9,194.1,247.6,194.5z"/>
					<path class="st77" d="M181.3,179c-0.7,1.1-0.4,2.6,0.7,3.3c0,0,0,0,0,0c1.1,0.7,2.6,0.4,3.4-0.7c0.7-1.1,0.4-2.6-0.7-3.3
						c0,0,0,0,0,0C183.6,177.5,182.1,177.9,181.3,179z"/>
					<path class="st60" d="M256.2,176.8c-0.3,0.5-0.1,1.1,0.3,1.4c0.5,0.3,1.1,0.2,1.4-0.3c0.3-0.5,0.1-1.1-0.3-1.4
						C257.1,176.2,256.5,176.4,256.2,176.8z"/>
					<path class="st29" d="M157.8,181.9c-1.1,1.6-0.6,3.8,1.1,4.9c0,0,0,0,0,0c1.7,1.1,3.9,0.6,5-1.1c1.1-1.6,0.6-3.8-1-4.9
						c0,0,0,0-0.1,0C161.1,179.8,158.9,180.2,157.8,181.9z"/>
					<path class="st34" d="M227.4,247.4c0.3-0.5,0.2-1.2-0.3-1.5c0,0,0,0,0,0c-0.5-0.3-1.2-0.2-1.6,0.3c-0.3,0.5-0.2,1.2,0.3,1.5
						c0,0,0,0,0,0C226.4,248.1,227,247.9,227.4,247.4z"/>
					<path class="st34" d="M202.9,187.1c-0.4,0.6-0.2,1.3,0.4,1.7c0,0,0,0,0,0c0.6,0.4,1.3,0.2,1.7-0.4c0.4-0.6,0.2-1.3-0.3-1.7
						c0,0,0,0,0,0C204,186.3,203.2,186.5,202.9,187.1z"/>
					<path class="st44" d="M193.9,236.9c-0.9,1.5-0.5,3.4,1,4.3c0,0,0,0,0,0c1.5,0.9,3.4,0.5,4.4-1c0.9-1.5,0.5-3.4-1-4.3
						c0,0,0,0,0,0C196.8,235,194.9,235.5,193.9,236.9z"/>
					<path class="st44" d="M221,132.1c-0.8,1.2-0.4,2.8,0.8,3.6c0,0,0,0,0,0c1.2,0.8,2.9,0.4,3.7-0.8c0.8-1.2,0.4-2.8-0.8-3.6
						c0,0,0,0,0,0C223.4,130.5,221.8,130.9,221,132.1z"/>
					<path class="st28" d="M126.9,156c-0.4,0.6-0.2,1.3,0.4,1.6c0,0,0,0,0,0c0.6,0.4,1.3,0.2,1.7-0.4c0.4-0.6,0.2-1.3-0.4-1.6
						c0,0,0,0,0,0C128,155.3,127.3,155.4,126.9,156z"/>
					<path class="st29" d="M120.7,75.3c-0.4,0.6-0.2,1.4,0.4,1.8c0,0,0,0,0,0c0.6,0.4,1.5,0.2,1.9-0.4c0.4-0.6,0.2-1.5-0.4-1.9
						C121.9,74.4,121.1,74.6,120.7,75.3z"/>
					<path class="st54" d="M56.6,88.8c0.5-0.8,0.3-1.9-0.5-2.4c0,0,0,0,0,0c-0.8-0.5-1.9-0.3-2.4,0.5c-0.5,0.8-0.3,1.9,0.5,2.4
						c0,0,0,0,0,0C55,89.8,56.1,89.6,56.6,88.8z"/>
					<path class="st70" d="M70.8,137.9c-0.6,0.9-0.3,2,0.6,2.6c0,0,0,0,0,0c0.9,0.6,2,0.3,2.6-0.6c0.6-0.9,0.3-2-0.6-2.6
						c0,0,0,0,0,0C72.5,136.8,71.4,137,70.8,137.9z"/>
					<path class="st31" d="M128.7,143c-0.9-0.6-2.1-0.3-2.7,0.6c-0.6,0.9-0.3,2,0.6,2.6c0,0,0,0,0,0c0.9,0.6,2.1,0.3,2.7-0.6
						C129.9,144.7,129.6,143.6,128.7,143C128.7,143,128.7,143,128.7,143z"/>
					<path class="st28" d="M162.6,150.3c-0.7,1-0.4,2.3,0.6,3c0,0,0,0,0.1,0c1,0.6,2.3,0.3,3-0.7c0.6-1,0.4-2.3-0.6-3c0,0,0,0-0.1,0
						C164.6,149,163.2,149.3,162.6,150.3z"/>
					<path class="st76" d="M81.2,270.8c0.2-0.3,0.1-0.7-0.2-0.9c0,0,0,0,0,0c-0.3-0.2-0.7-0.1-0.9,0.2c-0.2,0.3-0.1,0.7,0.2,0.9
						C80.6,271.1,81,271.1,81.2,270.8z"/>
					<path class="st53" d="M90.4,170.4c-0.5,0.8-0.3,2,0.6,2.5c0,0,0,0,0,0c0.9,0.5,2,0.3,2.6-0.6c0.5-0.8,0.3-2-0.6-2.5
						c0,0,0,0,0,0C92.1,169.3,90.9,169.6,90.4,170.4z"/>
					<path class="st51" d="M164.2,465.7c-0.2,0.4-0.1,0.8,0.2,1.1c0,0,0,0,0,0c0.4,0.2,0.9,0.1,1.1-0.2c0,0,0,0,0,0
						c0.2-0.4,0.1-0.8-0.2-1.1c0,0,0,0,0,0C164.9,465.2,164.4,465.3,164.2,465.7z"/>
					<path class="st72" d="M116.7,301.6c-1.2,1.9-0.7,4.5,1.2,5.8c0,0,0.1,0,0.1,0c2,1.3,4.6,0.7,5.9-1.3c1.3-1.9,0.7-4.5-1.2-5.8
						c0,0,0,0-0.1,0C120.6,299.1,118,299.7,116.7,301.6z"/>
					<path class="st34" d="M222.5,503c-0.4,0.6-0.2,1.5,0.4,1.9c0,0,0,0,0,0c0.6,0.4,1.5,0.2,1.9-0.4c0.4-0.6,0.2-1.5-0.4-1.9
						c0,0,0,0,0,0C223.7,502.2,222.9,502.4,222.5,503z"/>
					<path class="st52" d="M124.5,461.1c-0.3,0.5-0.2,1.2,0.3,1.6c0,0,0,0,0,0c0.5,0.3,1.2,0.2,1.6-0.3c0.3-0.5,0.2-1.2-0.3-1.6
						c0,0,0,0,0,0C125.5,460.5,124.8,460.6,124.5,461.1z"/>
					<path class="st26" d="M116.5,459.2c-0.2,0.3-0.1,0.8,0.2,1c0.3,0.2,0.8,0.1,1-0.2c0.2-0.3,0.1-0.8-0.2-1
						C117.2,458.8,116.8,458.9,116.5,459.2z"/>
					<path class="st52" d="M63.8,473.9c-0.2,0.3-0.1,0.6,0.2,0.8c0.3,0.2,0.6,0.1,0.8-0.2c0.2-0.3,0.1-0.6-0.2-0.8c0,0,0,0,0,0
						C64.4,473.6,64,473.6,63.8,473.9C63.8,473.9,63.8,473.9,63.8,473.9z"/>
					<path class="st36" d="M136,491.9c-0.2,0.3-0.1,0.8,0.2,1c0.3,0.2,0.8,0.1,1-0.2c0.2-0.3,0.1-0.8-0.2-1c0,0,0,0,0,0
						C136.7,491.4,136.2,491.5,136,491.9z"/>
					<path class="st76" d="M182.8,502.6c-0.3,0.5-0.1,1,0.3,1.3c0.5,0.3,1.1,0.2,1.4-0.3c0.3-0.5,0.1-1.1-0.3-1.4
						C183.7,502,183.1,502.1,182.8,502.6z"/>
					<path class="st51" d="M214.4,479.9c-0.6,1-0.3,2.3,0.6,2.9c0,0,0,0,0,0c1,0.6,2.3,0.3,2.9-0.6c0.6-1,0.4-2.3-0.6-2.9
						c0,0,0,0,0,0C216.4,478.7,215.1,479,214.4,479.9z"/>
					<path class="st59" d="M189.4,511.2c-0.3,0.5-0.2,1.1,0.3,1.4c0.5,0.3,1.1,0.2,1.4-0.3c0.3-0.5,0.2-1.1-0.3-1.4
						C190.3,510.6,189.7,510.7,189.4,511.2z"/>
					<path class="st58" d="M259.1,469.4c-0.6,1-0.3,2.4,0.7,3c0,0,0,0,0,0c1,0.6,2.4,0.3,3-0.7c0.6-1,0.3-2.4-0.7-3c0,0,0,0,0,0
						C261.1,468.1,259.8,468.4,259.1,469.4z"/>
					<path class="st69" d="M73.8,459.9c0.2-0.3,0.1-0.7-0.2-0.9c0,0,0,0,0,0c-0.3-0.2-0.7-0.1-0.9,0.2c-0.2,0.3-0.1,0.7,0.2,0.9
						c0,0,0,0,0,0C73.2,460.2,73.6,460.2,73.8,459.9z"/>
					<path class="st50" d="M161.1,482.5c0.6-0.9,0.3-2.1-0.6-2.7c-0.9-0.6-2.2-0.3-2.8,0.6c-0.6,0.9-0.3,2.1,0.6,2.7c0,0,0,0,0,0
						C159.3,483.7,160.5,483.4,161.1,482.5z"/>
					<path class="st38" d="M65.7,499.1c-0.2,0.4-0.1,0.9,0.2,1.1c0,0,0,0,0,0c0.4,0.2,0.9,0.1,1.2-0.3c0.2-0.4,0.1-0.9-0.2-1.1
						c0,0,0,0,0,0C66.5,498.6,65.9,498.7,65.7,499.1z"/>
					<path class="st52" d="M44.1,508.4c-0.6,1-0.4,2.3,0.6,2.9c0,0,0,0,0,0c1,0.6,2.4,0.4,3-0.6c0,0,0,0,0,0c0.6-1,0.4-2.3-0.6-2.9
						c0,0,0,0,0,0C46.1,507.1,44.7,507.4,44.1,508.4z"/>
					<path class="st78" d="M38,506.7c-0.3,0.4-0.1,0.9,0.3,1.2c0,0,0,0,0,0c0.4,0.3,1,0.1,1.2-0.3c0.3-0.4,0.1-0.9-0.3-1.2
						c0,0,0,0,0,0C38.8,506.2,38.3,506.3,38,506.7C38,506.7,38,506.7,38,506.7z"/>
					<path class="st56" d="M6.2,198.2c-0.6,1-0.3,2.4,0.7,3c1,0.7,2.4,0.4,3.1-0.7c0.6-1,0.3-2.4-0.7-3c0,0,0,0,0,0
						C8.3,196.8,6.9,197.1,6.2,198.2z"/>
					<path class="st76" d="M30.3,204.6c-0.5-0.3-1.2-0.2-1.5,0.3c-0.3,0.5-0.2,1.2,0.3,1.5c0,0,0,0,0,0c0.5,0.3,1.2,0.2,1.5-0.3
						c0,0,0,0,0,0C30.9,205.6,30.8,205,30.3,204.6C30.3,204.7,30.3,204.7,30.3,204.6z"/>
					<path class="st57" d="M168.5,293.4c0.6-0.9,0.3-2.1-0.5-2.7c0,0,0,0-0.1,0c-0.9-0.6-2.1-0.3-2.7,0.6c-0.6,0.9-0.3,2.1,0.6,2.7
						c0,0,0,0,0,0C166.7,294.6,167.9,294.3,168.5,293.4z"/>
					<path class="st45" d="M48.8,242c-0.1,0.2-0.1,0.5,0.1,0.6c0.2,0.1,0.5,0.1,0.6-0.1c0.1-0.2,0.1-0.5-0.1-0.6c0,0,0,0,0,0
						C49.3,241.7,49,241.8,48.8,242C48.8,242,48.8,242,48.8,242z"/>
					<path class="st47" d="M73.1,310c-0.2,0.4-0.1,0.9,0.3,1.1c0,0,0,0,0,0c0.4,0.2,0.9,0.1,1.2-0.3c0.2-0.4,0.1-0.9-0.3-1.1
						c0,0,0,0,0,0C73.8,309.5,73.3,309.6,73.1,310z"/>
					<path class="st42" d="M51.5,319.3c-0.6,1-0.4,2.3,0.6,2.9c0,0,0,0,0,0c1,0.6,2.3,0.3,3-0.6c0.6-1,0.4-2.3-0.6-2.9c0,0,0,0,0,0
						C53.4,318,52.1,318.3,51.5,319.3z"/>
					<path class="st57" d="M7.3,383.3c-0.5,0.7-0.3,1.7,0.5,2.2c0,0,0,0,0,0c0.8,0.5,1.7,0.3,2.2-0.5c0.5-0.7,0.3-1.7-0.5-2.2
						c0,0,0,0,0,0C8.8,382.4,7.8,382.6,7.3,383.3z"/>
					<path class="st41" d="M100.3,345.9c-0.6,1-0.4,2.3,0.6,3c0,0,0,0,0,0c1,0.6,2.3,0.3,3-0.7c0.6-1,0.4-2.3-0.6-3c0,0,0,0-0.1,0
						C102.3,344.6,101,344.9,100.3,345.9z"/>
					<path class="st60" d="M45.3,317.6c-0.3,0.4-0.1,1,0.3,1.2c0.4,0.3,1,0.1,1.2-0.3c0.3-0.4,0.1-1-0.3-1.2c0,0,0,0,0,0
						C46.2,317.1,45.6,317.2,45.3,317.6z"/>
					<path class="st78" d="M52.7,459.2c0.1,0,0.2,0,0.2,0c0.1-0.1,0.1-0.2,0-0.2c-0.1,0-0.2,0-0.2,0.1
						C52.6,459,52.7,459.1,52.7,459.2L52.7,459.2z"/>
					<path class="st56" d="M41.1,346c0.4-0.6,0.2-1.3-0.4-1.6c0,0,0,0,0,0c-0.6-0.4-1.3-0.2-1.7,0.4c-0.4,0.6-0.2,1.3,0.4,1.7
						c0,0,0,0,0,0C40,346.7,40.7,346.6,41.1,346z"/>
					<path class="st25" d="M44.2,385.6c0.3-0.4,0.2-1-0.2-1.2c0,0,0,0,0,0c-0.4-0.3-1-0.1-1.3,0.3c-0.3,0.4-0.2,1,0.3,1.2
						c0,0,0,0,0,0C43.4,386.2,44,386,44.2,385.6z"/>
				</g>
			</g>
		</g>
		<g class="st79">
			<ellipse class="st80" cx="213.9" cy="512.1" rx="109.8" ry="28.2"/>
		</g>
		<path class="st81" d="M278.5,477c0,0-3.3,12.5,2.9,22.3c4.1,6.5-7.4,11.5-7.4,11.5l-25.9,18.5c-1.7,1.2-4.1,0.9-5.4-0.8
			c-2-2.6-6.2-5-14.1-0.3c0,0-1.2-11-12.9-4.4c0,0,5.7-8.8-6.6-5.5l13.2-9.3c1.1-0.8,2.3-1.5,3.5-2.2c7-3.9,14.9-6.4,22.6-8.8
			l8.1-2.6l0.9-13.6C257.3,481.8,270.9,464.6,278.5,477z"/>
		<path class="st82" d="M228.5,528.2c0.5-3.3,1.8-6.4,3.8-8.9c1.9-2.6,4.3-4.8,6.9-6.6l2-1.3c0.7-0.4,1.4-0.8,2.1-1.1
			c1.4-0.7,2.9-1.3,4.4-1.8c1.5-0.5,3.1-0.8,4.6-1.1c1.6-0.2,3.2-0.2,4.9-0.1l0.1,0.4c-1.4,0.6-2.8,1.1-4.1,1.7s-2.7,1.2-4.1,1.9
			s-2.6,1.4-3.9,2.2s-2.5,1.6-3.8,2.4c-2.5,1.7-4.8,3.6-7,5.6c-1.1,1-2.1,2.1-3.1,3.3c-1,1.1-1.9,2.3-2.6,3.6L228.5,528.2z"/>
		<path class="st82" d="M216.4,522.3c0.8-3.1,2.3-5.9,4.4-8.3c0.5-0.6,1-1.2,1.6-1.8c0.5-0.6,1.1-1.1,1.7-1.6c0.6-0.5,1.2-1,1.8-1.5
			c0.6-0.5,1.2-1,1.9-1.4c2.6-1.7,5.4-3.1,8.3-4.1c1.5-0.5,2.9-0.9,4.4-1.2c1.5-0.3,3.1-0.4,4.7-0.4l0.1,0.3
			c-1.4,0.6-2.8,1.1-4.1,1.7s-2.7,1.2-4,1.9s-2.6,1.3-3.9,2.1s-2.5,1.5-3.8,2.4c-2.5,1.6-4.8,3.5-6.9,5.5c-1.1,1-2.1,2.1-3.1,3.2
			c-1,1.1-1.9,2.3-2.7,3.5L216.4,522.3z"/>
		<path class="st82" d="M255.1,495.8c0.7-1,1.6-1.9,2.8-2.5c1.1-0.6,2.2-1,3.4-1.2c2.3-0.4,4.6-0.3,6.9,0.3c2.2,0.6,4.2,1.5,6.1,2.9
			c0.9,0.7,1.7,1.5,2.5,2.3c0.8,0.9,1.4,1.9,2,3l-0.2,0.4l-2.7-1.4l-2.8-1.3c-1.9-0.8-3.8-1.4-5.8-1.9c-2-0.5-4-0.9-6-0.9
			c-1,0-2,0-3,0.2c-1,0.1-2,0.3-2.9,0.7L255.1,495.8z"/>
		<path class="st81" d="M207.1,476.6c0,0-3,2.7,2.1,13.1c3.4,6.9-7.3,10.6-7.3,10.6L174.2,516c-1.8,1-4.1,0.5-5.2-1.3
			c-1.7-2.8-5.6-5.6-14-1.7c0,0,0-11.1-12.4-5.7c0,0,6.6-8.2-6-6.2l14.1-7.9c1.2-0.7,2.4-1.3,3.7-1.8c7.4-3.1,15.5-4.8,23.4-6.4
			l8.3-1.7l-1.3-11.2C184.8,472,200.8,463.4,207.1,476.6z"/>
		<path class="st82" d="M154.8,512.8c0.8-3.2,2.4-6.1,4.7-8.5c2.2-2.3,4.7-4.3,7.6-5.9l2.1-1.1c0.7-0.4,1.5-0.6,2.2-0.9
			c1.5-0.6,3-1,4.6-1.3c1.6-0.3,3.1-0.5,4.7-0.6c1.6,0,3.2,0.1,4.8,0.4l0.1,0.4c-1.4,0.4-2.9,0.8-4.3,1.3s-2.9,0.9-4.2,1.5
			s-2.8,1.1-4.1,1.8s-2.7,1.3-4,2c-2.6,1.4-5.1,3.1-7.5,4.9c-1.2,0.9-2.3,1.9-3.4,2.9c-1.1,1-2.1,2.1-3,3.3L154.8,512.8z"/>
		<path class="st82" d="M143.3,505.8c1.1-3,2.9-5.7,5.2-7.8c0.5-0.6,1.1-1.1,1.7-1.6c0.6-0.5,1.2-1,1.8-1.5c0.6-0.5,1.3-0.9,1.9-1.3
			c0.7-0.4,1.3-0.8,2-1.2c2.7-1.4,5.6-2.5,8.7-3.2c1.5-0.4,3-0.6,4.6-0.8c1.6-0.1,3.1-0.1,4.7,0l0.1,0.3c-1.4,0.4-2.9,0.8-4.3,1.2
			s-2.8,0.9-4.2,1.5s-2.8,1.1-4.1,1.7s-2.7,1.3-4,2c-2.6,1.4-5.1,3-7.5,4.7c-1.2,0.9-2.3,1.8-3.4,2.9c-1.1,1-2.1,2.1-3,3.2
			L143.3,505.8z"/>
		<path class="st82" d="M184.6,483.4c0.8-1,1.8-1.7,3-2.2c1.1-0.5,2.3-0.8,3.5-0.9c2.3-0.2,4.7,0.2,6.8,1c2.1,0.8,4.1,2,5.7,3.5
			c0.8,0.8,1.6,1.6,2.2,2.5c0.7,1,1.2,2,1.6,3.1l-0.2,0.3l-2.6-1.7l-2.6-1.6c-1.8-1-3.6-1.8-5.5-2.5c-1.9-0.7-3.8-1.3-5.9-1.5
			c-1-0.1-2-0.2-3-0.1c-1,0-2,0.1-3,0.4L184.6,483.4z"/>
		<path class="st83" d="M219.9,155c0,0,10.1-24.7-1-26.4s-1.8,27.1-1.8,27.1L219.9,155z"/>
		<path class="st83" d="M215.1,149.4c0,0-6.7-13.2-10.8-7.4s10.3,9.2,10.3,9.2L215.1,149.4z"/>
		<path class="st83" d="M222.3,149.7c-0.7-0.1-0.5-9.8,16.9-9.1C249.8,141,222.3,149.7,222.3,149.7z"/>
		<path class="st84" d="M150.9,355.1c0,0-47.2,55.6,11.8,105.6C162.8,460.6,201.1,410.1,150.9,355.1z"/>
		<path class="st85" d="M185.1,473c0-2,2.9-8,1.9-13.5c-18.7-35.5-34.6-83.2,18.1-126.3c34.9-28.5,50.5-21.8,59.4,62.2
			c-10.3,67.5-51.8,76.6-53.4,81.8l-1.2,2.4c-1.6,1.8,0.6,6.8-1.8,7.2c-5.4,1-19.3-2-22-6.8C185.6,477.8,185.3,475.4,185.1,473z"/>
		<path class="st86" d="M175.6,248.6c-1,2.7-8.1,51.5-67.5,56.4c0,0-29.7-2.5-9.3,20.4s68.2,25.9,94.5-8.2S175.6,248.6,175.6,248.6z
			"/>
		<path class="st83" d="M179.7,234.2c-3.1-2.2-26.4-21.8-7.6-59.3s86.8-35,109.5-9.7s19.8,58.9,27.1,92s25.8,91,26.8,133.4
			s-15.6,74.2-55.5,88.5s-105.7,11.5-129-35.3s6.3-136.4,16.6-164.4S184.5,237.6,179.7,234.2z"/>
		<path class="st87" d="M162.6,457.3c57.4,44.9,112.8-8.8,118-61.4c4.3-43.1-6.5-89.6-10.6-134.4c-0.9-9.8,4-22.8,4-32.4
			c0,0,14.5-40.5-18.6-52.7c-22.2-8.2-48,4.1-41.5,45.9c1.1,7-13-7.2-10.1,1.2c0,0,10.5,4.3-1.7-8.3c0,0-6,12.3-4.1,4.7
			c1.5-6.1,1.1-30.1-4.7-36.8c-13.9-15.9-33.3,4.3-26.6,26.8v0c0.9,3-0.3,2.9,1.6,5.9c0,0-8.1,7.6-0.7,25.5
			c9.6,22.9-9.7,61.3-16.2,90.6S131.8,433.2,162.6,457.3z"/>
		
			<ellipse transform="matrix(5.808678e-02 -0.9983 0.9983 5.808678e-02 14.5627 424.6683)" class="st88" cx="232.3" cy="204.6" rx="15.5" ry="14.2"/>
		<path class="st89" d="M218.2,204.1c-0.1,3.9,1.1,7.7,3.6,10.8c4.5,5.6,12.7,6.4,18.3,1.9c0.6-0.5,1.1-1,1.6-1.6
			c5.2-5.8,5.5-14.5,0.8-20.6c-2.3-3-5.8-4.9-9.6-5.1c-3.9-0.2-7.6,1.4-10.3,4.2C219.9,196.5,218.4,200.2,218.2,204.1z M218.1,204.1
			c0.1-3.9,1.7-7.7,4.3-10.6c4.9-5.5,13.4-6,18.9-1.1c0.6,0.5,1.2,1.1,1.7,1.8c5,6.4,4.7,15.5-0.8,21.5c-2.7,2.9-6.5,4.6-10.4,4.5
			c-4-0.2-7.6-2.1-10.1-5.2C219.2,211.9,218,208.1,218.1,204.1L218.1,204.1z"/>
		<ellipse transform="matrix(0.1378 -0.9905 0.9905 0.1378 1.2289 407.4506)" class="st90" cx="234.6" cy="203" rx="9.2" ry="8.6"/>
		
			<ellipse transform="matrix(0.9714 -0.2373 0.2373 0.9714 -40.4627 62.8782)" class="st91" cx="240.9" cy="199.5" rx="1.7" ry="2.5"/>
		
			<ellipse transform="matrix(1.116986e-02 -0.9999 0.9999 1.116986e-02 -21.4588 386.0376)" class="st88" cx="184.5" cy="203.9" rx="13.4" ry="10.6"/>
		<path class="st89" d="M173.9,203.4c-0.1,3.2,0.8,6.3,2.5,9c1.7,2.7,4.5,4.4,7.6,4.6c1.5,0,3-0.4,4.3-1.1c1.3-0.8,2.4-1.8,3.3-3
			c1.8-2.5,2.7-5.5,2.8-8.5c0.1-3.1-0.6-6.1-2.2-8.7c-1.5-2.7-4.2-4.5-7.3-4.8c-3.1-0.1-6.1,1.3-8,3.9
			C175,197.3,174,200.3,173.9,203.4z M173.8,203.4c0.1-3.2,1.1-6.3,3-8.9c0.9-1.3,2.2-2.3,3.6-3.1c1.4-0.8,3-1.1,4.6-1.1
			c1.6,0.1,3.1,0.6,4.5,1.5c1.3,0.9,2.5,2,3.3,3.4c1.7,2.7,2.5,5.9,2.4,9.1c-0.1,3.2-1.1,6.3-3,8.9c-1,1.3-2.2,2.3-3.6,3.1
			c-1.4,0.8-3,1.1-4.6,1.1c-1.6-0.1-3.1-0.6-4.5-1.5c-1.3-0.9-2.4-2-3.3-3.4C174.5,209.8,173.7,206.6,173.8,203.4L173.8,203.4z"/>
		<ellipse class="st90" cx="186" cy="202.8" rx="6.9" ry="8.1"/>
		<ellipse class="st91" cx="190.9" cy="200.1" rx="2.2" ry="2.6"/>
		<path class="st92" d="M201.7,245.1c5.4,0.4,25.4-13.2,25.3-17.1l0,0c0,0,0-0.1,0-0.1c0-0.1-0.4,0-1.1,0.2c-0.2,0-0.3,0.1-0.5,0.1
			c-1.2,0.4-2.4,0.5-3.6,0.3c-3.8-0.7-9.8-8.3-17.7-13.9c-0.2-0.1-0.4-0.2-0.6-0.3c-0.1-0.1-0.3-0.2-0.5-0.2
			c-0.2-0.1-0.4-0.1-0.5-0.1c-0.1,0-0.3,0-0.4,0c-0.1,0-0.3,0-0.4,0.1c-0.2,0-0.3,0.1-0.5,0.1c0,0-0.1,0-0.1,0
			c-0.2,0.1-0.3,0.1-0.4,0.2c-0.2,0.1-0.3,0.2-0.5,0.3c-4.1,2.7-8,12-10.8,11.6l0,0h-0.4c-0.7-0.1-2,0-2.3,0.9c0,0.2,0,0.5,0,0.7
			c0,0.1,0,0.1,0,0.2C186.7,231.8,198.7,245,201.7,245.1z"/>
		<path class="st93" d="M197.4,237.5c6.7,0.1,12.3-2.9,15.1-4.1c2.6-1,13.5-5.3,13.5-5.3s-17.9,5.1-20.5,5.1c-4.7,0.1-9.3-4-9.3-4
			s-2.7,2.6-4.6,1.9c-0.6-0.1-1.2-0.3-1.7-0.7C190.8,232.4,193,237.4,197.4,237.5z"/>
		<path class="st92" d="M188.8,229.6c0.6,0.5,1.3,0.9,2,1.2c2.9,1.3,5.3-1.6,5.3-1.6c2.6,2.3,5.9,3.7,9.3,4c2.1,0.3,10-1.7,13.1-2.5
			c4.4-1.1,8.4-2.6,8.4-2.6l0,0c-0.1-0.1-0.4-0.1-1,0.1c-0.2,0-0.3,0.1-0.5,0.1c-1.2,0.4-2.4,0.5-3.6,0.3
			c-3.8-0.7-9.8-8.3-17.7-13.9c-0.2-0.1-0.4-0.2-0.6-0.3c-0.1-0.1-0.3-0.2-0.5-0.2c-0.2-0.1-0.4-0.1-0.5-0.1c-0.1,0-0.3,0-0.4,0
			c-0.1,0-0.3,0-0.4,0.1c-0.2,0-0.3,0.1-0.5,0.1c0,0-0.1,0-0.1,0c-0.2,0.1-0.3,0.1-0.4,0.2c-0.2,0.1-0.3,0.2-0.5,0.3
			c-4.1,2.7-8,12-10.8,11.6l0,0h-0.4c-0.7-0.1-2,0-2.3,0.9C187.3,228.2,188,229,188.8,229.6z"/>
		<path class="st83" d="M268.7,239.5c0.3,2.6-0.2,45.1-27.7,60.1c-56.1,30.6-57.6,63.7-42.4,69.8c18,7.1,108.1-38.8,114-88.4"/>
		<path class="st94" d="M225.8,225.8c0.9-0.1,1.9,0,2.8,0.2c0.4,0.1,0.7,0.4,0.9,0.8c0.2,0.4,0.2,0.8,0.1,1.2
			c-0.1,0.9-0.4,1.8-0.8,2.6c-0.4,0.9-0.8,1.7-1.1,2.6c0.6-0.7,1.2-1.5,1.7-2.3c0.5-0.9,0.8-1.8,1-2.8c0.1-0.6,0-1.1-0.3-1.6
			c-0.3-0.5-0.8-0.9-1.3-1c-0.5-0.1-1-0.1-1.5-0.1C226.7,225.5,226.2,225.7,225.8,225.8z"/>
		<path class="st94" d="M188.5,224c-0.4-0.2-0.8-0.3-1.3-0.4c-0.5-0.1-1,0-1.4,0.1c-0.2,0.1-0.5,0.2-0.6,0.4
			c-0.2,0.2-0.3,0.4-0.4,0.7c-0.2,0.5-0.2,1-0.1,1.5c0.1,0.9,0.4,1.8,0.9,2.6c0.4,0.8,0.9,1.5,1.5,2.2c-0.3-0.8-0.6-1.6-1-2.4
			c-0.3-0.8-0.5-1.6-0.7-2.4c-0.2-0.7,0.1-1.5,0.7-1.9c0.4-0.2,0.8-0.3,1.2-0.3C187.6,224,188,224,188.5,224z"/>
		<path class="st83" d="M335.5,404.4c-10.3,67.4-46.8,78.8-55.9,85.8l0,0c-1.6,1.9-3.9,3.2-6.4,3.6c-5.4,1-13.4,0.2-16.9-3.6
			c0,0-4.9-7.5-4.9-9.2c0.1-2,7.6-7,6.5-12.5c-18.7-35.5-30.9-82.7,21.9-125.8"/>
		<path class="st83" d="M243.7,306.5c-1.4-3.6-37.4-2.8-38,7.2s18.3-1.7,11.1,17.2S255.1,334.7,243.7,306.5z"/>
		<path class="st86" d="M142.2,294c2.6,1.7-4,19.4-11.9,17.1s4.3-8.7-11.6-10S122.1,281,142.2,294z"/>
		<path class="st95" d="M264.2,182.2c0,0,8.8,4.5,13.2,24.3c5.2,23.6,2.4,49.3-33.8,57.4"/>
		<path class="st96" d="M264.3,182.1c1.9,1.1,3.7,2.5,5.1,4.3c1.4,1.7,2.7,3.5,3.8,5.4c2.1,3.9,3.8,8,5,12.3
			c0.6,2.1,1.1,4.3,1.6,6.4s0.8,4.4,1,6.6c0.5,4.5,0.5,9,0,13.4c-0.6,4.5-1.9,8.9-4,13c-1.1,2-2.4,3.9-3.8,5.7
			c-1.4,1.8-3.1,3.4-4.8,4.8c-3.5,2.8-7.4,5-11.6,6.7c-1,0.4-2.1,0.7-3.1,1.1l-3.2,0.9l-3.2,0.7l-3.3,0.5v-0.2
			c8.5-1.9,16.8-5.2,23.4-10.9c1.6-1.4,3.1-3,4.5-4.7c1.3-1.7,2.5-3.5,3.5-5.5c1-1.9,1.8-3.9,2.4-6c0.6-2.1,1.1-4.2,1.4-6.4
			c0.6-4.3,0.6-8.7,0.2-13c-0.4-4.3-1.1-8.6-2.2-12.9c-1-4.2-2.5-8.3-4.4-12.3c-1-1.9-2.2-3.8-3.5-5.5c-1.3-1.7-2.9-3.2-4.7-4.4
			L264.3,182.1z"/>
		<path class="st95" d="M166.2,235.7c0,0,2.8,17.6,23,23"/>
		<path class="st96" d="M166.2,235.7c0.4,1.4,0.9,2.7,1.4,4c0.6,1.3,1.2,2.6,1.9,3.8c1.4,2.4,3.2,4.7,5.2,6.6c1,1,2.1,1.9,3.2,2.8
			l1.7,1.2c0.6,0.4,1.2,0.7,1.8,1.1c1.2,0.7,2.5,1.4,3.8,1.9c1.3,0.6,2.6,1,4,1.6c-0.7-0.2-1.4-0.3-2.1-0.5
			c-0.7-0.2-1.4-0.4-2.1-0.6c-1.4-0.5-2.7-1.1-4-1.7c-5.2-2.6-9.5-6.8-12.2-12C167.6,241.4,166.6,238.6,166.2,235.7z"/>
	</g>
</g>
<path class="st3" d="M63.5,56.4c0.9-7,8.4-11.6,13.9-4.8s5.9,13.2,1.3,14.2"/>
<path class="st2" d="M63.8,65.2C60.3,58,65.3,50.1,72,51c6.4,0.9,10.4,13.7,9,16.6S68.6,75,63.8,65.2z"/>
<path class="st97" d="M65.2,65.6c-1.1-3.8,3.1-8.9,7.5-8.6s4.4,9.7,3.2,12S67.3,72.6,65.2,65.6z"/>
<path class="st0" d="M60.4,71.8c-16.6-4-37.6,19.6-31.6,29.3c2.5,4.1,12,6.1,14.4,1.9c0.9-1.6-1.3-2.4-2.5-2.7
	c-2.1-0.4-1.8-3.2,1.6-3.9c5.5-1.1,5.4,12-5.2,11.7c-8.8-0.2-11.7-5.3-11.8-15.5c-0.1-12.2,29-29,38.6-23.5"/>
<path class="st98" d="M61.2,67.8c-16.6-4-37.6,19.6-31.6,29.3c2.5,4.1,12,6.1,14.4,1.9c0.9-1.6-1.3-2.4-2.5-2.7
	c-2.2-0.4-1.8-3.2,1.6-3.9c5.5-1.1,5.4,12-5.2,11.7c-8.8-0.2-11.7-5.3-11.8-15.5c-0.1-12.2,29-29,38.6-23.5"/>
<path class="st99" d="M58.2,65.4c-9.8-2.5-36.6,15.1-30.9,29.7C24,85.2,43.8,67.4,58.2,65.4z"/>
<path class="st100" d="M29.4,99.7c2.1-0.3,2.3,7.9-3.1,6.5C22.1,105,26.3,100.1,29.4,99.7z"/>
<path class="st101" d="M27.8,106.4c2.8,0,3-4.6,0.6-4S24.2,106.3,27.8,106.4z"/>
<path class="st99" d="M40.3,95.3c1.2,1.7,4.6,0.8,3.8-0.8S39,93.5,40.3,95.3z"/>
<path class="st100" d="M26.1,89.2c2.1,0.1-1.3,8-5.7,5.5C17,92.8,23.1,89,26.1,89.2z"/>
<path class="st101" d="M21.7,95.2c2.8,0.5,5.5-4.1,2.7-3.9S18.1,94.6,21.7,95.2z"/>
<path class="st100" d="M35.2,74.6c2-0.9-5.6-7.1-8.2-3.1C25,74.6,32.3,75.8,35.2,74.6z"/>
<path class="st101" d="M27.9,70.5c2.4-1.5,8.4,2.1,5.5,2.9S24.8,72.4,27.9,70.5z"/>
<path class="st0" d="M65.6,68.6c6.8-7.1,13.3,2.8,9,5s-5.2-3.6-8.8-3.8c1.3,3.8-4.2,6.7-8.1,3.2s2.7-5.7,6.5-4.4
	c-1.8-4.9-8.6-6.7-4-9.7C65.4,55.6,69.6,64,65.6,68.6z"/>
<path class="st100" d="M64.6,65.9c6.7-7.1,11.2,3.1,8.3,6.6c-2,2.4-4.4-5.2-8-5.4c1.3,3.8-4.2,6.7-8.1,3.2s2.7-5.7,6.5-4.4
	c-1.8-4.9-8.6-6.7-4-9.7C64.3,52.9,68.6,61.3,64.6,65.9z"/>
<path class="st101" d="M73.1,67.8c-0.7-3.7-5.4-4.8-5.3-1.8S74.5,75,73.1,67.8z"/>
<path class="st101" d="M65,63c0.7-4.1-0.9-8.3-4-6.1S62.5,63.3,65,63z"/>
<path class="st101" d="M61.2,69.2c-2.3-3.2-5.6-1.7-4.6,0S62.8,71.5,61.2,69.2z"/>
</svg>
