<svg id="Layer_1" data-name="Layer 1" xmlns="http://www.w3.org/2000/svg" viewBox="0 0 128 128"><defs><style>.cls-1{fill:#898989;}</style></defs><path class="cls-1" d="M86,70.24l-6.68,1.24L78.49,71l4-.74A1.19,1.19,0,1,0,82,67.93l-6.68,1.24-6.9-4h5.31a1.19,1.19,0,1,0,0-2.38H68.43l6.9-4L82,60.07l.22,0a1.2,1.2,0,0,0,1.17-1,1.18,1.18,0,0,0-1-1.38l-4-.74.85-.48L86,57.76l.22,0a1.19,1.19,0,0,0,.21-2.36l-4-.73,2.71-1.56A1.19,1.19,0,0,0,84,51.07l-2.71,1.56,1.35-3.79a1.19,1.19,0,0,0-.73-1.51,1.18,1.18,0,0,0-1.51.72l-2.27,6.41-.84.49,1.34-3.79a1.19,1.19,0,1,0-2.24-.79l-2.27,6.4-6.9,4,2.66-4.6A1.19,1.19,0,0,0,67.84,55l-2.65,4.6v-8l4.41-5.16a1.19,1.19,0,1,0-1.8-1.55L65.19,48V47l4.41-5.17a1.18,1.18,0,1,0-1.8-1.54l-2.61,3V40.2a1.19,1.19,0,1,0-2.38,0v3.12l-2.61-3a1.18,1.18,0,1,0-1.8,1.54L62.81,47v1L60.2,44.89a1.19,1.19,0,1,0-1.8,1.55l4.41,5.16v8L60.16,55a1.19,1.19,0,0,0-2.06,1.19l2.66,4.6-6.9-4-2.27-6.4a1.19,1.19,0,1,0-2.24.79L50.69,55l-.84-.49-2.27-6.41a1.18,1.18,0,0,0-1.51-.72,1.19,1.19,0,0,0-.73,1.51l1.35,3.79L44,51.07a1.19,1.19,0,0,0-1.19,2.06l2.71,1.56-4,.73a1.19,1.19,0,0,0,.21,2.36l.22,0,6.68-1.24.85.48-4,.74a1.18,1.18,0,0,0-.95,1.38,1.2,1.2,0,0,0,1.17,1l.22,0,6.68-1.24,6.9,4H54.26a1.19,1.19,0,1,0,0,2.38h5.31l-6.9,4L46,67.93a1.19,1.19,0,1,0-.44,2.33l4,.74-.85.48L42,70.24a1.19,1.19,0,0,0-.43,2.34l4,.73-2.71,1.56a1.19,1.19,0,0,0-.43,1.62,1.18,1.18,0,0,0,1.62.44l2.71-1.56-1.35,3.79a1.19,1.19,0,0,0,.73,1.51,1.07,1.07,0,0,0,.39.07A1.18,1.18,0,0,0,47.58,80l2.27-6.41.84-.49-1.34,3.79a1.19,1.19,0,0,0,.73,1.52,1.34,1.34,0,0,0,.39.07,1.19,1.19,0,0,0,1.12-.8l2.27-6.4,6.9-4-2.66,4.6a1.18,1.18,0,0,0,.44,1.62,1.14,1.14,0,0,0,.59.16,1.19,1.19,0,0,0,1-.59l2.65-4.6v8L58.4,81.56a1.19,1.19,0,1,0,1.8,1.55l2.61-3.06v1L58.4,86.19a1.18,1.18,0,1,0,1.8,1.54l2.61-3V87.8a1.19,1.19,0,1,0,2.38,0V84.68l2.61,3a1.17,1.17,0,0,0,.9.42,1.18,1.18,0,0,0,.9-2L65.19,81v-1l2.61,3.06a1.19,1.19,0,1,0,1.8-1.55L65.19,76.4v-8L67.84,73a1.19,1.19,0,0,0,1,.59,1.14,1.14,0,0,0,.59-.16,1.18,1.18,0,0,0,.44-1.62l-2.66-4.6,6.9,4,2.27,6.4a1.19,1.19,0,0,0,1.12.8,1.34,1.34,0,0,0,.39-.07,1.19,1.19,0,0,0,.73-1.52l-1.34-3.79.84.49L80.42,80a1.18,1.18,0,0,0,1.12.79,1.07,1.07,0,0,0,.39-.07,1.19,1.19,0,0,0,.73-1.51l-1.35-3.79L84,76.93a1.18,1.18,0,0,0,1.62-.44,1.19,1.19,0,0,0-.43-1.62L82.5,73.31l4-.73A1.19,1.19,0,0,0,86,70.24Z"/></svg>