<svg id="Layer_1" data-name="Layer 1" xmlns="http://www.w3.org/2000/svg" viewBox="0 0 128 128"><defs><style>.cls-1{fill:#97f0ff;}</style></defs><circle class="cls-1" cx="64" cy="64" r="4.11"/><path class="cls-1" d="M64,61.08a1.19,1.19,0,0,1-1.19-1.19V40.2a1.19,1.19,0,1,1,2.38,0V59.89A1.19,1.19,0,0,1,64,61.08Z"/><path class="cls-1" d="M64,47.72a1.18,1.18,0,0,1-.9-.41l-4.7-5.5a1.18,1.18,0,1,1,1.8-1.54L64,44.71l3.8-4.44a1.18,1.18,0,1,1,1.8,1.54l-4.7,5.5A1.18,1.18,0,0,1,64,47.72Z"/><path class="cls-1" d="M64,52.35a1.18,1.18,0,0,1-.9-.41l-4.7-5.5a1.19,1.19,0,1,1,1.8-1.55L64,49.34l3.8-4.45a1.19,1.19,0,1,1,1.8,1.55l-4.7,5.5A1.18,1.18,0,0,1,64,52.35Z"/><path class="cls-1" d="M60.44,63.13a1.16,1.16,0,0,1-.59-.16L42.79,53.13A1.19,1.19,0,0,1,44,51.07L61,60.92a1.19,1.19,0,0,1-.6,2.21Z"/><path class="cls-1" d="M41.76,57.78a1.19,1.19,0,0,1-.21-2.36l5.75-1.06-2-5.52a1.19,1.19,0,0,1,.73-1.51,1.18,1.18,0,0,1,1.51.72L50,54.87a1.19,1.19,0,0,1-.91,1.57L42,57.76Z"/><path class="cls-1" d="M45.77,60.09a1.18,1.18,0,0,1-.22-2.35l5.75-1.07-1.95-5.51a1.19,1.19,0,1,1,2.24-.79L54,57.19a1.15,1.15,0,0,1-.09,1,1.17,1.17,0,0,1-.81.57L46,60.07Z"/><path class="cls-1" d="M43.39,77.09a1.18,1.18,0,0,1-1-.6,1.19,1.19,0,0,1,.43-1.62L59.85,65a1.19,1.19,0,1,1,1.19,2L44,76.93A1.16,1.16,0,0,1,43.39,77.09Z"/><path class="cls-1" d="M46.46,80.74a1.07,1.07,0,0,1-.39-.07,1.19,1.19,0,0,1-.73-1.51l2-5.52-5.75-1.06A1.19,1.19,0,0,1,42,70.24l7.11,1.32A1.19,1.19,0,0,1,50,73.13L47.58,80A1.18,1.18,0,0,1,46.46,80.74Z"/><path class="cls-1" d="M50.47,78.43a1.34,1.34,0,0,1-.39-.07,1.19,1.19,0,0,1-.73-1.52l1.95-5.51-5.75-1.07A1.19,1.19,0,1,1,46,67.93l7.11,1.32a1.17,1.17,0,0,1,.81.57,1.15,1.15,0,0,1,.09,1l-2.41,6.82A1.19,1.19,0,0,1,50.47,78.43Z"/><path class="cls-1" d="M64,89a1.19,1.19,0,0,1-1.19-1.19V68.11a1.19,1.19,0,0,1,2.38,0V87.8A1.19,1.19,0,0,1,64,89Z"/><path class="cls-1" d="M68.7,88.15a1.17,1.17,0,0,1-.9-.42L64,83.29l-3.8,4.44a1.18,1.18,0,1,1-1.8-1.54l4.7-5.5a1.19,1.19,0,0,1,1.8,0l4.7,5.5a1.18,1.18,0,0,1-.9,2Z"/><path class="cls-1" d="M68.7,83.52a1.19,1.19,0,0,1-.9-.41L64,78.66l-3.8,4.45a1.19,1.19,0,1,1-1.8-1.55l4.7-5.5a1.19,1.19,0,0,1,1.8,0l4.7,5.5a1.18,1.18,0,0,1-.9,2Z"/><path class="cls-1" d="M84.61,77.09a1.16,1.16,0,0,1-.59-.16L67,67.08a1.19,1.19,0,1,1,1.19-2l17.06,9.84a1.19,1.19,0,0,1,.43,1.62A1.18,1.18,0,0,1,84.61,77.09Z"/><path class="cls-1" d="M81.54,80.74A1.18,1.18,0,0,1,80.42,80L78,73.13a1.19,1.19,0,0,1,.91-1.57L86,70.24a1.19,1.19,0,0,1,.43,2.34L80.7,73.64l2,5.52a1.19,1.19,0,0,1-.73,1.51A1.07,1.07,0,0,1,81.54,80.74Z"/><path class="cls-1" d="M77.53,78.43a1.19,1.19,0,0,1-1.12-.8L74,70.81a1.15,1.15,0,0,1,.09-1,1.17,1.17,0,0,1,.81-.57L82,67.93a1.19,1.19,0,1,1,.44,2.33L76.7,71.33l2,5.51a1.19,1.19,0,0,1-.73,1.52A1.34,1.34,0,0,1,77.53,78.43Z"/><path class="cls-1" d="M67.56,63.13a1.19,1.19,0,0,1-.6-2.21L84,51.07a1.19,1.19,0,0,1,1.19,2.06L68.15,63A1.16,1.16,0,0,1,67.56,63.13Z"/><path class="cls-1" d="M86.24,57.78l-.22,0-7.11-1.32A1.19,1.19,0,0,1,78,54.87l2.42-6.82a1.18,1.18,0,0,1,1.51-.72,1.19,1.19,0,0,1,.73,1.51l-2,5.52,5.75,1.06a1.19,1.19,0,0,1-.21,2.36Z"/><path class="cls-1" d="M82.23,60.09l-.22,0L74.9,58.75a1.17,1.17,0,0,1-.81-.57,1.15,1.15,0,0,1-.09-1l2.41-6.82a1.19,1.19,0,1,1,2.24.79l-2,5.51,5.75,1.07a1.18,1.18,0,0,1-.22,2.35Z"/><path class="cls-1" d="M64,61.08a1.19,1.19,0,0,1-1.19-1.19V54.26a1.19,1.19,0,1,1,2.38,0v5.63A1.19,1.19,0,0,1,64,61.08Z"/><path class="cls-1" d="M62,61.63a1.19,1.19,0,0,1-1-.59L58.1,56.16A1.19,1.19,0,0,1,60.16,55L63,59.85a1.18,1.18,0,0,1-.43,1.62A1.16,1.16,0,0,1,62,61.63Z"/><path class="cls-1" d="M59.89,65.19H54.26a1.19,1.19,0,1,1,0-2.38h5.63a1.19,1.19,0,0,1,0,2.38Z"/><path class="cls-1" d="M59.13,73.62a1.14,1.14,0,0,1-.59-.16,1.18,1.18,0,0,1-.44-1.62L60.92,67a1.19,1.19,0,1,1,2,1.19L60.16,73A1.19,1.19,0,0,1,59.13,73.62Z"/><path class="cls-1" d="M68.87,73.62a1.19,1.19,0,0,1-1-.59L65,68.15a1.19,1.19,0,0,1,2-1.19l2.82,4.88a1.18,1.18,0,0,1-.44,1.62A1.14,1.14,0,0,1,68.87,73.62Z"/><path class="cls-1" d="M73.74,65.19H68.11a1.19,1.19,0,0,1,0-2.38h5.63a1.19,1.19,0,1,1,0,2.38Z"/><path class="cls-1" d="M66.05,61.63a1.16,1.16,0,0,1-.59-.16A1.18,1.18,0,0,1,65,59.85L67.84,55a1.19,1.19,0,0,1,2.06,1.19L67.08,61A1.19,1.19,0,0,1,66.05,61.63Z"/></svg>