<?xml version="1.0" encoding="utf-8"?>
<!-- Generator: Adobe Illustrator 25.2.3, SVG Export Plug-In . SVG Version: 6.00 Build 0)  -->
<svg version="1.1" id="Layer_1" xmlns="http://www.w3.org/2000/svg" xmlns:xlink="http://www.w3.org/1999/xlink" x="0px" y="0px"
	 viewBox="0 0 430 512" style="enable-background:new 0 0 430 512;" xml:space="preserve">
<style type="text/css">
	.st0{fill:#0FEA1E;}
</style>
<path class="st0" d="M430.9,82.4c-0.9-16.1-4.7-29.4-11.1-39.6c-6.8-13.4-21.2-29.1-51.2-29.3c-3.2,0-11.3,0-22.3,0
	c-2.8,0-277.2,0.1-298.4,3.4C19.3,21.3-1.4,44.8-1.3,72.8v6.3c0.8,229.3,3.2,353.3,7,368.4c1.4,5.8,3.8,11.3,7,16.3
	c6.6,13,21.4,28.7,55,31.9c14,1.3,118.6,2.8,203.5,2.8l0,0c95.8,0,105.7-1.7,108.9-2.3c27.8-4.8,42-20.1,46-49.6
	C429.5,422.6,432.4,109,430.9,82.4z M412.4,444.8c-3,22.5-11.9,33.8-34.5,37.7S91,483.9,69.2,481.8c-19-1.8-36.3-8.5-44.2-25
	c-2.6-3.9-4.5-8.2-5.6-12.8c-5.7-22.4-6.5-349.9-6.6-371.3s16-38.8,37.2-42.1c19.4-3,295.8-3.3,318.5-3.2
	c18.9,0.2,31.9,7.5,39.1,22.3c5.4,8.2,8.5,19.4,9.3,33.4C418.3,107.9,415.4,422.3,412.4,444.8z"/>
</svg>
